<?xml version="1.0" encoding="utf-8"?>
<!-- Generator: Adobe Illustrator 9.0, SVG Export Plug-In  -->
<!DOCTYPE svg PUBLIC "-//W3C//DTD SVG 20000303 Stylable//EN"   "http://www.w3.org/TR/2000/03/WD-SVG-20000303/DTD/svg-20000303-stylable.dtd" [
	<!ENTITY st0 "fill:#FFFFFF;stroke-width:0.5;">
	<!ENTITY st1 "fill-rule:nonzero;clip-rule:nonzero;stroke:#000000;stroke-miterlimit:4;">
	<!ENTITY st2 "stroke:none;">
]>
<!-- This set of SVG files is a complete cards game with figures, numbers	-->
<!--    and backs of cards completely designed in SVG.				-->
<!--    									-->
<!--    Copyright (C) 2004 David Bellot						-->
<!--										-->
<!--    This library is free software; you can redistribute it and/or		-->
<!--    modify it under the terms of the GNU Lesser General Public		-->
<!--    License as published by the Free Software Foundation; either		-->
<!--    version 2 of the License, or (at your option) any later version		-->
<!--										-->
<!--    This library is distributed in the hope that it will be useful,		-->
<!--    but WITHOUT ANY WARRANTY; without even the implied warranty of		-->
<!--    MERCHANTABILITY or FITNESS FOR A PARTICULAR PURPOSE.  See the GNU	-->
<!--    Lesser General Public License for more details.				-->
<!--										-->
<!--    You should have received a copy of the GNU Lesser General Public	-->
<!--    License along with this library; if not, write to the Free Software	-->
<!--    Foundation, Inc., 59 Temple Place, Suite 330, Boston, MA 02111-1307  USA-->
<!--										-->
<!--    Contact the author David Bellot at bellot@stat.berkeley.edu or 		-->
<!--    david.bellot@free.fr or yimyom@users.sourceforge.net			-->
<svg  width="167.0864258pt" height="242.6674805pt" viewBox="0 0 167.0864258 242.6674805" xml:space="preserve">
	<g id="Layer_x0020_1" style="&st1;">
		<path style="&st0;" d="M166.8364258,235.5473633c0,3.7802734-3.0859375,6.8701172-6.8701172,6.8701172H7.1113281c-3.7753906,0-6.8613281-3.0898438-6.8613281-6.8701172V7.1201172C0.25,3.3452148,3.3359375,0.25,7.1113281,0.25h152.8549805
			c3.7841797,0,6.8701172,3.0952148,6.8701172,6.8701172v228.4272461z"/>
		<g style="&st2;">
			<path d="M91.8442383,111.4248047c0,3.7753906-3.1523438,6.8339844-7.0449219,6.8339844c-3.8916016,0-7.0458984-3.0585938-7.0458984-6.8339844c0-3.7734375,3.1542969-6.8330078,7.0458984-6.8330078c3.8925781,0,7.0449219,3.0595703,7.0449219,6.8330078z"/>
			<path d="M100.9174805,124.3549805c0,3.7744141-3.1542969,6.8339844-7.0458984,6.8339844c-3.8925781,0-7.046875-3.0595703-7.046875-6.8339844c0-3.7739258,3.1542969-6.8330078,7.046875-6.8330078c3.8916016,0,7.0458984,3.059082,7.0458984,6.8330078z"/>
			<path d="M82.8754883,124.4057617c0,1.3818359-0.4233398,2.6679688-1.1503906,3.7431641c-1.2592773,1.8603516-3.4296875,3.0888672-5.8964844,3.0888672c-3.8916016,0-7.0454102-3.0576172-7.0454102-6.8320313s3.1538086-6.8339844,7.0454102-6.8339844
				s7.046875,3.0595703,7.046875,6.8339844z"/>
			<g>
				<path d="M93.0629883,137.668457c-3.4785156,0.0029297-5.3085938-2.8271484-6.2695313-5.6572266s-1.0507813-5.6601563-1.0507813-5.6601563l-1.7753906-0.0146484c0,0-0.3339844,11.3242188-7.2905273,11.3291016l16.3862305,0.0029297z"/>
			</g>
			<g>
				<path d="M80.0097656,116.4370117c3.9575195,3.9575195,3.9575195,9.8994141,3.9575195,9.8994141l1.7753906,0.0146484c0,0,0-6.0678711,3.8457031-9.9140625"/>
			</g>
			<g>
				<path d="M80.8017578,129.1538086c3.9575195-3.9570313,9.8999023-3.9570313,9.8999023-3.9570313l0.0136719-1.7753906c0,0-6.0673828,0-9.9135742-3.8466797"/>
			</g>
			<g>
				<path d="M88.7387695,129.1831055c-3.9570313-3.9570313-9.8994141-3.9570313-9.8994141-3.9570313l-0.0141602-1.7753906c0,0,6.0678711,0,9.9135742-3.8466797"/>
			</g>
		</g>
		<g>
			<path style="&st2;" d="M12.6132813,25.8271484v-1.46875h1.5V9.7602539l-1.6875,2.2236328v-1.8007813l2.0283203-2.730957h1.6904297v16.90625h1.53125v1.46875h-5.0625z"/>
		</g>
		<g>
			<path style="&st2;" d="M153.8862305,216.4086914v1.46875h-1.5v14.5986328l1.6875-2.2246094v1.8007813l-2.0283203,2.7314453h-1.6904297v-16.90625h-1.53125v-1.46875h5.0625z"/>
		</g>
		<g style="&st2;">
			<path d="M18.140625,31.1591797c0,1.1342773-0.9477539,2.0532227-2.1171875,2.0532227c-1.1689453,0-2.1166992-0.9189453-2.1166992-2.0532227c0-1.1337891,0.9477539-2.0532227,2.1166992-2.0532227c1.1694336,0,2.1171875,0.9194336,2.1171875,2.0532227z"/>
			<path d="M20.8662109,35.0439453c0,1.1342773-0.9477539,2.0532227-2.1171875,2.0532227c-1.1689453,0-2.1166992-0.9189453-2.1166992-2.0532227c0-1.1337891,0.9477539-2.0527344,2.1166992-2.0527344c1.1694336,0,2.1171875,0.9189453,2.1171875,2.0527344z"/>
			<path d="M15.4453125,35.059082c0,0.4150391-0.1269531,0.8017578-0.3457031,1.1245117c-0.3779297,0.5595703-1.0302734,0.9287109-1.7714844,0.9287109c-1.1689453,0-2.1166992-0.9189453-2.1166992-2.0532227c0-1.1337891,0.9477539-2.0532227,2.1166992-2.0532227
				c1.1694336,0,2.1171875,0.9194336,2.1171875,2.0532227z"/>
			<g>
				<path d="M18.5063477,39.0439453c-1.0454102,0.0009766-1.5952148-0.8491211-1.8837891-1.6992188c-0.2885742-0.8505859-0.3154297-1.7011719-0.3154297-1.7011719l-0.5336914-0.0043945c0,0-0.1000977,3.4023438-2.1904297,3.4042969l4.9233398,0.0004883z"/>
			</g>
			<g>
				<path d="M14.5844727,32.6650391c1.1889648,1.1889648,1.1889648,2.9741211,1.1889648,2.9741211l0.5336914,0.0043945c0,0,0-1.8232422,1.1552734-2.9785156"/>
			</g>
			<g>
				<path d="M14.8222656,36.4858398c1.1894531-1.1889648,2.9746094-1.1889648,2.9746094-1.1889648l0.0039063-0.5336914c0,0-1.8227539,0-2.9785156-1.1552734"/>
			</g>
			<g>
				<path d="M17.2070313,36.4946289c-1.1889648-1.1889648-2.9741211-1.1889648-2.9741211-1.1889648l-0.0043945-0.5336914c0,0,1.8232422,0,2.9785156-1.1552734"/>
			</g>
		</g>
		<g style="&st2;">
			<path d="M148.2788086,210.7719727c0-1.1337891,0.9482422-2.0537109,2.1162109-2.0537109c1.1699219,0,2.1171875,0.9199219,2.1171875,2.0537109s-0.9472656,2.0527344-2.1171875,2.0527344c-1.1679688,0-2.1162109-0.9189453-2.1162109-2.0527344z"/>
			<path d="M145.5532227,206.887207c0-1.1337891,0.9472656-2.0537109,2.1171875-2.0537109c1.1689453,0,2.1171875,0.9199219,2.1171875,2.0537109s-0.9482422,2.0527344-2.1171875,2.0527344c-1.1699219,0-2.1171875-0.9189453-2.1171875-2.0527344z"/>
			<path d="M150.9731445,206.8725586c0-0.4160156,0.1269531-0.8027344,0.3457031-1.125c0.3789063-0.5595703,1.03125-0.9287109,1.7714844-0.9287109c1.1699219,0,2.1171875,0.9189453,2.1171875,2.0537109c0,1.1328125-0.9472656,2.0527344-2.1171875,2.0527344
				c-1.1679688,0-2.1171875-0.9199219-2.1171875-2.0527344z"/>
			<g>
				<path d="M147.9125977,202.8862305c1.0449219,0,1.5957031,0.8496094,1.8847656,1.7001953c0.2871094,0.8505859,0.3144531,1.7011719,0.3144531,1.7011719l0.5332031,0.0039063c0,0,0.1005859-3.4023438,2.1914063-3.4033203l-4.9238281-0.0019531z"/>
			</g>
			<g>
				<path d="M151.8344727,209.2661133c-1.1894531-1.1884766-1.1894531-2.9746094-1.1894531-2.9746094l-0.5332031-0.0039063c0,0,0,1.8232422-1.1552734,2.9785156"/>
			</g>
			<g>
				<path d="M151.5961914,205.4448242c-1.1884766,1.1894531-2.9736328,1.1894531-2.9736328,1.1894531l-0.0048828,0.5332031c0,0,1.8242188,0,2.9785156,1.15625"/>
			</g>
			<g>
				<path d="M149.2114258,205.4370117c1.1894531,1.1884766,2.9746094,1.1884766,2.9746094,1.1884766l0.0039063,0.5332031c0,0-1.8222656,0-2.9785156,1.1552734"/>
			</g>
		</g>
	</g>
</svg>
