<?xml version="1.0" encoding="utf-8"?>
<!-- Generator: Adobe Illustrator 9.0, SVG Export Plug-In  -->
<!DOCTYPE svg PUBLIC "-//W3C//DTD SVG 20000303 Stylable//EN"   "http://www.w3.org/TR/2000/03/WD-SVG-20000303/DTD/svg-20000303-stylable.dtd" [
	<!ENTITY st0 "fill:#FFFFFF;stroke-width:0.5;">
	<!ENTITY st1 "fill-rule:nonzero;clip-rule:nonzero;fill:#E61408;stroke:#000000;stroke-miterlimit:4;">
	<!ENTITY st2 "stroke:none;">
]>
<!-- This set of SVG files is a complete cards game with figures, numbers	-->
<!--    and backs of cards completely designed in SVG.				-->
<!--    									-->
<!--    Copyright (C) 2004 David Bellot						-->
<!--										-->
<!--    This library is free software; you can redistribute it and/or		-->
<!--    modify it under the terms of the GNU Lesser General Public		-->
<!--    License as published by the Free Software Foundation; either		-->
<!--    version 2 of the License, or (at your option) any later version		-->
<!--										-->
<!--    This library is distributed in the hope that it will be useful,		-->
<!--    but WITHOUT ANY WARRANTY; without even the implied warranty of		-->
<!--    MERCHANTABILITY or FITNESS FOR A PARTICULAR PURPOSE.  See the GNU	-->
<!--    Lesser General Public License for more details.				-->
<!--										-->
<!--    You should have received a copy of the GNU Lesser General Public	-->
<!--    License along with this library; if not, write to the Free Software	-->
<!--    Foundation, Inc., 59 Temple Place, Suite 330, Boston, MA 02111-1307  USA-->
<!--										-->
<!--    Contact the author David Bellot at bellot@stat.berkeley.edu or 		-->
<!--    david.bellot@free.fr or yimyom@users.sourceforge.net			-->
<svg  width="167.0864258pt" height="242.6669922pt" viewBox="0 0 167.0864258 242.6669922" xml:space="preserve">
	<g id="Layer_x0020_1" style="&st1;">
		<path style="&st0;" d="M166.8364258,235.5478516c0,3.7753906-3.0859375,6.8691406-6.8710938,6.8691406H7.1108398c-3.7749023,0-6.8608398-3.09375-6.8608398-6.8691406V7.1201172C0.25,3.3452148,3.3359375,0.25,7.1108398,0.25H159.965332
			c3.7851563,0,6.8710938,3.0952148,6.8710938,6.8701172v228.4277344z"/>
		<g>
			<path style="&st2;" d="M69.8173828,113.5068359c0.0136719,9.5800781,12.0224609,16.5576172,15.5385742,24.1425781c3.546875-7.5664063,15.5917969-14.4824219,15.6542969-24.0620117c0.0263672-4.5175781-3.4707031-8.1938477-7.7783203-8.203125
				c-4.3076172-0.0087891-7.8056641,3.640625-7.8183594,8.1669922c0.0126953-4.5263672-3.4707031-8.1938477-7.777832-8.2026367c-4.3071289-0.0180664-7.8046875,3.640625-7.8183594,8.1582031z"/>
		</g>
		<g>
			<path style="&st2;" d="M12.6240234,26.0371094v-1.46875h1.5V9.9702148l-1.6875,2.2236328v-1.8007813l2.0283203-2.730957h1.6904297v16.90625h1.53125v1.46875h-5.0625z"/>
		</g>
		<g>
			<path style="&st2;" d="M153.8969727,216.6181641v1.46875h-1.5v14.5986328l1.6875-2.2236328v1.8007813l-2.0283203,2.7304688h-1.6904297v-16.90625h-1.53125v-1.46875h5.0625z"/>
		</g>
		<g>
			<path style="&st2;" d="M11.5195313,31.6108398c0.0029297,2.8735352,3.605957,4.9667969,4.659668,7.2431641c1.0649414-2.2709961,4.6791992-4.3457031,4.6962891-7.2197266c0.0083008-1.3564453-1.0410156-2.4580078-2.3330078-2.4614258
				s-2.3413086,1.0932617-2.3447266,2.449707c0.003418-1.3564453-1.0415039-2.4584961-2.3334961-2.4614258c-1.2919922-0.003418-2.3417969,1.0927734-2.3447266,2.449707z"/>
		</g>
		<g>
			<path style="&st2;" d="M154.8969727,210.9082031c-0.0039063-2.8740234-3.6074219-4.9658203-4.6601563-7.2431641c-1.0644531,2.2714844-4.6796875,4.3457031-4.6972656,7.2197266c-0.0078125,1.3564453,1.0410156,2.4580078,2.3339844,2.4619141
				c1.2910156,0.0029297,2.3417969-1.09375,2.3447266-2.4501953c-0.0029297,1.3564453,1.0419922,2.4580078,2.3330078,2.4619141c1.2929688,0.0029297,2.3417969-1.09375,2.3457031-2.4501953z"/>
		</g>
	</g>
</svg>
