<?xml version="1.0" encoding="utf-8"?>
<!-- Generator: Adobe Illustrator 9.0, SVG Export Plug-In  -->
<!DOCTYPE svg PUBLIC "-//W3C//DTD SVG 20000303 Stylable//EN"   "http://www.w3.org/TR/2000/03/WD-SVG-20000303/DTD/svg-20000303-stylable.dtd" [
	<!ENTITY st0 "fill:#FFFFFF;stroke-width:0.5;">
	<!ENTITY st1 "fill-rule:nonzero;clip-rule:nonzero;fill:#E61408;stroke:#000000;stroke-miterlimit:4;">
	<!ENTITY st2 "stroke:none;">
]>
<!-- This set of SVG files is a complete cards game with figures, numbers	-->
<!--    and backs of cards completely designed in SVG.				-->
<!--    									-->
<!--    Copyright (C) 2004 David Bellot						-->
<!--										-->
<!--    This library is free software; you can redistribute it and/or		-->
<!--    modify it under the terms of the GNU Lesser General Public		-->
<!--    License as published by the Free Software Foundation; either		-->
<!--    version 2 of the License, or (at your option) any later version		-->
<!--										-->
<!--    This library is distributed in the hope that it will be useful,		-->
<!--    but WITHOUT ANY WARRANTY; without even the implied warranty of		-->
<!--    MERCHANTABILITY or FITNESS FOR A PARTICULAR PURPOSE.  See the GNU	-->
<!--    Lesser General Public License for more details.				-->
<!--										-->
<!--    You should have received a copy of the GNU Lesser General Public	-->
<!--    License along with this library; if not, write to the Free Software	-->
<!--    Foundation, Inc., 59 Temple Place, Suite 330, Boston, MA 02111-1307  USA-->
<!--										-->
<!--    Contact the author David Bellot at bellot@stat.berkeley.edu or 		-->
<!--    david.bellot@free.fr or yimyom@users.sourceforge.net			-->
<svg  width="167.0864258pt" height="242.6650391pt" viewBox="0 0 167.0864258 242.6650391" xml:space="preserve">
	<g id="Layer_x0020_1" style="&st1;">
		<path style="&st0;" d="M166.8364258,235.5449219c0,3.7753906-3.0859375,6.8701172-6.8701172,6.8701172H7.1113281c-3.7753906,0-6.8613281-3.0947266-6.8613281-6.8701172V7.1201172C0.25,3.340332,3.3359375,0.25,7.1113281,0.25h152.8549805
			c3.7841797,0,6.8701172,3.090332,6.8701172,6.8701172v228.4248047z"/>
		<path style="&st2;" d="M85.4106445,121.3979492H69.8105469c0,0,2.4375,0.503418,9.2626953-6.046875c6.8256836-6.5507813,6.3374023-10.078125,6.3374023-10.078125 M69.8105469,121.3979492c0,0,3.4125977-0.5039063,9.75,6.5512695
			c6.3374023,7.0546875,5.8500977,9.5742188,5.8500977,9.5742188v-16.1254883 M85.4106445,137.5234375c0,0-0.4873047-3.5273438,6.3378906-10.078125c6.8242188-6.5507813,9.2617188-6.0473633,9.2617188-6.0473633H85.4106445 M101.0102539,121.3979492
			c0,0-3.4121094,0.5039063-9.75-6.5507813c-6.3359375-7.0546875-5.8496094-9.5742188-5.8496094-9.5742188v16.125"/>
		<g>
			<path style="&st2;" d="M12.5878906,25.9995117v-1.46875h1.5V9.9326172l-1.6875,2.2236328v-1.8007813l2.0283203-2.730957h1.6904297v16.90625h1.53125v1.46875h-5.0625z"/>
		</g>
		<g>
			<path style="&st2;" d="M153.8608398,216.5810547v1.46875h-1.5v14.5986328l1.6875-2.2246094v1.8007813l-2.0283203,2.7314453h-1.6904297v-16.90625h-1.53125v-1.46875h5.0625z"/>
		</g>
		<path style="&st2;" d="M16.2436523,34.0561523h-5.0419922c0,0,0.7875977,0.1625977,2.9936523-1.9541016c2.2060547-2.1171875,2.0483398-3.2573242,2.0483398-3.2573242 M11.2016602,34.0561523c0,0,1.1030273-0.1625977,3.1508789,2.1171875
			c2.0483398,2.2802734,1.8911133,3.0942383,1.8911133,3.0942383v-5.2114258 M16.2436523,39.2675781c0,0-0.1577148-1.1396484,2.0483398-3.2568359s2.9936523-1.9545898,2.9936523-1.9545898h-5.0419922 M21.2856445,34.0561523
			c0,0-1.1030273,0.1630859-3.1513672-2.1171875s-1.890625-3.0942383-1.890625-3.0942383v5.2114258"/>
		<path style="&st2;" d="M150.6723633,208.1396484h5.0419922c0,0-0.7880859-0.1630859-2.9931641,1.9541016c-2.2070313,2.1171875-2.0488281,3.2578125-2.0488281,3.2578125 M155.7143555,208.1396484c0,0-1.1025391,0.1630859-3.1513672-2.1171875
			c-2.0478516-2.2802734-1.890625-3.0947266-1.890625-3.0947266v5.2119141 M150.6723633,202.9277344c0,0,0.1582031,1.140625-2.0488281,3.2578125c-2.2050781,2.1171875-2.9921875,1.9541016-2.9921875,1.9541016h5.0410156 M145.6313477,208.1396484
			c0,0,1.1015625-0.1630859,3.1503906,2.1171875s1.890625,3.0947266,1.890625,3.0947266v-5.2119141"/>
	</g>
</svg>
