<?xml version="1.0" encoding="utf-8"?>
<!-- Generator: Adobe Illustrator 9.0, SVG Export Plug-In  -->
<!DOCTYPE svg PUBLIC "-//W3C//DTD SVG 20000303 Stylable//EN"   "http://www.w3.org/TR/2000/03/WD-SVG-20000303/DTD/svg-20000303-stylable.dtd" [
	<!ENTITY st0 "fill:#FFFFFF;stroke-width:0.5;">
	<!ENTITY st1 "fill-rule:nonzero;clip-rule:nonzero;stroke:#000000;stroke-miterlimit:4;">
	<!ENTITY st2 "stroke:none;">
]>
<!-- This set of SVG files is a complete cards game with figures, numbers	-->
<!--    and backs of cards completely designed in SVG.				-->
<!--    									-->
<!--    Copyright (C) 2004 David Bellot						-->
<!--										-->
<!--    This library is free software; you can redistribute it and/or		-->
<!--    modify it under the terms of the GNU Lesser General Public		-->
<!--    License as published by the Free Software Foundation; either		-->
<!--    version 2 of the License, or (at your option) any later version		-->
<!--										-->
<!--    This library is distributed in the hope that it will be useful,		-->
<!--    but WITHOUT ANY WARRANTY; without even the implied warranty of		-->
<!--    MERCHANTABILITY or FITNESS FOR A PARTICULAR PURPOSE.  See the GNU	-->
<!--    Lesser General Public License for more details.				-->
<!--										-->
<!--    You should have received a copy of the GNU Lesser General Public	-->
<!--    License along with this library; if not, write to the Free Software	-->
<!--    Foundation, Inc., 59 Temple Place, Suite 330, Boston, MA 02111-1307  USA-->
<!--										-->
<!--    Contact the author David Bellot at bellot@stat.berkeley.edu or 		-->
<!--    david.bellot@free.fr or yimyom@users.sourceforge.net			-->
<svg  width="167.0864258pt" height="242.6674805pt" viewBox="0 0 167.0864258 242.6674805" xml:space="preserve">
	<g id="Layer_x0020_1" style="&st1;">
		<path style="&st0;" d="M166.8364258,235.5483398c0,3.7773438-3.0859375,6.8691406-6.8710938,6.8691406H7.1108398c-3.7749023,0-6.8608398-3.0917969-6.8608398-6.8691406V7.1201172C0.25,3.3432617,3.3359375,0.25,7.1108398,0.25H159.965332
			c3.7851563,0,6.8710938,3.0932617,6.8710938,6.8701172v228.4282227z"/>
		<g style="&st2;">
			<g>
				<path d="M93.5004883,137.4692383c-3.4785156,0.0039063-5.3085938-3.7060547-6.2695313-7.4160156c-0.9609375-3.7109375-1.0507813-7.4228516-1.0507813-7.4228516l-1.7753906-0.0175781c0,0-0.3339844,14.8466797-7.2915039,14.8535156l16.387207,0.0029297z"/>
			</g>
			<path d="M99.3881836,122.6264648c-0.0302734-7.2426758-10.8730469-12.4951172-14.0576172-18.2265625c-3.1821289,5.7314453-14.0249023,10.9838867-14.0556641,18.2265625c-0.0141602,3.4199219,3.1469727,6.1894531,7.0288086,6.1894531
				c3.8808594,0,7.0268555-2.7695313,7.0268555-6.1894531c0,3.4199219,3.1484375,6.1894531,7.0292969,6.1894531c3.8828125,0,7.0283203-2.7695313,7.0283203-6.1894531z"/>
		</g>
		<g>
			<path style="&st2;" d="M12.6367188,25.7900391v-1.46875h1.5V9.7231445l-1.6875,2.2236328v-1.8007813l2.0283203-2.730957h1.6904297v16.90625h1.53125v1.46875h-5.0625z"/>
		</g>
		<g>
			<path style="&st2;" d="M153.909668,216.371582v1.46875h-1.5v14.5986328l1.6875-2.2246094v1.8007813l-2.0283203,2.7314453h-1.6904297v-16.90625h-1.53125v-1.46875h5.0625z"/>
		</g>
		<g style="&st2;">
			<g>
				<path d="M18.934082,39.2836914c-1.0952148,0.0014648-1.6713867-1.1669922-1.9741211-2.3349609c-0.3022461-1.168457-0.3310547-2.3369141-0.3310547-2.3369141l-0.5585938-0.0058594c0,0-0.1049805,4.6748047-2.2954102,4.6767578l5.1591797,0.0009766z"/>
			</g>
			<path d="M20.7880859,34.6108398c-0.0097656-2.2802734-3.4238281-3.934082-4.4262695-5.7387695c-1.0019531,1.8046875-4.4155273,3.4584961-4.425293,5.7387695c-0.0043945,1.0766602,0.9907227,1.9487305,2.2128906,1.9487305s2.2124023-0.8720703,2.2124023-1.9487305
				c0,1.0766602,0.9912109,1.9487305,2.2133789,1.9487305s2.2128906-0.8720703,2.2128906-1.9487305z"/>
		</g>
		<g style="&st2;">
			<g>
				<path d="M147.9204102,202.9506836c1.0947266-0.0019531,1.671875,1.1669922,1.9736328,2.3349609c0.3017578,1.1689453,0.3310547,2.3369141,0.3310547,2.3369141l0.5585938,0.0058594c0,0,0.1054688-4.6748047,2.2949219-4.6767578l-5.1582031-0.0009766z"/>
			</g>
			<path d="M146.0668945,207.6235352c0.0097656,2.2802734,3.4228516,3.9345703,4.4257813,5.7392578c1.0019531-1.8046875,4.4150391-3.4589844,4.4248047-5.7392578c0.0048828-1.0771484-0.9912109-1.9482422-2.2128906-1.9482422
				s-2.2119141,0.8710938-2.2119141,1.9482422c0-1.0771484-0.9921875-1.9482422-2.2128906-1.9482422c-1.2226563,0-2.2128906,0.8710938-2.2128906,1.9482422z"/>
		</g>
	</g>
</svg>
