<?xml version="1.0" encoding="utf-8"?>
<!-- Generator: Adobe Illustrator 9.0, SVG Export Plug-In  -->
<!DOCTYPE svg PUBLIC "-//W3C//DTD SVG 20000303 Stylable//EN"   "http://www.w3.org/TR/2000/03/WD-SVG-20000303/DTD/svg-20000303-stylable.dtd" [
	<!ENTITY st0 "fill:#FFFFFF;stroke-width:0.5;">
	<!ENTITY st1 "fill-rule:nonzero;clip-rule:nonzero;fill:#E61408;stroke:#000000;stroke-miterlimit:4;">
	<!ENTITY st2 "stroke:none;">
]>
<!-- This set of SVG files is a complete cards game with figures, numbers	-->
<!--    and backs of cards completely designed in SVG.				-->
<!--    									-->
<!--    Copyright (C) 2004 David Bellot						-->
<!--										-->
<!--    This library is free software; you can redistribute it and/or		-->
<!--    modify it under the terms of the GNU Lesser General Public		-->
<!--    License as published by the Free Software Foundation; either		-->
<!--    version 2 of the License, or (at your option) any later version		-->
<!--										-->
<!--    This library is distributed in the hope that it will be useful,		-->
<!--    but WITHOUT ANY WARRANTY; without even the implied warranty of		-->
<!--    MERCHANTABILITY or FITNESS FOR A PARTICULAR PURPOSE.  See the GNU	-->
<!--    Lesser General Public License for more details.				-->
<!--										-->
<!--    You should have received a copy of the GNU Lesser General Public	-->
<!--    License along with this library; if not, write to the Free Software	-->
<!--    Foundation, Inc., 59 Temple Place, Suite 330, Boston, MA 02111-1307  USA-->
<!--										-->
<!--    Contact the author David Bellot at bellot@stat.berkeley.edu or 		-->
<!--    david.bellot@free.fr or yimyom@users.sourceforge.net			-->
<svg  width="167.0864258pt" height="242.6669922pt" viewBox="0 0 167.0864258 242.6669922" xml:space="preserve">
	<g id="Layer_x0020_1" style="&st1;">
		<path style="&st0;" d="M166.8364258,235.5478516c0,3.7753906-3.0859375,6.8691406-6.8710938,6.8691406H7.1108398c-3.7749023,0-6.8608398-3.09375-6.8608398-6.8691406V7.1201172C0.25,3.3452148,3.3359375,0.25,7.1108398,0.25H159.965332
			c3.7851563,0,6.8710938,3.0952148,6.8710938,6.8701172v228.4277344z"/>
		<g>
			<path style="&st2;" d="M69.8173828,21.9067383c0.0136719,9.5805664,12.0224609,16.5576172,15.5385742,24.1435547c3.546875-7.5678711,15.5917969-14.4824219,15.6542969-24.0629883c0.0263672-4.5175781-3.4707031-8.1938477-7.7792969-8.203125
				c-4.3066406-0.0087891-7.8046875,3.6411133-7.8173828,8.1674805c0.0126953-4.5263672-3.4707031-8.1943359-7.777832-8.203125c-4.3076172-0.0180664-7.8046875,3.640625-7.8183594,8.1582031z"/>
		</g>
		<g>
			<path style="&st2;" d="M69.8173828,220.7607422c0.0136719-9.5800781,12.0224609-16.5488281,15.5385742-24.1425781c3.546875,7.5761719,15.5917969,14.4902344,15.6542969,24.0625c0.0263672,4.5263672-3.4707031,8.203125-7.7792969,8.2109375
				c-4.3066406,0.0097656-7.8046875-3.6484375-7.8173828-8.1660156c0.0126953,4.5175781-3.4707031,8.1933594-7.777832,8.203125c-4.3076172,0.0078125-7.8046875-3.6416016-7.8183594-8.1679688z"/>
		</g>
		<g>
			<path style="&st2;" d="M12.5014648,12.4433594h-0.65625v-3.875c0.4433594-0.3017578,0.8803711-0.5283203,1.3115234-0.6796875c0.4311523-0.1508789,0.8642578-0.2265625,1.2998047-0.2265625c1.0234375,0,1.8232422,0.4702148,2.3994141,1.409668
				c0.5761719,0.9399414,0.8642578,2.2485352,0.8642578,3.9262695c0,1.1943359-0.1586914,2.2651367-0.4750977,3.2128906s-0.9199219,2.0708008-1.8095703,3.3696289l-2.2431641,3.300293h3.809082v-2.125h0.75v5.28125h-5.96875v-2.9414063l1.1914063-1.8447266
				c1.0263672-1.5742188,1.7094727-2.9140625,2.0493164-4.0205078c0.3393555-1.105957,0.5092773-2.3974609,0.5092773-3.875c0-1.3964844-0.1293945-2.4604492-0.3881836-3.190918s-0.6342773-1.0961914-1.1274414-1.0961914
				c-0.4287109,0-0.7700195,0.2885742-1.0249023,0.8652344s-0.418457,1.4130859-0.4907227,2.5097656z"/>
		</g>
		<g>
			<path style="&st2;" d="M153.8989258,230.2119141h0.65625v3.875c-0.4433594,0.3027344-0.8798828,0.5292969-1.3105469,0.6796875c-0.4316406,0.1513672-0.8652344,0.2265625-1.3007813,0.2265625c-1.0234375,0-1.8222656-0.4697266-2.3984375-1.4091797
				c-0.5761719-0.9404297-0.8652344-2.2490234-0.8652344-3.9267578c0-1.1933594,0.1591797-2.2646484,0.4755859-3.2128906c0.3164063-0.9472656,0.9199219-2.0703125,1.8095703-3.3691406l2.2431641-3.3007813h-3.8095703v2.125h-0.75v-5.28125h5.96875v2.9414063
				l-1.1914063,1.8457031c-1.0253906,1.5742188-1.7089844,2.9140625-2.0488281,4.0195313c-0.3398438,1.1064453-0.5097656,2.3984375-0.5097656,3.875c0,1.3964844,0.1298828,2.4609375,0.3886719,3.1914063s0.6347656,1.0957031,1.1269531,1.0957031
				c0.4296875,0,0.7705078-0.2880859,1.0253906-0.8652344c0.2548828-0.5761719,0.4179688-1.4121094,0.4902344-2.5097656z"/>
		</g>
		<g>
			<path style="&st2;" d="M11.4589844,31.6108398c0.0029297,2.8735352,3.6064453,4.9667969,4.6601563,7.2431641c1.0649414-2.2709961,4.6787109-4.3457031,4.6962891-7.2197266c0.0083008-1.3564453-1.0410156-2.4580078-2.3330078-2.4614258
				s-2.3417969,1.0932617-2.3447266,2.449707c0.0029297-1.3564453-1.0415039-2.4584961-2.3334961-2.4614258c-1.2919922-0.003418-2.3417969,1.0927734-2.3452148,2.449707z"/>
		</g>
		<g>
			<path style="&st2;" d="M154.8364258,210.9082031c-0.0029297-2.8740234-3.6064453-4.9658203-4.6601563-7.2431641c-1.0644531,2.2714844-4.6787109,4.3457031-4.6962891,7.2197266c-0.0087891,1.3564453,1.0410156,2.4580078,2.3330078,2.4619141
				c1.2919922,0.0029297,2.3417969-1.09375,2.3457031-2.4501953c-0.0039063,1.3564453,1.0410156,2.4580078,2.3320313,2.4619141c1.2929688,0.0029297,2.3417969-1.09375,2.3457031-2.4501953z"/>
		</g>
	</g>
</svg>
