<?xml version="1.0" encoding="utf-8"?>
<!-- Generator: Adobe Illustrator 9.0, SVG Export Plug-In  -->
<!DOCTYPE svg PUBLIC "-//W3C//DTD SVG 20000303 Stylable//EN"   "http://www.w3.org/TR/2000/03/WD-SVG-20000303/DTD/svg-20000303-stylable.dtd" [
	<!ENTITY st0 "fill:#FFFFFF;stroke-width:0.5;">
	<!ENTITY st1 "fill-rule:nonzero;clip-rule:nonzero;stroke:#000000;stroke-miterlimit:4;">
	<!ENTITY st2 "stroke:none;">
]>
<!-- This set of SVG files is a complete cards game with figures, numbers	-->
<!--    and backs of cards completely designed in SVG.				-->
<!--    									-->
<!--    Copyright (C) 2004 David Bellot						-->
<!--										-->
<!--    This library is free software; you can redistribute it and/or		-->
<!--    modify it under the terms of the GNU Lesser General Public		-->
<!--    License as published by the Free Software Foundation; either		-->
<!--    version 2 of the License, or (at your option) any later version		-->
<!--										-->
<!--    This library is distributed in the hope that it will be useful,		-->
<!--    but WITHOUT ANY WARRANTY; without even the implied warranty of		-->
<!--    MERCHANTABILITY or FITNESS FOR A PARTICULAR PURPOSE.  See the GNU	-->
<!--    Lesser General Public License for more details.				-->
<!--										-->
<!--    You should have received a copy of the GNU Lesser General Public	-->
<!--    License along with this library; if not, write to the Free Software	-->
<!--    Foundation, Inc., 59 Temple Place, Suite 330, Boston, MA 02111-1307  USA-->
<!--										-->
<!--    Contact the author David Bellot at bellot@stat.berkeley.edu or 		-->
<!--    david.bellot@free.fr or yimyom@users.sourceforge.net			-->
<svg  width="167.0864258pt" height="242.6669922pt" viewBox="0 0 167.0864258 242.6669922" xml:space="preserve">
	<g id="Layer_x0020_1" style="&st1;">
		<path style="&st0;" d="M166.8364258,235.5478516c0,3.7773438-3.0859375,6.8691406-6.8701172,6.8691406H7.1108398c-3.7749023,0-6.8608398-3.0917969-6.8608398-6.8691406V7.1196289C0.25,3.3427734,3.3359375,0.25,7.1108398,0.25h152.8554688
			c3.7841797,0,6.8701172,3.0927734,6.8701172,6.8696289v228.4282227z"/>
		<g style="&st2;">
			<g>
				<path d="M93.4575195,46.1113281c-3.4794922,0.0039063-5.3105469-3.706543-6.2705078-7.4160156c-0.9599609-3.7109375-1.0517578-7.4233398-1.0517578-7.4233398l-1.7744141-0.0175781c0,0-0.3330078,14.847168-7.2910156,14.8535156l16.3876953,0.003418z"/>
			</g>
			<path d="M99.3442383,31.2685547c-0.03125-7.2426758-10.8730469-12.4951172-14.0566406-18.2265625c-3.1826172,5.7314453-14.0258789,10.9838867-14.0561523,18.2265625c-0.0141602,3.4199219,3.1464844,6.1899414,7.0283203,6.1899414
				c3.8813477,0,7.027832-2.7700195,7.027832-6.1899414c0,3.4199219,3.1474609,6.1899414,7.0292969,6.1899414c3.8808594,0,7.0273438-2.7700195,7.0273438-6.1899414z"/>
		</g>
		<g style="&st2;">
			<g>
				<path d="M77.0683594,196.7910156c6.9575195,0.0068359,7.2915039,14.8544922,7.2915039,14.8544922l1.7744141-0.0185547c0,0,0.0908203-3.7119141,1.0517578-7.4228516c0.9609375-3.7089844,2.7910156-7.4199219,6.2695313-7.4160156l-16.387207,0.0029297z"/>
			</g>
			<path d="M99.3432617,211.6298828c-0.0302734,7.2431641-10.8730469,12.4960938-14.0576172,18.2275391c-3.1821289-5.7314453-14.0253906-10.984375-14.0556641-18.2275391c-0.0141602-3.4189453,3.1464844-6.1894531,7.0283203-6.1894531
				c3.8813477,0,7.0273438,2.7705078,7.0273438,6.1894531c0-3.4189453,3.1484375-6.1894531,7.0292969-6.1894531c3.8818359,0,7.0283203,2.7705078,7.0283203,6.1894531z"/>
		</g>
		<g>
			<path style="&st2;" d="M12.5927734,12.1948242h-0.65625v-3.875c0.4433594-0.3017578,0.8803711-0.5283203,1.3115234-0.6796875c0.4311523-0.1508789,0.8642578-0.2265625,1.2998047-0.2265625c1.0234375,0,1.8232422,0.4702148,2.3994141,1.409668
				c0.5761719,0.9399414,0.8642578,2.2485352,0.8642578,3.9262695c0,1.1943359-0.1586914,2.2651367-0.4750977,3.2128906s-0.9199219,2.0708008-1.8095703,3.3696289l-2.2431641,3.300293h3.809082v-2.125h0.75v5.28125h-5.96875V22.847168l1.1914063-1.8447266
				c1.0263672-1.5742188,1.7094727-2.9140625,2.0493164-4.0205078c0.3393555-1.105957,0.5092773-2.3974609,0.5092773-3.875c0-1.3964844-0.1293945-2.4604492-0.3881836-3.190918s-0.6342773-1.0961914-1.1274414-1.0961914
				c-0.4287109,0-0.7700195,0.2885742-1.0249023,0.8652344s-0.418457,1.4130859-0.4907227,2.5097656z"/>
		</g>
		<g>
			<path style="&st2;" d="M153.9907227,229.9638672h0.65625v3.875c-0.4433594,0.3007813-0.8808594,0.5273438-1.3115234,0.6796875c-0.4306641,0.1503906-0.8642578,0.2265625-1.2998047,0.2265625c-1.0234375,0-1.8232422-0.4707031-2.3994141-1.4101563
				s-0.8642578-2.2480469-0.8642578-3.9257813c0-1.1953125,0.1582031-2.265625,0.4746094-3.2128906s0.9199219-2.0703125,1.8105469-3.3691406l2.2421875-3.3007813h-3.8085938v2.125h-0.75v-5.28125h5.96875v2.9414063l-1.1914063,1.84375
				c-1.0263672,1.5742188-1.7089844,2.9140625-2.0488281,4.0214844c-0.3398438,1.1054688-0.5097656,2.3964844-0.5097656,3.875c0,1.3964844,0.1289063,2.4609375,0.3886719,3.1914063c0.2578125,0.7304688,0.6337891,1.0957031,1.1269531,1.0957031
				c0.4287109,0,0.7695313-0.2890625,1.0253906-0.8652344c0.2539063-0.5761719,0.4179688-1.4140625,0.4902344-2.5097656z"/>
		</g>
		<g style="&st2;">
			<g>
				<path d="M18.9526367,39.2822266c-1.0952148,0.0009766-1.6713867-1.1669922-1.9741211-2.3349609c-0.3017578-1.168457-0.3305664-2.3374023-0.3305664-2.3374023l-0.559082-0.0053711c0,0-0.1044922,4.6743164-2.2954102,4.6767578l5.1591797,0.0009766z"/>
			</g>
			<path d="M20.8066406,34.6088867c-0.0097656-2.2802734-3.4233398-3.934082-4.4257813-5.7382813c-1.0019531,1.8041992-4.4160156,3.4580078-4.4257813,5.7382813c-0.0043945,1.0766602,0.9907227,1.9492188,2.2128906,1.9492188
				s2.2128906-0.8725586,2.2128906-1.9492188c0,1.0766602,0.9907227,1.9492188,2.2128906,1.9492188s2.2128906-0.8725586,2.2128906-1.9492188z"/>
		</g>
		<g style="&st2;">
			<g>
				<path d="M147.9379883,202.9482422c1.0957031,0,1.671875,1.1679688,1.9746094,2.3359375s0.3310547,2.3369141,0.3310547,2.3369141l0.5595703,0.0048828c0,0,0.1035156-4.6738281,2.2949219-4.6757813l-5.1601563-0.0019531z"/>
			</g>
			<path d="M146.0844727,207.6220703c0.0097656,2.2802734,3.4238281,3.9335938,4.4257813,5.7382813c1.0019531-1.8046875,4.4160156-3.4580078,4.4257813-5.7382813c0.0048828-1.0761719-0.9902344-1.9492188-2.2128906-1.9492188
				c-1.2216797,0-2.2128906,0.8730469-2.2128906,1.9492188c0-1.0761719-0.9902344-1.9492188-2.2128906-1.9492188c-1.2216797,0-2.2128906,0.8730469-2.2128906,1.9492188z"/>
		</g>
	</g>
</svg>
