<?xml version="1.0" encoding="utf-8"?>
<!-- Generator: Adobe Illustrator 9.0, SVG Export Plug-In  -->
<!DOCTYPE svg PUBLIC "-//W3C//DTD SVG 20000303 Stylable//EN"   "http://www.w3.org/TR/2000/03/WD-SVG-20000303/DTD/svg-20000303-stylable.dtd" [
	<!ENTITY st0 "fill:#FFFFFF;stroke-width:0.5;">
	<!ENTITY st1 "fill-rule:nonzero;clip-rule:nonzero;stroke:#000000;stroke-miterlimit:4;">
	<!ENTITY st2 "stroke:none;">
]>
<!-- This set of SVG files is a complete cards game with figures, numbers	-->
<!--    and backs of cards completely designed in SVG.				-->
<!--    									-->
<!--    Copyright (C) 2004 David Bellot						-->
<!--										-->
<!--    This library is free software; you can redistribute it and/or		-->
<!--    modify it under the terms of the GNU Lesser General Public		-->
<!--    License as published by the Free Software Foundation; either		-->
<!--    version 2 of the License, or (at your option) any later version		-->
<!--										-->
<!--    This library is distributed in the hope that it will be useful,		-->
<!--    but WITHOUT ANY WARRANTY; without even the implied warranty of		-->
<!--    MERCHANTABILITY or FITNESS FOR A PARTICULAR PURPOSE.  See the GNU	-->
<!--    Lesser General Public License for more details.				-->
<!--										-->
<!--    You should have received a copy of the GNU Lesser General Public	-->
<!--    License along with this library; if not, write to the Free Software	-->
<!--    Foundation, Inc., 59 Temple Place, Suite 330, Boston, MA 02111-1307  USA-->
<!--										-->
<!--    Contact the author David Bellot at bellot@stat.berkeley.edu or 		-->
<!--    david.bellot@free.fr or yimyom@users.sourceforge.net			-->
<svg  width="167.0869141pt" height="242.6669922pt" viewBox="0 0 167.0869141 242.6669922" xml:space="preserve">
	<g id="Layer_x0020_1" style="&st1;">
		<path style="&st0;" d="M166.8369141,235.5478516c0,3.7792969-3.0859375,6.8691406-6.8710938,6.8691406H7.1108398c-3.7744141,0-6.8608398-3.0898438-6.8608398-6.8691406V7.1201172C0.25,3.3452148,3.3364258,0.25,7.1108398,0.25h152.8549805
			c3.7851563,0,6.8710938,3.0952148,6.8710938,6.8701172v228.4277344z"/>
		<g style="&st2;">
			<path d="M92.0869141,20.0097656c0,3.7749023-3.1533203,6.8339844-7.0449219,6.8339844s-7.0458984-3.059082-7.0458984-6.8339844c0-3.7734375,3.1542969-6.8334961,7.0458984-6.8334961s7.0449219,3.0600586,7.0449219,6.8334961z"/>
			<path d="M101.1591797,32.9399414c0,3.7744141-3.1542969,6.8330078-7.0449219,6.8330078c-3.8925781,0-7.046875-3.0585938-7.046875-6.8330078s3.1542969-6.8334961,7.046875-6.8334961c3.890625,0,7.0449219,3.059082,7.0449219,6.8334961z"/>
			<path d="M83.1176758,32.9897461c0,1.3823242-0.4228516,2.668457-1.1503906,3.7436523c-1.2587891,1.8608398-3.4296875,3.0898438-5.8964844,3.0898438c-3.8916016,0-7.0449219-3.0585938-7.0449219-6.8334961c0-3.7734375,3.1533203-6.8334961,7.0449219-6.8334961
				c3.8920898,0,7.046875,3.0600586,7.046875,6.8334961z"/>
			<g>
				<path d="M93.3056641,46.253418c-3.4785156,0.0024414-5.3085938-2.8271484-6.2695313-5.6572266c-0.9609375-2.8295898-1.0507813-5.6606445-1.0507813-5.6606445l-1.7753906-0.0146484c0,0-0.3339844,11.3242188-7.2905273,11.3295898l16.3862305,0.0029297z"/>
			</g>
			<g>
				<path d="M80.2524414,25.0219727c3.9575195,3.9570313,3.9575195,9.8989258,3.9575195,9.8989258l1.7753906,0.0146484c0,0,0-6.0678711,3.8457031-9.9135742"/>
			</g>
			<g>
				<path d="M81.0444336,37.7387695c3.956543-3.9575195,9.8999023-3.9575195,9.8999023-3.9575195l0.0136719-1.7753906c0,0-6.0683594,0-9.9135742-3.8461914"/>
			</g>
			<g>
				<path d="M88.9814453,37.7680664c-3.9570313-3.9575195-9.8999023-3.9575195-9.8999023-3.9575195l-0.0141602-1.7753906c0,0,6.0683594,0,9.9140625-3.8461914"/>
			</g>
		</g>
		<g style="&st2;">
			<path d="M92.1767578,223.0732422c0-3.7753906-3.1542969-6.8339844-7.0449219-6.8339844c-3.8925781,0-7.046875,3.0585938-7.046875,6.8339844c0,3.7734375,3.1542969,6.8339844,7.046875,6.8339844c3.890625,0,7.0449219-3.0605469,7.0449219-6.8339844z"/>
			<path d="M101.2490234,210.1435547c0-3.7744141-3.1542969-6.8339844-7.046875-6.8339844c-3.890625,0-7.0449219,3.0595703-7.0449219,6.8339844c0,3.7734375,3.1542969,6.8330078,7.0449219,6.8330078c3.8925781,0,7.046875-3.0595703,7.046875-6.8330078z"/>
			<path d="M83.2070313,210.0927734c0-1.3818359-0.4233398-2.6679688-1.1503906-3.7431641c-1.2592773-1.8603516-3.4301758-3.0888672-5.8964844-3.0888672c-3.8920898,0-7.0454102,3.0576172-7.0454102,6.8320313s3.1533203,6.8339844,7.0454102,6.8339844
				c3.8916016,0,7.046875-3.0595703,7.046875-6.8339844z"/>
			<g>
				<path d="M77.0083008,196.8330078c6.9575195,0.0048828,7.2905273,11.3291016,7.2905273,11.3291016l1.7763672-0.0146484c0,0,0.0898438-2.8300781,1.0488281-5.6601563c0.9619141-2.8300781,2.7919922-5.6601563,6.2714844-5.6572266l-16.387207,0.0029297z"/>
			</g>
			<g>
				<path d="M80.3413086,218.0615234c3.9575195-3.9570313,3.9575195-9.8994141,3.9575195-9.8994141l1.7763672-0.0146484c0,0,0,6.0683594,3.8457031,9.9140625"/>
			</g>
			<g>
				<path d="M81.1333008,205.3447266c3.9575195,3.9570313,9.8989258,3.9570313,9.8989258,3.9570313l0.0146484,1.7753906c0,0-6.0673828,0-9.9135742,3.8466797"/>
			</g>
			<g>
				<path d="M89.0693359,205.3154297c-3.9570313,3.9570313-9.8984375,3.9570313-9.8984375,3.9570313l-0.0141602,1.7753906c0,0,6.0668945,0,9.9125977,3.8466797"/>
			</g>
		</g>
		<g>
			<path style="&st2;" d="M12.487793,12.4047852h-0.65625v-3.875c0.4433594-0.3017578,0.8803711-0.5283203,1.3115234-0.6796875c0.4311523-0.1508789,0.8642578-0.2265625,1.2998047-0.2265625c1.0234375,0,1.8232422,0.4702148,2.3994141,1.409668
				c0.5761719,0.9399414,0.8642578,2.2485352,0.8642578,3.9262695c0,1.1943359-0.1586914,2.2651367-0.4750977,3.2128906s-0.9199219,2.0708008-1.8095703,3.3696289l-2.2431641,3.300293h3.809082v-2.125h0.75v5.28125h-5.96875v-2.9414063l1.1914063-1.8447266
				c1.0263672-1.5742188,1.7094727-2.9140625,2.0493164-4.0205078c0.3393555-1.105957,0.5092773-2.3974609,0.5092773-3.875c0-1.3964844-0.1293945-2.4604492-0.3881836-3.190918S14.496582,9.0297852,14.003418,9.0297852
				c-0.4287109,0-0.7700195,0.2885742-1.0249023,0.8652344s-0.418457,1.4130859-0.4907227,2.5097656z"/>
		</g>
		<g>
			<path style="&st2;" d="M153.8857422,230.1728516h0.65625v3.875c-0.4433594,0.3027344-0.8808594,0.5292969-1.3115234,0.6796875c-0.4306641,0.1513672-0.8642578,0.2265625-1.2998047,0.2265625c-1.0234375,0-1.8232422-0.4697266-2.3994141-1.4091797
				c-0.5761719-0.9404297-0.8642578-2.2490234-0.8642578-3.9267578c0-1.1933594,0.1582031-2.2646484,0.4746094-3.2128906c0.3164063-0.9472656,0.9199219-2.0703125,1.8105469-3.3691406l2.2421875-3.3007813h-3.8085938v2.125h-0.75v-5.28125h5.96875v2.9414063
				l-1.1914063,1.8457031c-1.0263672,1.5742188-1.7089844,2.9140625-2.0488281,4.0195313c-0.3398438,1.1064453-0.5097656,2.3984375-0.5097656,3.875c0,1.3964844,0.1289063,2.4609375,0.3886719,3.1914063c0.2578125,0.7304688,0.6337891,1.0957031,1.1269531,1.0957031
				c0.4287109,0,0.7695313-0.2880859,1.0253906-0.8652344c0.2539063-0.5761719,0.4179688-1.4121094,0.4902344-2.5097656z"/>
		</g>
		<g style="&st2;">
			<path d="M18.0776367,31.3300781c0,1.1342773-0.9477539,2.0537109-2.1171875,2.0537109c-1.1689453,0-2.1166992-0.9194336-2.1166992-2.0537109c0-1.1337891,0.9477539-2.0527344,2.1166992-2.0527344c1.1694336,0,2.1171875,0.9189453,2.1171875,2.0527344z"/>
			<path d="M20.8032227,35.215332c0,1.1337891-0.9477539,2.0527344-2.1171875,2.0527344c-1.1689453,0-2.1166992-0.9189453-2.1166992-2.0527344c0-1.1342773,0.9477539-2.0532227,2.1166992-2.0532227c1.1694336,0,2.1171875,0.9189453,2.1171875,2.0532227z"/>
			<path d="M15.3823242,35.2299805c0,0.4155273-0.1269531,0.8017578-0.3457031,1.125c-0.3779297,0.559082-1.0302734,0.9282227-1.7714844,0.9282227c-1.1689453,0-2.1166992-0.9189453-2.1166992-2.0532227c0-1.1337891,0.9477539-2.0527344,2.1166992-2.0527344
				c1.1694336,0,2.1171875,0.9189453,2.1171875,2.0527344z"/>
			<g>
				<path d="M18.4433594,39.215332c-1.0454102,0.0004883-1.5952148-0.8496094-1.8837891-1.699707s-0.3154297-1.7006836-0.3154297-1.7006836l-0.5336914-0.0043945c0,0-0.1000977,3.4023438-2.1904297,3.4038086l4.9233398,0.0009766z"/>
			</g>
			<g>
				<path d="M14.5214844,32.8359375c1.1889648,1.1894531,1.1889648,2.9746094,1.1889648,2.9746094l0.5336914,0.0043945c0,0,0-1.8232422,1.1552734-2.9790039"/>
			</g>
			<g>
				<path d="M14.7592773,36.6567383c1.1894531-1.1884766,2.9746094-1.1884766,2.9746094-1.1884766l0.0039063-0.5336914c0,0-1.8227539,0-2.9785156-1.1557617"/>
			</g>
			<g>
				<path d="M17.144043,36.6660156c-1.1889648-1.1889648-2.9741211-1.1889648-2.9741211-1.1889648l-0.0043945-0.5336914c0,0,1.8232422,0,2.9785156-1.1557617"/>
			</g>
		</g>
		<g style="&st2;">
			<path d="M148.2158203,210.9423828c0-1.1337891,0.9472656-2.0527344,2.1171875-2.0527344c1.1689453,0,2.1171875,0.9189453,2.1171875,2.0527344c0,1.1347656-0.9482422,2.0537109-2.1171875,2.0537109c-1.1699219,0-2.1171875-0.9189453-2.1171875-2.0537109z"/>
			<path d="M145.4892578,207.0576172c0-1.1328125,0.9492188-2.0527344,2.1171875-2.0527344c1.1699219,0,2.1171875,0.9199219,2.1171875,2.0527344c0,1.1347656-0.9472656,2.0537109-2.1171875,2.0537109c-1.1679688,0-2.1171875-0.9189453-2.1171875-2.0537109z"/>
			<path d="M150.9111328,207.0429688c0-0.4150391,0.1269531-0.8017578,0.3457031-1.1240234c0.3779297-0.5595703,1.0292969-0.9287109,1.7714844-0.9287109c1.1689453,0,2.1162109,0.9189453,2.1162109,2.0527344s-0.9472656,2.0537109-2.1162109,2.0537109
				c-1.1699219,0-2.1171875-0.9199219-2.1171875-2.0537109z"/>
			<g>
				<path d="M147.8496094,203.0576172c1.0458984,0,1.5947266,0.8496094,1.8837891,1.7001953s0.3164063,1.7001953,0.3164063,1.7001953l0.5332031,0.0048828c0,0,0.0996094-3.4023438,2.1894531-3.4033203l-4.9228516-0.0019531z"/>
			</g>
			<g>
				<path d="M151.7714844,209.4365234c-1.1884766-1.1884766-1.1884766-2.9736328-1.1884766-2.9736328l-0.5332031-0.0048828c0,0,0,1.8242188-1.15625,2.9785156"/>
			</g>
			<g>
				<path d="M151.5341797,205.6162109c-1.1894531,1.1894531-2.9746094,1.1894531-2.9746094,1.1894531l-0.0039063,0.5332031c0,0,1.8222656,0,2.9785156,1.1552734"/>
			</g>
			<g>
				<path d="M149.1494141,205.6074219c1.1884766,1.1884766,2.9746094,1.1884766,2.9746094,1.1884766l0.0039063,0.5341797c0,0-1.8232422,0-2.9785156,1.1552734"/>
			</g>
		</g>
	</g>
</svg>
