<?xml version="1.0" encoding="utf-8"?>
<!-- Generator: Adobe Illustrator 9.0, SVG Export Plug-In  -->
<!DOCTYPE svg PUBLIC "-//W3C//DTD SVG 20000303 Stylable//EN"   "http://www.w3.org/TR/2000/03/WD-SVG-20000303/DTD/svg-20000303-stylable.dtd" [
	<!ENTITY st0 "fill:#FFFFFF;stroke-width:0.5;">
	<!ENTITY st1 "fill-rule:nonzero;clip-rule:nonzero;fill:#E61408;stroke:#000000;stroke-miterlimit:4;">
	<!ENTITY st2 "stroke:none;">
]>
<!-- This set of SVG files is a complete cards game with figures, numbers	-->
<!--    and backs of cards completely designed in SVG.				-->
<!--    									-->
<!--    Copyright (C) 2004 David Bellot						-->
<!--										-->
<!--    This library is free software; you can redistribute it and/or		-->
<!--    modify it under the terms of the GNU Lesser General Public		-->
<!--    License as published by the Free Software Foundation; either		-->
<!--    version 2 of the License, or (at your option) any later version		-->
<!--										-->
<!--    This library is distributed in the hope that it will be useful,		-->
<!--    but WITHOUT ANY WARRANTY; without even the implied warranty of		-->
<!--    MERCHANTABILITY or FITNESS FOR A PARTICULAR PURPOSE.  See the GNU	-->
<!--    Lesser General Public License for more details.				-->
<!--										-->
<!--    You should have received a copy of the GNU Lesser General Public	-->
<!--    License along with this library; if not, write to the Free Software	-->
<!--    Foundation, Inc., 59 Temple Place, Suite 330, Boston, MA 02111-1307  USA-->
<!--										-->
<!--    Contact the author David Bellot at bellot@stat.berkeley.edu or 		-->
<!--    david.bellot@free.fr or yimyom@users.sourceforge.net			-->
<svg  width="167.0864258pt" height="242.6650391pt" viewBox="0 0 167.0864258 242.6650391" xml:space="preserve">
	<g id="Layer_x0020_1" style="&st1;">
		<path style="&st0;" d="M166.8364258,235.5449219c0,3.7753906-3.0859375,6.8701172-6.8701172,6.8701172H7.1113281c-3.7753906,0-6.8613281-3.0947266-6.8613281-6.8701172V7.1201172C0.25,3.340332,3.3359375,0.25,7.1113281,0.25h152.8549805
			c3.7841797,0,6.8701172,3.090332,6.8701172,6.8701172v228.4248047z"/>
		<path style="&st2;" d="M85.3813477,45.940918c0,0,0.4882813-3.5273438-6.3374023-10.078125c-6.8251953-6.550293-9.262207-6.046875-9.262207-6.046875h15.5996094 M85.3813477,29.815918V13.6914063c0,0,0.4882813,2.5195313-5.8500977,9.5737305
			c-6.3369141,7.0546875-9.7495117,6.5507813-9.7495117,6.5507813 M85.3813477,29.815918h15.5996094c0,0-2.4365234,0.5039063-9.2617188-6.046875c-6.8242188-6.550293-6.3378906-10.0776367-6.3378906-10.0776367 M85.3813477,29.815918v16.125
			c0,0-0.4863281-2.5195313,5.8505859-9.5742188s9.7490234-6.5507813,9.7490234-6.5507813"/>
		<path style="&st2;" d="M85.1420898,212.9033203H69.5419922c0,0,2.4375,0.5029297,9.2626953-6.046875c6.824707-6.5507813,6.3374023-10.078125,6.3374023-10.078125 M69.5419922,212.9033203c0,0,3.4125977-0.5039063,9.75,6.5507813
			c6.3374023,7.0537109,5.8500977,9.5732422,5.8500977,9.5732422v-16.1240234 M85.1420898,229.0273438c0,0-0.4873047-3.5273438,6.3378906-10.0771484c6.8251953-6.5507813,9.2626953-6.046875,9.2626953-6.046875H85.1420898 M100.7426758,212.9033203
			c0,0-3.4130859,0.5039063-9.75-6.5507813c-6.3378906-7.0546875-5.8505859-9.5742188-5.8505859-9.5742188v16.125"/>
		<g>
			<path style="&st2;" d="M12.5678711,12.40625h-0.65625v-3.875c0.4433594-0.3017578,0.8803711-0.5283203,1.3115234-0.6796875C13.6542969,7.7006836,14.0874023,7.625,14.5229492,7.625c1.0234375,0,1.8232422,0.4702148,2.3994141,1.409668
				c0.5761719,0.9399414,0.8642578,2.2485352,0.8642578,3.9262695c0,1.1943359-0.1586914,2.2651367-0.4750977,3.2128906s-0.9199219,2.0708008-1.8095703,3.3696289l-2.2431641,3.300293h3.809082v-2.125h0.75V26h-5.96875v-2.9414063l1.1914063-1.8447266
				c1.0263672-1.5742188,1.7094727-2.9140625,2.0493164-4.0205078c0.3393555-1.105957,0.5092773-2.3974609,0.5092773-3.875c0-1.3964844-0.1293945-2.4604492-0.3881836-3.190918S14.5766602,9.03125,14.0834961,9.03125
				c-0.4287109,0-0.7700195,0.2885742-1.0249023,0.8652344s-0.418457,1.4130859-0.4907227,2.5097656z"/>
		</g>
		<g>
			<path style="&st2;" d="M153.965332,230.1748047h0.65625v3.875c-0.4433594,0.3017578-0.8798828,0.5283203-1.3105469,0.6796875c-0.4316406,0.1513672-0.8652344,0.2265625-1.3007813,0.2265625c-1.0234375,0-1.8222656-0.4697266-2.3984375-1.4091797
				c-0.5761719-0.9404297-0.8652344-2.2490234-0.8652344-3.9267578c0-1.1943359,0.1591797-2.2646484,0.4755859-3.2128906s0.9199219-2.0712891,1.8095703-3.3701172l2.2431641-3.2998047h-3.8095703v2.125h-0.75v-5.28125h5.96875v2.9414063l-1.1914063,1.8447266
				c-1.0253906,1.5742188-1.7089844,2.9140625-2.0488281,4.0205078s-0.5097656,2.3974609-0.5097656,3.875c0,1.3964844,0.1298828,2.4599609,0.3886719,3.1904297s0.6347656,1.0966797,1.1269531,1.0966797c0.4296875,0,0.7705078-0.2880859,1.0253906-0.8652344
				s0.4179688-1.4130859,0.4902344-2.5097656z"/>
		</g>
		<path style="&st2;" d="M16.2861328,34.0566406h-5.0419922c0,0,0.7880859,0.1625977,2.9936523-1.9545898c2.2060547-2.1171875,2.0483398-3.2573242,2.0483398-3.2573242 M11.2441406,34.0566406c0,0,1.1030273-0.1630859,3.1513672,2.1171875
			c2.0478516,2.2797852,1.890625,3.0942383,1.890625,3.0942383v-5.2114258 M16.2861328,39.2680664c0,0-0.1572266-1.1401367,2.0483398-3.2573242c2.2060547-2.1171875,2.9936523-1.9541016,2.9936523-1.9541016h-5.0419922 M21.328125,34.0566406
			c0,0-1.1030273,0.1625977-3.1513672-2.1176758c-2.0478516-2.2797852-1.890625-3.0942383-1.890625-3.0942383v5.2119141"/>
		<path style="&st2;" d="M150.715332,208.140625h5.0410156c0,0-0.7871094-0.1640625-2.9921875,1.953125c-2.2070313,2.1171875-2.0488281,3.2578125-2.0488281,3.2578125 M155.7563477,208.140625c0,0-1.1015625,0.1621094-3.1503906-2.1181641
			s-1.890625-3.0947266-1.890625-3.0947266v5.2128906 M150.715332,202.9277344c0,0,0.1572266,1.140625-2.0488281,3.2578125c-2.2050781,2.1171875-2.9931641,1.9550781-2.9931641,1.9550781h5.0419922 M145.6733398,208.140625
			c0,0,1.1025391-0.1640625,3.1513672,2.1171875c2.0478516,2.2792969,1.890625,3.09375,1.890625,3.09375v-5.2109375"/>
	</g>
</svg>
