<?xml version="1.0" encoding="utf-8"?>
<!-- Generator: Adobe Illustrator 9.0, SVG Export Plug-In  -->
<!DOCTYPE svg PUBLIC "-//W3C//DTD SVG 20000303 Stylable//EN"   "http://www.w3.org/TR/2000/03/WD-SVG-20000303/DTD/svg-20000303-stylable.dtd" [
	<!ENTITY st0 "fill:#FFFFFF;stroke-width:0.5;">
	<!ENTITY st1 "fill-rule:nonzero;clip-rule:nonzero;stroke:#000000;stroke-miterlimit:4;">
	<!ENTITY st2 "stroke:none;">
]>
<!-- This set of SVG files is a complete cards game with figures, numbers	-->
<!--    and backs of cards completely designed in SVG.				-->
<!--    									-->
<!--    Copyright (C) 2004 David Bellot						-->
<!--										-->
<!--    This library is free software; you can redistribute it and/or		-->
<!--    modify it under the terms of the GNU Lesser General Public		-->
<!--    License as published by the Free Software Foundation; either		-->
<!--    version 2 of the License, or (at your option) any later version		-->
<!--										-->
<!--    This library is distributed in the hope that it will be useful,		-->
<!--    but WITHOUT ANY WARRANTY; without even the implied warranty of		-->
<!--    MERCHANTABILITY or FITNESS FOR A PARTICULAR PURPOSE.  See the GNU	-->
<!--    Lesser General Public License for more details.				-->
<!--										-->
<!--    You should have received a copy of the GNU Lesser General Public	-->
<!--    License along with this library; if not, write to the Free Software	-->
<!--    Foundation, Inc., 59 Temple Place, Suite 330, Boston, MA 02111-1307  USA-->
<!--										-->
<!--    Contact the author David Bellot at bellot@stat.berkeley.edu or 		-->
<!--    david.bellot@free.fr or yimyom@users.sourceforge.net			-->
<svg  width="167.0869141pt" height="242.6674805pt" viewBox="0 0 167.0869141 242.6674805" xml:space="preserve">
	<g id="Layer_x0020_1" style="&st1;">
		<path style="&st0;" d="M166.8369141,235.5473633c0,3.7802734-3.0859375,6.8701172-6.8710938,6.8701172H7.1108398c-3.7744141,0-6.8608398-3.0898438-6.8608398-6.8701172V7.1201172C0.25,3.3452148,3.3364258,0.25,7.1108398,0.25h152.8549805
			c3.7851563,0,6.8710938,3.0952148,6.8710938,6.8701172v228.4272461z"/>
		<g style="&st2;">
			<path d="M91.9951172,19.918457c0,3.7753906-3.1542969,6.8339844-7.0458984,6.8339844c-3.8920898,0-7.0463867-3.0585938-7.0463867-6.8339844c0-3.7734375,3.1542969-6.8330078,7.0463867-6.8330078c3.8916016,0,7.0458984,3.0595703,7.0458984,6.8330078z"/>
			<path d="M101.0673828,32.8486328c0,3.7744141-3.1542969,6.8334961-7.046875,6.8334961c-3.890625,0-7.0449219-3.059082-7.0449219-6.8334961c0-3.7739258,3.1542969-6.8330078,7.0449219-6.8330078c3.8925781,0,7.046875,3.059082,7.046875,6.8330078z"/>
			<path d="M83.0249023,32.8989258c0,1.3823242-0.4228516,2.668457-1.1503906,3.7436523c-1.2587891,1.8608398-3.4296875,3.0893555-5.8964844,3.0893555c-3.8916016,0-7.0449219-3.0581055-7.0449219-6.8330078c0-3.7739258,3.1533203-6.8334961,7.0449219-6.8334961
				s7.046875,3.0595703,7.046875,6.8334961z"/>
			<g>
				<path d="M93.2128906,46.1621094c-3.4794922,0.0029297-5.3095703-2.8271484-6.2705078-5.6567383c-0.9589844-2.8300781-1.0498047-5.6611328-1.0498047-5.6611328l-1.7763672-0.0141602c0,0-0.3320313,11.3242188-7.2895508,11.3295898l16.3862305,0.0024414z"/>
			</g>
			<g>
				<path d="M80.159668,24.9306641c3.956543,3.9575195,3.956543,9.8994141,3.956543,9.8994141l1.7763672,0.0141602c0,0,0-6.0673828,3.8457031-9.9135742"/>
			</g>
			<g>
				<path d="M80.9516602,37.6474609c3.9575195-3.9570313,9.8989258-3.9570313,9.8989258-3.9570313l0.0136719-1.7758789c0,0-6.0664063,0-9.9125977-3.8461914"/>
			</g>
			<g>
				<path d="M88.8876953,37.6767578c-3.9570313-3.9570313-9.8989258-3.9570313-9.8989258-3.9570313l-0.0141602-1.7758789c0,0,6.0673828,0,9.9130859-3.8461914"/>
			</g>
		</g>
		<g style="&st2;">
			<path d="M93.2451172,111.668457c0,3.7753906-3.1542969,6.8339844-7.0458984,6.8339844c-3.8920898,0-7.0463867-3.0585938-7.0463867-6.8339844c0-3.7734375,3.1542969-6.8330078,7.0463867-6.8330078c3.8916016,0,7.0458984,3.0595703,7.0458984,6.8330078z"/>
			<path d="M102.3173828,124.5991211c0,3.7734375-3.1542969,6.8330078-7.046875,6.8330078c-3.890625,0-7.0449219-3.0595703-7.0449219-6.8330078c0-3.7744141,3.1542969-6.8334961,7.0449219-6.8334961c3.8925781,0,7.046875,3.059082,7.046875,6.8334961z"/>
			<path d="M84.2744141,124.6489258c0,1.3818359-0.421875,2.6689453-1.1499023,3.7431641c-1.2587891,1.8613281-3.4296875,3.0898438-5.8964844,3.0898438c-3.8916016,0-7.0449219-3.0585938-7.0449219-6.8330078c0-3.7739258,3.1533203-6.8334961,7.0449219-6.8334961
				s7.0463867,3.0595703,7.0463867,6.8334961z"/>
			<g>
				<path d="M94.4628906,137.9116211c-3.4794922,0.0039063-5.3095703-2.8261719-6.2705078-5.65625c-0.9589844-2.8300781-1.0498047-5.6611328-1.0498047-5.6611328l-1.7763672-0.0146484c0,0-0.3320313,11.3242188-7.2895508,11.3300781l16.3862305,0.0019531z"/>
			</g>
			<g>
				<path d="M81.409668,116.6806641c3.956543,3.9575195,3.956543,9.8989258,3.956543,9.8989258l1.7763672,0.0146484c0,0,0-6.0673828,3.8457031-9.9135742"/>
			</g>
			<g>
				<path d="M82.2016602,129.3979492c3.9575195-3.9570313,9.8989258-3.9570313,9.8989258-3.9570313l0.0136719-1.7763672c0,0-6.0664063,0-9.9125977-3.8461914"/>
			</g>
			<g>
				<path d="M90.1376953,129.4272461c-3.9570313-3.9570313-9.8989258-3.9570313-9.8989258-3.9570313l-0.0141602-1.7763672c0,0,6.0673828,0,9.9130859-3.8461914"/>
			</g>
		</g>
		<g style="&st2;">
			<path d="M92.0986328,223.1557617c0-3.7753906-3.1542969-6.8339844-7.0449219-6.8339844c-3.8920898,0-7.0463867,3.0585938-7.0463867,6.8339844c0,3.7734375,3.1542969,6.8339844,7.0463867,6.8339844c3.890625,0,7.0449219-3.0605469,7.0449219-6.8339844z"/>
			<path d="M101.1708984,210.2260742c0-3.7744141-3.1542969-6.8339844-7.0458984-6.8339844s-7.0458984,3.0595703-7.0458984,6.8339844c0,3.7734375,3.1542969,6.8330078,7.0458984,6.8330078s7.0458984-3.0595703,7.0458984-6.8330078z"/>
			<path d="M83.1293945,210.175293c0-1.3818359-0.4233398-2.6679688-1.1503906-3.7431641c-1.2592773-1.8603516-3.4301758-3.0888672-5.8964844-3.0888672c-3.8920898,0-7.0454102,3.0576172-7.0454102,6.8320313s3.1533203,6.8339844,7.0454102,6.8339844
				c3.8916016,0,7.046875-3.0595703,7.046875-6.8339844z"/>
			<g>
				<path d="M76.9306641,196.9155273c6.9570313,0.0048828,7.2910156,11.3291016,7.2910156,11.3291016l1.7753906-0.0146484c0,0,0.0898438-2.8300781,1.0498047-5.6601563c0.9619141-2.8300781,2.7919922-5.6601563,6.2705078-5.6572266l-16.3867188,0.0029297z"/>
			</g>
			<g>
				<path d="M80.2636719,218.144043c3.9580078-3.9570313,3.9580078-9.8994141,3.9580078-9.8994141l1.7753906-0.0146484c0,0,0,6.0683594,3.8457031,9.9140625"/>
			</g>
			<g>
				<path d="M81.0556641,205.4272461c3.9570313,3.9570313,9.8984375,3.9570313,9.8984375,3.9570313l0.015625,1.7753906c0,0-6.0683594,0-9.9140625,3.8466797"/>
			</g>
			<g>
				<path d="M88.9921875,205.3979492c-3.9580078,3.9570313-9.8989258,3.9570313-9.8989258,3.9570313l-0.0146484,1.7753906c0,0,6.0678711,0,9.9135742,3.8466797"/>
			</g>
		</g>
		<g>
			<path style="&st2;" d="M11.9194336,8.3017578c0.4765625-0.28125,0.9384766-0.4921875,1.3867188-0.6328125s0.8828125-0.2109375,1.3027344-0.2109375c0.9775391,0,1.7265625,0.3896484,2.2470703,1.1679688
				c0.5214844,0.7788086,0.7822266,1.8945313,0.7822266,3.347168c0,1.0893555-0.1494141,1.9731445-0.4482422,2.6508789c-0.2978516,0.6777344-0.7373047,1.1337891-1.3183594,1.3676758c0.6972656,0.2495117,1.2177734,0.784668,1.5625,1.6049805
				c0.34375,0.8208008,0.5166016,1.9428711,0.5166016,3.3666992c0,1.6816406-0.2988281,2.9711914-0.8955078,3.8681641s-1.4599609,1.3452148-2.5888672,1.3452148c-0.4199219,0-0.8574219-0.0810547-1.3134766-0.2421875s-0.9296875-0.4033203-1.4208984-0.7265625
				v-3.96875h0.65625c0.0400391,1.1489258,0.2021484,2.0249023,0.4853516,2.6274414s0.6757813,0.9038086,1.1777344,0.9038086c0.5419922,0,0.9628906-0.340332,1.2626953-1.0209961c0.2988281-0.6806641,0.4492188-1.6455078,0.4492188-2.8945313
				c0-1.3046875-0.1542969-2.3120117-0.4619141-3.0209961s-0.7451172-1.0634766-1.3125-1.0634766h-0.3505859v-1.4375h0.2783203c0.5322266,0,0.9306641-0.2749023,1.1972656-0.8251953c0.265625-0.5498047,0.3994141-1.3710938,0.3994141-2.4638672
				c0-1.0273438-0.1259766-1.8144531-0.3779297-2.3603516s-0.6142578-0.8193359-1.0849609-0.8193359c-0.4306641,0-0.7724609,0.2587891-1.0244141,0.7758789c-0.2519531,0.5175781-0.4013672,1.269043-0.4501953,2.2553711h-0.65625v-3.59375z"/>
		</g>
		<g>
			<path style="&st2;" d="M154.3798828,233.9448242c-0.4765625,0.28125-0.9394531,0.4921875-1.3867188,0.6328125c-0.4492188,0.140625-0.8828125,0.2109375-1.3027344,0.2109375c-0.9785156,0-1.7265625-0.3886719-2.2480469-1.1679688
				c-0.5214844-0.7783203-0.78125-1.8945313-0.78125-3.3466797c0-1.0888672,0.1484375-1.9736328,0.4472656-2.6513672s0.7382813-1.1328125,1.3183594-1.3671875c-0.6972656-0.25-1.2167969-0.7851563-1.5625-1.6054688
				c-0.34375-0.8203125-0.515625-1.9423828-0.515625-3.3662109c0-1.6816406,0.2988281-2.9716797,0.8945313-3.8681641c0.5976563-0.8964844,1.4609375-1.3457031,2.5898438-1.3457031c0.4199219,0,0.8574219,0.0820313,1.3125,0.2421875
				c0.4570313,0.1621094,0.9296875,0.4042969,1.421875,0.7265625v3.96875h-0.65625c-0.0410156-1.1484375-0.203125-2.0244141-0.4863281-2.6269531s-0.6757813-0.9042969-1.1777344-0.9042969c-0.5410156,0-0.9628906,0.3408203-1.2617188,1.0214844
				s-0.4492188,1.6455078-0.4492188,2.8945313c0,1.3046875,0.1542969,2.3125,0.4609375,3.0214844c0.3085938,0.7089844,0.7460938,1.0625,1.3125,1.0625h0.3515625v1.4375h-0.2792969c-0.53125,0-0.9296875,0.2753906-1.1972656,0.8261719
				c-0.265625,0.5488281-0.3984375,1.3710938-0.3984375,2.4628906c0,1.0273438,0.125,1.8144531,0.3769531,2.3613281c0.2519531,0.5449219,0.6152344,0.8183594,1.0859375,0.8183594c0.4296875,0,0.7714844-0.2578125,1.0234375-0.7753906
				s0.4023438-1.2695313,0.4511719-2.2558594h0.65625v3.59375z"/>
		</g>
		<g style="&st2;">
			<path d="M18.0400391,31.1645508c0,1.1342773-0.9472656,2.0537109-2.1166992,2.0537109c-1.1689453,0-2.1171875-0.9194336-2.1171875-2.0537109c0-1.1337891,0.9482422-2.0527344,2.1171875-2.0527344c1.1694336,0,2.1166992,0.9189453,2.1166992,2.0527344z"/>
			<path d="M20.7661133,35.0498047c0,1.1337891-0.9477539,2.0527344-2.1171875,2.0527344c-1.1689453,0-2.1166992-0.9189453-2.1166992-2.0527344c0-1.1342773,0.9477539-2.0532227,2.1166992-2.0532227c1.1694336,0,2.1171875,0.9189453,2.1171875,2.0532227z"/>
			<path d="M15.3452148,35.0644531c0,0.4155273-0.1269531,0.8017578-0.3457031,1.125c-0.3779297,0.559082-1.0302734,0.9282227-1.7714844,0.9282227c-1.1689453,0-2.1166992-0.9189453-2.1166992-2.0532227c0-1.1337891,0.9477539-2.0527344,2.1166992-2.0527344
				c1.1694336,0,2.1171875,0.9189453,2.1171875,2.0527344z"/>
			<g>
				<path d="M18.40625,39.0498047c-1.0454102,0.0004883-1.5952148-0.8496094-1.8837891-1.699707s-0.315918-1.7006836-0.315918-1.7006836l-0.5332031-0.0043945c0,0-0.1000977,3.4023438-2.1904297,3.4038086l4.9233398,0.0009766z"/>
			</g>
			<g>
				<path d="M14.484375,32.6704102c1.1889648,1.1894531,1.1889648,2.9746094,1.1889648,2.9746094l0.5332031,0.0043945c0,0,0-1.8232422,1.1557617-2.9790039"/>
			</g>
			<g>
				<path d="M14.722168,36.4912109c1.1889648-1.1884766,2.9746094-1.1884766,2.9746094-1.1884766l0.0039063-0.5336914c0,0-1.8227539,0-2.9785156-1.1557617"/>
			</g>
			<g>
				<path d="M17.1069336,36.5004883c-1.1889648-1.1889648-2.9746094-1.1889648-2.9746094-1.1889648L14.128418,34.777832c0,0,1.8227539,0,2.9785156-1.1557617"/>
			</g>
		</g>
		<g style="&st2;">
			<path d="M148.1787109,210.7768555c0-1.1337891,0.9472656-2.0527344,2.1171875-2.0527344c1.1679688,0,2.1171875,0.9189453,2.1171875,2.0527344c0,1.1347656-0.9492188,2.0537109-2.1171875,2.0537109c-1.1699219,0-2.1171875-0.9189453-2.1171875-2.0537109z"/>
			<path d="M145.4521484,206.8920898c0-1.1328125,0.9482422-2.0527344,2.1171875-2.0527344c1.1699219,0,2.1171875,0.9199219,2.1171875,2.0527344c0,1.1347656-0.9472656,2.0537109-2.1171875,2.0537109c-1.1689453,0-2.1171875-0.9189453-2.1171875-2.0537109z"/>
			<path d="M150.8740234,206.8774414c0-0.4150391,0.1269531-0.8017578,0.3457031-1.1240234c0.3769531-0.5595703,1.0292969-0.9287109,1.7714844-0.9287109c1.1679688,0,2.1162109,0.9189453,2.1162109,2.0527344s-0.9482422,2.0537109-2.1162109,2.0537109
				c-1.1699219,0-2.1171875-0.9199219-2.1171875-2.0537109z"/>
			<g>
				<path d="M147.8125,202.8920898c1.0458984,0,1.5947266,0.8496094,1.8837891,1.7001953s0.3164063,1.7001953,0.3164063,1.7001953l0.5332031,0.0048828c0,0,0.0996094-3.4023438,2.1894531-3.4033203l-4.9228516-0.0019531z"/>
			</g>
			<g>
				<path d="M151.734375,209.2709961c-1.1884766-1.1884766-1.1884766-2.9736328-1.1884766-2.9736328l-0.5332031-0.0048828c0,0,0,1.8242188-1.15625,2.9785156"/>
			</g>
			<g>
				<path d="M151.4970703,205.4506836c-1.1894531,1.1894531-2.9746094,1.1894531-2.9746094,1.1894531l-0.0039063,0.5332031c0,0,1.8222656,0,2.9785156,1.1552734"/>
			</g>
			<g>
				<path d="M149.1123047,205.4418945c1.1884766,1.1884766,2.9746094,1.1884766,2.9746094,1.1884766l0.0039063,0.5341797c0,0-1.8232422,0-2.9785156,1.1552734"/>
			</g>
		</g>
	</g>
</svg>
