<?xml version="1.0" encoding="utf-8"?>
<!-- Generator: Adobe Illustrator 9.0, SVG Export Plug-In  -->
<!DOCTYPE svg PUBLIC "-//W3C//DTD SVG 20000303 Stylable//EN"   "http://www.w3.org/TR/2000/03/WD-SVG-20000303/DTD/svg-20000303-stylable.dtd" [
	<!ENTITY st0 "fill:#FFFFFF;stroke-width:0.5;">
	<!ENTITY st1 "fill-rule:nonzero;clip-rule:nonzero;fill:#E61408;stroke:#000000;stroke-miterlimit:4;">
	<!ENTITY st2 "stroke:none;">
]>
<!-- This set of SVG files is a complete cards game with figures, numbers	-->
<!--    and backs of cards completely designed in SVG.				-->
<!--    									-->
<!--    Copyright (C) 2004 David Bellot						-->
<!--										-->
<!--    This library is free software; you can redistribute it and/or		-->
<!--    modify it under the terms of the GNU Lesser General Public		-->
<!--    License as published by the Free Software Foundation; either		-->
<!--    version 2 of the License, or (at your option) any later version		-->
<!--										-->
<!--    This library is distributed in the hope that it will be useful,		-->
<!--    but WITHOUT ANY WARRANTY; without even the implied warranty of		-->
<!--    MERCHANTABILITY or FITNESS FOR A PARTICULAR PURPOSE.  See the GNU	-->
<!--    Lesser General Public License for more details.				-->
<!--										-->
<!--    You should have received a copy of the GNU Lesser General Public	-->
<!--    License along with this library; if not, write to the Free Software	-->
<!--    Foundation, Inc., 59 Temple Place, Suite 330, Boston, MA 02111-1307  USA-->
<!--										-->
<!--    Contact the author David Bellot at bellot@stat.berkeley.edu or 		-->
<!--    david.bellot@free.fr or yimyom@users.sourceforge.net			-->
<svg  width="167.0869141pt" height="242.6669922pt" viewBox="0 0 167.0869141 242.6669922" xml:space="preserve">
	<g id="Layer_x0020_1" style="&st1;">
		<path style="&st0;" d="M166.8369141,235.5478516c0,3.7753906-3.0859375,6.8691406-6.8710938,6.8691406H7.1113281c-3.7749023,0-6.8613281-3.09375-6.8613281-6.8691406V7.1201172C0.25,3.3452148,3.3364258,0.25,7.1113281,0.25h152.8544922
			c3.7851563,0,6.8710938,3.0952148,6.8710938,6.8701172v228.4277344z"/>
		<g>
			<path style="&st2;" d="M69.8178711,113.5068359c0.0136719,9.5800781,12.0224609,16.5576172,15.5385742,24.1425781c3.546875-7.5664063,15.5917969-14.4824219,15.6542969-24.0620117c0.0263672-4.5175781-3.4707031-8.1938477-7.7792969-8.203125
				c-4.3066406-0.0087891-7.8046875,3.640625-7.8173828,8.1669922c0.0126953-4.5263672-3.4707031-8.1938477-7.777832-8.2026367c-4.3076172-0.0180664-7.8046875,3.640625-7.8183594,8.1582031z"/>
		</g>
		<g>
			<path style="&st2;" d="M69.8178711,21.9067383C69.831543,31.4873047,81.840332,38.4643555,85.3564453,46.050293c3.546875-7.5678711,15.5917969-14.4824219,15.6542969-24.0629883c0.0263672-4.5175781-3.4707031-8.1938477-7.7792969-8.203125
				c-4.3066406-0.0087891-7.8046875,3.6411133-7.8173828,8.1674805c0.0126953-4.5263672-3.4707031-8.1943359-7.777832-8.203125c-4.3076172-0.0180664-7.8046875,3.640625-7.8183594,8.1582031z"/>
		</g>
		<g>
			<path style="&st2;" d="M69.8178711,220.7607422c0.0136719-9.5800781,12.0224609-16.5488281,15.5385742-24.1425781c3.546875,7.5761719,15.5917969,14.4902344,15.6542969,24.0625c0.0263672,4.5263672-3.4707031,8.203125-7.7792969,8.2109375
				c-4.3066406,0.0097656-7.8046875-3.6484375-7.8173828-8.1660156c0.0126953,4.5175781-3.4707031,8.1933594-7.777832,8.203125c-4.3076172,0.0078125-7.8046875-3.6416016-7.8183594-8.1679688z"/>
		</g>
		<g>
			<path style="&st2;" d="M12.1762695,8.5058594c0.4765625-0.28125,0.9389648-0.4921875,1.387207-0.6328125s0.8823242-0.2109375,1.3027344-0.2109375c0.9770508,0,1.7260742,0.3896484,2.2470703,1.1679688c0.5209961,0.7788086,0.7817383,1.8945313,0.7817383,3.347168
				c0,1.0893555-0.1494141,1.9731445-0.4477539,2.6508789s-0.737793,1.1337891-1.3183594,1.3676758c0.6967773,0.2495117,1.2172852,0.784668,1.5620117,1.6049805c0.3442383,0.8208008,0.5166016,1.9428711,0.5166016,3.3666992
				c0,1.6816406-0.2988281,2.9711914-0.8955078,3.8681641s-1.4599609,1.3452148-2.5888672,1.3452148c-0.4199219,0-0.8574219-0.0810547-1.3129883-0.2421875c-0.4560547-0.1611328-0.9296875-0.4033203-1.4213867-0.7265625v-3.96875h0.65625
				c0.0400391,1.1489258,0.2021484,2.0249023,0.4853516,2.6274414s0.6757813,0.9038086,1.1777344,0.9038086c0.5419922,0,0.9628906-0.340332,1.2626953-1.0209961c0.2993164-0.6806641,0.4492188-1.6455078,0.4492188-2.8945313
				c0-1.3046875-0.1542969-2.3120117-0.4619141-3.0209961s-0.7451172-1.0634766-1.3125-1.0634766h-0.3505859v-1.4375h0.2783203c0.5322266,0,0.9311523-0.2749023,1.1972656-0.8251953c0.2661133-0.5498047,0.3994141-1.3710938,0.3994141-2.4638672
				c0-1.0273438-0.1259766-1.8144531-0.3779297-2.3603516s-0.6137695-0.8193359-1.0849609-0.8193359c-0.4306641,0-0.7719727,0.2587891-1.0239258,0.7758789c-0.2519531,0.5175781-0.4018555,1.269043-0.4506836,2.2553711h-0.65625v-3.59375z"/>
		</g>
		<g>
			<path style="&st2;" d="M154.6367188,234.1494141c-0.4765625,0.28125-0.9384766,0.4921875-1.3876953,0.6328125c-0.4472656,0.140625-0.8818359,0.2109375-1.3027344,0.2109375c-0.9765625,0-1.7255859-0.3886719-2.2460938-1.1679688
				c-0.5214844-0.7783203-0.7822266-1.8945313-0.7822266-3.3466797c0-1.0888672,0.1494141-1.9736328,0.4482422-2.6513672c0.2978516-0.6777344,0.7373047-1.1328125,1.3183594-1.3671875c-0.6972656-0.25-1.2177734-0.7851563-1.5625-1.6054688
				c-0.34375-0.8203125-0.5166016-1.9423828-0.5166016-3.3662109c0-1.6816406,0.2988281-2.9716797,0.8955078-3.8681641s1.4599609-1.3457031,2.5888672-1.3457031c0.4199219,0,0.8574219,0.0820313,1.3134766,0.2421875
				c0.4550781,0.1621094,0.9296875,0.4042969,1.4208984,0.7265625v3.96875h-0.65625c-0.0400391-1.1484375-0.2021484-2.0244141-0.4853516-2.6269531s-0.6757813-0.9042969-1.1777344-0.9042969c-0.5419922,0-0.9628906,0.3408203-1.2626953,1.0214844
				s-0.4492188,1.6455078-0.4492188,2.8945313c0,1.3046875,0.1542969,2.3125,0.4619141,3.0214844s0.7451172,1.0625,1.3125,1.0625h0.3505859v1.4375h-0.2783203c-0.5322266,0-0.9316406,0.2753906-1.1972656,0.8261719
				c-0.265625,0.5488281-0.3994141,1.3710938-0.3994141,2.4628906c0,1.0273438,0.1259766,1.8144531,0.3779297,2.3613281c0.2519531,0.5449219,0.6132813,0.8183594,1.0849609,0.8183594c0.4306641,0,0.7724609-0.2578125,1.0244141-0.7753906
				s0.4013672-1.2695313,0.4501953-2.2558594h0.65625v3.59375z"/>
		</g>
		<g>
			<path style="&st2;" d="M11.6655273,31.6108398c0.0029297,2.8735352,3.605957,4.9667969,4.659668,7.2431641c1.0649414-2.2709961,4.6791992-4.3457031,4.6962891-7.2197266c0.0083008-1.3564453-1.0410156-2.4580078-2.3330078-2.4614258
				s-2.3413086,1.0932617-2.3447266,2.449707c0.003418-1.3564453-1.0415039-2.4584961-2.3334961-2.4614258c-1.2919922-0.003418-2.3417969,1.0927734-2.3447266,2.449707z"/>
		</g>
		<g>
			<path style="&st2;" d="M155.0419922,210.9082031c-0.0019531-2.8740234-3.6054688-4.9658203-4.6601563-7.2431641c-1.0644531,2.2714844-4.6777344,4.3457031-4.6953125,7.2197266c-0.0078125,1.3564453,1.0410156,2.4580078,2.3330078,2.4619141
				c1.2919922,0.0029297,2.3408203-1.09375,2.3447266-2.4501953c-0.0039063,1.3564453,1.0410156,2.4580078,2.3330078,2.4619141c1.2919922,0.0029297,2.3427734-1.09375,2.3447266-2.4501953z"/>
		</g>
	</g>
</svg>
