<?xml version="1.0" encoding="utf-8"?>
<!-- Generator: Adobe Illustrator 9.0, SVG Export Plug-In  -->
<!DOCTYPE svg PUBLIC "-//W3C//DTD SVG 20000303 Stylable//EN"   "http://www.w3.org/TR/2000/03/WD-SVG-20000303/DTD/svg-20000303-stylable.dtd" [
	<!ENTITY st0 "fill:#FFFFFF;stroke-width:0.5;">
	<!ENTITY st1 "fill-rule:nonzero;clip-rule:nonzero;stroke:#000000;stroke-miterlimit:4;">
	<!ENTITY st2 "stroke:none;">
]>
<!-- This set of SVG files is a complete cards game with figures, numbers	-->
<!--    and backs of cards completely designed in SVG.				-->
<!--    									-->
<!--    Copyright (C) 2004 David Bellot						-->
<!--										-->
<!--    This library is free software; you can redistribute it and/or		-->
<!--    modify it under the terms of the GNU Lesser General Public		-->
<!--    License as published by the Free Software Foundation; either		-->
<!--    version 2 of the License, or (at your option) any later version		-->
<!--										-->
<!--    This library is distributed in the hope that it will be useful,		-->
<!--    but WITHOUT ANY WARRANTY; without even the implied warranty of		-->
<!--    MERCHANTABILITY or FITNESS FOR A PARTICULAR PURPOSE.  See the GNU	-->
<!--    Lesser General Public License for more details.				-->
<!--										-->
<!--    You should have received a copy of the GNU Lesser General Public	-->
<!--    License along with this library; if not, write to the Free Software	-->
<!--    Foundation, Inc., 59 Temple Place, Suite 330, Boston, MA 02111-1307  USA-->
<!--										-->
<!--    Contact the author David Bellot at bellot@stat.berkeley.edu or 		-->
<!--    david.bellot@free.fr or yimyom@users.sourceforge.net			-->
<svg  width="167.0864258pt" height="242.6669922pt" viewBox="0 0 167.0864258 242.6669922" xml:space="preserve">
	<g id="Layer_x0020_1" style="&st1;">
		<path style="&st0;" d="M166.8364258,235.5478516c0,3.7773438-3.0859375,6.8691406-6.8701172,6.8691406H7.1113281c-3.7753906,0-6.8613281-3.0917969-6.8613281-6.8691406V7.1201172C0.25,3.3432617,3.3359375,0.25,7.1113281,0.25h152.8549805
			c3.7841797,0,6.8701172,3.0932617,6.8701172,6.8701172v228.4277344z"/>
		<g style="&st2;">
			<g>
				<path d="M93.581543,46.1118164c-3.4794922,0.003418-5.3095703-3.7070313-6.2705078-7.4160156c-0.9589844-3.7114258-1.0507813-7.4233398-1.0507813-7.4233398l-1.7753906-0.0180664c0,0-0.3320313,14.8476563-7.2905273,14.8540039l16.387207,0.003418z"/>
			</g>
			<path d="M99.4692383,31.269043c-0.03125-7.2426758-10.8730469-12.4956055-14.0576172-18.2270508c-3.1821289,5.7314453-14.0249023,10.984375-14.0556641,18.2270508c-0.0141602,3.4194336,3.1469727,6.1899414,7.0288086,6.1899414
				c3.8808594,0,7.0268555-2.7705078,7.0268555-6.1899414c0,3.4194336,3.1474609,6.1899414,7.0302734,6.1899414c3.8808594,0,7.0273438-2.7705078,7.0273438-6.1899414z"/>
		</g>
		<g style="&st2;">
			<g>
				<path d="M93.581543,137.5693359c-3.4794922,0.0039063-5.3095703-3.7070313-6.2705078-7.4160156c-0.9589844-3.7109375-1.0507813-7.4238281-1.0507813-7.4238281l-1.7753906-0.0175781c0,0-0.3320313,14.8476563-7.2905273,14.8535156l16.387207,0.0039063z"/>
			</g>
			<path d="M99.4692383,122.7265625c-0.03125-7.2426758-10.8730469-12.4951172-14.0576172-18.2265625c-3.1821289,5.7314453-14.0249023,10.9838867-14.0556641,18.2265625c-0.0141602,3.4199219,3.1469727,6.1904297,7.0288086,6.1904297
				c3.8808594,0,7.0268555-2.7705078,7.0268555-6.1904297c0,3.4199219,3.1474609,6.1904297,7.0302734,6.1904297c3.8808594,0,7.0273438-2.7705078,7.0273438-6.1904297z"/>
		</g>
		<g style="&st2;">
			<g>
				<path d="M77.4267578,196.7919922c6.9584961,0.0058594,7.2905273,14.8535156,7.2905273,14.8535156l1.7753906-0.0175781c0,0,0.0917969-3.7128906,1.0507813-7.4238281c0.9609375-3.7089844,2.7910156-7.4199219,6.2705078-7.4160156l-16.387207,0.0039063z"/>
			</g>
			<path d="M99.7016602,211.6308594c-0.03125,7.2431641-10.8730469,12.4951172-14.0576172,18.2265625c-3.1821289-5.7314453-14.0249023-10.9833984-14.0556641-18.2265625c-0.0141602-3.4199219,3.1469727-6.1904297,7.0288086-6.1904297
				c3.8808594,0,7.0268555,2.7705078,7.0268555,6.1904297c0-3.4199219,3.1474609-6.1904297,7.0302734-6.1904297c3.8808594,0,7.0273438,2.7705078,7.0273438,6.1904297z"/>
		</g>
		<g>
			<path style="&st2;" d="M12.1591797,8.2573242c0.4765625-0.28125,0.9394531-0.4921875,1.3876953-0.6328125s0.8818359-0.2109375,1.3027344-0.2109375c0.9765625,0,1.7255859,0.3896484,2.2470703,1.1679688c0.5205078,0.7792969,0.78125,1.8945313,0.78125,3.3476563
				c0,1.0888672-0.1494141,1.9726563-0.4472656,2.6503906c-0.2988281,0.6777344-0.7382813,1.1337891-1.3183594,1.3681641c0.6962891,0.2490234,1.2167969,0.7841797,1.5615234,1.6044922c0.3447266,0.8212891,0.5166016,1.9433594,0.5166016,3.3671875
				c0,1.6816406-0.2988281,2.9707031-0.8955078,3.8681641c-0.5966797,0.8964844-1.4599609,1.3447266-2.5888672,1.3447266c-0.4199219,0-0.8574219-0.0810547-1.3125-0.2421875c-0.4560547-0.1611328-0.9296875-0.4033203-1.421875-0.7265625v-3.96875h0.65625
				c0.0400391,1.1494141,0.2021484,2.0253906,0.4853516,2.6279297s0.6757813,0.9033203,1.1777344,0.9033203c0.5419922,0,0.9628906-0.3398438,1.2626953-1.0205078s0.4492188-1.6455078,0.4492188-2.8945313c0-1.3046875-0.1542969-2.3125-0.4619141-3.0214844
				s-0.7451172-1.0634766-1.3125-1.0634766h-0.3505859v-1.4375H14.15625c0.5322266,0,0.9316406-0.2744141,1.1972656-0.8251953c0.2666016-0.5498047,0.3994141-1.3710938,0.3994141-2.4638672c0-1.0273438-0.1259766-1.8144531-0.3779297-2.3603516
				s-0.6132813-0.8193359-1.0849609-0.8193359c-0.4306641,0-0.7714844,0.2587891-1.0234375,0.7763672s-0.4023438,1.2685547-0.4511719,2.2548828h-0.65625v-3.59375z"/>
		</g>
		<g>
			<path style="&st2;" d="M154.6196289,233.9013672c-0.4765625,0.28125-0.9394531,0.4921875-1.3867188,0.6328125c-0.4492188,0.140625-0.8828125,0.2109375-1.3027344,0.2109375c-0.9765625,0-1.7265625-0.3896484-2.2480469-1.1679688
				c-0.5195313-0.7792969-0.78125-1.8945313-0.78125-3.3476563c0-1.0888672,0.1503906-1.9726563,0.4472656-2.6503906c0.2988281-0.6777344,0.7382813-1.1337891,1.3183594-1.3671875c-0.6953125-0.25-1.2167969-0.7851563-1.5605469-1.6054688
				c-0.3457031-0.8203125-0.5175781-1.9433594-0.5175781-3.3671875c0-1.6816406,0.2988281-2.9707031,0.8964844-3.8671875c0.5957031-0.8974609,1.4589844-1.3457031,2.5878906-1.3457031c0.4199219,0,0.8574219,0.0810547,1.3125,0.2421875
				c0.4570313,0.1611328,0.9296875,0.4033203,1.421875,0.7265625v3.96875h-0.65625c-0.0390625-1.1484375-0.2011719-2.0253906-0.484375-2.6269531c-0.2832031-0.6035156-0.6757813-0.9042969-1.1777344-0.9042969c-0.5429688,0-0.9628906,0.3398438-1.2636719,1.0214844
				c-0.2988281,0.6796875-0.4492188,1.6445313-0.4492188,2.8945313c0,1.3046875,0.1542969,2.3115234,0.4628906,3.0205078c0.3066406,0.7089844,0.7441406,1.0634766,1.3125,1.0634766h0.3496094v1.4375h-0.2773438c-0.5332031,0-0.9316406,0.2753906-1.1972656,0.8251953
				c-0.2675781,0.5498047-0.4003906,1.3710938-0.4003906,2.4638672c0,1.0273438,0.1269531,1.8144531,0.3789063,2.3603516s0.6132813,0.8193359,1.0839844,0.8193359c0.4316406,0,0.7714844-0.2587891,1.0234375-0.7753906
				c0.2519531-0.5175781,0.4023438-1.2695313,0.4511719-2.2558594h0.65625v3.59375z"/>
		</g>
		<g style="&st2;">
			<g>
				<path d="M19.0507813,39.2827148c-1.0957031,0.0009766-1.671875-1.1674805-1.9746094-2.3349609c-0.3017578-1.1689453-0.3305664-2.3374023-0.3305664-2.3374023l-0.559082-0.0058594c0,0-0.1044922,4.6748047-2.2949219,4.6767578l5.1591797,0.0014648z"/>
			</g>
			<path d="M20.9042969,34.609375c-0.0097656-2.2802734-3.4233398-3.934082-4.4257813-5.7387695c-1.0019531,1.8046875-4.4160156,3.4584961-4.4257813,5.7387695c-0.0043945,1.0766602,0.9912109,1.9487305,2.2128906,1.9487305
				c1.222168,0,2.2128906-0.8720703,2.2128906-1.9487305c0,1.0766602,0.9912109,1.9487305,2.2128906,1.9487305c1.222168,0,2.2128906-0.8720703,2.2128906-1.9487305z"/>
		</g>
		<g style="&st2;">
			<g>
				<path d="M148.0356445,202.9492188c1.0957031-0.0009766,1.671875,1.1669922,1.9746094,2.3349609s0.3310547,2.3369141,0.3310547,2.3369141l0.5595703,0.0058594c0,0,0.1035156-4.6748047,2.2949219-4.6767578l-5.1601563-0.0009766z"/>
			</g>
			<path d="M146.1821289,207.6220703c0.0097656,2.28125,3.4238281,3.9335938,4.4257813,5.7382813c1.0019531-1.8046875,4.4160156-3.4570313,4.4257813-5.7382813c0.0048828-1.0761719-0.9902344-1.9492188-2.2128906-1.9492188
				c-1.2216797,0-2.2128906,0.8730469-2.2128906,1.9492188c0-1.0761719-0.9902344-1.9492188-2.2128906-1.9492188c-1.2216797,0-2.2128906,0.8730469-2.2128906,1.9492188z"/>
		</g>
	</g>
</svg>
