<?xml version="1.0" encoding="utf-8"?>
<!-- Generator: Adobe Illustrator 9.0, SVG Export Plug-In  -->
<!DOCTYPE svg PUBLIC "-//W3C//DTD SVG 20000303 Stylable//EN"   "http://www.w3.org/TR/2000/03/WD-SVG-20000303/DTD/svg-20000303-stylable.dtd" [
	<!ENTITY st0 "fill:#FFFFFF;stroke-width:0.5;">
	<!ENTITY st1 "fill-rule:nonzero;clip-rule:nonzero;fill:#E61408;stroke:#000000;stroke-miterlimit:4;">
	<!ENTITY st2 "stroke:none;">
]>
<!-- This set of SVG files is a complete cards game with figures, numbers	-->
<!--    and backs of cards completely designed in SVG.				-->
<!--    									-->
<!--    Copyright (C) 2004 David Bellot						-->
<!--										-->
<!--    This library is free software; you can redistribute it and/or		-->
<!--    modify it under the terms of the GNU Lesser General Public		-->
<!--    License as published by the Free Software Foundation; either		-->
<!--    version 2 of the License, or (at your option) any later version		-->
<!--										-->
<!--    This library is distributed in the hope that it will be useful,		-->
<!--    but WITHOUT ANY WARRANTY; without even the implied warranty of		-->
<!--    MERCHANTABILITY or FITNESS FOR A PARTICULAR PURPOSE.  See the GNU	-->
<!--    Lesser General Public License for more details.				-->
<!--										-->
<!--    You should have received a copy of the GNU Lesser General Public	-->
<!--    License along with this library; if not, write to the Free Software	-->
<!--    Foundation, Inc., 59 Temple Place, Suite 330, Boston, MA 02111-1307  USA-->
<!--										-->
<!--    Contact the author David Bellot at bellot@stat.berkeley.edu or 		-->
<!--    david.bellot@free.fr or yimyom@users.sourceforge.net			-->
<svg  width="167.0864258pt" height="242.6650391pt" viewBox="0 0 167.0864258 242.6650391" xml:space="preserve">
	<g id="Layer_x0020_1" style="&st1;">
		<path style="&st0;" d="M166.8364258,235.5449219c0,3.7753906-3.0859375,6.8701172-6.8701172,6.8701172H7.1113281c-3.7753906,0-6.8613281-3.0947266-6.8613281-6.8701172V7.1201172C0.25,3.340332,3.3359375,0.25,7.1113281,0.25h152.8549805
			c3.7841797,0,6.8701172,3.090332,6.8701172,6.8701172v228.4248047z"/>
		<path style="&st2;" d="M85.1948242,121.3251953H69.5952148c0,0,2.4370117,0.503418,9.262207-6.046875c6.824707-6.5507813,6.3374023-10.078125,6.3374023-10.078125 M69.5952148,121.3251953c0,0,3.4121094-0.5039063,9.7495117,6.5507813
			s5.8500977,9.5742188,5.8500977,9.5742188v-16.125 M85.1948242,137.4501953c0,0-0.4873047-3.5273438,6.3378906-10.078125c6.8251953-6.550293,9.2626953-6.046875,9.2626953-6.046875H85.1948242 M100.7954102,121.3251953c0,0-3.4130859,0.5039063-9.75-6.5507813
			c-6.3378906-7.0546875-5.8505859-9.5742188-5.8505859-9.5742188v16.125"/>
		<path style="&st2;" d="M85.3364258,45.7773438c0,0,0.4882813-3.5273438-6.3374023-10.078125c-6.8251953-6.550293-9.2626953-6.046875-9.2626953-6.046875h15.6000977 M85.3364258,29.6523438V13.527832c0,0,0.4873047,2.5195313-5.8500977,9.5737305
			c-6.3374023,7.0546875-9.75,6.5507813-9.75,6.5507813 M85.3364258,29.6523438h15.5996094c0,0-2.4375,0.5039063-9.2617188-6.046875c-6.8251953-6.550293-6.3378906-10.0776367-6.3378906-10.0776367 M85.3364258,29.6523438v16.125
			c0,0-0.4863281-2.5195313,5.8496094-9.5742188c6.3378906-7.0546875,9.75-6.5507813,9.75-6.5507813"/>
		<path style="&st2;" d="M85.0961914,212.7402344H69.4970703c0,0,2.4370117,0.5029297,9.262207-6.046875c6.8251953-6.5507813,6.3369141-10.078125,6.3369141-10.078125 M69.4970703,212.7402344c0,0,3.4121094-0.5039063,9.7495117,6.5507813
			c6.3378906,7.0537109,5.8496094,9.5732422,5.8496094,9.5732422v-16.1240234 M85.0961914,228.8642578c0,0-0.4863281-3.5273438,6.3378906-10.0771484c6.8261719-6.5507813,9.2626953-6.046875,9.2626953-6.046875H85.0961914 M100.6967773,212.7402344
			c0,0-3.4130859,0.5039063-9.7490234-6.5507813c-6.3378906-7.0546875-5.8515625-9.5742188-5.8515625-9.5742188v16.125"/>
		<g>
			<path style="&st2;" d="M12.0791016,8.4682617c0.4765625-0.28125,0.9389648-0.4921875,1.387207-0.6328125s0.8823242-0.2109375,1.3027344-0.2109375c0.9770508,0,1.7260742,0.3896484,2.2470703,1.1679688c0.5209961,0.7788086,0.7817383,1.8945313,0.7817383,3.347168
				c0,1.0893555-0.1494141,1.9731445-0.4477539,2.6508789s-0.737793,1.1337891-1.3183594,1.3676758c0.6967773,0.2495117,1.2172852,0.784668,1.5620117,1.6049805c0.3442383,0.8208008,0.5166016,1.9428711,0.5166016,3.3666992
				c0,1.6816406-0.2988281,2.9711914-0.8955078,3.8681641s-1.4599609,1.3452148-2.5888672,1.3452148c-0.4199219,0-0.8574219-0.0810547-1.3129883-0.2421875c-0.4560547-0.1611328-0.9296875-0.4033203-1.4213867-0.7265625v-3.96875h0.65625
				c0.0400391,1.1489258,0.2021484,2.0249023,0.4853516,2.6274414s0.6757813,0.9038086,1.1777344,0.9038086c0.5419922,0,0.9628906-0.340332,1.2626953-1.0209961c0.2993164-0.6806641,0.4492188-1.6455078,0.4492188-2.8945313
				c0-1.3046875-0.1542969-2.3120117-0.4619141-3.0209961s-0.7451172-1.0634766-1.3125-1.0634766h-0.3505859v-1.4375h0.2783203c0.5322266,0,0.9311523-0.2749023,1.1972656-0.8251953c0.2661133-0.5498047,0.3994141-1.3710938,0.3994141-2.4638672
				c0-1.0273438-0.1259766-1.8144531-0.3779297-2.3603516s-0.6137695-0.8193359-1.0849609-0.8193359c-0.4306641,0-0.7719727,0.2587891-1.0239258,0.7758789c-0.2519531,0.5175781-0.4018555,1.269043-0.4506836,2.2553711h-0.65625v-3.59375z"/>
		</g>
		<g>
			<path style="&st2;" d="M154.5395508,234.1123047c-0.4765625,0.28125-0.9394531,0.4921875-1.3867188,0.6328125c-0.4492188,0.140625-0.8828125,0.2109375-1.3027344,0.2109375c-0.9775391,0-1.7265625-0.3896484-2.2480469-1.1679688
				c-0.5205078-0.7783203-0.78125-1.8945313-0.78125-3.3466797c0-1.0898438,0.1494141-1.9736328,0.4472656-2.6513672c0.2988281-0.6777344,0.7382813-1.1337891,1.3183594-1.3681641c-0.6962891-0.2490234-1.2167969-0.7841797-1.5615234-1.6044922
				c-0.3447266-0.8212891-0.5166016-1.9423828-0.5166016-3.3662109c0-1.6816406,0.2988281-2.9716797,0.8955078-3.8691406c0.5966797-0.8964844,1.4599609-1.3447266,2.5888672-1.3447266c0.4199219,0,0.8574219,0.0810547,1.3125,0.2421875
				c0.4570313,0.1611328,0.9296875,0.4033203,1.421875,0.7265625v3.96875h-0.65625c-0.0400391-1.1494141-0.2021484-2.0244141-0.4853516-2.6279297c-0.2832031-0.6015625-0.6757813-0.9033203-1.1777344-0.9033203c-0.5419922,0-0.9628906,0.3408203-1.2626953,1.0205078
				c-0.2988281,0.6816406-0.4492188,1.6464844-0.4492188,2.8945313c0,1.3046875,0.1542969,2.3125,0.4619141,3.0214844s0.7451172,1.0634766,1.3125,1.0634766h0.3505859v1.4375h-0.2783203c-0.5322266,0-0.9306641,0.2744141-1.1972656,0.8251953
				c-0.2666016,0.5498047-0.3994141,1.3710938-0.3994141,2.4638672c0,1.0273438,0.1259766,1.8144531,0.3779297,2.3603516s0.6142578,0.8193359,1.0849609,0.8193359c0.4306641,0,0.7714844-0.2587891,1.0234375-0.7763672s0.4023438-1.2685547,0.4511719-2.2548828
				h0.65625v3.59375z"/>
		</g>
		<path style="&st2;" d="M16.3286133,34.0561523h-5.0415039c0,0,0.7871094,0.1625977,2.9931641-1.9541016c2.2060547-2.1171875,2.0483398-3.2573242,2.0483398-3.2573242 M11.2871094,34.0561523c0,0,1.1025391-0.1625977,3.1508789,2.1171875
			c2.0483398,2.2802734,1.890625,3.0942383,1.890625,3.0942383v-5.2114258 M16.3286133,39.2675781c0,0-0.1577148-1.1396484,2.0483398-3.2568359s2.9936523-1.9545898,2.9936523-1.9545898h-5.0419922 M21.3706055,34.0561523
			c0,0-1.1030273,0.1630859-3.1508789-2.1171875c-2.0488281-2.2802734-1.8911133-3.0942383-1.8911133-3.0942383v5.2114258"/>
		<path style="&st2;" d="M150.7583008,208.1396484h5.0410156c0,0-0.7871094-0.1630859-2.9941406,1.9541016c-2.2050781,2.1171875-2.046875,3.2578125-2.046875,3.2578125 M155.7993164,208.1396484c0,0-1.1035156,0.1630859-3.1503906-2.1171875
			c-2.0488281-2.2802734-1.890625-3.0947266-1.890625-3.0947266v5.2119141 M150.7583008,202.9277344c0,0,0.15625,1.140625-2.0488281,3.2578125c-2.2060547,2.1171875-2.9941406,1.9541016-2.9941406,1.9541016h5.0429688 M145.715332,208.1396484
			c0,0,1.1035156-0.1630859,3.1513672,2.1171875s1.8916016,3.0947266,1.8916016,3.0947266v-5.2119141"/>
	</g>
</svg>
