<?xml version="1.0" encoding="utf-8"?>
<!-- Generator: Adobe Illustrator 9.0, SVG Export Plug-In  -->
<!DOCTYPE svg PUBLIC "-//W3C//DTD SVG 20000303 Stylable//EN"   "http://www.w3.org/TR/2000/03/WD-SVG-20000303/DTD/svg-20000303-stylable.dtd" [
	<!ENTITY st0 "fill:#FFFFFF;stroke-width:0.5;">
	<!ENTITY st1 "fill-rule:nonzero;clip-rule:nonzero;fill:#E61408;stroke:#000000;stroke-miterlimit:4;">
	<!ENTITY st2 "stroke:none;">
]>
<!-- This set of SVG files is a complete cards game with figures, numbers	-->
<!--    and backs of cards completely designed in SVG.				-->
<!--    									-->
<!--    Copyright (C) 2004 David Bellot						-->
<!--										-->
<!--    This library is free software; you can redistribute it and/or		-->
<!--    modify it under the terms of the GNU Lesser General Public		-->
<!--    License as published by the Free Software Foundation; either		-->
<!--    version 2 of the License, or (at your option) any later version		-->
<!--										-->
<!--    This library is distributed in the hope that it will be useful,		-->
<!--    but WITHOUT ANY WARRANTY; without even the implied warranty of		-->
<!--    MERCHANTABILITY or FITNESS FOR A PARTICULAR PURPOSE.  See the GNU	-->
<!--    Lesser General Public License for more details.				-->
<!--										-->
<!--    You should have received a copy of the GNU Lesser General Public	-->
<!--    License along with this library; if not, write to the Free Software	-->
<!--    Foundation, Inc., 59 Temple Place, Suite 330, Boston, MA 02111-1307  USA-->
<!--										-->
<!--    Contact the author David Bellot at bellot@stat.berkeley.edu or 		-->
<!--    david.bellot@free.fr or yimyom@users.sourceforge.net			-->
<svg  width="167.0864258pt" height="242.6650391pt" viewBox="0 0 167.0864258 242.6650391" xml:space="preserve">
	<g id="Layer_x0020_1" style="&st1;">
		<path style="&st0;" d="M166.8364258,235.5449219c0,3.7753906-3.0859375,6.8701172-6.8701172,6.8701172H7.1108398c-3.7749023,0-6.8608398-3.0947266-6.8608398-6.8701172V7.1201172C0.25,3.340332,3.3359375,0.25,7.1108398,0.25h152.8554688
			c3.7841797,0,6.8701172,3.090332,6.8701172,6.8701172v228.4248047z"/>
		<path style="&st2;" d="M48.3515625,29.2631836H32.7514648c0,0,2.4370117,0.503418,9.262207-6.046875c6.8251953-6.5507813,6.3378906-10.078125,6.3378906-10.078125 M32.7514648,29.2631836c0,0,3.4125977-0.5039063,9.7495117,6.5507813
			c6.3378906,7.0541992,5.8505859,9.5737305,5.8505859,9.5737305V29.2631836 M48.3515625,45.3876953c0,0-0.4873047-3.5273438,6.3378906-10.0776367c6.824707-6.5507813,9.2617188-6.046875,9.2617188-6.046875H48.3515625 M63.9511719,29.2631836
			c0,0-3.4121094,0.5039063-9.7495117-6.5507813s-5.8500977-9.5742188-5.8500977-9.5742188v16.125"/>
		<path style="&st2;" d="M117.5786133,12.9145508c0,0-0.4863281,3.5273438,6.3378906,10.078125c6.8261719,6.550293,9.2626953,6.046875,9.2626953,6.046875h-15.6005859 M117.5786133,29.0395508v16.125c0,0-0.4863281-2.5195313,5.8515625-9.5742188
			c6.3359375-7.0546875,9.7490234-6.5507813,9.7490234-6.5507813 M117.5786133,29.0395508h-15.5996094c0,0,2.4375-0.503418,9.2617188,6.046875c6.8261719,6.5507813,6.3378906,10.078125,6.3378906,10.078125 M117.5786133,29.0395508v-16.125
			c0,0,0.4882813,2.5195313-5.8496094,9.5742188s-9.75,6.5507813-9.75,6.5507813"/>
		<path style="&st2;" d="M48.0664063,227.9619141c0,0,0.4873047-3.5273438-6.3378906-10.078125c-6.8251953-6.5498047-9.262207-6.046875-9.262207-6.046875h15.6000977 M48.0664063,211.8369141v-16.1240234c0,0,0.4873047,2.5195313-5.8505859,9.5732422
			c-6.3369141,7.0546875-9.7495117,6.5507813-9.7495117,6.5507813 M48.0664063,211.8369141h15.5996094c0,0-2.4370117,0.5039063-9.2617188-6.046875c-6.8251953-6.5498047-6.3378906-10.0771484-6.3378906-10.0771484 M48.0664063,211.8369141v16.125
			c0,0-0.4873047-2.5195313,5.8500977-9.5742188s9.7495117-6.5507813,9.7495117-6.5507813"/>
		<path style="&st2;" d="M117.293457,212.0605469h15.6005859c0,0-2.4365234-0.5039063-9.2626953,6.046875c-6.8242188,6.5507813-6.3378906,10.078125-6.3378906,10.078125 M132.894043,212.0605469c0,0-3.4130859,0.5039063-9.7490234-6.5507813
			c-6.3378906-7.0546875-5.8515625-9.5742188-5.8515625-9.5742188v16.125 M117.293457,195.9355469c0,0,0.4882813,3.5273438-6.3378906,10.078125c-6.8242188,6.5507813-9.2617188,6.046875-9.2617188,6.046875h15.5996094 M101.6938477,212.0605469
			c0,0,3.4121094-0.5039063,9.75,6.5507813s5.8496094,9.5742188,5.8496094,9.5742188v-16.125"/>
		<g>
			<path style="&st2;" d="M17.9746094,25.9995117h-4.40625v-1.46875h1.1875v-3.28125h-3.375V19.859375l3.3745117-12.2348633h2.0317383v12.0625h1.375v1.5625h-1.375v3.28125h1.1875v1.46875z M14.7558594,19.6870117v-8.7626953l-2.409668,8.7626953h2.409668z"/>
		</g>
		<g>
			<path style="&st2;" d="M148.2475586,216.5810547h4.40625v1.46875h-1.1875v3.28125h3.375v1.3896484l-3.3740234,12.2353516h-2.0322266v-12.0625h-1.375v-1.5625h1.375v-3.28125h-1.1875v-1.46875z M151.4663086,222.8935547v8.7626953l2.4091797-8.7626953h-2.4091797z
				"/>
		</g>
		<path style="&st2;" d="M16.1308594,34.0561523h-5.0419922c0,0,0.7875977,0.1625977,2.9931641-1.9541016c2.2060547-2.1171875,2.0488281-3.2573242,2.0488281-3.2573242 M11.0888672,34.0561523c0,0,1.1025391-0.1625977,3.1508789,2.1171875
			c2.0483398,2.2802734,1.8911133,3.0942383,1.8911133,3.0942383v-5.2114258 M16.1308594,39.2675781c0,0-0.1577148-1.1396484,2.0478516-3.2568359c2.2060547-2.1171875,2.9936523-1.9545898,2.9936523-1.9545898h-5.0415039 M21.1723633,34.0561523
			c0,0-1.1030273,0.1630859-3.1508789-2.1171875c-2.0483398-2.2802734-1.890625-3.0942383-1.890625-3.0942383v5.2114258"/>
		<path style="&st2;" d="M150.559082,208.1396484h5.0429688c0,0-0.7890625-0.1630859-2.9941406,1.9541016c-2.2060547,2.1171875-2.0488281,3.2578125-2.0488281,3.2578125 M155.6020508,208.1396484c0,0-1.1035156,0.1630859-3.1523438-2.1171875
			c-2.046875-2.2802734-1.890625-3.0947266-1.890625-3.0947266v5.2119141 M150.559082,202.9277344c0,0,0.1582031,1.140625-2.0478516,3.2578125s-2.9931641,1.9541016-2.9931641,1.9541016h5.0410156 M145.5180664,208.1396484
			c0,0,1.1025391-0.1630859,3.1503906,2.1171875c2.0488281,2.2802734,1.890625,3.0947266,1.890625,3.0947266v-5.2119141"/>
	</g>
</svg>
