<?xml version="1.0" encoding="utf-8"?>
<!-- Generator: Adobe Illustrator 9.0, SVG Export Plug-In  -->
<!DOCTYPE svg PUBLIC "-//W3C//DTD SVG 20000303 Stylable//EN"   "http://www.w3.org/TR/2000/03/WD-SVG-20000303/DTD/svg-20000303-stylable.dtd" [
	<!ENTITY st0 "fill:#FFFFFF;stroke-width:0.5;">
	<!ENTITY st1 "fill-rule:nonzero;clip-rule:nonzero;stroke:#000000;stroke-miterlimit:4;">
	<!ENTITY st2 "stroke:none;">
]>
<!-- This set of SVG files is a complete cards game with figures, numbers	-->
<!--    and backs of cards completely designed in SVG.				-->
<!--    									-->
<!--    Copyright (C) 2004 David Bellot						-->
<!--										-->
<!--    This library is free software; you can redistribute it and/or		-->
<!--    modify it under the terms of the GNU Lesser General Public		-->
<!--    License as published by the Free Software Foundation; either		-->
<!--    version 2 of the License, or (at your option) any later version		-->
<!--										-->
<!--    This library is distributed in the hope that it will be useful,		-->
<!--    but WITHOUT ANY WARRANTY; without even the implied warranty of		-->
<!--    MERCHANTABILITY or FITNESS FOR A PARTICULAR PURPOSE.  See the GNU	-->
<!--    Lesser General Public License for more details.				-->
<!--										-->
<!--    You should have received a copy of the GNU Lesser General Public	-->
<!--    License along with this library; if not, write to the Free Software	-->
<!--    Foundation, Inc., 59 Temple Place, Suite 330, Boston, MA 02111-1307  USA-->
<!--										-->
<!--    Contact the author David Bellot at bellot@stat.berkeley.edu or 		-->
<!--    david.bellot@free.fr or yimyom@users.sourceforge.net			-->
<svg  width="167.0869141pt" height="242.6669922pt" viewBox="0 0 167.0869141 242.6669922" xml:space="preserve">
	<g id="Layer_x0020_1" style="&st1;">
		<path style="&st0;" d="M166.8369141,235.5478516c0,3.7792969-3.0859375,6.8691406-6.8710938,6.8691406H7.1108398c-3.7744141,0-6.8608398-3.0898438-6.8608398-6.8691406V7.1201172C0.25,3.3452148,3.3364258,0.25,7.1108398,0.25h152.8549805
			c3.7851563,0,6.8710938,3.0952148,6.8710938,6.8701172v228.4277344z"/>
		<g style="&st2;">
			<path d="M55.4946289,19.8359375c0,3.7753906-3.1538086,6.8339844-7.0454102,6.8339844c-3.8920898,0-7.0463867-3.0585938-7.0463867-6.8339844c0-3.7734375,3.1542969-6.8330078,7.0463867-6.8330078c3.8916016,0,7.0454102,3.0595703,7.0454102,6.8330078z"/>
			<path d="M64.5668945,32.7661133c0,3.7744141-3.1542969,6.8334961-7.0458984,6.8334961s-7.0458984-3.059082-7.0458984-6.8334961c0-3.7739258,3.1542969-6.8330078,7.0458984-6.8330078s7.0458984,3.059082,7.0458984,6.8330078z"/>
			<path d="M46.5249023,32.8164063c0,1.3823242-0.4228516,2.668457-1.1503906,3.7436523c-1.2587891,1.8608398-3.4296875,3.0893555-5.8964844,3.0893555c-3.8916016,0-7.0449219-3.0581055-7.0449219-6.8330078c0-3.7739258,3.1533203-6.8334961,7.0449219-6.8334961
				s7.046875,3.0595703,7.046875,6.8334961z"/>
			<g>
				<path d="M56.7128906,46.0795898c-3.4790039,0.0029297-5.309082-2.8271484-6.2700195-5.6567383c-0.9599609-2.8300781-1.050293-5.6611328-1.050293-5.6611328l-1.7758789-0.0141602c0,0-0.3330078,11.3242188-7.2900391,11.3295898l16.3862305,0.0024414z"/>
			</g>
			<g>
				<path d="M43.659668,24.8481445c3.9570313,3.9575195,3.9570313,9.8994141,3.9570313,9.8994141l1.7758789,0.0141602c0,0,0-6.0673828,3.8457031-9.9135742"/>
			</g>
			<g>
				<path d="M44.4516602,37.5649414c3.9570313-3.9570313,9.8989258-3.9570313,9.8989258-3.9570313l0.0141602-1.7758789c0,0-6.0673828,0-9.9130859-3.8461914"/>
			</g>
			<g>
				<path d="M52.3881836,37.5942383c-3.9575195-3.9570313-9.8994141-3.9570313-9.8994141-3.9570313l-0.0141602-1.7758789c0,0,6.0678711,0,9.9135742-3.8461914"/>
			</g>
		</g>
		<g style="&st2;">
			<path d="M125.9951172,19.8359375c0,3.7753906-3.1542969,6.8339844-7.0458984,6.8339844s-7.0458984-3.0585938-7.0458984-6.8339844c0-3.7734375,3.1542969-6.8330078,7.0458984-6.8330078s7.0458984,3.0595703,7.0458984,6.8330078z"/>
			<path d="M135.0673828,32.7661133c0,3.7744141-3.1542969,6.8334961-7.046875,6.8334961c-3.890625,0-7.0449219-3.059082-7.0449219-6.8334961c0-3.7739258,3.1542969-6.8330078,7.0449219-6.8330078c3.8925781,0,7.046875,3.059082,7.046875,6.8330078z"/>
			<path d="M117.0244141,32.8164063c0,1.3823242-0.421875,2.668457-1.1503906,3.7436523c-1.2578125,1.8608398-3.4296875,3.0893555-5.8964844,3.0893555c-3.890625,0-7.0449219-3.0581055-7.0449219-6.8330078c0-3.7739258,3.1542969-6.8334961,7.0449219-6.8334961
				c3.8925781,0,7.046875,3.0595703,7.046875,6.8334961z"/>
			<g>
				<path d="M127.2128906,46.0795898c-3.4794922,0.0029297-5.3095703-2.8271484-6.2705078-5.6567383c-0.9589844-2.8300781-1.0498047-5.6611328-1.0498047-5.6611328l-1.7763672-0.0141602c0,0-0.3320313,11.3242188-7.2890625,11.3295898l16.3857422,0.0024414z"/>
			</g>
			<g>
				<path d="M114.1591797,24.8481445c3.9570313,3.9575195,3.9570313,9.8994141,3.9570313,9.8994141l1.7763672,0.0141602c0,0,0-6.0673828,3.8457031-9.9135742"/>
			</g>
			<g>
				<path d="M114.9521484,37.5649414c3.9570313-3.9570313,9.8984375-3.9570313,9.8984375-3.9570313l0.0136719-1.7758789c0,0-6.0664063,0-9.9121094-3.8461914"/>
			</g>
			<g>
				<path d="M122.8876953,37.5942383c-3.9570313-3.9570313-9.8984375-3.9570313-9.8984375-3.9570313l-0.0146484-1.7758789c0,0,6.0673828,0,9.9130859-3.8461914"/>
			</g>
		</g>
		<g style="&st2;">
			<path d="M55.5151367,223.0732422c0-3.7753906-3.1538086-6.8339844-7.0454102-6.8339844s-7.0458984,3.0585938-7.0458984,6.8339844c0,3.7734375,3.1542969,6.8339844,7.0458984,6.8339844s7.0454102-3.0605469,7.0454102-6.8339844z"/>
			<path d="M64.5874023,210.1435547c0-3.7744141-3.1542969-6.8339844-7.0458984-6.8339844s-7.0458984,3.0595703-7.0458984,6.8339844c0,3.7734375,3.1542969,6.8330078,7.0458984,6.8330078s7.0458984-3.0595703,7.0458984-6.8330078z"/>
			<path d="M46.5454102,210.0927734c0-1.3818359-0.4228516-2.6679688-1.1503906-3.7431641c-1.2587891-1.8603516-3.4296875-3.0888672-5.8964844-3.0888672c-3.8916016,0-7.0449219,3.0576172-7.0449219,6.8320313s3.1533203,6.8339844,7.0449219,6.8339844
				c3.8920898,0,7.046875-3.0595703,7.046875-6.8339844z"/>
			<g>
				<path d="M40.347168,196.8330078c6.9570313,0.0048828,7.2900391,11.3291016,7.2900391,11.3291016l1.7758789-0.0146484c0,0,0.090332-2.8300781,1.050293-5.6601563c0.9609375-2.8300781,2.7910156-5.6601563,6.2705078-5.6572266l-16.3867188,0.0029297z"/>
			</g>
			<g>
				<path d="M43.6801758,218.0615234c3.9570313-3.9570313,3.9570313-9.8994141,3.9570313-9.8994141l1.7758789-0.0146484c0,0,0,6.0683594,3.8461914,9.9140625"/>
			</g>
			<g>
				<path d="M44.472168,205.3447266c3.9570313,3.9570313,9.8994141,3.9570313,9.8994141,3.9570313l0.0141602,1.7753906c0,0-6.0678711,0-9.9135742,3.8466797"/>
			</g>
			<g>
				<path d="M52.4086914,205.3154297c-3.9570313,3.9570313-9.8994141,3.9570313-9.8994141,3.9570313l-0.0141602,1.7753906c0,0,6.0678711,0,9.9135742,3.8466797"/>
			</g>
		</g>
		<g style="&st2;">
			<path d="M125.9667969,223.0732422c0-3.7753906-3.1533203-6.8339844-7.0458984-6.8339844c-3.890625,0-7.0449219,3.0585938-7.0449219,6.8339844c0,3.7734375,3.1542969,6.8339844,7.0449219,6.8339844c3.8925781,0,7.0458984-3.0605469,7.0458984-6.8339844z"/>
			<path d="M135.0400391,210.1435547c0-3.7744141-3.1542969-6.8339844-7.046875-6.8339844c-3.890625,0-7.0449219,3.0595703-7.0449219,6.8339844c0,3.7734375,3.1542969,6.8330078,7.0449219,6.8330078c3.8925781,0,7.046875-3.0595703,7.046875-6.8330078z"/>
			<path d="M116.9970703,210.0927734c0-1.3818359-0.421875-2.6679688-1.1503906-3.7431641c-1.2578125-1.8603516-3.4296875-3.0888672-5.8964844-3.0888672c-3.890625,0-7.0449219,3.0576172-7.0449219,6.8320313s3.1542969,6.8339844,7.0449219,6.8339844
				c3.8925781,0,7.046875-3.0595703,7.046875-6.8339844z"/>
			<g>
				<path d="M110.7998047,196.8330078c6.9570313,0.0048828,7.2890625,11.3291016,7.2890625,11.3291016l1.7753906-0.0146484c0,0,0.0908203-2.8300781,1.0507813-5.6601563c0.9609375-2.8300781,2.7910156-5.6601563,6.2705078-5.6572266l-16.3857422,0.0029297z"/>
			</g>
			<g>
				<path d="M114.1318359,218.0615234c3.9570313-3.9570313,3.9570313-9.8994141,3.9570313-9.8994141l1.7753906-0.0146484c0,0,0,6.0683594,3.8466797,9.9140625"/>
			</g>
			<g>
				<path d="M114.9238281,205.3447266c3.9580078,3.9570313,9.8994141,3.9570313,9.8994141,3.9570313l0.0136719,1.7753906c0,0-6.0664063,0-9.9130859,3.8466797"/>
			</g>
			<g>
				<path d="M122.8603516,205.3154297c-3.9570313,3.9570313-9.8984375,3.9570313-9.8984375,3.9570313l-0.0146484,1.7753906c0,0,6.0673828,0,9.9130859,3.8466797"/>
			</g>
		</g>
		<g>
			<path style="&st2;" d="M18.2236328,25.9985352h-4.40625v-1.46875h1.1875v-3.28125h-3.375v-1.3901367l3.3745117-12.2348633h2.0317383v12.0625h1.375v1.5625h-1.375v3.28125h1.1875v1.46875z M15.0048828,19.6860352v-8.7626953l-2.409668,8.7626953h2.409668z"/>
		</g>
		<g>
			<path style="&st2;" d="M148.4970703,216.5791016h4.40625v1.46875h-1.1875v3.28125h3.375v1.390625l-3.375,12.234375h-2.03125v-12.0625h-1.375v-1.5625h1.375v-3.28125h-1.1875v-1.46875z M151.7158203,222.8916016v8.7636719l2.4091797-8.7636719h-2.4091797z"/>
		</g>
		<g style="&st2;">
			<path d="M18.2509766,31.3300781c0,1.1342773-0.9477539,2.0537109-2.1166992,2.0537109c-1.1694336,0-2.1171875-0.9194336-2.1171875-2.0537109c0-1.1337891,0.9477539-2.0527344,2.1171875-2.0527344c1.1689453,0,2.1166992,0.9189453,2.1166992,2.0527344z"/>
			<path d="M20.9770508,35.215332c0,1.1337891-0.9482422,2.0527344-2.1171875,2.0527344c-1.1694336,0-2.1171875-0.9189453-2.1171875-2.0527344c0-1.1342773,0.9477539-2.0532227,2.1171875-2.0532227c1.1689453,0,2.1171875,0.9189453,2.1171875,2.0532227z"/>
			<path d="M15.5561523,35.2299805c0,0.4155273-0.1269531,0.8017578-0.3457031,1.125c-0.378418,0.559082-1.0302734,0.9282227-1.7714844,0.9282227c-1.1694336,0-2.1166992-0.9189453-2.1166992-2.0532227c0-1.1337891,0.9472656-2.0527344,2.1166992-2.0527344
				c1.1689453,0,2.1171875,0.9189453,2.1171875,2.0527344z"/>
			<g>
				<path d="M18.6171875,39.215332c-1.0454102,0.0004883-1.5952148-0.8496094-1.8842773-1.699707c-0.2880859-0.8500977-0.3154297-1.7006836-0.3154297-1.7006836l-0.5332031-0.0043945c0,0-0.1000977,3.4023438-2.1904297,3.4038086l4.9233398,0.0009766z"/>
			</g>
			<g>
				<path d="M14.6953125,32.8359375c1.1889648,1.1894531,1.1889648,2.9746094,1.1889648,2.9746094l0.5332031,0.0043945c0,0,0-1.8232422,1.1557617-2.9790039"/>
			</g>
			<g>
				<path d="M14.9331055,36.6567383c1.1889648-1.1884766,2.9741211-1.1884766,2.9741211-1.1884766l0.0043945-0.5336914c0,0-1.8232422,0-2.9785156-1.1557617"/>
			</g>
			<g>
				<path d="M17.3178711,36.6660156c-1.1889648-1.1889648-2.9746094-1.1889648-2.9746094-1.1889648l-0.0039063-0.5336914c0,0,1.8227539,0,2.9785156-1.1557617"/>
			</g>
		</g>
		<g style="&st2;">
			<path d="M148.3896484,210.9423828c0-1.1337891,0.9472656-2.0527344,2.1171875-2.0527344c1.1679688,0,2.1162109,0.9189453,2.1162109,2.0527344c0,1.1347656-0.9482422,2.0537109-2.1162109,2.0537109c-1.1699219,0-2.1171875-0.9189453-2.1171875-2.0537109z"/>
			<path d="M145.6630859,207.0576172c0-1.1328125,0.9482422-2.0527344,2.1171875-2.0527344c1.1699219,0,2.1171875,0.9199219,2.1171875,2.0527344c0,1.1347656-0.9472656,2.0537109-2.1171875,2.0537109c-1.1689453,0-2.1171875-0.9189453-2.1171875-2.0537109z"/>
			<path d="M151.0849609,207.0429688c0-0.4150391,0.1269531-0.8017578,0.3457031-1.1240234c0.3769531-0.5595703,1.0292969-0.9287109,1.7714844-0.9287109c1.1679688,0,2.1162109,0.9189453,2.1162109,2.0527344s-0.9482422,2.0537109-2.1162109,2.0537109
				c-1.1699219,0-2.1171875-0.9199219-2.1171875-2.0537109z"/>
			<g>
				<path d="M148.0234375,203.0576172c1.0458984,0,1.5947266,0.8496094,1.8837891,1.7001953s0.3154297,1.7001953,0.3154297,1.7001953l0.5341797,0.0048828c0,0,0.0996094-3.4023438,2.1894531-3.4033203l-4.9228516-0.0019531z"/>
			</g>
			<g>
				<path d="M151.9453125,209.4365234c-1.1884766-1.1884766-1.1884766-2.9736328-1.1884766-2.9736328l-0.5341797-0.0048828c0,0,0,1.8242188-1.1552734,2.9785156"/>
			</g>
			<g>
				<path d="M151.7080078,205.6162109c-1.1894531,1.1894531-2.9746094,1.1894531-2.9746094,1.1894531l-0.0039063,0.5332031c0,0,1.8222656,0,2.9785156,1.1552734"/>
			</g>
			<g>
				<path d="M149.3232422,205.6074219c1.1884766,1.1884766,2.9736328,1.1884766,2.9736328,1.1884766l0.0048828,0.5341797c0,0-1.8242188,0-2.9785156,1.1552734"/>
			</g>
		</g>
	</g>
</svg>
