<?xml version="1.0" encoding="utf-8"?>
<!-- Generator: Adobe Illustrator 9.0, SVG Export Plug-In  -->
<!DOCTYPE svg PUBLIC "-//W3C//DTD SVG 20000303 Stylable//EN"   "http://www.w3.org/TR/2000/03/WD-SVG-20000303/DTD/svg-20000303-stylable.dtd" [
	<!ENTITY st0 "fill:#FFFFFF;stroke-width:0.5;">
	<!ENTITY st1 "fill-rule:nonzero;clip-rule:nonzero;fill:#E61408;stroke:#000000;stroke-miterlimit:4;">
	<!ENTITY st2 "stroke:none;">
]>
<!-- This set of SVG files is a complete cards game with figures, numbers	-->
<!--    and backs of cards completely designed in SVG.				-->
<!--    									-->
<!--    Copyright (C) 2004 David Bellot						-->
<!--										-->
<!--    This library is free software; you can redistribute it and/or		-->
<!--    modify it under the terms of the GNU Lesser General Public		-->
<!--    License as published by the Free Software Foundation; either		-->
<!--    version 2 of the License, or (at your option) any later version		-->
<!--										-->
<!--    This library is distributed in the hope that it will be useful,		-->
<!--    but WITHOUT ANY WARRANTY; without even the implied warranty of		-->
<!--    MERCHANTABILITY or FITNESS FOR A PARTICULAR PURPOSE.  See the GNU	-->
<!--    Lesser General Public License for more details.				-->
<!--										-->
<!--    You should have received a copy of the GNU Lesser General Public	-->
<!--    License along with this library; if not, write to the Free Software	-->
<!--    Foundation, Inc., 59 Temple Place, Suite 330, Boston, MA 02111-1307  USA-->
<!--										-->
<!--    Contact the author David Bellot at bellot@stat.berkeley.edu or 		-->
<!--    david.bellot@free.fr or yimyom@users.sourceforge.net			-->
<svg  width="167.0869141pt" height="242.6669922pt" viewBox="0 0 167.0869141 242.6669922" xml:space="preserve">
	<g id="Layer_x0020_1" style="&st1;">
		<path style="&st0;" d="M166.8369141,235.5478516c0,3.7753906-3.0859375,6.8691406-6.8710938,6.8691406H7.1113281c-3.7749023,0-6.8613281-3.09375-6.8613281-6.8691406V7.1201172C0.25,3.3452148,3.3364258,0.25,7.1113281,0.25h152.8544922
			c3.7851563,0,6.8710938,3.0952148,6.8710938,6.8701172v228.4277344z"/>
		<g>
			<path style="&st2;" d="M33.1777344,21.9067383c0.0131836,9.5805664,12.0224609,16.5576172,15.5380859,24.1435547c3.546875-7.5678711,15.5917969-14.4824219,15.6542969-24.0629883c0.0268555-4.5175781-3.4707031-8.1938477-7.777832-8.203125
				c-4.3071289-0.0087891-7.8046875,3.6411133-7.8183594,8.1674805c0.0136719-4.5263672-3.4707031-8.1943359-7.777832-8.203125c-4.3071289-0.0180664-7.8051758,3.640625-7.8183594,8.1582031z"/>
		</g>
		<g>
			<path style="&st2;" d="M33.1777344,220.7607422c0.0131836-9.5800781,12.0224609-16.5488281,15.5380859-24.1425781c3.546875,7.5761719,15.5917969,14.4902344,15.6542969,24.0625c0.0268555,4.5263672-3.4707031,8.203125-7.777832,8.2109375
				c-4.3071289,0.0097656-7.8046875-3.6484375-7.8183594-8.1660156c0.0136719,4.5175781-3.4707031,8.1933594-7.777832,8.203125c-4.3071289,0.0078125-7.8051758-3.6416016-7.8183594-8.1679688z"/>
		</g>
		<g>
			<path style="&st2;" d="M133.9111328,21.9067383c-0.0136719,9.5805664-12.0234375,16.5576172-15.5380859,24.1435547c-3.546875-7.5678711-15.5917969-14.4824219-15.6542969-24.0629883c-0.0263672-4.5175781,3.4707031-8.1938477,7.7783203-8.203125
				c4.3066406-0.0087891,7.8046875,3.6411133,7.8183594,8.1674805c-0.0136719-4.5263672,3.4707031-8.1943359,7.7773438-8.203125c4.3066406-0.0180664,7.8046875,3.640625,7.8183594,8.1582031z"/>
		</g>
		<g>
			<path style="&st2;" d="M133.9111328,220.7607422c-0.0136719-9.5800781-12.0234375-16.5488281-15.5380859-24.1425781c-3.546875,7.5761719-15.5917969,14.4902344-15.6542969,24.0625c-0.0263672,4.5263672,3.4707031,8.203125,7.7783203,8.2109375
				c4.3066406,0.0097656,7.8046875-3.6484375,7.8183594-8.1660156c-0.0136719,4.5175781,3.4707031,8.1933594,7.7773438,8.203125c4.3066406,0.0078125,7.8046875-3.6416016,7.8183594-8.1679688z"/>
		</g>
		<g>
			<path style="&st2;" d="M18.2099609,26.0371094h-4.40625v-1.46875h1.1875v-3.28125h-3.375v-1.3901367l3.3745117-12.2348633h2.0317383v12.0625h1.375v1.5625h-1.375v3.28125h1.1875v1.46875z M14.9912109,19.7246094v-8.7626953l-2.409668,8.7626953h2.409668z"/>
		</g>
		<g>
			<path style="&st2;" d="M148.4833984,216.6181641h4.40625v1.46875h-1.1875v3.28125h3.375v1.390625l-3.375,12.234375h-2.03125v-12.0625h-1.375v-1.5625h1.375v-3.28125h-1.1875v-1.46875z M151.7021484,222.9306641v8.7636719l2.4091797-8.7636719h-2.4091797z"/>
		</g>
		<g>
			<path style="&st2;" d="M11.6049805,31.6108398c0.0029297,2.8735352,3.6064453,4.9667969,4.6601563,7.2431641c1.0649414-2.2709961,4.6787109-4.3457031,4.6962891-7.2197266c0.0083008-1.3564453-1.0410156-2.4580078-2.3330078-2.4614258
				s-2.3417969,1.0932617-2.3447266,2.449707c0.0029297-1.3564453-1.0415039-2.4584961-2.3334961-2.4614258c-1.2919922-0.003418-2.3417969,1.0927734-2.3452148,2.449707z"/>
		</g>
		<g>
			<path style="&st2;" d="M154.9824219,210.9082031c-0.0029297-2.8740234-3.6064453-4.9658203-4.6601563-7.2431641c-1.0654297,2.2714844-4.6787109,4.3457031-4.6962891,7.2197266c-0.0078125,1.3564453,1.0410156,2.4580078,2.3339844,2.4619141
				c1.2910156,0.0029297,2.3408203-1.09375,2.34375-2.4501953c-0.0029297,1.3564453,1.0410156,2.4580078,2.3339844,2.4619141c1.2910156,0.0029297,2.3417969-1.09375,2.3447266-2.4501953z"/>
		</g>
	</g>
</svg>
