<?xml version="1.0" encoding="utf-8"?>
<!-- Generator: Adobe Illustrator 9.0, SVG Export Plug-In  -->
<!DOCTYPE svg PUBLIC "-//W3C//DTD SVG 20000303 Stylable//EN"   "http://www.w3.org/TR/2000/03/WD-SVG-20000303/DTD/svg-20000303-stylable.dtd" [
	<!ENTITY st0 "fill:#FFFFFF;stroke-width:0.5;">
	<!ENTITY st1 "fill-rule:nonzero;clip-rule:nonzero;stroke:#000000;stroke-miterlimit:4;">
	<!ENTITY st2 "stroke:none;">
]>
<!-- This set of SVG files is a complete cards game with figures, numbers	-->
<!--    and backs of cards completely designed in SVG.				-->
<!--    									-->
<!--    Copyright (C) 2004 David Bellot						-->
<!--										-->
<!--    This library is free software; you can redistribute it and/or		-->
<!--    modify it under the terms of the GNU Lesser General Public		-->
<!--    License as published by the Free Software Foundation; either		-->
<!--    version 2 of the License, or (at your option) any later version		-->
<!--										-->
<!--    This library is distributed in the hope that it will be useful,		-->
<!--    but WITHOUT ANY WARRANTY; without even the implied warranty of		-->
<!--    MERCHANTABILITY or FITNESS FOR A PARTICULAR PURPOSE.  See the GNU	-->
<!--    Lesser General Public License for more details.				-->
<!--										-->
<!--    You should have received a copy of the GNU Lesser General Public	-->
<!--    License along with this library; if not, write to the Free Software	-->
<!--    Foundation, Inc., 59 Temple Place, Suite 330, Boston, MA 02111-1307  USA-->
<!--										-->
<!--    Contact the author David Bellot at bellot@stat.berkeley.edu or 		-->
<!--    david.bellot@free.fr or yimyom@users.sourceforge.net			-->
<svg  width="167.0864258pt" height="242.6669922pt" viewBox="0 0 167.0864258 242.6669922" xml:space="preserve">
	<g id="Layer_x0020_1" style="&st1;">
		<path style="&st0;" d="M166.8364258,235.5478516c0,3.7773438-3.0859375,6.8691406-6.8701172,6.8691406H7.1113281c-3.7753906,0-6.8613281-3.0917969-6.8613281-6.8691406V7.1196289C0.25,3.3427734,3.3359375,0.25,7.1113281,0.25h152.8549805
			c3.7841797,0,6.8701172,3.0927734,6.8701172,6.8696289v228.4282227z"/>
		<g style="&st2;">
			<g>
				<path d="M57.2089844,46.1113281c-3.4794922,0.0039063-5.3095703-3.706543-6.2700195-7.4160156c-0.9604492-3.7109375-1.0512695-7.4233398-1.0512695-7.4233398l-1.7753906-0.0175781c0,0-0.3325195,14.847168-7.2905273,14.8535156l16.387207,0.003418z"/>
			</g>
			<path d="M63.0966797,31.2685547c-0.03125-7.2426758-10.8730469-12.4951172-14.0576172-18.2265625c-3.1826172,5.7314453-14.0253906,10.9838867-14.0556641,18.2265625c-0.0146484,3.4199219,3.1464844,6.1899414,7.0283203,6.1899414
				c3.8808594,0,7.0273438-2.7700195,7.0273438-6.1899414c0,3.4199219,3.1474609,6.1899414,7.0292969,6.1899414s7.0283203-2.7700195,7.0283203-6.1899414z"/>
		</g>
		<g style="&st2;">
			<g>
				<path d="M126.6791992,46.1113281c-3.4794922,0.0039063-5.3095703-3.706543-6.2705078-7.4160156c-0.9589844-3.7109375-1.0507813-7.4233398-1.0507813-7.4233398l-1.7753906-0.0175781c0,0-0.3320313,14.847168-7.2910156,14.8535156l16.3876953,0.003418z"/>
			</g>
			<path d="M132.5668945,31.2685547c-0.03125-7.2426758-10.8730469-12.4951172-14.0576172-18.2265625c-3.1826172,5.7314453-14.0244141,10.9838867-14.0556641,18.2265625c-0.0136719,3.4199219,3.1464844,6.1899414,7.0292969,6.1899414
				c3.8808594,0,7.0263672-2.7700195,7.0263672-6.1899414c0,3.4199219,3.1474609,6.1899414,7.0302734,6.1899414c3.8808594,0,7.0273438-2.7700195,7.0273438-6.1899414z"/>
		</g>
		<g style="&st2;">
			<g>
				<path d="M40.5864258,196.7910156c6.9580078,0.0068359,7.2905273,14.8544922,7.2905273,14.8544922l1.7753906-0.0185547c0,0,0.0908203-3.7119141,1.0512695-7.4228516c0.9604492-3.7089844,2.7905273-7.4199219,6.2700195-7.4160156l-16.387207,0.0029297z"/>
			</g>
			<path d="M62.8613281,211.6298828c-0.03125,7.2431641-10.8730469,12.4960938-14.0576172,18.2275391c-3.1826172-5.7314453-14.0253906-10.984375-14.0556641-18.2275391c-0.0141602-3.4189453,3.1464844-6.1894531,7.0283203-6.1894531
				c3.8813477,0,7.0273438,2.7705078,7.0273438,6.1894531c0-3.4189453,3.1474609-6.1894531,7.0292969-6.1894531s7.0283203,2.7705078,7.0283203,6.1894531z"/>
		</g>
		<g style="&st2;">
			<g>
				<path d="M110.2915039,196.7910156c6.9570313,0.0068359,7.2900391,14.8544922,7.2900391,14.8544922l1.7744141-0.0185547c0,0,0.0917969-3.7119141,1.0527344-7.4228516c0.9599609-3.7089844,2.7900391-7.4199219,6.2695313-7.4160156l-16.3867188,0.0029297z"/>
			</g>
			<path d="M132.5649414,211.6298828c-0.0302734,7.2431641-10.8730469,12.4960938-14.0566406,18.2275391c-3.1826172-5.7314453-14.0253906-10.984375-14.0566406-18.2275391c-0.0136719-3.4189453,3.1464844-6.1894531,7.0292969-6.1894531
				c3.8808594,0,7.0273438,2.7705078,7.0273438,6.1894531c0-3.4189453,3.1474609-6.1894531,7.0292969-6.1894531c3.8808594,0,7.0273438,2.7705078,7.0273438,6.1894531z"/>
		</g>
		<g>
			<path style="&st2;" d="M18.359375,25.7885742h-4.40625v-1.46875h1.1875v-3.28125h-3.375v-1.3901367l3.3740234-12.2348633h2.0322266v12.0625h1.375v1.5625h-1.375v3.28125h1.1875v1.46875z M15.140625,19.4760742v-8.7626953l-2.4101563,8.7626953h2.4101563z"/>
		</g>
		<g>
			<path style="&st2;" d="M148.6313477,216.3701172h4.40625v1.46875h-1.1875v3.28125h3.375v1.390625l-3.3730469,12.234375h-2.0332031v-12.0625h-1.375v-1.5625h1.375v-3.28125h-1.1875v-1.46875z M151.8500977,222.6826172v8.7617188l2.4101563-8.7617188h-2.4101563z"
				/>
		</g>
		<g style="&st2;">
			<g>
				<path d="M19.15625,39.2822266c-1.0947266,0.0009766-1.6708984-1.1669922-1.9736328-2.3349609c-0.3022461-1.168457-0.3310547-2.3374023-0.3310547-2.3374023l-0.5585938-0.0053711c0,0-0.1049805,4.6743164-2.2958984,4.6767578l5.1591797,0.0009766z"/>
			</g>
			<path d="M21.0102539,34.6088867c-0.0092773-2.2802734-3.4233398-3.934082-4.4257813-5.7382813c-1.0019531,1.8041992-4.4155273,3.4580078-4.425293,5.7382813c-0.0048828,1.0766602,0.9902344,1.9492188,2.2128906,1.9492188
				c1.2216797,0,2.2124023-0.8725586,2.2124023-1.9492188c0,1.0766602,0.9907227,1.9492188,2.2133789,1.9492188c1.2216797,0,2.2124023-0.8725586,2.2124023-1.9492188z"/>
		</g>
		<g style="&st2;">
			<g>
				<path d="M148.1430664,202.9482422c1.0947266,0,1.6708984,1.1679688,1.9726563,2.3359375c0.3027344,1.1679688,0.3320313,2.3369141,0.3320313,2.3369141l0.5585938,0.0048828c0,0,0.1054688-4.6738281,2.2949219-4.6757813l-5.1582031-0.0019531z"/>
			</g>
			<path d="M146.2895508,207.6220703c0.0087891,2.2802734,3.421875,3.9335938,4.4257813,5.7382813c1.0019531-1.8046875,4.4150391-3.4580078,4.4248047-5.7382813c0.0048828-1.0761719-0.9912109-1.9492188-2.2138672-1.9492188
				c-1.2207031,0-2.2109375,0.8730469-2.2109375,1.9492188c0-1.0761719-0.9921875-1.9492188-2.2138672-1.9492188s-2.2119141,0.8730469-2.2119141,1.9492188z"/>
		</g>
	</g>
</svg>
