<?xml version="1.0" encoding="utf-8"?>
<!-- Generator: Adobe Illustrator 9.0, SVG Export Plug-In  -->
<!DOCTYPE svg PUBLIC "-//W3C//DTD SVG 20000303 Stylable//EN"   "http://www.w3.org/TR/2000/03/WD-SVG-20000303/DTD/svg-20000303-stylable.dtd" [
	<!ENTITY st0 "fill:#FFFFFF;stroke-width:0.5;">
	<!ENTITY st1 "fill-rule:nonzero;clip-rule:nonzero;stroke:#000000;stroke-miterlimit:4;">
	<!ENTITY st2 "stroke:none;">
]>
<!-- This set of SVG files is a complete cards game with figures, numbers	-->
<!--    and backs of cards completely designed in SVG.				-->
<!--    									-->
<!--    Copyright (C) 2004 David Bellot						-->
<!--										-->
<!--    This library is free software; you can redistribute it and/or		-->
<!--    modify it under the terms of the GNU Lesser General Public		-->
<!--    License as published by the Free Software Foundation; either		-->
<!--    version 2 of the License, or (at your option) any later version		-->
<!--										-->
<!--    This library is distributed in the hope that it will be useful,		-->
<!--    but WITHOUT ANY WARRANTY; without even the implied warranty of		-->
<!--    MERCHANTABILITY or FITNESS FOR A PARTICULAR PURPOSE.  See the GNU	-->
<!--    Lesser General Public License for more details.				-->
<!--										-->
<!--    You should have received a copy of the GNU Lesser General Public	-->
<!--    License along with this library; if not, write to the Free Software	-->
<!--    Foundation, Inc., 59 Temple Place, Suite 330, Boston, MA 02111-1307  USA-->
<!--										-->
<!--    Contact the author David Bellot at bellot@stat.berkeley.edu or 		-->
<!--    david.bellot@free.fr or yimyom@users.sourceforge.net			-->
<svg  width="167.0869141pt" height="242.6669922pt" viewBox="0 0 167.0869141 242.6669922" xml:space="preserve">
	<g id="Layer_x0020_1" style="&st1;">
		<path style="&st0;" d="M166.8369141,235.5478516c0,3.7773438-3.0859375,6.8691406-6.8710938,6.8691406H7.1108398c-3.7744141,0-6.8608398-3.0917969-6.8608398-6.8691406V7.1196289C0.25,3.3427734,3.3364258,0.25,7.1108398,0.25h152.8549805
			c3.7851563,0,6.8710938,3.0927734,6.8710938,6.8696289v228.4282227z"/>
		<g style="&st2;">
			<g>
				<path d="M57.0991211,46.1113281c-3.4790039,0.0039063-5.3095703-3.706543-6.2695313-7.4160156c-0.9604492-3.7109375-1.0517578-7.4233398-1.0517578-7.4233398l-1.7749023-0.0175781c0,0-0.3325195,14.847168-7.2905273,14.8535156l16.3867188,0.003418z"/>
			</g>
			<path d="M62.9868164,31.2685547c-0.03125-7.2426758-10.8730469-12.4951172-14.0576172-18.2265625c-3.1821289,5.7314453-14.0253906,10.9838867-14.0556641,18.2265625c-0.0141602,3.4199219,3.1464844,6.1899414,7.0283203,6.1899414
				c3.8813477,0,7.0273438-2.7700195,7.0273438-6.1899414c0,3.4199219,3.1479492,6.1899414,7.0292969,6.1899414c3.8818359,0,7.0283203-2.7700195,7.0283203-6.1899414z"/>
		</g>
		<g style="&st2;">
			<g>
				<path d="M126.5693359,46.1113281c-3.4785156,0.0039063-5.3085938-3.706543-6.2695313-7.4160156c-0.9609375-3.7109375-1.0507813-7.4233398-1.0507813-7.4233398l-1.7753906-0.0175781c0,0-0.3330078,14.847168-7.2910156,14.8535156l16.3867188,0.003418z"/>
			</g>
			<path d="M132.4580078,31.2685547c-0.03125-7.2426758-10.8730469-12.4951172-14.0585938-18.2265625c-3.1816406,5.7314453-14.0253906,10.9838867-14.0546875,18.2265625c-0.015625,3.4199219,3.1464844,6.1899414,7.0273438,6.1899414
				s7.0273438-2.7700195,7.0273438-6.1899414c0,3.4199219,3.1484375,6.1899414,7.0292969,6.1899414c3.8828125,0,7.0292969-2.7700195,7.0292969-6.1899414z"/>
		</g>
		<g style="&st2;">
			<g>
				<path d="M93.5888672,137.5693359c-3.4785156,0.0039063-5.3095703-3.7070313-6.2695313-7.4160156c-0.9609375-3.7109375-1.0517578-7.4238281-1.0517578-7.4238281l-1.7744141-0.0175781c0,0-0.3339844,14.8476563-7.2915039,14.8535156l16.387207,0.0039063z"/>
			</g>
			<path d="M99.4755859,122.7265625c-0.0302734-7.2426758-10.8730469-12.4956055-14.0566406-18.2270508c-3.1821289,5.7314453-14.0253906,10.984375-14.0561523,18.2270508c-0.0136719,3.4189453,3.1469727,6.1904297,7.0288086,6.1904297
				c3.8813477,0,7.0273438-2.7714844,7.0273438-6.1904297c0,3.4189453,3.1484375,6.1904297,7.0292969,6.1904297c3.8818359,0,7.0273438-2.7714844,7.0273438-6.1904297z"/>
		</g>
		<g style="&st2;">
			<g>
				<path d="M40.7109375,196.7910156c6.9580078,0.0068359,7.2905273,14.8544922,7.2905273,14.8544922l1.7753906-0.0185547c0,0,0.0908203-3.7119141,1.0512695-7.4228516c0.9604492-3.7089844,2.7905273-7.4199219,6.2695313-7.4160156l-16.3867188,0.0029297z"/>
			</g>
			<path d="M62.9853516,211.6298828c-0.0307617,7.2431641-10.8730469,12.4960938-14.0576172,18.2275391c-3.1821289-5.7314453-14.0249023-10.984375-14.0556641-18.2275391c-0.0136719-3.4189453,3.1469727-6.1894531,7.0288086-6.1894531
				c3.8813477,0,7.0268555,2.7705078,7.0268555,6.1894531c0-3.4189453,3.1479492-6.1894531,7.0297852-6.1894531s7.027832,2.7705078,7.027832,6.1894531z"/>
		</g>
		<g style="&st2;">
			<g>
				<path d="M110.4150391,196.7910156c6.9580078,0.0068359,7.2910156,14.8544922,7.2910156,14.8544922l1.7753906-0.0185547c0,0,0.0908203-3.7119141,1.0507813-7.4228516c0.9609375-3.7089844,2.7910156-7.4199219,6.2695313-7.4160156l-16.3867188,0.0029297z"/>
			</g>
			<path d="M132.6904297,211.6298828c-0.03125,7.2431641-10.8730469,12.4960938-14.0585938,18.2275391c-3.1816406-5.7314453-14.0253906-10.984375-14.0546875-18.2275391c-0.0146484-3.4189453,3.1464844-6.1894531,7.0273438-6.1894531
				c3.8818359,0,7.0273438,2.7705078,7.0273438,6.1894531c0-3.4189453,3.1484375-6.1894531,7.0292969-6.1894531c3.8828125,0,7.0292969,2.7705078,7.0292969,6.1894531z"/>
		</g>
		<g>
			<path style="&st2;" d="M17.394043,7.7573242v3.15625h-4.28125v3.9746094c0.2402344-0.4145508,0.5048828-0.7275391,0.793457-0.9389648c0.2885742-0.2109375,0.5932617-0.3168945,0.9140625-0.3168945c0.9941406,0,1.7753906,0.5620117,2.3447266,1.6850586
				s0.8540039,2.6508789,0.8540039,4.5830078c0,1.9648438-0.2856445,3.4946289-0.8569336,4.5893555c-0.5712891,1.0952148-1.3759766,1.6425781-2.4135742,1.6425781c-0.4345703,0-0.8691406-0.081543-1.3037109-0.2436523
				c-0.4345703-0.1625977-0.8886719-0.4145508-1.3632813-0.7563477v-3.9375h0.65625c0.0239258,1.1894531,0.1630859,2.0751953,0.4169922,2.6577148s0.6264648,0.8735352,1.1176758,0.8735352c0.5317383,0,0.9243164-0.3959961,1.1782227-1.1884766
				s0.3808594-2.0014648,0.3808594-3.6264648c0-1.6005859-0.1245117-2.7973633-0.3735352-3.5898438s-0.6264648-1.1889648-1.1323242-1.1889648c-0.2734375,0-0.5161133,0.1264648-0.7290039,0.3789063c-0.2128906,0.2529297-0.4116211,0.6435547-0.5961914,1.1728516
				H12.456543V7.7573242h4.9375z"/>
		</g>
		<g>
			<path style="&st2;" d="M149.2919922,234.4013672v-3.15625h4.28125v-3.9746094c-0.2402344,0.4140625-0.5048828,0.7265625-0.7929688,0.9394531c-0.2890625,0.2109375-0.59375,0.3164063-0.9140625,0.3164063c-0.9941406,0-1.7753906-0.5625-2.3457031-1.6855469
				c-0.5683594-1.1230469-0.8535156-2.6503906-0.8535156-4.5820313c0-1.9648438,0.2851563-3.4960938,0.8574219-4.5898438c0.5703125-1.0957031,1.375-1.6425781,2.4130859-1.6425781c0.4345703,0,0.8691406,0.0820313,1.3037109,0.2441406
				s0.8886719,0.4140625,1.3632813,0.7558594v3.9375h-0.65625c-0.0234375-1.1894531-0.1630859-2.0761719-0.4169922-2.6582031s-0.6259766-0.8730469-1.1181641-0.8730469c-0.53125,0-0.9238281,0.3964844-1.1777344,1.1875
				c-0.2539063,0.7929688-0.3808594,2.0019531-0.3808594,3.6269531c0,1.6015625,0.125,2.796875,0.3730469,3.5898438c0.25,0.7929688,0.6269531,1.1894531,1.1328125,1.1894531c0.2734375,0,0.515625-0.1269531,0.7285156-0.3789063
				c0.2128906-0.2539063,0.4121094-0.6445313,0.5966797-1.1738281h0.5439453v8.9277344h-4.9375z"/>
		</g>
		<g style="&st2;">
			<g>
				<path d="M19.0039063,39.2822266c-1.0952148,0.0009766-1.6713867-1.1669922-1.9741211-2.3349609c-0.3017578-1.168457-0.3305664-2.3374023-0.3305664-2.3374023l-0.559082-0.0053711c0,0-0.1044922,4.6743164-2.2954102,4.6767578l5.1591797,0.0009766z"/>
			</g>
			<path d="M20.8579102,34.6088867c-0.0097656-2.2802734-3.4233398-3.934082-4.4257813-5.7382813c-1.0019531,1.8041992-4.4160156,3.4580078-4.4257813,5.7382813c-0.0043945,1.0766602,0.9907227,1.9492188,2.2128906,1.9492188
				s2.2128906-0.8725586,2.2128906-1.9492188c0,1.0766602,0.9907227,1.9492188,2.2128906,1.9492188s2.2128906-0.8725586,2.2128906-1.9492188z"/>
		</g>
		<g style="&st2;">
			<g>
				<path d="M147.9902344,202.9482422c1.0947266,0,1.6708984,1.1679688,1.9736328,2.3359375s0.3310547,2.3369141,0.3310547,2.3369141l0.5595703,0.0048828c0,0,0.1035156-4.6738281,2.2949219-4.6757813l-5.1591797-0.0019531z"/>
			</g>
			<path d="M146.1357422,207.6220703c0.0097656,2.2802734,3.4238281,3.9335938,4.4257813,5.7382813c1.0019531-1.8046875,4.4160156-3.4580078,4.4257813-5.7382813c0.0048828-1.0761719-0.9902344-1.9492188-2.2128906-1.9492188
				c-1.2216797,0-2.2128906,0.8730469-2.2128906,1.9492188c0-1.0761719-0.9902344-1.9492188-2.2128906-1.9492188c-1.2216797,0-2.2128906,0.8730469-2.2128906,1.9492188z"/>
		</g>
	</g>
</svg>
