<?xml version="1.0" encoding="utf-8"?>
<!-- Generator: Adobe Illustrator 9.0, SVG Export Plug-In  -->
<!DOCTYPE svg PUBLIC "-//W3C//DTD SVG 20000303 Stylable//EN"   "http://www.w3.org/TR/2000/03/WD-SVG-20000303/DTD/svg-20000303-stylable.dtd" [
	<!ENTITY st0 "fill:#FFFFFF;stroke-width:0.5;">
	<!ENTITY st1 "fill-rule:nonzero;clip-rule:nonzero;fill:#E61408;stroke:#000000;stroke-miterlimit:4;">
	<!ENTITY st2 "stroke:none;">
]>
<!-- This set of SVG files is a complete cards game with figures, numbers	-->
<!--    and backs of cards completely designed in SVG.				-->
<!--    									-->
<!--    Copyright (C) 2004 David Bellot						-->
<!--										-->
<!--    This library is free software; you can redistribute it and/or		-->
<!--    modify it under the terms of the GNU Lesser General Public		-->
<!--    License as published by the Free Software Foundation; either		-->
<!--    version 2 of the License, or (at your option) any later version		-->
<!--										-->
<!--    This library is distributed in the hope that it will be useful,		-->
<!--    but WITHOUT ANY WARRANTY; without even the implied warranty of		-->
<!--    MERCHANTABILITY or FITNESS FOR A PARTICULAR PURPOSE.  See the GNU	-->
<!--    Lesser General Public License for more details.				-->
<!--										-->
<!--    You should have received a copy of the GNU Lesser General Public	-->
<!--    License along with this library; if not, write to the Free Software	-->
<!--    Foundation, Inc., 59 Temple Place, Suite 330, Boston, MA 02111-1307  USA-->
<!--										-->
<!--    Contact the author David Bellot at bellot@stat.berkeley.edu or 		-->
<!--    david.bellot@free.fr or yimyom@users.sourceforge.net			-->
<svg  width="167.0864258pt" height="242.6650391pt" viewBox="0 0 167.0864258 242.6650391" xml:space="preserve">
	<g id="Layer_x0020_1" style="&st1;">
		<path style="&st0;" d="M166.8364258,235.5449219c0,3.7753906-3.0859375,6.8701172-6.8701172,6.8701172H7.1108398c-3.7749023,0-6.8608398-3.0947266-6.8608398-6.8701172V7.1201172C0.25,3.340332,3.3359375,0.25,7.1108398,0.25h152.8554688
			c3.7841797,0,6.8701172,3.090332,6.8701172,6.8701172v228.4248047z"/>
		<path style="&st2;" d="M48.3115234,29.2631836H32.7114258c0,0,2.4370117,0.503418,9.262207-6.046875c6.8251953-6.5507813,6.3378906-10.078125,6.3378906-10.078125 M32.7114258,29.2631836c0,0,3.4125977-0.5039063,9.7495117,6.5507813
			c6.3378906,7.0541992,5.8505859,9.5737305,5.8505859,9.5737305V29.2631836 M48.3115234,45.3876953c0,0-0.4873047-3.5273438,6.3378906-10.0776367c6.824707-6.5507813,9.2617188-6.046875,9.2617188-6.046875H48.3115234 M63.9111328,29.2631836
			c0,0-3.4121094,0.5039063-9.7495117-6.5507813s-5.8500977-9.5742188-5.8500977-9.5742188v16.125"/>
		<path style="&st2;" d="M117.5395508,12.9145508c0,0-0.4882813,3.5273438,6.3378906,10.078125c6.8242188,6.550293,9.2617188,6.046875,9.2617188,6.046875h-15.5996094 M117.5395508,29.0395508v16.125c0,0-0.4882813-2.5195313,5.8496094-9.5742188
			s9.75-6.5507813,9.75-6.5507813 M117.5395508,29.0395508h-15.5996094c0,0,2.4365234-0.503418,9.2617188,6.046875c6.8242188,6.5507813,6.3378906,10.078125,6.3378906,10.078125 M117.5395508,29.0395508v-16.125c0,0,0.4863281,2.5195313-5.8505859,9.5742188
			s-9.7490234,6.5507813-9.7490234,6.5507813"/>
		<path style="&st2;" d="M48.0263672,227.9619141c0,0,0.4873047-3.5273438-6.3378906-10.078125c-6.8251953-6.5498047-9.262207-6.046875-9.262207-6.046875h15.6000977 M48.0263672,211.8369141v-16.1240234c0,0,0.4873047,2.5195313-5.8505859,9.5732422
			c-6.3369141,7.0546875-9.7495117,6.5507813-9.7495117,6.5507813 M48.0263672,211.8369141h15.5996094c0,0-2.4370117,0.5039063-9.2617188-6.046875c-6.8251953-6.5498047-6.3378906-10.0771484-6.3378906-10.0771484 M48.0263672,211.8369141v16.125
			c0,0-0.4873047-2.5195313,5.8500977-9.5742188s9.7495117-6.5507813,9.7495117-6.5507813"/>
		<path style="&st2;" d="M117.2543945,212.0605469h15.5996094c0,0-2.4375-0.5039063-9.2617188,6.046875c-6.8261719,6.5507813-6.3378906,10.078125-6.3378906,10.078125 M132.8540039,212.0605469c0,0-3.4121094,0.5039063-9.75-6.5507813
			s-5.8496094-9.5742188-5.8496094-9.5742188v16.125 M117.2543945,195.9355469c0,0,0.4863281,3.5273438-6.3378906,10.078125c-6.8251953,6.5507813-9.2617188,6.046875-9.2617188,6.046875h15.5996094 M101.6547852,212.0605469
			c0,0,3.4121094-0.5039063,9.7490234,6.5507813s5.8505859,9.5742188,5.8505859,9.5742188v-16.125"/>
		<path style="&st2;" d="M85.097168,121.3251953H69.4975586c0,0,2.4370117,0.503418,9.262207-6.046875c6.824707-6.5507813,6.3374023-10.078125,6.3374023-10.078125 M69.4975586,121.3251953c0,0,3.4121094-0.5039063,9.7495117,6.5507813
			s5.8500977,9.5742188,5.8500977,9.5742188v-16.125 M85.097168,137.4501953c0,0-0.4873047-3.5273438,6.3378906-10.078125c6.8251953-6.550293,9.2626953-6.046875,9.2626953-6.046875H85.097168 M100.6977539,121.3251953c0,0-3.4130859,0.5039063-9.75-6.5507813
			c-6.3378906-7.0546875-5.8505859-9.5742188-5.8505859-9.5742188v16.125"/>
		<g>
			<path style="&st2;" d="M17.2045898,7.9682617v3.15625h-4.28125v3.9746094c0.2402344-0.4145508,0.5048828-0.7275391,0.793457-0.9389648c0.2885742-0.2109375,0.5932617-0.3168945,0.9140625-0.3168945c0.9941406,0,1.7753906,0.5620117,2.3447266,1.6850586
				s0.8540039,2.6508789,0.8540039,4.5830078c0,1.9648438-0.2856445,3.4946289-0.8569336,4.5893555c-0.5712891,1.0952148-1.3759766,1.6425781-2.4135742,1.6425781c-0.4345703,0-0.8691406-0.081543-1.3037109-0.2436523
				c-0.4345703-0.1625977-0.8886719-0.4145508-1.3632813-0.7563477v-3.9375h0.65625c0.0239258,1.1894531,0.1630859,2.0751953,0.4169922,2.6577148s0.6264648,0.8735352,1.1176758,0.8735352c0.5317383,0,0.9243164-0.3959961,1.1782227-1.1884766
				s0.3808594-2.0014648,0.3808594-3.6264648c0-1.6005859-0.1245117-2.7973633-0.3735352-3.5898438s-0.6264648-1.1889648-1.1323242-1.1889648c-0.2734375,0-0.5161133,0.1264648-0.7290039,0.3789063c-0.2128906,0.2529297-0.4116211,0.6435547-0.5961914,1.1728516
				h-0.5439453V7.9682617h4.9375z"/>
		</g>
		<g>
			<path style="&st2;" d="M149.1020508,234.6123047v-3.15625h4.28125v-3.9746094c-0.2402344,0.4150391-0.5039063,0.7275391-0.7929688,0.9384766s-0.59375,0.3173828-0.9140625,0.3173828c-0.9941406,0-1.7753906-0.5615234-2.3447266-1.6845703
				s-0.8544922-2.6513672-0.8544922-4.5839844c0-1.9648438,0.2861328-3.4941406,0.8574219-4.5888672s1.3759766-1.6425781,2.4140625-1.6425781c0.4335938,0,0.8691406,0.0810547,1.3027344,0.2431641c0.4355469,0.1630859,0.8886719,0.4150391,1.3632813,0.7568359
				v3.9375h-0.65625c-0.0234375-1.1894531-0.1621094-2.0751953-0.4160156-2.6572266c-0.2539063-0.5830078-0.6269531-0.8740234-1.1181641-0.8740234c-0.5322266,0-0.9248047,0.3955078-1.1787109,1.1884766s-0.3808594,2.0019531-0.3808594,3.6269531
				c0,1.5996094,0.125,2.796875,0.3740234,3.5898438c0.2490234,0.7919922,0.6259766,1.1884766,1.1318359,1.1884766c0.2734375,0,0.5166016-0.1259766,0.7294922-0.3789063s0.4111328-0.6435547,0.5966797-1.1728516h0.5429688v8.9267578h-4.9375z"/>
		</g>
		<path style="&st2;" d="M16.1728516,34.0561523h-5.0415039c0,0,0.7875977,0.1625977,2.9936523-1.9541016c2.2055664-2.1171875,2.0478516-3.2573242,2.0478516-3.2573242 M11.1313477,34.0561523c0,0,1.1030273-0.1625977,3.1508789,2.1171875
			c2.0483398,2.2802734,1.890625,3.0942383,1.890625,3.0942383v-5.2114258 M16.1728516,39.2675781c0,0-0.1572266-1.1396484,2.0483398-3.2568359c2.2060547-2.1171875,2.9936523-1.9545898,2.9936523-1.9545898h-5.0419922 M21.2148438,34.0561523
			c0,0-1.1025391,0.1630859-3.1508789-2.1171875s-1.8911133-3.0942383-1.8911133-3.0942383v5.2114258"/>
		<path style="&st2;" d="M150.6020508,208.1396484h5.0419922c0,0-0.7880859-0.1630859-2.9931641,1.9541016c-2.2070313,2.1171875-2.0488281,3.2578125-2.0488281,3.2578125 M155.644043,208.1396484c0,0-1.1025391,0.1630859-3.1513672-2.1171875
			c-2.0478516-2.2802734-1.890625-3.0947266-1.890625-3.0947266v5.2119141 M150.6020508,202.9277344c0,0,0.1582031,1.140625-2.0488281,3.2578125c-2.2050781,2.1171875-2.9931641,1.9541016-2.9931641,1.9541016h5.0419922 M145.5600586,208.1396484
			c0,0,1.1025391-0.1630859,3.1513672,2.1171875s1.890625,3.0947266,1.890625,3.0947266v-5.2119141"/>
	</g>
</svg>
