<?xml version="1.0" encoding="utf-8"?>
<!-- Generator: Adobe Illustrator 9.0, SVG Export Plug-In  -->
<!DOCTYPE svg PUBLIC "-//W3C//DTD SVG 20000303 Stylable//EN"   "http://www.w3.org/TR/2000/03/WD-SVG-20000303/DTD/svg-20000303-stylable.dtd" [
	<!ENTITY st0 "fill:#FFFFFF;stroke-width:0.5;">
	<!ENTITY st1 "fill-rule:nonzero;clip-rule:nonzero;fill:#E61408;stroke:#000000;stroke-miterlimit:4;">
	<!ENTITY st2 "stroke:none;">
]>
<!-- This set of SVG files is a complete cards game with figures, numbers	-->
<!--    and backs of cards completely designed in SVG.				-->
<!--    									-->
<!--    Copyright (C) 2004 David Bellot						-->
<!--										-->
<!--    This library is free software; you can redistribute it and/or		-->
<!--    modify it under the terms of the GNU Lesser General Public		-->
<!--    License as published by the Free Software Foundation; either		-->
<!--    version 2 of the License, or (at your option) any later version		-->
<!--										-->
<!--    This library is distributed in the hope that it will be useful,		-->
<!--    but WITHOUT ANY WARRANTY; without even the implied warranty of		-->
<!--    MERCHANTABILITY or FITNESS FOR A PARTICULAR PURPOSE.  See the GNU	-->
<!--    Lesser General Public License for more details.				-->
<!--										-->
<!--    You should have received a copy of the GNU Lesser General Public	-->
<!--    License along with this library; if not, write to the Free Software	-->
<!--    Foundation, Inc., 59 Temple Place, Suite 330, Boston, MA 02111-1307  USA-->
<!--										-->
<!--    Contact the author David Bellot at bellot@stat.berkeley.edu or 		-->
<!--    david.bellot@free.fr or yimyom@users.sourceforge.net			-->
<svg  width="167.0878906pt" height="242.6669922pt" viewBox="0 0 167.0878906 242.6669922" xml:space="preserve">
	<g id="Layer_x0020_1" style="&st1;">
		<path style="&st0;" d="M166.8378906,235.5478516c0,3.7753906-3.0859375,6.8691406-6.8691406,6.8691406H7.1108398c-3.7744141,0-6.8608398-3.09375-6.8608398-6.8691406V7.1201172C0.25,3.3452148,3.3364258,0.25,7.1108398,0.25H159.96875
			c3.7832031,0,6.8691406,3.0952148,6.8691406,6.8701172v228.4277344z"/>
		<g>
			<path style="&st2;" d="M69.8178711,113.5068359c0.0131836,9.5800781,12.0224609,16.5576172,15.5375977,24.1425781c3.546875-7.5664063,15.5917969-14.4824219,15.6542969-24.0620117c0.0273438-4.5175781-3.4707031-8.1938477-7.7773438-8.203125
				c-4.3076172-0.0087891-7.8046875,3.640625-7.8183594,8.1669922c0.0136719-4.5263672-3.4711914-8.1938477-7.777832-8.2026367c-4.3076172-0.0180664-7.8051758,3.640625-7.8183594,8.1582031z"/>
		</g>
		<g>
			<path style="&st2;" d="M33.1777344,21.9067383c0.0131836,9.5805664,12.0224609,16.5576172,15.5380859,24.1435547c3.546875-7.5678711,15.5917969-14.4824219,15.6542969-24.0629883c0.0268555-4.5175781-3.4707031-8.1938477-7.777832-8.203125
				c-4.3076172-0.0087891-7.8046875,3.6411133-7.8183594,8.1674805c0.0136719-4.5263672-3.4707031-8.1943359-7.777832-8.203125c-4.3071289-0.0180664-7.8051758,3.640625-7.8183594,8.1582031z"/>
		</g>
		<g>
			<path style="&st2;" d="M33.1777344,220.7607422c0.0131836-9.5800781,12.0224609-16.5488281,15.5380859-24.1425781c3.546875,7.5761719,15.5917969,14.4902344,15.6542969,24.0625c0.0268555,4.5263672-3.4707031,8.203125-7.777832,8.2109375
				c-4.3076172,0.0097656-7.8046875-3.6484375-7.8183594-8.1660156c0.0136719,4.5175781-3.4707031,8.1933594-7.777832,8.203125c-4.3071289,0.0078125-7.8051758-3.6416016-7.8183594-8.1679688z"/>
		</g>
		<g>
			<path style="&st2;" d="M133.9101563,21.9067383c-0.0126953,9.5805664-12.0214844,16.5576172-15.5371094,24.1435547c-3.546875-7.5678711-15.5917969-14.4824219-15.6542969-24.0629883c-0.0273438-4.5175781,3.4707031-8.1938477,7.7773438-8.203125
				c4.3076172-0.0087891,7.8046875,3.6411133,7.8183594,8.1674805c-0.0136719-4.5263672,3.4707031-8.1943359,7.7783203-8.203125c4.3076172-0.0180664,7.8046875,3.640625,7.8173828,8.1582031z"/>
		</g>
		<g>
			<path style="&st2;" d="M133.9101563,220.7607422c-0.0126953-9.5800781-12.0214844-16.5488281-15.5371094-24.1425781c-3.546875,7.5761719-15.5917969,14.4902344-15.6542969,24.0625c-0.0273438,4.5263672,3.4707031,8.203125,7.7773438,8.2109375
				c4.3076172,0.0097656,7.8046875-3.6484375,7.8183594-8.1660156c-0.0136719,4.5175781,3.4707031,8.1933594,7.7783203,8.203125c4.3076172,0.0078125,7.8046875-3.6416016,7.8173828-8.1679688z"/>
		</g>
		<g>
			<path style="&st2;" d="M17.3374023,8.0058594v3.15625h-4.28125v3.9746094c0.2402344-0.4145508,0.5048828-0.7275391,0.793457-0.9389648c0.2885742-0.2109375,0.5932617-0.3168945,0.9140625-0.3168945c0.9941406,0,1.7753906,0.5620117,2.3447266,1.6850586
				s0.8540039,2.6508789,0.8540039,4.5830078c0,1.9648438-0.2856445,3.4946289-0.8569336,4.5893555c-0.5712891,1.0952148-1.3759766,1.6425781-2.4135742,1.6425781c-0.4345703,0-0.8691406-0.081543-1.3037109-0.2436523
				c-0.4345703-0.1625977-0.8886719-0.4145508-1.3632813-0.7563477v-3.9375h0.65625c0.0239258,1.1894531,0.1630859,2.0751953,0.4169922,2.6577148s0.6264648,0.8735352,1.1176758,0.8735352c0.5317383,0,0.9243164-0.3959961,1.1782227-1.1884766
				s0.3808594-2.0014648,0.3808594-3.6264648c0-1.6005859-0.1245117-2.7973633-0.3735352-3.5898438s-0.6264648-1.1889648-1.1323242-1.1889648c-0.2734375,0-0.5161133,0.1264648-0.7290039,0.3789063c-0.2128906,0.2529297-0.4116211,0.6435547-0.5961914,1.1728516
				h-0.5439453V8.0058594h4.9375z"/>
		</g>
		<g>
			<path style="&st2;" d="M149.2353516,234.6494141v-3.15625h4.28125v-3.9746094c-0.2402344,0.4140625-0.5048828,0.7275391-0.7939453,0.9394531c-0.2880859,0.2109375-0.5927734,0.3164063-0.9140625,0.3164063c-0.9941406,0-1.7753906-0.5625-2.34375-1.6855469
				c-0.5703125-1.1230469-0.8544922-2.6503906-0.8544922-4.5820313c0-1.9648438,0.2861328-3.4951172,0.8564453-4.5898438c0.5722656-1.0957031,1.3769531-1.6425781,2.4140625-1.6425781c0.4345703,0,0.8691406,0.0820313,1.3037109,0.2441406
				s0.8886719,0.4140625,1.3632813,0.7558594v3.9375h-0.65625c-0.0244141-1.1894531-0.1630859-2.0751953-0.4169922-2.6582031c-0.2539063-0.5820313-0.6269531-0.8730469-1.1171875-0.8730469c-0.5322266,0-0.9248047,0.3964844-1.1787109,1.1884766
				s-0.3808594,2.0009766-0.3808594,3.6259766c0,1.6015625,0.1240234,2.7978516,0.3740234,3.5898438c0.2480469,0.7929688,0.6259766,1.1894531,1.1318359,1.1894531c0.2734375,0,0.5166016-0.1269531,0.7294922-0.3789063
				c0.2128906-0.2529297,0.4111328-0.6435547,0.5957031-1.1728516h0.5439453v8.9267578h-4.9375z"/>
		</g>
		<g>
			<path style="&st2;" d="M11.5454102,31.6108398c0.0029297,2.8735352,3.605957,4.9663086,4.659668,7.2426758c1.0649414-2.2709961,4.6791992-4.3457031,4.6962891-7.2192383c0.0083008-1.3569336-1.0410156-2.4580078-2.3330078-2.4614258
				s-2.3413086,1.0927734-2.3447266,2.449707c0.003418-1.3569336-1.0415039-2.4584961-2.3334961-2.4619141c-1.2919922-0.0029297-2.3417969,1.0932617-2.3447266,2.4501953z"/>
		</g>
		<g>
			<path style="&st2;" d="M154.921875,210.9082031c-0.0019531-2.8740234-3.6054688-4.9667969-4.6601563-7.2431641c-1.0644531,2.2714844-4.6777344,4.3457031-4.6953125,7.2197266c-0.0078125,1.3564453,1.0410156,2.4580078,2.3330078,2.4619141
				c1.2919922,0.0029297,2.3408203-1.09375,2.3447266-2.4501953c-0.0039063,1.3564453,1.0410156,2.4580078,2.3330078,2.4619141c1.2919922,0.0029297,2.3427734-1.09375,2.3447266-2.4501953z"/>
		</g>
	</g>
</svg>
