<?xml version="1.0" encoding="utf-8"?>
<!-- Generator: Adobe Illustrator 9.0, SVG Export Plug-In  -->
<!DOCTYPE svg PUBLIC "-//W3C//DTD SVG 20000303 Stylable//EN"   "http://www.w3.org/TR/2000/03/WD-SVG-20000303/DTD/svg-20000303-stylable.dtd" [
	<!ENTITY st0 "fill:#FFFFFF;stroke-width:0.5;">
	<!ENTITY st1 "fill-rule:nonzero;clip-rule:nonzero;stroke:#000000;stroke-miterlimit:4;">
	<!ENTITY st2 "stroke:none;">
]>
<!-- This set of SVG files is a complete cards game with figures, numbers	-->
<!--    and backs of cards completely designed in SVG.				-->
<!--    									-->
<!--    Copyright (C) 2004 David Bellot						-->
<!--										-->
<!--    This library is free software; you can redistribute it and/or		-->
<!--    modify it under the terms of the GNU Lesser General Public		-->
<!--    License as published by the Free Software Foundation; either		-->
<!--    version 2 of the License, or (at your option) any later version		-->
<!--										-->
<!--    This library is distributed in the hope that it will be useful,		-->
<!--    but WITHOUT ANY WARRANTY; without even the implied warranty of		-->
<!--    MERCHANTABILITY or FITNESS FOR A PARTICULAR PURPOSE.  See the GNU	-->
<!--    Lesser General Public License for more details.				-->
<!--										-->
<!--    You should have received a copy of the GNU Lesser General Public	-->
<!--    License along with this library; if not, write to the Free Software	-->
<!--    Foundation, Inc., 59 Temple Place, Suite 330, Boston, MA 02111-1307  USA-->
<!--										-->
<!--    Contact the author David Bellot at bellot@stat.berkeley.edu or 		-->
<!--    david.bellot@free.fr or yimyom@users.sourceforge.net			-->
<svg  width="167.0869141pt" height="242.6674805pt" viewBox="0 0 167.0869141 242.6674805" xml:space="preserve">
	<g id="Layer_x0020_1" style="&st1;">
		<path style="&st0;" d="M166.8369141,235.5473633c0,3.7802734-3.0859375,6.8701172-6.8710938,6.8701172H7.1108398c-3.7744141,0-6.8608398-3.0898438-6.8608398-6.8701172V7.1201172C0.25,3.3452148,3.3364258,0.25,7.1108398,0.25h152.8549805
			c3.7851563,0,6.8710938,3.0952148,6.8710938,6.8701172v228.4272461z"/>
		<g style="&st2;">
			<path d="M55.4946289,19.918457c0,3.7753906-3.1538086,6.8339844-7.0454102,6.8339844c-3.8920898,0-7.0463867-3.0585938-7.0463867-6.8339844c0-3.7734375,3.1542969-6.8330078,7.0463867-6.8330078c3.8916016,0,7.0454102,3.0595703,7.0454102,6.8330078z"/>
			<path d="M64.5668945,32.8486328c0,3.7744141-3.1542969,6.8334961-7.0458984,6.8334961s-7.0458984-3.059082-7.0458984-6.8334961c0-3.7739258,3.1542969-6.8330078,7.0458984-6.8330078s7.0458984,3.059082,7.0458984,6.8330078z"/>
			<path d="M46.5249023,32.8989258c0,1.3823242-0.4228516,2.668457-1.1503906,3.7436523c-1.2587891,1.8608398-3.4296875,3.0893555-5.8964844,3.0893555c-3.8916016,0-7.0449219-3.0581055-7.0449219-6.8330078c0-3.7739258,3.1533203-6.8334961,7.0449219-6.8334961
				s7.046875,3.0595703,7.046875,6.8334961z"/>
			<g>
				<path d="M56.7128906,46.1621094c-3.4790039,0.0029297-5.309082-2.8271484-6.2700195-5.6567383c-0.9599609-2.8300781-1.050293-5.6611328-1.050293-5.6611328l-1.7758789-0.0141602c0,0-0.3330078,11.3242188-7.2900391,11.3295898l16.3862305,0.0024414z"/>
			</g>
			<g>
				<path d="M43.659668,24.9306641c3.9570313,3.9575195,3.9570313,9.8994141,3.9570313,9.8994141l1.7758789,0.0141602c0,0,0-6.0673828,3.8457031-9.9135742"/>
			</g>
			<g>
				<path d="M44.4516602,37.6474609c3.9570313-3.9570313,9.8989258-3.9570313,9.8989258-3.9570313l0.0141602-1.7758789c0,0-6.0673828,0-9.9130859-3.8461914"/>
			</g>
			<g>
				<path d="M52.3881836,37.6767578c-3.9575195-3.9570313-9.8994141-3.9570313-9.8994141-3.9570313l-0.0141602-1.7758789c0,0,6.0678711,0,9.9135742-3.8461914"/>
			</g>
		</g>
		<g style="&st2;">
			<path d="M125.9951172,19.918457c0,3.7753906-3.1542969,6.8339844-7.0458984,6.8339844s-7.0458984-3.0585938-7.0458984-6.8339844c0-3.7734375,3.1542969-6.8330078,7.0458984-6.8330078s7.0458984,3.0595703,7.0458984,6.8330078z"/>
			<path d="M135.0673828,32.8486328c0,3.7744141-3.1542969,6.8334961-7.046875,6.8334961c-3.890625,0-7.0449219-3.059082-7.0449219-6.8334961c0-3.7739258,3.1542969-6.8330078,7.0449219-6.8330078c3.8925781,0,7.046875,3.059082,7.046875,6.8330078z"/>
			<path d="M117.0244141,32.8989258c0,1.3823242-0.421875,2.668457-1.1503906,3.7436523c-1.2578125,1.8608398-3.4296875,3.0893555-5.8964844,3.0893555c-3.890625,0-7.0449219-3.0581055-7.0449219-6.8330078c0-3.7739258,3.1542969-6.8334961,7.0449219-6.8334961
				c3.8925781,0,7.046875,3.0595703,7.046875,6.8334961z"/>
			<g>
				<path d="M127.2128906,46.1621094c-3.4794922,0.0029297-5.3095703-2.8271484-6.2705078-5.6567383c-0.9589844-2.8300781-1.0498047-5.6611328-1.0498047-5.6611328l-1.7763672-0.0141602c0,0-0.3320313,11.3242188-7.2890625,11.3295898l16.3857422,0.0024414z"/>
			</g>
			<g>
				<path d="M114.1591797,24.9306641c3.9570313,3.9575195,3.9570313,9.8994141,3.9570313,9.8994141l1.7763672,0.0141602c0,0,0-6.0673828,3.8457031-9.9135742"/>
			</g>
			<g>
				<path d="M114.9521484,37.6474609c3.9570313-3.9570313,9.8984375-3.9570313,9.8984375-3.9570313l0.0136719-1.7758789c0,0-6.0664063,0-9.9121094-3.8461914"/>
			</g>
			<g>
				<path d="M122.8876953,37.6767578c-3.9570313-3.9570313-9.8984375-3.9570313-9.8984375-3.9570313l-0.0146484-1.7758789c0,0,6.0673828,0,9.9130859-3.8461914"/>
			</g>
		</g>
		<g style="&st2;">
			<path d="M93.4951172,111.668457c0,3.7753906-3.1542969,6.8339844-7.0458984,6.8339844c-3.8920898,0-7.0463867-3.0585938-7.0463867-6.8339844c0-3.7734375,3.1542969-6.8330078,7.0463867-6.8330078c3.8916016,0,7.0458984,3.0595703,7.0458984,6.8330078z"/>
			<path d="M102.5673828,124.5991211c0,3.7734375-3.1542969,6.8330078-7.046875,6.8330078c-3.890625,0-7.0449219-3.0595703-7.0449219-6.8330078c0-3.7744141,3.1542969-6.8334961,7.0449219-6.8334961c3.8925781,0,7.046875,3.059082,7.046875,6.8334961z"/>
			<path d="M84.5244141,124.6489258c0,1.3818359-0.421875,2.6689453-1.1499023,3.7431641c-1.2587891,1.8613281-3.4296875,3.0898438-5.8964844,3.0898438c-3.8916016,0-7.0449219-3.0585938-7.0449219-6.8330078c0-3.7739258,3.1533203-6.8334961,7.0449219-6.8334961
				s7.0463867,3.0595703,7.0463867,6.8334961z"/>
			<g>
				<path d="M94.7128906,137.9116211c-3.4794922,0.0039063-5.3095703-2.8261719-6.2705078-5.65625c-0.9589844-2.8300781-1.0498047-5.6611328-1.0498047-5.6611328l-1.7763672-0.0146484c0,0-0.3320313,11.3242188-7.2895508,11.3300781l16.3862305,0.0019531z"/>
			</g>
			<g>
				<path d="M81.659668,116.6806641c3.956543,3.9575195,3.956543,9.8989258,3.956543,9.8989258l1.7763672,0.0146484c0,0,0-6.0673828,3.8457031-9.9135742"/>
			</g>
			<g>
				<path d="M82.4516602,129.3979492c3.9575195-3.9570313,9.8989258-3.9570313,9.8989258-3.9570313l0.0136719-1.7763672c0,0-6.0664063,0-9.9125977-3.8461914"/>
			</g>
			<g>
				<path d="M90.3876953,129.4272461c-3.9570313-3.9570313-9.8989258-3.9570313-9.8989258-3.9570313l-0.0141602-1.7763672c0,0,6.0673828,0,9.9130859-3.8461914"/>
			</g>
		</g>
		<g style="&st2;">
			<path d="M55.4350586,223.1557617c0-3.7753906-3.1533203-6.8339844-7.0449219-6.8339844s-7.0458984,3.0585938-7.0458984,6.8339844c0,3.7734375,3.1542969,6.8339844,7.0458984,6.8339844s7.0449219-3.0605469,7.0449219-6.8339844z"/>
			<path d="M64.5078125,210.2260742c0-3.7744141-3.1542969-6.8339844-7.0458984-6.8339844s-7.0458984,3.0595703-7.0458984,6.8339844c0,3.7734375,3.1542969,6.8330078,7.0458984,6.8330078s7.0458984-3.0595703,7.0458984-6.8330078z"/>
			<path d="M46.4658203,210.175293c0-1.3818359-0.4228516-2.6679688-1.1503906-3.7431641c-1.2587891-1.8603516-3.4296875-3.0888672-5.8964844-3.0888672c-3.8916016,0-7.0449219,3.0576172-7.0449219,6.8320313s3.1533203,6.8339844,7.0449219,6.8339844
				c3.8920898,0,7.046875-3.0595703,7.046875-6.8339844z"/>
			<g>
				<path d="M40.2675781,196.9155273c6.9570313,0.0048828,7.2900391,11.3291016,7.2900391,11.3291016l1.7758789-0.0146484c0,0,0.0898438-2.8300781,1.050293-5.6601563c0.9609375-2.8300781,2.7910156-5.6601563,6.2700195-5.6572266l-16.3862305,0.0029297z"/>
			</g>
			<g>
				<path d="M43.6000977,218.144043c3.9575195-3.9570313,3.9575195-9.8994141,3.9575195-9.8994141l1.7758789-0.0146484c0,0,0,6.0683594,3.8457031,9.9140625"/>
			</g>
			<g>
				<path d="M44.3920898,205.4272461c3.9575195,3.9570313,9.8994141,3.9570313,9.8994141,3.9570313l0.0146484,1.7753906c0,0-6.0678711,0-9.9140625,3.8466797"/>
			</g>
			<g>
				<path d="M52.3291016,205.3979492c-3.9575195,3.9570313-9.8994141,3.9570313-9.8994141,3.9570313l-0.0141602,1.7753906c0,0,6.0673828,0,9.9135742,3.8466797"/>
			</g>
		</g>
		<g style="&st2;">
			<path d="M125.8876953,223.1557617c0-3.7753906-3.1542969-6.8339844-7.0449219-6.8339844c-3.8925781,0-7.046875,3.0585938-7.046875,6.8339844c0,3.7734375,3.1542969,6.8339844,7.046875,6.8339844c3.890625,0,7.0449219-3.0605469,7.0449219-6.8339844z"/>
			<path d="M134.9599609,210.2260742c0-3.7744141-3.1542969-6.8339844-7.0458984-6.8339844s-7.0458984,3.0595703-7.0458984,6.8339844c0,3.7734375,3.1542969,6.8330078,7.0458984,6.8330078s7.0458984-3.0595703,7.0458984-6.8330078z"/>
			<path d="M116.9179688,210.175293c0-1.3818359-0.4228516-2.6679688-1.1503906-3.7431641c-1.2587891-1.8603516-3.4296875-3.0888672-5.8964844-3.0888672c-3.8916016,0-7.0458984,3.0576172-7.0458984,6.8320313s3.1542969,6.8339844,7.0458984,6.8339844
				s7.046875-3.0595703,7.046875-6.8339844z"/>
			<g>
				<path d="M110.7197266,196.9155273c6.9570313,0.0048828,7.2900391,11.3291016,7.2900391,11.3291016l1.7763672-0.0146484c0,0,0.0898438-2.8300781,1.0498047-5.6601563c0.9609375-2.8300781,2.7910156-5.6601563,6.2705078-5.6572266l-16.3867188,0.0029297z"/>
			</g>
			<g>
				<path d="M114.0517578,218.144043c3.9580078-3.9570313,3.9580078-9.8994141,3.9580078-9.8994141l1.7763672-0.0146484c0,0,0,6.0683594,3.8457031,9.9140625"/>
			</g>
			<g>
				<path d="M114.8447266,205.4272461c3.9570313,3.9570313,9.8984375,3.9570313,9.8984375,3.9570313l0.0146484,1.7753906c0,0-6.0673828,0-9.9130859,3.8466797"/>
			</g>
			<g>
				<path d="M122.78125,205.3979492c-3.9580078,3.9570313-9.8994141,3.9570313-9.8994141,3.9570313l-0.0136719,1.7753906c0,0,6.0664063,0,9.9130859,3.8466797"/>
			</g>
		</g>
		<g>
			<path style="&st2;" d="M17.3740234,7.8017578v3.15625h-4.28125v3.9746094c0.2402344-0.4145508,0.5048828-0.7275391,0.793457-0.9389648c0.2885742-0.2109375,0.5932617-0.3168945,0.9140625-0.3168945c0.9941406,0,1.7753906,0.5620117,2.3447266,1.6850586
				s0.8540039,2.6508789,0.8540039,4.5830078c0,1.9648438-0.2856445,3.4946289-0.8569336,4.5893555c-0.5712891,1.0952148-1.3759766,1.6425781-2.4135742,1.6425781c-0.4345703,0-0.8691406-0.081543-1.3037109-0.2436523
				c-0.4345703-0.1625977-0.8886719-0.4145508-1.3632813-0.7563477v-3.9375h0.65625c0.0239258,1.1894531,0.1630859,2.0751953,0.4169922,2.6577148s0.6264648,0.8735352,1.1176758,0.8735352c0.5317383,0,0.9243164-0.3959961,1.1782227-1.1884766
				s0.3808594-2.0014648,0.3808594-3.6264648c0-1.6005859-0.1245117-2.7973633-0.3735352-3.5898438s-0.6264648-1.1889648-1.1323242-1.1889648c-0.2734375,0-0.5161133,0.1264648-0.7290039,0.3789063c-0.2128906,0.2529297-0.4116211,0.6435547-0.5961914,1.1728516
				h-0.5439453V7.8017578h4.9375z"/>
		</g>
		<g>
			<path style="&st2;" d="M149.2724609,234.4448242v-3.15625h4.28125v-3.9746094c-0.2402344,0.4150391-0.5058594,0.7285156-0.7939453,0.9394531s-0.5927734,0.3164063-0.9140625,0.3164063c-0.9941406,0-1.7753906-0.5615234-2.3447266-1.6845703
				s-0.8535156-2.6513672-0.8535156-4.5830078c0-1.9648438,0.2851563-3.4941406,0.8564453-4.5898438c0.5712891-1.0947266,1.3759766-1.6425781,2.4130859-1.6425781c0.4355469,0,0.8691406,0.0820313,1.3046875,0.2441406
				c0.4335938,0.1621094,0.8886719,0.4140625,1.3632813,0.7558594v3.9375h-0.65625c-0.0244141-1.1894531-0.1640625-2.0742188-0.4179688-2.6572266s-0.6259766-0.8740234-1.1171875-0.8740234c-0.53125,0-0.9238281,0.3964844-1.1777344,1.1894531
				c-0.2539063,0.7919922-0.3808594,2.0009766-0.3808594,3.6259766c0,1.6005859,0.1240234,2.7978516,0.3730469,3.5898438s0.6269531,1.1884766,1.1328125,1.1884766c0.2734375,0,0.515625-0.1259766,0.7285156-0.3789063
				c0.2128906-0.2519531,0.4121094-0.6425781,0.5957031-1.171875h0.5449219v8.9257813h-4.9375z"/>
		</g>
		<g style="&st2;">
			<path d="M18.2138672,31.1645508c0,1.1342773-0.9477539,2.0537109-2.1166992,2.0537109c-1.1694336,0-2.1171875-0.9194336-2.1171875-2.0537109c0-1.1337891,0.9477539-2.0527344,2.1171875-2.0527344c1.1689453,0,2.1166992,0.9189453,2.1166992,2.0527344z"/>
			<path d="M20.9399414,35.0498047c0,1.1337891-0.9482422,2.0527344-2.1171875,2.0527344c-1.1694336,0-2.1171875-0.9189453-2.1171875-2.0527344c0-1.1342773,0.9477539-2.0532227,2.1171875-2.0532227c1.1689453,0,2.1171875,0.9189453,2.1171875,2.0532227z"/>
			<path d="M15.519043,35.0644531c0,0.4155273-0.1269531,0.8017578-0.3457031,1.125c-0.378418,0.559082-1.0302734,0.9282227-1.7714844,0.9282227c-1.1694336,0-2.1166992-0.9189453-2.1166992-2.0532227c0-1.1337891,0.9472656-2.0527344,2.1166992-2.0527344
				c1.1689453,0,2.1171875,0.9189453,2.1171875,2.0527344z"/>
			<g>
				<path d="M18.5800781,39.0498047c-1.0454102,0.0004883-1.5952148-0.8496094-1.8842773-1.699707C16.4077148,36.5,16.3803711,35.6494141,16.3803711,35.6494141l-0.5332031-0.0043945c0,0-0.1000977,3.4023438-2.1904297,3.4038086l4.9233398,0.0009766z"/>
			</g>
			<g>
				<path d="M14.6582031,32.6704102c1.1889648,1.1894531,1.1889648,2.9746094,1.1889648,2.9746094l0.5332031,0.0043945c0,0,0-1.8232422,1.1557617-2.9790039"/>
			</g>
			<g>
				<path d="M14.8959961,36.4912109c1.1889648-1.1884766,2.9741211-1.1884766,2.9741211-1.1884766l0.0043945-0.5336914c0,0-1.8232422,0-2.9785156-1.1557617"/>
			</g>
			<g>
				<path d="M17.2807617,36.5004883c-1.1889648-1.1889648-2.9746094-1.1889648-2.9746094-1.1889648l-0.0039063-0.5336914c0,0,1.8227539,0,2.9785156-1.1557617"/>
			</g>
		</g>
		<g style="&st2;">
			<path d="M148.3525391,210.7768555c0-1.1337891,0.9472656-2.0527344,2.1171875-2.0527344c1.1679688,0,2.1162109,0.9189453,2.1162109,2.0527344c0,1.1347656-0.9482422,2.0537109-2.1162109,2.0537109c-1.1699219,0-2.1171875-0.9189453-2.1171875-2.0537109z"/>
			<path d="M145.6259766,206.8920898c0-1.1328125,0.9482422-2.0527344,2.1171875-2.0527344c1.1699219,0,2.1171875,0.9199219,2.1171875,2.0527344c0,1.1347656-0.9472656,2.0537109-2.1171875,2.0537109c-1.1689453,0-2.1171875-0.9189453-2.1171875-2.0537109z"/>
			<path d="M151.0478516,206.8774414c0-0.4150391,0.1269531-0.8017578,0.3447266-1.1240234c0.3779297-0.5595703,1.0302734-0.9287109,1.7724609-0.9287109c1.1679688,0,2.1162109,0.9189453,2.1162109,2.0527344s-0.9482422,2.0537109-2.1162109,2.0537109
				c-1.1699219,0-2.1171875-0.9199219-2.1171875-2.0537109z"/>
			<g>
				<path d="M147.9863281,202.8920898c1.0449219,0,1.5947266,0.8496094,1.8837891,1.7001953s0.3154297,1.7001953,0.3154297,1.7001953l0.5341797,0.0048828c0,0,0.0996094-3.4023438,2.1894531-3.4033203l-4.9228516-0.0019531z"/>
			</g>
			<g>
				<path d="M151.9082031,209.2709961c-1.1884766-1.1884766-1.1884766-2.9736328-1.1884766-2.9736328l-0.5341797-0.0048828c0,0,0,1.8242188-1.1552734,2.9785156"/>
			</g>
			<g>
				<path d="M151.6699219,205.4506836c-1.1884766,1.1894531-2.9736328,1.1894531-2.9736328,1.1894531l-0.0048828,0.5332031c0,0,1.8232422,0,2.9785156,1.1552734"/>
			</g>
			<g>
				<path d="M149.2861328,205.4418945c1.1884766,1.1884766,2.9736328,1.1884766,2.9736328,1.1884766l0.0048828,0.5341797c0,0-1.8242188,0-2.9785156,1.1552734"/>
			</g>
		</g>
	</g>
</svg>
