<?xml version="1.0" encoding="utf-8"?>
<!-- Generator: Adobe Illustrator 9.0, SVG Export Plug-In  -->
<!DOCTYPE svg PUBLIC "-//W3C//DTD SVG 20000303 Stylable//EN"   "http://www.w3.org/TR/2000/03/WD-SVG-20000303/DTD/svg-20000303-stylable.dtd" [
	<!ENTITY st0 "fill:#FFFFFF;stroke-width:0.5;">
	<!ENTITY st1 "fill-rule:nonzero;clip-rule:nonzero;stroke:#000000;stroke-miterlimit:4;">
	<!ENTITY st2 "stroke:none;">
]>
<!-- This set of SVG files is a complete cards game with figures, numbers	-->
<!--    and backs of cards completely designed in SVG.				-->
<!--    									-->
<!--    Copyright (C) 2004 David Bellot						-->
<!--										-->
<!--    This library is free software; you can redistribute it and/or		-->
<!--    modify it under the terms of the GNU Lesser General Public		-->
<!--    License as published by the Free Software Foundation; either		-->
<!--    version 2 of the License, or (at your option) any later version		-->
<!--										-->
<!--    This library is distributed in the hope that it will be useful,		-->
<!--    but WITHOUT ANY WARRANTY; without even the implied warranty of		-->
<!--    MERCHANTABILITY or FITNESS FOR A PARTICULAR PURPOSE.  See the GNU	-->
<!--    Lesser General Public License for more details.				-->
<!--										-->
<!--    You should have received a copy of the GNU Lesser General Public	-->
<!--    License along with this library; if not, write to the Free Software	-->
<!--    Foundation, Inc., 59 Temple Place, Suite 330, Boston, MA 02111-1307  USA-->
<!--										-->
<!--    Contact the author David Bellot at bellot@stat.berkeley.edu or 		-->
<!--    david.bellot@free.fr or yimyom@users.sourceforge.net			-->
<svg  width="167.0864258pt" height="242.6669922pt" viewBox="0 0 167.0864258 242.6669922" xml:space="preserve">
	<g id="Layer_x0020_1" style="&st1;">
		<path style="&st0;" d="M166.8364258,235.5478516c0,3.7773438-3.0859375,6.8691406-6.8701172,6.8691406H7.1113281c-3.7753906,0-6.8613281-3.0917969-6.8613281-6.8691406V7.1196289C0.25,3.3427734,3.3359375,0.25,7.1113281,0.25h152.8549805
			c3.7841797,0,6.8701172,3.0927734,6.8701172,6.8696289v228.4282227z"/>
		<g style="&st2;">
			<g>
				<path d="M57.2163086,46.1118164c-3.4790039,0.003418-5.309082-3.7070313-6.2700195-7.4160156c-0.9599609-3.7114258-1.0507813-7.4238281-1.0507813-7.4238281l-1.7753906-0.0175781c0,0-0.3330078,14.8476563-7.2910156,14.8535156l16.387207,0.0039063z"/>
			</g>
			<path d="M63.1040039,31.269043c-0.0307617-7.2431641-10.8730469-12.4956055-14.0576172-18.2270508c-3.1821289,5.7314453-14.0249023,10.9838867-14.0556641,18.2270508c-0.0141602,3.4194336,3.1469727,6.1894531,7.0288086,6.1894531
				c3.8808594,0,7.0268555-2.7700195,7.0268555-6.1894531c0,3.4194336,3.1479492,6.1894531,7.0297852,6.1894531s7.027832-2.7700195,7.027832-6.1894531z"/>
		</g>
		<g style="&st2;">
			<g>
				<path d="M126.4536133,46.1113281c-3.4804688,0.0039063-5.3105469-3.706543-6.2714844-7.4160156c-0.9589844-3.7109375-1.0507813-7.4233398-1.0507813-7.4233398l-1.7753906-0.0175781c0,0-0.3320313,14.847168-7.2910156,14.8535156l16.3886719,0.003418z"/>
			</g>
			<path d="M132.340332,31.2685547c-0.03125-7.2426758-10.8730469-12.4951172-14.0566406-18.2265625c-3.1835938,5.7314453-14.0253906,10.9838867-14.0566406,18.2265625c-0.0136719,3.4199219,3.1464844,6.1899414,7.0292969,6.1899414
				c3.8808594,0,7.0273438-2.7700195,7.0273438-6.1899414c0,3.4199219,3.1464844,6.1899414,7.0292969,6.1899414c3.8808594,0,7.0273438-2.7700195,7.0273438-6.1899414z"/>
		</g>
		<g style="&st2;">
			<g>
				<path d="M56.9824219,137.5693359c-3.4790039,0.0039063-5.3095703-3.7070313-6.2695313-7.4160156c-0.9604492-3.7109375-1.0517578-7.4238281-1.0517578-7.4238281l-1.7749023-0.0175781c0,0-0.3325195,14.8476563-7.2905273,14.8535156l16.3867188,0.0039063z"/>
			</g>
			<path d="M62.8701172,122.7255859c-0.03125-7.2416992-10.8730469-12.4946289-14.0576172-18.2260742c-3.1821289,5.7314453-14.0253906,10.984375-14.0556641,18.2260742c-0.0141602,3.4199219,3.1464844,6.1914063,7.0283203,6.1914063
				c3.8813477,0,7.0273438-2.7714844,7.0273438-6.1914063c0,3.4199219,3.1479492,6.1914063,7.0292969,6.1914063c3.8818359,0,7.0283203-2.7714844,7.0283203-6.1914063z"/>
		</g>
		<g style="&st2;">
			<g>
				<path d="M126.4526367,137.5693359c-3.4794922,0.0039063-5.3095703-3.7070313-6.2705078-7.4160156c-0.9589844-3.7109375-1.0507813-7.4238281-1.0507813-7.4238281l-1.7753906-0.0175781c0,0-0.3320313,14.8476563-7.2910156,14.8535156l16.3876953,0.0039063z"/>
			</g>
			<path d="M132.340332,122.7265625c-0.03125-7.2426758-10.8730469-12.4956055-14.0576172-18.2270508c-3.1826172,5.7314453-14.0244141,10.984375-14.0556641,18.2270508c-0.0136719,3.4189453,3.1464844,6.1904297,7.0292969,6.1904297
				c3.8808594,0,7.0263672-2.7714844,7.0263672-6.1904297c0,3.4189453,3.1474609,6.1904297,7.0302734,6.1904297c3.8808594,0,7.0273438-2.7714844,7.0273438-6.1904297z"/>
		</g>
		<g style="&st2;">
			<g>
				<path d="M40.59375,196.7910156c6.9580078,0.0068359,7.2910156,14.8544922,7.2910156,14.8544922l1.7753906-0.0185547c0,0,0.0908203-3.7119141,1.0507813-7.4228516c0.9609375-3.7089844,2.7910156-7.4199219,6.2700195-7.4160156l-16.387207,0.0029297z"/>
			</g>
			<path d="M62.8686523,211.6298828c-0.0307617,7.2431641-10.8730469,12.4960938-14.0576172,18.2275391c-3.1821289-5.7314453-14.0249023-10.984375-14.0556641-18.2275391c-0.0141602-3.4189453,3.1469727-6.1894531,7.0288086-6.1894531
				c3.8808594,0,7.0268555,2.7705078,7.0268555,6.1894531c0-3.4189453,3.1479492-6.1894531,7.0297852-6.1894531s7.027832,2.7705078,7.027832,6.1894531z"/>
		</g>
		<g style="&st2;">
			<g>
				<path d="M110.2983398,196.7910156c6.9580078,0.0068359,7.2900391,14.8544922,7.2900391,14.8544922l1.7753906-0.0185547c0,0,0.0917969-3.7119141,1.0517578-7.4228516c0.9599609-3.7089844,2.7900391-7.4199219,6.2705078-7.4160156l-16.3876953,0.0029297z"/>
			</g>
			<path d="M132.5727539,211.6298828c-0.03125,7.2431641-10.8730469,12.4960938-14.0566406,18.2275391c-3.1835938-5.7314453-14.0253906-10.984375-14.0566406-18.2275391c-0.0136719-3.4189453,3.1464844-6.1894531,7.0292969-6.1894531
				c3.8808594,0,7.0273438,2.7705078,7.0273438,6.1894531c0-3.4189453,3.1464844-6.1894531,7.0292969-6.1894531c3.8808594,0,7.0273438,2.7705078,7.0273438,6.1894531z"/>
		</g>
		<g>
			<path style="&st2;" d="M14.0004883,15.0761719c0.2407227-0.4189453,0.5039063-0.7329102,0.7890625-0.9423828c0.2851563-0.2089844,0.6005859-0.3139648,0.9462891-0.3139648c0.8193359,0,1.4643555,0.5405273,1.9345703,1.6206055
				c0.4697266,1.0805664,0.7050781,2.5644531,0.7050781,4.4511719c0,1.9916992-0.2661133,3.5297852-0.7978516,4.6142578c-0.5322266,1.0844727-1.2856445,1.6264648-2.2602539,1.6264648c-1.0961914,0-1.9282227-0.7431641-2.4960938-2.2294922
				c-0.5683594-1.4863281-0.8520508-3.6713867-0.8520508-6.5556641c0-3.2788086,0.3134766-5.7539063,0.9404297-7.4257813s1.559082-2.5078125,2.7973633-2.5078125c0.3212891,0,0.6669922,0.0600586,1.0371094,0.1796875
				c0.3696289,0.1201172,0.7675781,0.2998047,1.1938477,0.5390625v3.1875h-0.65625c-0.0878906-0.8212891-0.2578125-1.4428711-0.5092773-1.8657227s-0.5727539-0.6342773-0.9638672-0.6342773c-0.6308594,0-1.0878906,0.4912109-1.3710938,1.4736328
				s-0.4291992,2.5766602-0.4370117,4.7827148z M15.1879883,24.7260742c0.3720703,0,0.6367188-0.3530273,0.7944336-1.0595703c0.1577148-0.7060547,0.2368164-1.9311523,0.2368164-3.6748047c0-1.7431641-0.0791016-2.9682617-0.2368164-3.6748047
				c-0.1577148-0.7060547-0.4223633-1.0595703-0.7944336-1.0595703s-0.637207,0.3535156-0.7949219,1.0595703c-0.1577148,0.706543-0.2363281,1.9316406-0.2363281,3.6748047c0,1.7436523,0.0786133,2.96875,0.2363281,3.6748047
				c0.1577148,0.706543,0.4228516,1.0595703,0.7949219,1.0595703z"/>
		</g>
		<g>
			<path style="&st2;" d="M152.8989258,227.0830078c-0.2412109,0.4179688-0.5039063,0.7324219-0.7890625,0.9414063s-0.6015625,0.3144531-0.9472656,0.3144531c-0.8183594,0-1.4638672-0.5410156-1.9335938-1.6210938
				c-0.4707031-1.0800781-0.7050781-2.5644531-0.7050781-4.4511719c0-1.9921875,0.265625-3.5292969,0.796875-4.6132813c0.5332031-1.0859375,1.2861328-1.6269531,2.2607422-1.6269531c1.0966797,0,1.9287109,0.7421875,2.4960938,2.2285156
				c0.5683594,1.4863281,0.8525391,3.671875,0.8525391,6.5566406c0,3.2792969-0.3144531,5.7539063-0.9414063,7.4257813s-1.5585938,2.5078125-2.796875,2.5078125c-0.3212891,0-0.6669922-0.0605469-1.0371094-0.1796875
				c-0.3691406-0.1210938-0.7675781-0.3007813-1.1933594-0.5390625v-3.1875h0.65625c0.0878906,0.8203125,0.2578125,1.4433594,0.5087891,1.8652344c0.2509766,0.4238281,0.5732422,0.6347656,0.9638672,0.6347656c0.6308594,0,1.0878906-0.4921875,1.3710938-1.4746094
				s0.4296875-2.5761719,0.4375-4.78125z M151.7114258,217.4326172c-0.3730469,0-0.6367188,0.3535156-0.7949219,1.0585938c-0.1582031,0.7070313-0.2363281,1.9316406-0.2363281,3.6757813c0,1.7421875,0.078125,2.96875,0.2363281,3.6738281
				c0.1582031,0.7070313,0.421875,1.0605469,0.7949219,1.0605469c0.3710938,0,0.6367188-0.3535156,0.7949219-1.0605469c0.1572266-0.7050781,0.2363281-1.9316406,0.2363281-3.6738281c0-1.7441406-0.0791016-2.96875-0.2363281-3.6757813
				c-0.1582031-0.7050781-0.4238281-1.0585938-0.7949219-1.0585938z"/>
		</g>
		<g style="&st2;">
			<g>
				<path d="M19.1103516,39.2822266c-1.0952148,0.0009766-1.671875-1.1669922-1.9736328-2.3349609c-0.3027344-1.168457-0.3310547-2.3374023-0.3310547-2.3374023l-0.559082-0.0053711c0,0-0.1049805,4.6743164-2.2954102,4.6767578l5.1591797,0.0009766z"/>
			</g>
			<path d="M20.9638672,34.6088867c-0.0097656-2.2802734-3.4228516-3.934082-4.4257813-5.7382813c-1.0019531,1.8041992-4.4155273,3.4580078-4.425293,5.7382813c-0.0043945,1.0766602,0.9907227,1.9492188,2.2133789,1.9492188
				c1.2216797,0,2.2119141-0.8725586,2.2119141-1.9492188c0,1.0766602,0.9912109,1.9492188,2.2128906,1.9492188c1.2226563,0,2.2128906-0.8725586,2.2128906-1.9492188z"/>
		</g>
		<g style="&st2;">
			<g>
				<path d="M148.0961914,202.9482422c1.0957031,0,1.671875,1.1679688,1.9746094,2.3359375c0.3017578,1.1679688,0.3300781,2.3369141,0.3300781,2.3369141l0.5585938,0.0048828c0,0,0.1054688-4.6738281,2.296875-4.6757813l-5.1601563-0.0019531z"/>
			</g>
			<path d="M146.2426758,207.6220703c0.0097656,2.2802734,3.4238281,3.9335938,4.4257813,5.7382813c1.0019531-1.8046875,4.4160156-3.4580078,4.4257813-5.7382813c0.0039063-1.0761719-0.9902344-1.9492188-2.2128906-1.9492188
				s-2.2128906,0.8730469-2.2128906,1.9492188c0-1.0761719-0.9902344-1.9492188-2.2128906-1.9492188s-2.2128906,0.8730469-2.2128906,1.9492188z"/>
		</g>
	</g>
</svg>
