<?xml version="1.0" encoding="utf-8"?>
<!-- Generator: Adobe Illustrator 9.0, SVG Export Plug-In  -->
<!DOCTYPE svg PUBLIC "-//W3C//DTD SVG 20000303 Stylable//EN"   "http://www.w3.org/TR/2000/03/WD-SVG-20000303/DTD/svg-20000303-stylable.dtd" [
	<!ENTITY st0 "fill:#FFFFFF;stroke-width:0.5;">
	<!ENTITY st1 "fill-rule:nonzero;clip-rule:nonzero;fill:#E61408;stroke:#000000;stroke-miterlimit:4;">
	<!ENTITY st2 "stroke:none;">
]>
<!-- This set of SVG files is a complete cards game with figures, numbers	-->
<!--    and backs of cards completely designed in SVG.				-->
<!--    									-->
<!--    Copyright (C) 2004 David Bellot						-->
<!--										-->
<!--    This library is free software; you can redistribute it and/or		-->
<!--    modify it under the terms of the GNU Lesser General Public		-->
<!--    License as published by the Free Software Foundation; either		-->
<!--    version 2 of the License, or (at your option) any later version		-->
<!--										-->
<!--    This library is distributed in the hope that it will be useful,		-->
<!--    but WITHOUT ANY WARRANTY; without even the implied warranty of		-->
<!--    MERCHANTABILITY or FITNESS FOR A PARTICULAR PURPOSE.  See the GNU	-->
<!--    Lesser General Public License for more details.				-->
<!--										-->
<!--    You should have received a copy of the GNU Lesser General Public	-->
<!--    License along with this library; if not, write to the Free Software	-->
<!--    Foundation, Inc., 59 Temple Place, Suite 330, Boston, MA 02111-1307  USA-->
<!--										-->
<!--    Contact the author David Bellot at bellot@stat.berkeley.edu or 		-->
<!--    david.bellot@free.fr or yimyom@users.sourceforge.net			-->
<svg  width="167.0908203pt" height="242.6650391pt" viewBox="0 0 167.0908203 242.6650391" xml:space="preserve">
	<g id="Layer_x0020_1" style="&st1;">
		<path style="&st0;" d="M166.8408203,235.5449219c0,3.7753906-3.0859375,6.8701172-6.8701172,6.8701172H7.1108398c-3.7749023,0-6.8608398-3.0947266-6.8608398-6.8701172V7.1201172C0.25,3.340332,3.3359375,0.25,7.1108398,0.25h152.8598633
			c3.7841797,0,6.8701172,3.090332,6.8701172,6.8701172v228.4248047z"/>
		<path style="&st2;" d="M48.2714844,29.2631836H32.6713867c0,0,2.4370117,0.503418,9.262207-6.046875c6.8251953-6.5507813,6.3378906-10.078125,6.3378906-10.078125 M32.6713867,29.2631836c0,0,3.4125977-0.5039063,9.7495117,6.5507813
			c6.3378906,7.0541992,5.8505859,9.5737305,5.8505859,9.5737305V29.2631836 M48.2714844,45.3876953c0,0-0.4873047-3.5273438,6.3378906-10.0776367c6.824707-6.5507813,9.2617188-6.046875,9.2617188-6.046875H48.2714844 M63.8710938,29.2631836
			c0,0-3.4121094,0.5039063-9.7495117-6.5507813s-5.8500977-9.5742188-5.8500977-9.5742188v16.125"/>
		<path style="&st2;" d="M117.4990234,12.9145508c0,0-0.4873047,3.5273438,6.3378906,10.078125c6.8251953,6.550293,9.2617188,6.046875,9.2617188,6.046875h-15.5996094 M117.4990234,29.0395508v16.125c0,0-0.4873047-2.5195313,5.8505859-9.5742188
			c6.3369141-7.0546875,9.7490234-6.5507813,9.7490234-6.5507813 M117.4990234,29.0395508h-15.5996094c0,0,2.4375-0.503418,9.2617188,6.046875c6.8251953,6.5507813,6.3378906,10.078125,6.3378906,10.078125 M117.4990234,29.0395508v-16.125
			c0,0,0.4873047,2.5195313-5.8496094,9.5742188c-6.3378906,7.0546875-9.75,6.5507813-9.75,6.5507813"/>
		<path style="&st2;" d="M47.9863281,227.9619141c0,0,0.4873047-3.5273438-6.3378906-10.078125c-6.8251953-6.5498047-9.262207-6.046875-9.262207-6.046875h15.6000977 M47.9863281,211.8369141v-16.1240234c0,0,0.4873047,2.5195313-5.8505859,9.5732422
			c-6.3369141,7.0546875-9.7495117,6.5507813-9.7495117,6.5507813 M47.9863281,211.8369141h15.5996094c0,0-2.4370117,0.5039063-9.2617188-6.046875c-6.8251953-6.5498047-6.3378906-10.0771484-6.3378906-10.0771484 M47.9863281,211.8369141v16.125
			c0,0-0.4873047-2.5195313,5.8500977-9.5742188s9.7495117-6.5507813,9.7495117-6.5507813"/>
		<path style="&st2;" d="M117.2138672,212.0605469h15.5996094c0,0-2.4365234-0.5039063-9.2617188,6.046875s-6.3378906,10.078125-6.3378906,10.078125 M132.8134766,212.0605469c0,0-3.4121094,0.5039063-9.7490234-6.5507813
			c-6.3378906-7.0546875-5.8505859-9.5742188-5.8505859-9.5742188v16.125 M117.2138672,195.9355469c0,0,0.4873047,3.5273438-6.3378906,10.078125c-6.8242188,6.5507813-9.2617188,6.046875-9.2617188,6.046875h15.5996094 M101.6142578,212.0605469
			c0,0,3.4121094-0.5039063,9.75,6.5507813c6.3369141,7.0546875,5.8496094,9.5742188,5.8496094,9.5742188v-16.125"/>
		<path style="&st2;" d="M48.2041016,121.7539063H32.6035156c0,0,2.4375,0.5039063,9.2626953-6.046875s6.3378906-10.078125,6.3378906-10.078125 M32.6035156,121.7539063c0,0,3.4130859-0.5039063,9.75,6.5507813
			c6.3378906,7.0546875,5.8505859,9.5742188,5.8505859,9.5742188v-16.125 M48.2041016,137.8789063c0,0-0.4873047-3.5273438,6.3378906-10.078125c6.8242188-6.550293,9.2617188-6.046875,9.2617188-6.046875H48.2041016 M63.8037109,121.7539063
			c0,0-3.4121094,0.5039063-9.75-6.5507813c-6.3369141-7.0546875-5.8496094-9.5742188-5.8496094-9.5742188v16.125"/>
		<path style="&st2;" d="M117.4316406,105.4052734c0,0-0.4873047,3.5273438,6.3378906,10.078125c6.8251953,6.550293,9.2617188,6.046875,9.2617188,6.046875h-15.5996094 M117.4316406,121.5302734v16.125c0,0-0.4873047-2.5195313,5.8505859-9.5742188
			c6.3369141-7.0546875,9.7490234-6.5507813,9.7490234-6.5507813 M117.4316406,121.5302734h-15.5996094c0,0,2.4365234-0.503418,9.2617188,6.046875c6.8251953,6.5507813,6.3378906,10.078125,6.3378906,10.078125 M117.4316406,121.5302734v-16.125
			c0,0,0.4873047,2.5195313-5.8505859,9.5742188c-6.3369141,7.0546875-9.7490234,6.5507813-9.7490234,6.5507813"/>
		<g>
			<path style="&st2;" d="M13.7470703,15.2871094c0.2412109-0.4189453,0.5039063-0.7329102,0.7890625-0.9423828c0.2851563-0.2089844,0.6005859-0.3139648,0.9462891-0.3139648c0.8193359,0,1.4648438,0.5405273,1.9345703,1.6206055
				c0.4697266,1.0805664,0.7050781,2.5644531,0.7050781,4.4511719c0,1.9916992-0.265625,3.5297852-0.7978516,4.6142578s-1.2851563,1.6264648-2.2597656,1.6264648c-1.0966797,0-1.9287109-0.7431641-2.4960938-2.2294922
				C12,22.6274414,11.7158203,20.4423828,11.7158203,17.5581055c0-3.2788086,0.3134766-5.7539063,0.9404297-7.4257813s1.5595703-2.5078125,2.7978516-2.5078125c0.3212891,0,0.6669922,0.0600586,1.0371094,0.1796875
				c0.3691406,0.1201172,0.7675781,0.2998047,1.1933594,0.5390625v3.1875h-0.65625c-0.0878906-0.8212891-0.2578125-1.4428711-0.5087891-1.8657227c-0.2519531-0.4228516-0.5732422-0.6342773-0.9638672-0.6342773c-0.6308594,0-1.0878906,0.4912109-1.3710938,1.4736328
				s-0.4296875,2.5766602-0.4375,4.7827148z M14.9345703,24.9370117c0.3720703,0,0.6367188-0.3530273,0.7949219-1.0595703c0.1572266-0.7060547,0.2363281-1.9311523,0.2363281-3.6748047c0-1.7431641-0.0791016-2.9682617-0.2363281-3.6748047
				c-0.1582031-0.7060547-0.4228516-1.0595703-0.7949219-1.0595703s-0.6367188,0.3535156-0.7949219,1.0595703c-0.1572266,0.706543-0.2363281,1.9316406-0.2363281,3.6748047c0,1.7436523,0.0791016,2.96875,0.2363281,3.6748047
				c0.1582031,0.706543,0.4228516,1.0595703,0.7949219,1.0595703z"/>
		</g>
		<g>
			<path style="&st2;" d="M152.6455078,227.2929688c-0.2412109,0.4199219-0.5039063,0.7333984-0.7890625,0.9433594c-0.2851563,0.2089844-0.6005859,0.3134766-0.9462891,0.3134766c-0.8193359,0-1.4648438-0.5400391-1.9345703-1.6201172
				c-0.4697266-1.0810547-0.7050781-2.5644531-0.7050781-4.4511719c0-1.9921875,0.265625-3.5302734,0.7978516-4.6152344c0.5322266-1.0839844,1.2851563-1.6259766,2.2597656-1.6259766c1.0966797,0,1.9287109,0.7431641,2.4960938,2.2294922
				c0.5683594,1.4863281,0.8525391,3.671875,0.8525391,6.5556641c0,3.2783203-0.3134766,5.7539063-0.9404297,7.4257813s-1.5595703,2.5078125-2.7978516,2.5078125c-0.3212891,0-0.6669922-0.0595703-1.0371094-0.1796875
				c-0.3691406-0.1201172-0.7675781-0.2998047-1.1933594-0.5390625v-3.1875h0.65625c0.0878906,0.8212891,0.2578125,1.4423828,0.5087891,1.8662109c0.2519531,0.421875,0.5732422,0.6337891,0.9638672,0.6337891c0.6308594,0,1.0878906-0.4912109,1.3710938-1.4736328
				s0.4296875-2.5761719,0.4375-4.7832031z M151.4580078,217.6435547c-0.3720703,0-0.6367188,0.3525391-0.7949219,1.0595703c-0.1572266,0.7060547-0.2363281,1.9316406-0.2363281,3.6748047s0.0791016,2.9677734,0.2363281,3.6748047
				c0.1582031,0.7060547,0.4228516,1.0595703,0.7949219,1.0595703s0.6367188-0.3535156,0.7949219-1.0595703c0.1572266-0.7070313,0.2363281-1.9316406,0.2363281-3.6748047s-0.0791016-2.96875-0.2363281-3.6748047
				c-0.1582031-0.7070313-0.4228516-1.0595703-0.7949219-1.0595703z"/>
		</g>
		<path style="&st2;" d="M16.2158203,34.0561523h-5.0419922c0,0,0.7875977,0.1625977,2.9931641-1.9541016c2.2060547-2.1171875,2.0488281-3.2573242,2.0488281-3.2573242 M11.1738281,34.0561523c0,0,1.1025391-0.1625977,3.1513672,2.1171875
			c2.0478516,2.2802734,1.890625,3.0942383,1.890625,3.0942383v-5.2114258 M16.2158203,39.2675781c0,0-0.1577148-1.1396484,2.0478516-3.2568359c2.2060547-2.1171875,2.9941406-1.9545898,2.9941406-1.9545898h-5.0419922 M21.2578125,34.0561523
			c0,0-1.1035156,0.1630859-3.1513672-2.1171875c-2.0483398-2.2802734-1.890625-3.0942383-1.890625-3.0942383v5.2114258"/>
		<path style="&st2;" d="M150.6445313,208.1396484h5.0419922c0,0-0.7880859-0.1630859-2.9941406,1.9541016c-2.2050781,2.1171875-2.0478516,3.2578125-2.0478516,3.2578125 M155.6865234,208.1396484c0,0-1.1035156,0.1630859-3.1513672-2.1171875
			s-1.890625-3.0947266-1.890625-3.0947266v5.2119141 M150.6445313,202.9277344c0,0,0.1572266,1.140625-2.0478516,3.2578125c-2.2060547,2.1171875-2.9941406,1.9541016-2.9941406,1.9541016h5.0419922 M145.6025391,208.1396484
			c0,0,1.1035156-0.1630859,3.1513672,2.1171875s1.890625,3.0947266,1.890625,3.0947266v-5.2119141"/>
	</g>
</svg>
