<?xml version="1.0" encoding="utf-8"?>
<!-- Generator: Adobe Illustrator 9.0, SVG Export Plug-In  -->
<!DOCTYPE svg PUBLIC "-//W3C//DTD SVG 20000303 Stylable//EN"   "http://www.w3.org/TR/2000/03/WD-SVG-20000303/DTD/svg-20000303-stylable.dtd" [
	<!ENTITY st0 "fill:#FFFFFF;stroke-width:0.5;">
	<!ENTITY st1 "fill-rule:nonzero;clip-rule:nonzero;stroke:#000000;stroke-miterlimit:4;">
	<!ENTITY st2 "stroke:none;">
]>
<!-- This set of SVG files is a complete cards game with figures, numbers	-->
<!--    and backs of cards completely designed in SVG.				-->
<!--    									-->
<!--    Copyright (C) 2004 David Bellot						-->
<!--										-->
<!--    This library is free software; you can redistribute it and/or		-->
<!--    modify it under the terms of the GNU Lesser General Public		-->
<!--    License as published by the Free Software Foundation; either		-->
<!--    version 2 of the License, or (at your option) any later version		-->
<!--										-->
<!--    This library is distributed in the hope that it will be useful,		-->
<!--    but WITHOUT ANY WARRANTY; without even the implied warranty of		-->
<!--    MERCHANTABILITY or FITNESS FOR A PARTICULAR PURPOSE.  See the GNU	-->
<!--    Lesser General Public License for more details.				-->
<!--										-->
<!--    You should have received a copy of the GNU Lesser General Public	-->
<!--    License along with this library; if not, write to the Free Software	-->
<!--    Foundation, Inc., 59 Temple Place, Suite 330, Boston, MA 02111-1307  USA-->
<!--										-->
<!--    Contact the author David Bellot at bellot@stat.berkeley.edu or 		-->
<!--    david.bellot@free.fr or yimyom@users.sourceforge.net			-->
<svg  width="167.0869141pt" height="242.6669922pt" viewBox="0 0 167.0869141 242.6669922" xml:space="preserve">
	<g id="Layer_x0020_1" style="&st1;">
		<path style="&st0;" d="M166.8369141,235.5478516c0,3.7792969-3.0859375,6.8691406-6.8710938,6.8691406H7.1108398c-3.7744141,0-6.8608398-3.0898438-6.8608398-6.8691406V7.1201172C0.25,3.3452148,3.3364258,0.25,7.1108398,0.25h152.8549805
			c3.7851563,0,6.8710938,3.0952148,6.8710938,6.8701172v228.4277344z"/>
		<g style="&st2;">
			<path d="M55.4946289,19.8359375c0,3.7753906-3.1538086,6.8339844-7.0454102,6.8339844c-3.8920898,0-7.0463867-3.0585938-7.0463867-6.8339844c0-3.7734375,3.1542969-6.8330078,7.0463867-6.8330078c3.8916016,0,7.0454102,3.0595703,7.0454102,6.8330078z"/>
			<path d="M64.5668945,32.7661133c0,3.7744141-3.1542969,6.8334961-7.0458984,6.8334961s-7.0458984-3.059082-7.0458984-6.8334961c0-3.7739258,3.1542969-6.8330078,7.0458984-6.8330078s7.0458984,3.059082,7.0458984,6.8330078z"/>
			<path d="M46.5249023,32.8164063c0,1.3823242-0.4228516,2.668457-1.1503906,3.7436523c-1.2587891,1.8608398-3.4296875,3.0893555-5.8964844,3.0893555c-3.8916016,0-7.0449219-3.0581055-7.0449219-6.8330078c0-3.7739258,3.1533203-6.8334961,7.0449219-6.8334961
				s7.046875,3.0595703,7.046875,6.8334961z"/>
			<g>
				<path d="M56.7128906,46.0795898c-3.4790039,0.0029297-5.309082-2.8271484-6.2700195-5.6567383c-0.9599609-2.8300781-1.050293-5.6611328-1.050293-5.6611328l-1.7758789-0.0141602c0,0-0.3330078,11.3242188-7.2900391,11.3295898l16.3862305,0.0024414z"/>
			</g>
			<g>
				<path d="M43.659668,24.8481445c3.9570313,3.9575195,3.9570313,9.8994141,3.9570313,9.8994141l1.7758789,0.0141602c0,0,0-6.0673828,3.8457031-9.9135742"/>
			</g>
			<g>
				<path d="M44.4516602,37.5649414c3.9570313-3.9570313,9.8989258-3.9570313,9.8989258-3.9570313l0.0141602-1.7758789c0,0-6.0673828,0-9.9130859-3.8461914"/>
			</g>
			<g>
				<path d="M52.3881836,37.5942383c-3.9575195-3.9570313-9.8994141-3.9570313-9.8994141-3.9570313l-0.0141602-1.7758789c0,0,6.0678711,0,9.9135742-3.8461914"/>
			</g>
		</g>
		<g style="&st2;">
			<path d="M125.9951172,19.8359375c0,3.7753906-3.1542969,6.8339844-7.0458984,6.8339844s-7.0458984-3.0585938-7.0458984-6.8339844c0-3.7734375,3.1542969-6.8330078,7.0458984-6.8330078s7.0458984,3.0595703,7.0458984,6.8330078z"/>
			<path d="M135.0673828,32.7661133c0,3.7744141-3.1542969,6.8334961-7.046875,6.8334961c-3.890625,0-7.0449219-3.059082-7.0449219-6.8334961c0-3.7739258,3.1542969-6.8330078,7.0449219-6.8330078c3.8925781,0,7.046875,3.059082,7.046875,6.8330078z"/>
			<path d="M117.0244141,32.8164063c0,1.3823242-0.421875,2.668457-1.1503906,3.7436523c-1.2578125,1.8608398-3.4296875,3.0893555-5.8964844,3.0893555c-3.890625,0-7.0449219-3.0581055-7.0449219-6.8330078c0-3.7739258,3.1542969-6.8334961,7.0449219-6.8334961
				c3.8925781,0,7.046875,3.0595703,7.046875,6.8334961z"/>
			<g>
				<path d="M127.2128906,46.0795898c-3.4794922,0.0029297-5.3095703-2.8271484-6.2705078-5.6567383c-0.9589844-2.8300781-1.0498047-5.6611328-1.0498047-5.6611328l-1.7763672-0.0141602c0,0-0.3320313,11.3242188-7.2890625,11.3295898l16.3857422,0.0024414z"/>
			</g>
			<g>
				<path d="M114.1591797,24.8481445c3.9570313,3.9575195,3.9570313,9.8994141,3.9570313,9.8994141l1.7763672,0.0141602c0,0,0-6.0673828,3.8457031-9.9135742"/>
			</g>
			<g>
				<path d="M114.9521484,37.5649414c3.9570313-3.9570313,9.8984375-3.9570313,9.8984375-3.9570313l0.0136719-1.7758789c0,0-6.0664063,0-9.9121094-3.8461914"/>
			</g>
			<g>
				<path d="M122.8876953,37.5942383c-3.9570313-3.9570313-9.8984375-3.9570313-9.8984375-3.9570313l-0.0146484-1.7758789c0,0,6.0673828,0,9.9130859-3.8461914"/>
			</g>
		</g>
		<g style="&st2;">
			<path d="M55.4946289,111.5859375c0,3.7753906-3.1538086,6.8339844-7.0454102,6.8339844c-3.8920898,0-7.0463867-3.0585938-7.0463867-6.8339844c0-3.7734375,3.1542969-6.8330078,7.0463867-6.8330078c3.8916016,0,7.0454102,3.0595703,7.0454102,6.8330078z"/>
			<path d="M64.5668945,124.5166016c0,3.7734375-3.1542969,6.8330078-7.0458984,6.8330078s-7.0458984-3.0595703-7.0458984-6.8330078c0-3.7744141,3.1542969-6.8334961,7.0458984-6.8334961s7.0458984,3.059082,7.0458984,6.8334961z"/>
			<path d="M46.5249023,124.5664063c0,1.3818359-0.4228516,2.6689453-1.1503906,3.7431641c-1.2587891,1.8613281-3.4296875,3.0898438-5.8964844,3.0898438c-3.8916016,0-7.0449219-3.0585938-7.0449219-6.8330078c0-3.7739258,3.1533203-6.8334961,7.0449219-6.8334961
				s7.046875,3.0595703,7.046875,6.8334961z"/>
			<g>
				<path d="M56.7128906,137.8291016c-3.4790039,0.0039063-5.309082-2.8261719-6.2700195-5.65625c-0.9599609-2.8300781-1.050293-5.6611328-1.050293-5.6611328l-1.7758789-0.0146484c0,0-0.3330078,11.3242188-7.2900391,11.3300781l16.3862305,0.0019531z"/>
			</g>
			<g>
				<path d="M43.659668,116.5981445c3.9570313,3.9575195,3.9570313,9.8989258,3.9570313,9.8989258l1.7758789,0.0146484c0,0,0-6.0673828,3.8457031-9.9135742"/>
			</g>
			<g>
				<path d="M44.4516602,129.3154297c3.9570313-3.9570313,9.8989258-3.9570313,9.8989258-3.9570313l0.0141602-1.7763672c0,0-6.0673828,0-9.9130859-3.8461914"/>
			</g>
			<g>
				<path d="M52.3881836,129.3447266c-3.9575195-3.9570313-9.8994141-3.9570313-9.8994141-3.9570313l-0.0141602-1.7763672c0,0,6.0678711,0,9.9135742-3.8461914"/>
			</g>
		</g>
		<g style="&st2;">
			<path d="M124.2451172,111.5859375c0,3.7753906-3.1542969,6.8339844-7.0458984,6.8339844s-7.0458984-3.0585938-7.0458984-6.8339844c0-3.7734375,3.1542969-6.8330078,7.0458984-6.8330078s7.0458984,3.0595703,7.0458984,6.8330078z"/>
			<path d="M133.3173828,124.5166016c0,3.7734375-3.1542969,6.8330078-7.046875,6.8330078c-3.890625,0-7.0449219-3.0595703-7.0449219-6.8330078c0-3.7744141,3.1542969-6.8334961,7.0449219-6.8334961c3.8925781,0,7.046875,3.059082,7.046875,6.8334961z"/>
			<path d="M115.2744141,124.5664063c0,1.3818359-0.421875,2.6689453-1.1503906,3.7431641c-1.2578125,1.8613281-3.4296875,3.0898438-5.8964844,3.0898438c-3.890625,0-7.0449219-3.0585938-7.0449219-6.8330078c0-3.7739258,3.1542969-6.8334961,7.0449219-6.8334961
				c3.8925781,0,7.046875,3.0595703,7.046875,6.8334961z"/>
			<g>
				<path d="M125.4628906,137.8291016c-3.4794922,0.0039063-5.3095703-2.8261719-6.2705078-5.65625c-0.9589844-2.8300781-1.0498047-5.6611328-1.0498047-5.6611328l-1.7763672-0.0146484c0,0-0.3320313,11.3242188-7.2890625,11.3300781l16.3857422,0.0019531z"/>
			</g>
			<g>
				<path d="M112.4091797,116.5981445c3.9570313,3.9575195,3.9570313,9.8989258,3.9570313,9.8989258l1.7763672,0.0146484c0,0,0-6.0673828,3.8457031-9.9135742"/>
			</g>
			<g>
				<path d="M113.2021484,129.3154297c3.9570313-3.9570313,9.8984375-3.9570313,9.8984375-3.9570313l0.0136719-1.7763672c0,0-6.0664063,0-9.9121094-3.8461914"/>
			</g>
			<g>
				<path d="M121.1376953,129.3447266c-3.9570313-3.9570313-9.8984375-3.9570313-9.8984375-3.9570313l-0.0146484-1.7763672c0,0,6.0673828,0,9.9130859-3.8461914"/>
			</g>
		</g>
		<g style="&st2;">
			<path d="M55.5874023,223.0732422c0-3.7753906-3.1533203-6.8339844-7.0454102-6.8339844c-3.8916016,0-7.0458984,3.0585938-7.0458984,6.8339844c0,3.7734375,3.1542969,6.8330078,7.0458984,6.8330078c3.8920898,0,7.0454102-3.0595703,7.0454102-6.8330078z"/>
			<path d="M64.6601563,210.1435547c0-3.7753906-3.1542969-6.8339844-7.0463867-6.8339844c-3.8916016,0-7.0458984,3.0585938-7.0458984,6.8339844c0,3.7734375,3.1542969,6.8320313,7.0458984,6.8320313c3.8920898,0,7.0463867-3.0585938,7.0463867-6.8320313z"/>
			<path d="M46.6181641,210.0927734c0-1.3828125-0.4233398-2.6679688-1.1503906-3.7441406c-1.2592773-1.8603516-3.4301758-3.0888672-5.8964844-3.0888672c-3.8920898,0-7.0454102,3.0576172-7.0454102,6.8330078c0,3.7734375,3.1533203,6.8339844,7.0454102,6.8339844
				c3.8916016,0,7.046875-3.0605469,7.046875-6.8339844z"/>
			<g>
				<path d="M40.4194336,196.8320313c6.9570313,0.0048828,7.2905273,11.3291016,7.2905273,11.3291016l1.7753906-0.0136719c0,0,0.090332-2.8310547,1.050293-5.6611328c0.9614258-2.8291016,2.7915039-5.6591797,6.2705078-5.6572266l-16.3867188,0.0029297z"/>
			</g>
			<g>
				<path d="M43.7524414,218.0615234c3.9575195-3.9580078,3.9575195-9.9003906,3.9575195-9.9003906l1.7753906-0.0136719c0,0,0,6.0673828,3.8461914,9.9140625"/>
			</g>
			<g>
				<path d="M44.5444336,205.3447266c3.9570313,3.9570313,9.8994141,3.9570313,9.8994141,3.9570313l0.0141602,1.7753906c0,0-6.0678711,0-9.9135742,3.8457031"/>
			</g>
			<g>
				<path d="M52.480957,205.3154297c-3.9570313,3.9570313-9.8989258,3.9570313-9.8989258,3.9570313l-0.0141602,1.7753906c0,0,6.0673828,0,9.9130859,3.8457031"/>
			</g>
		</g>
		<g style="&st2;">
			<path d="M126.0400391,223.0732422c0-3.7753906-3.1542969-6.8339844-7.0458984-6.8339844s-7.0458984,3.0585938-7.0458984,6.8339844c0,3.7734375,3.1542969,6.8330078,7.0458984,6.8330078s7.0458984-3.0595703,7.0458984-6.8330078z"/>
			<path d="M135.1123047,210.1435547c0-3.7753906-3.1542969-6.8339844-7.046875-6.8339844c-3.890625,0-7.0449219,3.0585938-7.0449219,6.8339844c0,3.7734375,3.1542969,6.8320313,7.0449219,6.8320313c3.8925781,0,7.046875-3.0585938,7.046875-6.8320313z"/>
			<path d="M117.0693359,210.0927734c0-1.3828125-0.421875-2.6679688-1.1503906-3.7441406c-1.2578125-1.8603516-3.4296875-3.0888672-5.8964844-3.0888672c-3.890625,0-7.0449219,3.0576172-7.0449219,6.8330078c0,3.7734375,3.1542969,6.8339844,7.0449219,6.8339844
				c3.8925781,0,7.046875-3.0605469,7.046875-6.8339844z"/>
			<g>
				<path d="M110.8720703,196.8320313c6.9570313,0.0048828,7.2890625,11.3291016,7.2890625,11.3291016l1.7763672-0.0136719c0,0,0.0908203-2.8310547,1.0498047-5.6611328c0.9609375-2.8291016,2.7910156-5.6591797,6.2714844-5.6572266l-16.3867188,0.0029297z"/>
			</g>
			<g>
				<path d="M114.2041016,218.0615234c3.9570313-3.9580078,3.9570313-9.9003906,3.9570313-9.9003906l1.7763672-0.0136719c0,0,0,6.0673828,3.8466797,9.9140625"/>
			</g>
			<g>
				<path d="M114.9970703,205.3447266c3.9570313,3.9570313,9.8984375,3.9570313,9.8984375,3.9570313l0.0146484,1.7753906c0,0-6.0673828,0-9.9130859,3.8457031"/>
			</g>
			<g>
				<path d="M122.9326172,205.3154297c-3.9570313,3.9570313-9.8984375,3.9570313-9.8984375,3.9570313l-0.0146484,1.7753906c0,0,6.0673828,0,9.9130859,3.8457031"/>
			</g>
		</g>
		<g>
			<path style="&st2;" d="M13.8369141,15.2861328c0.2407227-0.4189453,0.5039063-0.7329102,0.7890625-0.9423828c0.2851563-0.2089844,0.6005859-0.3139648,0.9462891-0.3139648c0.8193359,0,1.4643555,0.5405273,1.9345703,1.6206055
				c0.4697266,1.0805664,0.7050781,2.5644531,0.7050781,4.4511719c0,1.9916992-0.2661133,3.5297852-0.7978516,4.6142578c-0.5322266,1.0844727-1.2856445,1.6264648-2.2602539,1.6264648c-1.0961914,0-1.9282227-0.7431641-2.4960938-2.2294922
				c-0.5683594-1.4863281-0.8520508-3.6713867-0.8520508-6.5556641c0-3.2788086,0.3134766-5.7539063,0.9404297-7.4257813s1.559082-2.5078125,2.7973633-2.5078125c0.3212891,0,0.6669922,0.0600586,1.0371094,0.1796875
				c0.3696289,0.1201172,0.7675781,0.2998047,1.1938477,0.5390625v3.1875h-0.65625c-0.0878906-0.8212891-0.2578125-1.4428711-0.5092773-1.8657227s-0.5727539-0.6342773-0.9638672-0.6342773c-0.6308594,0-1.0878906,0.4912109-1.3710938,1.4736328
				s-0.4291992,2.5766602-0.4370117,4.7827148z M15.0244141,24.9360352c0.3720703,0,0.6367188-0.3530273,0.7944336-1.0595703c0.1577148-0.7060547,0.2368164-1.9311523,0.2368164-3.6748047c0-1.7431641-0.0791016-2.9682617-0.2368164-3.6748047
				c-0.1577148-0.7060547-0.4223633-1.0595703-0.7944336-1.0595703s-0.637207,0.3535156-0.7949219,1.0595703c-0.1577148,0.706543-0.2363281,1.9316406-0.2363281,3.6748047c0,1.7436523,0.0786133,2.96875,0.2363281,3.6748047
				c0.1577148,0.706543,0.4228516,1.0595703,0.7949219,1.0595703z"/>
		</g>
		<g>
			<path style="&st2;" d="M152.7353516,227.2919922c-0.2412109,0.4189453-0.5039063,0.7324219-0.7890625,0.9423828c-0.2851563,0.2089844-0.6015625,0.3134766-0.9472656,0.3134766c-0.8183594,0-1.4638672-0.5400391-1.9335938-1.6201172
				c-0.4707031-1.0810547-0.7050781-2.5644531-0.7050781-4.4511719c0-1.9912109,0.265625-3.5302734,0.796875-4.6142578c0.5332031-1.0839844,1.2861328-1.6269531,2.2607422-1.6269531c1.0966797,0,1.9287109,0.7441406,2.4960938,2.2304688
				c0.5683594,1.4863281,0.8525391,3.6708984,0.8525391,6.5546875c0,3.2792969-0.3144531,5.7539063-0.9414063,7.4257813s-1.5585938,2.5078125-2.796875,2.5078125c-0.3212891,0-0.6669922-0.0595703-1.0371094-0.1796875
				c-0.3691406-0.1191406-0.7675781-0.2988281-1.1933594-0.5390625v-3.1875h0.65625c0.0878906,0.8222656,0.2578125,1.4433594,0.5087891,1.8662109s0.5732422,0.6337891,0.9638672,0.6337891c0.6308594,0,1.0878906-0.4902344,1.3710938-1.4726563
				s0.4296875-2.5771484,0.4375-4.7832031z M151.5478516,217.6416016c-0.3730469,0-0.6367188,0.3535156-0.7949219,1.0605469c-0.1582031,0.7050781-0.2363281,1.9306641-0.2363281,3.6738281c0,1.7441406,0.078125,2.96875,0.2363281,3.6757813
				c0.1582031,0.7050781,0.421875,1.0585938,0.7949219,1.0585938c0.3710938,0,0.6367188-0.3535156,0.7949219-1.0585938c0.1572266-0.7070313,0.2363281-1.9316406,0.2363281-3.6757813c0-1.7431641-0.0791016-2.96875-0.2363281-3.6738281
				c-0.1582031-0.7070313-0.4238281-1.0605469-0.7949219-1.0605469z"/>
		</g>
		<g style="&st2;">
			<path d="M18.1767578,31.3300781c0,1.1342773-0.9477539,2.0537109-2.1166992,2.0537109c-1.1694336,0-2.1171875-0.9194336-2.1171875-2.0537109c0-1.1337891,0.9477539-2.0527344,2.1171875-2.0527344c1.1689453,0,2.1166992,0.9189453,2.1166992,2.0527344z"/>
			<path d="M20.902832,35.215332c0,1.1337891-0.9482422,2.0527344-2.1171875,2.0527344c-1.1694336,0-2.1171875-0.9189453-2.1171875-2.0527344c0-1.1342773,0.9477539-2.0532227,2.1171875-2.0532227c1.1689453,0,2.1171875,0.9189453,2.1171875,2.0532227z"/>
			<path d="M15.4819336,35.2299805c0,0.4155273-0.1269531,0.8017578-0.3457031,1.125c-0.378418,0.559082-1.0302734,0.9282227-1.7714844,0.9282227c-1.1694336,0-2.1166992-0.9189453-2.1166992-2.0532227c0-1.1337891,0.9472656-2.0527344,2.1166992-2.0527344
				c1.1689453,0,2.1171875,0.9189453,2.1171875,2.0527344z"/>
			<g>
				<path d="M18.5429688,39.215332c-1.0454102,0.0004883-1.5952148-0.8496094-1.8842773-1.699707c-0.2880859-0.8500977-0.3154297-1.7006836-0.3154297-1.7006836l-0.5332031-0.0043945c0,0-0.1000977,3.4023438-2.1904297,3.4038086l4.9233398,0.0009766z"/>
			</g>
			<g>
				<path d="M14.6210938,32.8359375c1.1889648,1.1894531,1.1889648,2.9746094,1.1889648,2.9746094l0.5332031,0.0043945c0,0,0-1.8232422,1.1557617-2.9790039"/>
			</g>
			<g>
				<path d="M14.8588867,36.6567383c1.1889648-1.1884766,2.9741211-1.1884766,2.9741211-1.1884766l0.0043945-0.5336914c0,0-1.8232422,0-2.9785156-1.1557617"/>
			</g>
			<g>
				<path d="M17.2436523,36.6660156c-1.1889648-1.1889648-2.9746094-1.1889648-2.9746094-1.1889648l-0.0039063-0.5336914c0,0,1.8227539,0,2.9785156-1.1557617"/>
			</g>
		</g>
		<g style="&st2;">
			<path d="M148.3154297,210.9423828c0-1.1337891,0.9472656-2.0527344,2.1171875-2.0527344c1.1679688,0,2.1162109,0.9189453,2.1162109,2.0527344c0,1.1347656-0.9482422,2.0537109-2.1162109,2.0537109c-1.1699219,0-2.1171875-0.9189453-2.1171875-2.0537109z"/>
			<path d="M145.5888672,207.0576172c0-1.1328125,0.9482422-2.0527344,2.1171875-2.0527344c1.1699219,0,2.1171875,0.9199219,2.1171875,2.0527344c0,1.1347656-0.9472656,2.0537109-2.1171875,2.0537109c-1.1689453,0-2.1171875-0.9189453-2.1171875-2.0537109z"/>
			<path d="M151.0107422,207.0429688c0-0.4150391,0.1269531-0.8017578,0.3447266-1.1240234c0.3779297-0.5595703,1.0302734-0.9287109,1.7724609-0.9287109c1.1679688,0,2.1162109,0.9189453,2.1162109,2.0527344s-0.9482422,2.0537109-2.1162109,2.0537109
				c-1.1699219,0-2.1171875-0.9199219-2.1171875-2.0537109z"/>
			<g>
				<path d="M147.9492188,203.0576172c1.0449219,0,1.5947266,0.8496094,1.8837891,1.7001953s0.3154297,1.7001953,0.3154297,1.7001953l0.5341797,0.0048828c0,0,0.0996094-3.4023438,2.1894531-3.4033203l-4.9228516-0.0019531z"/>
			</g>
			<g>
				<path d="M151.8710938,209.4365234c-1.1884766-1.1884766-1.1884766-2.9736328-1.1884766-2.9736328l-0.5341797-0.0048828c0,0,0,1.8242188-1.1552734,2.9785156"/>
			</g>
			<g>
				<path d="M151.6328125,205.6162109c-1.1884766,1.1894531-2.9736328,1.1894531-2.9736328,1.1894531l-0.0048828,0.5332031c0,0,1.8232422,0,2.9785156,1.1552734"/>
			</g>
			<g>
				<path d="M149.2490234,205.6074219c1.1884766,1.1884766,2.9736328,1.1884766,2.9736328,1.1884766l0.0048828,0.5341797c0,0-1.8242188,0-2.9785156,1.1552734"/>
			</g>
		</g>
	</g>
</svg>
