<?xml version="1.0" encoding="utf-8"?>
<!-- Generator: Adobe Illustrator 9.0, SVG Export Plug-In  -->
<!DOCTYPE svg PUBLIC "-//W3C//DTD SVG 20000303 Stylable//EN"   "http://www.w3.org/TR/2000/03/WD-SVG-20000303/DTD/svg-20000303-stylable.dtd" [
	<!ENTITY st0 "fill:#FFFFFF;stroke-width:0.5;">
	<!ENTITY st1 "fill-rule:nonzero;clip-rule:nonzero;fill:#E61408;stroke:#000000;stroke-miterlimit:4;">
	<!ENTITY st2 "stroke:none;">
]>
<!-- This set of SVG files is a complete cards game with figures, numbers	-->
<!--    and backs of cards completely designed in SVG.				-->
<!--    									-->
<!--    Copyright (C) 2004 David Bellot						-->
<!--										-->
<!--    This library is free software; you can redistribute it and/or		-->
<!--    modify it under the terms of the GNU Lesser General Public		-->
<!--    License as published by the Free Software Foundation; either		-->
<!--    version 2 of the License, or (at your option) any later version		-->
<!--										-->
<!--    This library is distributed in the hope that it will be useful,		-->
<!--    but WITHOUT ANY WARRANTY; without even the implied warranty of		-->
<!--    MERCHANTABILITY or FITNESS FOR A PARTICULAR PURPOSE.  See the GNU	-->
<!--    Lesser General Public License for more details.				-->
<!--										-->
<!--    You should have received a copy of the GNU Lesser General Public	-->
<!--    License along with this library; if not, write to the Free Software	-->
<!--    Foundation, Inc., 59 Temple Place, Suite 330, Boston, MA 02111-1307  USA-->
<!--										-->
<!--    Contact the author David Bellot at bellot@stat.berkeley.edu or 		-->
<!--    david.bellot@free.fr or yimyom@users.sourceforge.net			-->
<svg  width="167.0878906pt" height="242.6669922pt" viewBox="0 0 167.0878906 242.6669922" xml:space="preserve">
	<g id="Layer_x0020_1" style="&st1;">
		<path style="&st0;" d="M166.8378906,235.5478516c0,3.7753906-3.0859375,6.8691406-6.8691406,6.8691406H7.1108398c-3.7744141,0-6.8608398-3.09375-6.8608398-6.8691406V7.1201172C0.25,3.3452148,3.3364258,0.25,7.1108398,0.25H159.96875
			c3.7832031,0,6.8691406,3.0952148,6.8691406,6.8701172v228.4277344z"/>
		<g>
			<path style="&st2;" d="M33.1777344,21.9067383c0.0131836,9.5805664,12.0224609,16.5576172,15.5380859,24.1435547c3.546875-7.5678711,15.5913086-14.4824219,15.6542969-24.0629883c0.0268555-4.5175781-3.4707031-8.1938477-7.777832-8.203125
				c-4.3076172-0.0087891-7.8051758,3.6411133-7.8183594,8.1674805c0.0131836-4.5263672-3.4707031-8.1943359-7.777832-8.203125c-4.3071289-0.0180664-7.8051758,3.640625-7.8183594,8.1582031z"/>
		</g>
		<g>
			<path style="&st2;" d="M33.1777344,220.7607422c0.0131836-9.5800781,12.0224609-16.5488281,15.5380859-24.1425781c3.546875,7.5761719,15.5913086,14.4902344,15.6542969,24.0625c0.0268555,4.5263672-3.4707031,8.203125-7.777832,8.2109375
				c-4.3076172,0.0097656-7.8051758-3.6484375-7.8183594-8.1660156c0.0131836,4.5175781-3.4707031,8.1933594-7.777832,8.203125c-4.3071289,0.0078125-7.8051758-3.6416016-7.8183594-8.1679688z"/>
		</g>
		<g>
			<path style="&st2;" d="M133.9101563,21.9067383c-0.0126953,9.5805664-12.0214844,16.5576172-15.5371094,24.1435547c-3.546875-7.5678711-15.5917969-14.4824219-15.6542969-24.0629883c-0.0273438-4.5175781,3.4707031-8.1938477,7.7773438-8.203125
				c4.3076172-0.0087891,7.8046875,3.6411133,7.8183594,8.1674805c-0.0136719-4.5263672,3.4707031-8.1943359,7.7783203-8.203125c4.3076172-0.0180664,7.8046875,3.640625,7.8173828,8.1582031z"/>
		</g>
		<g>
			<path style="&st2;" d="M133.9101563,220.7607422c-0.0126953-9.5800781-12.0214844-16.5488281-15.5371094-24.1425781c-3.546875,7.5761719-15.5917969,14.4902344-15.6542969,24.0625c-0.0273438,4.5263672,3.4707031,8.203125,7.7773438,8.2109375
				c4.3076172,0.0097656,7.8046875-3.6484375,7.8183594-8.1660156c-0.0136719,4.5175781,3.4707031,8.1933594,7.7783203,8.203125c4.3076172,0.0078125,7.8046875-3.6416016,7.8173828-8.1679688z"/>
		</g>
		<g>
			<path style="&st2;" d="M64.3701172,113.5068359c-0.0136719,9.5800781-12.0224609,16.5576172-15.5380859,24.1425781c-3.546875-7.5664063-15.5917969-14.4824219-15.6542969-24.0620117c-0.0268555-4.5263672,3.4707031-8.1938477,7.777832-8.203125
				c4.3071289-0.0087891,7.8046875,3.640625,7.8183594,8.1669922c-0.0136719-4.5263672,3.4707031-8.1938477,7.777832-8.2114258c4.3071289-0.0092773,7.8046875,3.6494141,7.8183594,8.1669922z"/>
		</g>
		<g>
			<path style="&st2;" d="M102.71875,113.5068359c0.0175781,9.5800781,12.0224609,16.5576172,15.5371094,24.1425781c3.5527344-7.5664063,15.5917969-14.4824219,15.6542969-24.0620117c0.0273438-4.5263672-3.4707031-8.1938477-7.7734375-8.203125
				c-4.3105469-0.0087891-7.8085938,3.640625-7.8173828,8.1669922c0.0087891-4.5263672-3.4716797-8.1938477-7.7822266-8.2114258c-4.3027344-0.0092773-7.8007813,3.6494141-7.8183594,8.1669922z"/>
		</g>
		<g>
			<path style="&st2;" d="M13.777832,15.324707c0.2402344-0.4189453,0.5039063-0.7329102,0.7890625-0.9423828c0.2851563-0.2089844,0.6005859-0.3139648,0.9462891-0.3139648c0.8193359,0,1.4638672,0.5405273,1.9345703,1.6206055
				c0.4697266,1.0805664,0.7050781,2.5644531,0.7050781,4.4511719c0,1.9916992-0.2666016,3.5297852-0.7978516,4.6142578c-0.5322266,1.0844727-1.2861328,1.6264648-2.2607422,1.6264648c-1.0957031,0-1.9277344-0.7431641-2.4960938-2.2294922
				s-0.8515625-3.6713867-0.8515625-6.5556641c0-3.2788086,0.3134766-5.7539063,0.9404297-7.4257813s1.5585938-2.5078125,2.796875-2.5078125c0.3212891,0,0.6669922,0.0600586,1.0371094,0.1796875c0.3701172,0.1201172,0.7675781,0.2998047,1.1943359,0.5390625v3.1875
				h-0.65625c-0.0878906-0.8212891-0.2578125-1.4428711-0.5097656-1.8657227c-0.2509766-0.4228516-0.5722656-0.6342773-0.9638672-0.6342773c-0.6308594,0-1.0878906,0.4912109-1.3710938,1.4736328s-0.4287109,2.5766602-0.4365234,4.7827148z M14.965332,24.9746094
				c0.3720703,0,0.6367188-0.3530273,0.7939453-1.0595703c0.1582031-0.7060547,0.2373047-1.9311523,0.2373047-3.6748047c0-1.7431641-0.0791016-2.9682617-0.2373047-3.6748047c-0.1572266-0.7060547-0.421875-1.0595703-0.7939453-1.0595703
				s-0.6376953,0.3535156-0.7949219,1.0595703c-0.1582031,0.706543-0.2363281,1.9316406-0.2363281,3.6748047c0,1.7436523,0.078125,2.96875,0.2363281,3.6748047c0.1572266,0.706543,0.4228516,1.0595703,0.7949219,1.0595703z"/>
		</g>
		<g>
			<path style="&st2;" d="M152.6757813,227.3310547c-0.2402344,0.4189453-0.5039063,0.7324219-0.7890625,0.9423828c-0.2851563,0.2089844-0.6015625,0.3134766-0.9472656,0.3134766c-0.8183594,0-1.4628906-0.5400391-1.9335938-1.6201172
				c-0.4707031-1.0810547-0.7050781-2.5644531-0.7050781-4.4511719c0-1.9912109,0.265625-3.5302734,0.796875-4.6142578c0.5332031-1.0839844,1.2871094-1.6269531,2.2617188-1.6269531c1.0957031,0,1.9277344,0.7441406,2.4960938,2.2304688
				s0.8515625,3.6708984,0.8515625,6.5546875c0,3.2792969-0.3144531,5.7539063-0.9414063,7.4257813s-1.5585938,2.5078125-2.796875,2.5078125c-0.3203125,0-0.6660156-0.0595703-1.0371094-0.1796875c-0.3691406-0.1191406-0.7675781-0.2988281-1.1933594-0.5390625
				v-3.1875h0.65625c0.0878906,0.8222656,0.2578125,1.4433594,0.5097656,1.8662109c0.25,0.4228516,0.5722656,0.6337891,0.9628906,0.6337891c0.6308594,0,1.0878906-0.4902344,1.3710938-1.4726563s0.4296875-2.5771484,0.4375-4.7832031z M151.4882813,217.6806641
				c-0.3730469,0-0.6367188,0.3535156-0.7949219,1.0605469c-0.1582031,0.7050781-0.2363281,1.9306641-0.2363281,3.6738281c0,1.7441406,0.078125,2.96875,0.2363281,3.6757813c0.1582031,0.7050781,0.421875,1.0585938,0.7949219,1.0585938
				c0.3710938,0,0.6367188-0.3535156,0.7949219-1.0585938c0.1582031-0.7070313,0.2363281-1.9316406,0.2363281-3.6757813c0-1.7431641-0.078125-2.96875-0.2363281-3.6738281c-0.1582031-0.7070313-0.4238281-1.0605469-0.7949219-1.0605469z"/>
		</g>
		<g>
			<path style="&st2;" d="M11.4853516,31.6108398c0.0029297,2.8735352,3.605957,4.9667969,4.659668,7.2431641c1.0654297-2.2709961,4.6791992-4.3457031,4.6962891-7.2197266c0.0083008-1.3564453-1.0410156-2.4580078-2.3330078-2.4614258
				s-2.3413086,1.0932617-2.3447266,2.449707c0.003418-1.3564453-1.0410156-2.4584961-2.3330078-2.4614258c-1.2924805-0.003418-2.3417969,1.0927734-2.3452148,2.449707z"/>
		</g>
		<g>
			<path style="&st2;" d="M154.8632813,210.9082031c-0.0039063-2.8740234-3.6074219-4.9658203-4.6601563-7.2431641c-1.0654297,2.2714844-4.6796875,4.3457031-4.6972656,7.2197266c-0.0078125,1.3564453,1.0410156,2.4580078,2.3339844,2.4619141
				c1.2910156,0.0029297,2.3417969-1.09375,2.34375-2.4501953c-0.0019531,1.3564453,1.0419922,2.4580078,2.3339844,2.4619141c1.2919922,0.0029297,2.3417969-1.09375,2.3457031-2.4501953z"/>
		</g>
	</g>
</svg>
