<?xml version="1.0" encoding="utf-8"?>
<!-- Generator: Adobe Illustrator 9.0, SVG Export Plug-In  -->
<!DOCTYPE svg PUBLIC "-//W3C//DTD SVG 20000303 Stylable//EN"   "http://www.w3.org/TR/2000/03/WD-SVG-20000303/DTD/svg-20000303-stylable.dtd" [
	<!ENTITY st0 "fill:#FFFFFF;stroke-width:0.5;">
	<!ENTITY st1 "fill-rule:nonzero;clip-rule:nonzero;stroke:#000000;stroke-miterlimit:4;">
	<!ENTITY st2 "stroke:none;">
]>
<!-- This set of SVG files is a complete cards game with figures, numbers	-->
<!--    and backs of cards completely designed in SVG.				-->
<!--    									-->
<!--    Copyright (C) 2004 David Bellot						-->
<!--										-->
<!--    This library is free software; you can redistribute it and/or		-->
<!--    modify it under the terms of the GNU Lesser General Public		-->
<!--    License as published by the Free Software Foundation; either		-->
<!--    version 2 of the License, or (at your option) any later version		-->
<!--										-->
<!--    This library is distributed in the hope that it will be useful,		-->
<!--    but WITHOUT ANY WARRANTY; without even the implied warranty of		-->
<!--    MERCHANTABILITY or FITNESS FOR A PARTICULAR PURPOSE.  See the GNU	-->
<!--    Lesser General Public License for more details.				-->
<!--										-->
<!--    You should have received a copy of the GNU Lesser General Public	-->
<!--    License along with this library; if not, write to the Free Software	-->
<!--    Foundation, Inc., 59 Temple Place, Suite 330, Boston, MA 02111-1307  USA-->
<!--										-->
<!--    Contact the author David Bellot at bellot@stat.berkeley.edu or 		-->
<!--    david.bellot@free.fr or yimyom@users.sourceforge.net			-->
<svg  width="167.0869141pt" height="242.6669922pt" viewBox="0 0 167.0869141 242.6669922" xml:space="preserve">
	<g id="Layer_x0020_1" style="&st1;">
		<path style="&st0;" d="M166.8369141,235.5478516c0,3.7773438-3.0869141,6.8691406-6.8710938,6.8691406H7.1108398c-3.7749023,0-6.8608398-3.0917969-6.8608398-6.8691406V7.1196289C0.25,3.3427734,3.3359375,0.25,7.1108398,0.25h152.8549805
			c3.7841797,0,6.8710938,3.0927734,6.8710938,6.8696289v228.4282227z"/>
		<g style="&st2;">
			<g>
				<path d="M57.1064453,46.1113281c-3.4790039,0.0039063-5.309082-3.706543-6.2695313-7.4160156c-0.9604492-3.7109375-1.0512695-7.4233398-1.0512695-7.4233398l-1.7753906-0.0175781c0,0-0.3325195,14.847168-7.2905273,14.8535156l16.3867188,0.003418z"/>
			</g>
			<path d="M62.9941406,31.2685547c-0.0307617-7.2426758-10.8730469-12.4951172-14.0576172-18.2265625c-3.1821289,5.7314453-14.0249023,10.9838867-14.0556641,18.2265625c-0.0141602,3.4199219,3.1469727,6.1899414,7.0288086,6.1899414
				c3.8808594,0,7.0268555-2.7700195,7.0268555-6.1899414c0,3.4199219,3.1479492,6.1899414,7.0297852,6.1899414s7.027832-2.7700195,7.027832-6.1899414z"/>
		</g>
		<g style="&st2;">
			<g>
				<path d="M126.8115234,46.1113281c-3.4794922,0.0039063-5.3105469-3.706543-6.2705078-7.4160156c-0.9599609-3.7109375-1.0517578-7.4233398-1.0517578-7.4233398l-1.7744141-0.0175781c0,0-0.3330078,14.847168-7.2910156,14.8535156l16.3876953,0.003418z"/>
			</g>
			<path d="M132.6982422,31.2685547c-0.03125-7.2426758-10.8730469-12.4951172-14.0566406-18.2265625c-3.1826172,5.7314453-14.0253906,10.9838867-14.0566406,18.2265625c-0.0136719,3.4199219,3.1464844,6.1899414,7.0292969,6.1899414
				c3.8808594,0,7.0273438-2.7700195,7.0273438-6.1899414c0,3.4199219,3.1474609,6.1899414,7.0292969,6.1899414c3.8808594,0,7.0273438-2.7700195,7.0273438-6.1899414z"/>
		</g>
		<g style="&st2;">
			<g>
				<path d="M93.8300781,89.8520508c-3.4794922,0.0039063-5.3095703-3.706543-6.2705078-7.4160156c-0.9589844-3.7109375-1.0507813-7.4233398-1.0507813-7.4233398l-1.7753906-0.0175781c0,0-0.3320313,14.847168-7.2905273,14.8535156l16.387207,0.003418z"/>
			</g>
			<path d="M99.7177734,75.0092773c-0.03125-7.2426758-10.8730469-12.4951172-14.0576172-18.2265625c-3.1821289,5.7314453-14.0249023,10.9838867-14.0556641,18.2265625c-0.0141602,3.4199219,3.1469727,6.1899414,7.0288086,6.1899414
				c3.8808594,0,7.0268555-2.7700195,7.0268555-6.1899414c0,3.4199219,3.1474609,6.1899414,7.0302734,6.1899414c3.8808594,0,7.0273438-2.7700195,7.0273438-6.1899414z"/>
		</g>
		<g style="&st2;">
			<g>
				<path d="M57.1064453,137.5693359c-3.4790039,0.0039063-5.309082-3.7070313-6.2695313-7.4160156c-0.9604492-3.7109375-1.0512695-7.4238281-1.0512695-7.4238281l-1.7753906-0.0175781c0,0-0.3325195,14.8476563-7.2905273,14.8535156l16.3867188,0.0039063z"/>
			</g>
			<path d="M62.9941406,122.7265625c-0.0307617-7.2426758-10.8730469-12.4956055-14.0576172-18.2270508c-3.1821289,5.7314453-14.0249023,10.984375-14.0556641,18.2270508c-0.0141602,3.4189453,3.1469727,6.1904297,7.0288086,6.1904297
				c3.8808594,0,7.0268555-2.7714844,7.0268555-6.1904297c0,3.4189453,3.1479492,6.1904297,7.0297852,6.1904297s7.027832-2.7714844,7.027832-6.1904297z"/>
		</g>
		<g style="&st2;">
			<g>
				<path d="M126.5771484,137.5693359c-3.4785156,0.0039063-5.3085938-3.7070313-6.2695313-7.4160156c-0.9609375-3.7109375-1.0507813-7.4238281-1.0507813-7.4238281l-1.7753906-0.0175781c0,0-0.3339844,14.8476563-7.2910156,14.8535156l16.3867188,0.0039063z"/>
			</g>
			<path d="M132.4648438,122.7265625c-0.0302734-7.2426758-10.8730469-12.4956055-14.0576172-18.2270508c-3.1816406,5.7314453-14.0253906,10.984375-14.0556641,18.2270508c-0.0146484,3.4189453,3.1474609,6.1904297,7.0283203,6.1904297
				s7.0273438-2.7714844,7.0273438-6.1904297c0,3.4189453,3.1484375,6.1904297,7.0292969,6.1904297c3.8828125,0,7.0283203-2.7714844,7.0283203-6.1904297z"/>
		</g>
		<g style="&st2;">
			<g>
				<path d="M40.7182617,196.7910156c6.9580078,0.0068359,7.2910156,14.8544922,7.2910156,14.8544922l1.7749023-0.0185547c0,0,0.0913086-3.7119141,1.0512695-7.4228516c0.9609375-3.7089844,2.7910156-7.4199219,6.2695313-7.4160156l-16.3867188,0.0029297z"/>
			</g>
			<path d="M62.9926758,211.6298828c-0.0302734,7.2431641-10.8730469,12.4960938-14.0576172,18.2275391c-3.1816406-5.7314453-14.0249023-10.984375-14.0556641-18.2275391c-0.0136719-3.4189453,3.1469727-6.1894531,7.0288086-6.1894531
				c3.8813477,0,7.0268555,2.7705078,7.0268555,6.1894531c0-3.4189453,3.1484375-6.1894531,7.0297852-6.1894531c3.8818359,0,7.027832,2.7705078,7.027832,6.1894531z"/>
		</g>
		<g style="&st2;">
			<g>
				<path d="M110.4228516,196.7910156c6.9570313,0.0068359,7.2910156,14.8544922,7.2910156,14.8544922l1.7753906-0.0185547c0,0,0.0898438-3.7119141,1.0507813-7.4228516c0.9609375-3.7089844,2.7910156-7.4199219,6.2695313-7.4160156l-16.3867188,0.0029297z"/>
			</g>
			<path d="M132.6972656,211.6298828c-0.0302734,7.2431641-10.8730469,12.4960938-14.0576172,18.2275391c-3.1816406-5.7314453-14.0253906-10.984375-14.0556641-18.2275391c-0.0146484-3.4189453,3.1474609-6.1894531,7.0283203-6.1894531
				s7.0273438,2.7705078,7.0273438,6.1894531c0-3.4189453,3.1484375-6.1894531,7.0292969-6.1894531c3.8828125,0,7.0283203,2.7705078,7.0283203,6.1894531z"/>
		</g>
		<g>
			<path style="&st2;" d="M17.9106445,10.8251953l-3.3212891,14.9633789h-1.0986328l3.2363281-14.625h-3.9726563v2.4375h-0.75v-5.84375h5.90625v3.0678711z"/>
		</g>
		<g>
			<path style="&st2;" d="M148.6826172,231.3330078l3.3222656-14.9628906h1.0976563l-3.2363281,14.625h3.9726563v-2.4375h0.75v5.84375h-5.90625v-3.0683594z"/>
		</g>
		<g style="&st2;">
			<g>
				<path d="M18.9575195,39.2822266c-1.0947266,0.0009766-1.6713867-1.1669922-1.9736328-2.3349609c-0.3022461-1.168457-0.3310547-2.3374023-0.3310547-2.3374023l-0.5585938-0.0053711c0,0-0.1049805,4.6743164-2.2958984,4.6767578l5.1591797,0.0009766z"/>
			</g>
			<path d="M20.8115234,34.6088867c-0.0097656-2.2802734-3.4233398-3.934082-4.4257813-5.7382813c-1.0019531,1.8041992-4.4155273,3.4580078-4.425293,5.7382813c-0.0048828,1.0766602,0.9902344,1.9492188,2.2128906,1.9492188
				c1.2216797,0,2.2124023-0.8725586,2.2124023-1.9492188c0,1.0766602,0.9907227,1.9492188,2.2128906,1.9492188s2.2128906-0.8725586,2.2128906-1.9492188z"/>
		</g>
		<g style="&st2;">
			<g>
				<path d="M147.9443359,202.9482422c1.0947266,0,1.6708984,1.1679688,1.9726563,2.3359375c0.3027344,1.1679688,0.3320313,2.3369141,0.3320313,2.3369141l0.5585938,0.0048828c0,0,0.1054688-4.6738281,2.2949219-4.6757813l-5.1582031-0.0019531z"/>
			</g>
			<path d="M146.0898438,207.6220703c0.0097656,2.2802734,3.4228516,3.9335938,4.4267578,5.7382813c1.0019531-1.8046875,4.4150391-3.4580078,4.4248047-5.7382813c0.0048828-1.0761719-0.9912109-1.9492188-2.2138672-1.9492188
				c-1.2207031,0-2.2109375,0.8730469-2.2109375,1.9492188c0-1.0761719-0.9921875-1.9492188-2.2138672-1.9492188s-2.2128906,0.8730469-2.2128906,1.9492188z"/>
		</g>
	</g>
</svg>
