<?xml version="1.0" encoding="utf-8"?>
<!-- Generator: Adobe Illustrator 9.0, SVG Export Plug-In  -->
<!DOCTYPE svg PUBLIC "-//W3C//DTD SVG 20000303 Stylable//EN"   "http://www.w3.org/TR/2000/03/WD-SVG-20000303/DTD/svg-20000303-stylable.dtd" [
	<!ENTITY st0 "fill:#FFFFFF;stroke-width:0.5;">
	<!ENTITY st1 "fill-rule:nonzero;clip-rule:nonzero;stroke:#000000;stroke-miterlimit:4;">
	<!ENTITY st2 "stroke:none;">
]>
<!-- This set of SVG files is a complete cards game with figures, numbers	-->
<!--    and backs of cards completely designed in SVG.				-->
<!--    									-->
<!--    Copyright (C) 2004 David Bellot						-->
<!--										-->
<!--    This library is free software; you can redistribute it and/or		-->
<!--    modify it under the terms of the GNU Lesser General Public		-->
<!--    License as published by the Free Software Foundation; either		-->
<!--    version 2 of the License, or (at your option) any later version		-->
<!--										-->
<!--    This library is distributed in the hope that it will be useful,		-->
<!--    but WITHOUT ANY WARRANTY; without even the implied warranty of		-->
<!--    MERCHANTABILITY or FITNESS FOR A PARTICULAR PURPOSE.  See the GNU	-->
<!--    Lesser General Public License for more details.				-->
<!--										-->
<!--    You should have received a copy of the GNU Lesser General Public	-->
<!--    License along with this library; if not, write to the Free Software	-->
<!--    Foundation, Inc., 59 Temple Place, Suite 330, Boston, MA 02111-1307  USA-->
<!--										-->
<!--    Contact the author David Bellot at bellot@stat.berkeley.edu or 		-->
<!--    david.bellot@free.fr or yimyom@users.sourceforge.net			-->
<svg  width="167.0869141pt" height="242.6674805pt" viewBox="0 0 167.0869141 242.6674805" xml:space="preserve">
	<g id="Layer_x0020_1" style="&st1;">
		<path style="&st0;" d="M166.8369141,235.5473633c0,3.7802734-3.0859375,6.8701172-6.8710938,6.8701172H7.1108398c-3.7744141,0-6.8608398-3.0898438-6.8608398-6.8701172V7.1201172C0.25,3.3452148,3.3364258,0.25,7.1108398,0.25h152.8549805
			c3.7851563,0,6.8710938,3.0952148,6.8710938,6.8701172v228.4272461z"/>
		<g style="&st2;">
			<path d="M125.7451172,19.918457c0,3.7753906-3.1542969,6.8339844-7.0458984,6.8339844s-7.0458984-3.0585938-7.0458984-6.8339844c0-3.7734375,3.1542969-6.8330078,7.0458984-6.8330078s7.0458984,3.0595703,7.0458984,6.8330078z"/>
			<path d="M134.8173828,32.8486328c0,3.7744141-3.1542969,6.8334961-7.046875,6.8334961c-3.890625,0-7.0449219-3.059082-7.0449219-6.8334961c0-3.7739258,3.1542969-6.8330078,7.0449219-6.8330078c3.8925781,0,7.046875,3.059082,7.046875,6.8330078z"/>
			<path d="M116.7744141,32.8989258c0,1.3823242-0.421875,2.668457-1.1503906,3.7436523c-1.2578125,1.8608398-3.4296875,3.0893555-5.8964844,3.0893555c-3.890625,0-7.0449219-3.0581055-7.0449219-6.8330078c0-3.7739258,3.1542969-6.8334961,7.0449219-6.8334961
				c3.8925781,0,7.046875,3.0595703,7.046875,6.8334961z"/>
			<g>
				<path d="M126.9628906,46.1621094c-3.4794922,0.0029297-5.3095703-2.8271484-6.2705078-5.6567383c-0.9589844-2.8300781-1.0498047-5.6611328-1.0498047-5.6611328l-1.7763672-0.0141602c0,0-0.3320313,11.3242188-7.2890625,11.3295898l16.3857422,0.0024414z"/>
			</g>
			<g>
				<path d="M113.9091797,24.9306641c3.9570313,3.9575195,3.9570313,9.8994141,3.9570313,9.8994141l1.7763672,0.0141602c0,0,0-6.0673828,3.8457031-9.9135742"/>
			</g>
			<g>
				<path d="M114.7021484,37.6474609c3.9570313-3.9570313,9.8984375-3.9570313,9.8984375-3.9570313l0.0136719-1.7758789c0,0-6.0664063,0-9.9121094-3.8461914"/>
			</g>
			<g>
				<path d="M122.6376953,37.6767578c-3.9570313-3.9570313-9.8984375-3.9570313-9.8984375-3.9570313l-0.0146484-1.7758789c0,0,6.0673828,0,9.9130859-3.8461914"/>
			</g>
		</g>
		<g style="&st2;">
			<path d="M55.2446289,19.918457c0,3.7753906-3.1538086,6.8339844-7.0454102,6.8339844c-3.8920898,0-7.0463867-3.0585938-7.0463867-6.8339844c0-3.7734375,3.1542969-6.8330078,7.0463867-6.8330078c3.8916016,0,7.0454102,3.0595703,7.0454102,6.8330078z"/>
			<path d="M64.3168945,32.8486328c0,3.7744141-3.1542969,6.8334961-7.0458984,6.8334961s-7.0458984-3.059082-7.0458984-6.8334961c0-3.7739258,3.1542969-6.8330078,7.0458984-6.8330078s7.0458984,3.059082,7.0458984,6.8330078z"/>
			<path d="M46.2749023,32.8989258c0,1.3823242-0.4228516,2.668457-1.1503906,3.7436523c-1.2587891,1.8608398-3.4296875,3.0893555-5.8964844,3.0893555c-3.8916016,0-7.0449219-3.0581055-7.0449219-6.8330078c0-3.7739258,3.1533203-6.8334961,7.0449219-6.8334961
				s7.046875,3.0595703,7.046875,6.8334961z"/>
			<g>
				<path d="M56.4628906,46.1621094c-3.4790039,0.0029297-5.309082-2.8271484-6.2700195-5.6567383c-0.9599609-2.8300781-1.050293-5.6611328-1.050293-5.6611328l-1.7758789-0.0141602c0,0-0.3330078,11.3242188-7.2900391,11.3295898l16.3862305,0.0024414z"/>
			</g>
			<g>
				<path d="M43.409668,24.9306641c3.9570313,3.9575195,3.9570313,9.8994141,3.9570313,9.8994141l1.7758789,0.0141602c0,0,0-6.0673828,3.8457031-9.9135742"/>
			</g>
			<g>
				<path d="M44.2016602,37.6474609c3.9570313-3.9570313,9.8989258-3.9570313,9.8989258-3.9570313l0.0141602-1.7758789c0,0-6.0673828,0-9.9130859-3.8461914"/>
			</g>
			<g>
				<path d="M52.1381836,37.6767578c-3.9575195-3.9570313-9.8994141-3.9570313-9.8994141-3.9570313l-0.0141602-1.7758789c0,0,6.0678711,0,9.9135742-3.8461914"/>
			</g>
		</g>
		<g style="&st2;">
			<path d="M92.2451172,63.668457c0,3.7753906-3.1542969,6.8339844-7.0458984,6.8339844c-3.8920898,0-7.0463867-3.0585938-7.0463867-6.8339844c0-3.7734375,3.1542969-6.8330078,7.0463867-6.8330078c3.8916016,0,7.0458984,3.0595703,7.0458984,6.8330078z"/>
			<path d="M101.3173828,76.5986328c0,3.7744141-3.1542969,6.8334961-7.046875,6.8334961c-3.890625,0-7.0449219-3.059082-7.0449219-6.8334961c0-3.7739258,3.1542969-6.8330078,7.0449219-6.8330078c3.8925781,0,7.046875,3.059082,7.046875,6.8330078z"/>
			<path d="M83.2749023,76.6489258c0,1.3823242-0.4228516,2.668457-1.1503906,3.7436523c-1.2587891,1.8608398-3.4296875,3.0893555-5.8964844,3.0893555c-3.8916016,0-7.0449219-3.0581055-7.0449219-6.8330078c0-3.7739258,3.1533203-6.8334961,7.0449219-6.8334961
				s7.046875,3.0595703,7.046875,6.8334961z"/>
			<g>
				<path d="M93.4628906,89.9121094c-3.4794922,0.0029297-5.3095703-2.8271484-6.2705078-5.6567383c-0.9589844-2.8300781-1.0498047-5.6611328-1.0498047-5.6611328l-1.7763672-0.0141602c0,0-0.3320313,11.3242188-7.2895508,11.3295898l16.3862305,0.0024414z"/>
			</g>
			<g>
				<path d="M80.409668,68.6806641c3.956543,3.9575195,3.956543,9.8994141,3.956543,9.8994141l1.7763672,0.0141602c0,0,0-6.0673828,3.8457031-9.9135742"/>
			</g>
			<g>
				<path d="M81.2016602,81.3974609c3.9575195-3.9570313,9.8989258-3.9570313,9.8989258-3.9570313l0.0136719-1.7758789c0,0-6.0664063,0-9.9125977-3.8461914"/>
			</g>
			<g>
				<path d="M89.1376953,81.4267578c-3.9570313-3.9570313-9.8989258-3.9570313-9.8989258-3.9570313l-0.0141602-1.7758789c0,0,6.0673828,0,9.9130859-3.8461914"/>
			</g>
		</g>
		<g style="&st2;">
			<path d="M55.4946289,111.668457c0,3.7753906-3.1538086,6.8339844-7.0454102,6.8339844c-3.8920898,0-7.0463867-3.0585938-7.0463867-6.8339844c0-3.7734375,3.1542969-6.8330078,7.0463867-6.8330078c3.8916016,0,7.0454102,3.0595703,7.0454102,6.8330078z"/>
			<path d="M64.5668945,124.5991211c0,3.7734375-3.1542969,6.8330078-7.0458984,6.8330078s-7.0458984-3.0595703-7.0458984-6.8330078c0-3.7744141,3.1542969-6.8334961,7.0458984-6.8334961s7.0458984,3.059082,7.0458984,6.8334961z"/>
			<path d="M46.5249023,124.6489258c0,1.3818359-0.4228516,2.6689453-1.1503906,3.7431641c-1.2587891,1.8613281-3.4296875,3.0898438-5.8964844,3.0898438c-3.8916016,0-7.0449219-3.0585938-7.0449219-6.8330078c0-3.7739258,3.1533203-6.8334961,7.0449219-6.8334961
				s7.046875,3.0595703,7.046875,6.8334961z"/>
			<g>
				<path d="M56.7128906,137.9116211c-3.4790039,0.0039063-5.309082-2.8261719-6.2700195-5.65625c-0.9599609-2.8300781-1.050293-5.6611328-1.050293-5.6611328l-1.7758789-0.0146484c0,0-0.3330078,11.3242188-7.2900391,11.3300781l16.3862305,0.0019531z"/>
			</g>
			<g>
				<path d="M43.659668,116.6806641c3.9570313,3.9575195,3.9570313,9.8989258,3.9570313,9.8989258l1.7758789,0.0146484c0,0,0-6.0673828,3.8457031-9.9135742"/>
			</g>
			<g>
				<path d="M44.4516602,129.3979492c3.9570313-3.9570313,9.8989258-3.9570313,9.8989258-3.9570313l0.0141602-1.7763672c0,0-6.0673828,0-9.9130859-3.8461914"/>
			</g>
			<g>
				<path d="M52.3881836,129.4272461c-3.9575195-3.9570313-9.8994141-3.9570313-9.8994141-3.9570313l-0.0141602-1.7763672c0,0,6.0678711,0,9.9135742-3.8461914"/>
			</g>
		</g>
		<g style="&st2;">
			<path d="M124.2451172,111.668457c0,3.7753906-3.1542969,6.8339844-7.0458984,6.8339844s-7.0458984-3.0585938-7.0458984-6.8339844c0-3.7734375,3.1542969-6.8330078,7.0458984-6.8330078s7.0458984,3.0595703,7.0458984,6.8330078z"/>
			<path d="M133.3173828,124.5991211c0,3.7734375-3.1542969,6.8330078-7.046875,6.8330078c-3.890625,0-7.0449219-3.0595703-7.0449219-6.8330078c0-3.7744141,3.1542969-6.8334961,7.0449219-6.8334961c3.8925781,0,7.046875,3.059082,7.046875,6.8334961z"/>
			<path d="M115.2744141,124.6489258c0,1.3818359-0.421875,2.6689453-1.1503906,3.7431641c-1.2578125,1.8613281-3.4296875,3.0898438-5.8964844,3.0898438c-3.890625,0-7.0449219-3.0585938-7.0449219-6.8330078c0-3.7739258,3.1542969-6.8334961,7.0449219-6.8334961
				c3.8925781,0,7.046875,3.0595703,7.046875,6.8334961z"/>
			<g>
				<path d="M125.4628906,137.9116211c-3.4794922,0.0039063-5.3095703-2.8261719-6.2705078-5.65625c-0.9589844-2.8300781-1.0498047-5.6611328-1.0498047-5.6611328l-1.7763672-0.0146484c0,0-0.3320313,11.3242188-7.2890625,11.3300781l16.3857422,0.0019531z"/>
			</g>
			<g>
				<path d="M112.4091797,116.6806641c3.9570313,3.9575195,3.9570313,9.8989258,3.9570313,9.8989258l1.7763672,0.0146484c0,0,0-6.0673828,3.8457031-9.9135742"/>
			</g>
			<g>
				<path d="M113.2021484,129.3979492c3.9570313-3.9570313,9.8984375-3.9570313,9.8984375-3.9570313l0.0136719-1.7763672c0,0-6.0664063,0-9.9121094-3.8461914"/>
			</g>
			<g>
				<path d="M121.1376953,129.4272461c-3.9570313-3.9570313-9.8984375-3.9570313-9.8984375-3.9570313l-0.0146484-1.7763672c0,0,6.0673828,0,9.9130859-3.8461914"/>
			</g>
		</g>
		<g style="&st2;">
			<path d="M55.2578125,223.1557617c0-3.7753906-3.1533203-6.8339844-7.0454102-6.8339844c-3.8916016,0-7.0458984,3.0585938-7.0458984,6.8339844c0,3.7734375,3.1542969,6.8330078,7.0458984,6.8330078c3.8920898,0,7.0454102-3.0595703,7.0454102-6.8330078z"/>
			<path d="M64.3305664,210.2260742c0-3.7753906-3.1542969-6.8339844-7.0458984-6.8339844s-7.0458984,3.0585938-7.0458984,6.8339844c0,3.7734375,3.1542969,6.8320313,7.0458984,6.8320313s7.0458984-3.0585938,7.0458984-6.8320313z"/>
			<path d="M46.2885742,210.175293c0-1.3828125-0.4228516-2.6679688-1.1503906-3.7441406c-1.2587891-1.8603516-3.4296875-3.0888672-5.8964844-3.0888672c-3.8916016,0-7.0449219,3.0576172-7.0449219,6.8330078c0,3.7734375,3.1533203,6.8339844,7.0449219,6.8339844
				s7.046875-3.0605469,7.046875-6.8339844z"/>
			<g>
				<path d="M40.090332,196.9145508c6.9570313,0.0048828,7.2900391,11.3291016,7.2900391,11.3291016l1.7753906-0.0136719c0,0,0.090332-2.8310547,1.0507813-5.6611328c0.9609375-2.8291016,2.7910156-5.6591797,6.2700195-5.6572266l-16.3862305,0.0029297z"/>
			</g>
			<g>
				<path d="M43.4228516,218.144043c3.9575195-3.9580078,3.9575195-9.9003906,3.9575195-9.9003906l1.7753906-0.0136719c0,0,0,6.0673828,3.8461914,9.9140625"/>
			</g>
			<g>
				<path d="M44.2148438,205.4272461c3.9575195,3.9570313,9.8994141,3.9570313,9.8994141,3.9570313l0.0141602,1.7753906c0,0-6.0673828,0-9.9135742,3.8457031"/>
			</g>
			<g>
				<path d="M52.1518555,205.3979492c-3.9575195,3.9570313-9.8994141,3.9570313-9.8994141,3.9570313l-0.0141602,1.7753906c0,0,6.0673828,0,9.9135742,3.8457031"/>
			</g>
		</g>
		<g style="&st2;">
			<path d="M125.7099609,223.1557617c0-3.7753906-3.1542969-6.8339844-7.0449219-6.8339844c-3.8925781,0-7.046875,3.0585938-7.046875,6.8339844c0,3.7734375,3.1542969,6.8330078,7.046875,6.8330078c3.890625,0,7.0449219-3.0595703,7.0449219-6.8330078z"/>
			<path d="M134.7822266,210.2250977c0-3.7744141-3.1542969-6.8330078-7.0458984-6.8330078s-7.0458984,3.0585938-7.0458984,6.8330078s3.1542969,6.8330078,7.0458984,6.8330078s7.0458984-3.0585938,7.0458984-6.8330078z"/>
			<path d="M116.7412109,210.175293c0-1.3828125-0.4238281-2.6679688-1.1503906-3.7441406c-1.2597656-1.8603516-3.4306641-3.0898438-5.8964844-3.0898438c-3.8925781,0-7.0458984,3.0585938-7.0458984,6.8339844c0,3.7734375,3.1533203,6.8339844,7.0458984,6.8339844
				c3.890625,0,7.046875-3.0605469,7.046875-6.8339844z"/>
			<g>
				<path d="M110.5419922,196.9145508c6.9570313,0.0048828,7.2910156,11.3291016,7.2910156,11.3291016l1.7753906-0.0136719c0,0,0.0898438-2.8320313,1.0498047-5.6611328c0.9619141-2.8300781,2.7919922-5.6591797,6.2705078-5.6572266l-16.3867188,0.0029297z"/>
			</g>
			<g>
				<path d="M113.875,218.1430664c3.9580078-3.9570313,3.9580078-9.8994141,3.9580078-9.8994141l1.7753906-0.0136719c0,0,0,6.0673828,3.8457031,9.9130859"/>
			</g>
			<g>
				<path d="M114.6669922,205.4262695c3.9570313,3.9580078,9.8984375,3.9580078,9.8984375,3.9580078l0.015625,1.7753906c0,0-6.0683594,0-9.9140625,3.8457031"/>
			</g>
			<g>
				<path d="M122.6035156,205.3969727c-3.9580078,3.9580078-9.8994141,3.9580078-9.8994141,3.9580078l-0.0136719,1.7753906c0,0,6.0673828,0,9.9130859,3.8457031"/>
			</g>
		</g>
		<g>
			<path style="&st2;" d="M17.8588867,10.8696289l-3.3208008,14.9633789h-1.0986328l3.2358398-14.625h-3.9726563v2.4375h-0.75v-5.84375h5.90625v3.0678711z"/>
		</g>
		<g>
			<path style="&st2;" d="M148.6318359,231.3774414l3.3203125-14.9638672h1.0996094l-3.2363281,14.625h3.9726563v-2.4375h0.75v5.84375h-5.90625v-3.0673828z"/>
		</g>
		<g style="&st2;">
			<path d="M18.1362305,31.1645508c0,1.1342773-0.9472656,2.0537109-2.1171875,2.0537109c-1.1689453,0-2.1166992-0.9194336-2.1166992-2.0537109c0-1.1337891,0.9477539-2.0527344,2.1166992-2.0527344c1.1699219,0,2.1171875,0.9189453,2.1171875,2.0527344z"/>
			<path d="M20.8618164,35.0498047c0,1.1337891-0.9472656,2.0527344-2.1171875,2.0527344c-1.1689453,0-2.1162109-0.9189453-2.1162109-2.0527344c0-1.1342773,0.9472656-2.0532227,2.1162109-2.0532227c1.1699219,0,2.1171875,0.9189453,2.1171875,2.0532227z"/>
			<path d="M15.440918,35.0644531c0,0.4155273-0.1269531,0.8017578-0.3457031,1.125c-0.3779297,0.559082-1.0302734,0.9282227-1.7714844,0.9282227c-1.1689453,0-2.1162109-0.9189453-2.1162109-2.0532227c0-1.1337891,0.9472656-2.0527344,2.1162109-2.0527344
				c1.1699219,0,2.1171875,0.9189453,2.1171875,2.0527344z"/>
			<g>
				<path d="M18.5024414,39.0498047c-1.0458984,0.0004883-1.5957031-0.8496094-1.8837891-1.699707c-0.2890625-0.8500977-0.315918-1.7006836-0.315918-1.7006836l-0.5336914-0.0043945c0,0-0.0996094,3.4023438-2.1904297,3.4038086l4.9238281,0.0009766z"/>
			</g>
			<g>
				<path d="M14.5805664,32.6704102c1.1884766,1.1894531,1.1884766,2.9746094,1.1884766,2.9746094l0.5336914,0.0043945c0,0,0-1.8232422,1.1557617-2.9790039"/>
			</g>
			<g>
				<path d="M14.8178711,36.4912109c1.1894531-1.1884766,2.9746094-1.1884766,2.9746094-1.1884766l0.0039063-0.5336914c0,0-1.8222656,0-2.9785156-1.1557617"/>
			</g>
			<g>
				<path d="M17.2026367,36.5004883c-1.1884766-1.1889648-2.9741211-1.1889648-2.9741211-1.1889648l-0.0043945-0.5336914c0,0,1.8232422,0,2.9785156-1.1557617"/>
			</g>
		</g>
		<g style="&st2;">
			<path d="M148.2744141,210.7768555c0-1.1337891,0.9472656-2.0527344,2.1171875-2.0527344c1.1689453,0,2.1171875,0.9189453,2.1171875,2.0527344c0,1.1347656-0.9482422,2.0537109-2.1171875,2.0537109c-1.1699219,0-2.1171875-0.9189453-2.1171875-2.0537109z"/>
			<path d="M145.5478516,206.8920898c0-1.1328125,0.9492188-2.0527344,2.1171875-2.0527344c1.1699219,0,2.1171875,0.9199219,2.1171875,2.0527344c0,1.1347656-0.9472656,2.0537109-2.1171875,2.0537109c-1.1679688,0-2.1171875-0.9189453-2.1171875-2.0537109z"/>
			<path d="M150.9697266,206.8774414c0-0.4150391,0.1269531-0.8017578,0.3457031-1.1240234c0.3779297-0.5595703,1.0292969-0.9287109,1.7714844-0.9287109c1.1689453,0,2.1171875,0.9189453,2.1171875,2.0527344s-0.9482422,2.0537109-2.1171875,2.0537109
				c-1.1699219,0-2.1171875-0.9199219-2.1171875-2.0537109z"/>
			<g>
				<path d="M147.9091797,202.8920898c1.0449219,0,1.59375,0.8496094,1.8828125,1.7001953s0.3164063,1.7001953,0.3164063,1.7001953l0.5332031,0.0048828c0,0,0.0996094-3.4023438,2.1894531-3.4033203l-4.921875-0.0019531z"/>
			</g>
			<g>
				<path d="M151.8310547,209.2709961c-1.1894531-1.1884766-1.1894531-2.9736328-1.1894531-2.9736328l-0.5332031-0.0048828c0,0,0,1.8242188-1.15625,2.9785156"/>
			</g>
			<g>
				<path d="M151.5927734,205.4506836c-1.1894531,1.1894531-2.9746094,1.1894531-2.9746094,1.1894531l-0.0039063,0.5332031c0,0,1.8222656,0,2.9785156,1.1552734"/>
			</g>
			<g>
				<path d="M149.2080078,205.4418945c1.1894531,1.1884766,2.9746094,1.1884766,2.9746094,1.1884766l0.0039063,0.5341797c0,0-1.8222656,0-2.9785156,1.1552734"/>
			</g>
		</g>
	</g>
</svg>
