<?xml version="1.0" encoding="utf-8"?>
<!-- Generator: Adobe Illustrator 9.0, SVG Export Plug-In  -->
<!DOCTYPE svg PUBLIC "-//W3C//DTD SVG 20000303 Stylable//EN"   "http://www.w3.org/TR/2000/03/WD-SVG-20000303/DTD/svg-20000303-stylable.dtd" [
	<!ENTITY st0 "fill:#FFFFFF;stroke-width:0.5;">
	<!ENTITY st1 "fill-rule:nonzero;clip-rule:nonzero;fill:#E61408;stroke:#000000;stroke-miterlimit:4;">
	<!ENTITY st2 "stroke:none;">
]>
<!-- This set of SVG files is a complete cards game with figures, numbers	-->
<!--    and backs of cards completely designed in SVG.				-->
<!--    									-->
<!--    Copyright (C) 2004 David Bellot						-->
<!--										-->
<!--    This library is free software; you can redistribute it and/or		-->
<!--    modify it under the terms of the GNU Lesser General Public		-->
<!--    License as published by the Free Software Foundation; either		-->
<!--    version 2 of the License, or (at your option) any later version		-->
<!--										-->
<!--    This library is distributed in the hope that it will be useful,		-->
<!--    but WITHOUT ANY WARRANTY; without even the implied warranty of		-->
<!--    MERCHANTABILITY or FITNESS FOR A PARTICULAR PURPOSE.  See the GNU	-->
<!--    Lesser General Public License for more details.				-->
<!--										-->
<!--    You should have received a copy of the GNU Lesser General Public	-->
<!--    License along with this library; if not, write to the Free Software	-->
<!--    Foundation, Inc., 59 Temple Place, Suite 330, Boston, MA 02111-1307  USA-->
<!--										-->
<!--    Contact the author David Bellot at bellot@stat.berkeley.edu or 		-->
<!--    david.bellot@free.fr or yimyom@users.sourceforge.net			-->
<svg  width="167.0878906pt" height="242.6669922pt" viewBox="0 0 167.0878906 242.6669922" xml:space="preserve">
	<g id="Layer_x0020_1" style="&st1;">
		<path style="&st0;" d="M166.8378906,235.5478516c0,3.7753906-3.0859375,6.8691406-6.8691406,6.8691406H7.1108398c-3.7749023,0-6.8608398-3.09375-6.8608398-6.8691406V7.1201172C0.25,3.3452148,3.3359375,0.25,7.1108398,0.25H159.96875
			c3.7832031,0,6.8691406,3.0952148,6.8691406,6.8701172v228.4277344z"/>
		<g>
			<path style="&st2;" d="M33.1777344,21.9067383c0.0131836,9.5805664,12.0224609,16.5576172,15.5380859,24.1435547c3.5463867-7.5678711,15.5913086-14.4824219,15.6542969-24.0629883c0.0268555-4.5175781-3.4711914-8.1938477-7.777832-8.203125
				c-4.3076172-0.0087891-7.8051758,3.6411133-7.8183594,8.1674805c0.0131836-4.5263672-3.4707031-8.1943359-7.7783203-8.203125c-4.3066406-0.0180664-7.8046875,3.640625-7.8178711,8.1582031z"/>
		</g>
		<g>
			<path style="&st2;" d="M33.1777344,220.7607422c0.0131836-9.5800781,12.0224609-16.5488281,15.5380859-24.1425781c3.5463867,7.5761719,15.5913086,14.4902344,15.6542969,24.0625c0.0268555,4.5263672-3.4711914,8.203125-7.777832,8.2109375
				c-4.3076172,0.0097656-7.8051758-3.6484375-7.8183594-8.1660156c0.0131836,4.5175781-3.4707031,8.1933594-7.7783203,8.203125c-4.3066406,0.0078125-7.8046875-3.6416016-7.8178711-8.1679688z"/>
		</g>
		<g>
			<path style="&st2;" d="M133.9101563,21.9067383c-0.0126953,9.5805664-12.0214844,16.5576172-15.5371094,24.1435547c-3.546875-7.5678711-15.5917969-14.4824219-15.6542969-24.0629883c-0.0273438-4.5175781,3.4707031-8.1938477,7.7773438-8.203125
				c4.3076172-0.0087891,7.8046875,3.6411133,7.8183594,8.1674805c-0.0136719-4.5263672,3.4707031-8.1943359,7.7783203-8.203125c4.3076172-0.0180664,7.8046875,3.640625,7.8173828,8.1582031z"/>
		</g>
		<g>
			<path style="&st2;" d="M133.9101563,220.7607422c-0.0126953-9.5800781-12.0214844-16.5488281-15.5371094-24.1425781c-3.546875,7.5761719-15.5917969,14.4902344-15.6542969,24.0625c-0.0273438,4.5263672,3.4707031,8.203125,7.7773438,8.2109375
				c4.3076172,0.0097656,7.8046875-3.6484375,7.8183594-8.1660156c-0.0136719,4.5175781,3.4707031,8.1933594,7.7783203,8.203125c4.3076172,0.0078125,7.8046875-3.6416016,7.8173828-8.1679688z"/>
		</g>
		<g>
			<path style="&st2;" d="M64.3701172,113.5068359c-0.0136719,9.5800781-12.0224609,16.5576172-15.5380859,24.1425781c-3.546875-7.5664063-15.5917969-14.4824219-15.6542969-24.0620117c-0.0268555-4.5263672,3.4707031-8.1938477,7.777832-8.203125
				c4.3071289-0.0087891,7.8046875,3.640625,7.8183594,8.1669922c-0.0136719-4.5263672,3.4707031-8.1938477,7.777832-8.2114258c4.3071289-0.0092773,7.8046875,3.6494141,7.8183594,8.1669922z"/>
		</g>
		<g>
			<path style="&st2;" d="M102.71875,113.5068359c0.0175781,9.5800781,12.0224609,16.5576172,15.5371094,24.1425781c3.5527344-7.5664063,15.5917969-14.4824219,15.6542969-24.0620117c0.0273438-4.5263672-3.4707031-8.1938477-7.7734375-8.203125
				c-4.3105469-0.0087891-7.8085938,3.640625-7.8173828,8.1669922c0.0087891-4.5263672-3.4716797-8.1938477-7.7822266-8.2114258c-4.3027344-0.0092773-7.8007813,3.6494141-7.8183594,8.1669922z"/>
		</g>
		<g>
			<path style="&st2;" d="M101.0097656,64.2714844c-0.0136719,9.5805664-12.0224609,16.5581055-15.5371094,24.1435547C81.925293,80.847168,69.8803711,73.9326172,69.8178711,64.3520508c-0.0268555-4.5170898,3.4707031-8.1938477,7.777832-8.2026367
				s7.8046875,3.640625,7.8183594,8.1669922c-0.0136719-4.5263672,3.4707031-8.1938477,7.7773438-8.2026367c4.3076172-0.0180664,7.8046875,3.640625,7.8183594,8.1577148z"/>
		</g>
		<g>
			<path style="&st2;" d="M17.7797852,11.0737305l-3.3203125,14.9633789h-1.0986328l3.2353516-14.625h-3.9726563v2.4375h-0.75v-5.84375h5.90625v3.0678711z"/>
		</g>
		<g>
			<path style="&st2;" d="M148.5527344,231.5820313l3.3203125-14.9638672h1.0996094l-3.2363281,14.625h3.9726563v-2.4375h0.75v5.84375h-5.90625v-3.0673828z"/>
		</g>
		<g>
			<path style="&st2;" d="M11.425293,31.6108398c0.0029297,2.8735352,3.6064453,4.9667969,4.6601563,7.2431641c1.0644531-2.2709961,4.6787109-4.3457031,4.6962891-7.2197266c0.0078125-1.3564453-1.0410156-2.4580078-2.3334961-2.4614258
				c-1.2915039-0.003418-2.3413086,1.0932617-2.3447266,2.449707c0.003418-1.3564453-1.0415039-2.4584961-2.3330078-2.4614258c-1.2924805-0.003418-2.3422852,1.0927734-2.3452148,2.449707z"/>
		</g>
		<g>
			<path style="&st2;" d="M154.8027344,210.9082031c-0.0039063-2.8740234-3.6064453-4.9658203-4.6601563-7.2431641c-1.0644531,2.2714844-4.6796875,4.3457031-4.6962891,7.2197266c-0.0087891,1.3564453,1.0410156,2.4580078,2.3330078,2.4619141
				c1.2919922,0.0029297,2.3417969-1.09375,2.3447266-2.4501953c-0.0029297,1.3564453,1.0419922,2.4580078,2.3330078,2.4619141c1.2929688,0.0029297,2.3417969-1.09375,2.3457031-2.4501953z"/>
		</g>
	</g>
</svg>
