<?xml version="1.0" encoding="utf-8"?>
<!-- Generator: Adobe Illustrator 9.0, SVG Export Plug-In  -->
<!DOCTYPE svg PUBLIC "-//W3C//DTD SVG 20000303 Stylable//EN"   "http://www.w3.org/TR/2000/03/WD-SVG-20000303/DTD/svg-20000303-stylable.dtd" [
	<!ENTITY st0 "fill:#FFFFFF;stroke-width:0.5;">
	<!ENTITY st1 "fill-rule:nonzero;clip-rule:nonzero;stroke:#000000;stroke-miterlimit:4;">
	<!ENTITY st2 "stroke:none;">
]>
<!-- This set of SVG files is a complete cards game with figures, numbers	-->
<!--    and backs of cards completely designed in SVG.				-->
<!--    									-->
<!--    Copyright (C) 2004 David Bellot						-->
<!--										-->
<!--    This library is free software; you can redistribute it and/or		-->
<!--    modify it under the terms of the GNU Lesser General Public		-->
<!--    License as published by the Free Software Foundation; either		-->
<!--    version 2 of the License, or (at your option) any later version		-->
<!--										-->
<!--    This library is distributed in the hope that it will be useful,		-->
<!--    but WITHOUT ANY WARRANTY; without even the implied warranty of		-->
<!--    MERCHANTABILITY or FITNESS FOR A PARTICULAR PURPOSE.  See the GNU	-->
<!--    Lesser General Public License for more details.				-->
<!--										-->
<!--    You should have received a copy of the GNU Lesser General Public	-->
<!--    License along with this library; if not, write to the Free Software	-->
<!--    Foundation, Inc., 59 Temple Place, Suite 330, Boston, MA 02111-1307  USA-->
<!--										-->
<!--    Contact the author David Bellot at bellot@stat.berkeley.edu or 		-->
<!--    david.bellot@free.fr or yimyom@users.sourceforge.net			-->
<svg  width="167.0864258pt" height="242.6669922pt" viewBox="0 0 167.0864258 242.6669922" xml:space="preserve">
	<g id="Layer_x0020_1" style="&st1;">
		<path style="&st0;" d="M166.8364258,235.5478516c0,3.7773438-3.0859375,6.8691406-6.8691406,6.8691406H7.1113281c-3.7753906,0-6.8613281-3.0917969-6.8613281-6.8691406V7.1196289C0.25,3.3427734,3.3359375,0.25,7.1113281,0.25h152.855957
			c3.7832031,0,6.8691406,3.0927734,6.8691406,6.8696289v228.4282227z"/>
		<g style="&st2;">
			<g>
				<path d="M56.9897461,46.1113281c-3.4790039,0.0039063-5.309082-3.706543-6.2695313-7.4160156c-0.9604492-3.7109375-1.0512695-7.4233398-1.0512695-7.4233398l-1.7753906-0.0175781c0,0-0.3325195,14.847168-7.2905273,14.8535156l16.3867188,0.003418z"/>
			</g>
			<path d="M62.8774414,31.2685547c-0.0307617-7.2426758-10.8730469-12.4951172-14.0576172-18.2265625c-3.1821289,5.7314453-14.0249023,10.9838867-14.0556641,18.2265625c-0.0141602,3.4199219,3.1469727,6.1899414,7.0288086,6.1899414
				c3.8808594,0,7.0268555-2.7700195,7.0268555-6.1899414c0,3.4199219,3.1479492,6.1899414,7.0297852,6.1899414s7.027832-2.7700195,7.027832-6.1899414z"/>
		</g>
		<g style="&st2;">
			<g>
				<path d="M126.6938477,46.1113281c-3.4785156,0.0039063-5.3085938-3.706543-6.2695313-7.4160156c-0.9589844-3.7109375-1.0507813-7.4233398-1.0507813-7.4233398l-1.7753906-0.0175781c0,0-0.3320313,14.847168-7.2910156,14.8535156l16.3867188,0.003418z"/>
			</g>
			<path d="M132.5825195,31.2685547c-0.03125-7.2426758-10.8730469-12.4951172-14.0585938-18.2265625c-3.1816406,5.7314453-14.0253906,10.9838867-14.0546875,18.2265625c-0.0136719,3.4199219,3.1464844,6.1899414,7.0273438,6.1899414
				c3.8828125,0,7.0273438-2.7700195,7.0273438-6.1899414c0,3.4199219,3.1484375,6.1899414,7.0292969,6.1899414c3.8828125,0,7.0292969-2.7700195,7.0292969-6.1899414z"/>
		</g>
		<g style="&st2;">
			<g>
				<path d="M56.9897461,105.9916992c-3.4790039,0.0039063-5.309082-3.7070313-6.2695313-7.4160156c-0.9604492-3.7109375-1.0512695-7.4233398-1.0512695-7.4233398l-1.7753906-0.0180664c0,0-0.3325195,14.8476563-7.2905273,14.8540039l16.3867188,0.003418z"/>
			</g>
			<path d="M62.8774414,91.1489258C62.8466797,83.90625,52.0043945,78.6538086,48.8198242,72.9223633C45.6376953,78.6538086,34.7949219,83.90625,34.7641602,91.1489258c-0.0141602,3.4199219,3.1469727,6.1899414,7.0288086,6.1899414
				c3.8808594,0,7.0268555-2.7700195,7.0268555-6.1899414c0,3.4199219,3.1479492,6.1899414,7.0297852,6.1899414s7.027832-2.7700195,7.027832-6.1899414z"/>
		</g>
		<g style="&st2;">
			<g>
				<path d="M126.2270508,105.9916992c-3.4785156,0.0039063-5.3105469-3.7070313-6.2695313-7.4160156c-0.9609375-3.7109375-1.0527344-7.4233398-1.0527344-7.4233398l-1.7734375-0.0180664c0,0-0.3339844,14.8476563-7.2910156,14.8540039l16.3867188,0.003418z"/>
			</g>
			<path d="M132.1137695,91.1489258c-0.03125-7.2426758-10.8730469-12.4951172-14.0566406-18.2265625c-3.1816406,5.7314453-14.0253906,10.9838867-14.0566406,18.2265625c-0.0136719,3.4199219,3.1464844,6.1899414,7.0292969,6.1899414
				c3.8808594,0,7.0273438-2.7700195,7.0273438-6.1899414c0,3.4199219,3.1484375,6.1899414,7.0292969,6.1899414s7.0273438-2.7700195,7.0273438-6.1899414z"/>
		</g>
		<g style="&st2;">
			<g>
				<path d="M40.1337891,136.6767578c6.9580078,0.0058594,7.2905273,14.8535156,7.2905273,14.8535156l1.7749023-0.0175781c0,0,0.0913086-3.7119141,1.0517578-7.4238281c0.9604492-3.7089844,2.7905273-7.4189453,6.2695313-7.4160156l-16.3867188,0.0039063z"/>
			</g>
			<path d="M62.4082031,151.5166016c-0.0307617,7.2421875-10.8730469,12.4951172-14.0576172,18.2265625c-3.1821289-5.7314453-14.0253906-10.984375-14.0556641-18.2265625c-0.0136719-3.4199219,3.1464844-6.1894531,7.0283203-6.1894531
				s7.0273438,2.7695313,7.0273438,6.1894531c0-3.4199219,3.1479492-6.1894531,7.0292969-6.1894531c3.8818359,0,7.0283203,2.7695313,7.0283203,6.1894531z"/>
		</g>
		<g style="&st2;">
			<g>
				<path d="M109.8383789,136.6767578c6.9570313,0.0058594,7.2910156,14.8535156,7.2910156,14.8535156l1.7753906-0.0175781c0,0,0.0898438-3.7119141,1.0507813-7.4238281c0.9609375-3.7089844,2.7910156-7.4189453,6.2695313-7.4160156l-16.3867188,0.0039063z"/>
			</g>
			<path d="M132.1118164,151.5166016c-0.0292969,7.2421875-10.8730469,12.4951172-14.0566406,18.2265625c-3.1816406-5.7314453-14.0253906-10.984375-14.0566406-18.2265625c-0.0136719-3.4199219,3.1484375-6.1894531,7.0292969-6.1894531
				s7.0273438,2.7695313,7.0273438,6.1894531c0-3.4199219,3.1484375-6.1894531,7.0292969-6.1894531c3.8828125,0,7.0273438,2.7695313,7.0273438,6.1894531z"/>
		</g>
		<g style="&st2;">
			<g>
				<path d="M40.6015625,196.7910156c6.9580078,0.0068359,7.2905273,14.8544922,7.2905273,14.8544922l1.7749023-0.0185547c0,0,0.0913086-3.7119141,1.0517578-7.4228516c0.9604492-3.7089844,2.7905273-7.4199219,6.2695313-7.4160156l-16.3867188,0.0029297z"/>
			</g>
			<path d="M62.8759766,211.6298828c-0.0307617,7.2431641-10.8730469,12.4960938-14.0576172,18.2275391c-3.1821289-5.7314453-14.0253906-10.984375-14.0556641-18.2275391c-0.0136719-3.4189453,3.1464844-6.1894531,7.0283203-6.1894531
				s7.0273438,2.7705078,7.0273438,6.1894531c0-3.4189453,3.1479492-6.1894531,7.0292969-6.1894531c3.8818359,0,7.0283203,2.7705078,7.0283203,6.1894531z"/>
		</g>
		<g style="&st2;">
			<g>
				<path d="M110.3051758,196.7910156c6.9589844,0.0068359,7.2910156,14.8544922,7.2910156,14.8544922l1.7753906-0.0185547c0,0,0.0917969-3.7119141,1.0507813-7.4228516c0.9609375-3.7089844,2.7910156-7.4199219,6.2695313-7.4160156l-16.3867188,0.0029297z"/>
			</g>
			<path d="M132.5805664,211.6298828c-0.03125,7.2431641-10.8730469,12.4960938-14.0585938,18.2275391c-3.1816406-5.7314453-14.0234375-10.984375-14.0546875-18.2275391c-0.0136719-3.4189453,3.1464844-6.1894531,7.0292969-6.1894531
				c3.8808594,0,7.0253906,2.7705078,7.0253906,6.1894531c0-3.4189453,3.1484375-6.1894531,7.03125-6.1894531c3.8808594,0,7.0273438,2.7705078,7.0273438,6.1894531z"/>
		</g>
		<g>
			<path style="&st2;" d="M16.3535156,16.1611328C17,16.3955078,17.4902344,16.9238281,17.8261719,17.746582c0.3349609,0.8227539,0.5029297,1.8999023,0.5029297,3.230957c0,1.6621094-0.2802734,2.9365234-0.8408203,3.8237305
				c-0.5605469,0.8876953-1.3681641,1.3310547-2.4248047,1.3310547s-1.8642578-0.4433594-2.4248047-1.3310547c-0.5605469-0.887207-0.8408203-2.1616211-0.8408203-3.8237305c0-1.3310547,0.1660156-2.4082031,0.4990234-3.230957
				c0.3320313-0.8227539,0.8154297-1.3510742,1.4482422-1.5854492c-0.5556641-0.2895508-0.9716797-0.7744141-1.2490234-1.4541016c-0.2783203-0.6796875-0.4169922-1.5419922-0.4169922-2.5878906c0-1.5283203,0.2548828-2.6943359,0.7646484-3.4990234
				c0.5087891-0.8041992,1.2490234-1.206543,2.2197266-1.206543c0.9628906,0,1.7001953,0.4023438,2.2138672,1.206543c0.5136719,0.8046875,0.7705078,1.9707031,0.7705078,3.4990234c0,1.0458984-0.140625,1.9082031-0.4208984,2.5878906
				s-0.7050781,1.1645508-1.2734375,1.4541016z M16.1728516,20.7739258c0-1.4790039-0.0830078-2.4975586-0.2490234-3.0551758s-0.4560547-0.8364258-0.8701172-0.8364258c-0.4130859,0-0.7050781,0.2788086-0.875,0.8364258
				c-0.1708984,0.5576172-0.2558594,1.5761719-0.2558594,3.0551758c0,1.4951172,0.0849609,2.527832,0.2558594,3.0976563c0.1699219,0.5698242,0.4619141,0.8544922,0.875,0.8544922c0.4052734,0,0.6933594-0.284668,0.8642578-0.8544922
				c0.1699219-0.5698242,0.2548828-1.6025391,0.2548828-3.0976563z M15.9541016,12.1660156c0-1.2724609-0.0673828-2.1479492-0.2021484-2.6274414c-0.1347656-0.4790039-0.3642578-0.71875-0.6884766-0.71875c-0.3320313,0-0.5634766,0.2397461-0.6943359,0.71875
				c-0.1308594,0.4794922-0.1962891,1.3549805-0.1962891,2.6274414c0,1.2646484,0.0654297,2.1323242,0.1962891,2.6035156s0.3623047,0.706543,0.6943359,0.706543c0.3242188,0,0.5537109-0.2353516,0.6884766-0.706543s0.2021484-1.3388672,0.2021484-2.6035156z"/>
		</g>
		<g>
			<path style="&st2;" d="M150.4536133,225.9970703c-0.6464844-0.234375-1.1367188-0.7617188-1.4726563-1.5859375c-0.3359375-0.8222656-0.5039063-1.8984375-0.5039063-3.2304688c0-1.6621094,0.28125-2.9355469,0.8417969-3.8242188
				c0.5605469-0.8867188,1.3671875-1.3300781,2.4238281-1.3300781s1.8652344,0.4433594,2.4257813,1.3300781c0.5605469,0.8886719,0.8398438,2.1621094,0.8398438,3.8242188c0,1.3320313-0.1660156,2.4082031-0.4980469,3.2304688
				c-0.3320313,0.8242188-0.8164063,1.3515625-1.4492188,1.5859375c0.5566406,0.2890625,0.9726563,0.7753906,1.25,1.4550781s0.4160156,1.5410156,0.4160156,2.5878906c0,1.5273438-0.2539063,2.6933594-0.7636719,3.4980469s-1.25,1.2070313-2.2207031,1.2070313
				c-0.9628906,0-1.6992188-0.4023438-2.2128906-1.2070313s-0.7714844-1.9707031-0.7714844-3.4980469c0-1.046875,0.140625-1.9082031,0.421875-2.5878906c0.2792969-0.6796875,0.7050781-1.1660156,1.2734375-1.4550781z M150.6333008,221.3837891
				c0,1.4804688,0.0839844,2.4980469,0.25,3.0566406c0.1660156,0.5566406,0.4550781,0.8359375,0.8691406,0.8359375s0.7050781-0.2792969,0.875-0.8359375c0.171875-0.5585938,0.2558594-1.5761719,0.2558594-3.0566406
				c0-1.4941406-0.0839844-2.5273438-0.2558594-3.0976563c-0.1699219-0.5683594-0.4609375-0.8535156-0.875-0.8535156c-0.4042969,0-0.6933594,0.2851563-0.8632813,0.8535156c-0.1699219,0.5703125-0.2558594,1.6035156-0.2558594,3.0976563z M150.8520508,229.9931641
				c0,1.2714844,0.0683594,2.1464844,0.203125,2.6269531c0.1347656,0.4785156,0.3632813,0.71875,0.6875,0.71875c0.3320313,0,0.5644531-0.2402344,0.6953125-0.71875c0.1308594-0.4804688,0.1953125-1.3554688,0.1953125-2.6269531
				c0-1.265625-0.0644531-2.1328125-0.1953125-2.6035156c-0.1308594-0.4726563-0.3632813-0.7070313-0.6953125-0.7070313c-0.3242188,0-0.5527344,0.234375-0.6875,0.7070313c-0.1347656,0.4707031-0.203125,1.3378906-0.203125,2.6035156z"/>
		</g>
		<g style="&st2;">
			<g>
				<path d="M19.0644531,39.2822266c-1.0957031,0.0009766-1.671875-1.1669922-1.9741211-2.3349609c-0.3022461-1.168457-0.3310547-2.3374023-0.3310547-2.3374023l-0.559082-0.0053711c0,0-0.1044922,4.6743164-2.2949219,4.6767578l5.1591797,0.0009766z"/>
			</g>
			<path d="M20.9179688,34.6088867c-0.0097656-2.2802734-3.4233398-3.934082-4.4257813-5.7382813c-1.0019531,1.8041992-4.4160156,3.4580078-4.4257813,5.7382813c-0.0043945,1.0766602,0.9912109,1.9492188,2.2133789,1.9492188
				c1.2216797,0,2.2124023-0.8725586,2.2124023-1.9492188c0,1.0766602,0.9912109,1.9492188,2.2128906,1.9492188c1.222168,0,2.2128906-0.8725586,2.2128906-1.9492188z"/>
		</g>
		<g style="&st2;">
			<g>
				<path d="M148.0512695,202.9482422c1.09375,0,1.6699219,1.1679688,1.9726563,2.3359375s0.3320313,2.3369141,0.3320313,2.3369141l0.5585938,0.0048828c0,0,0.1035156-4.6738281,2.2949219-4.6757813l-5.1582031-0.0019531z"/>
			</g>
			<path d="M146.1958008,207.6220703c0.0097656,2.2802734,3.4238281,3.9335938,4.4257813,5.7382813c1.0019531-1.8046875,4.4160156-3.4580078,4.4257813-5.7382813c0.0058594-1.0761719-0.9902344-1.9492188-2.2128906-1.9492188
				c-1.2207031,0-2.2128906,0.8730469-2.2128906,1.9492188c0-1.0761719-0.9902344-1.9492188-2.2128906-1.9492188c-1.2207031,0-2.2128906,0.8730469-2.2128906,1.9492188z"/>
		</g>
	</g>
</svg>
