<?xml version="1.0" encoding="utf-8"?>
<!-- Generator: Adobe Illustrator 9.0, SVG Export Plug-In  -->
<!DOCTYPE svg PUBLIC "-//W3C//DTD SVG 20000303 Stylable//EN"   "http://www.w3.org/TR/2000/03/WD-SVG-20000303/DTD/svg-20000303-stylable.dtd" [
	<!ENTITY st0 "fill:#FFFFFF;stroke-width:0.5;">
	<!ENTITY st1 "fill-rule:nonzero;clip-rule:nonzero;fill:#E61408;stroke:#000000;stroke-miterlimit:4;">
	<!ENTITY st2 "stroke:none;">
]>
<!-- This set of SVG files is a complete cards game with figures, numbers	-->
<!--    and backs of cards completely designed in SVG.				-->
<!--    									-->
<!--    Copyright (C) 2004 David Bellot						-->
<!--										-->
<!--    This library is free software; you can redistribute it and/or		-->
<!--    modify it under the terms of the GNU Lesser General Public		-->
<!--    License as published by the Free Software Foundation; either		-->
<!--    version 2 of the License, or (at your option) any later version		-->
<!--										-->
<!--    This library is distributed in the hope that it will be useful,		-->
<!--    but WITHOUT ANY WARRANTY; without even the implied warranty of		-->
<!--    MERCHANTABILITY or FITNESS FOR A PARTICULAR PURPOSE.  See the GNU	-->
<!--    Lesser General Public License for more details.				-->
<!--										-->
<!--    You should have received a copy of the GNU Lesser General Public	-->
<!--    License along with this library; if not, write to the Free Software	-->
<!--    Foundation, Inc., 59 Temple Place, Suite 330, Boston, MA 02111-1307  USA-->
<!--										-->
<!--    Contact the author David Bellot at bellot@stat.berkeley.edu or 		-->
<!--    david.bellot@free.fr or yimyom@users.sourceforge.net			-->
<svg  width="167.0869141pt" height="242.6669922pt" viewBox="0 0 167.0869141 242.6669922" xml:space="preserve">
	<g id="Layer_x0020_1" style="&st1;">
		<path style="&st0;" d="M166.8369141,235.5478516c0,3.7753906-3.0839844,6.8691406-6.8691406,6.8691406H7.1108398c-3.7749023,0-6.8608398-3.09375-6.8608398-6.8691406V7.1201172C0.25,3.3452148,3.3359375,0.25,7.1108398,0.25h152.8569336
			c3.7851563,0,6.8691406,3.0952148,6.8691406,6.8701172v228.4277344z"/>
		<g>
			<path style="&st2;" d="M33.1777344,21.9067383c0.0131836,9.5805664,12.0224609,16.5576172,15.5380859,24.1435547c3.5463867-7.5678711,15.5913086-14.4824219,15.6542969-24.0629883c0.0268555-4.5175781-3.4711914-8.1938477-7.777832-8.203125
				c-4.3076172-0.0087891-7.8051758,3.6411133-7.8183594,8.1674805c0.0131836-4.5263672-3.4707031-8.1943359-7.7783203-8.203125c-4.3066406-0.0180664-7.8046875,3.640625-7.8178711,8.1582031z"/>
		</g>
		<g>
			<path style="&st2;" d="M33.1777344,81.6972656c0.0131836,9.5805664,12.0224609,16.5576172,15.5380859,24.1435547c3.5463867-7.5678711,15.5913086-14.4829102,15.6542969-24.0629883c0.0268555-4.5263672-3.4711914-8.1938477-7.777832-8.203125
				c-4.3076172-0.0087891-7.8051758,3.6411133-7.8183594,8.1669922c0.0131836-4.5258789-3.4707031-8.1938477-7.7783203-8.2114258c-4.3066406-0.0092773-7.8046875,3.6494141-7.8178711,8.1669922z"/>
		</g>
		<g>
			<path style="&st2;" d="M33.1777344,220.7607422c0.0131836-9.5800781,12.0224609-16.5488281,15.5380859-24.1425781c3.5463867,7.5761719,15.5913086,14.4902344,15.6542969,24.0625c0.0268555,4.5263672-3.4711914,8.203125-7.777832,8.2109375
				c-4.3076172,0.0097656-7.8051758-3.6484375-7.8183594-8.1660156c0.0131836,4.5175781-3.4707031,8.1933594-7.7783203,8.203125c-4.3066406,0.0078125-7.8046875-3.6416016-7.8178711-8.1679688z"/>
		</g>
		<g>
			<path style="&st2;" d="M33.1777344,160.9794922c0.0131836-9.5800781,12.0224609-16.5576172,15.5380859-24.1435547c3.5463867,7.5673828,15.5913086,14.4824219,15.6542969,24.0634766c0.0268555,4.5175781-3.4711914,8.1933594-7.777832,8.203125
				c-4.3076172,0.0078125-7.8051758-3.6416016-7.8183594-8.1679688c0.0131836,4.5263672-3.4707031,8.1943359-7.7783203,8.203125c-4.3066406,0.0175781-7.8046875-3.640625-7.8178711-8.1582031z"/>
		</g>
		<g>
			<path style="&st2;" d="M133.9111328,21.9067383c-0.0136719,9.5805664-12.0234375,16.5576172-15.5390625,24.1435547c-3.546875-7.5678711-15.5908203-14.4824219-15.6542969-24.0629883c-0.0253906-4.5175781,3.4716797-8.1938477,7.7792969-8.203125
				c4.3066406-0.0087891,7.8046875,3.6411133,7.8183594,8.1674805c-0.0136719-4.5263672,3.4707031-8.1943359,7.7773438-8.203125c4.3066406-0.0180664,7.8046875,3.640625,7.8183594,8.1582031z"/>
		</g>
		<g>
			<path style="&st2;" d="M133.9111328,81.6972656c-0.0136719,9.5805664-12.0234375,16.5576172-15.5390625,24.1435547c-3.546875-7.5678711-15.5908203-14.4829102-15.6542969-24.0629883c-0.0253906-4.5263672,3.4716797-8.1938477,7.7792969-8.203125
				c4.3066406-0.0087891,7.8046875,3.6411133,7.8183594,8.1669922c-0.0136719-4.5258789,3.4707031-8.1938477,7.7773438-8.2114258c4.3066406-0.0092773,7.8046875,3.6494141,7.8183594,8.1669922z"/>
		</g>
		<g>
			<path style="&st2;" d="M133.9111328,220.7607422c-0.0136719-9.5800781-12.0234375-16.5488281-15.5390625-24.1425781c-3.546875,7.5761719-15.5908203,14.4902344-15.6542969,24.0625c-0.0253906,4.5263672,3.4716797,8.203125,7.7792969,8.2109375
				c4.3066406,0.0097656,7.8046875-3.6484375,7.8183594-8.1660156c-0.0136719,4.5175781,3.4707031,8.1933594,7.7773438,8.203125c4.3066406,0.0078125,7.8046875-3.6416016,7.8183594-8.1679688z"/>
		</g>
		<g>
			<path style="&st2;" d="M133.9111328,160.9794922c-0.0136719-9.5800781-12.0234375-16.5576172-15.5390625-24.1435547c-3.546875,7.5673828-15.5908203,14.4824219-15.6542969,24.0634766c-0.0253906,4.5175781,3.4716797,8.1933594,7.7792969,8.203125
				c4.3066406,0.0078125,7.8046875-3.6416016,7.8183594-8.1679688c-0.0136719,4.5263672,3.4707031,8.1943359,7.7773438,8.203125c4.3066406,0.0175781,7.8046875-3.640625,7.8183594-8.1582031z"/>
		</g>
		<g>
			<path style="&st2;" d="M16.3217773,16.409668c0.6464844,0.234375,1.1376953,0.7626953,1.4726563,1.5854492c0.3359375,0.8227539,0.5039063,1.8999023,0.5039063,3.230957c0,1.6621094-0.2802734,2.9365234-0.8408203,3.8237305
				c-0.5605469,0.8876953-1.3691406,1.3310547-2.4248047,1.3310547c-1.0566406,0-1.8652344-0.4433594-2.4257813-1.3310547c-0.5605469-0.887207-0.8398438-2.1616211-0.8398438-3.8237305c0-1.3310547,0.1660156-2.4082031,0.4980469-3.230957
				c0.3330078-0.8227539,0.8154297-1.3510742,1.4482422-1.5854492c-0.5546875-0.2895508-0.9716797-0.7744141-1.2490234-1.4541016s-0.4160156-1.5419922-0.4160156-2.5878906c0-1.5283203,0.2539063-2.6943359,0.7636719-3.4990234
				c0.5097656-0.8041992,1.25-1.206543,2.2207031-1.206543c0.9619141,0,1.7001953,0.4023438,2.2138672,1.206543c0.5136719,0.8046875,0.7705078,1.9707031,0.7705078,3.4990234c0,1.0458984-0.140625,1.9082031-0.4208984,2.5878906
				s-0.7050781,1.1645508-1.2744141,1.4541016z M16.1420898,21.0224609c0-1.4790039-0.0839844-2.4975586-0.25-3.0551758s-0.4560547-0.8364258-0.8691406-0.8364258c-0.4140625,0-0.7060547,0.2788086-0.8759766,0.8364258s-0.2548828,1.5761719-0.2548828,3.0551758
				c0,1.4951172,0.0849609,2.527832,0.2548828,3.0976563s0.4619141,0.8544922,0.8759766,0.8544922c0.4052734,0,0.6933594-0.284668,0.8632813-0.8544922s0.2558594-1.6025391,0.2558594-3.0976563z M15.9233398,12.4145508
				c0-1.2724609-0.0673828-2.1479492-0.2021484-2.6274414c-0.1347656-0.4790039-0.3642578-0.71875-0.6884766-0.71875c-0.3330078,0-0.5644531,0.2397461-0.6953125,0.71875c-0.1308594,0.4794922-0.1953125,1.3549805-0.1953125,2.6274414
				c0,1.2646484,0.0644531,2.1323242,0.1953125,2.6035156s0.3623047,0.706543,0.6953125,0.706543c0.3242188,0,0.5537109-0.2353516,0.6884766-0.706543s0.2021484-1.3388672,0.2021484-2.6035156z"/>
		</g>
		<g>
			<path style="&st2;" d="M150.4228516,226.2451172c-0.6464844-0.234375-1.1386719-0.7617188-1.4726563-1.5849609c-0.3359375-0.8232422-0.5039063-1.8994141-0.5039063-3.2314453c0-1.6621094,0.2792969-2.9355469,0.8398438-3.8232422
				s1.3691406-1.3310547,2.4257813-1.3310547s1.8652344,0.4433594,2.4257813,1.3310547s0.8398438,2.1611328,0.8398438,3.8232422c0,1.3320313-0.1660156,2.4082031-0.4980469,3.2314453c-0.3339844,0.8232422-0.8164063,1.3505859-1.4492188,1.5849609
				c0.5546875,0.2900391,0.9726563,0.7753906,1.25,1.4550781s0.4160156,1.5410156,0.4160156,2.5878906c0,1.5273438-0.2539063,2.6933594-0.7636719,3.4980469s-1.25,1.2070313-2.2207031,1.2070313c-0.9628906,0-1.7011719-0.4023438-2.2148438-1.2070313
				s-0.7695313-1.9707031-0.7695313-3.4980469c0-1.046875,0.140625-1.9082031,0.4199219-2.5878906c0.28125-0.6796875,0.7050781-1.1650391,1.2753906-1.4550781z M150.6025391,221.6328125c0,1.4794922,0.0839844,2.4970703,0.25,3.0556641
				c0.1660156,0.5566406,0.4550781,0.8359375,0.8691406,0.8359375s0.7050781-0.2792969,0.875-0.8359375c0.1699219-0.5585938,0.2558594-1.5761719,0.2558594-3.0556641c0-1.4951172-0.0859375-2.5283203-0.2558594-3.0976563s-0.4609375-0.8544922-0.875-0.8544922
				c-0.40625,0-0.6933594,0.2851563-0.8632813,0.8544922s-0.2558594,1.6025391-0.2558594,3.0976563z M150.8212891,230.2412109c0,1.2714844,0.0664063,2.1474609,0.2011719,2.6269531c0.1347656,0.4785156,0.3652344,0.71875,0.6894531,0.71875
				c0.3320313,0,0.5644531-0.2402344,0.6953125-0.71875c0.1308594-0.4794922,0.1953125-1.3554688,0.1953125-2.6269531c0-1.265625-0.0644531-2.1328125-0.1953125-2.6035156c-0.1308594-0.4716797-0.3632813-0.7070313-0.6953125-0.7070313
				c-0.3242188,0-0.5546875,0.2353516-0.6894531,0.7070313c-0.1347656,0.4707031-0.2011719,1.3378906-0.2011719,2.6035156z"/>
		</g>
		<g>
			<path style="&st2;" d="M11.6308594,31.6108398c0.0029297,2.8735352,3.605957,4.9663086,4.659668,7.2426758c1.0654297-2.2709961,4.6791992-4.3457031,4.6962891-7.2192383c0.0083008-1.3569336-1.0410156-2.4580078-2.3330078-2.4614258
				S16.3125,30.265625,16.309082,31.6225586c0.003418-1.3569336-1.0410156-2.4584961-2.3330078-2.4619141c-1.2924805-0.0029297-2.3417969,1.0932617-2.3452148,2.4501953z"/>
		</g>
		<g>
			<path style="&st2;" d="M155.0087891,210.9082031c-0.0039063-2.8740234-3.6074219-4.9667969-4.6601563-7.2431641c-1.0654297,2.2714844-4.6796875,4.3457031-4.6972656,7.2197266c-0.0078125,1.3564453,1.0410156,2.4580078,2.3339844,2.4619141
				c1.2910156,0.0029297,2.3417969-1.09375,2.34375-2.4501953c-0.0019531,1.3564453,1.0419922,2.4580078,2.3339844,2.4619141c1.2919922,0.0029297,2.3417969-1.09375,2.3457031-2.4501953z"/>
		</g>
	</g>
</svg>
