<?xml version="1.0" encoding="utf-8"?>
<!-- Generator: Adobe Illustrator 9.0, SVG Export Plug-In  -->
<!DOCTYPE svg PUBLIC "-//W3C//DTD SVG 20000303 Stylable//EN"   "http://www.w3.org/TR/2000/03/WD-SVG-20000303/DTD/svg-20000303-stylable.dtd" [
	<!ENTITY st0 "fill:#FFFFFF;stroke-width:0.5;">
	<!ENTITY st1 "fill-rule:nonzero;clip-rule:nonzero;stroke:#000000;stroke-miterlimit:4;">
	<!ENTITY st2 "stroke:none;">
]>
<!-- This set of SVG files is a complete cards game with figures, numbers	-->
<!--    and backs of cards completely designed in SVG.				-->
<!--    									-->
<!--    Copyright (C) 2004 David Bellot						-->
<!--										-->
<!--    This library is free software; you can redistribute it and/or		-->
<!--    modify it under the terms of the GNU Lesser General Public		-->
<!--    License as published by the Free Software Foundation; either		-->
<!--    version 2 of the License, or (at your option) any later version		-->
<!--										-->
<!--    This library is distributed in the hope that it will be useful,		-->
<!--    but WITHOUT ANY WARRANTY; without even the implied warranty of		-->
<!--    MERCHANTABILITY or FITNESS FOR A PARTICULAR PURPOSE.  See the GNU	-->
<!--    Lesser General Public License for more details.				-->
<!--										-->
<!--    You should have received a copy of the GNU Lesser General Public	-->
<!--    License along with this library; if not, write to the Free Software	-->
<!--    Foundation, Inc., 59 Temple Place, Suite 330, Boston, MA 02111-1307  USA-->
<!--										-->
<!--    Contact the author David Bellot at bellot@stat.berkeley.edu or 		-->
<!--    david.bellot@free.fr or yimyom@users.sourceforge.net			-->
<svg  width="167.0869141pt" height="242.6674805pt" viewBox="0 0 167.0869141 242.6674805" xml:space="preserve">
	<g id="Layer_x0020_1" style="&st1;">
		<path style="&st0;" d="M166.8369141,235.5473633c0,3.7802734-3.0859375,6.8701172-6.8710938,6.8701172H7.1108398c-3.7744141,0-6.8608398-3.0898438-6.8608398-6.8701172V7.1201172C0.25,3.3452148,3.3364258,0.25,7.1108398,0.25h152.8549805
			c3.7851563,0,6.8710938,3.0952148,6.8710938,6.8701172v228.4272461z"/>
		<g style="&st2;">
			<path d="M55.2446289,19.918457c0,3.7753906-3.1538086,6.8339844-7.0454102,6.8339844c-3.8920898,0-7.0463867-3.0585938-7.0463867-6.8339844c0-3.7734375,3.1542969-6.8330078,7.0463867-6.8330078c3.8916016,0,7.0454102,3.0595703,7.0454102,6.8330078z"/>
			<path d="M64.3168945,32.8486328c0,3.7744141-3.1542969,6.8334961-7.0458984,6.8334961s-7.0458984-3.059082-7.0458984-6.8334961c0-3.7739258,3.1542969-6.8330078,7.0458984-6.8330078s7.0458984,3.059082,7.0458984,6.8330078z"/>
			<path d="M46.2749023,32.8989258c0,1.3823242-0.4228516,2.668457-1.1503906,3.7436523c-1.2587891,1.8608398-3.4296875,3.0893555-5.8964844,3.0893555c-3.8916016,0-7.0449219-3.0581055-7.0449219-6.8330078c0-3.7739258,3.1533203-6.8334961,7.0449219-6.8334961
				s7.046875,3.0595703,7.046875,6.8334961z"/>
			<g>
				<path d="M56.4628906,46.1621094c-3.4790039,0.0029297-5.309082-2.8271484-6.2700195-5.6567383c-0.9599609-2.8300781-1.050293-5.6611328-1.050293-5.6611328l-1.7758789-0.0141602c0,0-0.3330078,11.3242188-7.2900391,11.3295898l16.3862305,0.0024414z"/>
			</g>
			<g>
				<path d="M43.409668,24.9306641c3.9570313,3.9575195,3.9570313,9.8994141,3.9570313,9.8994141l1.7758789,0.0141602c0,0,0-6.0673828,3.8457031-9.9135742"/>
			</g>
			<g>
				<path d="M44.2016602,37.6474609c3.9570313-3.9570313,9.8989258-3.9570313,9.8989258-3.9570313l0.0141602-1.7758789c0,0-6.0673828,0-9.9130859-3.8461914"/>
			</g>
			<g>
				<path d="M52.1381836,37.6767578c-3.9575195-3.9570313-9.8994141-3.9570313-9.8994141-3.9570313l-0.0141602-1.7758789c0,0,6.0678711,0,9.9135742-3.8461914"/>
			</g>
		</g>
		<g style="&st2;">
			<path d="M125.7451172,19.918457c0,3.7753906-3.1542969,6.8339844-7.0458984,6.8339844s-7.0458984-3.0585938-7.0458984-6.8339844c0-3.7734375,3.1542969-6.8330078,7.0458984-6.8330078s7.0458984,3.0595703,7.0458984,6.8330078z"/>
			<path d="M134.8173828,32.8486328c0,3.7744141-3.1542969,6.8334961-7.046875,6.8334961c-3.890625,0-7.0449219-3.059082-7.0449219-6.8334961c0-3.7739258,3.1542969-6.8330078,7.0449219-6.8330078c3.8925781,0,7.046875,3.059082,7.046875,6.8330078z"/>
			<path d="M116.7744141,32.8989258c0,1.3823242-0.421875,2.668457-1.1503906,3.7436523c-1.2578125,1.8608398-3.4296875,3.0893555-5.8964844,3.0893555c-3.890625,0-7.0449219-3.0581055-7.0449219-6.8330078c0-3.7739258,3.1542969-6.8334961,7.0449219-6.8334961
				c3.8925781,0,7.046875,3.0595703,7.046875,6.8334961z"/>
			<g>
				<path d="M126.9628906,46.1621094c-3.4794922,0.0029297-5.3095703-2.8271484-6.2705078-5.6567383c-0.9589844-2.8300781-1.0498047-5.6611328-1.0498047-5.6611328l-1.7763672-0.0141602c0,0-0.3320313,11.3242188-7.2890625,11.3295898l16.3857422,0.0024414z"/>
			</g>
			<g>
				<path d="M113.9091797,24.9306641c3.9570313,3.9575195,3.9570313,9.8994141,3.9570313,9.8994141l1.7763672,0.0141602c0,0,0-6.0673828,3.8457031-9.9135742"/>
			</g>
			<g>
				<path d="M114.7021484,37.6474609c3.9570313-3.9570313,9.8984375-3.9570313,9.8984375-3.9570313l0.0136719-1.7758789c0,0-6.0664063,0-9.9121094-3.8461914"/>
			</g>
			<g>
				<path d="M122.6376953,37.6767578c-3.9570313-3.9570313-9.8984375-3.9570313-9.8984375-3.9570313l-0.0146484-1.7758789c0,0,6.0673828,0,9.9130859-3.8461914"/>
			</g>
		</g>
		<g style="&st2;">
			<path d="M125.7451172,79.668457c0,3.7753906-3.1542969,6.8339844-7.0458984,6.8339844s-7.0458984-3.0585938-7.0458984-6.8339844c0-3.7734375,3.1542969-6.8330078,7.0458984-6.8330078s7.0458984,3.0595703,7.0458984,6.8330078z"/>
			<path d="M134.8173828,92.5986328c0,3.7744141-3.1542969,6.8334961-7.046875,6.8334961c-3.890625,0-7.0449219-3.059082-7.0449219-6.8334961c0-3.7739258,3.1542969-6.8330078,7.0449219-6.8330078c3.8925781,0,7.046875,3.059082,7.046875,6.8330078z"/>
			<path d="M116.7744141,92.6489258c0,1.3823242-0.421875,2.668457-1.1503906,3.7436523c-1.2578125,1.8608398-3.4296875,3.0893555-5.8964844,3.0893555c-3.890625,0-7.0449219-3.0581055-7.0449219-6.8330078c0-3.7739258,3.1542969-6.8334961,7.0449219-6.8334961
				c3.8925781,0,7.046875,3.0595703,7.046875,6.8334961z"/>
			<g>
				<path d="M126.9628906,105.9121094c-3.4794922,0.0029297-5.3095703-2.8271484-6.2705078-5.6567383c-0.9589844-2.8300781-1.0498047-5.6611328-1.0498047-5.6611328l-1.7763672-0.0141602c0,0-0.3320313,11.3242188-7.2890625,11.3295898l16.3857422,0.0024414z"/>
			</g>
			<g>
				<path d="M113.9091797,84.6806641c3.9570313,3.9575195,3.9570313,9.8994141,3.9570313,9.8994141l1.7763672,0.0141602c0,0,0-6.0673828,3.8457031-9.9135742"/>
			</g>
			<g>
				<path d="M114.7021484,97.3974609c3.9570313-3.9570313,9.8984375-3.9570313,9.8984375-3.9570313l0.0136719-1.7758789c0,0-6.0664063,0-9.9121094-3.8461914"/>
			</g>
			<g>
				<path d="M122.6376953,97.4267578c-3.9570313-3.9570313-9.8984375-3.9570313-9.8984375-3.9570313l-0.0146484-1.7758789c0,0,6.0673828,0,9.9130859-3.8461914"/>
			</g>
		</g>
		<g style="&st2;">
			<path d="M55.4946289,79.668457c0,3.7753906-3.1538086,6.8339844-7.0454102,6.8339844c-3.8920898,0-7.0463867-3.0585938-7.0463867-6.8339844c0-3.7734375,3.1542969-6.8330078,7.0463867-6.8330078c3.8916016,0,7.0454102,3.0595703,7.0454102,6.8330078z"/>
			<path d="M64.5668945,92.5986328c0,3.7744141-3.1542969,6.8334961-7.0458984,6.8334961s-7.0458984-3.059082-7.0458984-6.8334961c0-3.7739258,3.1542969-6.8330078,7.0458984-6.8330078s7.0458984,3.059082,7.0458984,6.8330078z"/>
			<path d="M46.5249023,92.6489258c0,1.3823242-0.4228516,2.668457-1.1503906,3.7436523c-1.2587891,1.8608398-3.4296875,3.0893555-5.8964844,3.0893555c-3.8916016,0-7.0449219-3.0581055-7.0449219-6.8330078c0-3.7739258,3.1533203-6.8334961,7.0449219-6.8334961
				s7.046875,3.0595703,7.046875,6.8334961z"/>
			<g>
				<path d="M56.7128906,105.9121094c-3.4790039,0.0029297-5.309082-2.8271484-6.2700195-5.6567383c-0.9599609-2.8300781-1.050293-5.6611328-1.050293-5.6611328l-1.7758789-0.0141602c0,0-0.3330078,11.3242188-7.2900391,11.3295898l16.3862305,0.0024414z"/>
			</g>
			<g>
				<path d="M43.659668,84.6806641c3.9570313,3.9575195,3.9570313,9.8994141,3.9570313,9.8994141l1.7758789,0.0141602c0,0,0-6.0673828,3.8457031-9.9135742"/>
			</g>
			<g>
				<path d="M44.4516602,97.3974609c3.9570313-3.9570313,9.8989258-3.9570313,9.8989258-3.9570313l0.0141602-1.7758789c0,0-6.0673828,0-9.9130859-3.8461914"/>
			</g>
			<g>
				<path d="M52.3881836,97.4267578c-3.9575195-3.9570313-9.8994141-3.9570313-9.8994141-3.9570313l-0.0141602-1.7758789c0,0,6.0678711,0,9.9135742-3.8461914"/>
			</g>
		</g>
		<g style="&st2;">
			<path d="M55.6430664,163.1665039c0-3.7744141-3.1538086-6.8339844-7.0454102-6.8339844c-3.8920898,0-7.0463867,3.0595703-7.0463867,6.8339844c0,3.7734375,3.1542969,6.8330078,7.0463867,6.8330078c3.8916016,0,7.0454102-3.0595703,7.0454102-6.8330078z"/>
			<path d="M64.715332,150.2358398c0-3.7734375-3.1542969-6.8320313-7.0458984-6.8320313s-7.0458984,3.0585938-7.0458984,6.8320313c0,3.7753906,3.1542969,6.8339844,7.0458984,6.8339844s7.0458984-3.0585938,7.0458984-6.8339844z"/>
			<path d="M46.6733398,150.1870117c0-1.3828125-0.4228516-2.6689453-1.1503906-3.7441406c-1.2587891-1.8613281-3.4296875-3.0898438-5.8964844-3.0898438c-3.8916016,0-7.0449219,3.0585938-7.0449219,6.8339844c0,3.7734375,3.1533203,6.8330078,7.0449219,6.8330078
				s7.046875-3.0595703,7.046875-6.8330078z"/>
			<g>
				<path d="M40.4750977,136.925293c6.9570313,0.0058594,7.2900391,11.3300781,7.2900391,11.3300781l1.7758789-0.0146484c0,0,0.090332-2.8310547,1.050293-5.6611328c0.9609375-2.8300781,2.7910156-5.6591797,6.2700195-5.65625l-16.3862305,0.0019531z"/>
			</g>
			<g>
				<path d="M43.8081055,158.1538086c3.9570313-3.9570313,3.9570313-9.8984375,3.9570313-9.8984375l1.7758789-0.0146484c0,0,0,6.0673828,3.8457031,9.9130859"/>
			</g>
			<g>
				<path d="M44.6000977,145.4370117c3.9570313,3.9580078,9.8989258,3.9580078,9.8989258,3.9580078l0.0141602,1.7753906c0,0-6.0673828,0-9.9130859,3.8466797"/>
			</g>
			<g>
				<path d="M52.5366211,145.4077148c-3.9575195,3.9580078-9.8994141,3.9580078-9.8994141,3.9580078l-0.0141602,1.7753906c0,0,6.0678711,0,9.9135742,3.8466797"/>
			</g>
		</g>
		<g style="&st2;">
			<path d="M125.6298828,163.1665039c0-3.7744141-3.1542969-6.8339844-7.0449219-6.8339844c-3.8925781,0-7.046875,3.0595703-7.046875,6.8339844c0,3.7734375,3.1542969,6.8330078,7.046875,6.8330078c3.890625,0,7.0449219-3.0595703,7.0449219-6.8330078z"/>
			<path d="M134.7021484,150.2358398c0-3.7734375-3.1542969-6.8320313-7.0458984-6.8320313s-7.0458984,3.0585938-7.0458984,6.8320313c0,3.7753906,3.1542969,6.8339844,7.0458984,6.8339844s7.0458984-3.0585938,7.0458984-6.8339844z"/>
			<path d="M116.6611328,150.1870117c0-1.3828125-0.4238281-2.6689453-1.1503906-3.7441406c-1.2597656-1.8613281-3.4306641-3.0898438-5.8964844-3.0898438c-3.8925781,0-7.0458984,3.0585938-7.0458984,6.8339844c0,3.7734375,3.1533203,6.8330078,7.0458984,6.8330078
				c3.890625,0,7.046875-3.0595703,7.046875-6.8330078z"/>
			<g>
				<path d="M110.4619141,136.925293c6.9570313,0.0058594,7.2910156,11.3300781,7.2910156,11.3300781l1.7753906-0.0146484c0,0,0.0898438-2.8310547,1.0498047-5.6611328c0.9619141-2.8300781,2.7919922-5.6591797,6.2705078-5.65625l-16.3867188,0.0019531z"/>
			</g>
			<g>
				<path d="M113.7949219,158.1538086c3.9580078-3.9570313,3.9580078-9.8984375,3.9580078-9.8984375l1.7753906-0.0146484c0,0,0,6.0673828,3.8457031,9.9130859"/>
			</g>
			<g>
				<path d="M114.5869141,145.4370117c3.9570313,3.9580078,9.8984375,3.9580078,9.8984375,3.9580078l0.015625,1.7753906c0,0-6.0683594,0-9.9140625,3.8466797"/>
			</g>
			<g>
				<path d="M122.5234375,145.4077148c-3.9580078,3.9580078-9.8994141,3.9580078-9.8994141,3.9580078l-0.0136719,1.7753906c0,0,6.0673828,0,9.9130859,3.8466797"/>
			</g>
		</g>
		<g style="&st2;">
			<path d="M55.4101563,223.1557617c0-3.7753906-3.1533203-6.8339844-7.0454102-6.8339844c-3.8916016,0-7.0458984,3.0585938-7.0458984,6.8339844c0,3.7734375,3.1542969,6.8330078,7.0458984,6.8330078c3.8920898,0,7.0454102-3.0595703,7.0454102-6.8330078z"/>
			<path d="M64.4829102,210.2260742c0-3.7753906-3.1542969-6.8339844-7.0458984-6.8339844s-7.0458984,3.0585938-7.0458984,6.8339844c0,3.7734375,3.1542969,6.8320313,7.0458984,6.8320313s7.0458984-3.0585938,7.0458984-6.8320313z"/>
			<path d="M46.440918,210.175293c0-1.3828125-0.4228516-2.6679688-1.1503906-3.7441406c-1.2587891-1.8603516-3.4296875-3.0888672-5.8964844-3.0888672c-3.8916016,0-7.0449219,3.0576172-7.0449219,6.8330078c0,3.7734375,3.1533203,6.8339844,7.0449219,6.8339844
				s7.046875-3.0605469,7.046875-6.8339844z"/>
			<g>
				<path d="M40.2426758,196.9145508c6.9570313,0.0048828,7.2900391,11.3291016,7.2900391,11.3291016l1.7753906-0.0136719c0,0,0.090332-2.8310547,1.0507813-5.6611328c0.9609375-2.8291016,2.7910156-5.6591797,6.2700195-5.6572266l-16.3862305,0.0029297z"/>
			</g>
			<g>
				<path d="M43.5751953,218.144043c3.9575195-3.9580078,3.9575195-9.9003906,3.9575195-9.9003906l1.7753906-0.0136719c0,0,0,6.0673828,3.8461914,9.9140625"/>
			</g>
			<g>
				<path d="M44.3671875,205.4272461c3.9575195,3.9570313,9.8994141,3.9570313,9.8994141,3.9570313l0.0141602,1.7753906c0,0-6.0673828,0-9.9135742,3.8457031"/>
			</g>
			<g>
				<path d="M52.3041992,205.3979492c-3.9575195,3.9570313-9.8994141,3.9570313-9.8994141,3.9570313l-0.0141602,1.7753906c0,0,6.0673828,0,9.9135742,3.8457031"/>
			</g>
		</g>
		<g style="&st2;">
			<path d="M125.8623047,223.1557617c0-3.7753906-3.1542969-6.8339844-7.0449219-6.8339844c-3.8925781,0-7.046875,3.0585938-7.046875,6.8339844c0,3.7734375,3.1542969,6.8330078,7.046875,6.8330078c3.890625,0,7.0449219-3.0595703,7.0449219-6.8330078z"/>
			<path d="M134.9345703,210.2260742c0-3.7753906-3.1542969-6.8339844-7.0449219-6.8339844c-3.8925781,0-7.046875,3.0585938-7.046875,6.8339844c0,3.7734375,3.1542969,6.8320313,7.046875,6.8320313c3.890625,0,7.0449219-3.0585938,7.0449219-6.8320313z"/>
			<path d="M116.8935547,210.175293c0-1.3828125-0.4238281-2.6679688-1.1503906-3.7441406c-1.2597656-1.8603516-3.4296875-3.0888672-5.8964844-3.0888672c-3.8925781,0-7.0458984,3.0576172-7.0458984,6.8330078c0,3.7734375,3.1533203,6.8339844,7.0458984,6.8339844
				c3.890625,0,7.046875-3.0605469,7.046875-6.8339844z"/>
			<g>
				<path d="M110.6943359,196.9145508c6.9570313,0.0048828,7.2910156,11.3291016,7.2910156,11.3291016l1.7753906-0.0136719c0,0,0.0898438-2.8310547,1.0507813-5.6611328c0.9609375-2.8291016,2.7910156-5.6591797,6.2695313-5.6572266l-16.3867188,0.0029297z"/>
			</g>
			<g>
				<path d="M114.0273438,218.144043c3.9580078-3.9580078,3.9580078-9.9003906,3.9580078-9.9003906l1.7753906-0.0136719c0,0,0,6.0673828,3.8457031,9.9140625"/>
			</g>
			<g>
				<path d="M114.8193359,205.4272461c3.9570313,3.9570313,9.8994141,3.9570313,9.8994141,3.9570313l0.0146484,1.7753906c0,0-6.0683594,0-9.9140625,3.8457031"/>
			</g>
			<g>
				<path d="M122.7568359,205.3979492c-3.9580078,3.9570313-9.9003906,3.9570313-9.9003906,3.9570313l-0.0136719,1.7753906c0,0,6.0673828,0,9.9140625,3.8457031"/>
			</g>
		</g>
		<g>
			<path style="&st2;" d="M16.1582031,16.2055664c0.6464844,0.234375,1.137207,0.7626953,1.4726563,1.5854492s0.503418,1.8999023,0.503418,3.230957c0,1.6621094-0.2802734,2.9365234-0.8408203,3.8237305
				c-0.5605469,0.8876953-1.3686523,1.3310547-2.4248047,1.3310547c-1.0566406,0-1.8647461-0.4433594-2.425293-1.3310547c-0.5605469-0.887207-0.840332-2.1616211-0.840332-3.8237305c0-1.3310547,0.1660156-2.4082031,0.4985352-3.230957
				s0.8154297-1.3510742,1.4482422-1.5854492c-0.5551758-0.2895508-0.9716797-0.7744141-1.2490234-1.4541016c-0.277832-0.6796875-0.4165039-1.5419922-0.4165039-2.5878906c0-1.5283203,0.2543945-2.6943359,0.7641602-3.4990234
				c0.5092773-0.8041992,1.2495117-1.206543,2.2202148-1.206543c0.9624023,0,1.7001953,0.4023438,2.2138672,1.206543c0.5136719,0.8046875,0.7705078,1.9707031,0.7705078,3.4990234c0,1.0458984-0.140625,1.9082031-0.4208984,2.5878906
				s-0.7050781,1.1645508-1.2739258,1.4541016z M15.9780273,20.8183594c0-1.4790039-0.0834961-2.4975586-0.2495117-3.0551758s-0.4560547-0.8364258-0.8696289-0.8364258s-0.7055664,0.2788086-0.8754883,0.8364258
				c-0.1704102,0.5576172-0.2553711,1.5761719-0.2553711,3.0551758c0,1.4951172,0.0849609,2.527832,0.2553711,3.0976563c0.1699219,0.5698242,0.4619141,0.8544922,0.8754883,0.8544922c0.4052734,0,0.6933594-0.284668,0.8637695-0.8544922
				c0.1699219-0.5698242,0.2553711-1.6025391,0.2553711-3.0976563z M15.7592773,12.2104492c0-1.2724609-0.0673828-2.1479492-0.2021484-2.6274414c-0.1347656-0.4790039-0.3642578-0.71875-0.6884766-0.71875c-0.3325195,0-0.5639648,0.2397461-0.6948242,0.71875
				c-0.1308594,0.4794922-0.1958008,1.3549805-0.1958008,2.6274414c0,1.2646484,0.0649414,2.1323242,0.1958008,2.6035156s0.3623047,0.706543,0.6948242,0.706543c0.3242188,0,0.5537109-0.2353516,0.6884766-0.706543s0.2021484-1.3388672,0.2021484-2.6035156z"/>
		</g>
		<g>
			<path style="&st2;" d="M150.2587891,226.0415039c-0.6464844-0.234375-1.1376953-0.7626953-1.4726563-1.5849609c-0.3359375-0.8232422-0.5039063-1.9003906-0.5039063-3.2314453c0-1.6621094,0.2802734-2.9365234,0.8408203-3.8232422
				c0.5605469-0.8886719,1.3681641-1.3320313,2.4248047-1.3320313s1.8652344,0.4433594,2.4257813,1.3320313c0.5605469,0.8867188,0.8398438,2.1611328,0.8398438,3.8232422c0,1.3310547-0.1660156,2.4082031-0.4980469,3.2314453
				c-0.3330078,0.8222656-0.8164063,1.3505859-1.4492188,1.5849609c0.5556641,0.2900391,0.9726563,0.7744141,1.25,1.4541016s0.4160156,1.5419922,0.4160156,2.5878906c0,1.5283203-0.2539063,2.6943359-0.7636719,3.4990234
				c-0.5097656,0.8037109-1.25,1.2060547-2.2207031,1.2060547c-0.9628906,0-1.7001953-0.4023438-2.2138672-1.2060547c-0.5136719-0.8046875-0.7705078-1.9707031-0.7705078-3.4990234c0-1.0458984,0.140625-1.9082031,0.4208984-2.5878906
				s0.7050781-1.1640625,1.2744141-1.4541016z M150.4384766,221.4291992c0,1.4785156,0.0839844,2.4970703,0.25,3.0546875s0.4550781,0.8359375,0.8691406,0.8359375s0.7050781-0.2783203,0.875-0.8359375c0.1708984-0.5576172,0.2558594-1.5761719,0.2558594-3.0546875
				c0-1.4960938-0.0849609-2.5283203-0.2558594-3.0976563c-0.1699219-0.5703125-0.4609375-0.8554688-0.875-0.8554688c-0.4052734,0-0.6933594,0.2851563-0.8632813,0.8554688c-0.1699219,0.5693359-0.2558594,1.6015625-0.2558594,3.0976563z M150.6572266,230.0366211
				c0,1.2724609,0.0673828,2.1484375,0.2021484,2.6269531c0.1347656,0.4794922,0.3642578,0.71875,0.6884766,0.71875c0.3320313,0,0.5644531-0.2392578,0.6953125-0.71875c0.1308594-0.4785156,0.1953125-1.3544922,0.1953125-2.6269531
				c0-1.2646484-0.0644531-2.1328125-0.1953125-2.6035156s-0.3632813-0.7070313-0.6953125-0.7070313c-0.3242188,0-0.5537109,0.2363281-0.6884766,0.7070313s-0.2021484,1.3388672-0.2021484,2.6035156z"/>
		</g>
		<g style="&st2;">
			<path d="M18.0991211,31.1645508c0,1.1342773-0.9472656,2.0537109-2.1171875,2.0537109c-1.1689453,0-2.1166992-0.9194336-2.1166992-2.0537109c0-1.1337891,0.9477539-2.0527344,2.1166992-2.0527344c1.1699219,0,2.1171875,0.9189453,2.1171875,2.0527344z"/>
			<path d="M20.824707,35.0498047c0,1.1337891-0.9472656,2.0527344-2.1171875,2.0527344c-1.1689453,0-2.1162109-0.9189453-2.1162109-2.0527344c0-1.1342773,0.9472656-2.0532227,2.1162109-2.0532227c1.1699219,0,2.1171875,0.9189453,2.1171875,2.0532227z"/>
			<path d="M15.4038086,35.0644531c0,0.4155273-0.1269531,0.8017578-0.3457031,1.125c-0.3779297,0.559082-1.0302734,0.9282227-1.7714844,0.9282227c-1.1689453,0-2.1162109-0.9189453-2.1162109-2.0532227c0-1.1337891,0.9472656-2.0527344,2.1162109-2.0527344
				c1.1699219,0,2.1171875,0.9189453,2.1171875,2.0527344z"/>
			<g>
				<path d="M18.465332,39.0498047c-1.0458984,0.0004883-1.5957031-0.8496094-1.8837891-1.699707C16.2924805,36.5,16.265625,35.6494141,16.265625,35.6494141l-0.5336914-0.0043945c0,0-0.0996094,3.4023438-2.1904297,3.4038086l4.9238281,0.0009766z"/>
			</g>
			<g>
				<path d="M14.543457,32.6704102c1.1884766,1.1894531,1.1884766,2.9746094,1.1884766,2.9746094l0.5336914,0.0043945c0,0,0-1.8232422,1.1557617-2.9790039"/>
			</g>
			<g>
				<path d="M14.7807617,36.4912109c1.1894531-1.1884766,2.9746094-1.1884766,2.9746094-1.1884766l0.0039063-0.5336914c0,0-1.8222656,0-2.9785156-1.1557617"/>
			</g>
			<g>
				<path d="M17.1655273,36.5004883c-1.1884766-1.1889648-2.9741211-1.1889648-2.9741211-1.1889648l-0.0043945-0.5336914c0,0,1.8232422,0,2.9785156-1.1557617"/>
			</g>
		</g>
		<g style="&st2;">
			<path d="M148.2373047,210.7768555c0-1.1337891,0.9472656-2.0527344,2.1171875-2.0527344c1.1689453,0,2.1171875,0.9189453,2.1171875,2.0527344c0,1.1347656-0.9482422,2.0537109-2.1171875,2.0537109c-1.1699219,0-2.1171875-0.9189453-2.1171875-2.0537109z"/>
			<path d="M145.5107422,206.8920898c0-1.1328125,0.9492188-2.0527344,2.1171875-2.0527344c1.1699219,0,2.1171875,0.9199219,2.1171875,2.0527344c0,1.1347656-0.9472656,2.0537109-2.1171875,2.0537109c-1.1679688,0-2.1171875-0.9189453-2.1171875-2.0537109z"/>
			<path d="M150.9326172,206.8774414c0-0.4150391,0.1269531-0.8017578,0.3457031-1.1240234c0.3779297-0.5595703,1.0292969-0.9287109,1.7714844-0.9287109c1.1689453,0,2.1171875,0.9189453,2.1171875,2.0527344s-0.9482422,2.0537109-2.1171875,2.0537109
				c-1.1699219,0-2.1171875-0.9199219-2.1171875-2.0537109z"/>
			<g>
				<path d="M147.8720703,202.8920898c1.0449219,0,1.59375,0.8496094,1.8828125,1.7001953s0.3164063,1.7001953,0.3164063,1.7001953l0.5332031,0.0048828c0,0,0.0996094-3.4023438,2.1894531-3.4033203l-4.921875-0.0019531z"/>
			</g>
			<g>
				<path d="M151.7939453,209.2709961c-1.1894531-1.1884766-1.1894531-2.9736328-1.1894531-2.9736328l-0.5332031-0.0048828c0,0,0,1.8242188-1.15625,2.9785156"/>
			</g>
			<g>
				<path d="M151.5556641,205.4506836c-1.1894531,1.1894531-2.9746094,1.1894531-2.9746094,1.1894531l-0.0039063,0.5332031c0,0,1.8222656,0,2.9785156,1.1552734"/>
			</g>
			<g>
				<path d="M149.1708984,205.4418945c1.1894531,1.1884766,2.9746094,1.1884766,2.9746094,1.1884766l0.0039063,0.5341797c0,0-1.8222656,0-2.9785156,1.1552734"/>
			</g>
		</g>
	</g>
</svg>
