<?xml version="1.0" encoding="utf-8"?>
<!-- Generator: Adobe Illustrator 9.0, SVG Export Plug-In  -->
<!DOCTYPE svg PUBLIC "-//W3C//DTD SVG 20000303 Stylable//EN"   "http://www.w3.org/TR/2000/03/WD-SVG-20000303/DTD/svg-20000303-stylable.dtd" [
	<!ENTITY st0 "fill:#FFFFFF;stroke-width:0.5;">
	<!ENTITY st1 "fill-rule:nonzero;clip-rule:nonzero;fill:#E61408;stroke:#000000;stroke-miterlimit:4;">
	<!ENTITY st2 "stroke:none;">
]>
<!-- This set of SVG files is a complete cards game with figures, numbers	-->
<!--    and backs of cards completely designed in SVG.				-->
<!--    									-->
<!--    Copyright (C) 2004 David Bellot						-->
<!--										-->
<!--    This library is free software; you can redistribute it and/or		-->
<!--    modify it under the terms of the GNU Lesser General Public		-->
<!--    License as published by the Free Software Foundation; either		-->
<!--    version 2 of the License, or (at your option) any later version		-->
<!--										-->
<!--    This library is distributed in the hope that it will be useful,		-->
<!--    but WITHOUT ANY WARRANTY; without even the implied warranty of		-->
<!--    MERCHANTABILITY or FITNESS FOR A PARTICULAR PURPOSE.  See the GNU	-->
<!--    Lesser General Public License for more details.				-->
<!--										-->
<!--    You should have received a copy of the GNU Lesser General Public	-->
<!--    License along with this library; if not, write to the Free Software	-->
<!--    Foundation, Inc., 59 Temple Place, Suite 330, Boston, MA 02111-1307  USA-->
<!--										-->
<!--    Contact the author David Bellot at bellot@stat.berkeley.edu or 		-->
<!--    david.bellot@free.fr or yimyom@users.sourceforge.net			-->
<svg  width="167.0874023pt" height="242.6650391pt" viewBox="0 0 167.0874023 242.6650391" xml:space="preserve">
	<g id="Layer_x0020_1" style="&st1;">
		<path style="&st0;" d="M166.8374023,235.5449219c0,3.7753906-3.0859375,6.8701172-6.8691406,6.8701172H7.1108398c-3.7749023,0-6.8608398-3.0947266-6.8608398-6.8701172V7.1201172C0.25,3.340332,3.3359375,0.25,7.1108398,0.25h152.8574219
			c3.7832031,0,6.8691406,3.090332,6.8691406,6.8701172v228.4248047z"/>
		<path style="&st2;" d="M48.5756836,29.7099609H32.9755859c0,0,2.4375,0.503418,9.2626953-6.046875c6.8251953-6.5507813,6.3374023-10.078125,6.3374023-10.078125 M32.9755859,29.7099609c0,0,3.4125977-0.5039063,9.75,6.5507813
			s5.8500977,9.5742188,5.8500977,9.5742188v-16.125 M48.5756836,45.8349609c0,0-0.4873047-3.5273438,6.3378906-10.078125c6.824707-6.550293,9.262207-6.046875,9.262207-6.046875H48.5756836 M64.1757813,29.7099609c0,0-3.4125977,0.5039063-9.75-6.5507813
			c-6.3369141-7.0546875-5.8500977-9.5742188-5.8500977-9.5742188v16.125"/>
		<path style="&st2;" d="M117.8041992,13.3618164c0,0-0.4882813,3.5273438,6.3369141,10.078125c6.8251953,6.550293,9.2626953,6.046875,9.2626953,6.046875h-15.5996094 M117.8041992,29.4868164v16.1245117c0,0-0.4882813-2.5195313,5.8496094-9.5737305
			c6.3378906-7.0546875,9.75-6.5507813,9.75-6.5507813 M117.8041992,29.4868164h-15.6005859c0,0,2.4365234-0.5039063,9.2626953,6.046875c6.8242188,6.550293,6.3378906,10.0776367,6.3378906,10.0776367 M117.8041992,29.4868164v-16.125
			c0,0,0.4863281,2.5195313-5.8515625,9.5742188c-6.3359375,7.0546875-9.7490234,6.5507813-9.7490234,6.5507813"/>
		<path style="&st2;" d="M48.2905273,228.4091797c0,0,0.487793-3.5273438-6.3374023-10.078125c-6.8251953-6.5498047-9.2626953-6.046875-9.2626953-6.046875h15.6000977 M48.2905273,212.2841797v-16.1240234c0,0,0.4873047,2.5195313-5.8500977,9.5732422
			c-6.3374023,7.0546875-9.75,6.5507813-9.75,6.5507813 M48.2905273,212.2841797H63.890625c0,0-2.4375,0.5039063-9.262207-6.046875c-6.8251953-6.5498047-6.3378906-10.0771484-6.3378906-10.0771484 M48.2905273,212.2841797v16.125
			c0,0-0.4868164-2.5195313,5.8500977-9.5742188c6.3374023-7.0546875,9.75-6.5507813,9.75-6.5507813"/>
		<path style="&st2;" d="M117.519043,212.5078125h15.5996094c0,0-2.4375-0.5039063-9.2626953,6.046875s-6.3369141,10.078125-6.3369141,10.078125 M133.1186523,212.5078125c0,0-3.4121094,0.5039063-9.75-6.5507813s-5.8496094-9.5742188-5.8496094-9.5742188v16.125
			 M117.519043,196.3828125c0,0,0.4863281,3.5273438-6.3378906,10.078125c-6.8261719,6.5507813-9.2626953,6.046875-9.2626953,6.046875h15.6005859 M101.918457,212.5078125c0,0,3.4130859-0.5039063,9.7490234,6.5507813
			c6.3378906,7.0546875,5.8515625,9.5742188,5.8515625,9.5742188v-16.125"/>
		<path style="&st2;" d="M48.5703125,89.4702148H32.9707031c0,0,2.4375,0.503418,9.2626953-6.046875c6.8251953-6.5507813,6.3369141-10.078125,6.3369141-10.078125 M32.9707031,89.4702148c0,0,3.4121094-0.5039063,9.75,6.5507813
			c6.3369141,7.0541992,5.8496094,9.5737305,5.8496094,9.5737305V89.4702148 M48.5703125,105.5947266c0,0-0.4873047-3.5273438,6.3378906-10.0776367c6.8251953-6.5507813,9.2626953-6.046875,9.2626953-6.046875H48.5703125 M64.1708984,89.4702148
			c0,0-3.4130859,0.5039063-9.75-6.5507813s-5.8505859-9.5742188-5.8505859-9.5742188v16.125"/>
		<path style="&st2;" d="M117.7983398,73.121582c0,0-0.4882813,3.5273438,6.3378906,10.078125c6.8242188,6.550293,9.2617188,6.046875,9.2617188,6.046875h-15.5996094 M117.7983398,89.246582v16.1245117c0,0-0.4863281-2.5195313,5.8496094-9.5737305
			c6.3378906-7.0546875,9.75-6.5507813,9.75-6.5507813 M117.7983398,89.246582h-15.5996094c0,0,2.4375-0.5039063,9.2617188,6.046875c6.8261719,6.550293,6.3378906,10.0776367,6.3378906,10.0776367 M117.7983398,89.246582v-16.125
			c0,0,0.4863281,2.5195313-5.8496094,9.5742188c-6.3378906,7.0546875-9.75,6.5507813-9.75,6.5507813"/>
		<path style="&st2;" d="M48.4892578,168.6621094c0,0,0.4873047-3.5273438-6.3378906-10.078125s-9.262207-6.046875-9.262207-6.046875h15.6000977 M48.4892578,152.5371094v-16.125c0,0,0.4873047,2.5195313-5.8505859,9.5742188
			c-6.3369141,7.0546875-9.7495117,6.5507813-9.7495117,6.5507813 M48.4892578,152.5371094h15.5996094c0,0-2.4370117,0.5039063-9.2617188-6.046875c-6.8251953-6.5507813-6.3378906-10.078125-6.3378906-10.078125 M48.4892578,152.5371094v16.125
			c0,0-0.4873047-2.5195313,5.8500977-9.5742188s9.7495117-6.5507813,9.7495117-6.5507813"/>
		<path style="&st2;" d="M117.7163086,152.7597656h15.6005859c0,0-2.4365234-0.5029297-9.2626953,6.046875c-6.8242188,6.5507813-6.3378906,10.078125-6.3378906,10.078125 M133.3168945,152.7597656c0,0-3.4130859,0.5039063-9.7490234-6.5507813
			c-6.3378906-7.0537109-5.8515625-9.5732422-5.8515625-9.5732422v16.1240234 M117.7163086,136.6357422c0,0,0.4882813,3.5273438-6.3378906,10.0771484c-6.8242188,6.5507813-9.2617188,6.046875-9.2617188,6.046875h15.5996094 M102.1166992,152.7597656
			c0,0,3.4121094-0.5039063,9.75,6.5507813s5.8496094,9.5742188,5.8496094,9.5742188v-16.125"/>
		<g>
			<path style="&st2;" d="M16.2314453,16.3720703c0.6464844,0.234375,1.137207,0.7626953,1.4726563,1.5854492s0.503418,1.8999023,0.503418,3.230957c0,1.6621094-0.2802734,2.9365234-0.8408203,3.8237305
				c-0.5605469,0.8876953-1.3686523,1.3310547-2.4248047,1.3310547c-1.0566406,0-1.8647461-0.4433594-2.425293-1.3310547c-0.5605469-0.887207-0.840332-2.1616211-0.840332-3.8237305c0-1.3310547,0.1660156-2.4082031,0.4985352-3.230957
				s0.8154297-1.3510742,1.4482422-1.5854492c-0.5551758-0.2895508-0.9716797-0.7744141-1.2490234-1.4541016c-0.277832-0.6796875-0.4165039-1.5419922-0.4165039-2.5878906c0-1.5283203,0.2543945-2.6943359,0.7641602-3.4990234
				c0.5092773-0.8041992,1.2495117-1.206543,2.2202148-1.206543c0.9624023,0,1.7001953,0.4023438,2.2138672,1.206543c0.5136719,0.8046875,0.7705078,1.9707031,0.7705078,3.4990234c0,1.0458984-0.140625,1.9082031-0.4208984,2.5878906
				s-0.7050781,1.1645508-1.2739258,1.4541016z M16.0512695,20.9848633c0-1.4790039-0.0834961-2.4975586-0.2495117-3.0551758s-0.4560547-0.8364258-0.8696289-0.8364258s-0.7055664,0.2788086-0.8754883,0.8364258
				c-0.1704102,0.5576172-0.2553711,1.5761719-0.2553711,3.0551758c0,1.4951172,0.0849609,2.527832,0.2553711,3.0976563c0.1699219,0.5698242,0.4619141,0.8544922,0.8754883,0.8544922c0.4052734,0,0.6933594-0.284668,0.8637695-0.8544922
				c0.1699219-0.5698242,0.2553711-1.6025391,0.2553711-3.0976563z M15.8325195,12.3769531c0-1.2724609-0.0673828-2.1479492-0.2021484-2.6274414c-0.1347656-0.4790039-0.3642578-0.71875-0.6884766-0.71875c-0.3325195,0-0.5639648,0.2397461-0.6948242,0.71875
				c-0.1308594,0.4794922-0.1958008,1.3549805-0.1958008,2.6274414c0,1.2646484,0.0649414,2.1323242,0.1958008,2.6035156s0.3623047,0.706543,0.6948242,0.706543c0.3242188,0,0.5537109-0.2353516,0.6884766-0.706543s0.2021484-1.3388672,0.2021484-2.6035156z"/>
		</g>
		<g>
			<path style="&st2;" d="M150.331543,226.2089844c-0.6464844-0.234375-1.1367188-0.7636719-1.4726563-1.5859375s-0.5039063-1.9003906-0.5039063-3.2304688c0-1.6621094,0.28125-2.9375,0.8417969-3.8242188
				c0.5605469-0.8876953,1.3681641-1.3310547,2.4238281-1.3310547c1.0566406,0,1.8652344,0.4433594,2.4257813,1.3310547c0.5605469,0.8867188,0.8398438,2.1621094,0.8398438,3.8242188c0,1.3300781-0.1660156,2.4082031-0.4980469,3.2304688
				s-0.8154297,1.3515625-1.4482422,1.5859375c0.5556641,0.2890625,0.9716797,0.7734375,1.2490234,1.453125s0.4160156,1.5429688,0.4160156,2.5878906c0,1.5292969-0.2539063,2.6953125-0.7636719,3.5c-0.5097656,0.8037109-1.25,1.2060547-2.2207031,1.2060547
				c-0.9619141,0-1.6992188-0.4023438-2.2128906-1.2060547c-0.5136719-0.8046875-0.7714844-1.9707031-0.7714844-3.5c0-1.0449219,0.140625-1.9082031,0.421875-2.5878906c0.2792969-0.6796875,0.7050781-1.1640625,1.2734375-1.453125z M150.5112305,221.5957031
				c0,1.4785156,0.0839844,2.4980469,0.25,3.0546875c0.1660156,0.5585938,0.4560547,0.8369141,0.8691406,0.8369141c0.4140625,0,0.7060547-0.2783203,0.8759766-0.8369141c0.1708984-0.5566406,0.2548828-1.5761719,0.2548828-3.0546875
				c0-1.4951172-0.0839844-2.5273438-0.2548828-3.0976563c-0.1699219-0.5703125-0.4619141-0.8544922-0.8759766-0.8544922c-0.4042969,0-0.6933594,0.2841797-0.8632813,0.8544922s-0.2558594,1.6025391-0.2558594,3.0976563z M150.7299805,230.203125
				c0,1.2734375,0.0683594,2.1484375,0.203125,2.6279297s0.3632813,0.71875,0.6875,0.71875c0.3330078,0,0.5644531-0.2392578,0.6953125-0.71875s0.1953125-1.3544922,0.1953125-2.6279297c0-1.2636719-0.0644531-2.1318359-0.1953125-2.6035156
				c-0.1308594-0.4707031-0.3623047-0.7060547-0.6953125-0.7060547c-0.3242188,0-0.5527344,0.2353516-0.6875,0.7060547c-0.1347656,0.4716797-0.203125,1.3398438-0.203125,2.6035156z"/>
		</g>
		<path style="&st2;" d="M16.3007813,34.0561523h-5.0419922c0,0,0.7880859,0.1625977,2.9936523-1.9541016c2.2060547-2.1171875,2.0483398-3.2573242,2.0483398-3.2573242 M11.2587891,34.0561523c0,0,1.1030273-0.1625977,3.1513672,2.1171875
			c2.0478516,2.2802734,1.890625,3.0942383,1.890625,3.0942383v-5.2114258 M16.3007813,39.2675781c0,0-0.1572266-1.1396484,2.0483398-3.2568359c2.2060547-2.1171875,2.9936523-1.9545898,2.9936523-1.9545898h-5.0419922 M21.3427734,34.0561523
			c0,0-1.1030273,0.1630859-3.1513672-2.1171875c-2.0478516-2.2802734-1.890625-3.0942383-1.890625-3.0942383v5.2114258"/>
		<path style="&st2;" d="M150.7299805,208.1396484h5.0410156c0,0-0.7871094-0.1630859-2.9921875,1.9541016c-2.2070313,2.1171875-2.0488281,3.2578125-2.0488281,3.2578125 M155.7709961,208.1396484c0,0-1.1015625,0.1630859-3.1503906-2.1171875
			s-1.890625-3.0947266-1.890625-3.0947266v5.2119141 M150.7299805,202.9277344c0,0,0.1572266,1.140625-2.0488281,3.2578125c-2.2050781,2.1171875-2.9931641,1.9541016-2.9931641,1.9541016h5.0419922 M145.6879883,208.1396484
			c0,0,1.1025391-0.1630859,3.1513672,2.1171875c2.0478516,2.2802734,1.890625,3.0947266,1.890625,3.0947266v-5.2119141"/>
	</g>
</svg>
