<?xml version="1.0" encoding="utf-8"?>
<!-- Generator: Adobe Illustrator 9.0, SVG Export Plug-In  -->
<!DOCTYPE svg PUBLIC "-//W3C//DTD SVG 20000303 Stylable//EN"   "http://www.w3.org/TR/2000/03/WD-SVG-20000303/DTD/svg-20000303-stylable.dtd" [
	<!ENTITY st0 "fill:#FFFFFF;stroke-width:0.5;">
	<!ENTITY st1 "fill-rule:nonzero;clip-rule:nonzero;stroke:#000000;stroke-miterlimit:4;">
	<!ENTITY st2 "stroke:none;">
]>
<!-- This set of SVG files is a complete cards game with figures, numbers	-->
<!--    and backs of cards completely designed in SVG.				-->
<!--    									-->
<!--    Copyright (C) 2004 David Bellot						-->
<!--										-->
<!--    This library is free software; you can redistribute it and/or		-->
<!--    modify it under the terms of the GNU Lesser General Public		-->
<!--    License as published by the Free Software Foundation; either		-->
<!--    version 2 of the License, or (at your option) any later version		-->
<!--										-->
<!--    This library is distributed in the hope that it will be useful,		-->
<!--    but WITHOUT ANY WARRANTY; without even the implied warranty of		-->
<!--    MERCHANTABILITY or FITNESS FOR A PARTICULAR PURPOSE.  See the GNU	-->
<!--    Lesser General Public License for more details.				-->
<!--										-->
<!--    You should have received a copy of the GNU Lesser General Public	-->
<!--    License along with this library; if not, write to the Free Software	-->
<!--    Foundation, Inc., 59 Temple Place, Suite 330, Boston, MA 02111-1307  USA-->
<!--										-->
<!--    Contact the author David Bellot at bellot@stat.berkeley.edu or 		-->
<!--    david.bellot@free.fr or yimyom@users.sourceforge.net			-->
<svg  width="167.0869141pt" height="242.6674805pt" viewBox="0 0 167.0869141 242.6674805" xml:space="preserve">
	<g id="Layer_x0020_1" style="&st1;">
		<path style="&st0;" d="M166.8369141,235.5473633c0,3.7802734-3.0859375,6.8701172-6.8710938,6.8701172H7.1108398c-3.7744141,0-6.8608398-3.0898438-6.8608398-6.8701172V7.1201172C0.25,3.3452148,3.3364258,0.25,7.1108398,0.25h152.8549805
			c3.7851563,0,6.8710938,3.0952148,6.8710938,6.8701172v228.4272461z"/>
		<g style="&st2;">
			<path d="M125.9951172,19.918457c0,3.7753906-3.1542969,6.8339844-7.0449219,6.8339844c-3.8925781,0-7.046875-3.0585938-7.046875-6.8339844c0-3.7734375,3.1542969-6.8330078,7.046875-6.8330078c3.890625,0,7.0449219,3.0595703,7.0449219,6.8330078z"/>
			<path d="M135.0673828,32.8486328c0,3.7744141-3.1542969,6.8334961-7.046875,6.8334961c-3.890625,0-7.0449219-3.059082-7.0449219-6.8334961c0-3.7739258,3.1542969-6.8330078,7.0449219-6.8330078c3.8925781,0,7.046875,3.059082,7.046875,6.8330078z"/>
			<path d="M117.0244141,32.8989258c0,1.3823242-0.421875,2.668457-1.1503906,3.7436523c-1.2578125,1.8608398-3.4296875,3.0893555-5.8964844,3.0893555c-3.890625,0-7.0449219-3.0581055-7.0449219-6.8330078c0-3.7739258,3.1542969-6.8334961,7.0449219-6.8334961
				c3.8925781,0,7.046875,3.0595703,7.046875,6.8334961z"/>
			<g>
				<path d="M127.2138672,46.1621094c-3.4804688,0.0029297-5.3105469-2.8271484-6.2714844-5.6567383c-0.9589844-2.8300781-1.0488281-5.6611328-1.0488281-5.6611328l-1.7773438-0.0141602c0,0-0.3320313,11.3242188-7.2890625,11.3295898l16.3867188,0.0024414z"/>
			</g>
			<g>
				<path d="M114.1591797,24.9306641c3.9570313,3.9575195,3.9570313,9.8994141,3.9570313,9.8994141l1.7773438,0.0141602c0,0,0-6.0673828,3.8457031-9.9135742"/>
			</g>
			<g>
				<path d="M114.9521484,37.6474609c3.9570313-3.9570313,9.8984375-3.9570313,9.8984375-3.9570313l0.0136719-1.7758789c0,0-6.0664063,0-9.9121094-3.8461914"/>
			</g>
			<g>
				<path d="M122.8876953,37.6767578c-3.9570313-3.9570313-9.8984375-3.9570313-9.8984375-3.9570313l-0.0136719-1.7758789c0,0,6.0664063,0,9.9121094-3.8461914"/>
			</g>
		</g>
		<g style="&st2;">
			<path d="M55.2446289,19.918457c0,3.7753906-3.1542969,6.8339844-7.0449219,6.8339844c-3.8925781,0-7.046875-3.0585938-7.046875-6.8339844c0-3.7734375,3.1542969-6.8330078,7.046875-6.8330078c3.890625,0,7.0449219,3.0595703,7.0449219,6.8330078z"/>
			<path d="M64.3168945,32.8486328c0,3.7744141-3.1542969,6.8334961-7.0458984,6.8334961s-7.0458984-3.059082-7.0458984-6.8334961c0-3.7739258,3.1542969-6.8330078,7.0458984-6.8330078s7.0458984,3.059082,7.0458984,6.8330078z"/>
			<path d="M46.2749023,32.8989258c0,1.3823242-0.4228516,2.668457-1.1503906,3.7436523c-1.2587891,1.8608398-3.4296875,3.0893555-5.8964844,3.0893555c-3.8916016,0-7.0449219-3.0581055-7.0449219-6.8330078c0-3.7739258,3.1533203-6.8334961,7.0449219-6.8334961
				s7.046875,3.0595703,7.046875,6.8334961z"/>
			<g>
				<path d="M56.4633789,46.1621094c-3.4794922,0.0029297-5.3095703-2.8271484-6.2705078-5.6567383c-0.9599609-2.8300781-1.0498047-5.6611328-1.0498047-5.6611328l-1.7763672-0.0141602c0,0-0.3330078,11.3242188-7.2900391,11.3295898l16.3867188,0.0024414z"/>
			</g>
			<g>
				<path d="M43.409668,24.9306641c3.9570313,3.9575195,3.9570313,9.8994141,3.9570313,9.8994141l1.7763672,0.0141602c0,0,0-6.0673828,3.8457031-9.9135742"/>
			</g>
			<g>
				<path d="M44.2016602,37.6474609c3.9570313-3.9570313,9.8984375-3.9570313,9.8984375-3.9570313l0.0146484-1.7758789c0,0-6.0673828,0-9.9130859-3.8461914"/>
			</g>
			<g>
				<path d="M52.1381836,37.6767578c-3.9580078-3.9570313-9.8994141-3.9570313-9.8994141-3.9570313l-0.0136719-1.7758789c0,0,6.0673828,0,9.9130859-3.8461914"/>
			</g>
		</g>
		<g style="&st2;">
			<path d="M55.7446289,79.668457c0,3.7753906-3.1542969,6.8339844-7.0449219,6.8339844c-3.8925781,0-7.046875-3.0585938-7.046875-6.8339844c0-3.7734375,3.1542969-6.8330078,7.046875-6.8330078c3.890625,0,7.0449219,3.0595703,7.0449219,6.8330078z"/>
			<path d="M64.8168945,92.5986328c0,3.7744141-3.1542969,6.8334961-7.0458984,6.8334961s-7.0458984-3.059082-7.0458984-6.8334961c0-3.7739258,3.1542969-6.8330078,7.0458984-6.8330078s7.0458984,3.059082,7.0458984,6.8330078z"/>
			<path d="M46.7749023,92.6489258c0,1.3823242-0.4228516,2.668457-1.1503906,3.7436523c-1.2587891,1.8608398-3.4296875,3.0893555-5.8964844,3.0893555c-3.8916016,0-7.0449219-3.0581055-7.0449219-6.8330078c0-3.7739258,3.1533203-6.8334961,7.0449219-6.8334961
				s7.046875,3.0595703,7.046875,6.8334961z"/>
			<g>
				<path d="M56.9633789,105.9121094c-3.4794922,0.0029297-5.3095703-2.8271484-6.2705078-5.6567383c-0.9599609-2.8300781-1.0498047-5.6611328-1.0498047-5.6611328l-1.7763672-0.0141602c0,0-0.3330078,11.3242188-7.2900391,11.3295898l16.3867188,0.0024414z"/>
			</g>
			<g>
				<path d="M43.909668,84.6806641c3.9570313,3.9575195,3.9570313,9.8994141,3.9570313,9.8994141l1.7763672,0.0141602c0,0,0-6.0673828,3.8457031-9.9135742"/>
			</g>
			<g>
				<path d="M44.7016602,97.3974609c3.9570313-3.9570313,9.8984375-3.9570313,9.8984375-3.9570313l0.0146484-1.7758789c0,0-6.0673828,0-9.9130859-3.8461914"/>
			</g>
			<g>
				<path d="M52.6381836,97.4267578c-3.9580078-3.9570313-9.8994141-3.9570313-9.8994141-3.9570313l-0.0136719-1.7758789c0,0,6.0673828,0,9.9130859-3.8461914"/>
			</g>
		</g>
		<g style="&st2;">
			<path d="M125.7451172,79.668457c0,3.7753906-3.1542969,6.8339844-7.0449219,6.8339844c-3.8925781,0-7.046875-3.0585938-7.046875-6.8339844c0-3.7734375,3.1542969-6.8330078,7.046875-6.8330078c3.890625,0,7.0449219,3.0595703,7.0449219,6.8330078z"/>
			<path d="M134.8173828,92.5986328c0,3.7744141-3.1542969,6.8334961-7.046875,6.8334961c-3.890625,0-7.0449219-3.059082-7.0449219-6.8334961c0-3.7739258,3.1542969-6.8330078,7.0449219-6.8330078c3.8925781,0,7.046875,3.059082,7.046875,6.8330078z"/>
			<path d="M116.7744141,92.6489258c0,1.3823242-0.421875,2.668457-1.1503906,3.7436523c-1.2578125,1.8608398-3.4296875,3.0893555-5.8964844,3.0893555c-3.890625,0-7.0449219-3.0581055-7.0449219-6.8330078c0-3.7739258,3.1542969-6.8334961,7.0449219-6.8334961
				c3.8925781,0,7.046875,3.0595703,7.046875,6.8334961z"/>
			<g>
				<path d="M126.9638672,105.9121094c-3.4804688,0.0029297-5.3105469-2.8271484-6.2714844-5.6567383c-0.9589844-2.8300781-1.0488281-5.6611328-1.0488281-5.6611328l-1.7773438-0.0141602c0,0-0.3320313,11.3242188-7.2890625,11.3295898l16.3867188,0.0024414z"/>
			</g>
			<g>
				<path d="M113.9091797,84.6806641c3.9570313,3.9575195,3.9570313,9.8994141,3.9570313,9.8994141l1.7773438,0.0141602c0,0,0-6.0673828,3.8457031-9.9135742"/>
			</g>
			<g>
				<path d="M114.7021484,97.3974609c3.9570313-3.9570313,9.8984375-3.9570313,9.8984375-3.9570313l0.0136719-1.7758789c0,0-6.0664063,0-9.9121094-3.8461914"/>
			</g>
			<g>
				<path d="M122.6376953,97.4267578c-3.9570313-3.9570313-9.8984375-3.9570313-9.8984375-3.9570313l-0.0136719-1.7758789c0,0,6.0664063,0,9.9121094-3.8461914"/>
			</g>
		</g>
		<g style="&st2;">
			<path d="M93.2451172,111.668457c0,3.7753906-3.1542969,6.8339844-7.0449219,6.8339844c-3.8930664,0-7.0473633-3.0585938-7.0473633-6.8339844c0-3.7734375,3.1542969-6.8330078,7.0473633-6.8330078c3.890625,0,7.0449219,3.0595703,7.0449219,6.8330078z"/>
			<path d="M102.3173828,124.5991211c0,3.7734375-3.1542969,6.8330078-7.046875,6.8330078c-3.890625,0-7.0449219-3.0595703-7.0449219-6.8330078c0-3.7744141,3.1542969-6.8334961,7.0449219-6.8334961c3.8925781,0,7.046875,3.059082,7.046875,6.8334961z"/>
			<path d="M84.2744141,124.6489258c0,1.3818359-0.421875,2.6689453-1.1499023,3.7431641c-1.2587891,1.8613281-3.4296875,3.0898438-5.8964844,3.0898438c-3.8916016,0-7.0449219-3.0585938-7.0449219-6.8330078c0-3.7739258,3.1533203-6.8334961,7.0449219-6.8334961
				s7.0463867,3.0595703,7.0463867,6.8334961z"/>
			<g>
				<path d="M94.4638672,137.9116211c-3.4804688,0.0039063-5.3105469-2.8261719-6.2714844-5.65625c-0.9589844-2.8300781-1.0488281-5.6611328-1.0488281-5.6611328l-1.7773438-0.0146484c0,0-0.3320313,11.3242188-7.2895508,11.3300781l16.387207,0.0019531z"/>
			</g>
			<g>
				<path d="M81.409668,116.6806641c3.956543,3.9575195,3.956543,9.8989258,3.956543,9.8989258l1.7773438,0.0146484c0,0,0-6.0673828,3.8457031-9.9135742"/>
			</g>
			<g>
				<path d="M82.2016602,129.3979492c3.9575195-3.9570313,9.8989258-3.9570313,9.8989258-3.9570313l0.0136719-1.7763672c0,0-6.0664063,0-9.9125977-3.8461914"/>
			</g>
			<g>
				<path d="M90.1376953,129.4272461c-3.9570313-3.9570313-9.8989258-3.9570313-9.8989258-3.9570313l-0.0136719-1.7763672c0,0,6.0668945,0,9.9125977-3.8461914"/>
			</g>
		</g>
		<g style="&st2;">
			<path d="M55.5629883,163.1665039c0-3.7744141-3.1533203-6.8339844-7.0449219-6.8339844c-3.8925781,0-7.046875,3.0595703-7.046875,6.8339844c0,3.7734375,3.1542969,6.8330078,7.046875,6.8330078c3.8916016,0,7.0449219-3.0595703,7.0449219-6.8330078z"/>
			<path d="M64.6352539,150.2358398c0-3.7734375-3.1542969-6.8320313-7.0458984-6.8320313s-7.0458984,3.0585938-7.0458984,6.8320313c0,3.7753906,3.1542969,6.8339844,7.0458984,6.8339844s7.0458984-3.0585938,7.0458984-6.8339844z"/>
			<path d="M46.5932617,150.1870117c0-1.3828125-0.4228516-2.6689453-1.1503906-3.7441406c-1.2587891-1.8613281-3.4296875-3.0898438-5.8964844-3.0898438c-3.8916016,0-7.0449219,3.0585938-7.0449219,6.8339844c0,3.7734375,3.1533203,6.8330078,7.0449219,6.8330078
				s7.046875-3.0595703,7.046875-6.8330078z"/>
			<g>
				<path d="M40.3950195,136.925293c6.9570313,0.0058594,7.2900391,11.3300781,7.2900391,11.3300781l1.7763672-0.0146484c0,0,0.0898438-2.8310547,1.0498047-5.6611328c0.9609375-2.8300781,2.7910156-5.6591797,6.2705078-5.65625l-16.3867188,0.0019531z"/>
			</g>
			<g>
				<path d="M43.7280273,158.1538086c3.9570313-3.9570313,3.9570313-9.8984375,3.9570313-9.8984375l1.7763672-0.0146484c0,0,0,6.0673828,3.8457031,9.9130859"/>
			</g>
			<g>
				<path d="M44.5200195,145.4370117c3.9570313,3.9580078,9.8994141,3.9580078,9.8994141,3.9580078l0.0146484,1.7753906c0,0-6.0683594,0-9.9140625,3.8466797"/>
			</g>
			<g>
				<path d="M52.456543,145.4077148c-3.9570313,3.9580078-9.8994141,3.9580078-9.8994141,3.9580078l-0.0136719,1.7753906c0,0,6.0673828,0,9.9130859,3.8466797"/>
			</g>
		</g>
		<g style="&st2;">
			<path d="M125.7822266,163.1665039c0-3.7744141-3.1523438-6.8339844-7.0449219-6.8339844s-7.046875,3.0595703-7.046875,6.8339844c0,3.7734375,3.1542969,6.8330078,7.046875,6.8330078s7.0449219-3.0595703,7.0449219-6.8330078z"/>
			<path d="M134.8544922,150.2358398c0-3.7734375-3.1542969-6.8320313-7.0449219-6.8320313c-3.8925781,0-7.046875,3.0585938-7.046875,6.8320313c0,3.7753906,3.1542969,6.8339844,7.046875,6.8339844c3.890625,0,7.0449219-3.0585938,7.0449219-6.8339844z"/>
			<path d="M116.8134766,150.1870117c0-1.3828125-0.4238281-2.6689453-1.1503906-3.7441406c-1.2597656-1.8613281-3.4296875-3.0898438-5.8964844-3.0898438c-3.8925781,0-7.0449219,3.0585938-7.0449219,6.8339844c0,3.7734375,3.1523438,6.8330078,7.0449219,6.8330078
				c3.890625,0,7.046875-3.0595703,7.046875-6.8330078z"/>
			<g>
				<path d="M110.6142578,136.925293c6.9570313,0.0058594,7.2910156,11.3300781,7.2910156,11.3300781l1.7753906-0.0146484c0,0,0.0898438-2.8310547,1.0507813-5.6611328s2.7910156-5.6591797,6.2695313-5.65625l-16.3867188,0.0019531z"/>
			</g>
			<g>
				<path d="M113.9482422,158.1538086c3.9570313-3.9570313,3.9570313-9.8984375,3.9570313-9.8984375l1.7753906-0.0146484c0,0,0,6.0673828,3.8457031,9.9130859"/>
			</g>
			<g>
				<path d="M114.7392578,145.4370117c3.9570313,3.9580078,9.9003906,3.9580078,9.9003906,3.9580078l0.0136719,1.7753906c0,0-6.0683594,0-9.9140625,3.8466797"/>
			</g>
			<g>
				<path d="M122.6767578,145.4077148c-3.9570313,3.9580078-9.9003906,3.9580078-9.9003906,3.9580078l-0.0136719,1.7753906c0,0,6.0683594,0,9.9140625,3.8466797"/>
			</g>
		</g>
		<g style="&st2;">
			<path d="M55.3305664,223.1557617c0-3.7753906-3.1542969-6.8339844-7.0449219-6.8339844c-3.8925781,0-7.046875,3.0585938-7.046875,6.8339844c0,3.7734375,3.1542969,6.8330078,7.046875,6.8330078c3.890625,0,7.0449219-3.0595703,7.0449219-6.8330078z"/>
			<path d="M64.402832,210.2250977c0-3.7744141-3.1542969-6.8330078-7.0458984-6.8330078s-7.0458984,3.0585938-7.0458984,6.8330078s3.1542969,6.8330078,7.0458984,6.8330078s7.0458984-3.0585938,7.0458984-6.8330078z"/>
			<path d="M46.3608398,210.175293c0-1.3828125-0.4228516-2.6679688-1.1503906-3.7441406c-1.2587891-1.8603516-3.4296875-3.0898438-5.8964844-3.0898438c-3.8916016,0-7.0449219,3.0585938-7.0449219,6.8339844c0,3.7734375,3.1533203,6.8339844,7.0449219,6.8339844
				s7.046875-3.0605469,7.046875-6.8339844z"/>
			<g>
				<path d="M40.1625977,196.9145508c6.9570313,0.0048828,7.2900391,11.3291016,7.2900391,11.3291016l1.7763672-0.0136719c0,0,0.0898438-2.8320313,1.0498047-5.6611328c0.9609375-2.8300781,2.7910156-5.6591797,6.2705078-5.6572266l-16.3867188,0.0029297z"/>
			</g>
			<g>
				<path d="M43.4956055,218.1430664c3.9570313-3.9570313,3.9570313-9.8994141,3.9570313-9.8994141l1.7763672-0.0136719c0,0,0,6.0673828,3.8457031,9.9130859"/>
			</g>
			<g>
				<path d="M44.2875977,205.4262695c3.9570313,3.9580078,9.8984375,3.9580078,9.8984375,3.9580078l0.0146484,1.7753906c0,0-6.0673828,0-9.9130859,3.8457031"/>
			</g>
			<g>
				<path d="M52.2241211,205.3969727c-3.9580078,3.9580078-9.8994141,3.9580078-9.8994141,3.9580078l-0.0136719,1.7753906c0,0,6.0673828,0,9.9130859,3.8457031"/>
			</g>
		</g>
		<g style="&st2;">
			<path d="M126.9443359,218.9702148c0-3.7753906-3.1523438-6.8339844-7.0449219-6.8339844c-3.890625,0-7.0449219,3.0585938-7.0449219,6.8339844c0,3.7734375,3.1542969,6.8339844,7.0449219,6.8339844c3.8925781,0,7.0449219-3.0605469,7.0449219-6.8339844z"/>
			<path d="M136.0185547,206.0405273c0-3.7753906-3.1542969-6.8339844-7.046875-6.8339844c-3.890625,0-7.0449219,3.0585938-7.0449219,6.8339844c0,3.7734375,3.1542969,6.8330078,7.0449219,6.8330078c3.8925781,0,7.046875-3.0595703,7.046875-6.8330078z"/>
			<path d="M117.9755859,205.9897461c0-1.3818359-0.421875-2.6679688-1.1503906-3.7431641c-1.2578125-1.8603516-3.4296875-3.0898438-5.8964844-3.0898438c-3.890625,0-7.0449219,3.0585938-7.0449219,6.8330078c0,3.7734375,3.1542969,6.8339844,7.0449219,6.8339844
				c3.8925781,0,7.046875-3.0605469,7.046875-6.8339844z"/>
			<g>
				<path d="M111.7783203,192.7299805c6.9570313,0.0048828,7.2890625,11.3291016,7.2890625,11.3291016l1.7753906-0.0146484c0,0,0.0898438-2.8310547,1.0507813-5.6601563c0.9609375-2.8300781,2.7910156-5.6601563,6.2695313-5.6582031l-16.3847656,0.0039063z"/>
			</g>
			<g>
				<path d="M115.1103516,213.9584961c3.9570313-3.9570313,3.9570313-9.8994141,3.9570313-9.8994141l1.7753906-0.0146484c0,0,0,6.0683594,3.8457031,9.9140625"/>
			</g>
			<g>
				<path d="M115.9013672,201.2416992c3.9589844,3.9570313,9.9003906,3.9570313,9.9003906,3.9570313l0.0136719,1.7753906c0,0-6.0664063,0-9.9140625,3.8457031"/>
			</g>
			<g>
				<path d="M123.8388672,201.2124023c-3.9570313,3.9570313-9.8984375,3.9570313-9.8984375,3.9570313l-0.015625,1.7753906c0,0,6.0683594,0,9.9140625,3.8457031"/>
			</g>
		</g>
		<g>
			<path style="&st2;" d="M15.9702148,18.4902344c-0.2421875,0.4267578-0.5078125,0.7470703-0.7978516,0.9604492s-0.6044922,0.3198242-0.9423828,0.3198242c-0.8134766,0-1.4560547-0.5380859-1.9277344-1.6147461
				c-0.4716797-1.0761719-0.7070313-2.5620117-0.7070313-4.4570313c0-1.9995117,0.2626953-3.5395508,0.7871094-4.6201172c0.5244141-1.0800781,1.2753906-1.6206055,2.2529297-1.6206055c1.1054688,0,1.9433594,0.7456055,2.5117188,2.2358398
				c0.5703125,1.4907227,0.8544922,3.6738281,0.8544922,6.5498047c0,3.2792969-0.3154297,5.7543945-0.9462891,7.4257813c-0.6298828,1.671875-1.5673828,2.5073242-2.8115234,2.5073242c-0.3232422,0-0.6708984-0.0600586-1.0419922-0.1796875
				c-0.3720703-0.1201172-0.7714844-0.2993164-1.2001953-0.5390625v-3.1875h0.65625c0.0966797,0.8212891,0.2695313,1.4433594,0.5195313,1.8662109s0.5722656,0.6337891,0.9677734,0.6337891c0.6367188,0,1.0976563-0.4931641,1.3837891-1.4794922
				s0.4326172-2.5864258,0.4414063-4.8007813z M14.7670898,8.8642578c-0.3779297,0-0.6464844,0.3535156-0.8066406,1.0595703c-0.1601563,0.706543-0.2402344,1.9316406-0.2402344,3.6748047c0,1.7436523,0.0800781,2.96875,0.2402344,3.6748047
				c0.1601563,0.706543,0.4287109,1.0595703,0.8066406,1.0595703s0.6464844-0.3530273,0.8066406-1.0595703c0.1601563-0.7060547,0.2402344-1.9311523,0.2402344-3.6748047c0-1.7431641-0.0800781-2.9682617-0.2402344-3.6748047
				c-0.1601563-0.7060547-0.4287109-1.0595703-0.8066406-1.0595703z"/>
		</g>
		<g>
			<path style="&st2;" d="M150.3681641,223.7573242c0.2421875-0.4277344,0.5078125-0.7480469,0.7988281-0.9609375c0.2890625-0.2128906,0.6035156-0.3203125,0.9414063-0.3203125c0.8144531,0,1.4570313,0.5390625,1.9277344,1.6152344
				c0.4726563,1.0761719,0.7070313,2.5625,0.7070313,4.4570313c0,2-0.2617188,3.5390625-0.7871094,4.6201172c-0.5234375,1.0800781-1.2753906,1.6201172-2.2519531,1.6201172c-1.1054688,0-1.9433594-0.7451172-2.5136719-2.2353516
				c-0.5683594-1.4912109-0.8535156-3.6738281-0.8535156-6.5498047c0-3.2792969,0.3164063-5.7539063,0.9453125-7.4257813c0.6308594-1.671875,1.5683594-2.5078125,2.8125-2.5078125c0.3242188,0,0.6699219,0.0605469,1.0429688,0.1796875
				c0.3710938,0.1210938,0.7714844,0.2998047,1.1992188,0.5390625v3.1875h-0.65625c-0.0957031-0.8203125-0.2695313-1.4433594-0.5195313-1.8652344c-0.25-0.4238281-0.5722656-0.6347656-0.9667969-0.6347656c-0.6367188,0-1.0976563,0.4941406-1.3847656,1.4804688
				c-0.2851563,0.9863281-0.4335938,2.5859375-0.4414063,4.8007813z M151.5712891,233.3823242c0.3789063,0,0.6464844-0.3535156,0.8066406-1.0585938c0.1601563-0.7070313,0.2402344-1.9316406,0.2402344-3.6757813c0-1.7431641-0.0800781-2.96875-0.2402344-3.6738281
				c-0.1601563-0.7070313-0.4277344-1.0605469-0.8066406-1.0605469c-0.3769531,0-0.6464844,0.3535156-0.8066406,1.0605469c-0.1601563,0.7050781-0.2402344,1.9306641-0.2402344,3.6738281c0,1.7441406,0.0800781,2.96875,0.2402344,3.6757813
				c0.1601563,0.7050781,0.4296875,1.0585938,0.8066406,1.0585938z"/>
		</g>
		<g style="&st2;">
			<path d="M18.0600586,31.1645508c0,1.1342773-0.9482422,2.0537109-2.1171875,2.0537109s-2.1162109-0.9194336-2.1162109-2.0537109c0-1.1337891,0.9472656-2.0527344,2.1162109-2.0527344s2.1171875,0.9189453,2.1171875,2.0527344z"/>
			<path d="M20.7856445,35.0498047c0,1.1337891-0.9472656,2.0527344-2.1171875,2.0527344c-1.1689453,0-2.1171875-0.9189453-2.1171875-2.0527344c0-1.1342773,0.9482422-2.0532227,2.1171875-2.0532227c1.1699219,0,2.1171875,0.9189453,2.1171875,2.0532227z"/>
			<path d="M15.3647461,35.0644531c0,0.4155273-0.1269531,0.8017578-0.3447266,1.125c-0.3789063,0.559082-1.03125,0.9282227-1.7724609,0.9282227c-1.1689453,0-2.1162109-0.9189453-2.1162109-2.0532227c0-1.1337891,0.9472656-2.0527344,2.1162109-2.0527344
				s2.1171875,0.9189453,2.1171875,2.0527344z"/>
			<g>
				<path d="M18.4262695,39.0498047c-1.0449219,0.0004883-1.5957031-0.8496094-1.8847656-1.699707C16.253418,36.5,16.2270508,35.6494141,16.2270508,35.6494141l-0.5341797-0.0043945c0,0-0.0996094,3.4023438-2.1904297,3.4038086l4.9238281,0.0009766z"/>
			</g>
			<g>
				<path d="M14.5043945,32.6704102c1.1884766,1.1894531,1.1884766,2.9746094,1.1884766,2.9746094l0.5341797,0.0043945c0,0,0-1.8232422,1.1552734-2.9790039"/>
			</g>
			<g>
				<path d="M14.7426758,36.4912109c1.1884766-1.1884766,2.9736328-1.1884766,2.9736328-1.1884766l0.0048828-0.5336914c0,0-1.8242188,0-2.9785156-1.1557617"/>
			</g>
			<g>
				<path d="M17.1264648,36.5004883c-1.1884766-1.1889648-2.9736328-1.1889648-2.9736328-1.1889648l-0.0048828-0.5336914c0,0,1.8232422,0,2.9785156-1.1557617"/>
			</g>
		</g>
		<g style="&st2;">
			<path d="M148.1982422,210.7768555c0-1.1337891,0.9472656-2.0527344,2.1171875-2.0527344s2.1171875,0.9189453,2.1171875,2.0527344c0,1.1347656-0.9472656,2.0537109-2.1171875,2.0537109s-2.1171875-0.9189453-2.1171875-2.0537109z"/>
			<path d="M145.4736328,206.8920898c0-1.1328125,0.9472656-2.0527344,2.1152344-2.0527344c1.1699219,0,2.1171875,0.9199219,2.1171875,2.0527344c0,1.1347656-0.9472656,2.0537109-2.1171875,2.0537109c-1.1679688,0-2.1152344-0.9189453-2.1152344-2.0537109z"/>
			<path d="M150.8935547,206.8774414c0-0.4150391,0.1269531-0.8017578,0.3457031-1.1240234c0.3789063-0.5595703,1.03125-0.9287109,1.7714844-0.9287109c1.1699219,0,2.1171875,0.9189453,2.1171875,2.0527344s-0.9472656,2.0537109-2.1171875,2.0537109
				s-2.1171875-0.9199219-2.1171875-2.0537109z"/>
			<g>
				<path d="M147.8330078,202.8920898c1.0449219,0,1.59375,0.8496094,1.8828125,1.7001953s0.3164063,1.7001953,0.3164063,1.7001953l0.5332031,0.0048828c0,0,0.0996094-3.4023438,2.1914063-3.4033203l-4.9238281-0.0019531z"/>
			</g>
			<g>
				<path d="M151.7548828,209.2709961c-1.1894531-1.1884766-1.1894531-2.9736328-1.1894531-2.9736328l-0.5332031-0.0048828c0,0,0,1.8242188-1.15625,2.9785156"/>
			</g>
			<g>
				<path d="M151.5166016,205.4506836c-1.1894531,1.1894531-2.9746094,1.1894531-2.9746094,1.1894531l-0.0039063,0.5332031c0,0,1.8222656,0,2.9785156,1.1552734"/>
			</g>
			<g>
				<path d="M149.1318359,205.4418945c1.1894531,1.1884766,2.9746094,1.1884766,2.9746094,1.1884766l0.0039063,0.5341797c0,0-1.8222656,0-2.9785156,1.1552734"/>
			</g>
		</g>
	</g>
</svg>
