<?xml version="1.0" encoding="utf-8"?>
<!-- Generator: Adobe Illustrator 9.0, SVG Export Plug-In  -->
<!DOCTYPE svg PUBLIC "-//W3C//DTD SVG 20000303 Stylable//EN"   "http://www.w3.org/TR/2000/03/WD-SVG-20000303/DTD/svg-20000303-stylable.dtd" [
	<!ENTITY st0 "fill:#FFFFFF;stroke-width:0.5;">
	<!ENTITY st1 "fill-rule:nonzero;clip-rule:nonzero;fill:#E61408;stroke:#000000;stroke-miterlimit:4;">
	<!ENTITY st2 "stroke:none;">
]>
<!-- This set of SVG files is a complete cards game with figures, numbers	-->
<!--    and backs of cards completely designed in SVG.				-->
<!--    									-->
<!--    Copyright (C) 2004 David Bellot						-->
<!--										-->
<!--    This library is free software; you can redistribute it and/or		-->
<!--    modify it under the terms of the GNU Lesser General Public		-->
<!--    License as published by the Free Software Foundation; either		-->
<!--    version 2 of the License, or (at your option) any later version		-->
<!--										-->
<!--    This library is distributed in the hope that it will be useful,		-->
<!--    but WITHOUT ANY WARRANTY; without even the implied warranty of		-->
<!--    MERCHANTABILITY or FITNESS FOR A PARTICULAR PURPOSE.  See the GNU	-->
<!--    Lesser General Public License for more details.				-->
<!--										-->
<!--    You should have received a copy of the GNU Lesser General Public	-->
<!--    License along with this library; if not, write to the Free Software	-->
<!--    Foundation, Inc., 59 Temple Place, Suite 330, Boston, MA 02111-1307  USA-->
<!--										-->
<!--    Contact the author David Bellot at bellot@stat.berkeley.edu or 		-->
<!--    david.bellot@free.fr or yimyom@users.sourceforge.net			-->
<svg  width="167.0878906pt" height="242.6650391pt" viewBox="0 0 167.0878906 242.6650391" xml:space="preserve">
	<g id="Layer_x0020_1" style="&st1;">
		<path style="&st0;" d="M166.8378906,235.5449219c0,3.7753906-3.0859375,6.8701172-6.8691406,6.8701172H7.1108398c-3.7749023,0-6.8608398-3.0947266-6.8608398-6.8701172V7.1201172C0.25,3.340332,3.3359375,0.25,7.1108398,0.25H159.96875
			c3.7832031,0,6.8691406,3.090332,6.8691406,6.8701172v228.4248047z"/>
		<path style="&st2;" d="M48.5385742,29.7099609H32.9379883c0,0,2.4375,0.503418,9.2626953-6.046875c6.8251953-6.5507813,6.3378906-10.078125,6.3378906-10.078125 M32.9379883,29.7099609c0,0,3.4130859-0.5039063,9.75,6.5507813
			s5.8505859,9.5742188,5.8505859,9.5742188v-16.125 M48.5385742,45.8349609c0,0-0.4882813-3.5273438,6.3378906-10.078125c6.8242188-6.550293,9.2617188-6.046875,9.2617188-6.046875H48.5385742 M64.1381836,29.7099609c0,0-3.4121094,0.5039063-9.75-6.5507813
			c-6.3369141-7.0546875-5.8496094-9.5742188-5.8496094-9.5742188v16.125"/>
		<path style="&st2;" d="M117.765625,13.3618164c0,0-0.4863281,3.5273438,6.3378906,10.078125c6.8261719,6.550293,9.2617188,6.046875,9.2617188,6.046875H117.765625 M117.765625,29.4868164v16.1245117c0,0-0.4863281-2.5195313,5.8515625-9.5737305
			c6.3359375-7.0546875,9.7480469-6.5507813,9.7480469-6.5507813 M117.765625,29.4868164h-15.5996094c0,0,2.4375-0.5039063,9.2617188,6.046875c6.8261719,6.550293,6.3378906,10.0776367,6.3378906,10.0776367 M117.765625,29.4868164v-16.125
			c0,0,0.4882813,2.5195313-5.8496094,9.5742188s-9.75,6.5507813-9.75,6.5507813"/>
		<path style="&st2;" d="M48.253418,228.4091797c0,0,0.4873047-3.5273438-6.3378906-10.078125c-6.8251953-6.5498047-9.2626953-6.046875-9.2626953-6.046875H48.253418 M48.253418,212.2841797v-16.1240234c0,0,0.4863281,2.5195313-5.8505859,9.5732422
			c-6.3369141,7.0546875-9.75,6.5507813-9.75,6.5507813 M48.253418,212.2841797h15.5996094c0,0-2.4375,0.5039063-9.2617188-6.046875c-6.8261719-6.5498047-6.3378906-10.0771484-6.3378906-10.0771484 M48.253418,212.2841797v16.125
			c0,0-0.4873047-2.5195313,5.8496094-9.5742188c6.3378906-7.0546875,9.75-6.5507813,9.75-6.5507813"/>
		<path style="&st2;" d="M117.4804688,212.5078125h15.5996094c0,0-2.4355469-0.5039063-9.2617188,6.046875c-6.8242188,6.5507813-6.3378906,10.078125-6.3378906,10.078125 M133.0800781,212.5078125c0,0-3.4121094,0.5039063-9.7480469-6.5507813
			c-6.3378906-7.0546875-5.8515625-9.5742188-5.8515625-9.5742188v16.125 M117.4804688,196.3828125c0,0,0.4882813,3.5273438-6.3378906,10.078125c-6.8242188,6.5507813-9.2617188,6.046875-9.2617188,6.046875h15.5996094 M101.8808594,212.5078125
			c0,0,3.4121094-0.5039063,9.75,6.5507813s5.8496094,9.5742188,5.8496094,9.5742188v-16.125"/>
		<path style="&st2;" d="M48.5327148,89.4702148H32.9331055c0,0,2.4375,0.503418,9.2626953-6.046875c6.8251953-6.5507813,6.3369141-10.078125,6.3369141-10.078125 M32.9331055,89.4702148c0,0,3.4121094-0.5039063,9.75,6.5507813
			c6.3369141,7.0541992,5.8496094,9.5737305,5.8496094,9.5737305V89.4702148 M48.5327148,105.5947266c0,0-0.4873047-3.5273438,6.3378906-10.0776367c6.8251953-6.5507813,9.2626953-6.046875,9.2626953-6.046875H48.5327148 M64.1333008,89.4702148
			c0,0-3.4130859,0.5039063-9.75-6.5507813s-5.8505859-9.5742188-5.8505859-9.5742188v16.125"/>
		<path style="&st2;" d="M117.7617188,73.121582c0,0-0.4882813,3.5273438,6.3359375,10.078125c6.8261719,6.550293,9.2636719,6.046875,9.2636719,6.046875h-15.5996094 M117.7617188,89.246582v16.1245117c0,0-0.4882813-2.5195313,5.8496094-9.5737305
			c6.3378906-7.0546875,9.75-6.5507813,9.75-6.5507813 M117.7617188,89.246582h-15.6015625c0,0,2.4375-0.5039063,9.2636719,6.046875c6.8242188,6.550293,6.3378906,10.0776367,6.3378906,10.0776367 M117.7617188,89.246582v-16.125
			c0,0,0.4863281,2.5195313-5.8515625,9.5742188c-6.3359375,7.0546875-9.75,6.5507813-9.75,6.5507813"/>
		<path style="&st2;" d="M48.4516602,168.6621094c0,0,0.4873047-3.5273438-6.3378906-10.078125s-9.2626953-6.046875-9.2626953-6.046875h15.6005859 M48.4516602,152.5371094v-16.125c0,0,0.4873047,2.5195313-5.8505859,9.5742188
			c-6.3369141,7.0546875-9.75,6.5507813-9.75,6.5507813 M48.4516602,152.5371094h15.5996094c0,0-2.4365234,0.5039063-9.2617188-6.046875s-6.3378906-10.078125-6.3378906-10.078125 M48.4516602,152.5371094v16.125c0,0-0.4873047-2.5195313,5.8505859-9.5742188
			c6.3369141-7.0546875,9.7490234-6.5507813,9.7490234-6.5507813"/>
		<path style="&st2;" d="M117.6796875,152.7597656h15.5996094c0,0-2.4375-0.5029297-9.2617188,6.046875c-6.8261719,6.5507813-6.3378906,10.078125-6.3378906,10.078125 M133.2792969,152.7597656c0,0-3.4121094,0.5039063-9.75-6.5507813
			c-6.3378906-7.0537109-5.8496094-9.5732422-5.8496094-9.5732422v16.1240234 M117.6796875,136.6357422c0,0,0.4863281,3.5273438-6.3378906,10.0771484c-6.8242188,6.5507813-9.2617188,6.046875-9.2617188,6.046875h15.5996094 M102.0800781,152.7597656
			c0,0,3.4121094-0.5039063,9.75,6.5507813c6.3359375,7.0546875,5.8496094,9.5742188,5.8496094,9.5742188v-16.125"/>
		<path style="&st2;" d="M85.2792969,121.3251953H69.6791992c0,0,2.4375,0.503418,9.2626953-6.046875c6.8256836-6.5507813,6.3374023-10.078125,6.3374023-10.078125 M69.6791992,121.3251953c0,0,3.4130859-0.5039063,9.75,6.5507813
			c6.3383789,7.0537109,5.8500977,9.5732422,5.8500977,9.5732422v-16.1240234 M85.2792969,137.4492188c0,0-0.4863281-3.5273438,6.3378906-10.0771484c6.8261719-6.5507813,9.2617188-6.046875,9.2617188-6.046875H85.2792969 M100.8789063,121.3251953
			c0,0-3.4121094,0.5039063-9.7480469-6.5507813c-6.3378906-7.0546875-5.8515625-9.5742188-5.8515625-9.5742188v16.125"/>
		<g>
			<path style="&st2;" d="M15.8862305,18.6572266c-0.2421875,0.4267578-0.5078125,0.7470703-0.796875,0.9604492C14.7983398,19.8310547,14.4838867,19.9375,14.1459961,19.9375c-0.8134766,0-1.4560547-0.5380859-1.9272461-1.6147461
				c-0.4716797-1.0761719-0.7070313-2.5620117-0.7070313-4.4570313c0-1.9995117,0.262207-3.5395508,0.7871094-4.6201172C12.8232422,8.1655273,13.5742188,7.625,14.5512695,7.625c1.1064453,0,1.9433594,0.7456055,2.5126953,2.2358398
				c0.5693359,1.4907227,0.8535156,3.6738281,0.8535156,6.5498047c0,3.2792969-0.3144531,5.7543945-0.9453125,7.4257813c-0.6308594,1.671875-1.5683594,2.5073242-2.8125,2.5073242c-0.3227539,0-0.6699219-0.0600586-1.0415039-0.1796875
				c-0.3720703-0.1201172-0.7719727-0.2993164-1.2001953-0.5390625v-3.1875h0.65625c0.0966797,0.8212891,0.2695313,1.4433594,0.5195313,1.8662109S13.6660156,24.9375,14.0610352,24.9375c0.6367188,0,1.0986328-0.4931641,1.3837891-1.4794922
				c0.2871094-0.9863281,0.4335938-2.5864258,0.4414063-4.8007813z M14.6831055,9.03125c-0.3769531,0-0.6459961,0.3535156-0.8061523,1.0595703c-0.1601563,0.706543-0.2402344,1.9316406-0.2402344,3.6748047c0,1.7436523,0.0800781,2.96875,0.2402344,3.6748047
				C14.0371094,18.1469727,14.3061523,18.5,14.6831055,18.5c0.3779297,0,0.6464844-0.3530273,0.8066406-1.0595703c0.1601563-0.7060547,0.2402344-1.9311523,0.2402344-3.6748047c0-1.7431641-0.0800781-2.9682617-0.2402344-3.6748047
				C15.3295898,9.3847656,15.0610352,9.03125,14.6831055,9.03125z"/>
		</g>
		<g>
			<path style="&st2;" d="M150.2851563,223.9238281c0.2421875-0.4267578,0.5078125-0.7470703,0.796875-0.9609375c0.2910156-0.2128906,0.6054688-0.3193359,0.9433594-0.3193359c0.8144531,0,1.4570313,0.5380859,1.9277344,1.6142578
				s0.7070313,2.5625,0.7070313,4.4570313c0,2-0.2617188,3.5400391-0.7871094,4.6210938c-0.5253906,1.0800781-1.2753906,1.6201172-2.2519531,1.6201172c-1.1074219,0-1.9433594-0.7451172-2.5136719-2.2353516
				c-0.5683594-1.4912109-0.8535156-3.6738281-0.8535156-6.5507813c0-3.2792969,0.3144531-5.7539063,0.9453125-7.4257813s1.5683594-2.5068359,2.8125-2.5068359c0.3222656,0,0.6699219,0.0595703,1.0410156,0.1796875
				c0.3730469,0.1201172,0.7734375,0.2998047,1.2011719,0.5390625v3.1875h-0.65625c-0.0976563-0.8212891-0.2695313-1.4433594-0.5195313-1.8662109s-0.5722656-0.6337891-0.9667969-0.6337891c-0.6367188,0-1.0996094,0.4931641-1.3847656,1.4794922
				c-0.2871094,0.9863281-0.4335938,2.5859375-0.4414063,4.8007813z M151.4882813,233.5498047c0.3769531,0,0.6464844-0.3535156,0.8066406-1.0595703c0.1601563-0.7070313,0.2402344-1.9316406,0.2402344-3.6748047s-0.0800781-2.96875-0.2402344-3.6748047
				c-0.1601563-0.7070313-0.4296875-1.0595703-0.8066406-1.0595703s-0.6464844,0.3525391-0.8066406,1.0595703c-0.1601563,0.7060547-0.2402344,1.9316406-0.2402344,3.6748047s0.0800781,2.9677734,0.2402344,3.6748047
				c0.1601563,0.7060547,0.4296875,1.0595703,0.8066406,1.0595703z"/>
		</g>
		<path style="&st2;" d="M16.1049805,34.0566406h-5.0419922c0,0,0.7880859,0.1625977,2.9936523-1.9545898c2.206543-2.1171875,2.0483398-3.2573242,2.0483398-3.2573242 M11.0629883,34.0566406c0,0,1.1030273-0.1630859,3.1513672,2.1171875
			c2.0478516,2.2797852,1.890625,3.0942383,1.890625,3.0942383v-5.2114258 M16.1049805,39.2680664c0,0-0.1572266-1.1401367,2.0488281-3.2573242c2.2050781-2.1171875,2.9931641-1.9541016,2.9931641-1.9541016h-5.0419922 M21.1469727,34.0566406
			c0,0-1.1025391,0.1625977-3.1513672-2.1176758c-2.0478516-2.2797852-1.890625-3.0942383-1.890625-3.0942383v5.2119141"/>
		<path style="&st2;" d="M150.5332031,208.140625h5.0429688c0,0-0.7871094-0.1640625-2.9941406,1.953125c-2.2050781,2.1171875-2.0488281,3.2578125-2.0488281,3.2578125 M155.5761719,208.140625c0,0-1.1035156,0.1621094-3.1503906-2.1181641
			c-2.0488281-2.2802734-1.8925781-3.0947266-1.8925781-3.0947266v5.2128906 M150.5332031,202.9277344c0,0,0.1582031,1.140625-2.046875,3.2578125c-2.2070313,2.1171875-2.9941406,1.9550781-2.9941406,1.9550781h5.0410156 M145.4921875,208.140625
			c0,0,1.1035156-0.1640625,3.1503906,2.1171875c2.0488281,2.2792969,1.890625,3.09375,1.890625,3.09375v-5.2109375"/>
	</g>
</svg>
