<?xml version="1.0" encoding="utf-8"?>
<!-- Generator: Adobe Illustrator 9.0, SVG Export Plug-In  -->
<!DOCTYPE svg PUBLIC "-//W3C//DTD SVG 20000303 Stylable//EN"   "http://www.w3.org/TR/2000/03/WD-SVG-20000303/DTD/svg-20000303-stylable.dtd" [
	<!ENTITY st0 "fill:#FFFFFF;stroke-width:0.5;">
	<!ENTITY st1 "fill-rule:nonzero;clip-rule:nonzero;stroke:#000000;stroke-miterlimit:4;">
	<!ENTITY st2 "stroke:none;">
]>
<!-- This set of SVG files is a complete cards game with figures, numbers	-->
<!--    and backs of cards completely designed in SVG.				-->
<!--    									-->
<!--    Copyright (C) 2004 David Bellot						-->
<!--										-->
<!--    This library is free software; you can redistribute it and/or		-->
<!--    modify it under the terms of the GNU Lesser General Public		-->
<!--    License as published by the Free Software Foundation; either		-->
<!--    version 2 of the License, or (at your option) any later version		-->
<!--										-->
<!--    This library is distributed in the hope that it will be useful,		-->
<!--    but WITHOUT ANY WARRANTY; without even the implied warranty of		-->
<!--    MERCHANTABILITY or FITNESS FOR A PARTICULAR PURPOSE.  See the GNU	-->
<!--    Lesser General Public License for more details.				-->
<!--										-->
<!--    You should have received a copy of the GNU Lesser General Public	-->
<!--    License along with this library; if not, write to the Free Software	-->
<!--    Foundation, Inc., 59 Temple Place, Suite 330, Boston, MA 02111-1307  USA-->
<!--										-->
<!--    Contact the author David Bellot at bellot@stat.berkeley.edu or 		-->
<!--    david.bellot@free.fr or yimyom@users.sourceforge.net			-->
<svg  width="167.0864258pt" height="242.6669922pt" viewBox="0 0 167.0864258 242.6669922" xml:space="preserve">
	<g id="Layer_x0020_1" style="&st1;">
		<path style="&st0;" d="M166.8364258,235.5478516c0,3.7773438-3.0859375,6.8691406-6.8710938,6.8691406H7.1103516c-3.7744141,0-6.8603516-3.0917969-6.8603516-6.8691406V7.1196289C0.25,3.3427734,3.3359375,0.25,7.1103516,0.25H159.965332
			c3.7851563,0,6.8710938,3.0927734,6.8710938,6.8696289v228.4282227z"/>
		<g style="&st2;">
			<g>
				<path d="M56.8720703,46.2202148c-3.4794922,0.0039063-5.3095703-3.706543-6.2705078-7.4160156c-0.9599609-3.7109375-1.0507813-7.4233398-1.0507813-7.4233398l-1.7753906-0.0175781c0,0-0.3320313,14.847168-7.2910156,14.8535156l16.3876953,0.003418z"/>
			</g>
			<path d="M62.7597656,31.3774414c-0.03125-7.2426758-10.8730469-12.4951172-14.0576172-18.2265625c-3.1826172,5.7314453-14.0253906,10.9838867-14.0556641,18.2265625c-0.0146484,3.4199219,3.1464844,6.1899414,7.0283203,6.1899414
				c3.8808594,0,7.0273438-2.7700195,7.0273438-6.1899414c0,3.4199219,3.1474609,6.1899414,7.0292969,6.1899414s7.0283203-2.7700195,7.0283203-6.1899414z"/>
		</g>
		<g style="&st2;">
			<g>
				<path d="M126.5766602,46.2202148c-3.4785156,0.0039063-5.3105469-3.706543-6.2695313-7.4160156c-0.9609375-3.7109375-1.0527344-7.4233398-1.0527344-7.4233398l-1.7734375-0.0175781c0,0-0.3339844,14.847168-7.2910156,14.8535156l16.3867188,0.003418z"/>
			</g>
			<path d="M132.4633789,31.3774414c-0.03125-7.2426758-10.8730469-12.4951172-14.0566406-18.2265625c-3.1816406,5.7314453-14.0253906,10.9838867-14.0566406,18.2265625c-0.0136719,3.4199219,3.1464844,6.1899414,7.0292969,6.1899414
				c3.8808594,0,7.0273438-2.7700195,7.0273438-6.1899414c0,3.4199219,3.1484375,6.1899414,7.0292969,6.1899414s7.0273438-2.7700195,7.0273438-6.1899414z"/>
		</g>
		<g style="&st2;">
			<g>
				<path d="M56.8720703,106.1005859c-3.4794922,0.003418-5.3095703-3.706543-6.2705078-7.4160156c-0.9599609-3.7114258-1.0507813-7.4233398-1.0507813-7.4233398l-1.7753906-0.0175781c0,0-0.3320313,14.847168-7.2910156,14.8535156l16.3876953,0.003418z"/>
			</g>
			<path d="M62.7597656,91.2578125c-0.03125-7.2426758-10.8730469-12.4956055-14.0576172-18.2270508c-3.1826172,5.7314453-14.0253906,10.984375-14.0556641,18.2270508c-0.0146484,3.4194336,3.1464844,6.1899414,7.0283203,6.1899414
				c3.8808594,0,7.0273438-2.7705078,7.0273438-6.1899414c0,3.4194336,3.1474609,6.1899414,7.0292969,6.1899414s7.0283203-2.7705078,7.0283203-6.1899414z"/>
		</g>
		<g style="&st2;">
			<g>
				<path d="M126.1079102,106.1005859c-3.4785156,0.003418-5.3085938-3.706543-6.2695313-7.4160156c-0.9609375-3.7114258-1.0507813-7.4233398-1.0507813-7.4233398l-1.7753906-0.0175781c0,0-0.3320313,14.847168-7.2910156,14.8535156l16.3867188,0.003418z"/>
			</g>
			<path d="M131.996582,91.2578125c-0.03125-7.2426758-10.8730469-12.4956055-14.0585938-18.2270508c-3.1816406,5.7314453-14.0253906,10.984375-14.0546875,18.2270508c-0.015625,3.4194336,3.1464844,6.1899414,7.0273438,6.1899414
				s7.0273438-2.7705078,7.0273438-6.1899414c0,3.4194336,3.1484375,6.1899414,7.0292969,6.1899414c3.8828125,0,7.0292969-2.7705078,7.0292969-6.1899414z"/>
		</g>
		<g style="&st2;">
			<g>
				<path d="M93.5961914,137.5693359c-3.4804688,0.0039063-5.3105469-3.7070313-6.2695313-7.4160156c-0.9609375-3.7109375-1.0527344-7.4238281-1.0527344-7.4238281l-1.7753906-0.0175781c0,0-0.3320313,14.8476563-7.2895508,14.8535156l16.387207,0.0039063z"/>
			</g>
			<path d="M99.4829102,122.7265625c-0.03125-7.2426758-10.8730469-12.4956055-14.0566406-18.2270508c-3.1831055,5.7314453-14.0258789,10.984375-14.0561523,18.2270508c-0.0146484,3.4189453,3.1464844,6.1904297,7.0283203,6.1904297
				c3.8808594,0,7.027832-2.7714844,7.027832-6.1904297c0,3.4189453,3.1464844,6.1904297,7.0292969,6.1904297c3.8808594,0,7.0273438-2.7714844,7.0273438-6.1904297z"/>
		</g>
		<g style="&st2;">
			<g>
				<path d="M40.0166016,136.7939453c6.9580078,0.0058594,7.2900391,14.8535156,7.2900391,14.8535156l1.7753906-0.0175781c0,0,0.0917969-3.7119141,1.0517578-7.4238281c0.9599609-3.7089844,2.7900391-7.4189453,6.2695313-7.4160156l-16.3867188,0.0039063z"/>
			</g>
			<path d="M62.2910156,151.6337891c-0.03125,7.2421875-10.8730469,12.4951172-14.0576172,18.2265625c-3.1826172-5.7314453-14.0253906-10.984375-14.0556641-18.2265625c-0.0136719-3.4199219,3.1464844-6.1904297,7.0283203-6.1904297
				s7.0273438,2.7705078,7.0273438,6.1904297c0-3.4199219,3.1474609-6.1904297,7.0292969-6.1904297s7.0283203,2.7705078,7.0283203,6.1904297z"/>
		</g>
		<g style="&st2;">
			<g>
				<path d="M109.7211914,136.7939453c6.9570313,0.0058594,7.2910156,14.8535156,7.2910156,14.8535156l1.7753906-0.0175781c0,0,0.0898438-3.7119141,1.0507813-7.4238281c0.9609375-3.7089844,2.7910156-7.4189453,6.2695313-7.4160156l-16.3867188,0.0039063z"/>
			</g>
			<path d="M131.9946289,151.6337891c-0.0292969,7.2421875-10.8730469,12.4951172-14.0566406,18.2265625c-3.1816406-5.7314453-14.0253906-10.984375-14.0566406-18.2265625c-0.0136719-3.4199219,3.1484375-6.1904297,7.0292969-6.1904297
				s7.0273438,2.7705078,7.0273438,6.1904297c0-3.4199219,3.1484375-6.1904297,7.0292969-6.1904297c3.8828125,0,7.0273438,2.7705078,7.0273438,6.1904297z"/>
		</g>
		<g style="&st2;">
			<g>
				<path d="M40.484375,196.9082031c6.9580078,0.0068359,7.2910156,14.8544922,7.2910156,14.8544922l1.7744141-0.0185547c0,0,0.0908203-3.7119141,1.0517578-7.4228516c0.9609375-3.7089844,2.7910156-7.4199219,6.2695313-7.4160156l-16.3867188,0.0029297z"/>
			</g>
			<path d="M62.7587891,211.7470703c-0.0302734,7.2431641-10.8730469,12.4960938-14.0576172,18.2265625c-3.1816406-5.7304688-14.0253906-10.9833984-14.0556641-18.2265625c-0.0136719-3.4199219,3.1464844-6.1894531,7.0283203-6.1894531
				s7.0273438,2.7695313,7.0273438,6.1894531c0-3.4199219,3.1484375-6.1894531,7.0292969-6.1894531c3.8818359,0,7.0283203,2.7695313,7.0283203,6.1894531z"/>
		</g>
		<g style="&st2;">
			<g>
				<path d="M110.1879883,196.9082031c6.9589844,0.0068359,7.2910156,14.8544922,7.2910156,14.8544922l1.7753906-0.0185547c0,0,0.0917969-3.7119141,1.0507813-7.4228516c0.9609375-3.7089844,2.7910156-7.4199219,6.2695313-7.4160156l-16.3867188,0.0029297z"/>
			</g>
			<path d="M132.4633789,211.7470703c-0.03125,7.2431641-10.8730469,12.4960938-14.0585938,18.2265625c-3.1816406-5.7304688-14.0234375-10.9833984-14.0546875-18.2265625c-0.0136719-3.4199219,3.1464844-6.1894531,7.0292969-6.1894531
				c3.8808594,0,7.0253906,2.7695313,7.0253906,6.1894531c0-3.4199219,3.1484375-6.1894531,7.03125-6.1894531c3.8808594,0,7.0273438,2.7695313,7.0273438,6.1894531z"/>
		</g>
		<g>
			<path style="&st2;" d="M16.0605469,18.4458008c-0.2421875,0.4267578-0.5078125,0.7470703-0.7988281,0.9604492c-0.2890625,0.2133789-0.6035156,0.3198242-0.9414063,0.3198242c-0.8144531,0-1.4570313-0.5380859-1.9277344-1.6147461
				c-0.4726563-1.0761719-0.7070313-2.5620117-0.7070313-4.4570313c0-1.9995117,0.2617188-3.5395508,0.7871094-4.6201172c0.5234375-1.0800781,1.2753906-1.6206055,2.2519531-1.6206055c1.1054688,0,1.9433594,0.7456055,2.5126953,2.2358398
				c0.5693359,1.4907227,0.8544922,3.6738281,0.8544922,6.5498047c0,3.2792969-0.3164063,5.7543945-0.9462891,7.4257813c-0.6298828,1.671875-1.5673828,2.5073242-2.8115234,2.5073242c-0.3242188,0-0.6708984-0.0600586-1.0429688-0.1796875
				c-0.3710938-0.1201172-0.7714844-0.2993164-1.1992188-0.5390625v-3.1875h0.65625c0.0957031,0.8212891,0.2695313,1.4433594,0.5195313,1.8662109s0.5722656,0.6337891,0.9667969,0.6337891c0.6367188,0,1.0976563-0.4931641,1.3847656-1.4794922
				c0.2851563-0.9863281,0.4326172-2.5864258,0.4414063-4.8007813z M14.8574219,8.8198242c-0.3789063,0-0.6464844,0.3535156-0.8066406,1.0595703c-0.1601563,0.706543-0.2402344,1.9316406-0.2402344,3.6748047c0,1.7436523,0.0800781,2.96875,0.2402344,3.6748047
				c0.1601563,0.706543,0.4277344,1.0595703,0.8066406,1.0595703c0.3769531,0,0.6464844-0.3530273,0.8066406-1.0595703c0.1601563-0.7060547,0.2402344-1.9311523,0.2402344-3.6748047c0-1.7431641-0.0800781-2.9682617-0.2402344-3.6748047
				c-0.1601563-0.7060547-0.4296875-1.0595703-0.8066406-1.0595703z"/>
		</g>
		<g>
			<path style="&st2;" d="M150.4575195,223.7119141c0.2421875-0.4257813,0.5078125-0.7460938,0.7988281-0.9589844c0.2890625-0.2148438,0.6035156-0.3203125,0.9414063-0.3203125c0.8144531,0,1.4570313,0.5371094,1.9277344,1.6152344
				c0.4726563,1.0761719,0.7070313,2.5605469,0.7070313,4.4570313c0,1.9980469-0.2617188,3.5390625-0.7871094,4.6191406c-0.5234375,1.0800781-1.2753906,1.6210938-2.2519531,1.6210938c-1.1054688,0-1.9433594-0.7460938-2.5117188-2.2363281
				c-0.5703125-1.4902344-0.8554688-3.6738281-0.8554688-6.5488281c0-3.2792969,0.3164063-5.7558594,0.9472656-7.4257813c0.6289063-1.671875,1.5664063-2.5078125,2.8105469-2.5078125c0.3242188,0,0.671875,0.0605469,1.0429688,0.1796875
				s0.7714844,0.2988281,1.1992188,0.5390625v3.1875h-0.65625c-0.0957031-0.8222656-0.2695313-1.4433594-0.5195313-1.8671875c-0.25-0.421875-0.5722656-0.6328125-0.9667969-0.6328125c-0.6367188,0-1.0976563,0.4921875-1.3847656,1.4785156
				c-0.2851563,0.9863281-0.4316406,2.5878906-0.4414063,4.8007813z M151.6606445,233.3388672c0.3789063,0,0.6464844-0.3535156,0.8066406-1.0605469c0.1601563-0.7050781,0.2402344-1.9316406,0.2402344-3.6738281c0-1.7441406-0.0800781-2.96875-0.2402344-3.6757813
				c-0.1601563-0.7050781-0.4277344-1.0585938-0.8066406-1.0585938c-0.3769531,0-0.6464844,0.3535156-0.8066406,1.0585938c-0.1601563,0.7070313-0.2402344,1.9316406-0.2402344,3.6757813c0,1.7421875,0.0800781,2.96875,0.2402344,3.6738281
				c0.1601563,0.7070313,0.4296875,1.0605469,0.8066406,1.0605469z"/>
		</g>
		<g style="&st2;">
			<g>
				<path d="M18.9199219,39.2822266c-1.0957031,0.0009766-1.671875-1.1669922-1.9736328-2.3349609c-0.3027344-1.168457-0.3310547-2.3374023-0.3310547-2.3374023l-0.5585938-0.0053711c0,0-0.1054688,4.6743164-2.2958984,4.6767578l5.1591797,0.0009766z"/>
			</g>
			<path d="M20.7734375,34.6088867c-0.0097656-2.2802734-3.4228516-3.934082-4.4257813-5.7382813c-1.0019531,1.8041992-4.4160156,3.4580078-4.4257813,5.7382813c-0.0039063,1.0766602,0.9912109,1.9492188,2.2138672,1.9492188
				c1.2216797,0,2.2119141-0.8725586,2.2119141-1.9492188c0,1.0766602,0.9912109,1.9492188,2.2128906,1.9492188c1.2226563,0,2.2128906-0.8725586,2.2128906-1.9492188z"/>
		</g>
		<g style="&st2;">
			<g>
				<path d="M147.9067383,202.9482422c1.09375,0,1.6699219,1.1679688,1.9726563,2.3359375s0.3320313,2.3369141,0.3320313,2.3369141l0.5585938,0.0048828c0,0,0.1054688-4.6738281,2.2949219-4.6757813l-5.1582031-0.0019531z"/>
			</g>
			<path d="M146.0512695,207.6220703c0.0097656,2.2802734,3.4238281,3.9335938,4.4277344,5.7382813c1.0019531-1.8046875,4.4140625-3.4580078,4.4238281-5.7382813c0.0058594-1.0761719-0.9902344-1.9492188-2.2128906-1.9492188
				c-1.2207031,0-2.2109375,0.8730469-2.2109375,1.9492188c0-1.0761719-0.9921875-1.9492188-2.2148438-1.9492188c-1.2207031,0-2.2128906,0.8730469-2.2128906,1.9492188z"/>
		</g>
	</g>
</svg>
