<?xml version="1.0" encoding="utf-8"?>
<!-- Generator: Adobe Illustrator 9.0, SVG Export Plug-In  -->
<!DOCTYPE svg PUBLIC "-//W3C//DTD SVG 20000303 Stylable//EN"   "http://www.w3.org/TR/2000/03/WD-SVG-20000303/DTD/svg-20000303-stylable.dtd" [
	<!ENTITY st0 "fill:#FFFFFF;stroke-width:0.5;">
	<!ENTITY st1 "fill-rule:nonzero;clip-rule:nonzero;fill:#E61408;stroke:#000000;stroke-miterlimit:4;">
	<!ENTITY st2 "stroke:none;">
]>
<!-- This set of SVG files is a complete cards game with figures, numbers	-->
<!--    and backs of cards completely designed in SVG.				-->
<!--    									-->
<!--    Copyright (C) 2004 David Bellot						-->
<!--										-->
<!--    This library is free software; you can redistribute it and/or		-->
<!--    modify it under the terms of the GNU Lesser General Public		-->
<!--    License as published by the Free Software Foundation; either		-->
<!--    version 2 of the License, or (at your option) any later version		-->
<!--										-->
<!--    This library is distributed in the hope that it will be useful,		-->
<!--    but WITHOUT ANY WARRANTY; without even the implied warranty of		-->
<!--    MERCHANTABILITY or FITNESS FOR A PARTICULAR PURPOSE.  See the GNU	-->
<!--    Lesser General Public License for more details.				-->
<!--										-->
<!--    You should have received a copy of the GNU Lesser General Public	-->
<!--    License along with this library; if not, write to the Free Software	-->
<!--    Foundation, Inc., 59 Temple Place, Suite 330, Boston, MA 02111-1307  USA-->
<!--										-->
<!--    Contact the author David Bellot at bellot@stat.berkeley.edu or 		-->
<!--    david.bellot@free.fr or yimyom@users.sourceforge.net			-->
<svg  width="167.0893555pt" height="242.6669922pt" viewBox="0 0 167.0893555 242.6669922" xml:space="preserve">
	<g id="Layer_x0020_1" style="&st1;">
		<path style="&st0;" d="M166.8393555,235.5478516c0,3.7753906-3.0859375,6.8691406-6.8710938,6.8691406H7.1113281c-3.7753906,0-6.8613281-3.09375-6.8613281-6.8691406V7.1201172C0.25,3.3452148,3.3359375,0.25,7.1113281,0.25h152.8569336
			c3.7851563,0,6.8710938,3.0952148,6.8710938,6.8701172v228.4277344z"/>
		<g>
			<path style="&st2;" d="M33.1777344,21.9067383c0.0185547,9.5805664,12.0224609,16.5576172,15.5380859,24.1435547c3.5507813-7.5678711,15.5917969-14.4824219,15.6542969-24.0629883c0.0273438-4.5175781-3.4707031-8.1938477-7.7734375-8.203125
				c-4.3115234-0.0087891-7.8095703,3.6411133-7.8183594,8.1674805c0.0087891-4.5263672-3.4707031-8.1943359-7.7822266-8.203125c-4.3027344-0.0180664-7.7998047,3.640625-7.8183594,8.1582031z"/>
		</g>
		<g>
			<path style="&st2;" d="M33.1777344,81.6972656c0.0185547,9.5805664,12.0224609,16.5576172,15.5380859,24.1435547c3.5507813-7.5678711,15.5917969-14.4829102,15.6542969-24.0629883c0.0273438-4.5263672-3.4707031-8.1938477-7.7734375-8.203125
				c-4.3115234-0.0087891-7.8095703,3.6411133-7.8183594,8.1669922c0.0087891-4.5258789-3.4707031-8.1938477-7.7822266-8.2114258c-4.3027344-0.0092773-7.7998047,3.6494141-7.8183594,8.1669922z"/>
		</g>
		<g>
			<path style="&st2;" d="M33.1777344,220.7607422c0.0185547-9.5800781,12.0224609-16.5488281,15.5380859-24.1425781c3.5507813,7.5761719,15.5917969,14.4902344,15.6542969,24.0625c0.0273438,4.5263672-3.4707031,8.203125-7.7734375,8.2109375
				c-4.3115234,0.0097656-7.8095703-3.6484375-7.8183594-8.1660156c0.0087891,4.5175781-3.4707031,8.1933594-7.7822266,8.203125c-4.3027344,0.0078125-7.7998047-3.6416016-7.8183594-8.1679688z"/>
		</g>
		<g>
			<path style="&st2;" d="M33.1777344,160.9794922c0.0185547-9.5800781,12.0224609-16.5576172,15.5380859-24.1435547c3.5507813,7.5673828,15.5917969,14.4824219,15.6542969,24.0634766c0.0273438,4.5175781-3.4707031,8.1933594-7.7734375,8.203125
				c-4.3115234,0.0078125-7.8095703-3.6416016-7.8183594-8.1679688c0.0087891,4.5263672-3.4707031,8.1943359-7.7822266,8.203125c-4.3027344,0.0175781-7.7998047-3.640625-7.8183594-8.1582031z"/>
		</g>
		<g>
			<path style="&st2;" d="M133.9116211,21.9067383c-0.0097656,9.5805664-12.0234375,16.5576172-15.5390625,24.1435547c-3.5410156-7.5678711-15.5917969-14.4824219-15.6542969-24.0629883c-0.0253906-4.5175781,3.4707031-8.1938477,7.7832031-8.203125
				c4.3027344-0.0087891,7.8007813,3.6411133,7.8183594,8.1674805c-0.0175781-4.5263672,3.4707031-8.1943359,7.7734375-8.203125c4.3105469-0.0180664,7.8085938,3.640625,7.8183594,8.1582031z"/>
		</g>
		<g>
			<path style="&st2;" d="M133.9116211,81.6972656c-0.0097656,9.5805664-12.0234375,16.5576172-15.5390625,24.1435547c-3.5410156-7.5678711-15.5917969-14.4829102-15.6542969-24.0629883c-0.0253906-4.5263672,3.4707031-8.1938477,7.7832031-8.203125
				c4.3027344-0.0087891,7.8007813,3.6411133,7.8183594,8.1669922c-0.0175781-4.5258789,3.4707031-8.1938477,7.7734375-8.2114258c4.3105469-0.0092773,7.8085938,3.6494141,7.8183594,8.1669922z"/>
		</g>
		<g>
			<path style="&st2;" d="M133.9116211,220.7607422c-0.0097656-9.5800781-12.0234375-16.5488281-15.5390625-24.1425781c-3.5410156,7.5761719-15.5917969,14.4902344-15.6542969,24.0625c-0.0253906,4.5263672,3.4707031,8.203125,7.7832031,8.2109375
				c4.3027344,0.0097656,7.8007813-3.6484375,7.8183594-8.1660156c-0.0175781,4.5175781,3.4707031,8.1933594,7.7734375,8.203125c4.3105469,0.0078125,7.8085938-3.6416016,7.8183594-8.1679688z"/>
		</g>
		<g>
			<path style="&st2;" d="M133.9116211,160.9794922c-0.0097656-9.5800781-12.0234375-16.5576172-15.5390625-24.1435547c-3.5410156,7.5673828-15.5917969,14.4824219-15.6542969,24.0634766c-0.0253906,4.5175781,3.4707031,8.1933594,7.7832031,8.203125
				c4.3027344,0.0078125,7.8007813-3.6416016,7.8183594-8.1679688c-0.0175781,4.5263672,3.4707031,8.1943359,7.7734375,8.203125c4.3105469,0.0175781,7.8085938-3.640625,7.8183594-8.1582031z"/>
		</g>
		<g>
			<path style="&st2;" d="M69.8173828,113.5068359c0.0185547,9.5800781,12.0234375,16.5576172,15.5375977,24.1425781c3.5527344-7.5664063,15.5917969-14.4824219,15.6542969-24.0620117c0.0273438-4.5175781-3.4707031-8.1938477-7.7734375-8.203125
				c-4.3105469-0.0087891-7.8085938,3.640625-7.8164063,8.1669922c0.0078125-4.5263672-3.4711914-8.1938477-7.7836914-8.2026367c-4.3027344-0.0180664-7.7998047,3.640625-7.8183594,8.1582031z"/>
		</g>
		<g>
			<path style="&st2;" d="M16.1152344,18.6943359c-0.2421875,0.4267578-0.5078125,0.7470703-0.7978516,0.9604492S14.7128906,19.9746094,14.375,19.9746094c-0.8134766,0-1.4560547-0.5380859-1.9277344-1.6147461
				c-0.4716797-1.0761719-0.7070313-2.5620117-0.7070313-4.4570313c0-1.9995117,0.262207-3.5395508,0.7871094-4.6201172c0.5244141-1.0800781,1.2753906-1.6206055,2.2529297-1.6206055c1.1054688,0,1.9433594,0.7456055,2.5117188,2.2358398
				c0.5703125,1.4907227,0.8544922,3.6738281,0.8544922,6.5498047c0,3.2792969-0.3154297,5.7543945-0.9462891,7.4257813c-0.6298828,1.671875-1.5673828,2.5073242-2.8115234,2.5073242c-0.3232422,0-0.6708984-0.0600586-1.0419922-0.1796875
				c-0.3720703-0.1201172-0.7719727-0.2993164-1.2001953-0.5390625v-3.1875h0.65625c0.0966797,0.8212891,0.2695313,1.4433594,0.5195313,1.8662109s0.5722656,0.6337891,0.9677734,0.6337891c0.6367188,0,1.0976563-0.4931641,1.3837891-1.4794922
				s0.4326172-2.5864258,0.4414063-4.8007813z M14.9121094,9.0683594c-0.3779297,0-0.6464844,0.3535156-0.8066406,1.0595703c-0.1601563,0.706543-0.2402344,1.9316406-0.2402344,3.6748047c0,1.7436523,0.0800781,2.96875,0.2402344,3.6748047
				c0.1601563,0.706543,0.4287109,1.0595703,0.8066406,1.0595703s0.6464844-0.3530273,0.8066406-1.0595703c0.1601563-0.7060547,0.2402344-1.9311523,0.2402344-3.6748047c0-1.7431641-0.0800781-2.9682617-0.2402344-3.6748047
				c-0.1601563-0.7060547-0.4287109-1.0595703-0.8066406-1.0595703z"/>
		</g>
		<g>
			<path style="&st2;" d="M150.5131836,223.9619141c0.2421875-0.4277344,0.5078125-0.7480469,0.7988281-0.9609375c0.2890625-0.2128906,0.6035156-0.3203125,0.9414063-0.3203125c0.8144531,0,1.4570313,0.5390625,1.9277344,1.6152344
				c0.4726563,1.0761719,0.7070313,2.5625,0.7070313,4.4570313c0,2-0.2617188,3.5390625-0.7871094,4.6201172c-0.5234375,1.0800781-1.2753906,1.6201172-2.2519531,1.6201172c-1.1054688,0-1.9433594-0.7451172-2.5136719-2.2353516
				c-0.5683594-1.4912109-0.8535156-3.6738281-0.8535156-6.5498047c0-3.2792969,0.3164063-5.7539063,0.9453125-7.4257813c0.6308594-1.671875,1.5683594-2.5078125,2.8125-2.5078125c0.3242188,0,0.6699219,0.0605469,1.0429688,0.1796875
				c0.3710938,0.1210938,0.7714844,0.2998047,1.1992188,0.5390625v3.1875h-0.65625c-0.0957031-0.8203125-0.2695313-1.4433594-0.5195313-1.8652344c-0.25-0.4238281-0.5722656-0.6347656-0.9667969-0.6347656c-0.6367188,0-1.0976563,0.4941406-1.3847656,1.4804688
				c-0.2851563,0.9863281-0.4335938,2.5859375-0.4414063,4.8007813z M151.7163086,233.5869141c0.3789063,0,0.6464844-0.3535156,0.8066406-1.0585938c0.1601563-0.7070313,0.2402344-1.9316406,0.2402344-3.6757813c0-1.7431641-0.0800781-2.96875-0.2402344-3.6738281
				c-0.1601563-0.7070313-0.4277344-1.0605469-0.8066406-1.0605469c-0.3769531,0-0.6464844,0.3535156-0.8066406,1.0605469c-0.1601563,0.7050781-0.2402344,1.9306641-0.2402344,3.6738281c0,1.7441406,0.0800781,2.96875,0.2402344,3.6757813
				c0.1601563,0.7050781,0.4296875,1.0585938,0.8066406,1.0585938z"/>
		</g>
		<g>
			<path style="&st2;" d="M11.5732422,31.6108398c0.0029297,2.8735352,3.6054688,4.9667969,4.6601563,7.2431641c1.0644531-2.2709961,4.6787109-4.3457031,4.6953125-7.2197266c0.0087891-1.3564453-1.0410156-2.4580078-2.3330078-2.4614258
				s-2.3408203,1.0932617-2.3447266,2.449707c0.0039063-1.3564453-1.0410156-2.4584961-2.3330078-2.4614258c-1.2919922-0.003418-2.3417969,1.0927734-2.3447266,2.449707z"/>
		</g>
		<g>
			<path style="&st2;" d="M154.9506836,210.9082031c-0.0039063-2.8740234-3.6054688-4.9658203-4.6601563-7.2431641c-1.0644531,2.2714844-4.6796875,4.3457031-4.6972656,7.2197266c-0.0078125,1.3564453,1.0410156,2.4580078,2.3339844,2.4619141
				c1.2910156,0.0029297,2.3417969-1.09375,2.3457031-2.4501953c-0.0039063,1.3564453,1.0410156,2.4580078,2.3320313,2.4619141c1.2929688,0.0029297,2.3417969-1.09375,2.3457031-2.4501953z"/>
		</g>
	</g>
</svg>
