<?xml version="1.0" encoding="utf-8"?>
<!-- Generator: Adobe Illustrator 9.0, SVG Export Plug-In  -->
<!DOCTYPE svg PUBLIC "-//W3C//DTD SVG 20000303 Stylable//EN"   "http://www.w3.org/TR/2000/03/WD-SVG-20000303/DTD/svg-20000303-stylable.dtd" [
	<!ENTITY st0 "fill:#FFFFFF;stroke-width:0.5;">
	<!ENTITY st1 "fill-rule:nonzero;clip-rule:nonzero;stroke:#000000;stroke-miterlimit:4;">
	<!ENTITY st2 "stroke:none;">
]>
<!-- This set of SVG files is a complete cards game with figures, numbers	-->
<!--    and backs of cards completely designed in SVG.				-->
<!--    									-->
<!--    Copyright (C) 2004 David Bellot						-->
<!--										-->
<!--    This library is free software; you can redistribute it and/or		-->
<!--    modify it under the terms of the GNU Lesser General Public		-->
<!--    License as published by the Free Software Foundation; either		-->
<!--    version 2 of the License, or (at your option) any later version		-->
<!--										-->
<!--    This library is distributed in the hope that it will be useful,		-->
<!--    but WITHOUT ANY WARRANTY; without even the implied warranty of		-->
<!--    MERCHANTABILITY or FITNESS FOR A PARTICULAR PURPOSE.  See the GNU	-->
<!--    Lesser General Public License for more details.				-->
<!--										-->
<!--    You should have received a copy of the GNU Lesser General Public	-->
<!--    License along with this library; if not, write to the Free Software	-->
<!--    Foundation, Inc., 59 Temple Place, Suite 330, Boston, MA 02111-1307  USA-->
<!--										-->
<!--    Contact the author David Bellot at bellot@stat.berkeley.edu or 		-->
<!--    david.bellot@free.fr or yimyom@users.sourceforge.net			-->
<svg  width="167.0864258pt" height="242.6669922pt" viewBox="0 0 167.0864258 242.6669922" xml:space="preserve">
	<g id="Layer_x0020_1" style="&st1;">
		<path style="&st0;" d="M166.8364258,235.5478516c0,3.7792969-3.0859375,6.8691406-6.8710938,6.8691406H7.1113281c-3.7753906,0-6.8613281-3.0898438-6.8613281-6.8691406V7.1201172C0.25,3.3452148,3.3359375,0.25,7.1113281,0.25H159.965332
			c3.7851563,0,6.8710938,3.0952148,6.8710938,6.8701172v228.4277344z"/>
		<g>
			<path style="&st2;" d="M57.0644531,46.2084961c-3.4794922,0-5.3134766-3.7124023-6.2792969-7.4291992c-0.9570313-3.7167969-1.046875-7.4335938-1.046875-7.4335938l-1.7802734-0.0180664c0,0-0.3310547,14.8671875-7.2998047,14.8764648l16.40625,0.0043945z"/>
		</g>
		<g>
			<path style="&st2;" d="M126.7387695,46.2041016c-6.96875-0.0092773-7.2988281-14.8764648-7.2988281-14.8764648l-1.7792969,0.0180664c0,0-0.0898438,3.7167969-1.046875,7.4335938c-0.9667969,3.7167969-2.8007813,7.4291992-6.2792969,7.4291992
				l16.4042969-0.0043945z"/>
		</g>
		<g>
			<path style="&st2;" d="M57.0371094,46.1098633c-3.4882813,0-5.3222656-3.7124023-6.2792969-7.4287109c-0.9658203-3.7167969-1.0546875-7.4335938-1.0546875-7.4335938l-1.78125-0.0180664c0,0-0.3300781,14.8671875-7.2900391,14.8759766l16.4052734,0.0043945z"/>
		</g>
		<g>
			<path style="&st2;" d="M126.7133789,46.1054688c-6.96875-0.0087891-7.3007813-14.8759766-7.3007813-14.8759766l-1.7792969,0.0180664c0,0-0.0898438,3.7167969-1.046875,7.4335938c-0.9667969,3.7163086-2.8007813,7.4287109-6.2792969,7.4287109l16.40625-0.0043945z
				"/>
		</g>
		<g style="&st2;">
			<path d="M55.4941406,19.8359375c0,3.7753906-3.1542969,6.8339844-7.0449219,6.8339844c-3.8925781,0-7.046875-3.0585938-7.046875-6.8339844c0-3.7734375,3.1542969-6.8330078,7.046875-6.8330078c3.890625,0,7.0449219,3.0595703,7.0449219,6.8330078z"/>
			<path d="M64.5664063,32.7661133c0,3.7744141-3.1542969,6.8334961-7.0458984,6.8334961s-7.0458984-3.059082-7.0458984-6.8334961c0-3.7739258,3.1542969-6.8330078,7.0458984-6.8330078s7.0458984,3.059082,7.0458984,6.8330078z"/>
			<path d="M46.5244141,32.8164063c0,1.3823242-0.4228516,2.668457-1.1503906,3.7436523c-1.2587891,1.8608398-3.4296875,3.0893555-5.8964844,3.0893555c-3.8916016,0-7.0449219-3.0581055-7.0449219-6.8330078c0-3.7739258,3.1533203-6.8334961,7.0449219-6.8334961
				s7.046875,3.0595703,7.046875,6.8334961z"/>
			<g>
				<path d="M56.7128906,46.0795898c-3.4794922,0.0029297-5.3095703-2.8271484-6.2705078-5.6567383c-0.9599609-2.8300781-1.0498047-5.6611328-1.0498047-5.6611328l-1.7763672-0.0141602c0,0-0.3330078,11.3242188-7.2900391,11.3295898l16.3867188,0.0024414z"/>
			</g>
			<g>
				<path d="M43.6591797,24.8481445c3.9570313,3.9575195,3.9570313,9.8994141,3.9570313,9.8994141l1.7763672,0.0141602c0,0,0-6.0673828,3.8457031-9.9135742"/>
			</g>
			<g>
				<path d="M44.4511719,37.5649414c3.9570313-3.9570313,9.8984375-3.9570313,9.8984375-3.9570313l0.015625-1.7758789c0,0-6.0683594,0-9.9140625-3.8461914"/>
			</g>
			<g>
				<path d="M52.3876953,37.5942383c-3.9580078-3.9570313-9.8994141-3.9570313-9.8994141-3.9570313l-0.0136719-1.7758789c0,0,6.0673828,0,9.9130859-3.8461914"/>
			</g>
		</g>
		<g style="&st2;">
			<path d="M125.9946289,19.8359375c0,3.7753906-3.1542969,6.8339844-7.046875,6.8339844c-3.890625,0-7.0449219-3.0585938-7.0449219-6.8339844c0-3.7734375,3.1542969-6.8330078,7.0449219-6.8330078c3.8925781,0,7.046875,3.0595703,7.046875,6.8330078z"/>
			<path d="M135.0668945,32.7661133c0,3.7744141-3.1542969,6.8334961-7.046875,6.8334961c-3.890625,0-7.0449219-3.059082-7.0449219-6.8334961c0-3.7739258,3.1542969-6.8330078,7.0449219-6.8330078c3.8925781,0,7.046875,3.059082,7.046875,6.8330078z"/>
			<path d="M117.0239258,32.8164063c0,1.3823242-0.421875,2.668457-1.1503906,3.7436523c-1.2578125,1.8608398-3.4296875,3.0893555-5.8964844,3.0893555c-3.890625,0-7.0449219-3.0581055-7.0449219-6.8330078c0-3.7739258,3.1542969-6.8334961,7.0449219-6.8334961
				c3.8925781,0,7.046875,3.0595703,7.046875,6.8334961z"/>
			<g>
				<path d="M127.2114258,46.0795898c-3.4785156,0.0029297-5.3085938-2.8271484-6.2695313-5.6567383c-0.9589844-2.8300781-1.0507813-5.6611328-1.0507813-5.6611328l-1.7753906-0.0141602c0,0-0.3320313,11.3242188-7.2890625,11.3295898l16.3847656,0.0024414z"/>
			</g>
			<g>
				<path d="M114.1586914,24.8481445c3.9570313,3.9575195,3.9570313,9.8994141,3.9570313,9.8994141l1.7753906,0.0141602c0,0,0-6.0673828,3.8457031-9.9135742"/>
			</g>
			<g>
				<path d="M114.9516602,37.5649414c3.9570313-3.9570313,9.8984375-3.9570313,9.8984375-3.9570313l0.0136719-1.7758789c0,0-6.0664063,0-9.9121094-3.8461914"/>
			</g>
			<g>
				<path d="M122.887207,37.5942383c-3.9570313-3.9570313-9.8984375-3.9570313-9.8984375-3.9570313l-0.015625-1.7758789c0,0,6.0683594,0,9.9140625-3.8461914"/>
			</g>
		</g>
		<g style="&st2;">
			<path d="M55.7441406,79.5859375c0,3.7753906-3.1542969,6.8339844-7.0449219,6.8339844c-3.8925781,0-7.046875-3.0585938-7.046875-6.8339844c0-3.7734375,3.1542969-6.8330078,7.046875-6.8330078c3.890625,0,7.0449219,3.0595703,7.0449219,6.8330078z"/>
			<path d="M64.8164063,92.5161133c0,3.7744141-3.1542969,6.8334961-7.0458984,6.8334961s-7.0458984-3.059082-7.0458984-6.8334961c0-3.7739258,3.1542969-6.8330078,7.0458984-6.8330078s7.0458984,3.059082,7.0458984,6.8330078z"/>
			<path d="M46.7744141,92.5664063c0,1.3823242-0.4228516,2.668457-1.1503906,3.7436523c-1.2587891,1.8608398-3.4296875,3.0893555-5.8964844,3.0893555c-3.8916016,0-7.0449219-3.0581055-7.0449219-6.8330078c0-3.7739258,3.1533203-6.8334961,7.0449219-6.8334961
				s7.046875,3.0595703,7.046875,6.8334961z"/>
			<g>
				<path d="M56.9628906,105.8295898c-3.4794922,0.0029297-5.3095703-2.8271484-6.2705078-5.6567383c-0.9599609-2.8300781-1.0498047-5.6611328-1.0498047-5.6611328l-1.7763672-0.0141602c0,0-0.3330078,11.3242188-7.2900391,11.3295898l16.3867188,0.0024414z"/>
			</g>
			<g>
				<path d="M43.9091797,84.5981445c3.9570313,3.9575195,3.9570313,9.8994141,3.9570313,9.8994141l1.7763672,0.0141602c0,0,0-6.0673828,3.8457031-9.9135742"/>
			</g>
			<g>
				<path d="M44.7011719,97.3149414c3.9570313-3.9570313,9.8984375-3.9570313,9.8984375-3.9570313l0.015625-1.7758789c0,0-6.0683594,0-9.9140625-3.8461914"/>
			</g>
			<g>
				<path d="M52.6376953,97.3442383c-3.9580078-3.9570313-9.8994141-3.9570313-9.8994141-3.9570313l-0.0136719-1.7758789c0,0,6.0673828,0,9.9130859-3.8461914"/>
			</g>
		</g>
		<g style="&st2;">
			<path d="M125.7446289,79.5859375c0,3.7753906-3.1542969,6.8339844-7.046875,6.8339844c-3.890625,0-7.0449219-3.0585938-7.0449219-6.8339844c0-3.7734375,3.1542969-6.8330078,7.0449219-6.8330078c3.8925781,0,7.046875,3.0595703,7.046875,6.8330078z"/>
			<path d="M134.8168945,92.5161133c0,3.7744141-3.1542969,6.8334961-7.046875,6.8334961c-3.890625,0-7.0449219-3.059082-7.0449219-6.8334961c0-3.7739258,3.1542969-6.8330078,7.0449219-6.8330078c3.8925781,0,7.046875,3.059082,7.046875,6.8330078z"/>
			<path d="M116.7739258,92.5664063c0,1.3823242-0.421875,2.668457-1.1503906,3.7436523c-1.2578125,1.8608398-3.4296875,3.0893555-5.8964844,3.0893555c-3.890625,0-7.0449219-3.0581055-7.0449219-6.8330078c0-3.7739258,3.1542969-6.8334961,7.0449219-6.8334961
				c3.8925781,0,7.046875,3.0595703,7.046875,6.8334961z"/>
			<g>
				<path d="M126.9614258,105.8295898c-3.4785156,0.0029297-5.3085938-2.8271484-6.2695313-5.6567383c-0.9589844-2.8300781-1.0507813-5.6611328-1.0507813-5.6611328l-1.7753906-0.0141602c0,0-0.3320313,11.3242188-7.2890625,11.3295898l16.3847656,0.0024414z"/>
			</g>
			<g>
				<path d="M113.9086914,84.5981445c3.9570313,3.9575195,3.9570313,9.8994141,3.9570313,9.8994141l1.7753906,0.0141602c0,0,0-6.0673828,3.8457031-9.9135742"/>
			</g>
			<g>
				<path d="M114.7016602,97.3149414c3.9570313-3.9570313,9.8984375-3.9570313,9.8984375-3.9570313l0.0136719-1.7758789c0,0-6.0664063,0-9.9121094-3.8461914"/>
			</g>
			<g>
				<path d="M122.637207,97.3442383c-3.9570313-3.9570313-9.8984375-3.9570313-9.8984375-3.9570313l-0.015625-1.7758789c0,0,6.0683594,0,9.9140625-3.8461914"/>
			</g>
		</g>
		<g style="&st2;">
			<path d="M92.4946289,63.5859375c0,3.7753906-3.1542969,6.8339844-7.0449219,6.8339844c-3.8930664,0-7.0473633-3.0585938-7.0473633-6.8339844c0-3.7734375,3.1542969-6.8330078,7.0473633-6.8330078c3.890625,0,7.0449219,3.0595703,7.0449219,6.8330078z"/>
			<path d="M101.5668945,76.5161133c0,3.7744141-3.1542969,6.8334961-7.046875,6.8334961c-3.890625,0-7.0449219-3.059082-7.0449219-6.8334961c0-3.7739258,3.1542969-6.8330078,7.0449219-6.8330078c3.8925781,0,7.046875,3.059082,7.046875,6.8330078z"/>
			<path d="M83.5244141,76.5664063c0,1.3823242-0.4228516,2.668457-1.1503906,3.7436523c-1.2587891,1.8608398-3.4296875,3.0893555-5.8964844,3.0893555c-3.8916016,0-7.0449219-3.0581055-7.0449219-6.8330078c0-3.7739258,3.1533203-6.8334961,7.0449219-6.8334961
				s7.046875,3.0595703,7.046875,6.8334961z"/>
			<g>
				<path d="M93.7133789,89.8295898c-3.4804688,0.0029297-5.3105469-2.8271484-6.2714844-5.6567383c-0.9589844-2.8300781-1.0488281-5.6611328-1.0488281-5.6611328l-1.7773438-0.0141602c0,0-0.3320313,11.3242188-7.2895508,11.3295898l16.387207,0.0024414z"/>
			</g>
			<g>
				<path d="M80.6591797,68.5981445c3.956543,3.9575195,3.956543,9.8994141,3.956543,9.8994141l1.7773438,0.0141602c0,0,0-6.0673828,3.8457031-9.9135742"/>
			</g>
			<g>
				<path d="M81.4511719,81.3149414c3.9575195-3.9570313,9.8989258-3.9570313,9.8989258-3.9570313l0.015625-1.7758789c0,0-6.0683594,0-9.9145508-3.8461914"/>
			</g>
			<g>
				<path d="M89.387207,81.3442383c-3.9570313-3.9570313-9.8989258-3.9570313-9.8989258-3.9570313l-0.0136719-1.7758789c0,0,6.0668945,0,9.9125977-3.8461914"/>
			</g>
		</g>
		<g style="&st2;">
			<path d="M55.4824219,163.0839844c0-3.7744141-3.1533203-6.8339844-7.0449219-6.8339844s-7.0458984,3.0595703-7.0458984,6.8339844c0,3.7734375,3.1542969,6.8330078,7.0458984,6.8330078s7.0449219-3.0595703,7.0449219-6.8330078z"/>
			<path d="M64.5556641,150.1533203c0-3.7734375-3.1542969-6.8320313-7.0458984-6.8320313c-3.8925781,0-7.046875,3.0585938-7.046875,6.8320313c0,3.7753906,3.1542969,6.8339844,7.046875,6.8339844c3.8916016,0,7.0458984-3.0585938,7.0458984-6.8339844z"/>
			<path d="M46.5136719,150.1044922c0-1.3828125-0.4238281-2.6689453-1.1503906-3.7441406c-1.2597656-1.8613281-3.4296875-3.0898438-5.8964844-3.0898438c-3.8925781,0-7.0449219,3.0585938-7.0449219,6.8339844c0,3.7734375,3.1523438,6.8330078,7.0449219,6.8330078
				c3.8916016,0,7.046875-3.0595703,7.046875-6.8330078z"/>
			<g>
				<path d="M40.3144531,136.8427734c6.9570313,0.0058594,7.2910156,11.3300781,7.2910156,11.3300781l1.7753906-0.0146484c0,0,0.0898438-2.8310547,1.0507813-5.6611328s2.7910156-5.6591797,6.2695313-5.65625l-16.3867188,0.0019531z"/>
			</g>
			<g>
				<path d="M43.6484375,158.0712891c3.9570313-3.9570313,3.9570313-9.8984375,3.9570313-9.8984375l1.7753906-0.0146484c0,0,0,6.0673828,3.8457031,9.9130859"/>
			</g>
			<g>
				<path d="M44.4394531,145.3544922c3.9570313,3.9580078,9.9003906,3.9580078,9.9003906,3.9580078l0.0136719,1.7753906c0,0-6.0683594,0-9.9140625,3.8466797"/>
			</g>
			<g>
				<path d="M52.3769531,145.3251953c-3.9570313,3.9580078-9.8994141,3.9580078-9.8994141,3.9580078l-0.0146484,1.7753906c0,0,6.0683594,0,9.9140625,3.8466797"/>
			</g>
		</g>
		<g style="&st2;">
			<path d="M92.4536133,179.3603516c0-3.7753906-3.1542969-6.8339844-7.046875-6.8339844c-3.8911133,0-7.0454102,3.0585938-7.0454102,6.8339844c0,3.7734375,3.1542969,6.8330078,7.0454102,6.8330078c3.8925781,0,7.046875-3.0595703,7.046875-6.8330078z"/>
			<path d="M101.5258789,166.4306641c0-3.7753906-3.1542969-6.8339844-7.046875-6.8339844c-3.890625,0-7.0449219,3.0585938-7.0449219,6.8339844c0,3.7734375,3.1542969,6.8320313,7.0449219,6.8320313c3.8925781,0,7.046875-3.0585938,7.046875-6.8320313z"/>
			<path d="M83.4833984,166.3798828c0-1.3828125-0.4228516-2.6679688-1.1503906-3.7441406c-1.2587891-1.8603516-3.4306641-3.0888672-5.8964844-3.0888672c-3.8916016,0-7.0458984,3.0576172-7.0458984,6.8330078c0,3.7734375,3.1542969,6.8339844,7.0458984,6.8339844
				s7.046875-3.0605469,7.046875-6.8339844z"/>
			<g>
				<path d="M77.2851563,153.1191406c6.9575195,0.0048828,7.2895508,11.3291016,7.2895508,11.3291016l1.7753906-0.0136719c0,0,0.0917969-2.8310547,1.0507813-5.6611328c0.9609375-2.8291016,2.7910156-5.6591797,6.2714844-5.6572266l-16.387207,0.0029297z"/>
			</g>
			<g>
				<path d="M80.6171875,174.3486328c3.9575195-3.9580078,3.9575195-9.9003906,3.9575195-9.9003906l1.7753906-0.0136719c0,0,0,6.0673828,3.8476563,9.9140625"/>
			</g>
			<g>
				<path d="M81.4101563,161.6318359c3.9575195,3.9570313,9.8989258,3.9570313,9.8989258,3.9570313l0.0136719,1.7753906c0,0-6.0664063,0-9.9125977,3.8457031"/>
			</g>
			<g>
				<path d="M89.3461914,161.6025391c-3.9570313,3.9570313-9.8989258,3.9570313-9.8989258,3.9570313l-0.0146484,1.7753906c0,0,6.0678711,0,9.9135742,3.8457031"/>
			</g>
		</g>
		<g style="&st2;">
			<path d="M125.7016602,163.0849609c0-3.7753906-3.1523438-6.8339844-7.0449219-6.8339844s-7.046875,3.0585938-7.046875,6.8339844c0,3.7734375,3.1542969,6.8320313,7.046875,6.8320313s7.0449219-3.0585938,7.0449219-6.8320313z"/>
			<path d="M134.7739258,150.1542969c0-3.7744141-3.1542969-6.8330078-7.0449219-6.8330078c-3.8925781,0-7.046875,3.0585938-7.046875,6.8330078s3.1542969,6.8330078,7.046875,6.8330078c3.890625,0,7.0449219-3.0585938,7.0449219-6.8330078z"/>
			<path d="M116.7329102,150.1044922c0-1.3828125-0.4238281-2.6689453-1.1503906-3.7441406c-1.2597656-1.8613281-3.4296875-3.0898438-5.8964844-3.0898438c-3.8925781,0-7.0449219,3.0585938-7.0449219,6.8339844c0,3.7734375,3.1523438,6.8330078,7.0449219,6.8330078
				c3.890625,0,7.046875-3.0595703,7.046875-6.8330078z"/>
			<g>
				<path d="M110.5336914,136.8427734c6.9570313,0.0058594,7.2910156,11.3300781,7.2910156,11.3300781l1.7753906-0.0136719c0,0,0.0898438-2.8320313,1.0507813-5.6621094c0.9609375-2.8291016,2.7910156-5.6591797,6.2695313-5.65625l-16.3867188,0.0019531z"/>
			</g>
			<g>
				<path d="M113.8676758,158.0722656c3.9570313-3.9580078,3.9570313-9.8994141,3.9570313-9.8994141l1.7753906-0.0136719c0,0,0,6.0664063,3.8457031,9.9130859"/>
			</g>
			<g>
				<path d="M114.6586914,145.3554688c3.9570313,3.9570313,9.9003906,3.9570313,9.9003906,3.9570313l0.0136719,1.7763672c0,0-6.0683594,0-9.9140625,3.8457031"/>
			</g>
			<g>
				<path d="M122.5961914,145.3261719c-3.9570313,3.9570313-9.9003906,3.9570313-9.9003906,3.9570313l-0.0136719,1.7763672c0,0,6.0683594,0,9.9140625,3.8457031"/>
			</g>
		</g>
		<g style="&st2;">
			<path d="M125.934082,223.0732422c0-3.7753906-3.1542969-6.8339844-7.0449219-6.8339844c-3.8925781,0-7.046875,3.0585938-7.046875,6.8339844c0,3.7734375,3.1542969,6.8330078,7.046875,6.8330078c3.890625,0,7.0449219-3.0595703,7.0449219-6.8330078z"/>
			<path d="M135.0063477,210.1425781c0-3.7744141-3.1542969-6.8330078-7.0449219-6.8330078c-3.8925781,0-7.046875,3.0585938-7.046875,6.8330078s3.1542969,6.8330078,7.046875,6.8330078c3.890625,0,7.0449219-3.0585938,7.0449219-6.8330078z"/>
			<path d="M116.965332,210.0927734c0-1.3828125-0.4238281-2.6679688-1.1503906-3.7441406c-1.2597656-1.8603516-3.4296875-3.0898438-5.8964844-3.0898438c-3.8925781,0-7.0449219,3.0585938-7.0449219,6.8339844c0,3.7734375,3.1523438,6.8339844,7.0449219,6.8339844
				c3.890625,0,7.046875-3.0605469,7.046875-6.8339844z"/>
			<g>
				<path d="M110.7661133,196.8320313c6.9570313,0.0048828,7.2910156,11.3291016,7.2910156,11.3291016l1.7753906-0.0136719c0,0,0.0898438-2.8320313,1.0507813-5.6611328c0.9609375-2.8300781,2.7910156-5.6591797,6.2695313-5.6572266l-16.3867188,0.0029297z"/>
			</g>
			<g>
				<path d="M114.1000977,218.0605469c3.9570313-3.9570313,3.9570313-9.8994141,3.9570313-9.8994141l1.7753906-0.0136719c0,0,0,6.0673828,3.8457031,9.9130859"/>
			</g>
			<g>
				<path d="M114.8911133,205.34375c3.9570313,3.9580078,9.9003906,3.9580078,9.9003906,3.9580078l0.0136719,1.7753906c0,0-6.0683594,0-9.9140625,3.8457031"/>
			</g>
			<g>
				<path d="M122.8286133,205.3144531c-3.9570313,3.9580078-9.9003906,3.9580078-9.9003906,3.9580078l-0.0136719,1.7753906c0,0,6.0683594,0,9.9140625,3.8457031"/>
			</g>
		</g>
		<g style="&st2;">
			<path d="M55.4824219,223.0732422c0-3.7753906-3.1533203-6.8339844-7.0449219-6.8339844s-7.0458984,3.0585938-7.0458984,6.8339844c0,3.7734375,3.1542969,6.8330078,7.0458984,6.8330078s7.0449219-3.0595703,7.0449219-6.8330078z"/>
			<path d="M64.5556641,210.1435547c0-3.7753906-3.1542969-6.8339844-7.0458984-6.8339844c-3.8925781,0-7.046875,3.0585938-7.046875,6.8339844c0,3.7734375,3.1542969,6.8320313,7.046875,6.8320313c3.8916016,0,7.0458984-3.0585938,7.0458984-6.8320313z"/>
			<path d="M46.5136719,210.0927734c0-1.3828125-0.4238281-2.6679688-1.1503906-3.7441406c-1.2597656-1.8603516-3.4296875-3.0888672-5.8964844-3.0888672c-3.8925781,0-7.0449219,3.0576172-7.0449219,6.8330078c0,3.7734375,3.1523438,6.8339844,7.0449219,6.8339844
				c3.8916016,0,7.046875-3.0605469,7.046875-6.8339844z"/>
			<g>
				<path d="M40.3144531,196.8320313c6.9570313,0.0048828,7.2910156,11.3291016,7.2910156,11.3291016l1.7753906-0.0136719c0,0,0.0898438-2.8310547,1.0507813-5.6611328c0.9609375-2.8291016,2.7910156-5.6591797,6.2695313-5.6572266l-16.3867188,0.0029297z"/>
			</g>
			<g>
				<path d="M43.6484375,218.0615234c3.9570313-3.9580078,3.9570313-9.9003906,3.9570313-9.9003906l1.7753906-0.0136719c0,0,0,6.0673828,3.8457031,9.9140625"/>
			</g>
			<g>
				<path d="M44.4394531,205.3447266c3.9570313,3.9570313,9.9003906,3.9570313,9.9003906,3.9570313l0.0136719,1.7753906c0,0-6.0683594,0-9.9140625,3.8457031"/>
			</g>
			<g>
				<path d="M52.3769531,205.3154297c-3.9570313,3.9570313-9.8994141,3.9570313-9.8994141,3.9570313l-0.0146484,1.7753906c0,0,6.0683594,0,9.9140625,3.8457031"/>
			</g>
		</g>
		<g style="&st2;">
			<path d="M12.7431641,25.9985352v-1.46875h1.5V9.9316406l-1.6875,2.2236328v-1.8007813l2.0283203-2.730957h1.6904297v16.90625h1.53125v1.46875h-5.0625z"/>
			<path d="M22.7304688,26.3422852c-1.0791016,0-1.9042969-0.8032227-2.4765625-2.4106445c-0.5722656-1.6069336-0.8574219-3.9208984-0.8574219-6.9423828c0-3.0209961,0.2851563-5.3374023,0.8574219-6.9487305s1.3974609-2.4169922,2.4765625-2.4169922
				c1.0712891,0,1.8925781,0.8056641,2.4648438,2.4169922c0.5712891,1.6113281,0.8574219,3.9277344,0.8574219,6.9487305c0,3.0214844-0.2861328,5.3354492-0.8574219,6.9423828c-0.5722656,1.6074219-1.3935547,2.4106445-2.4648438,2.4106445z M22.7304688,24.9360352
				c0.4316406,0,0.7285156-0.4394531,0.890625-1.3183594s0.2441406-3.0883789,0.2441406-6.6289063c0-3.515625-0.0820313-5.7207031-0.2441406-6.6162109c-0.1621094-0.8950195-0.4589844-1.3427734-0.890625-1.3427734
				c-0.4394531,0-0.7402344,0.4394531-0.9023438,1.3183594c-0.1630859,0.8789063-0.2441406,3.0927734-0.2441406,6.640625c0,3.5405273,0.0810547,5.75,0.2441406,6.6289063c0.1621094,0.8789063,0.4628906,1.3183594,0.9023438,1.3183594z"/>
		</g>
		<g style="&st2;">
			<path d="M154.0161133,216.5791016v1.46875h-1.5v14.5986328l1.6875-2.2236328v1.8007813l-2.0292969,2.7304688h-1.6894531v-16.90625h-1.53125v-1.46875h5.0625z"/>
			<path d="M144.027832,216.2353516c1.0800781,0,1.90625,0.8037109,2.4765625,2.4111328c0.5722656,1.6064453,0.8574219,3.9208984,0.8574219,6.9423828s-0.2851563,5.3378906-0.8574219,6.9492188c-0.5703125,1.6113281-1.3964844,2.4160156-2.4765625,2.4160156
				c-1.0703125,0-1.8925781-0.8046875-2.4628906-2.4160156c-0.5722656-1.6113281-0.859375-3.9277344-0.859375-6.9492188s0.2871094-5.3359375,0.859375-6.9423828c0.5703125-1.6074219,1.3925781-2.4111328,2.4628906-2.4111328z M144.027832,217.6416016
				c-0.4296875,0-0.7265625,0.4394531-0.890625,1.3183594c-0.1621094,0.8789063-0.2441406,3.0888672-0.2441406,6.6289063c0,3.515625,0.0820313,5.7207031,0.2441406,6.6171875c0.1640625,0.8945313,0.4609375,1.3417969,0.890625,1.3417969
				c0.4394531,0,0.7402344-0.4394531,0.9042969-1.3183594c0.1621094-0.8789063,0.2421875-3.0917969,0.2421875-6.640625c0-3.5400391-0.0800781-5.75-0.2421875-6.6289063c-0.1640625-0.8789063-0.4648438-1.3183594-0.9042969-1.3183594z"/>
		</g>
		<g style="&st2;">
			<path d="M18.2705078,31.3300781c0,1.1342773-0.9482422,2.0537109-2.1171875,2.0537109s-2.1162109-0.9194336-2.1162109-2.0537109c0-1.1337891,0.9472656-2.0527344,2.1162109-2.0527344s2.1171875,0.9189453,2.1171875,2.0527344z"/>
			<path d="M20.9960938,35.215332c0,1.1337891-0.9472656,2.0527344-2.1171875,2.0527344c-1.1689453,0-2.1171875-0.9189453-2.1171875-2.0527344c0-1.1342773,0.9482422-2.0532227,2.1171875-2.0532227c1.1699219,0,2.1171875,0.9189453,2.1171875,2.0532227z"/>
			<path d="M15.5751953,35.2299805c0,0.4155273-0.1269531,0.8017578-0.3447266,1.125c-0.3789063,0.559082-1.03125,0.9282227-1.7724609,0.9282227c-1.1689453,0-2.1162109-0.9189453-2.1162109-2.0532227c0-1.1337891,0.9472656-2.0527344,2.1162109-2.0527344
				s2.1171875,0.9189453,2.1171875,2.0527344z"/>
			<g>
				<path d="M18.6367188,39.215332c-1.0449219,0.0004883-1.5957031-0.8496094-1.8847656-1.699707C16.4638672,36.6655273,16.4375,35.8149414,16.4375,35.8149414l-0.5341797-0.0043945c0,0-0.1005859,3.4023438-2.1904297,3.4038086l4.9238281,0.0009766z"/>
			</g>
			<g>
				<path d="M14.7148438,32.8359375c1.1884766,1.1894531,1.1884766,2.9746094,1.1884766,2.9746094L16.4375,35.8149414c0,0,0-1.8232422,1.1542969-2.9790039"/>
			</g>
			<g>
				<path d="M14.953125,36.6567383c1.1884766-1.1884766,2.9736328-1.1884766,2.9736328-1.1884766l0.0048828-0.5336914c0,0-1.8242188,0-2.9785156-1.1557617"/>
			</g>
			<g>
				<path d="M17.3369141,36.6660156c-1.1884766-1.1889648-2.9736328-1.1889648-2.9736328-1.1889648l-0.0048828-0.5336914c0,0,1.8232422,0,2.9785156-1.1557617"/>
			</g>
		</g>
		<g style="&st2;">
			<path d="M148.4086914,210.9423828c0-1.1337891,0.9472656-2.0527344,2.1171875-2.0527344c1.1679688,0,2.1171875,0.9189453,2.1171875,2.0527344c0,1.1347656-0.9492188,2.0537109-2.1171875,2.0537109c-1.1699219,0-2.1171875-0.9189453-2.1171875-2.0537109z"/>
			<path d="M145.6821289,207.0576172c0-1.1328125,0.9492188-2.0527344,2.1171875-2.0527344c1.1699219,0,2.1171875,0.9199219,2.1171875,2.0527344c0,1.1347656-0.9472656,2.0537109-2.1171875,2.0537109c-1.1679688,0-2.1171875-0.9189453-2.1171875-2.0537109z"/>
			<path d="M151.1040039,207.0429688c0-0.4150391,0.1269531-0.8017578,0.3457031-1.1240234c0.3769531-0.5595703,1.0292969-0.9287109,1.7714844-0.9287109c1.1679688,0,2.1152344,0.9189453,2.1152344,2.0527344s-0.9472656,2.0537109-2.1152344,2.0537109
				c-1.1699219,0-2.1171875-0.9199219-2.1171875-2.0537109z"/>
			<g>
				<path d="M148.0415039,203.0576172c1.046875,0,1.5957031,0.8496094,1.8847656,1.7001953s0.3164063,1.7001953,0.3164063,1.7001953l0.5332031,0.0048828c0,0,0.0996094-3.4023438,2.1894531-3.4033203l-4.9238281-0.0019531z"/>
			</g>
			<g>
				<path d="M151.9633789,209.4365234c-1.1875-1.1884766-1.1875-2.9736328-1.1875-2.9736328l-0.5332031-0.0048828c0,0,0,1.8242188-1.15625,2.9785156"/>
			</g>
			<g>
				<path d="M151.7270508,205.6162109c-1.1894531,1.1894531-2.9746094,1.1894531-2.9746094,1.1894531l-0.0039063,0.5332031c0,0,1.8222656,0,2.9785156,1.1552734"/>
			</g>
			<g>
				<path d="M149.3422852,205.6074219c1.1875,1.1884766,2.9746094,1.1884766,2.9746094,1.1884766l0.0039063,0.5341797c0,0-1.8242188,0-2.9785156,1.1552734"/>
			</g>
		</g>
	</g>
</svg>
