<?xml version="1.0" encoding="utf-8"?>
<!-- Generator: Adobe Illustrator 9.0, SVG Export Plug-In  -->
<!DOCTYPE svg PUBLIC "-//W3C//DTD SVG 20000303 Stylable//EN"   "http://www.w3.org/TR/2000/03/WD-SVG-20000303/DTD/svg-20000303-stylable.dtd" [
	<!ENTITY st0 "fill:#FFFFFF;stroke-width:0.5;">
	<!ENTITY st1 "fill-rule:nonzero;clip-rule:nonzero;fill:#E61408;stroke:#000000;stroke-miterlimit:4;">
	<!ENTITY st2 "stroke:none;">
]>
<!-- This set of SVG files is a complete cards game with figures, numbers	-->
<!--    and backs of cards completely designed in SVG.				-->
<!--    									-->
<!--    Copyright (C) 2004 David Bellot						-->
<!--										-->
<!--    This library is free software; you can redistribute it and/or		-->
<!--    modify it under the terms of the GNU Lesser General Public		-->
<!--    License as published by the Free Software Foundation; either		-->
<!--    version 2 of the License, or (at your option) any later version		-->
<!--										-->
<!--    This library is distributed in the hope that it will be useful,		-->
<!--    but WITHOUT ANY WARRANTY; without even the implied warranty of		-->
<!--    MERCHANTABILITY or FITNESS FOR A PARTICULAR PURPOSE.  See the GNU	-->
<!--    Lesser General Public License for more details.				-->
<!--										-->
<!--    You should have received a copy of the GNU Lesser General Public	-->
<!--    License along with this library; if not, write to the Free Software	-->
<!--    Foundation, Inc., 59 Temple Place, Suite 330, Boston, MA 02111-1307  USA-->
<!--										-->
<!--    Contact the author David Bellot at bellot@stat.berkeley.edu or 		-->
<!--    david.bellot@free.fr or yimyom@users.sourceforge.net			-->
<svg  width="167.0786133pt" height="242.6650391pt" viewBox="0 0 167.0786133 242.6650391" xml:space="preserve">
	<g id="Layer_x0020_1" style="&st1;">
		<path style="&st0;" d="M166.8286133,235.5449219c0,3.7753906-3.0859375,6.8701172-6.8691406,6.8701172H7.1103516c-3.7744141,0-6.8603516-3.0947266-6.8603516-6.8701172V7.1201172C0.25,3.340332,3.3359375,0.25,7.1103516,0.25h152.8491211
			c3.7832031,0,6.8691406,3.090332,6.8691406,6.8701172v228.4248047z"/>
		<path style="&st2;" d="M48.7832031,29.9335938H33.1835938c0,0,2.4365234,0.503418,9.2617188-6.046875c6.8251953-6.5507813,6.3378906-10.078125,6.3378906-10.078125 M33.1835938,29.9335938c0,0,3.4121094-0.5039063,9.7490234,6.5507813
			s5.8505859,9.5742188,5.8505859,9.5742188v-16.125 M48.7832031,46.0585938c0,0-0.4882813-3.5273438,6.3378906-10.078125c6.8242188-6.550293,9.2617188-6.046875,9.2617188-6.046875H48.7832031 M64.3828125,29.9335938c0,0-3.4121094,0.5039063-9.75-6.5507813
			c-6.3369141-7.0546875-5.8496094-9.5742188-5.8496094-9.5742188v16.125"/>
		<path style="&st2;" d="M118.0102539,13.5849609c0,0-0.4882813,3.5273438,6.3378906,10.078125c6.8242188,6.550293,9.2617188,6.046875,9.2617188,6.046875h-15.5996094 M118.0102539,29.7099609v16.125c0,0-0.4863281-2.5195313,5.8496094-9.5742188
			c6.3378906-7.0546875,9.75-6.5507813,9.75-6.5507813 M118.0102539,29.7099609h-15.5996094c0,0,2.4375-0.503418,9.2617188,6.046875c6.8261719,6.5507813,6.3378906,10.078125,6.3378906,10.078125 M118.0102539,29.7099609v-16.125
			c0,0,0.4863281,2.5195313-5.8496094,9.5742188c-6.3378906,7.0546875-9.75,6.5507813-9.75,6.5507813"/>
		<path style="&st2;" d="M48.4980469,228.6328125c0,0,0.4873047-3.5273438-6.3378906-10.078125s-9.2617188-6.046875-9.2617188-6.046875h15.5996094 M48.4980469,212.5078125v-16.125c0,0,0.4863281,2.5195313-5.8505859,9.5742188
			s-9.7490234,6.5507813-9.7490234,6.5507813 M48.4980469,212.5078125h15.5996094c0,0-2.4375,0.5039063-9.2617188-6.046875c-6.8261719-6.5507813-6.3378906-10.078125-6.3378906-10.078125 M48.4980469,212.5078125v16.125c0,0-0.4873047-2.5195313,5.8496094-9.5742188
			c6.3378906-7.0546875,9.75-6.5507813,9.75-6.5507813"/>
		<path style="&st2;" d="M117.7250977,212.7314453h15.5996094c0,0-2.4375-0.5029297-9.2617188,6.046875c-6.8261719,6.5507813-6.3378906,10.078125-6.3378906,10.078125 M133.324707,212.7314453c0,0-3.4121094,0.5039063-9.75-6.5507813
			c-6.3359375-7.0546875-5.8496094-9.5742188-5.8496094-9.5742188v16.125 M117.7250977,196.6064453c0,0,0.4882813,3.5273438-6.3378906,10.078125c-6.8242188,6.5498047-9.2617188,6.046875-9.2617188,6.046875h15.5996094 M102.1254883,212.7314453
			c0,0,3.4121094-0.5039063,9.75,6.5507813c6.3359375,7.0546875,5.8496094,9.5742188,5.8496094,9.5742188v-16.125"/>
		<path style="&st2;" d="M48.7773438,89.6933594H33.1777344c0,0,2.4375,0.503418,9.2626953-6.046875c6.8251953-6.5507813,6.3369141-10.078125,6.3369141-10.078125 M33.1777344,89.6933594c0,0,3.4121094-0.5039063,9.75,6.5507813
			s5.8496094,9.5742188,5.8496094,9.5742188v-16.125 M48.7773438,105.8183594c0,0-0.4863281-3.5273438,6.3378906-10.078125c6.8251953-6.550293,9.2626953-6.046875,9.2626953-6.046875H48.7773438 M64.3779297,89.6933594c0,0-3.4130859,0.5039063-9.75-6.5507813
			s-5.8505859-9.5742188-5.8505859-9.5742188v16.125"/>
		<path style="&st2;" d="M118.0063477,73.3447266c0,0-0.4882813,3.5273438,6.3359375,10.078125c6.8261719,6.550293,9.2636719,6.046875,9.2636719,6.046875h-15.5996094 M118.0063477,89.4697266v16.125c0,0-0.4882813-2.5195313,5.8496094-9.5742188
			s9.75-6.5507813,9.75-6.5507813 M118.0063477,89.4697266h-15.5996094c0,0,2.4355469-0.503418,9.2617188,6.046875c6.8242188,6.5507813,6.3378906,10.078125,6.3378906,10.078125 M118.0063477,89.4697266v-16.125c0,0,0.4863281,2.5195313-5.8515625,9.5742188
			c-6.3359375,7.0546875-9.7480469,6.5507813-9.7480469,6.5507813"/>
		<path style="&st2;" d="M48.6962891,168.8847656c0,0,0.4873047-3.5273438-6.3369141-10.078125c-6.8261719-6.5498047-9.2636719-6.046875-9.2636719-6.046875h15.6005859 M48.6962891,152.7597656v-16.125c0,0,0.4873047,2.5195313-5.8505859,9.5742188
			c-6.3369141,7.0546875-9.75,6.5507813-9.75,6.5507813 M48.6962891,152.7597656H64.296875c0,0-2.4375,0.5039063-9.2626953-6.046875s-6.3378906-10.078125-6.3378906-10.078125 M48.6962891,152.7597656v16.125c0,0-0.4873047-2.5195313,5.8505859-9.5742188
			c6.3369141-7.0546875,9.75-6.5507813,9.75-6.5507813"/>
		<path style="&st2;" d="M117.9243164,152.984375h15.5996094c0,0-2.4375-0.5039063-9.2617188,6.046875c-6.8261719,6.5507813-6.3378906,10.078125-6.3378906,10.078125 M133.5239258,152.984375c0,0-3.4121094,0.5039063-9.75-6.5507813
			s-5.8496094-9.5742188-5.8496094-9.5742188v16.125 M117.9243164,136.859375c0,0,0.4863281,3.5273438-6.3378906,10.078125c-6.8242188,6.5498047-9.2617188,6.046875-9.2617188,6.046875h15.5996094 M102.324707,152.984375
			c0,0,3.4121094-0.5039063,9.7480469,6.5507813c6.3378906,7.0546875,5.8515625,9.5742188,5.8515625,9.5742188v-16.125"/>
		<path style="&st2;" d="M85.4008789,57.2680664H69.8007813c0,0,2.4375,0.503418,9.2626953-6.046875c6.8256836-6.5507813,6.3374023-10.078125,6.3374023-10.078125 M69.8007813,57.2680664c0,0,3.4121094-0.5039063,9.75,6.5507813
			c6.3383789,7.0546875,5.8500977,9.5742188,5.8500977,9.5742188v-16.125 M85.4008789,73.3930664c0,0-0.4863281-3.5273438,6.3378906-10.078125c6.8242188-6.550293,9.2617188-6.046875,9.2617188-6.046875H85.4008789 M101.0004883,57.2680664
			c0,0-3.4121094,0.5039063-9.75-6.5507813c-6.3359375-7.0546875-5.8496094-9.5742188-5.8496094-9.5742188v16.125"/>
		<path style="&st2;" d="M85.1157227,201.2988281c0,0,0.4882813-3.5273438-6.3374023-10.078125c-6.8251953-6.5507813-9.2626953-6.046875-9.2626953-6.046875h15.6000977 M85.1157227,185.1738281v-16.125c0,0,0.4882813,2.5195313-5.8500977,9.5742188
			c-6.3378906,7.0546875-9.75,6.5507813-9.75,6.5507813 M85.1157227,185.1738281h15.5996094c0,0-2.4375,0.5029297-9.2617188-6.046875c-6.8242188-6.5507813-6.3378906-10.078125-6.3378906-10.078125 M85.1157227,185.1738281v16.125
			c0,0-0.4863281-2.5195313,5.8496094-9.5742188c6.3378906-7.0546875,9.75-6.5507813,9.75-6.5507813"/>
		<g style="&st2;">
			<path d="M12.4912109,25.9995117v-1.46875h1.5V9.9326172l-1.6875,2.2236328v-1.8007813l2.0283203-2.730957h1.6904297v16.90625h1.53125v1.46875h-5.0625z"/>
			<path d="M22.4785156,26.3432617c-1.0791016,0-1.9042969-0.8032227-2.4765625-2.4106445c-0.5722656-1.6069336-0.8574219-3.9208984-0.8574219-6.9423828c0-3.0209961,0.2851563-5.3374023,0.8574219-6.9487305s1.3974609-2.4169922,2.4765625-2.4169922
				c1.0712891,0,1.8925781,0.8056641,2.4648438,2.4169922c0.5712891,1.6113281,0.8574219,3.9277344,0.8574219,6.9487305c0,3.0214844-0.2861328,5.3354492-0.8574219,6.9423828c-0.5722656,1.6074219-1.3935547,2.4106445-2.4648438,2.4106445z M22.4785156,24.9370117
				c0.4316406,0,0.7285156-0.4394531,0.890625-1.3183594s0.2441406-3.0883789,0.2441406-6.6289063c0-3.515625-0.0820313-5.7207031-0.2441406-6.6162109c-0.1621094-0.8950195-0.4589844-1.3427734-0.890625-1.3427734
				c-0.4394531,0-0.7402344,0.4394531-0.9023438,1.3183594c-0.1630859,0.8789063-0.2441406,3.0927734-0.2441406,6.640625c0,3.5405273,0.0810547,5.75,0.2441406,6.6289063c0.1621094,0.8789063,0.4628906,1.3183594,0.9023438,1.3183594z"/>
		</g>
		<g style="&st2;">
			<path d="M153.7641602,216.5810547v1.46875h-1.5v14.5986328l1.6875-2.2246094v1.8007813l-2.0292969,2.7314453h-1.6894531v-16.90625h-1.53125v-1.46875h5.0625z"/>
			<path d="M143.7758789,216.2373047c1.0800781,0,1.90625,0.8037109,2.4765625,2.4111328c0.5722656,1.6064453,0.8574219,3.9199219,0.8574219,6.9414063s-0.2851563,5.3378906-0.8574219,6.9492188c-0.5703125,1.6113281-1.3964844,2.4169922-2.4765625,2.4169922
				c-1.0703125,0-1.8925781-0.8056641-2.4628906-2.4169922c-0.5722656-1.6113281-0.859375-3.9277344-0.859375-6.9492188s0.2871094-5.3349609,0.859375-6.9414063c0.5703125-1.6074219,1.3925781-2.4111328,2.4628906-2.4111328z M143.7758789,217.6435547
				c-0.4296875,0-0.7265625,0.4394531-0.890625,1.3183594c-0.1621094,0.8789063-0.2441406,3.0888672-0.2441406,6.6289063c0,3.515625,0.0820313,5.7207031,0.2441406,6.6162109c0.1640625,0.8945313,0.4609375,1.3427734,0.890625,1.3427734
				c0.4394531,0,0.7402344-0.4394531,0.9042969-1.3183594c0.1621094-0.8789063,0.2421875-3.0927734,0.2421875-6.640625c0-3.5400391-0.0800781-5.75-0.2421875-6.6289063c-0.1640625-0.8789063-0.4648438-1.3183594-0.9042969-1.3183594z"/>
		</g>
		<path style="&st2;" d="M16.1464844,34.0561523h-5.0410156c0,0,0.7871094,0.1625977,2.9931641-1.9541016c2.2060547-2.1171875,2.0478516-3.2573242,2.0478516-3.2573242 M11.1054688,34.0561523c0,0,1.1025391-0.1625977,3.1503906,2.1171875
			c2.0488281,2.2802734,1.890625,3.0942383,1.890625,3.0942383v-5.2114258 M16.1464844,39.2675781c0,0-0.15625-1.1396484,2.0488281-3.2568359c2.2060547-2.1171875,2.9941406-1.9545898,2.9941406-1.9545898h-5.0429688 M21.1894531,34.0561523
			c0,0-1.1035156,0.1630859-3.1513672-2.1171875s-1.8916016-3.0942383-1.8916016-3.0942383v5.2114258"/>
		<path style="&st2;" d="M150.5766602,208.1396484h5.0410156c0,0-0.7871094-0.1630859-2.9941406,1.9541016c-2.2050781,2.1171875-2.046875,3.2578125-2.046875,3.2578125 M155.6176758,208.1396484c0,0-1.1035156,0.1630859-3.1503906-2.1171875
			c-2.0488281-2.2802734-1.890625-3.0947266-1.890625-3.0947266v5.2119141 M150.5766602,202.9277344c0,0,0.15625,1.140625-2.0488281,3.2578125c-2.2070313,2.1171875-2.9941406,1.9541016-2.9941406,1.9541016h5.0429688 M145.5336914,208.1396484
			c0,0,1.1035156-0.1630859,3.1503906,2.1171875c2.0488281,2.2802734,1.8925781,3.0947266,1.8925781,3.0947266v-5.2119141"/>
	</g>
</svg>
