<?xml version="1.0" encoding="utf-8"?>
<!-- Generator: Adobe Illustrator 9.0, SVG Export Plug-In  -->
<!DOCTYPE svg PUBLIC "-//W3C//DTD SVG 20000303 Stylable//EN"   "http://www.w3.org/TR/2000/03/WD-SVG-20000303/DTD/svg-20000303-stylable.dtd" [
	<!ENTITY st0 "fill:#FFFFFF;stroke-width:0.5;">
	<!ENTITY st1 "fill-rule:nonzero;clip-rule:nonzero;stroke:#000000;stroke-miterlimit:4;">
	<!ENTITY st2 "stroke:none;">
]>
<!-- This set of SVG files is a complete cards game with figures, numbers	-->
<!--    and backs of cards completely designed in SVG.				-->
<!--    									-->
<!--    Copyright (C) 2004 David Bellot						-->
<!--										-->
<!--    This library is free software; you can redistribute it and/or		-->
<!--    modify it under the terms of the GNU Lesser General Public		-->
<!--    License as published by the Free Software Foundation; either		-->
<!--    version 2 of the License, or (at your option) any later version		-->
<!--										-->
<!--    This library is distributed in the hope that it will be useful,		-->
<!--    but WITHOUT ANY WARRANTY; without even the implied warranty of		-->
<!--    MERCHANTABILITY or FITNESS FOR A PARTICULAR PURPOSE.  See the GNU	-->
<!--    Lesser General Public License for more details.				-->
<!--										-->
<!--    You should have received a copy of the GNU Lesser General Public	-->
<!--    License along with this library; if not, write to the Free Software	-->
<!--    Foundation, Inc., 59 Temple Place, Suite 330, Boston, MA 02111-1307  USA-->
<!--										-->
<!--    Contact the author David Bellot at bellot@stat.berkeley.edu or 		-->
<!--    david.bellot@free.fr or yimyom@users.sourceforge.net			-->
<svg  width="167.0864258pt" height="242.6669922pt" viewBox="0 0 167.0864258 242.6669922" xml:space="preserve">
	<g id="Layer_x0020_1" style="&st1;">
		<path style="&st0;" d="M166.8364258,235.5478516c0,3.7773438-3.0859375,6.8691406-6.8691406,6.8691406H7.1113281c-3.7753906,0-6.8613281-3.0917969-6.8613281-6.8691406V7.1201172C0.25,3.3432617,3.3359375,0.25,7.1113281,0.25h152.855957
			c3.7832031,0,6.8691406,3.0932617,6.8691406,6.8701172v228.4277344z"/>
		<g style="&st2;">
			<g>
				<path d="M56.9970703,105.9916992c-3.4794922,0.0039063-5.3095703-3.706543-6.2695313-7.4160156c-0.9599609-3.7109375-1.0517578-7.4233398-1.0517578-7.4233398l-1.7753906-0.0175781c0,0-0.3320313,14.847168-7.2900391,14.8535156l16.3867188,0.003418z"/>
			</g>
			<path d="M62.8847656,91.1489258c-0.03125-7.2426758-10.8730469-12.4951172-14.0576172-18.2265625C45.6445313,78.6538086,34.8017578,83.90625,34.7714844,91.1489258c-0.0136719,3.4199219,3.1464844,6.1899414,7.0283203,6.1899414
				s7.0273438-2.7700195,7.0273438-6.1899414c0,3.4199219,3.1474609,6.1899414,7.0292969,6.1899414s7.0283203-2.7700195,7.0283203-6.1899414z"/>
		</g>
		<g style="&st2;">
			<g>
				<path d="M126.2329102,105.9916992c-3.4785156,0.0039063-5.3085938-3.706543-6.2695313-7.4160156c-0.9589844-3.7109375-1.0507813-7.4233398-1.0507813-7.4233398l-1.7753906-0.0175781c0,0-0.3320313,14.847168-7.2910156,14.8535156l16.3867188,0.003418z"/>
			</g>
			<path d="M132.121582,91.1489258c-0.03125-7.2426758-10.8730469-12.4951172-14.0585938-18.2265625c-3.1816406,5.7314453-14.0234375,10.9838867-14.0546875,18.2265625c-0.0136719,3.4199219,3.1464844,6.1899414,7.0292969,6.1899414
				c3.8808594,0,7.0253906-2.7700195,7.0253906-6.1899414c0,3.4199219,3.1484375,6.1899414,7.03125,6.1899414c3.8808594,0,7.0273438-2.7700195,7.0273438-6.1899414z"/>
		</g>
		<g style="&st2;">
			<g>
				<path d="M93.7211914,73.4790039c-3.4785156,0.003418-5.3085938-3.7070313-6.2695313-7.4160156c-0.9609375-3.7114258-1.0507813-7.4238281-1.0507813-7.4238281l-1.7753906-0.0175781c0,0-0.3339844,14.8476563-7.2915039,14.8535156l16.387207,0.0039063z"/>
			</g>
			<path d="M99.6079102,58.6362305c-0.0292969-7.2431641-10.8730469-12.4956055-14.0566406-18.2270508c-3.1821289,5.7314453-14.0258789,10.9838867-14.0561523,18.2270508c-0.0146484,3.4194336,3.1474609,6.1894531,7.0283203,6.1894531
				s7.027832-2.7700195,7.027832-6.1894531c0,3.4194336,3.1484375,6.1894531,7.0292969,6.1894531c3.8828125,0,7.0273438-2.7700195,7.0273438-6.1894531z"/>
		</g>
		<g style="&st2;">
			<g>
				<path d="M40.1416016,136.7939453c6.9580078,0.0058594,7.2910156,14.8535156,7.2910156,14.8535156l1.7744141-0.0175781c0,0,0.0917969-3.7119141,1.0517578-7.4238281c0.9609375-3.7089844,2.7910156-7.4189453,6.2695313-7.4160156l-16.3867188,0.0039063z"/>
			</g>
			<path d="M62.4160156,151.6337891c-0.0302734,7.2421875-10.8730469,12.4951172-14.0576172,18.2265625c-3.1816406-5.7314453-14.0244141-10.984375-14.0556641-18.2265625c-0.0136719-3.4199219,3.1464844-6.1894531,7.0292969-6.1894531
				c3.8808594,0,7.0263672,2.7695313,7.0263672,6.1894531c0-3.4199219,3.1484375-6.1894531,7.0302734-6.1894531c3.8808594,0,7.0273438,2.7695313,7.0273438,6.1894531z"/>
		</g>
		<g style="&st2;">
			<g>
				<path d="M109.8461914,136.7939453c6.9570313,0.0058594,7.2910156,14.8535156,7.2910156,14.8535156l1.7753906-0.0175781c0,0,0.0898438-3.7119141,1.0507813-7.4238281c0.9609375-3.7089844,2.7910156-7.4189453,6.2695313-7.4160156l-16.3867188,0.0039063z"/>
			</g>
			<path d="M132.121582,151.6337891c-0.03125,7.2421875-10.8730469,12.4951172-14.0585938,18.2265625c-3.1816406-5.7314453-14.0253906-10.984375-14.0546875-18.2265625c-0.015625-3.4199219,3.1464844-6.1894531,7.0273438-6.1894531
				s7.0273438,2.7695313,7.0273438,6.1894531c0-3.4199219,3.1484375-6.1894531,7.0292969-6.1894531c3.8828125,0,7.0292969,2.7695313,7.0292969,6.1894531z"/>
		</g>
		<g style="&st2;">
			<g>
				<path d="M40.609375,196.9082031c6.9580078,0.0068359,7.2910156,14.8544922,7.2910156,14.8544922l1.7753906-0.0185547c0,0,0.0908203-3.7119141,1.0507813-7.4228516c0.9609375-3.7089844,2.7910156-7.4199219,6.2695313-7.4160156l-16.3867188,0.0029297z"/>
			</g>
			<path d="M62.8837891,211.7470703c-0.0302734,7.2431641-10.8730469,12.4960938-14.0576172,18.2275391c-3.1816406-5.7314453-14.0253906-10.984375-14.0556641-18.2275391c-0.0136719-3.4189453,3.1474609-6.1894531,7.0283203-6.1894531
				c3.8818359,0,7.0273438,2.7705078,7.0273438,6.1894531c0-3.4189453,3.1484375-6.1894531,7.0292969-6.1894531c3.8828125,0,7.0283203,2.7705078,7.0283203,6.1894531z"/>
		</g>
		<g style="&st2;">
			<g>
				<path d="M110.3129883,196.9082031c6.9589844,0.0068359,7.2910156,14.8544922,7.2910156,14.8544922l1.7753906-0.0185547c0,0,0.0917969-3.7119141,1.0507813-7.4228516c0.9609375-3.7089844,2.7910156-7.4199219,6.2714844-7.4160156l-16.3886719,0.0029297z"/>
			</g>
			<path d="M132.5883789,211.7470703c-0.03125,7.2431641-10.8730469,12.4960938-14.0566406,18.2275391c-3.1835938-5.7314453-14.0253906-10.984375-14.0566406-18.2275391c-0.0136719-3.4189453,3.1464844-6.1894531,7.0292969-6.1894531
				c3.8808594,0,7.0273438,2.7705078,7.0273438,6.1894531c0-3.4189453,3.1464844-6.1894531,7.0292969-6.1894531c3.8808594,0,7.0273438,2.7705078,7.0273438,6.1894531z"/>
		</g>
		<g style="&st2;">
			<g>
				<path d="M77.3330078,169.1904297c6.9584961,0.0058594,7.2905273,14.8535156,7.2905273,14.8535156l1.7753906-0.0175781c0,0,0.0917969-3.7128906,1.0507813-7.4238281c0.9609375-3.7089844,2.7910156-7.4199219,6.2695313-7.4160156l-16.3862305,0.0039063z"/>
			</g>
			<path d="M99.6079102,184.0302734c-0.03125,7.2421875-10.8730469,12.4941406-14.0585938,18.2265625c-3.1811523-5.7324219-14.0239258-10.984375-14.0551758-18.2265625c-0.0136719-3.4199219,3.1464844-6.1904297,7.0292969-6.1904297
				c3.8808594,0,7.0258789,2.7705078,7.0258789,6.1904297c0-3.4199219,3.1484375-6.1904297,7.03125-6.1904297c3.8808594,0,7.0273438,2.7705078,7.0273438,6.1904297z"/>
		</g>
		<g style="&st2;">
			<g>
				<path d="M56.9970703,46.1118164c-3.4794922,0.003418-5.3095703-3.7070313-6.2695313-7.4160156c-0.9599609-3.7114258-1.0517578-7.4238281-1.0517578-7.4238281l-1.7753906-0.0175781c0,0-0.3320313,14.8476563-7.2900391,14.8535156l16.3867188,0.0039063z"/>
			</g>
			<path d="M62.8847656,31.269043c-0.03125-7.2431641-10.8730469-12.4956055-14.0576172-18.2270508c-3.1826172,5.7314453-14.0253906,10.9838867-14.0556641,18.2270508c-0.0136719,3.4194336,3.1464844,6.1894531,7.0283203,6.1894531
				s7.0273438-2.7700195,7.0273438-6.1894531c0,3.4194336,3.1474609,6.1894531,7.0292969,6.1894531s7.0283203-2.7700195,7.0283203-6.1894531z"/>
		</g>
		<g style="&st2;">
			<g>
				<path d="M126.7016602,46.1118164c-3.4785156,0.003418-5.3085938-3.7070313-6.2695313-7.4160156c-0.9609375-3.7114258-1.0507813-7.4238281-1.0507813-7.4238281l-1.7753906-0.0175781c0,0-0.3339844,14.8476563-7.2910156,14.8535156l16.3867188,0.0039063z"/>
			</g>
			<path d="M132.590332,31.269043c-0.03125-7.2431641-10.8730469-12.4956055-14.0585938-18.2270508c-3.1816406,5.7314453-14.0253906,10.9838867-14.0546875,18.2270508c-0.015625,3.4194336,3.1464844,6.1894531,7.0273438,6.1894531
				s7.0273438-2.7700195,7.0273438-6.1894531c0,3.4194336,3.1484375,6.1894531,7.0292969,6.1894531c3.8828125,0,7.0292969-2.7700195,7.0292969-6.1894531z"/>
		</g>
		<g style="&st2;">
			<path d="M12.7207031,25.7885742v-1.46875h1.5V9.722168l-1.6875,2.2236328v-1.8007813l2.0283203-2.7314453h1.6904297v16.90625h1.53125v1.46875h-5.0625z"/>
			<path d="M22.7089844,26.1323242c-1.0800781,0-1.9052734-0.8027344-2.4765625-2.4101563C19.6601563,22.1147461,19.375,19.8012695,19.375,16.7797852s0.2851563-5.3378906,0.8574219-6.9492188c0.5712891-1.6113281,1.3964844-2.4169922,2.4765625-2.4169922
				c1.0703125,0,1.8925781,0.8056641,2.4638672,2.4169922s0.8583984,3.9277344,0.8583984,6.9492188s-0.2871094,5.3349609-0.8583984,6.9423828s-1.3935547,2.4101563-2.4638672,2.4101563z M22.7089844,24.7260742c0.4306641,0,0.7275391-0.4394531,0.890625-1.3183594
				c0.1621094-0.8789063,0.2441406-3.0878906,0.2441406-6.6289063c0-3.515625-0.0820313-5.7207031-0.2441406-6.6162109c-0.1630859-0.8945313-0.4599609-1.3427734-0.890625-1.3427734c-0.4394531,0-0.7402344,0.4394531-0.9033203,1.3183594
				S21.5625,13.230957,21.5625,16.7788086c0,3.5410156,0.0800781,5.75,0.2431641,6.6289063s0.4638672,1.3183594,0.9033203,1.3183594z"/>
		</g>
		<g style="&st2;">
			<path d="M153.9946289,216.3701172v1.46875h-1.5v14.5976563l1.6875-2.2226563v1.8007813l-2.0292969,2.7304688h-1.6894531v-16.90625h-1.53125v-1.46875h5.0625z"/>
			<path d="M144.0063477,216.0263672c1.0800781,0,1.9042969,0.8027344,2.4765625,2.4101563s0.8574219,3.921875,0.8574219,6.9433594c0,3.0205078-0.2851563,5.3369141-0.8574219,6.9482422s-1.3964844,2.4169922-2.4765625,2.4169922
				c-1.0703125,0-1.8925781-0.8056641-2.4648438-2.4169922c-0.5703125-1.6113281-0.8574219-3.9277344-0.8574219-6.9482422c0-3.0214844,0.2871094-5.3359375,0.8574219-6.9433594c0.5722656-1.6074219,1.3945313-2.4101563,2.4648438-2.4101563z
				 M144.0063477,217.4326172c-0.4316406,0-0.7285156,0.4394531-0.890625,1.3183594s-0.2441406,3.0878906-0.2441406,6.6289063c0,3.515625,0.0820313,5.7207031,0.2441406,6.6162109s0.4589844,1.3427734,0.890625,1.3427734
				c0.4394531,0,0.7402344-0.4394531,0.9023438-1.3183594c0.1640625-0.8789063,0.2441406-3.0927734,0.2441406-6.640625c0-3.5410156-0.0800781-5.75-0.2441406-6.6289063c-0.1621094-0.8789063-0.4628906-1.3183594-0.9023438-1.3183594z"/>
		</g>
		<g style="&st2;">
			<g>
				<path d="M19.0185547,39.2827148c-1.0957031,0.0009766-1.671875-1.1674805-1.9736328-2.3349609c-0.3027344-1.1689453-0.3320313-2.3374023-0.3320313-2.3374023l-0.5585938-0.0058594c0,0-0.1044922,4.6748047-2.2949219,4.6767578l5.1591797,0.0014648z"/>
			</g>
			<path d="M20.8720703,34.609375c-0.0097656-2.2802734-3.4228516-3.934082-4.4257813-5.7387695c-1.0019531,1.8046875-4.4160156,3.4584961-4.4257813,5.7387695c-0.0048828,1.0766602,0.9912109,1.9487305,2.2138672,1.9487305
				c1.2207031,0,2.2119141-0.8720703,2.2119141-1.9487305c0,1.0766602,0.9912109,1.9487305,2.2128906,1.9487305s2.2128906-0.8720703,2.2128906-1.9487305z"/>
		</g>
		<g style="&st2;">
			<g>
				<path d="M148.0043945,202.9492188c1.0957031-0.0009766,1.671875,1.1669922,1.9746094,2.3349609c0.3007813,1.1679688,0.3300781,2.3369141,0.3300781,2.3369141l0.5585938,0.0058594c0,0,0.1054688-4.6748047,2.296875-4.6767578l-5.1601563-0.0009766z"/>
			</g>
			<path d="M146.1508789,207.6220703c0.0097656,2.28125,3.4238281,3.9335938,4.4257813,5.7382813c1.0019531-1.8046875,4.4160156-3.4570313,4.4257813-5.7382813c0.0039063-1.0761719-0.9902344-1.9492188-2.2128906-1.9492188s-2.2128906,0.8730469-2.2128906,1.9492188
				c0-1.0761719-0.9902344-1.9492188-2.2128906-1.9492188s-2.2128906,0.8730469-2.2128906,1.9492188z"/>
		</g>
	</g>
</svg>
