<?xml version="1.0" encoding="utf-8"?>
<!-- Generator: Adobe Illustrator 9.0, SVG Export Plug-In  -->
<!DOCTYPE svg PUBLIC "-//W3C//DTD SVG 20000303 Stylable//EN"   "http://www.w3.org/TR/2000/03/WD-SVG-20000303/DTD/svg-20000303-stylable.dtd" [
	<!ENTITY st0 "fill:#FFFFFF;stroke-width:0.5;">
	<!ENTITY st1 "fill-rule:nonzero;clip-rule:nonzero;fill:#E61408;stroke:#000000;stroke-miterlimit:4;">
	<!ENTITY st2 "stroke:none;">
]>
<!-- This set of SVG files is a complete cards game with figures, numbers	-->
<!--    and backs of cards completely designed in SVG.				-->
<!--    									-->
<!--    Copyright (C) 2004 David Bellot						-->
<!--										-->
<!--    This library is free software; you can redistribute it and/or		-->
<!--    modify it under the terms of the GNU Lesser General Public		-->
<!--    License as published by the Free Software Foundation; either		-->
<!--    version 2 of the License, or (at your option) any later version		-->
<!--										-->
<!--    This library is distributed in the hope that it will be useful,		-->
<!--    but WITHOUT ANY WARRANTY; without even the implied warranty of		-->
<!--    MERCHANTABILITY or FITNESS FOR A PARTICULAR PURPOSE.  See the GNU	-->
<!--    Lesser General Public License for more details.				-->
<!--										-->
<!--    You should have received a copy of the GNU Lesser General Public	-->
<!--    License along with this library; if not, write to the Free Software	-->
<!--    Foundation, Inc., 59 Temple Place, Suite 330, Boston, MA 02111-1307  USA-->
<!--										-->
<!--    Contact the author David Bellot at bellot@stat.berkeley.edu or 		-->
<!--    david.bellot@free.fr or yimyom@users.sourceforge.net			-->
<svg  width="167.0786133pt" height="242.6669922pt" viewBox="0 0 167.0786133 242.6669922" xml:space="preserve">
	<g id="Layer_x0020_1" style="&st1;">
		<path style="&st0;" d="M166.8286133,235.5478516c0,3.7753906-3.0859375,6.8691406-6.8691406,6.8691406H7.1113281c-3.7753906,0-6.8613281-3.09375-6.8613281-6.8691406V7.1201172C0.25,3.3452148,3.3359375,0.25,7.1113281,0.25h152.8481445
			c3.7832031,0,6.8691406,3.0952148,6.8691406,6.8701172v228.4277344z"/>
		<g>
			<path style="&st2;" d="M33.1777344,21.9067383c0.0175781,9.5805664,12.0224609,16.5576172,15.5380859,24.1435547c3.5517578-7.5678711,15.5917969-14.4824219,15.6542969-24.0629883c0.0263672-4.5175781-3.4707031-8.1938477-7.7734375-8.203125
				c-4.3115234-0.0087891-7.8095703,3.6411133-7.8183594,8.1674805c0.0087891-4.5263672-3.4707031-8.1943359-7.7822266-8.203125c-4.3027344-0.0180664-7.8007813,3.640625-7.8183594,8.1582031z"/>
		</g>
		<g>
			<path style="&st2;" d="M33.1777344,81.6972656c0.0175781,9.5805664,12.0224609,16.5576172,15.5380859,24.1435547c3.5517578-7.5678711,15.5917969-14.4829102,15.6542969-24.0629883c0.0263672-4.5263672-3.4707031-8.1938477-7.7734375-8.203125
				c-4.3115234-0.0087891-7.8095703,3.6411133-7.8183594,8.1669922c0.0087891-4.5258789-3.4707031-8.1938477-7.7822266-8.2114258c-4.3027344-0.0092773-7.8007813,3.6494141-7.8183594,8.1669922z"/>
		</g>
		<g>
			<path style="&st2;" d="M33.1777344,220.7607422c0.0175781-9.5800781,12.0224609-16.5488281,15.5380859-24.1425781c3.5517578,7.5761719,15.5917969,14.4902344,15.6542969,24.0625c0.0263672,4.5263672-3.4707031,8.203125-7.7734375,8.2109375
				c-4.3115234,0.0097656-7.8095703-3.6484375-7.8183594-8.1660156c0.0087891,4.5175781-3.4707031,8.1933594-7.7822266,8.203125c-4.3027344,0.0078125-7.8007813-3.6416016-7.8183594-8.1679688z"/>
		</g>
		<g>
			<path style="&st2;" d="M33.1777344,160.9794922c0.0175781-9.5800781,12.0224609-16.5576172,15.5380859-24.1435547c3.5517578,7.5673828,15.5917969,14.4824219,15.6542969,24.0634766c0.0263672,4.5175781-3.4707031,8.1933594-7.7734375,8.203125
				c-4.3115234,0.0078125-7.8095703-3.6416016-7.8183594-8.1679688c0.0087891,4.5263672-3.4707031,8.1943359-7.7822266,8.203125c-4.3027344,0.0175781-7.8007813-3.640625-7.8183594-8.1582031z"/>
		</g>
		<g>
			<path style="&st2;" d="M133.9106445,21.9067383c-0.0097656,9.5805664-12.0214844,16.5576172-15.5371094,24.1435547c-3.5429688-7.5678711-15.5917969-14.4824219-15.6542969-24.0629883c-0.0273438-4.5175781,3.4707031-8.1938477,7.78125-8.203125
				c4.3027344-0.0087891,7.8007813,3.6411133,7.8183594,8.1674805c-0.0175781-4.5263672,3.4707031-8.1943359,7.7734375-8.203125c4.3125-0.0180664,7.8085938,3.640625,7.8183594,8.1582031z"/>
		</g>
		<g>
			<path style="&st2;" d="M133.9106445,81.6972656c-0.0097656,9.5805664-12.0214844,16.5576172-15.5371094,24.1435547c-3.5429688-7.5678711-15.5917969-14.4829102-15.6542969-24.0629883c-0.0273438-4.5263672,3.4707031-8.1938477,7.78125-8.203125
				c4.3027344-0.0087891,7.8007813,3.6411133,7.8183594,8.1669922c-0.0175781-4.5258789,3.4707031-8.1938477,7.7734375-8.2114258c4.3125-0.0092773,7.8085938,3.6494141,7.8183594,8.1669922z"/>
		</g>
		<g>
			<path style="&st2;" d="M133.9106445,220.7607422c-0.0097656-9.5800781-12.0214844-16.5488281-15.5371094-24.1425781c-3.5429688,7.5761719-15.5917969,14.4902344-15.6542969,24.0625c-0.0273438,4.5263672,3.4707031,8.203125,7.78125,8.2109375
				c4.3027344,0.0097656,7.8007813-3.6484375,7.8183594-8.1660156c-0.0175781,4.5175781,3.4707031,8.1933594,7.7734375,8.203125c4.3125,0.0078125,7.8085938-3.6416016,7.8183594-8.1679688z"/>
		</g>
		<g>
			<path style="&st2;" d="M133.9106445,160.9794922c-0.0097656-9.5800781-12.0214844-16.5576172-15.5371094-24.1435547c-3.5429688,7.5673828-15.5917969,14.4824219-15.6542969,24.0634766c-0.0273438,4.5175781,3.4707031,8.1933594,7.78125,8.203125
				c4.3027344,0.0078125,7.8007813-3.6416016,7.8183594-8.1679688c-0.0175781,4.5263672,3.4707031,8.1943359,7.7734375,8.203125c4.3125,0.0175781,7.8085938-3.640625,7.8183594-8.1582031z"/>
		</g>
		<g>
			<path style="&st2;" d="M101.0102539,49.3867188c-0.0078125,9.5805664-12.0214844,16.5576172-15.5371094,24.1435547c-3.543457-7.5678711-15.5922852-14.4824219-15.6547852-24.0629883c-0.0273438-4.5175781,3.4707031-8.1938477,7.78125-8.203125
				c4.3027344-0.0087891,7.8012695,3.6411133,7.8188477,8.1674805c-0.0175781-4.5263672,3.4707031-8.1943359,7.7734375-8.203125c4.3125-0.0175781,7.8105469,3.640625,7.8183594,8.1582031z"/>
		</g>
		<g>
			<path style="&st2;" d="M101.0102539,193.28125c-0.0078125-9.5810547-12.0214844-16.5576172-15.5371094-24.1435547c-3.543457,7.5683594-15.5922852,14.4824219-15.6547852,24.0625c-0.0273438,4.5273438,3.4707031,8.1943359,7.78125,8.2119141
				c4.3027344,0.0087891,7.8012695-3.6494141,7.8188477-8.1669922c-0.0175781,4.5175781,3.4707031,8.1933594,7.7734375,8.203125c4.3125,0.0087891,7.8105469-3.640625,7.8183594-8.1669922z"/>
		</g>
		<g style="&st2;">
			<path d="M12.6181641,26.0371094v-1.46875h1.5V9.9702148l-1.6875,2.2236328v-1.8007813l2.0283203-2.730957h1.6904297v16.90625h1.53125v1.46875h-5.0625z"/>
			<path d="M22.6054688,26.3808594c-1.0791016,0-1.9042969-0.8032227-2.4765625-2.4106445c-0.5722656-1.6069336-0.8574219-3.9208984-0.8574219-6.9423828c0-3.0209961,0.2851563-5.3374023,0.8574219-6.9487305s1.3974609-2.4169922,2.4765625-2.4169922
				c1.0712891,0,1.8925781,0.8056641,2.4648438,2.4169922c0.5712891,1.6113281,0.8574219,3.9277344,0.8574219,6.9487305c0,3.0214844-0.2861328,5.3354492-0.8574219,6.9423828c-0.5722656,1.6074219-1.3935547,2.4106445-2.4648438,2.4106445z M22.6054688,24.9746094
				c0.4316406,0,0.7285156-0.4394531,0.890625-1.3183594s0.2441406-3.0883789,0.2441406-6.6289063c0-3.515625-0.0820313-5.7207031-0.2441406-6.6162109c-0.1621094-0.8950195-0.4589844-1.3427734-0.890625-1.3427734
				c-0.4394531,0-0.7402344,0.4394531-0.9023438,1.3183594c-0.1630859,0.8789063-0.2441406,3.0927734-0.2441406,6.640625c0,3.5405273,0.0810547,5.75,0.2441406,6.6289063c0.1621094,0.8789063,0.4628906,1.3183594,0.9023438,1.3183594z"/>
		</g>
		<g style="&st2;">
			<path d="M153.8911133,216.6181641v1.46875h-1.5v14.5986328l1.6875-2.2236328v1.8007813l-2.0292969,2.7304688h-1.6894531v-16.90625h-1.53125v-1.46875h5.0625z"/>
			<path d="M143.902832,216.2744141c1.0800781,0,1.90625,0.8037109,2.4765625,2.4111328c0.5722656,1.6064453,0.8574219,3.9208984,0.8574219,6.9423828s-0.2851563,5.3378906-0.8574219,6.9492188c-0.5703125,1.6113281-1.3964844,2.4160156-2.4765625,2.4160156
				c-1.0703125,0-1.8925781-0.8046875-2.4628906-2.4160156c-0.5722656-1.6113281-0.859375-3.9277344-0.859375-6.9492188s0.2871094-5.3359375,0.859375-6.9423828c0.5703125-1.6074219,1.3925781-2.4111328,2.4628906-2.4111328z M143.902832,217.6806641
				c-0.4296875,0-0.7265625,0.4394531-0.890625,1.3183594c-0.1621094,0.8789063-0.2441406,3.0888672-0.2441406,6.6289063c0,3.515625,0.0820313,5.7207031,0.2441406,6.6171875c0.1640625,0.8945313,0.4609375,1.3417969,0.890625,1.3417969
				c0.4394531,0,0.7402344-0.4394531,0.9042969-1.3183594c0.1621094-0.8789063,0.2421875-3.0917969,0.2421875-6.640625c0-3.5400391-0.0800781-5.75-0.2421875-6.6289063c-0.1640625-0.8789063-0.4648438-1.3183594-0.9042969-1.3183594z"/>
		</g>
		<g>
			<path style="&st2;" d="M11.5136719,31.6108398c0.0019531,2.8735352,3.6054688,4.9667969,4.6601563,7.2431641c1.0644531-2.2709961,4.6777344-4.3457031,4.6953125-7.2197266c0.0078125-1.3564453-1.0410156-2.4580078-2.3330078-2.4614258
				s-2.3408203,1.0932617-2.3447266,2.449707c0.0039063-1.3564453-1.0410156-2.4584961-2.3330078-2.4614258c-1.2919922-0.003418-2.3417969,1.0927734-2.3447266,2.449707z"/>
		</g>
		<g>
			<path style="&st2;" d="M154.8911133,210.9082031c-0.0039063-2.8740234-3.6074219-4.9658203-4.6601563-7.2431641c-1.0664063,2.2714844-4.6796875,4.3457031-4.6972656,7.2197266c-0.0078125,1.3564453,1.0410156,2.4580078,2.3339844,2.4619141
				c1.2910156,0.0029297,2.3417969-1.09375,2.34375-2.4501953c-0.0019531,1.3564453,1.0410156,2.4580078,2.3339844,2.4619141c1.2910156,0.0029297,2.3417969-1.09375,2.3457031-2.4501953z"/>
		</g>
	</g>
</svg>
