<?xml version="1.0" encoding="utf-8"?>
<!-- Generator: Adobe Illustrator 9.0, SVG Export Plug-In  -->
<!DOCTYPE svg PUBLIC "-//W3C//DTD SVG 20000303 Stylable//EN"   "http://www.w3.org/TR/2000/03/WD-SVG-20000303/DTD/svg-20000303-stylable.dtd" [
	<!ENTITY st0 "fill:#FE9F34;stroke-width:0.5;">
	<!ENTITY st1 "fill:#FB0F0C;">
	<!ENTITY st2 "fill:#FFFFFF;">
	<!ENTITY st3 "fill-rule:nonzero;clip-rule:nonzero;stroke:#000000;stroke-miterlimit:4;">
	<!ENTITY st4 "stroke:none;">
]>
<!-- This set of SVG files is a complete cards game with figures, numbers	-->
<!--    and backs of cards completely designed in SVG.				-->
<!--    									-->
<!--    Copyright (C) 2004 David Bellot						-->
<!--										-->
<!--    This library is free software; you can redistribute it and/or		-->
<!--    modify it under the terms of the GNU Lesser General Public		-->
<!--    License as published by the Free Software Foundation; either		-->
<!--    version 2 of the License, or (at your option) any later version		-->
<!--										-->
<!--    This library is distributed in the hope that it will be useful,		-->
<!--    but WITHOUT ANY WARRANTY; without even the implied warranty of		-->
<!--    MERCHANTABILITY or FITNESS FOR A PARTICULAR PURPOSE.  See the GNU	-->
<!--    Lesser General Public License for more details.				-->
<!--										-->
<!--    You should have received a copy of the GNU Lesser General Public	-->
<!--    License along with this library; if not, write to the Free Software	-->
<!--    Foundation, Inc., 59 Temple Place, Suite 330, Boston, MA 02111-1307  USA-->
<!--										-->
<!--    Contact the author David Bellot at bellot@stat.berkeley.edu or 		-->
<!--    david.bellot@free.fr or yimyom@users.sourceforge.net			-->
<svg  width="167.0864258pt" height="242.6669922pt" viewBox="0 0 167.0864258 242.6669922" xml:space="preserve">
	<g id="Layer_x0020_1" style="&st3;">
		<path style="&st0;" d="M166.8364258,235.5478516c0,3.7773438-3.0859375,6.8691406-6.8701172,6.8691406H7.1113281c-3.7749023,0-6.8613281-3.0917969-6.8613281-6.8691406V7.1201172C0.25,3.3427734,3.3364258,0.25,7.1113281,0.25h152.8549805
			c3.7841797,0,6.8701172,3.0927734,6.8701172,6.8701172v228.4277344z"/>
		<g style="&st4;">
			<path d="M117.128418,16.3701172c-2.9619141,2.1391602-7.5527344,6.484375-9.7246094,8.9902344c0.5703125,0.0473633,1.1464844-0.4150391,1.78125-0.5307617l4.3554688-1.4125977c-1.7539063,1.6328125-5.4726563,4.5439453-6.4785156,6.7363281
				c1.3535156-0.5566406,4.1621094-2.3330078,5.59375-2.5415039c-1.1972656,1.1904297-3.7070313,3.4609375-4.4570313,4.8618164c0.1015625,0.0405273,0.0390625,0.1630859,0.0585938,0.2451172c1.0488281-0.6616211,3.5917969-2.3813477,4.7773438-2.5507813
				c-1.1582031,1.3540039-3.2832031,3.9555664-3.6894531,5.6455078c1.0273438-0.7636719,3.6298828-2.3398438,4.7792969-2.8369141c-0.2324219,0.6704102-0.7988281,1.1889648-1.1494141,1.8657227c-0.4833984,0.9360352-1.6865234,2.0356445-1.6767578,3.1171875
				c0.8876953-0.9282227,2.0048828-1.765625,3.1347656-2.4462891c-0.4609375,1.1181641-1.3671875,2.0703125-1.5585938,3.3823242c0.7226563-0.7875977,2.1474609-1.2524414,3.1113281-1.6494141l-0.1123047,0.1210938
				c-0.0810547,0.0751953-1.1455078,0.9267578-1.8525391,1.8515625c0.6679688-0.0771484,0.1640625-0.1328125,1.03125,0.0126953l0.4658203-0.003418c-1.2978516,0.7797852-3.2900391,2.0063477-4.5078125,2.8930664
				c0.7373047-0.1142578,1.7216797-0.2045898,2.5585938-0.1342773c-1.6455078,0.7993164-3.3935547,1.4350586-4.8388672,2.6040039c0.859375,0.0107422,1.8632813-0.0390625,2.6582031,0.2763672c-1.6035156,0.5336914-3.1855469,1.1298828-4.5078125,2.2607422
				c1.0644531-0.1308594,2.4589844-0.340332,3.5390625,0.0400391c-1.640625,0.4111328-3.1445313,1.1508789-4.4863281,2.2607422c0.9628906-0.0913086,2.3144531-0.2387695,3.3349609-0.0224609c0.1220703,0.0419922,0.4501953-0.0766602,0.5927734,0.1083984
				c-1.8300781,0.675293-3.6972656,1.206543-5.2880859,2.4980469c0.6962891-0.0957031,1.6572266-0.0229492,2.4970703-0.0332031l0.1005859,0.1035156c-1.9716797,0.6318359-3.9619141,1.140625-5.7744141,2.2045898
				c0.7949219,0.2138672,1.6953125,0.1625977,2.4492188,0.4575195c-1.5820313,0.6157227-3.1640625,1.1923828-4.4882813,2.4042969c1.0244141-0.1103516,2.1923828-0.2207031,3.2978516-0.3095703l0.0810547,0.1030273
				c-1.6035156,0.6572266-3.0888672,1.6625977-4.3925781,2.9570313c0.9414063-0.0092773,1.9277344-0.3671875,2.9492188-0.2109375c-1.625,0.7172852-3.2714844,1.5170898-4.6572266,2.7905273c1.0654297-0.1108398,2.1728516-0.3637695,3.3398438-0.309082
				l-0.0009766,0.1015625c-2.203125,1.140625-4.5058594,2.015625-6.4091797,3.8969727c1.0439453-0.0908203,2.3134766-0.1586914,3.4814453-0.2470703l0.1005859,0.1030273c-1.6494141,1.1674805-3.4423828,2.1704102-4.8115234,3.8125l3.6484375-0.6328125v0.081543
				c-1.5058594,1.0043945-3.2314453,1.640625-4.4550781,3.0585938c1.1074219-0.1914063,2.3759766-0.2182617,3.5839844-0.3071289l-0.0009766,0.1030273c-1.9560547,1.0009766-3.8720703,2.2670898-5.4072266,4.0913086
				c1.0244141-0.1508789,2.0117188-0.6723633,3.0585938-0.9257813c0.4726563-0.0766602,0.9853516-0.234375,1.4355469-0.2294922c-1.4257813,1.1499023-3.078125,2.5224609-4.0390625,4.1079102c0.0390625,0.1640625-0.0634766,0.265625-0.1054688,0.4077148
				c1.0068359-0.3969727,2.1367188-0.7729492,3.2050781-1.1499023c-1.1992188,1.0703125-2.7685547,2.28125-3.7265625,3.7421875c0.7167969-0.09375,1.3554688-0.3720703,2.0722656-0.4667969c0.0175781,0.3071289-0.3291016,0.0996094-0.4941406,0.28125
				c-1.3203125,0.9057617-2.6992188,1.6464844-3.9003906,2.7993164c0.7792969-0.1342773,1.7636719-0.2866211,2.6425781-0.215332c-1.5625,0.6777344-3.2060547,1.1499023-4.7890625,1.828125c0.734375,0.2128906,1.6347656,0.2011719,2.4101563,0.4155273
				c-1.4140625,0.168457-2.8076172,0.3364258-4.1425781,0.7294922c0.8125,0.4814453,1.8779297,0.4111328,2.6074219,0.972168l-2.4174805,0.3608398c0.2612305,0.4125977,0.6459961,0.7856445,0.9682617,1.1982422
				c-0.8808594-0.0102539-1.9208984-0.246582-2.7397461-0.2358398c0.2207031,0.4116211,0.706543,0.7841797,0.90625,1.2373047c-0.9819336,0.0297852-1.9609375-0.2871094-2.9833984-0.3203125l0.5830078,0.9892578
				c-0.7573242-0.0087891-1.5532227-0.2226563-2.3710938-0.2329102l0.3984375,0.9467773c-4.9438477,0.9863281-10.206543,1.3149414-15.440918,0.9882813l-11.8793945-0.8129883c-10.3237305-0.8955078-19.9946289-3.3813477-28.6777344-8.1054688
				c-1.965332-1.6601563-4.6914063-3.0625-5.6445313-5.6108398c0.8925781,4.2460938,4.1074219,7.5981445,7.2416992,10.8886719c6.7412109,6.2573242,14.9140625,9.1337891,23.1918945,11.7055664c3.2993164,1.3876953,6.8710938,2.206543,10.3808594,3.065918
				l11.2661133,2.5043945c5.6557617,1.2094727,11.6381836,0.5424805,17.1923828-0.293457l3.015625-0.7016602c-0.265625,1.8168945-1.6542969,3.2954102-2.2675781,5.027832l0.9697266,4.6767578l-1.8447266,2.0454102l-0.0625,1.9013672
				c0.4433594,0.5170898,0.578125,1.2563477,1.0039063,1.690918c0.4765625-0.6298828,0.4316406-2.0214844,1.5546875-1.84375l0.0800781,0.1435547c0.0488281,1.125-0.1494141,2.3500977,0.125,3.3779297l1.15625,0.9121094l6.5371094-0.7636719l5.0410156,1.0410156
				c1.9492188-0.46875,4.5019531,0.0732422,5.5292969-2.1054688c0.3916016-0.2211914,0.8183594,0.0097656,1.2275391,0.0146484c0.4482422,0.1884766,0.8544922,0.4609375,1.3232422,0.5673828l0.0039063-0.2460938l-1.2421875-2.3261719
				c-0.7568359-0.0078125-0.5019531-0.84375-0.6796875-1.296875c-0.59375-0.0888672-1.0371094-0.7075195-1.7148438-0.4482422l-1.4570313-1.3891602c-1.3115234,0.128418-2.5878906,0.8095703-3.9335938,0.3852539
				c-0.4667969-0.3740234-1.6152344-0.1821289-1.3984375-1.1416016l-0.7304688-0.5410156c-0.0136719-0.5727539-0.0683594-1.2080078-0.6787109-1.4399414l-0.1416016-0.1455078c0.1894531-2.309082,1.1738281-4.262207,1.8330078-6.3623047
				c1.6611328-3.8486328,4.9091797-7.003418,7.4462891-10.4736328c4.0224609-1.0375977,7.7675781-2.8359375,11.2929688-5.1279297c0.5664063,4.0576172,2.984375,7.359375,4.7851563,10.8999023c0.1748047,0.8408203,0.0605469,1.8422852,0.0722656,2.6611328
				c0.8984375,1.9746094,2.0214844,3.8496094,3.1259766,5.7246094c0.0869141,1.2695313-0.3330078,2.2875977-0.8154297,3.284668l0.4140625,1.3764648l2.1513672,1.4970703c0.0478516-0.6533203-0.25-1.3735352-0.2822266-2.1113281
				c0.3916016-0.199707,0.7792969-0.1953125,0.8964844,0.3183594c0.171875,0.9833984,1.53125,1.9819336,0.4570313,2.9926758c-0.0566406,1.3706055,0.1953125,2.6220703,0.28125,3.9311523l0.6503906,0.4580078
				c1.6796875-0.1845703,3.3007813-0.5341797,4.9609375-0.78125c2.4726563,0.3564453,4.9628906,0.7939453,7.5,0.8642578l1.9736328-0.8173828l0.6513672-1.4047852l1.1835938,0.1577148c0.4472656,0.3125,0.8515625,0.7470703,1.3183594,0.9970703
				c-0.2558594-0.7392578,0.0644531-1.9633789-1.0166016-2.3227539l-0.1806641-0.1865234c1.0087891-0.6235352,1.6503906,0.46875,2.4453125,0.8061523c-0.0351563-0.5532227-0.1914063-1.1689453-0.328125-1.7236328l-1.0761719-0.7890625
				c0.0585938-1.5136719-1.7207031-1.5341797-2.4238281-2.6889648c-0.9335938-0.7055664-1.8417969-0.0200195-2.7050781,0.3579102c-0.9814453-0.0517578-2.0478516,0.1201172-2.8398438-0.3798828c0.0253906-0.5527344-0.1328125-0.9638672-0.6191406-1.2753906
				l-0.0546875-0.737793c-1.8154297-2.2099609-3.2617188-4.6005859-3.1445313-7.6069336c-0.0976563-3.9716797-0.4824219-7.84375-1.3818359-11.4970703c-0.6259766-2.5234375-1.1689453-5.0874023-1.8779297-7.5917969
				c0.1367188-1.0839844,0.3554688-2.3085938,0.0810547-3.375c-1.2148438-1.1611328-2.5976563-1.9140625-3.8955078-2.8496094c1.2382813-2.6660156,2.4140625-5.3535156,3.2460938-8.2084961l1.0996094-3.1796875
				c-0.4648438-4.0571289-0.7822266-8.3989258-0.2851563-12.5883789c0.2480469-0.0991211,2.1835938-0.8022461,2.484375-0.8203125c0.5292969,0.7368164,0.90625,1.6010742,0.6367188,2.5869141c-0.3867188-0.0048828-0.7910156-0.3530273-1.2197266-0.4658203
				c0.2744141,0.5610352,0.6982422,1.0820313,0.6025391,1.8120117c-0.2988281-0.0678711-0.4658203-0.5209961-0.7226563-0.675293l0.1972656,1.5932617c0.5742188,0.4575195,1.3691406,0.4453125,2.1425781,0.4326172l-0.2070313,1.2436523
				c-0.4296875-0.090332-0.8330078-0.4389648-1.2382813-0.7451172c-0.1337891,0.4282227,0.2060547,0.7978516,0.3105469,1.1860352l-0.5146484-0.1289063c0.1210938,0.6240234,0.6064453,1.3974609,0.9423828,1.9379883l1.2421875,0.4868164l2.484375-1.2172852
				c0.6796875-1.2163086,0.8261719-2.6538086,1.1210938-4.0473633c-0.4414063-0.9077148-1.2050781-1.6689453-1.8183594-2.4921875l0.2314453-1.5014648l1.3486328-1.4238281c-0.4619141-0.9077148-0.1191406-2.6230469-1.734375-2.4482422l-5.890625,0.3330078
				c-0.21875-0.4736328,0.0332031-1.125-0.1855469-1.5776367c-0.5742188-1.7055664-0.6748047-3.609375-1.4130859-5.2758789c1.1337891-2.4418945,0.2197266-6.4575195,3.3837891-8.277832c2.1289063-1.25,2.34375-1.8828125,4.8945313-1.5517578
				c1.3779297,0.1782227,4.4169922,1.0283203,5.8300781,0.6362305c1.2949219-0.8222656,1.9257813-1.1875,3.0595703-2.1533203c0.1337891-0.53125,1.2431641-0.6796875,1.34375-1.3530273c-0.5712891-0.0063477-2.2412109-0.3564453-2.5595703-1.1157227
				l-0.4492188-0.0673828l-1.2871094,0.8320313L144.956543,31.125c-0.4921875,0.2797852-0.5820313,0.3369141-1.0761719,0.6982422c-0.1777344-0.4716797-0.2128906-0.8496094-0.3300781-1.3623047c-0.4111328,0.2607422-0.7539063-0.0976563-1.2246094,0.1220703
				L142.0307617,30.0625c-0.390625,0.2407227-1.1445313,0.5732422-1.5683594,0.7827148c-0.2011719-0.2890625-0.0117188-0.7148438-0.1308594-1.0234375c-0.4707031,0.1992188-0.8632813,0.5625-1.3359375,0.7612305
				c-0.1191406-0.2460938-0.4257813-0.8891602-0.4648438-1.1757813c-0.2460938,0.140625-0.6953125,0.3974609-1.0644531,0.515625c-0.1816406-0.1855469,0.8964844-0.3320313,0.7783203-0.5385742l-0.9541016,0.3916016l-0.1933594-1.0229492l-1.2421875,0.4282227
				c-0.0664063-0.6796875,0.1474609,1.328125,0.015625,0.4702148c0.2441406-0.0512695,0.3691406-0.5703125,0.8183594-0.6484375l0.6259766,1.7207031c0.1572266,0.0019531,1.0361328-1.359375,0.9375-0.9140625l0.1943359,0.5371094
				c0.0292969,0.0742188,0.2050781,0.3081055,0.3759766,1.3066406c0.8056641-0.5415039,0.5869141-0.4511719,1.3789063-1.0517578c0.1962891,0.828125,0.1396484,0.7905273,0.1142578,1.2446289l0.1738281-0.0322266
				c0.609375-0.5327148,1.0712891-0.46875,1.7314453-1.0239258c0.0859375,0.3613281-0.0712891,0.9848633,0.0830078,1.3022461l1.2480469-0.6391602c0.1523438,0.4975586,0.0507813,0.7734375,0.1542969,1.2592773l1.3125-1.2880859
				c0.3779297,0.4770508,0.1347656,1.2070313,0.2792969,1.8344727c0.515625-0.4306641,1.0439453-1.1884766,1.5019531-1.7246094c0.1279297,0.6337891-0.2636719,1.3066406-0.0214844,1.8955078c0.453125-0.1533203,1.0117188-0.3686523,1.4423828-0.5888672
				c0.1757813,0.4077148-0.9638672,0.621582-0.8095703,1.0292969c2.0097656,0.3110352,2.5195313,0.2226563,3.0634766-0.6708984c-0.4287109,0.6767578,0.7578125-2.5927734,1.2685547-3.828125l0.0058594-0.6538086
				c-0.6425781-1.6049805-0.6542969-4.4077148-0.9570313-4.7954102c-1.96875-2.3891602-8.6328125-2.4311523-11.8105469-5.5439453c0.4267578-1.6499023-0.71875-2.9311523-1.8671875-3.8886719c-1.7070313-1.09375-3.9492188-0.4331055-5.6748047,0.1484375
				c-2.0166016-0.3027344-3.8994141-0.9047852-5.8710938-1.3564453c-4.34375-0.2133789-8.4404297,3.0888672-8.4404297,3.0888672z"/>
			<path style="&st1;" d="M129.8647461,17.0908203l-1.4042969,0.6074219c-0.1894531-0.324707,0.2226563-0.6640625,0.3769531-0.984375c0.1103516-0.234375,0.4550781-0.3808594,0.5234375-0.6601563c-1.8671875-0.1943359-3.6640625-0.9882813-5.6230469-0.5800781
				c-2.0947266,0.4355469-3.2832031,1.2866211-4.4501953,2.2890625c-0.5966797,0.3598633-0.8681641,0.840332-1.4443359,1.2636719c-0.6953125,0.6782227-0.9453125,1.9707031-1.1142578,2.2236328c1.0341797-0.5014648,2.1015625-0.4907227,2.8076172-0.7641602
				c-2.6152344,1.7875977-2.9179688,5.0283203-2.0292969,7.671875l-0.0410156,0.0610352c-0.9355469-0.4814453-1.25-1.4438477-1.5458984-2.2841797c-0.1494141,0.5703125-0.1376953,1.2841797-0.2265625,1.9169922
				c-0.3037109-0.2490234-0.4833984-0.6186523-0.6630859-0.9467773c-0.1542969,2.8544922,1.3867188,5.0922852,3.2441406,7.2421875c1.2441406,1.4414063-0.9785156,2.5546875-0.34375,4.4125977l2.7285156-0.2924805
				c0.3457031-0.1469727,0.2382813-0.0952148,0.2382813-0.0952148c-0.6152344,1.3735352-4.1914063,2.5766602-4.8486328,3.3779297c0.203125,0.1469727,3.34375-0.9780273,4.5009766-1.2324219l-4.9345703,3.3310547
				c0.3466797,0.0849609,1.6533203-0.0327148,2.3974609-0.1782227c-0.7246094,0.6875-3.2148438,1.6499023-3.8789063,2.440918l2.3203125-0.4125977l-3.7636719,3.109375c0.1269531,1.515625-0.265625,2.0219727-1.4423828,2.9897461
				c-2.0078125,1.9208984-4.4570313,3.1821289-5.9970703,5.5180664c-1.0292969,2.1977539-1.8339844,4.5004883-3.0849609,6.59375c1.5986328-0.3295898,3.0820313-1.109375,4.8789063-0.7626953c4.9970703,1.4291992,8.8330078,2.3735352,11.5517578,6.0883789
				c1.2363281,1.0585938,2,2.3554688,3.3417969,3.1083984l4.4394531,5.3925781l0.1796875,0.3496094c1.3183594-2.543457-0.0488281-7.0107422-0.0742188-10.1621094c0.0371094-0.1816406,1.2363281,1.5800781,1.3388672,1.5405273
				c0.6298828,2.2060547,1.0546875,3.0532227,0.7587891,0.5610352l-1.1640625-4.9174805l1.8496094,2.4624023c0.3417969,0.515625,0.5712891,0.4628906,0.9941406,1c0.8261719-0.6450195-0.0488281-1.5546875-0.0800781-2.3935547
				c-0.3544922-1.2529297-1.0878906-0.8891602-1.9296875-2.4594727l-2.6191406-3.309082l3.875,1.3374023c-0.2753906-1.046875,0.0263672,0.3686523-0.453125-0.8618164l-3.5087891-4.1337891l4.5400391,1.5595703
				c-0.0478516-1.1044922-0.0488281,0.1914063-0.3847656-0.7944336c-0.4052734-0.3725586-1.4316406-0.1186523-1.421875-0.9570313l-0.4238281-0.4960938c-0.4150391-1.2124023-0.9541016-2.4462891-1.0009766-3.7358398l0.4697266-1.6323242
				c0.5507813-1.5888672,1.7714844-0.980957,2.7167969-1.3388672c-0.3496094-1.6611328-1.046875-3.2250977-1.0273438-4.9643555c0.6289063-1.3022461,1.5449219-3.5,1.3222656-4.7060547l0.6796875-1.1303711
				c-0.9707031,0.2895508-1.9414063,0.7294922-2.6601563,1.5585938c-0.2519531-0.453125,0.0761719-1.0297852,0.2304688-1.4790039c0.4628906-0.9189453,1.4570313-1.4443359,2.2373047-1.9936523l-1.7333984-0.6430664
				c-0.9296875-1.3857422-2.6142578-2.4794922-2.7460938-4.1577148l0.4082031,0.1123047c1.6347656,1.6298828,3.9042969,2.9033203,6.109375,2.8876953c-1.5039063-0.046875,6.2001953-1.3422852,5.7109375-1.9584961
				c0.8847656,1.1123047,3.4003906,1.4677734,5.2519531,1.9794922c0.8203125-0.3369141,1.1894531-0.2724609,1.7880859-0.8569336c-0.2822266-0.269043-0.7080078-0.4790039-1.1142578-0.6049805c-2.4238281-0.5185547-8.1279297-1.355957-9.4648438-3.5839844
				c-0.1777344,0.9882813,0.7910156,1.7451172,1.8710938,2.5234375l-2.2460938-0.1894531c-4.015625-1.5654297-3.7011719-4.6264648-2.9912109-7.5576172l0.4248047,2.3935547l0.8378906,1.2734375c1.3261719-2.6552734,0.578125-2.2949219-2.5410156-5.6191406
				l2.2578125,0.7089844c1.0527344,0.7402344,2.7871094,2.0244141,4.3105469,2.8994141c4.1015625,2.3266602,6.1542969,3.9033203,11.2089844,3.984375l1.5712891,0.2548828c0.9521484-2.8671875-1.3164063-5.3500977-0.4658203-1.456543
				c-0.8730469-0.9311523-1.7246094-1.7905273-1.5839844-2.3076172c-0.3105469-0.409668,1.1152344-1.5483398,0.9638672-2.0249023c-1.5302734-1.3657227-7.8583984-1.8110352-11.4462891-4.9360352c-0.0703125,0.5576172,1.6835938,1.8999023,2,2.3764648
				c-3.3847656,0.2094727-5.4335938-0.7001953-5.8515625-1.7514648c-0.0839844-0.1743164-0.0332031-0.972168,0.3144531-1.2460938c0.4755859-0.2744141,0.9316406-0.6772461,1.4912109-0.7573242c-0.9169922-0.6542969-1.9814453,0.3422852-2.7382813,0.8066406
				c-0.5517578,1.0449219,0.4501953,2.125,0.6123047,2.9428711c-0.8359375-0.1601563-2.0253906-1.5195313-2.2089844-2.4023438c-1.2480469,0.199707-2.4082031,0.1015625-3.4101563-0.5546875c0.8417969-0.2265625,1.7050781-0.5830078,2.5878906-0.7866211
				c2.3066406-0.6181641,4.6337891-3.0839844,7.0859375-1.3798828l-1.1679688-1.3022461c-2.2109375-0.1108398-4.0703125,0.984375-6.0546875,1.5844727z"/>
			<path d="M122.2250977,18.5219727c-0.5888672,0.7451172-1.1787109,1.4907227-1.2744141,2.4560547l0.1484375,0.1533203c0.3925781-0.5126953,0.9980469-0.956543,1.5605469-1.2719727c0.0537109,1.0092773,0.7734375,1.9638672,1.6914063,2.4038086l0.1503906,0.0024414
				c-0.2451172-1.0561523-0.1875-2.3657227,0.1894531-3.3500977c0.6513672-0.59375,1.5351563-0.8623047,2.0800781-1.4794922c-1.4589844-0.253418-2.8164063,0.0966797-4.0253906,0.6186523l-0.5205078,0.4672852z"/>
			<path style="&st2;" d="M136.8569336,20.7314453c-0.6347656-0.7675781-1.5097656-1.3642578-2.5742188-1.2172852c0.0625,0.9848633,1.4707031,1.4873047,2.5742188,1.2172852z"/>
			<path d="M128.3110352,21.3056641c-0.9248047,0.1176758-1.7861328,0.3242188-2.6494141,0.5927734c0.4042969,0.3266602,0.8984375,0.4179688,1.28125,0.7236328c-1.1230469,0.480957-2.3085938,0.8115234-3.2646484,1.7246094l0.2138672,0.109375
				c1.8320313-0.4726563,4.0234375-0.5551758,5.9765625-0.2529297l0.1074219-0.0844727l-1.2236328-1.9262695l1.7021484-0.453125c-0.9570313-0.784668-2.0449219-1.5488281-3.265625-1.8422852c0.2089844,0.4750977,0.7402344,0.9326172,1.1220703,1.4091797v-0.0004883z
				"/>
			<path d="M135.1401367,22.9438477c0.921875,0.1171875,1.9326172,0.0859375,2.7949219-0.1186523c-1.4755859-0.6401367-3.3046875-0.4033203-4.515625-1.5996094c0.2509766,0.6479492,0.7753906,1.6855469,1.7207031,1.7182617z"/>
			<path d="M121.737793,28.7070313c0.4169922,1.1005859-0.7167969,2.5273438,0.3027344,3.5053711c0.8710938,0.890625,1.9160156,1.612793,2.9179688,2.2470703l-0.1035156-0.3447266c-0.9121094-0.9350586-1.7597656-1.9755859-2.21875-3.1196289
				c1.0263672,0.2910156,2.1171875,0.7119141,3.2773438,0.8110352c-1.3964844-1.8217773-3.8691406-3.5043945-3.109375-6.137207c0.0263672-0.4296875,0.5888672-0.7885742,0.421875-1.1777344c-1.3017578,1.0805664-1.7910156,2.6010742-1.4882813,4.2158203z"/>
			<path style="&st2;" d="M139.6010742,29.2373047c-0.1152344,0.2246094-0.0527344,0.5410156-0.078125,0.8110352c0.2734375-0.1547852,0.4570313-0.46875,0.7304688-0.6015625c-0.0898438-0.1577148-0.4501953-0.1396484-0.6523438-0.2094727z"/>
			<path style="&st2;" d="M141.331543,30.8227539l0.546875-0.5805664c-0.1328125-0.0922852-0.3105469-0.2290039-0.5390625-0.1640625l-0.0078125,0.7446289z"/>
			<path style="&st2;" d="M142.7211914,31.3452148c0.1357422,0.0024414,0.4140625-0.6313477,0.5498047-0.6293945l-0.4707031-0.2392578c-0.1582031-0.0014648-0.0322266,0.7568359-0.0791016,0.8686523z"/>
			<path style="&st2;" d="M144.1391602,31.5517578l-0.1279297,0.359375c0.3164063-0.0415039,0.4472656-0.6484375,0.6289063-0.8266602c-0.5332031-0.0751953-0.5605469-0.2163086-0.5009766,0.4672852z"/>
			<path style="&st2;" d="M145.6870117,32.2841797l0.5185547-0.980957l-0.5351563-0.0908203l0.0166016,1.0717773z"/>
			<path style="&st2;" d="M147.1303711,32.0439453l0.6259766-0.5195313c-0.6689453-0.2167969-0.7109375-0.3085938-0.6259766,0.5195313z"/>
			<path style="&st2;" d="M148.6811523,31.5766602c0.1103516,0.2719727,0.0390625,0.609375,0.0351563,0.9023438c0.1386719-0.2915039,0.4804688-0.5126953,0.5058594-0.8510742c-0.15625-0.1147461-0.3603516-0.0488281-0.5410156-0.0512695z"/>
			<path d="M129.6704102,43.2138672c0.2275391,0.3706055,0.2617188,0.8344727,0.4892578,1.2050781c0.4375-1.0595703,0.3164063-2.2988281-0.3710938-3.1953125c-1.1347656-0.4189453-2.2324219-0.8579102-3.2285156-1.5649414
				c0.4667969,1.3007813,1.84375,2.6899414,3.1103516,3.5551758z"/>
			<path d="M128.4448242,54.0693359l-0.0683594-3.0488281c-1.484375-0.8359375-3.0527344-1.5097656-4.4296875-2.6503906c1.1425781,2.0390625,2.6328125,4.0820313,4.4980469,5.6992188z"/>
			<path style="&st1;" d="M128.9291992,51.4936523c0.171875,1.1079102,0.28125,2.2548828,0.8027344,3.203125c1.4296875,0.159668,4.7861328-0.9873047,6.0234375-0.1782227l0.1923828,0.0019531c0.5693359,0.9511719,0.7490234,2.1147461,0.9951172,3.1484375
				c0.2929688-1.15625-0.2060547-2.6660156,1.0703125-3.3828125l-0.1855469-0.7324219l-6.0791016,0.1430664c-1.3867188-0.4262695-0.8759766-3.8779297-2.8193359-2.203125z"/>
			<path d="M106.581543,57.0888672c-0.4619141,0.9775391-0.7402344,2.0175781-1.1210938,3.0361328l0.1445313,0.0014648c1.4960938-1.9467773,3.4570313-3.4794922,5.2167969-5.2387695l1.7539063-3.0297852c-2.0449219,1.6342773-4.0302734,3.4326172-5.9941406,5.230957
				z"/>
			<path d="M120.5678711,52.6264648c-0.9414063,1.8095703-2.3730469,3.409668-2.8662109,5.4296875c-2.7119141,2.7109375-6.1005859,3.7563477-9.5283203,4.6992188c-0.0410156-0.0415039-0.0605469-0.1240234-0.1425781-0.1040039l-0.1025391,0.1015625
				l0.2041016,0.0019531l-0.0009766,0.1030273c3.0039063,0.402832,6.1992188,0.0717773,8.5146484-1.8671875c0.84375-0.5219727,1.5488281-1.4140625,2.7128906-1.09375l0.3476563-0.0571289c-0.3994141-2.5219727,0.078125-5.0336914,0.9628906-7.2119141
				l-0.1015625-0.0014648z"/>
			<path style="&st1;" d="M137.6743164,61.3295898l-0.1689453,1.6103516c0.6103516-0.7890625,1.3291016-1.5541992,1.1259766-2.6303711c-0.2392578,0.340332-0.4609375,0.875-0.9570313,1.0200195z"/>
			<path style="&st1;" d="M101.3510742,66.9541016c-1.1132813,0.7436523-1.1269531,2.0332031-1.40625,3.1757813c-0.1601563,4.9296875,0.9550781,9.4848633,4.453125,13.0039063c3.9609375,2.6035156,8.6162109,3.5170898,13.5224609,3.9003906l4.2744141,0.2329102
				l0.140625,0.1455078c-0.8671875,0.6450195-1.8515625,0.9609375-2.8183594,1.359375c1.5283203,0.5297852,3.078125,1.0180664,4.6484375,1.4663086c-1.0927734,0.6826172-2.40625,1.0556641-3.7998047,1.1430664
				c0.0146484,4.1123047,3.0507813,7.012207,4.359375,10.609375c0.3369141,1.0263672,0.28125,2.2124023,0.453125,3.2993164c1.0869141,1.5878906,1.9267578,3.2749023,2.7255859,4.9833984c0.2167969,0.7797852-0.5332031,1.8139648,0.4658203,2.2148438
				c-0.125,0.2431641-0.1708984,0.5302734-0.2958984,0.7744141c1.0273438-0.3769531,1.609375,0.5507813,2.09375,1.2519531l1.0175781,2.2211914l-0.2285156,2.1665039l0.5742188,1.6225586c0.65625-0.0742188,1.3535156-0.2905273,2.0117188-0.5083008
				c2.6738281,0.6240234,5.3662109,1.3300781,8.2929688,1.2207031c0.2294922-0.4262695,0.4599609-0.8544922,0.8535156-1.2167969c-0.9355469-0.4609375-2.1445313-0.4550781-3.1835938-0.7329102c-0.9140625-0.5625-1.7451172-1.269043-2.5966797-1.9936523
				c0.5117188-0.015625,1.2275391,0.0952148,1.7197266-0.0625c-0.4238281-0.4345703-1.265625-0.3017578-1.5019531-1.0610352l-1.8388672,1.5131836c-1.0224609-0.0117188-1.9892578,0.3867188-2.9892578,0.109375
				c1.3408203-0.8852539,2.6220703-1.9951172,3.7617188-3.2514648c-1.71875,0.0820313-2.7480469,2.2192383-4.6875,1.9506836l-0.0410156-0.0405273c1.2832031-1.1923828,2.3623047-2.5717773,3.4824219-3.8891602
				c-0.7597656-1.5639648-1.6630859-3.0688477-1.8046875-4.890625c0.4658203-3.1669922-0.4628906-6.0219727-0.796875-8.9931641c-0.6679688-4.2832031-2.1777344-8.2304688-2.8457031-12.4941406l-0.0205078-1.7197266l-1.0751953-0.8100586
				c-0.125,0.2851563-0.1699219,0.5913086-0.3574219,0.8344727c-1.5175781-3.2705078-4.1992188-6.6582031-7.4072266-8.78125c0.5361328,1.3964844,1.5439453,2.6772461,2.6982422,3.7138672c-4.3867188-1.1767578-6.8789063-6.7094727-11.0527344-8.5576172
				c-2.15625-1.1503906-4.4375-2.0766602-6.8876953-2.5351563c0.6992188-0.2792969,1.5195313-0.4541016,2.3193359-0.5673828c-1.28125-0.7304688-2.8544922-0.9326172-4.5136719-0.8491211l-0.0996094-0.0834961
				c1.2324219-0.5385742,2.5644531-0.7680664,4.0390625-0.6899414c-1.1230469-0.2797852-2.1816406-0.7626953-3.4326172-0.5922852l-2.2255859,1.4072266z"/>
			<path style="&st1;" d="M92.2475586,86.4311523c-2.5058594,2.4882813-4.9980469,5.6938477-8.2832031,6.6782227c-3.1079102,1.5610352-6.453125,2.4423828-9.9995117,2.8935547c-11.7895508,0.2939453-23.3793945-0.7402344-34.4077148-2.668457
				c-4.5913086-1.0961914-9.0146484-2.5795898-13.2905273-4.4086914c3.3681641,2.4125977,6.9960938,5.4414063,11.0522461,6.8388672c6.8842773,2.8212891,13.8525391,5.4179688,21.284668,6.8759766l10.2480469,2.0820313
				c4.6206055,0.3398438,9.3706055,0.1494141,13.7578125-0.5791016c7.0307617-1.1464844,13.565918-3.5058594,19.6225586-7.078125c2.8300781-2.2592773,6.3359375-2.7919922,9.4824219-4.2700195l1.7294922-0.859375
				c-0.6875-0.7446289-1.7060547-1.1455078-2.5810547-1.6064453c-4.1103516-1.9296875-9.4121094-1.703125-12.1640625-6.2172852l0.1035156-0.1015625c1.1777344,0.7299805,2.4824219,1.1953125,3.8085938,1.5581055
				c-3.5058594-3.0678711-4.7675781-7.2358398-4.8164063-11.7797852c-1.5644531,4.3408203-2.3964844,8.9951172-5.5488281,12.6420898h0.0019531z"/>
			<path d="M102.0834961,76.2319336c0.9101563,2.7319336,2.5664063,6.3725586,5.8535156,7.0869141l2.0175781,0.6782227c-0.9941406-0.8720703-2.3505859-2.0532227-3.1152344-3.2285156c-1.9746094-0.71875-3.5449219-2.9667969-4.7558594-4.5356445v-0.0009766z"/>
			<path d="M114.2133789,83.7392578c0.7734375,0.3554688,1.671875,0.5717773,2.6123047,0.6230469c1.4306641,0.1191406,2.9257813,0.0742188,4.3183594-0.09375c0.9140625,0.5424805,1.7246094,1.3500977,2.6171875,1.9331055
				c1.2207031,0.7094727,2.4375,1.5629883,3.9746094,1.3344727c-1.5566406-1.5517578-3.1542969-3.2285156-4.9628906-4.2924805c-2.9189453-0.6079102-5.6132813,0.5493164-8.5595703,0.4956055z"/>
			<path d="M96.5688477,96.0927734c-2.9443359,3.4042969-4.4804688,2.2885742-8.2226563,3.8618164c-4.9912109,1.6811523-10.421875,2.3149414-15.8911133,2.8046875c-5.3613281,0.0610352-10.4882813-0.7758789-15.5532227-1.6123047
				c3.6875,1.3735352,7.6469727,2.2983398,11.7543945,2.796875c4.0683594,0.3325195,8.565918,0.730957,12.34375-0.390625c7.2397461-1.4516602,14.300293-3.375,20.3061523-7.8686523c1.5664063-0.8222656,2.1816406-1.8613281,4.4199219-2.2495117l1.5820313-2.8427734
				c-2.6835938,2.8168945-8.3417969,5.262207-10.7382813,5.5004883h-0.0009766z"/>
			<path d="M86.7250977,95.4780273c0.5498047,0.2729492,1.3271484,0.2612305,1.8955078,0.5952148c-1.6191406,0.3706055-3.359375,0.4316406-5.0600586,0.6376953c0.3237305,0.2900391,0.8764648,0.2353516,1.2827148,0.4658203
				c-0.78125,0.3999023-1.8041992,0.3676758-2.7070313,0.5410156c-1.6796875,0.1650391-3.378418,0.2260742-5.0180664,0.4335938c0.7333984,0.2128906,1.5322266,0.2626953,2.3076172,0.3735352l-1.2304688,0.2314453l-10.8701172,0.46875l-3.2954102,0.0024414
				l0.1625977,0.1660156c9.5,1.2954102,19.9516602,1.6416016,27.5874023-3.855957l2.5791016-1.8945313c-2.6035156,0.4609375-5.1484375,1.0664063-7.6328125,1.8349609h-0.0009766z"/>
			<path d="M126.1069336,104.7475586c0.9199219,1.6884766,1.78125,3.4179688,2.9501953,4.9448242c0.1015625-1.737793,0.4287109-3.4526367,0.7314453-5.0454102c-0.4726563,0.28125-0.90625,0.6235352-1.3398438,1.0078125
				c-0.9023438-1.6679688-1.4316406-3.5766602-2.4775391-5.2265625l-0.3955078-1.2319336c0.1025391,1.78125,0.2851563,3.7270508,0.53125,5.5507813v0.0004883z"/>
			<path style="&st1;" d="M91.3959961,105.2890625c-0.109375,0.5107422-0.6679688,0.9741211-0.3261719,1.5727539c-0.3964844,0.5883789-0.6289063,1.3227539-0.9433594,1.9946289L88.6655273,111.4375c-0.5068359,1.2216797,2.2734375,1.4580078,0.6650391,2.5244141
				l0.5419922,2.7075195l-1.1328125,0.7226563c0.4853516,0.3955078,1.1816406,0.3828125,1.6064453,0.796875c0.0068359,1.269043-0.1318359,2.5766602,0.4501953,3.5859375c1.5957031-0.0014648,3.0507813-0.2919922,4.5878906-0.4375
				c3.1679688,0.362793,7.0234375,1.472168,9.9072266-0.234375c0.1455078-0.1625977,0.4130859-0.3012695,0.4560547-0.5263672l-1.0371094-0.6064453c-1.3125,0.3125-2.7666016,0.378418-4.1181641,0.4438477l0.8486328-0.828125
				c-1.265625-0.2197266-2.3847656-0.7236328-3.5673828-1.1054688c-0.578125,0.4023438-1.1357422,0.8461914-1.7333984,1.2070313l-0.1015625-0.1040039l0.5078125-1.3232422c-1.0722656,0.6835938-2.5087891,0.9741211-3.9003906,1.0805664l-0.1015625-0.1035156
				l2.2314453-1.8769531c-1.1669922-0.0336914-2.3505859-0.2949219-3.3671875-0.7758789c0.5351563-0.3017578,1.3115234-0.2094727,1.9072266-0.4291992l2.0351563-0.7539063l0.1601563-1.4716797c-0.8417969,0.2978516-1.6289063,1.0249023-2.6064453,0.6455078
				c0.8076172-0.8300781,2.0419922-1.4086914,2.5263672-2.5078125c0.4775391-2.4296875,0.5087891-4.6503906,1.3730469-6.9111328l3.3818359-3.2236328c-3.2099609,1.456543-5.4619141,2.2485352-8.7900391,3.3554688v0.0009766z"/>
			<path d="M131.5805664,107.2670898c-0.4912109,1.8564453-0.5185547,4.2495117,0.4228516,5.8969727c0.2011719,0.4125977,0.4414063,0.8032227,0.5800781,1.234375l0.1025391,0.0014648l0.5908203-1.609375c-0.7158203-1.7890625-1.4931641-3.578125-1.6962891-5.5234375
				z"/>
			<path style="&st1;" d="M142.4760742,117.1118164l1.6621094-0.3085938c-0.5302734-0.1694336-1.2265625-0.0546875-1.6621094,0.3085938z"/>
			<path style="&st1;" d="M143.1401367,118.203125c0.484375,0.6000977,1.3671875,0.34375,2.0625,0.2705078c-0.5898438-0.2939453-1.3652344-0.4667969-2.0625-0.2705078z"/>
			<path d="M135.347168,20.9233398c-0.3671875-0.0727539-0.5996094-0.4575195-0.5214844-0.8608398c0.0800781-0.4047852,0.4414063-0.6728516,0.8085938-0.6000977c0.3671875,0.0717773,0.5996094,0.4580078,0.5214844,0.8608398
				c-0.0800781,0.4033203-0.4423828,0.671875-0.8085938,0.6000977z"/>
			<path d="M129.3969727,50.8388672l1.2851563-2.5625c-1.4833984-0.8339844-4.4052734-1.9951172-5.7822266-3.137207c1.1425781,2.0390625,2.6328125,4.0825195,4.4970703,5.699707z"/>
			<path d="M129.5073242,46.8344727l0.9375-1.8681641c-1.0820313-0.6083984-3.2109375-1.4545898-4.2158203-2.2866211c0.8330078,1.4873047,1.9208984,2.9750977,3.2783203,4.1547852z"/>
			<path d="M128.8334961,57.1279297c0.2744141,0.4472656,1.3828125,2.2861328,1.9189453,1.1533203c0.5302734-1.28125-1.1025391-2.9321289-1.9326172-4.0180664c-1.7236328-0.6367188-3.0625-1.2929688-3.9082031-1.8930664
				c0.5664063,1.5737305,2.3886719,3.7104492,3.921875,4.7578125z"/>
			<path d="M51.2626953,223.6611328c2.9624023-2.1386719,7.5532227-6.484375,9.7250977-8.9892578c-0.5703125-0.0478516-1.1469727,0.4140625-1.78125,0.5302734l-4.3564453,1.4121094c1.753418-1.6328125,5.4736328-4.5439453,6.4790039-6.7363281
				c-1.3540039,0.5566406-4.1625977,2.3330078-5.59375,2.5429688c1.1977539-1.1914063,3.7060547-3.4628906,4.4570313-4.8632813c-0.1015625-0.0410156-0.0390625-0.1621094-0.0576172-0.2451172c-1.0493164,0.6630859-3.5922852,2.3818359-4.7783203,2.5498047
				c1.1586914-1.3535156,3.2836914-3.9550781,3.6904297-5.6435547c-1.0288086,0.7626953-3.6308594,2.3388672-4.7802734,2.8359375c0.2319336-0.6708984,0.7993164-1.1884766,1.1494141-1.8662109c0.4833984-0.9355469,1.6855469-2.0351563,1.6772461-3.1171875
				c-0.8881836,0.9287109-2.0053711,1.765625-3.1352539,2.4453125c0.4609375-1.1171875,1.3671875-2.0703125,1.5595703-3.3808594c-0.7246094,0.7871094-2.1484375,1.2519531-3.112793,1.6503906l0.112793-0.1220703
				c0.0810547-0.0751953,1.1464844-0.9267578,1.8515625-1.8515625c-0.6665039,0.078125-0.1635742,0.1328125-1.0307617-0.0126953l-0.465332,0.0039063c1.2973633-0.7802734,3.2910156-2.0068359,4.5083008-2.8925781
				c-0.7373047,0.1132813-1.7216797,0.2050781-2.559082,0.1347656c1.6450195-0.8007813,3.3925781-1.4365234,4.8378906-2.6054688c-0.859375-0.0107422-1.8613281,0.0390625-2.6567383-0.2763672c1.6030273-0.5341797,3.184082-1.1298828,4.5078125-2.2607422
				c-1.065918,0.1308594-2.4594727,0.3398438-3.5390625-0.0410156c1.640625-0.4091797,3.1435547-1.1503906,4.4858398-2.2597656c-0.9624023,0.0917969-2.3149414,0.2382813-3.3349609,0.0224609C59,190.5830078,58.671875,190.7021484,58.5297852,190.5166016
				c1.8295898-0.6738281,3.6977539-1.2050781,5.2885742-2.4980469c-0.6962891,0.0957031-1.6572266,0.0214844-2.4970703,0.0332031l-0.1005859-0.1035156c1.9716797-0.6328125,3.9624023-1.140625,5.7749023-2.2050781
				c-0.7954102-0.2128906-1.6962891-0.1621094-2.4501953-0.4570313c1.5830078-0.6152344,3.1650391-1.1923828,4.4882813-2.4042969c-1.0239258,0.1103516-2.1914063,0.2207031-3.2973633,0.3105469l-0.081543-0.1054688
				c1.6040039-0.65625,3.0893555-1.6621094,4.3930664-2.9550781c-0.9414063,0.0087891-1.9272461,0.3671875-2.9492188,0.2109375c1.625-0.7177734,3.2709961-1.5175781,4.6572266-2.7910156c-1.0664063,0.1113281-2.1728516,0.3632813-3.3398438,0.3085938
				l0.0014648-0.1015625c2.203125-1.140625,4.5043945-2.015625,6.4086914-3.8964844c-1.0439453,0.0908203-2.3144531,0.1601563-3.4804688,0.2470703l-0.1015625-0.1025391c1.6499023-1.1679688,3.4418945-2.1708984,4.8115234-3.8125l-3.6494141,0.6328125
				l0.0009766-0.0820313c1.5053711-1.0039063,3.2314453-1.640625,4.4545898-3.0585938c-1.1069336,0.1914063-2.3754883,0.21875-3.5844727,0.3066406l0.0019531-0.1025391c1.9550781-1.0009766,3.8725586-2.2666016,5.4077148-4.0927734
				c-1.0244141,0.1523438-2.0126953,0.6738281-3.0595703,0.9277344c-0.4711914,0.0761719-0.9848633,0.234375-1.4350586,0.2285156c1.4248047-1.1494141,3.078125-2.5214844,4.0380859-4.1074219c-0.0390625-0.1640625,0.0644531-0.265625,0.1064453-0.4082031
				c-1.0068359,0.3974609-2.1367188,0.7734375-3.2055664,1.1503906c1.2001953-1.0703125,2.769043-2.28125,3.7265625-3.7421875c-0.7172852,0.09375-1.3544922,0.3720703-2.0717773,0.4658203c-0.0170898-0.3056641,0.3291016-0.0986328,0.4946289-0.2802734
				c1.3203125-0.90625,2.6992188-1.6464844,3.8989258-2.7988281c-0.7788086,0.1337891-1.762207,0.2871094-2.6420898,0.2148438c1.5639648-0.6777344,3.206543-1.1503906,4.7890625-1.828125c-0.734375-0.2128906-1.6342773-0.2011719-2.4091797-0.4160156
				c1.4140625-0.1679688,2.8066406-0.3359375,4.1425781-0.7285156c-0.8144531-0.4824219-1.878418-0.4121094-2.6083984-0.9726563l2.4189453-0.3613281c-0.2617188-0.4121094-0.6464844-0.7851563-0.96875-1.1972656
				c0.8789063,0.0097656,1.9199219,0.2460938,2.7382813,0.2353516c-0.21875-0.4111328-0.7050781-0.7841797-0.90625-1.2373047c0.9824219-0.0292969,1.9609375,0.2871094,2.984375,0.3203125l-0.5830078-0.9892578
				c0.7568359,0.0087891,1.5537109,0.2236328,2.3720703,0.2333984l-0.3994141-0.9472656c4.9443359-0.9863281,10.2060547-1.3144531,15.4414063-0.9882813l11.8789063,0.8125c10.3232422,0.8964844,19.9951172,3.3818359,28.6767578,8.1074219
				c1.9667969,1.6582031,4.6914063,3.0625,5.6445313,5.609375c-0.8916016-4.2460938-4.1064453-7.5976563-7.2402344-10.8886719c-6.7421875-6.2578125-14.9140625-9.1337891-23.1933594-11.7050781c-3.2988281-1.3886719-6.8691406-2.2070313-10.3798828-3.0664063
				l-11.2666016-2.5039063c-5.6542969-1.2099609-11.6367188-0.5429688-17.1918945,0.2929688l-3.0166016,0.7011719c0.2666016-1.8164063,1.6547852-3.2949219,2.2680664-5.0273438l-0.9692383-4.6767578l1.8452148-2.0458984l0.0625-1.9008789
				c-0.4448242-0.5170898-0.578125-1.2553711-1.0039063-1.690918c-0.4775391,0.6298828-0.4321289,2.0205078-1.5556641,1.84375l-0.0805664-0.1435547c-0.0473633-1.125,0.1503906-2.3505859-0.1240234-3.3774414l-1.15625-0.9130859l-6.5366211,0.7641602
				l-5.0424805-1.0410156c-1.9492188,0.46875-4.5004883-0.0732422-5.5288086,2.1049805c-0.390625,0.2216797-0.8168945-0.0092773-1.2270508-0.0141602c-0.4477539-0.1889648-0.8540039-0.4599609-1.3237305-0.5673828l-0.0029297,0.2456055l1.2421875,2.3266602
				c0.7568359,0.0078125,0.5014648,0.84375,0.6801758,1.296875c0.5922852,0.0888672,1.0361328,0.7075195,1.7143555,0.4482422l1.4570313,1.3896484c1.3110352-0.1289063,2.5874023-0.8100586,3.9335938-0.3867188
				c0.465332,0.375,1.6137695,0.1835938,1.3984375,1.1425781l0.7304688,0.5410156c0.0131836,0.5722656,0.0678711,1.2089844,0.6787109,1.4394531l0.1416016,0.1464844c-0.190918,2.3085938-1.1743164,4.2617188-1.8334961,6.3613281
				c-1.6611328,3.8496094-4.909668,7.0039063-7.4453125,10.4746094c-4.0234375,1.0371094-7.769043,2.8359375-11.2939453,5.1269531c-0.5673828-4.0566406-2.984375-7.359375-4.7851563-10.8994141c-0.1743164-0.8408203-0.0610352-1.8427734-0.0717773-2.6611328
				c-0.8984375-1.9746094-2.0229492-3.8496094-3.1259766-5.7246094c-0.0874023-1.2695313,0.3330078-2.2871094,0.8149414-3.2851563l-0.4130859-1.3759766l-2.1533203-1.4970703c-0.046875,0.6533203,0.2509766,1.3730469,0.2827148,2.1113281
				c-0.390625,0.1992188-0.7797852,0.1953125-0.8959961-0.3183594c-0.1728516-0.9833984-1.5322266-1.9819336-0.4570313-2.9926758c0.0571289-1.3696289-0.1953125-2.6210938-0.2822266-3.9321289l-0.6489258-0.4580078
				c-1.6796875,0.1855469-3.300293,0.5351563-4.9609375,0.7822266c-2.4726563-0.3564453-4.9624023-0.7939453-7.5-0.8642578L24.3188477,117.5l-0.6513672,1.4038086l-1.1845703-0.1567383C22.0361328,118.4345703,21.6323242,118,21.1640625,117.75
				c0.2578125,0.7392578-0.0629883,1.9633789,1.0175781,2.3227539l0.1811523,0.1865234c-1.0092773,0.6235352-1.6518555-0.46875-2.4453125-0.8061523c0.0341797,0.5532227,0.1904297,1.1689453,0.3271484,1.7236328l1.0756836,0.7890625
				c-0.0576172,1.5136719,1.7211914,1.5341797,2.425293,2.6894531c0.9326172,0.7050781,1.8413086,0.0195313,2.7045898-0.3583984c0.9814453,0.0517578,2.0478516-0.1201172,2.8408203,0.3798828c-0.0268555,0.5527344,0.1308594,0.9638672,0.6186523,1.2763672
				l0.0537109,0.7373047c1.815918,2.2089844,3.2617188,4.5996094,3.1455078,7.6064453c0.0976563,3.9716797,0.4819336,7.84375,1.3813477,11.4970703c0.6254883,2.5234375,1.1694336,5.0878906,1.8769531,7.5917969
				c-0.1357422,1.0830078-0.3544922,2.3085938-0.0795898,3.375c1.2143555,1.1611328,2.597168,1.9140625,3.8955078,2.8496094c-1.237793,2.6660156-2.4150391,5.3535156-3.2470703,8.2089844l-1.0991211,3.1796875
				c0.4648438,4.0556641,0.7822266,8.3994141,0.2841797,12.5878906C35.875,183.6865234,33.9375,184.3896484,33.6376953,184.40625c-0.5297852-0.7353516-0.90625-1.6005859-0.6367188-2.5859375c0.3867188,0.0048828,0.7905273,0.3525391,1.2197266,0.4658203
				c-0.2744141-0.5605469-0.6972656-1.0820313-0.6035156-1.8125c0.300293,0.0683594,0.4672852,0.5214844,0.7226563,0.6757813l-0.1958008-1.59375c-0.5751953-0.4570313-1.3696289-0.4453125-2.144043-0.4316406l0.2080078-1.2441406
				c0.4296875,0.0898438,0.8330078,0.4394531,1.2382813,0.7451172c0.1337891-0.4287109-0.2055664-0.796875-0.3100586-1.1865234l0.5141602,0.1308594c-0.1210938-0.625-0.6064453-1.3984375-0.9438477-1.9394531l-1.2407227-0.4882813l-2.484375,1.21875
				c-0.6796875,1.2167969-0.8256836,2.6542969-1.1220703,4.046875c0.4414063,0.9082031,1.206543,1.6699219,1.8203125,2.4921875l-0.2324219,1.5019531l-1.3486328,1.4238281c0.4624023,0.9082031,0.1201172,2.6230469,1.7329102,2.4482422l5.8920898-0.3330078
				c0.21875,0.4736328-0.0327148,1.125,0.1860352,1.5761719c0.5732422,1.7070313,0.6748047,3.6113281,1.4125977,5.2773438c-1.1328125,2.4414063-0.2207031,6.4570313-3.3847656,8.2773438c-2.1289063,1.25-2.3417969,1.8828125-4.8935547,1.5527344
				c-1.3779297-0.1787109-4.4169922-1.0292969-5.8295898-0.6367188c-1.2954102,0.8222656-1.9267578,1.1875-3.0595703,2.1533203c-0.1342773,0.53125-1.2436523,0.6796875-1.3442383,1.3525391c0.5717773,0.0068359,2.2412109,0.3574219,2.559082,1.1162109
				l0.4506836,0.0673828l1.2861328-0.8320313l0.328125,1.0615234c0.4921875-0.2802734,0.5820313-0.3359375,1.0756836-0.6982422c0.1791992,0.4716797,0.2133789,0.8496094,0.3305664,1.3623047c0.4111328-0.2607422,0.7548828,0.0986328,1.2250977-0.1220703
				l0.293457,0.5205078c0.390625-0.2412109,1.1455078-0.5732422,1.5688477-0.7822266c0.2006836,0.2890625,0.0126953,0.7148438,0.1313477,1.0234375c0.4716797-0.1992188,0.8632813-0.5625,1.3349609-0.7617188
				c0.1196289,0.2470703,0.4277344,0.8886719,0.4648438,1.1757813c0.2470703-0.140625,0.6962891-0.3974609,1.065918-0.515625c0.1811523,0.1855469-0.8979492,0.3320313-0.7783203,0.5390625l0.953125-0.3925781l0.1928711,1.0234375l1.2431641-0.4277344
				c0.0673828,0.6796875-0.1469727-1.328125-0.0166016-0.4707031c-0.2436523,0.0507813-0.3691406,0.5703125-0.8178711,0.6484375l-0.6264648-1.7207031c-0.1572266-0.0019531-1.0361328,1.359375-0.9365234,0.9140625l-0.1948242-0.5371094
				c-0.0297852-0.0751953-0.2055664-0.3085938-0.3754883-1.3066406c-0.8056641,0.5429688-0.5869141,0.4511719-1.3789063,1.0517578c-0.1972656-0.828125-0.1391602-0.7900391-0.1142578-1.2451172l-0.1733398,0.0332031
				c-0.6103516,0.5322266-1.0717773,0.46875-1.7319336,1.0234375c-0.0859375-0.3613281,0.0708008-0.984375-0.0830078-1.3027344l-1.2485352,0.6396484c-0.1523438-0.4970703-0.0507813-0.7734375-0.1547852-1.2587891l-1.3115234,1.2890625
				c-0.3779297-0.4785156-0.1352539-1.2089844-0.2788086-1.8349609c-0.5166016,0.4296875-1.0444336,1.1875-1.5024414,1.7236328c-0.1279297-0.6328125,0.2631836-1.3066406,0.0209961-1.8955078c-0.4521484,0.1533203-1.0107422,0.3681641-1.4418945,0.5888672
				c-0.1757813-0.4082031,0.9628906-0.6210938,0.8100586-1.0292969c-2.0102539-0.3105469-2.5205078-0.2236328-3.0639648,0.671875c0.4277344-0.6767578-0.7578125,2.5917969-1.269043,3.8261719l-0.0063477,0.6542969
				c0.644043,1.6054688,0.6547852,4.4082031,0.9580078,4.7958984c1.96875,2.3896484,8.6328125,2.4306641,11.8110352,5.5439453c-0.4267578,1.6503906,0.71875,2.9316406,1.8671875,3.8886719c1.7060547,1.09375,3.9482422,0.4335938,5.6748047-0.1484375
				c2.015625,0.3017578,3.8994141,0.9042969,5.8706055,1.3564453c4.34375,0.2138672,8.4394531-3.0888672,8.4394531-3.0888672h0.0009766z"/>
			<path style="&st1;" d="M38.5268555,222.9404297l1.4038086-0.6074219c0.1889648,0.3242188-0.2226563,0.6640625-0.3764648,0.984375c-0.1108398,0.234375-0.4555664,0.3808594-0.5244141,0.6601563c1.8671875,0.1943359,3.6640625,0.9882813,5.6235352,0.5800781
				c2.0947266-0.4355469,3.2827148-1.2851563,4.4501953-2.2890625c0.5957031-0.3613281,0.8686523-0.8398438,1.4453125-1.2636719c0.6953125-0.6777344,0.9443359-1.9707031,1.1132813-2.2236328c-1.0336914,0.5009766-2.1010742,0.4912109-2.8071289,0.7646484
				c2.6147461-1.7880859,2.9169922-5.0292969,2.0297852-7.671875L50.925293,211.8125c0.934082,0.4814453,1.25,1.4443359,1.5454102,2.2841797c0.1499023-0.5703125,0.137207-1.2841797,0.2265625-1.9169922c0.3027344,0.2490234,0.4824219,0.6181641,0.6621094,0.9462891
				c0.15625-2.8535156-1.3867188-5.0917969-3.2436523-7.2421875c-1.2436523-1.4394531,0.9780273-2.5546875,0.3447266-4.4121094l-2.7299805,0.2929688c-0.3452148,0.1464844-0.2382813,0.0947266-0.2382813,0.0947266
				c0.6171875-1.3740234,4.1923828-2.5771484,4.8496094-3.3779297c-0.2026367-0.1464844-3.3432617,0.9785156-4.5009766,1.2324219l4.9345703-3.3310547c-0.347168-0.0849609-1.6533203,0.0322266-2.3969727,0.1787109
				c0.7250977-0.6875,3.2148438-1.6503906,3.8789063-2.4414063l-2.3212891,0.4121094l3.7631836-3.109375c-0.1264648-1.515625,0.265625-2.0214844,1.4433594-2.9902344c2.0078125-1.9199219,4.4575195-3.1816406,5.9980469-5.5175781
				c1.0283203-2.1972656,1.8320313-4.5,3.0839844-6.59375c-1.5996094,0.3300781-3.0820313,1.109375-4.8789063,0.7636719c-4.9970703-1.4296875-8.8330078-2.3740234-11.5517578-6.0898438c-1.2358398-1.0576172-2-2.3544922-3.3413086-3.1074219l-4.4399414-5.3925781
				l-0.1796875-0.3496094c-1.3188477,2.5429688,0.0498047,7.0107422,0.0751953,10.1621094c-0.0375977,0.1816406-1.237793-1.5810547-1.3393555-1.5410156c-0.6303711-2.2050781-1.0546875-3.0527344-0.7592773-0.5605469l1.1640625,4.9179688l-1.8500977-2.4628906
				c-0.3422852-0.515625-0.5708008-0.4628906-0.9936523-1c-0.8266602,0.6445313,0.0483398,1.5546875,0.0795898,2.3935547c0.3549805,1.2529297,1.0893555,0.8896484,1.9296875,2.4599609l2.6186523,3.3085938l-3.8740234-1.3378906
				c0.2749023,1.046875-0.0263672-0.3681641,0.4521484,0.8632813l3.5097656,4.1328125l-4.5410156-1.5595703c0.0488281,1.1044922,0.0493164-0.1923828,0.3862305,0.7939453c0.4047852,0.3730469,1.4311523,0.1191406,1.421875,0.9570313l0.4233398,0.4980469
				c0.4155273,1.2109375,0.9541016,2.4453125,1.0009766,3.7353516l-0.4697266,1.6318359c-0.5498047,1.5878906-1.7705078,0.9804688-2.7172852,1.3378906c0.3500977,1.6621094,1.046875,3.2255859,1.0283203,4.9648438
				c-0.6289063,1.3007813-1.5454102,3.5-1.3237305,4.7060547l-0.6777344,1.1298828c0.9692383-0.2890625,1.9404297-0.7304688,2.6591797-1.5585938c0.2529297,0.453125-0.0751953,1.0302734-0.2314453,1.4785156
				c-0.4614258,0.9199219-1.4560547,1.4453125-2.2358398,1.9960938l1.7329102,0.6416016c0.9296875,1.3857422,2.6142578,2.4794922,2.7451172,4.1572266l-0.4067383-0.1113281c-1.6362305-1.6308594-3.9047852-2.9042969-6.1088867-2.8886719
				c1.503418,0.046875-6.2011719,1.3427734-5.7114258,1.9599609c-0.8852539-1.1123047-3.4008789-1.46875-5.2524414-1.9814453c-0.8203125,0.3378906-1.1899414,0.2734375-1.7880859,0.8574219c0.2817383,0.2695313,0.7084961,0.4785156,1.1147461,0.6054688
				c2.4233398,0.5185547,8.1279297,1.3554688,9.4638672,3.5839844c0.1782227-0.9882813-0.7915039-1.7451172-1.8701172-2.5234375l2.2451172,0.1894531c4.015625,1.5654297,3.7006836,4.6269531,2.9916992,7.5576172l-0.4243164-2.3935547l-0.8374023-1.2734375
				c-1.3266602,2.65625-0.578125,2.2949219,2.5395508,5.6201172l-2.2568359-0.7099609c-1.0532227-0.7402344-2.7875977-2.0244141-4.3110352-2.8994141c-4.1015625-2.3271484-6.1547852-3.9033203-11.2080078-3.984375l-1.5717773-0.2548828
				c-0.9521484,2.8671875,1.315918,5.3496094,0.4658203,1.4570313c0.8725586,0.9306641,1.7241211,1.7900391,1.5834961,2.3066406c0.3110352,0.4101563-1.1157227,1.5488281-0.9633789,2.0253906c1.5288086,1.3652344,7.8579102,1.8105469,11.4453125,4.9355469
				c0.0703125-0.5566406-1.6826172-1.8994141-2-2.3759766c3.3842773-0.2099609,5.4345703,0.7001953,5.8525391,1.7509766c0.0834961,0.1757813,0.0317383,0.9726563-0.3149414,1.2460938c-0.4755859,0.2753906-0.9311523,0.6777344-1.4907227,0.7578125
				c0.9155273,0.6542969,1.9804688-0.3417969,2.737793-0.8066406c0.5512695-1.0449219-0.4501953-2.125-0.612793-2.9433594c0.8369141,0.1601563,2.0268555,1.5195313,2.2094727,2.4023438c1.2485352-0.1992188,2.4077148-0.1015625,3.4091797,0.5546875
				c-0.840332,0.2265625-1.7045898,0.5839844-2.5874023,0.7871094c-2.3061523,0.6181641-4.6333008,3.0839844-7.0844727,1.3808594l1.1665039,1.3007813c2.2119141,0.1113281,4.0712891-0.984375,6.0556641-1.5839844z"/>
			<path d="M46.1660156,221.5087891c0.5888672-0.7441406,1.1777344-1.4902344,1.2749023-2.4550781l-0.1484375-0.1542969c-0.3920898,0.5136719-0.9995117,0.9570313-1.5620117,1.2724609c-0.0522461-1.0087891-0.7724609-1.9638672-1.6904297-2.4052734
				l-0.1508789-0.0009766c0.2456055,1.0556641,0.1875,2.3662109-0.1889648,3.3505859c-0.6513672,0.59375-1.5351563,0.8613281-2.0795898,1.4785156c1.4575195,0.2539063,2.8154297-0.0957031,4.0249023-0.6181641l0.5205078-0.4677734z"/>
			<path style="&st2;" d="M31.534668,219.2998047c0.6333008,0.7675781,1.5092773,1.3642578,2.574707,1.2167969c-0.0639648-0.9853516-1.4716797-1.4863281-2.574707-1.2167969z"/>
			<path d="M40.0800781,218.7255859c0.9248047-0.1171875,1.7866211-0.3242188,2.6499023-0.5927734c-0.4047852-0.3271484-0.8984375-0.4189453-1.28125-0.7236328c1.1225586-0.4804688,2.3076172-0.8105469,3.2641602-1.7246094l-0.2143555-0.109375
				c-1.8310547,0.4716797-4.0234375,0.5546875-5.9755859,0.2529297l-0.1088867,0.0849609l1.2246094,1.9257813l-1.7026367,0.453125c0.9580078,0.7851563,2.0444336,1.5488281,3.265625,1.8417969c-0.2094727-0.4746094-0.7407227-0.9316406-1.121582-1.4082031z"/>
			<path d="M33.2509766,217.0869141c-0.9228516-0.1171875-1.9326172-0.0859375-2.7944336,0.1191406c1.4750977,0.640625,3.3037109,0.4033203,4.5146484,1.5986328c-0.2504883-0.6474609-0.7758789-1.6845703-1.7202148-1.7177734z"/>
			<path d="M46.6533203,211.3232422c-0.4169922-1.0996094,0.7172852-2.5263672-0.3032227-3.5039063c-0.8701172-0.890625-1.9155273-1.6132813-2.9179688-2.2480469l0.1040039,0.3457031c0.9125977,0.9345703,1.7607422,1.9746094,2.21875,3.1191406
				c-1.0263672-0.2910156-2.1181641-0.7128906-3.2763672-0.8105469c1.3959961,1.8212891,3.8686523,3.5039063,3.1083984,6.1367188c-0.0263672,0.4296875-0.5883789,0.7890625-0.4208984,1.1767578c1.3012695-1.0791016,1.7905273-2.6005859,1.4873047-4.2158203z"/>
			<path style="&st2;" d="M28.7910156,210.7939453c0.1147461-0.2246094,0.0512695-0.5410156,0.0761719-0.8105469c-0.2714844,0.1542969-0.4560547,0.46875-0.7294922,0.6015625c0.0888672,0.1572266,0.4501953,0.1386719,0.6533203,0.2089844z"/>
			<path style="&st2;" d="M27.0595703,209.2099609l-0.5478516,0.5791016c0.1337891,0.0927734,0.3120117,0.2294922,0.5390625,0.1640625l0.0087891-0.7431641z"/>
			<path style="&st2;" d="M25.6699219,208.6865234c-0.1352539-0.0039063-0.4135742,0.6308594-0.5493164,0.6289063l0.4702148,0.2392578c0.1577148,0.0009766,0.0322266-0.7578125,0.0791016-0.8681641z"/>
			<path style="&st2;" d="M24.2519531,208.4794922l0.1279297-0.359375c-0.3154297,0.0410156-0.4467773,0.6484375-0.6298828,0.8261719c0.534668,0.0761719,0.5620117,0.2167969,0.5019531-0.4667969z"/>
			<path style="&st2;" d="M22.7050781,207.7470703l-0.519043,0.9804688l0.534668,0.0917969l-0.015625-1.0722656z"/>
			<path style="&st2;" d="M21.2602539,207.9873047l-0.6254883,0.5205078c0.668457,0.2158203,0.7109375,0.3076172,0.6254883-0.5205078z"/>
			<path style="&st2;" d="M19.7094727,208.4541016c-0.1098633-0.2714844-0.0375977-0.609375-0.0351563-0.9023438c-0.1381836,0.2919922-0.4794922,0.5136719-0.5053711,0.8515625c0.15625,0.1132813,0.3603516,0.0488281,0.5405273,0.0507813z"/>
			<path d="M38.7207031,196.8173828c-0.2285156-0.3710938-0.2612305-0.8339844-0.4892578-1.2050781c-0.4375,1.0595703-0.3154297,2.2988281,0.3701172,3.1953125c1.1362305,0.4189453,2.2329102,0.8574219,3.2299805,1.5644531
				c-0.4682617-1.3007813-1.84375-2.6894531-3.1108398-3.5546875z"/>
			<path d="M39.9472656,185.9619141l0.0668945,3.0488281c1.484375,0.8359375,3.0522461,1.5097656,4.4296875,2.6503906c-1.1420898-2.0390625-2.6328125-4.0830078-4.496582-5.6992188z"/>
			<path style="&st1;" d="M39.4609375,188.5380859c-0.1699219-1.1083984-0.2792969-2.2558594-0.8012695-3.203125c-1.4296875-0.1601563-4.7861328,0.9863281-6.0234375,0.1777344l-0.1928711-0.0019531c-0.5688477-0.9511719-0.7495117-2.1152344-0.9956055-3.1484375
				c-0.2915039,1.15625,0.2070313,2.6660156-1.0693359,3.3828125l0.184082,0.7324219l6.0800781-0.1425781c1.387207,0.4257813,0.8764648,3.8769531,2.8183594,2.203125z"/>
			<path d="M61.8095703,182.9423828c0.4619141-0.9765625,0.7397461-2.0175781,1.1201172-3.0361328l-0.1435547-0.0009766c-1.4951172,1.9462891-3.4560547,3.4785156-5.2172852,5.2382813l-1.7529297,3.0292969
				c2.043457-1.6337891,4.0297852-3.4316406,5.9936523-5.2304688z"/>
			<path d="M47.8227539,187.4052734c0.9428711-1.8105469,2.3725586-3.4101563,2.8666992-5.4296875c2.7124023-2.7109375,6.0996094-3.7568359,9.527832-4.6992188c0.0405273,0.0410156,0.0610352,0.1230469,0.1420898,0.1035156l0.1035156-0.1015625l-0.2041016-0.0019531
				l0.0009766-0.1035156c-3.003418-0.4023438-6.1987305-0.0712891-8.5141602,1.8671875c-0.84375,0.5224609-1.550293,1.4140625-2.7124023,1.09375l-0.3486328,0.0566406c0.3999023,2.5214844-0.0791016,5.0351563-0.9638672,7.2128906l0.1020508,0.0019531z"/>
			<path style="&st1;" d="M30.7167969,178.7021484l0.1694336-1.609375c-0.6108398,0.7871094-1.3295898,1.5527344-1.1264648,2.6289063c0.2397461-0.3398438,0.4609375-0.875,0.9570313-1.0195313z"/>
			<path style="&st1;" d="M67.0390625,173.078125c1.1142578-0.7451172,1.128418-2.0341797,1.4082031-3.1767578c0.1582031-4.9296875-0.9550781-9.4863281-4.4550781-13.0039063c-3.9599609-2.6035156-8.6152344-3.5175781-13.5214844-3.9003906l-4.2734375-0.2324219
				l-0.1425781-0.1464844c0.8671875-0.6445313,1.8535156-0.9609375,2.8198242-1.359375c-1.5288086-0.5292969-3.078125-1.0166016-4.6484375-1.4648438c1.0927734-0.6835938,2.40625-1.0566406,3.7993164-1.1445313
				c-0.0141602-4.1113281-3.0507813-7.0117188-4.359375-10.609375c-0.3359375-1.0253906-0.28125-2.2119141-0.453125-3.2978516c-1.0869141-1.5888672-1.9267578-3.2763672-2.7250977-4.984375c-0.2172852-0.7802734,0.5317383-1.8134766-0.4663086-2.2138672
				c0.1254883-0.2441406,0.1699219-0.53125,0.2949219-0.7753906c-1.0273438,0.3769531-1.609375-0.5498047-2.0927734-1.2519531l-1.0185547-2.2207031l0.2294922-2.1660156l-0.5742188-1.6235352c-0.6552734,0.0742188-1.3540039,0.2905273-2.0117188,0.5083008
				c-2.6733398-0.6240234-5.3671875-1.3300781-8.2939453-1.2207031c-0.2285156,0.4262695-0.4589844,0.8544922-0.8530273,1.2167969c0.9360352,0.4609375,2.1445313,0.4550781,3.1835938,0.7329102c0.9150391,0.5625,1.7460938,1.269043,2.5976563,1.9936523
				c-0.512207,0.015625-1.2280273-0.0957031-1.7202148,0.0625c0.4248047,0.4345703,1.265625,0.3017578,1.5014648,1.0605469l1.8393555-1.5136719c1.0224609,0.0126953,1.9897461-0.3857422,2.9887695-0.109375
				c-1.340332,0.8867188-2.621582,1.9970703-3.7617188,3.2539063c1.7197266-0.0839844,2.7475586-2.2207031,4.6884766-1.9521484l0.0405273,0.0400391c-1.2836914,1.1933594-2.3623047,2.5722656-3.4829102,3.8896484
				c0.7592773,1.5634766,1.6635742,3.0693359,1.8061523,4.890625c-0.4667969,3.1669922,0.4619141,6.0224609,0.7963867,8.9931641c0.6669922,4.2832031,2.1772461,8.2304688,2.8442383,12.4941406l0.0214844,1.71875l1.074707,0.8105469
				c0.1259766-0.2832031,0.1713867-0.5917969,0.3569336-0.8339844c1.5180664,3.2705078,4.2001953,6.6582031,7.4082031,8.78125c-0.5361328-1.3964844-1.5439453-2.6777344-2.6987305-3.7138672c4.3867188,1.1767578,6.8798828,6.7099609,11.0532227,8.5576172
				c2.15625,1.1503906,4.4375,2.0761719,6.8876953,2.5361328c-0.6987305,0.2783203-1.5195313,0.453125-2.3188477,0.5654297c1.28125,0.7314453,2.8544922,0.9335938,4.512207,0.8496094l0.1015625,0.0839844
				c-1.234375,0.5390625-2.5664063,0.7675781-4.0390625,0.6894531c1.1220703,0.2802734,2.1806641,0.7636719,3.4316406,0.5927734l2.2246094-1.40625z"/>
			<path style="&st1;" d="M76.144043,153.6005859c2.5043945-2.4902344,4.9975586-5.6943359,8.2832031-6.6787109c3.1074219-1.5615234,6.453125-2.4423828,9.9980469-2.8935547c11.7910156-0.2939453,23.3808594,0.7402344,34.4082031,2.6679688
				c4.5917969,1.0976563,9.015625,2.5800781,13.2910156,4.4082031c-3.3681641-2.4121094-6.9960938-5.4404297-11.0527344-6.8388672c-6.8847656-2.8203125-13.8515625-5.4169922-21.2841797-6.875l-10.2470703-2.0830078
				c-4.6210938-0.3388672-9.3710938-0.1484375-13.7597656,0.5800781c-7.0307617,1.1464844-13.5649414,3.5058594-19.6220703,7.078125c-2.8295898,2.2597656-6.3349609,2.7919922-9.4829102,4.2695313l-1.7285156,0.859375
				c0.6875,0.7460938,1.7060547,1.1464844,2.5800781,1.6074219c4.1118164,1.9296875,9.4135742,1.703125,12.1650391,6.2167969l-0.1030273,0.1015625c-1.1782227-0.7304688-2.4829102-1.1953125-3.8095703-1.5585938
				c3.5053711,3.0683594,4.7670898,7.2363281,4.8173828,11.7802734c1.5639648-4.3408203,2.3950195-8.9951172,5.5473633-12.6416016H76.144043z"/>
			<path d="M66.3071289,163.7978516c-0.9101563-2.7304688-2.5664063-6.3710938-5.8520508-7.0859375l-2.019043-0.6777344c0.9936523,0.8720703,2.3515625,2.0527344,3.1157227,3.2285156c1.9750977,0.71875,3.5454102,2.9667969,4.7553711,4.5351563z"/>
			<path d="M54.1777344,156.2919922c-0.7734375-0.3554688-1.6713867-0.5722656-2.6118164-0.6230469c-1.4311523-0.1191406-2.925293-0.0742188-4.3188477,0.09375c-0.9150391-0.5429688-1.7250977-1.3496094-2.6181641-1.9335938
				c-1.2192383-0.7089844-2.4375-1.5625-3.9741211-1.3339844c1.5581055,1.5517578,3.1547852,3.2285156,4.9633789,4.2929688c2.9194336,0.6074219,5.6123047-0.5488281,8.5595703-0.4960938z"/>
			<path d="M71.8222656,143.9384766c2.9443359-3.4042969,4.480957-2.2890625,8.2226563-3.8613281c4.9916992-1.6816406,10.4213867-2.3144531,15.8911133-2.8046875c5.3623047-0.0615234,10.4882813,0.7753906,15.5537109,1.6113281
				c-3.6875-1.3730469-7.6474609-2.2978516-11.7539063-2.796875c-4.0693359-0.3320313-8.5664063-0.7304688-12.34375,0.390625c-7.2402344,1.4521484-14.3022461,3.375-20.3076172,7.8691406c-1.5654297,0.8222656-2.1811523,1.8613281-4.4194336,2.2480469
				l-1.5830078,2.84375c2.6835938-2.8164063,8.3422852-5.2617188,10.7402344-5.5z"/>
			<path d="M81.6660156,144.5537109c-0.550293-0.2734375-1.3276367-0.2617188-1.8964844-0.5957031c1.6210938-0.3710938,3.3603516-0.4316406,5.0610352-0.6376953c-0.3232422-0.2890625-0.8759766-0.234375-1.2836914-0.4658203
				c0.7827148-0.4003906,1.8041992-0.3691406,2.7084961-0.5410156c1.6796875-0.1650391,3.3789063-0.2265625,5.0175781-0.4335938c-0.734375-0.2128906-1.5322266-0.2626953-2.3085938-0.3730469l1.2304688-0.2324219l10.8710938-0.46875l3.2949219-0.0009766
				l-0.1621094-0.1669922c-9.5-1.2949219-19.9511719-1.6425781-27.5874023,3.8554688l-2.5791016,1.8945313c2.6040039-0.4609375,5.1484375-1.0664063,7.6337891-1.8339844z"/>
			<path d="M42.284668,135.2841797c-0.9213867-1.6894531-1.78125-3.4179688-2.9506836-4.9453125c-0.1015625,1.7382813-0.4282227,3.453125-0.7324219,5.0449219c0.4736328-0.28125,0.9082031-0.6230469,1.3408203-1.0078125
				c0.9013672,1.6699219,1.4321289,3.5771484,2.4775391,5.2265625l0.3950195,1.2324219c-0.1020508-1.78125-0.2851563-3.7265625-0.5302734-5.5507813z"/>
			<path style="&st1;" d="M76.9956055,134.7421875c0.109375-0.5107422,0.6669922-0.9736328,0.3256836-1.5712891c0.3959961-0.5898438,0.6289063-1.3242188,0.9428711-1.9960938l1.4624023-2.5810547c0.5063477-1.2216797-2.2749023-1.4580078-0.6660156-2.5234375
				l-0.5415039-2.7099609l1.1328125-0.7207031c-0.4858398-0.3964844-1.1821289-0.3828125-1.6064453-0.7973633c-0.0068359-1.269043,0.1313477-2.5766602-0.449707-3.5859375c-1.597168,0.0024414-3.0532227,0.2919922-4.5893555,0.4379883
				c-3.1669922-0.3632813-7.0224609-1.4726563-9.90625,0.2338867c-0.1450195,0.1616211-0.4130859,0.3022461-0.4560547,0.5263672l1.0356445,0.6064453c1.3125-0.3125,2.7675781-0.378418,4.1191406-0.4438477l-0.8496094,0.828125
				c1.2666016,0.21875,2.3862305,0.7236328,3.5683594,1.1044922c0.578125-0.4013672,1.1357422-0.8452148,1.7333984-1.2060547l0.1005859,0.1040039l-0.5058594,1.3242188c1.0717773-0.6845703,2.5078125-0.9750977,3.8999023-1.081543l0.1015625,0.1035156
				l-2.2319336,1.8779297c1.1660156,0.0322266,2.3496094,0.2939453,3.3671875,0.7744141c-0.5351563,0.3027344-1.3120117,0.2099609-1.9072266,0.4287109l-2.0351563,0.7548828l-0.1601563,1.4716797c0.8422852-0.2978516,1.6279297-1.0244141,2.6064453-0.6455078
				c-0.8081055,0.8300781-2.0424805,1.4082031-2.5253906,2.5078125c-0.4785156,2.4296875-0.5092773,4.6503906-1.375,6.9111328l-3.3808594,3.2236328c3.2089844-1.4570313,5.4624023-2.2480469,8.7905273-3.3554688v-0.0009766z"/>
			<path d="M36.8105469,132.7646484c0.4912109-1.8574219,0.5195313-4.2490234-0.4228516-5.8974609c-0.2006836-0.4130859-0.4423828-0.8037109-0.5795898-1.234375l-0.1030273-0.0009766l-0.5917969,1.609375c0.7167969,1.7890625,1.4941406,3.578125,1.6972656,5.5234375
				z"/>
			<path style="&st1;" d="M25.9140625,122.9189453l-1.6606445,0.3085938c0.5297852,0.1708984,1.2265625,0.0546875,1.6606445-0.3085938z"/>
			<path style="&st1;" d="M25.2509766,121.828125c-0.4833984-0.6000977-1.3662109-0.34375-2.0634766-0.2705078c0.5898438,0.2939453,1.3666992,0.4672852,2.0634766,0.2705078z"/>
			<path d="M33.0439453,219.1083984c0.3671875,0.0722656,0.6000977,0.4570313,0.5209961,0.8603516c-0.0795898,0.4052734-0.4414063,0.671875-0.8076172,0.6005859c-0.3671875-0.0722656-0.6000977-0.4589844-0.5209961-0.8613281
				c0.0795898-0.4033203,0.4414063-0.671875,0.8076172-0.5996094z"/>
			<path d="M38.9941406,189.1923828l-1.2851563,2.5625c1.4833984,0.8339844,4.4038086,1.9951172,5.7817383,3.1367188c-1.1420898-2.0390625-2.6328125-4.0820313-4.496582-5.6992188z"/>
			<path d="M38.8828125,193.1962891l-0.9355469,1.8671875c1.0810547,0.609375,3.2099609,1.4570313,4.2148438,2.2880859c-0.8339844-1.4873047-1.9199219-2.9755859-3.2792969-4.1552734z"/>
			<path d="M39.5581055,182.9033203c-0.2749023-0.4472656-1.3828125-2.2861328-1.9194336-1.1533203c-0.5297852,1.28125,1.1030273,2.9306641,1.9316406,4.0166016c1.7250977,0.6386719,3.0625,1.2949219,3.909668,1.8945313
				c-0.5664063-1.5742188-2.3891602-3.7089844-3.921875-4.7578125z"/>
		</g>
	</g>
</svg>
