<?xml version="1.0" encoding="utf-8"?>
<!-- Generator: Adobe Illustrator 9.0, SVG Export Plug-In  -->
<!DOCTYPE svg PUBLIC "-//W3C//DTD SVG 20000303 Stylable//EN"   "http://www.w3.org/TR/2000/03/WD-SVG-20000303/DTD/svg-20000303-stylable.dtd" [
	<!ENTITY st0 "fill-rule:nonzero;clip-rule:nonzero;fill:#D11209;stroke:#D11209;stroke-width:0.1040067;stroke-miterlimit:4;">
	<!ENTITY st1 "fill-rule:evenodd;clip-rule:evenodd;stroke-miterlimit:10;">
	<!ENTITY st2 "fill:none;stroke:none;">
	<!ENTITY st3 "fill:#FFFFFF;stroke:#000000;stroke-width:0.5;">
]>
<!-- This set of SVG files is a complete cards game with figures, numbers	-->
<!--    and backs of cards completely designed in SVG.				-->
<!--    									-->
<!--    Copyright (C) 2004 David Bellot						-->
<!--										-->
<!--    This library is free software; you can redistribute it and/or		-->
<!--    modify it under the terms of the GNU Lesser General Public		-->
<!--    License as published by the Free Software Foundation; either		-->
<!--    version 2 of the License, or (at your option) any later version		-->
<!--										-->
<!--    This library is distributed in the hope that it will be useful,		-->
<!--    but WITHOUT ANY WARRANTY; without even the implied warranty of		-->
<!--    MERCHANTABILITY or FITNESS FOR A PARTICULAR PURPOSE.  See the GNU	-->
<!--    Lesser General Public License for more details.				-->
<!--										-->
<!--    You should have received a copy of the GNU Lesser General Public	-->
<!--    License along with this library; if not, write to the Free Software	-->
<!--    Foundation, Inc., 59 Temple Place, Suite 330, Boston, MA 02111-1307  USA-->
<!--										-->
<!--    Contact the author David Bellot at bellot@stat.berkeley.edu or 		-->
<!--    david.bellot@free.fr or yimyom@users.sourceforge.net			-->
<svg  width="167.1582031pt" height="242.6669922pt" viewBox="0 0 167.1582031 242.6669922" xml:space="preserve">
	<g id="Layer_x0020_1" style="&st0;">
		<path style="&st3;" d="M166.8291016,235.5478516c0,3.7753906-3.0859375,6.8691406-6.8691406,6.8691406H7.1113281c-3.7749023,0-6.8613281-3.09375-6.8613281-6.8691406V7.1201172C0.25,3.3452148,3.3364258,0.25,7.1113281,0.25h152.8486328
			c3.7832031,0,6.8691406,3.0952148,6.8691406,6.8701172v228.4277344z"/>
		<path style="&st1;" d="M145.8876953,0.5009766h4.1533203l16.6142578,16.6679688v4.1669922L145.8876953,0.5009766z"/>
		<path style="&st2;" d="M0.3515625,0.2001953h166.8066406v242.1210938H0.3515625V0.2001953z"/>
		<path style="&st1;" d="M137.5810547,0.5009766h4.1523438l24.921875,25.0019531v4.1669922L137.5810547,0.5009766z"/>
		<path style="&st1;" d="M155.2333984,0.5009766h4.1523438l7.2695313,7.2919922v4.1669922l-11.421875-11.4589844z"/>
		<path style="&st2;" d="M0.3515625,0.2001953h166.8066406v242.1210938H0.3515625V0.2001953z"/>
		<path style="&st1;" d="M129.2724609,0.5009766h4.1542969l33.2285156,33.3359375v4.1669922L129.2724609,0.5009766z"/>
		<path style="&st1;" d="M120.9658203,0.5009766h4.1542969l41.5351563,41.6699219v4.1669922L120.9658203,0.5009766z"/>
		<path style="&st2;" d="M0.3515625,0.2001953h166.8066406v242.1210938H0.3515625V0.2001953z"/>
		<path style="&st1;" d="M112.6455078,0.4873047h4.1523438l49.8574219,50.0175781v4.1669922L112.6455078,0.4873047z"/>
		<path style="&st1;" d="M87.7099609,0.4731445h4.1542969l74.7910156,75.0336914l0.1660156,4.2084961L87.7099609,0.4731445z"/>
		<path style="&st2;" d="M0.3515625,0.2001953h166.8066406v242.1210938H0.3515625V0.2001953z"/>
		<path style="&st1;" d="M62.7749023,0.4589844h4.1538086l99.7265625,100.0498047l-0.0410156,4.0004883L62.7749023,0.4589844z"/>
		<path style="&st1;" d="M71.0820313,0.4589844h4.1533203l91.4199219,91.7158203l-0.0410156,4.0976563L71.0820313,0.4589844z"/>
		<path style="&st2;" d="M0.3515625,0.2001953h166.8066406v242.1210938H0.3515625V0.2001953z"/>
		<path style="&st1;" d="M54.4677734,0.4589844h4.1538086l108.0336914,108.3837891l0.0693359,4.0976563L54.4677734,0.4589844z"/>
		<path style="&st1;" d="M46.1606445,0.4589844h4.1538086l116.3408203,116.7177734l-0.0410156,4.2089844L46.1606445,0.4589844z"/>
		<path style="&st2;" d="M0.3515625,0.2001953h166.8066406v242.1210938H0.3515625V0.2001953z"/>
		<path style="&st1;" d="M37.8540039,0.4589844h4.1533203l124.6479492,125.0517578v4.1669922L37.8540039,0.4589844z"/>
		<path style="&st1;" d="M29.546875,0.4589844h4.1533203l132.9550781,133.3857422v4.1669922L29.546875,0.4589844z"/>
		<path style="&st2;" d="M0.3515625,0.2001953h166.8066406v242.1210938H0.3515625V0.2001953z"/>
		<path style="&st1;" d="M21.2392578,0.4589844h4.1538086l141.262207,141.7197266v4.1669922L21.2392578,0.4589844z"/>
		<path style="&st1;" d="M12.9326172,0.4589844h4.1533203l149.5693359,150.0537109v4.1669922L12.9326172,0.4589844z"/>
		<path style="&st2;" d="M0.3515625,0.2001953h166.8066406v242.1210938H0.3515625V0.2001953z"/>
		<path style="&st1;" d="M5.6357422,0.8896484l3.2539063-0.4580078l157.765625,158.4150391v4.1669922L4.9438477,0.9594727"/>
		<path style="&st1;" d="M104.3515625,0.5009766h4.1533203l58.1503906,58.3378906v4.1669922L104.3515625,0.5009766z"/>
		<path style="&st2;" d="M0.3515625,0.2001953h166.8066406v242.1210938H0.3515625V0.2001953z"/>
		<path style="&st1;" d="M96.0449219,0.5009766h4.1533203l66.4570313,66.671875v4.1669922L96.0449219,0.5009766z"/>
		<path style="&st1;" d="M79.402832,0.4731445h4.152832l83.0996094,83.3676758l0.0693359,4.2089844L79.402832,0.4731445z"/>
		<path style="&st2;" d="M0.3515625,0.2001953h166.8066406v242.1210938H0.3515625V0.2001953z"/>
		<path style="&st1;" d="M1.8286133,3.7651367l0.8305664-1.1386719l163.9960938,164.5541992v4.1669922L0.9980469,5.1264648"/>
		<path style="&st1;" d="M0.5136719,13.0019531V8.8349609l166.1416016,166.6796875v4.1669922L4.6669922,17.1689453"/>
		<path style="&st2;" d="M0.3515625,0.2001953h166.8066406v242.1210938H0.3515625V0.2001953z"/>
		<path style="&st1;" d="M0.5136719,21.3359375v-4.1669922l166.1416016,166.6796875v4.1669922L4.6669922,25.5029297"/>
		<path style="&st1;" d="M0.5136719,29.6699219v-4.1669922l166.1416016,166.6796875v4.1669922L4.6669922,33.8369141"/>
		<path style="&st2;" d="M0.3515625,0.2001953h166.8066406v242.1210938H0.3515625V0.2001953z"/>
		<path style="&st1;" d="M0.5136719,46.3378906v-4.1669922l166.1416016,166.6796875v4.1669922L4.6669922,50.5048828"/>
		<path style="&st1;" d="M0.5136719,38.0039063v-4.1669922l166.1416016,166.6796875v4.1669922L4.6669922,42.1708984"/>
		<path style="&st2;" d="M0.3515625,0.2001953h166.8066406v242.1210938H0.3515625V0.2001953z"/>
		<path style="&st1;" d="M0.5136719,54.671875v-4.1669922l166.1416016,166.6796875v4.1669922L4.6669922,58.8388672"/>
		<path style="&st1;" d="M0.5136719,63.0058594v-4.1669922l166.1416016,166.6796875v4.1669922L4.6669922,67.1728516"/>
		<path style="&st2;" d="M0.3515625,0.2001953h166.8066406v242.1210938H0.3515625V0.2001953z"/>
		<path style="&st1;" d="M0.5136719,71.3398438v-4.1669922l166.1416016,166.6796875v4.1669922L4.6669922,75.5068359"/>
		<path style="&st1;" d="M0.5136719,88.0078125v-4.1669922l157.8349609,158.3457031h-4.1542969L4.6669922,92.1748047"/>
		<path style="&st2;" d="M0.3515625,0.2001953h166.8066406v242.1210938H0.3515625V0.2001953z"/>
		<path style="&st1;" d="M0.5136719,96.3417969v-4.1669922l149.5273438,150.0117188h-4.1533203L4.6669922,100.5087891"/>
		<path style="&st1;" d="M0.5136719,104.6757813v-4.1669922l141.2197266,141.6777344h-4.1523438L4.6669922,108.8427734"/>
		<path style="&st2;" d="M0.3515625,0.2001953h166.8066406v242.1210938H0.3515625V0.2001953z"/>
		<path style="&st1;" d="M0.5136719,113.0097656v-4.1669922l132.9130859,133.34375h-4.1542969L4.6669922,117.1767578"/>
		<path style="&st1;" d="M0.5136719,121.34375v-4.1669922l124.6064453,125.0097656h-4.1542969L4.6669922,125.5107422"/>
		<path style="&st2;" d="M0.3515625,0.2001953h166.8066406v242.1210938H0.3515625V0.2001953z"/>
		<path style="&st1;" d="M0.5136719,79.6738281v-4.1669922L164.578125,240.1035156l-1.0380859,1.0419922h-2.0761719L4.6669922,83.8408203"/>
		<path style="&st1;" d="M0.5136719,129.6777344v-4.1669922L116.8125,242.1865234h-4.1533203L0.5136719,129.6777344z"/>
		<path style="&st2;" d="M0.3515625,0.2001953h166.8066406v242.1210938H0.3515625V0.2001953z"/>
		<path style="&st1;" d="M0.5136719,138.0117188v-4.1669922l107.9912109,108.3417969h-4.1533203L0.5136719,138.0117188z"/>
		<path style="&st1;" d="M0.5136719,146.3457031v-4.1669922l99.6845703,100.0078125h-4.1533203l-95.53125-95.8408203z"/>
		<path style="&st2;" d="M0.3515625,0.2001953h166.8066406v242.1210938H0.3515625V0.2001953z"/>
		<path style="&st1;" d="M0.5136719,154.6796875v-4.1669922l91.3779297,91.6738281h-4.1542969L0.5136719,154.6796875z"/>
		<path style="&st1;" d="M0.5136719,163.0136719v-4.1669922l83.0712891,83.3398438h-4.1538086L0.5136719,163.0136719z"/>
		<path style="&st2;" d="M0.3515625,0.2001953h166.8066406v242.1210938H0.3515625V0.2001953z"/>
		<path style="&st1;" d="M0.5136719,171.3476563v-4.1669922l74.7636719,75.0058594h-4.1538086L0.5136719,171.3476563z"/>
		<path style="&st1;" d="M0.5136719,179.6816406v-4.1669922l66.456543,66.671875h-4.1538086L0.5136719,179.6816406z"/>
		<path style="&st2;" d="M0.3515625,0.2001953h166.8066406v242.1210938H0.3515625V0.2001953z"/>
		<path style="&st1;" d="M0.5136719,188.015625v-4.1669922l58.1494141,58.3378906h-4.1533203L0.5136719,188.015625z"/>
		<path style="&st1;" d="M0.5136719,196.3496094v-4.1669922l49.8422852,50.0039063h-4.1533203L0.5136719,196.3496094z"/>
		<path style="&st2;" d="M0.3515625,0.2001953h166.8066406v242.1210938H0.3515625V0.2001953z"/>
		<path style="&st1;" d="M0.5136719,204.6835938v-4.1669922l41.5351563,41.6699219h-4.1533203L0.5136719,204.6835938z"/>
		<path style="&st1;" d="M0.5136719,213.0175781v-4.1669922l33.2280273,33.3359375h-4.1533203l-29.074707-29.1689453z"/>
		<path style="&st2;" d="M0.3515625,0.2001953h166.8066406v242.1210938H0.3515625V0.2001953z"/>
		<path style="&st1;" d="M0.5136719,221.3515625v-4.1669922l24.9208984,25.0019531H21.28125L0.5136719,221.3515625z"/>
		<path style="&st1;" d="M0.5136719,229.6855469v-4.1669922l16.6137695,16.6679688h-4.1533203L0.5136719,229.6855469z"/>
		<path style="&st2;" d="M0.3515625,0.2001953h166.8066406v242.1210938H0.3515625V0.2001953z"/>
		<path style="&st1;" d="M0.5136719,236.9775391v-3.125l8.3071289,8.3339844H6.7436523l-4.1533203-2.0830078"/>
	</g>
</svg>
