<?xml version="1.0" encoding="utf-8"?>
<!-- Generator: Adobe Illustrator 9.0, SVG Export Plug-In  -->
<!DOCTYPE svg PUBLIC "-//W3C//DTD SVG 20000303 Stylable//EN"   "http://www.w3.org/TR/2000/03/WD-SVG-20000303/DTD/svg-20000303-stylable.dtd" [
	<!ENTITY st0 "stroke-width:0.5;">
	<!ENTITY st1 "fill-rule:evenodd;clip-rule:evenodd;fill:#190C80;stroke:none;">
	<!ENTITY st2 "fill-rule:nonzero;clip-rule:nonzero;fill:#FFFFFF;stroke:#000000;stroke-miterlimit:4;">
	<!ENTITY st3 "fill-rule:evenodd;clip-rule:evenodd;fill:none;stroke:#1E0C7D;stroke-width:3;stroke-linejoin:round;stroke-miterlimit:10;">
	<!ENTITY st4 "fill-rule:evenodd;clip-rule:evenodd;stroke:none;">
]>
<!-- This set of SVG files is a complete cards game with figures, numbers	-->
<!--    and backs of cards completely designed in SVG.				-->
<!--    									-->
<!--    Copyright (C) 2004 David Bellot						-->
<!--										-->
<!--    This library is free software; you can redistribute it and/or		-->
<!--    modify it under the terms of the GNU Lesser General Public		-->
<!--    License as published by the Free Software Foundation; either		-->
<!--    version 2 of the License, or (at your option) any later version		-->
<!--										-->
<!--    This library is distributed in the hope that it will be useful,		-->
<!--    but WITHOUT ANY WARRANTY; without even the implied warranty of		-->
<!--    MERCHANTABILITY or FITNESS FOR A PARTICULAR PURPOSE.  See the GNU	-->
<!--    Lesser General Public License for more details.				-->
<!--										-->
<!--    You should have received a copy of the GNU Lesser General Public	-->
<!--    License along with this library; if not, write to the Free Software	-->
<!--    Foundation, Inc., 59 Temple Place, Suite 330, Boston, MA 02111-1307  USA-->
<!--										-->
<!--    Contact the author David Bellot at bellot@stat.berkeley.edu or 		-->
<!--    david.bellot@free.fr or yimyom@users.sourceforge.net			-->
<svg  width="167.0864258pt" height="242.6669922pt" viewBox="0 0 167.0864258 242.6669922" xml:space="preserve">
	<g id="Layer_x0020_1" style="&st2;">
		<path style="&st0;" d="M166.8364258,235.5478516c0,3.7773438-3.0859375,6.8691406-6.8701172,6.8691406H7.1113281c-3.7749023,0-6.8613281-3.0917969-6.8613281-6.8691406V7.1196289C0.25,3.3427734,3.3364258,0.25,7.1113281,0.25h152.8549805
			c3.7841797,0,6.8701172,3.0927734,6.8701172,6.8696289v228.4282227z"/>
		<path style="&st4;" d="M119.8374023,46.6162109V9.3193359H82.8110352v37.296875h37.0263672z"/>
		<path style="&st1;" d="M156.8432617,46.6162109V9.3193359h-37.0058594v37.296875h37.0058594z"/>
		<path style="&st4;" d="M156.8432617,83.9130859v-37.296875h-37.0058594v37.296875h37.0058594z"/>
		<path style="&st1;" d="M119.8374023,83.9130859v-37.296875H82.8110352v37.296875h37.0263672z"/>
		<path style="&st4;" d="M45.8041992,121.2089844V83.9130859H8.7983398v37.2958984h37.0058594z"/>
		<path style="&st1;" d="M82.8110352,121.2089844V83.9130859H45.8041992v37.2958984h37.0068359z"/>
		<path style="&st4;" d="M119.8374023,121.2089844V83.9130859H82.8110352v37.2958984h37.0263672z"/>
		<path style="&st1;" d="M156.8432617,121.2089844V83.9130859h-37.0058594v37.2958984h37.0058594z"/>
		<path style="&st4;" d="M82.8110352,83.9130859v-37.296875H45.8041992v37.296875h37.0068359z"/>
		<path style="&st1;" d="M45.8041992,83.9130859v-37.296875H8.7983398v37.296875h37.0058594z"/>
		<path style="&st4;" d="M45.8041992,46.6162109V9.3193359H8.7983398v37.296875h37.0058594z"/>
		<path style="&st1;" d="M82.8110352,46.6162109V9.3193359H45.8041992v37.296875h37.0068359z"/>
		<path style="&st4;" d="M82.8110352,233.1191406V195.8125H45.8041992v37.3066406h37.0068359z"/>
		<path style="&st1;" d="M45.8041992,233.1191406V195.8125H8.7983398v37.3066406h37.0058594z"/>
		<path style="&st4;" d="M45.8041992,195.8125v-37.296875H8.7983398V195.8125h37.0058594z"/>
		<path style="&st1;" d="M82.8110352,195.8125v-37.296875H45.8041992V195.8125h37.0068359z"/>
		<path style="&st4;" d="M156.8432617,158.515625v-37.3066406h-37.0058594v37.3066406h37.0058594z"/>
		<path style="&st1;" d="M119.8374023,158.515625v-37.3066406H82.8110352v37.3066406h37.0263672z"/>
		<path style="&st4;" d="M82.8110352,158.515625v-37.3066406H45.8041992v37.3066406h37.0068359z"/>
		<path style="&st1;" d="M45.8041992,158.515625v-37.3066406H8.7983398v37.3066406h37.0058594z"/>
		<path style="&st4;" d="M119.8374023,195.8125v-37.296875H82.8110352V195.8125h37.0263672z"/>
		<path style="&st1;" d="M156.8432617,195.8125v-37.296875h-37.0058594V195.8125h37.0058594z"/>
		<path style="&st4;" d="M156.8432617,233.1191406V195.8125h-37.0058594v37.3066406h37.0058594z"/>
		<path style="&st1;" d="M119.8374023,233.1191406V195.8125H82.8110352v37.3066406h37.0263672z"/>
		<path style="&st1;" d="M115.2045898,9.3193359l4.6328125,4.6479492L87.4428711,46.6162109l-4.6318359-4.668457l32.3935547-32.628418z"/>
		<path style="&st4;" d="M152.2114258,9.3193359l4.6318359,4.6479492l-32.3730469,32.6489258l-4.6328125-4.668457l32.3740234-32.628418"/>
		<path style="&st1;" d="M124.4702148,46.6162109l-4.6328125,4.668457l32.3740234,32.628418l4.6318359-4.6694336l-32.3730469-32.6274414z"/>
		<path style="&st4;" d="M87.4428711,46.6162109l-4.6318359,4.668457l32.3935547,32.628418l4.6328125-4.6694336L87.4428711,46.6162109"/>
		<path style="&st1;" d="M41.1728516,83.9130859l4.6313477,4.6572266l-32.3837891,32.6386719l-4.6220703-4.6474609l32.3745117-32.6484375z"/>
		<path style="&st4;" d="M78.1992188,83.9130859l4.6118164,4.6572266l-32.3745117,32.6386719l-4.6323242-4.6474609l32.3950195-32.6484375"/>
		<path style="&st1;" d="M115.2045898,83.9130859l4.6328125,4.6572266l-32.3945313,32.6386719l-4.6318359-4.6474609l32.3935547-32.6484375z"/>
		<path style="&st4;" d="M152.2114258,83.9130859l4.6318359,4.6572266l-32.3730469,32.6386719l-4.6328125-4.6474609l32.3740234-32.6484375"/>
		<path style="&st1;" d="M50.4365234,46.6162109l-4.6323242,4.668457l32.3950195,32.628418l4.6118164-4.6694336L50.4365234,46.6162109z"/>
		<path style="&st4;" d="M13.4204102,46.6162109l-4.6220703,4.668457l32.3745117,32.628418l4.6313477-4.6694336L13.4204102,46.6162109"/>
		<path style="&st1;" d="M41.1728516,9.3193359l4.6313477,4.6479492L13.4204102,46.6162109l-4.6220703-4.668457l32.3745117-32.628418z"/>
		<path style="&st4;" d="M78.1992188,9.3193359l4.6118164,4.6479492L50.4365234,46.6162109l-4.6323242-4.668457l32.3950195-32.628418"/>
		<path style="&st1;" d="M50.4365234,233.1191406l-4.6323242-4.6689453L78.1992188,195.8125l4.6118164,4.6679688l-32.3745117,32.6386719z"/>
		<path style="&st4;" d="M13.4204102,233.1191406l-4.6220703-4.6689453L41.1728516,195.8125l4.6313477,4.6679688l-32.3837891,32.6386719"/>
		<path style="&st1;" d="M41.1728516,195.8125l4.6313477-4.6689453L13.4204102,158.515625l-4.6220703,4.6689453L41.1728516,195.8125z"/>
		<path style="&st4;" d="M78.1992188,195.8125l4.6118164-4.6689453L50.4365234,158.515625l-4.6323242,4.6689453L78.1992188,195.8125"/>
		<path style="&st1;" d="M124.4702148,158.515625l-4.6328125-4.6582031l32.3740234-32.6484375l4.6318359,4.6689453l-32.3730469,32.6376953z"/>
		<path style="&st4;" d="M87.4428711,158.515625l-4.6318359-4.6582031l32.3935547-32.6484375l4.6328125,4.6689453L87.4428711,158.515625"/>
		<path style="&st1;" d="M50.4365234,158.515625l-4.6323242-4.6582031l32.3950195-32.6484375l4.6118164,4.6689453L50.4365234,158.515625z"/>
		<path style="&st4;" d="M13.4204102,158.515625l-4.6220703-4.6582031l32.3745117-32.6484375l4.6313477,4.6689453L13.4204102,158.515625"/>
		<path style="&st1;" d="M115.2045898,195.8125l4.6328125-4.6689453L87.4428711,158.515625l-4.6318359,4.6689453L115.2045898,195.8125z"/>
		<path style="&st4;" d="M152.2114258,195.8125l4.6318359-4.6689453l-32.3730469-32.6279297l-4.6328125,4.6689453L152.2114258,195.8125"/>
		<path style="&st1;" d="M124.4702148,233.1191406l-4.6328125-4.6689453L152.2114258,195.8125l4.6318359,4.6679688l-32.3730469,32.6386719z"/>
		<path style="&st4;" d="M87.4428711,233.1191406l-4.6318359-4.6689453L115.2045898,195.8125l4.6328125,4.6679688l-32.3945313,32.6386719"/>
		<path style="&st1;" d="M87.4428711,9.3193359l-4.6318359,4.6479492l32.3935547,32.6489258l4.6328125-4.668457L87.4428711,9.3193359z"/>
		<path style="&st1;" d="M101.3188477,9.3193359L82.8110352,27.9726563l18.5078125,18.6435547l18.5185547-18.6435547L101.3188477,9.3193359z"/>
		<path style="&st4;" d="M124.4702148,9.3193359l-4.6328125,4.6479492l32.3740234,32.6489258l4.6318359-4.668457l-32.3730469-32.628418"/>
		<path style="&st4;" d="M138.3256836,9.3193359l-18.4882813,18.6533203l18.4882813,18.6435547l18.5175781-18.6435547L138.3256836,9.3193359"/>
		<path style="&st1;" d="M152.2114258,46.6162109l4.6318359,4.668457l-32.3730469,32.628418l-4.6328125-4.6694336l32.3740234-32.6274414z"/>
		<path style="&st1;" d="M138.3256836,46.6162109l18.5175781,18.6533203l-18.5175781,18.6435547l-18.4882813-18.6435547l18.4882813-18.6533203z"/>
		<path style="&st4;" d="M115.2045898,46.6162109l4.6328125,4.668457l-32.3945313,32.628418l-4.6318359-4.6694336l32.3935547-32.6274414"/>
		<path style="&st4;" d="M101.3188477,46.6162109l18.5185547,18.6533203l-18.5185547,18.6435547L82.8110352,65.2695313l18.5078125-18.6533203"/>
		<path style="&st1;" d="M13.4204102,83.9130859l-4.6220703,4.6572266l32.3745117,32.6386719l4.6313477-4.6474609L13.4204102,83.9130859z"/>
		<path style="&st1;" d="M27.3168945,83.9130859L8.7983398,102.5654297l18.5185547,18.6435547l18.4873047-18.6435547L27.3168945,83.9130859z"/>
		<path style="&st4;" d="M50.4365234,83.9130859l-4.6323242,4.6572266l32.3950195,32.6386719l4.6118164-4.6474609L50.4365234,83.9130859"/>
		<path style="&st4;" d="M64.3232422,83.9130859l-18.519043,18.6523438l18.519043,18.6435547l18.487793-18.6435547l-18.487793-18.6523438"/>
		<path style="&st1;" d="M87.4428711,83.9130859l-4.6318359,4.6572266l32.3935547,32.6386719l4.6328125-4.6474609L87.4428711,83.9130859z"/>
		<path style="&st1;" d="M101.3188477,83.9130859l-18.5078125,18.6523438l18.5078125,18.6435547l18.5185547-18.6435547l-18.5185547-18.6523438z"/>
		<path style="&st4;" d="M124.4702148,83.9130859l-4.6328125,4.6572266l32.3740234,32.6386719l4.6318359-4.6474609l-32.3730469-32.6484375"/>
		<path style="&st4;" d="M138.3256836,83.9130859l-18.4882813,18.6523438l18.4882813,18.6435547l18.5175781-18.6435547l-18.5175781-18.6523438"/>
		<path style="&st1;" d="M78.1992188,46.6162109l4.6118164,4.668457l-32.3745117,32.628418l-4.6323242-4.6694336l32.3950195-32.6274414z"/>
		<path style="&st1;" d="M64.3232422,46.6162109l18.487793,18.6533203l-18.487793,18.6435547l-18.519043-18.6435547l18.519043-18.6533203z"/>
		<path style="&st4;" d="M41.1728516,46.6162109l4.6313477,4.668457l-32.3837891,32.628418l-4.6220703-4.6694336l32.3745117-32.6274414"/>
		<path style="&st4;" d="M27.3168945,46.6162109l18.4873047,18.6533203L27.3168945,83.9130859L8.7983398,65.2695313l18.5185547-18.6533203"/>
		<path style="&st1;" d="M13.4204102,9.3193359l-4.6220703,4.6479492l32.3745117,32.6489258l4.6313477-4.668457L13.4204102,9.3193359z"/>
		<path style="&st1;" d="M27.3168945,9.3193359L8.7983398,27.9726563l18.5185547,18.6435547l18.4873047-18.6435547L27.3168945,9.3193359z"/>
		<path style="&st4;" d="M50.4365234,9.3193359l-4.6323242,4.6479492l32.3950195,32.6489258l4.6118164-4.668457L50.4365234,9.3193359"/>
		<path style="&st4;" d="M64.3232422,9.3193359l-18.519043,18.6533203l18.519043,18.6435547l18.487793-18.6435547L64.3232422,9.3193359"/>
		<path style="&st1;" d="M78.1992188,233.1191406l4.6118164-4.6689453L50.4365234,195.8125l-4.6323242,4.6679688l32.3950195,32.6386719z"/>
		<path style="&st1;" d="M64.3232422,233.1191406l18.487793-18.6640625L64.3232422,195.8125l-18.519043,18.6425781l18.519043,18.6640625z"/>
		<path style="&st4;" d="M41.1728516,233.1191406l4.6313477-4.6689453L13.4204102,195.8125l-4.6220703,4.6679688l32.3745117,32.6386719"/>
		<path style="&st4;" d="M27.3168945,233.1191406l18.4873047-18.6640625L27.3168945,195.8125L8.7983398,214.4550781l18.5185547,18.6640625"/>
		<path style="&st1;" d="M27.3168945,195.8125L8.7983398,177.1689453l18.5185547-18.6533203l18.4873047,18.6533203L27.3168945,195.8125z"/>
		<path style="&st4;" d="M50.4365234,195.8125l-4.6323242-4.6689453l32.3950195-32.6279297l4.6118164,4.6689453L50.4365234,195.8125"/>
		<path style="&st4;" d="M64.3232422,195.8125l-18.519043-18.6435547l18.519043-18.6533203l18.487793,18.6533203L64.3232422,195.8125"/>
		<path style="&st1;" d="M152.2114258,158.515625l4.6318359-4.6582031l-32.3730469-32.6484375l-4.6328125,4.6689453l32.3740234,32.6376953z"/>
		<path style="&st1;" d="M138.3256836,158.515625l18.5175781-18.6533203l-18.5175781-18.6533203l-18.4882813,18.6533203l18.4882813,18.6533203z"/>
		<path style="&st4;" d="M115.2045898,158.515625l4.6328125-4.6582031l-32.3945313-32.6484375l-4.6318359,4.6689453l32.3935547,32.6376953"/>
		<path style="&st4;" d="M101.3188477,158.515625l18.5185547-18.6533203l-18.5185547-18.6533203l-18.5078125,18.6533203l18.5078125,18.6533203"/>
		<path style="&st1;" d="M78.1992188,158.515625l4.6118164-4.6582031l-32.3745117-32.6484375l-4.6323242,4.6689453l32.3950195,32.6376953z"/>
		<path style="&st1;" d="M64.3232422,158.515625l18.487793-18.6533203l-18.487793-18.6533203l-18.519043,18.6533203l18.519043,18.6533203z"/>
		<path style="&st4;" d="M41.1728516,158.515625l4.6313477-4.6582031l-32.3837891-32.6484375l-4.6220703,4.6689453l32.3745117,32.6376953"/>
		<path style="&st4;" d="M27.3168945,158.515625l18.4873047-18.6533203l-18.4873047-18.6533203L8.7983398,139.8623047l18.5185547,18.6533203"/>
		<path style="&st1;" d="M87.4428711,195.8125l-4.6318359-4.6689453l32.3935547-32.6279297l4.6328125,4.6689453L87.4428711,195.8125z"/>
		<path style="&st1;" d="M101.3188477,195.8125l-18.5078125-18.6435547l18.5078125-18.6533203l18.5185547,18.6533203L101.3188477,195.8125z"/>
		<path style="&st4;" d="M124.4702148,195.8125l-4.6328125-4.6689453l32.3740234-32.6279297l4.6318359,4.6689453L124.4702148,195.8125"/>
		<path style="&st4;" d="M138.3256836,195.8125l-18.4882813-18.6435547l18.4882813-18.6533203l18.5175781,18.6533203L138.3256836,195.8125"/>
		<path style="&st1;" d="M152.2114258,233.1191406l4.6318359-4.6689453L124.4702148,195.8125l-4.6328125,4.6679688l32.3740234,32.6386719z"/>
		<path style="&st1;" d="M138.3256836,233.1191406l18.5175781-18.6640625L138.3256836,195.8125l-18.4882813,18.6425781l18.4882813,18.6640625z"/>
		<path style="&st4;" d="M115.2045898,233.1191406l4.6328125-4.6689453L87.4428711,195.8125l-4.6318359,4.6679688l32.3935547,32.6386719"/>
		<path style="&st4;" d="M101.3188477,233.1191406l18.5185547-18.6640625L101.3188477,195.8125l-18.5078125,18.6425781l18.5078125,18.6640625"/>
		<path style="&st4;" d="M110.5834961,37.2792969V18.0576172H92.0649414v19.2216797h18.5185547z"/>
		<path style="&st1;" d="M147.5893555,37.2792969V18.0576172h-18.4980469v19.2216797h18.4980469z"/>
		<path style="&st1;" d="M101.3188477,20.9702148l-6.9375,7.0024414l6.9375,6.972168l6.9482422-6.972168l-6.9482422-7.0024414"/>
		<path style="&st4;" d="M138.3256836,20.9702148l-6.9277344,7.0024414l6.9277344,6.972168l6.9472656-6.972168l-6.9472656-7.0024414"/>
		<path style="&st4;" d="M147.5893555,74.5859375V55.3642578h-18.4980469v19.2216797h18.4980469z"/>
		<path style="&st1;" d="M110.5834961,74.5859375V55.3642578H92.0649414v19.2216797h18.5185547z"/>
		<path style="&st1;" d="M138.3256836,58.2768555l6.9472656,6.9926758l-6.9472656,6.9819336l-6.9277344-6.9819336l6.9277344-6.9926758"/>
		<path style="&st4;" d="M101.3188477,58.2768555l6.9482422,6.9926758l-6.9482422,6.9819336l-6.9375-6.9819336l6.9375-6.9926758"/>
		<path style="&st4;" d="M36.5507813,111.8925781V92.6606445H18.0522461v19.2319336h18.4985352z"/>
		<path style="&st1;" d="M73.5673828,111.8925781V92.6606445H55.059082v19.2319336h18.5083008z"/>
		<path style="&st1;" d="M27.3168945,95.5629883l-6.9487305,7.0024414l6.9487305,7.0029297l6.9174805-7.0029297l-6.9174805-7.0024414"/>
		<path style="&st4;" d="M64.3232422,95.5629883L57.375,102.5654297l6.9482422,7.0029297l6.9277344-7.0029297l-6.9277344-7.0024414"/>
		<path style="&st4;" d="M110.5834961,111.8925781V92.6606445H92.0649414v19.2319336h18.5185547z"/>
		<path style="&st1;" d="M147.5893555,111.8925781V92.6606445h-18.4980469v19.2319336h18.4980469z"/>
		<path style="&st1;" d="M101.3188477,95.5629883l-6.9375,7.0024414l6.9375,7.0029297l6.9482422-7.0029297l-6.9482422-7.0024414"/>
		<path style="&st4;" d="M138.3256836,95.5629883l-6.9277344,7.0024414l6.9277344,7.0029297l6.9472656-7.0029297l-6.9472656-7.0024414"/>
		<path style="&st4;" d="M73.5673828,74.5859375V55.3642578H55.059082v19.2216797h18.5083008z"/>
		<path style="&st1;" d="M36.5507813,74.5859375V55.3642578H18.0522461v19.2216797h18.4985352z"/>
		<path style="&st1;" d="M64.3232422,58.2768555l6.9277344,6.9926758l-6.9277344,6.9819336L57.375,65.2695313l6.9482422-6.9926758"/>
		<path style="&st4;" d="M27.3168945,58.2768555l6.9174805,6.9926758l-6.9174805,6.9819336l-6.9487305-6.9819336l6.9487305-6.9926758"/>
		<path style="&st4;" d="M36.5507813,37.2792969V18.0576172H18.0522461v19.2216797h18.4985352z"/>
		<path style="&st1;" d="M73.5673828,37.2792969V18.0576172H55.059082v19.2216797h18.5083008z"/>
		<path style="&st1;" d="M27.3168945,20.9702148l-6.9487305,7.0024414l6.9487305,6.972168l6.9174805-6.972168l-6.9174805-7.0024414"/>
		<path style="&st4;" d="M64.3232422,20.9702148L57.375,27.9726563l6.9482422,6.972168l6.9277344-6.972168l-6.9277344-7.0024414"/>
		<path style="&st4;" d="M73.5673828,224.3603516v-19.2109375H55.059082v19.2109375h18.5083008z"/>
		<path style="&st1;" d="M36.5507813,224.3603516v-19.2109375H18.0522461v19.2109375h18.4985352z"/>
		<path style="&st1;" d="M64.3232422,221.4580078l6.9277344-7.0029297l-6.9277344-6.9814453L57.375,214.4550781l6.9482422,7.0029297"/>
		<path style="&st4;" d="M27.3168945,221.4580078l6.9174805-7.0029297l-6.9174805-6.9814453l-6.9487305,6.9814453l6.9487305,7.0029297"/>
		<path style="&st1;" d="M73.5673828,187.0742188v-19.2314453H55.059082v19.2314453h18.5083008z"/>
		<path style="&st4;" d="M64.3232422,184.1611328L57.375,177.1689453l6.9482422-7.0019531l6.9277344,7.0019531l-6.9277344,6.9921875"/>
		<path style="&st4;" d="M147.5893555,149.7675781v-19.2412109h-18.4980469v19.2412109h18.4980469z"/>
		<path style="&st1;" d="M110.5834961,149.7675781v-19.2412109H92.0649414v19.2412109h18.5185547z"/>
		<path style="&st1;" d="M138.3256836,146.8642578l6.9472656-7.0019531l-6.9472656-7.0019531l-6.9277344,7.0019531l6.9277344,7.0019531"/>
		<path style="&st4;" d="M101.3188477,146.8642578l6.9482422-7.0019531l-6.9482422-7.0019531l-6.9375,7.0019531l6.9375,7.0019531"/>
		<path style="&st4;" d="M73.5673828,149.7675781v-19.2412109H55.059082v19.2412109h18.5083008z"/>
		<path style="&st1;" d="M36.5507813,149.7675781v-19.2412109H18.0522461v19.2412109h18.4985352z"/>
		<path style="&st1;" d="M64.3232422,146.8642578l6.9277344-7.0019531l-6.9277344-7.0019531L57.375,139.8623047l6.9482422,7.0019531"/>
		<path style="&st4;" d="M27.3168945,146.8642578l6.9174805-7.0019531l-6.9174805-7.0019531l-6.9487305,7.0019531l6.9487305,7.0019531"/>
		<path style="&st4;" d="M110.5834961,187.0742188v-19.2314453H92.0649414v19.2314453h18.5185547z"/>
		<path style="&st1;" d="M147.5893555,187.0742188v-19.2314453h-18.4980469v19.2314453h18.4980469z"/>
		<path style="&st1;" d="M101.3188477,184.1611328l-6.9375-6.9921875l6.9375-7.0019531l6.9482422,7.0019531l-6.9482422,6.9921875"/>
		<path style="&st4;" d="M138.3256836,184.1611328l-6.9277344-6.9921875l6.9277344-7.0019531l6.9472656,7.0019531l-6.9472656,6.9921875"/>
		<path style="&st4;" d="M147.5893555,224.3603516v-19.2109375h-18.4980469v19.2109375h18.4980469z"/>
		<path style="&st1;" d="M110.5834961,224.3603516v-19.2109375H92.0649414v19.2109375h18.5185547z"/>
		<path style="&st1;" d="M138.3256836,221.4580078l6.9472656-7.0029297l-6.9472656-6.9814453l-6.9277344,6.9814453l6.9277344,7.0029297"/>
		<path style="&st4;" d="M101.3188477,221.4580078l6.9482422-7.0029297l-6.9482422-6.9814453l-6.9375,6.9814453l6.9375,7.0029297"/>
		<path style="&st1;" d="M13.4204102,195.8125l-4.6220703-4.6689453l32.3745117-32.6279297l4.6313477,4.6689453L13.4204102,195.8125z"/>
		<path style="&st4;" d="M36.5507813,187.0742188v-19.2314453H18.0522461v19.2314453h18.4985352z"/>
		<path style="&st1;" d="M27.3168945,184.1611328l-6.9487305-6.9921875l6.9487305-7.0019531l6.9174805,7.0019531l-6.9174805,6.9921875"/>
		<path style="&st3;" d="M162.2319336,236.5732422H4.4824219V4.5727539h157.7495117v232.0004883z"/>
	</g>
</svg>
