<?xml version="1.0" encoding="utf-8"?>
<!-- Generator: Adobe Illustrator 9.0, SVG Export Plug-In  -->
<!DOCTYPE svg PUBLIC "-//W3C//DTD SVG 20000303 Stylable//EN"   "http://www.w3.org/TR/2000/03/WD-SVG-20000303/DTD/svg-20000303-stylable.dtd" [
	<!ENTITY st0 "fill-rule:nonzero;clip-rule:nonzero;fill:none;stroke:#262525;stroke-width:6.3000002;stroke-miterlimit:4;">
	<!ENTITY st1 "fill-rule:evenodd;clip-rule:evenodd;fill:#CC3133;stroke:none;">
	<!ENTITY st2 "stroke-linecap:round;stroke-linejoin:round;stroke-miterlimit:10;">
	<!ENTITY st3 "fill-rule:evenodd;clip-rule:evenodd;fill:#4BAF65;stroke:none;">
	<!ENTITY st4 "fill-rule:evenodd;clip-rule:evenodd;fill:#647EBA;stroke:none;">
	<!ENTITY st5 "stroke-miterlimit:10;">
	<!ENTITY st6 "fill-rule:evenodd;clip-rule:evenodd;fill:#FFFFFF;stroke:none;">
	<!ENTITY st7 "fill-rule:evenodd;clip-rule:evenodd;fill:#F9F97F;stroke:#000000;stroke-width:0.5;">
]>
<!-- This set of SVG files is a complete cards game with figures, numbers	-->
<!--    and backs of cards completely designed in SVG.				-->
<!--    									-->
<!--    Copyright (C) 2004 David Bellot						-->
<!--										-->
<!--    This library is free software; you can redistribute it and/or		-->
<!--    modify it under the terms of the GNU Lesser General Public		-->
<!--    License as published by the Free Software Foundation; either		-->
<!--    version 2 of the License, or (at your option) any later version		-->
<!--										-->
<!--    This library is distributed in the hope that it will be useful,		-->
<!--    but WITHOUT ANY WARRANTY; without even the implied warranty of		-->
<!--    MERCHANTABILITY or FITNESS FOR A PARTICULAR PURPOSE.  See the GNU	-->
<!--    Lesser General Public License for more details.				-->
<!--										-->
<!--    You should have received a copy of the GNU Lesser General Public	-->
<!--    License along with this library; if not, write to the Free Software	-->
<!--    Foundation, Inc., 59 Temple Place, Suite 330, Boston, MA 02111-1307  USA-->
<!--										-->
<!--    Contact the author David Bellot at bellot@stat.berkeley.edu or 		-->
<!--    david.bellot@free.fr or yimyom@users.sourceforge.net			-->
<svg  width="167.0864258pt" height="242.6669922pt" viewBox="0 0 167.0864258 242.6669922" xml:space="preserve">
	<g id="Layer_x0020_1" style="&st0;">
		<path style="&st7;" d="M166.8364258,235.5478516c0,3.7773438-3.0859375,6.8691406-6.8701172,6.8691406H7.1113281c-3.7749023,0-6.8613281-3.0917969-6.8613281-6.8691406V7.1201172C0.25,3.3432617,3.3364258,0.25,7.1113281,0.25h152.8549805
			c3.7841797,0,6.8701172,3.0932617,6.8701172,6.8701172v228.4277344z"/>
		<path style="&st1;" d="M32.7045898,84.703125c2.2011719,8.6123047,2.1972656,16.8544922-2.0302734,19.0849609c-4.5288086,2.3925781-9.7929688-2.4990234-15.1577148-9.2490234c-5.5209961-6.9462891-5.1523438-16.4428711,0.9282227-19.6557617
			c6.0810547-3.2080078,14.0410156,1.1245117,16.2597656,9.8198242z"/>
		<path style="&st5;" d="M32.7045898,84.703125c2.2011719,8.6123047,2.1972656,16.8544922-2.0302734,19.0849609c-4.5288086,2.3925781-9.7929688-2.4990234-15.1577148-9.2490234c-5.5209961-6.9462891-5.1523438-16.4428711,0.9282227-19.6557617
			c6.0810547-3.2080078,14.0410156,1.1245117,16.2597656,9.8198242z"/>
		<path style="&st3;" d="M59.8383789,67.5620117c-0.9331055,9.496582-4.003418,17.7666016-9.1933594,18.3647461c-5.5610352,0.6450195-9.1704102-6.3061523-12.1918945-15.1621094c-3.1103516-9.1123047,0.8032227-18.5,8.2685547-19.3657227
			c7.4658203-0.8603516,14.0634766,6.574707,13.1166992,16.1630859z"/>
		<path style="&st5;" d="M59.8383789,67.5620117c-0.9331055,9.496582-4.003418,17.7666016-9.1933594,18.3647461c-5.5610352,0.6450195-9.1704102-6.3061523-12.1918945-15.1621094c-3.1103516-9.1123047,0.8032227-18.5,8.2685547-19.3657227
			c7.4658203-0.8603516,14.0634766,6.574707,13.1166992,16.1630859z"/>
		<path style="&st4;" d="M90.5444336,57.6240234c-2.3105469,10.1845703-6.5922852,18.6948242-11.8945313,18.5209961c-5.6816406-0.1816406-8.3032227-8.3183594-10.0600586-18.4321289c-1.8081055-10.4091797,3.4824219-20,11.1103516-19.7558594
			c7.6269531,0.2495117,13.1821289,9.3867188,10.8442383,19.6669922z"/>
		<path style="&st5;" d="M90.5444336,57.6240234c-2.3105469,10.1845703-6.5922852,18.6948242-11.8945313,18.5209961c-5.6816406-0.1816406-8.3032227-8.3183594-10.0600586-18.4321289c-1.8081055-10.4091797,3.4824219-20,11.1103516-19.7558594
			c7.6269531,0.2495117,13.1821289,9.3867188,10.8442383,19.6669922z"/>
		<path style="&st6;" d="M127.2182617,99.5214844c1.9169922,4.6894531,9.15625,8.3916016,1.4824219,16.6435547c-6.2910156,9.6767578-35.6005859,19.5039063-49.4321289,32.2744141c-5.7299805,7.6591797-2.9624023,14.4853516,2.7924805,17.8310547
			c5.753418,3.3457031,10.5239258,6.0585938,13.2089844,2.3808594c-0.7734375-10.8417969-0.1137695-13.1484375,13.1669922-16.84375c4.9882813-2.9804688,16.6796875-5.8398438,21.28125-1.65625c4.5986328,4.1875,4.6074219,17.6015625,2.3027344,21.2636719
			c-2.2998047,3.6660156-16.1132813,32.8085938-50.2514648,28.6113281c-34.1425781-4.2050781-52.175293-50.1113281-52.175293-64.8076172c0-14.6904297,1.9584961-41.0175781,50.4365234-50.6591797c43.8007813-8.7124023,47.1875,14.9619141,47.1875,14.9619141z"/>
		<path style="&st2;" d="M127.2182617,99.5214844c1.9169922,4.6894531,9.15625,8.3916016,1.4824219,16.6435547c-6.2910156,9.6767578-35.6005859,19.5039063-49.4321289,32.2744141c-5.7299805,7.6591797-2.9624023,14.4853516,2.7924805,17.8310547
			c5.753418,3.3457031,10.5239258,6.0585938,13.2089844,2.3808594c-0.7734375-10.8417969-0.1137695-13.1484375,13.1669922-16.84375c4.9882813-2.9804688,16.6796875-5.8398438,21.28125-1.65625c4.5986328,4.1875,4.6074219,17.6015625,2.3027344,21.2636719
			c-2.2998047,3.6660156-16.1132813,32.8085938-50.2514648,28.6113281c-34.1425781-4.2050781-52.175293-50.1113281-52.175293-64.8076172c0-14.6904297,1.9584961-41.0175781,50.4365234-50.6591797c43.8007813-8.7124023,47.1875,14.9619141,47.1875,14.9619141z"/>
		<path style="&st6;" d="M122.3852539,74.7719727c-7.5205078,1.637207-11.8730469,2.0473633-15.4365234-2.8676758c-2.8691406-3.9614258-2.5625-26.4755859,6.7285156-37.6977539c14.2519531-17.2050781,33.5683594-10.9824219,34.828125-9.8325195
			c16.6230469,15.1586914-18.6005859,48.7573242-26.1201172,50.3979492z"/>
		<path style="&st5;" d="M122.3852539,74.7719727c-7.5205078,1.637207-11.8730469,2.0473633-15.4365234-2.8676758c-2.8691406-3.9614258-2.5625-26.4755859,6.7285156-37.6977539c14.2519531-17.2050781,33.5683594-10.9824219,34.828125-9.8325195
			c16.6230469,15.1586914-18.6005859,48.7573242-26.1201172,50.3979492z"/>
	</g>
</svg>
