<?xml version="1.0" encoding="utf-8"?>
<!-- Generator: Adobe Illustrator 9.0, SVG Export Plug-In  -->
<!DOCTYPE svg PUBLIC "-//W3C//DTD SVG 20000303 Stylable//EN"   "http://www.w3.org/TR/2000/03/WD-SVG-20000303/DTD/svg-20000303-stylable.dtd" [
	<!ENTITY st0 "fill:none;stroke:#0C3D1B;stroke-width:0.5;">
	<!ENTITY st1 "fill:#F7F619;stroke:none;">
	<!ENTITY st2 "fill:#FFFFFF;stroke-width:0.5;">
	<!ENTITY st3 "fill:none;stroke:#0C3D1B;stroke-width:0.75;">
	<!ENTITY st4 "fill-rule:nonzero;clip-rule:nonzero;stroke:#000000;stroke-miterlimit:4;">
]>
<!-- This set of SVG files is a complete cards game with figures, numbers	-->
<!--    and backs of cards completely designed in SVG.				-->
<!--    									-->
<!--    Copyright (C) 2004 David Bellot						-->
<!--										-->
<!--    This library is free software; you can redistribute it and/or		-->
<!--    modify it under the terms of the GNU Lesser General Public		-->
<!--    License as published by the Free Software Foundation; either		-->
<!--    version 2 of the License, or (at your option) any later version		-->
<!--										-->
<!--    This library is distributed in the hope that it will be useful,		-->
<!--    but WITHOUT ANY WARRANTY; without even the implied warranty of		-->
<!--    MERCHANTABILITY or FITNESS FOR A PARTICULAR PURPOSE.  See the GNU	-->
<!--    Lesser General Public License for more details.				-->
<!--										-->
<!--    You should have received a copy of the GNU Lesser General Public	-->
<!--    License along with this library; if not, write to the Free Software	-->
<!--    Foundation, Inc., 59 Temple Place, Suite 330, Boston, MA 02111-1307  USA-->
<!--										-->
<!--    Contact the author David Bellot at bellot@stat.berkeley.edu or 		-->
<!--    david.bellot@free.fr or yimyom@users.sourceforge.net			-->
<svg  width="167.0864258pt" height="242.6679688pt" viewBox="0 0 167.0864258 242.6679688" xml:space="preserve">
	<g id="Layer_x0020_1" style="&st4;">
		<path style="&st2;" d="M166.8364258,235.546875c0,3.7773438-3.0859375,6.8710938-6.8691406,6.8710938H7.1113281c-3.7753906,0-6.8613281-3.09375-6.8613281-6.8710938V7.1201172C0.25,3.3427734,3.3359375,0.25,7.1113281,0.25h152.855957
			c3.7832031,0,6.8691406,3.0927734,6.8691406,6.8701172V235.546875z"/>
		<g>
			<path style="&st1;" d="M152.4243164,222.1074219c0,3.3359375-2.5546875,6.0683594-5.6855469,6.0683594H20.2636719c-3.1230469,0-5.6777344-2.7324219-5.6777344-6.0683594V20.3105469c0-3.3378906,2.5546875-6.0693359,5.6777344-6.0693359h126.4750977
				c3.1308594,0,5.6855469,2.7314453,5.6855469,6.0693359v201.796875z"/>
			<path style="&st3;" d="M151.8842773,222.1074219c0,1.7177734-7.4492188-3.8867188-8.5332031-2.7792969c-1.0224609,1.0429688,4.90625,13.9492188,3.3876953,13.9492188c-3.0332031,0-3.0332031-4.84375-6.0673828-4.84375
				c-3.0810547,0-3.0810547,2.8408203-6.1630859,2.8408203c-3.0478516,0-3.0478516-11.8652344-6.0957031-11.8652344c-3.0136719,0-3.0136719,13.7216797-6.0273438,13.7216797c-3.0761719,0-3.0761719,1.4013672-6.1513672,1.4013672
				c-3.0517578,0-3.0517578-10.9355469-6.1044922-10.9355469c-3.03125,0-3.03125,3.5634766-6.0625,3.5634766c-3.0136719,0-3.0136719-6.4941406-6.0273438-6.4941406c-3.0019531,0-3.0019531,14.2666016-6.0029297,14.2666016
				c-2.9951172,0-2.9951172-0.4365234-5.9902344-0.4365234c-2.9970703,0-2.9970703,2.7890625-5.9936523,2.7890625c-3.0102539,0-3.0102539-4.6123047-6.0200195-4.6123047c-3.0380859,0-3.0380859,3.2822266-6.0761719,3.2822266
				c-3.0883789,0-3.0883789,2.2519531-6.1767578,2.2519531c-3.0332031,0-3.0332031-7.4355469-6.065918-7.4355469c-2.9907227,0-2.9907227,4.4228516-5.9814453,4.4228516c-2.9702148,0-2.9702148,1.5771484-5.940918,1.5771484
				c-2.9882813,0-2.9882813-4.8613281-5.9765625-4.8613281c-3.0742188,0-3.0742188-0.6181641-6.1484375-0.6181641c-2.887207,0-2.887207-3.3935547-5.7744141-3.3935547c-2.8144531,0-2.8144531-10.2939453-5.628418-10.2939453
				c-1.6098633,0-5.6635742,12.1611328-6.6992188,11c-0.9736328-1.0908203,1.2080078-4.8808594,1.2080078-6.4970703c0-2.9804688,4.6831055-2.9804688,4.6831055-5.9619141c0-2.9941406,1.4091797-2.9941406,1.4091797-5.9882813
				c0-3.0097656,0.8837891-3.0097656,0.8837891-6.0195313c0-3.0273438-10.3334961-3.0273438-10.3334961-6.0546875c0-2.9736328,4.1210938-2.9736328,4.1210938-5.9472656c0-2.9931641-1.0424805-2.9931641-1.0424805-5.9873047
				c0-3.015625,1.284668-3.015625,1.284668-6.03125c0-2.9648438-0.4921875-2.9648438-0.4921875-5.9287109c0-2.9902344-1.6176758-2.9902344-1.6176758-5.9804688c0-3.0195313,4.3486328-3.0195313,4.3486328-6.0390625
				c0-2.9716797-12.8901367-2.9716797-12.8901367-5.9433594c0-3.0068359,2.8984375-3.0068359,2.8984375-6.0126953c0-2.9609375,13.1342773-2.9609375,13.1342773-5.921875c0-3.0019531-2.2666016-3.0019531-2.2666016-6.0039063
				c0-2.9609375,2.2714844-2.9609375,2.2714844-5.9208984c0-3.0087891-6.4335938-3.0087891-6.4335938-6.0185547c0-2.9746094-8.8959961-2.9746094-8.8959961-5.9492188c0-3.0351563,12.2280273-3.0351563,12.2280273-6.0703125
				c0-3.0097656,4.0673828-3.0097656,4.0673828-6.019043c0-2.9868164,0.3930664-2.9868164,0.3930664-5.9731445c0-2.9667969-6.1308594-2.9667969-6.1308594-5.934082c0-2.9521484,2.3793945-2.9521484,2.3793945-5.9042969
				c0-2.9428711,4.8930664-2.9428711,4.8930664-5.8857422c0-2.940918-4.2666016-2.940918-4.2666016-5.8823242c0-2.9501953,3.3496094-2.9501953,3.3496094-5.8999023c0-2.9731445,1.628418-2.9731445,1.628418-5.9467773
				c0-3.0175781-13.8803711-3.0175781-13.8803711-6.034668c0-2.9536133,3.1635742-2.9536133,3.1635742-5.9067383c0-2.9003906-0.4282227-2.9003906-0.4282227-5.8012695c0-3.0200195-6.2143555-3.0200195-6.2143555-6.0405273
				c0-2.8901367,4.0429688-2.8901367,4.0429688-5.7802734c0-2.9550781,0.7875977-2.9550781,0.7875977-5.9101563c0-2.925293,7.1977539-2.925293,7.1977539-5.8505859c0-2.6240234-6.730957-2.6240234-6.730957-5.2480469
				c0-1.7202148,7.8720703,1.5449219,8.9575195,0.4379883c1.0200195-1.0410156-2.5214844-13.0927734-1.0083008-13.0927734c3.0336914,0,3.0336914,17.1811523,6.0673828,17.1811523c3.081543,0,3.081543-5.527832,6.1635742-5.527832
				c3.0473633,0,3.0473633-8.7583008,6.0947266-8.7583008c3.0136719,0,3.0136719-5.9301758,6.027832-5.9301758c3.0756836,0,3.0756836,10.8876953,6.1513672,10.8876953c3.0522461,0,3.0522461,6.8745117,6.1044922,6.8745117
				c3.0307617,0,3.0307617-7.206543,6.0620117-7.206543c3.0136719,0,3.0136719-1.9238281,6.027832-1.9238281c3.0014648,0,3.0014648-6.9233398,6.0029297-6.9233398c2.9946289,0,2.9946289,7.4135742,5.9897461,7.4135742
				c2.9970703,0,2.9970703,4.4414063,5.9941406,4.4414063c3.0097656,0,3.0097656-10.7319336,6.0195313-10.7319336c3.0390625,0,3.0390625,4.3203125,6.0771484,4.3203125c3.0888672,0,3.0888672,5.3520508,6.1767578,5.3520508
				c3.0332031,0,3.0332031-9.2182617,6.0654297-9.2182617c2.9912109,0,2.9912109,8.3110352,5.9814453,8.3110352c2.9707031,0,2.9707031-2.1264648,5.9404297-2.1264648c2.9882813,0,2.9882813,8.3530273,5.9765625,8.3530273
				c3.0751953,0,3.0751953-4.0117188,6.1494141-4.0117188c2.8867188,0,2.8867188-8.7001953,5.7734375-8.7001953c2.8144531,0,2.8144531,0.8510742,5.6289063,0.8510742c1.6123047,0,6.2255859,1.5600586,7.2617188,2.7182617
				c0.9765625,1.0913086,2.4472656,5.3901367,2.4472656,7.0092773c0,2.980957-7.1923828,2.980957-7.1923828,5.9619141c0,2.9941406,4.5625,2.9941406,4.5625,5.9887695c0,3.0092773,8.4072266,3.0092773,8.4072266,6.019043
				c0,3.0273438-10.7939453,3.0273438-10.7939453,6.0546875c0,2.9736328,8.6914063,2.9736328,8.6914063,5.9472656c0,2.9931641-4.1904297,2.9931641-4.1904297,5.9868164c0,3.0161133-13.1962891,3.0161133-13.1962891,6.0317383
				c0,2.9648438,4.7705078,2.9648438,4.7705078,5.9291992c0,2.9897461-4.5039063,2.9897461-4.5039063,5.9799805c0,3.0195313,13.7099609,3.0195313,13.7099609,6.0385742c0,2.972168-5.1025391,2.972168-5.1025391,5.9438477
				c0,3.0058594,9.8945313,3.0058594,9.8945313,6.012207c0,2.9614258-15.1308594,2.9614258-15.1308594,5.9223633c0,3.0019531,13.9863281,3.0019531,13.9863281,6.003418c0,2.9604492-17.6240234,2.9604492-17.6240234,5.9213867
				c0,3.0092773,7.0800781,3.0092773,7.0800781,6.0185547c0,2.9746094,1.9111328,2.9746094,1.9111328,5.9492188c0,3.0351563,9.4394531,3.0351563,9.4394531,6.0703125c0,3.0097656-3.7597656,3.0097656-3.7597656,6.0185547
				c0,2.9873047-13.8740234,2.9873047-13.8740234,5.9736328c0,2.9667969,10.0888672,2.9667969,10.0888672,5.9345703c0,2.9521484-2.6220703,2.9521484-2.6220703,5.9033203c0,2.9433594-3.0722656,2.9433594-3.0722656,5.8857422
				c0,2.9414063-1.4638672,2.9414063-1.4638672,5.8828125c0,2.9501953,4.4208984,2.9501953,4.4208984,5.9003906c0,2.9736328,1.15625,2.9736328,1.15625,5.9462891c0,3.0175781,8.5712891,3.0175781,8.5712891,6.0341797
				c0,2.9541016,2.4511719,2.9541016,2.4511719,5.9072266c0,2.9003906-6.5214844,2.9003906-6.5214844,5.8017578c0,3.0205078-1.390625,3.0205078-1.390625,6.0400391c0,2.890625,1.6464844,2.890625,1.6464844,5.7802734c0,2.9550781-0.4375,2.9550781-0.4375,5.9101563
				c0,2.9248047-3.8457031,2.9248047-4.03125,5.8447266c-0.1679688,2.6357422-0.4443359,2.6298828-0.4443359,5.2539063z"/>
			<path style="&st0;" d="M154.3803711,222.1074219c0,0.7236328-2.6572266,1.2197266-2.8769531,1.8642578c-0.1953125,0.5732422,0.7402344,1.75,0.4013672,2.2285156c-0.3896484,0.5498047,2.6328125,6.4003906,2.09375,6.7832031
				c-0.4716797,0.3339844-3.4707031,0.0449219-4.0263672,0.21875c-0.5029297,0.1572266-2.6835938-14.4189453-3.2333984-14.4189453c-0.9150391,0-0.9150391,4.0419922-1.8300781,4.0419922c-0.9277344,0-0.9277344,12.5263672-1.8554688,12.5263672
				c-0.9414063,0-0.9414063-7.3222656-1.8828125-7.3222656c-0.9042969,0-0.9042969-8.9746094-1.8076172-8.9746094c-0.9169922,0-0.9169922,1.015625-1.8339844,1.015625c-0.9306641,0-0.9306641-1.5371094-1.8613281-1.5371094
				c-0.9443359,0-0.9443359,13.4550781-1.8896484,13.4550781c-0.9072266,0-0.9072266-1.6855469-1.8144531-1.6855469c-0.9208984,0-0.9208984-0.9628906-1.8417969-0.9628906c-0.9355469,0-0.9355469-6.3027344-1.8710938-6.3027344
				c-0.9511719,0-0.9511719,2.1689453-1.9023438,2.1689453c-0.9121094,0-0.9121094,13.0400391-1.8251953,13.0400391c-0.9267578,0-0.9267578-18.9736328-1.8544922-18.9736328c-0.9433594,0-0.9433594,16.8515625-1.8867188,16.8515625
				c-0.9042969,0-0.9042969,1.3486328-1.8095703,1.3486328c-0.9199219,0-0.9199219-3.2324219-1.8398438-3.2324219c-0.9365234,0-0.9365234-4.796875-1.8730469-4.796875c-0.8964844,0-0.8964844-3.6728516-1.7929688-3.6728516
				c-0.9130859,0-0.9130859,7.6279297-1.8261719,7.6279297c-0.9306641,0-0.9306641,4.7490234-1.8603516,4.7490234c-0.9492188,0-0.9492188-6.6689453-1.8974609-6.6689453c-0.9072266,0-0.9072266-13.6748047-1.8154297-13.6748047
				c-0.9257813,0-0.9257813,11.140625-1.8525391,11.140625c-0.9453125,0-0.9453125-7.6269531-1.890625-7.6269531c-0.9033203,0-0.9033203,3.734375-1.8076172,3.734375c-0.9238281,0-0.9238281,12.3125-1.8466797,12.3125
				c-0.9443359,0-0.9443359-6.0380859-1.8876953-6.0380859c-0.9023438,0-0.9023438-6.84375-1.8037109-6.84375c-0.9228516,0-0.9228516,5.3066406-1.8447266,5.3066406c-0.9433594,0-0.9433594-7.4589844-1.8876953-7.4589844
				c-0.9013672,0-0.9013672,2.5986328-1.8037109,2.5986328c-0.9238281,0-0.9238281,2.3974609-1.8476563,2.3974609c-0.9472656,0-0.9472656,2.5908203-1.8945313,2.5908203c-0.9042969,0-0.9042969-10.3330078-1.8085938-10.3330078
				c-0.9282227,0-0.9282227,3.0205078-1.8564453,3.0205078c-0.8847656,0-0.8847656,13.1123047-1.769043,13.1123047c-0.9086914,0-0.9086914-10.9628906-1.8173828-10.9628906c-0.9350586,0-0.9350586-1.7802734-1.8696289-1.7802734
				c-0.890625,0-0.890625-3.0576172-1.7817383-3.0576172c-0.9174805,0-0.9174805,8.9941406-1.8354492,8.9941406c-0.9467773,0-0.9467773-0.9824219-1.8935547-0.9824219c-0.9023438,0-0.9023438-7.3583984-1.8051758-7.3583984
				c-0.9331055,0-0.9331055,0.8818359-1.8657227,0.8818359c-0.8876953,0-0.8876953-2.6621094-1.7758789-2.6621094c-0.9194336,0-0.9194336-0.1230469-1.8388672-0.1230469c-0.8735352,0-0.8735352,19.2988281-1.7475586,19.2988281
				c-0.9067383,0-0.9067383-18.4179688-1.8134766-18.4179688c-0.9443359,0-0.9443359,15.0351563-1.8881836,15.0351563c-0.8989258,0-0.8989258-4.2265625-1.7973633-4.2265625c-0.9389648,0-0.9389648-12.5537109-1.8779297-12.5537109
				c-0.8935547,0-0.8935547,12.5800781-1.7866211,12.5800781c-0.9370117,0-0.9370117-1.9570313-1.8745117-1.9570313c-0.8916016,0-0.8916016,8.9716797-1.7836914,8.9716797c-0.9404297,0-0.9404297-9.1044922-1.8808594-9.1044922
				c-0.8959961,0-0.8959961-3.3085938-1.7924805-3.3085938c-0.8496094,0-0.8496094,3.6552734-1.6987305,3.6552734c-0.902832,0-0.902832-10.5322266-1.8051758-10.5322266c-0.8574219,0-0.8574219,2.375-1.715332,2.375
				c-0.9204102,0-0.9204102,10.7763672-1.8413086,10.7763672c-0.8798828,0-0.8798828-8.6181641-1.7592773-8.6181641c-0.8359375,0-0.8359375,3.2099609-1.671875,3.2099609c-0.9145508,0-0.9145508,7.65625-1.8291016,7.65625
				c-0.8813477,0-0.8813477-2.8564453-1.7626953-2.8564453c-0.847168,0-0.847168-5.9150391-1.6948242-5.9150391c-0.8139648,0-0.8139648,0.9775391-1.6279297,0.9775391c-0.9389648,0-0.9389648-0.8955078-1.8779297-0.8955078
				c-0.7783203,0-0.7783203,7.6943359-1.5566406,7.6943359c-0.7636719,0-0.7636719-7.8916016-1.5268555-7.8916016c-0.7612305,0-0.7612305,10.2919922-1.5229492,10.2919922c-0.6923828,0-0.6923828-2.8466797-1.3852539-2.8466797
				c-0.6777344,0-3.9399414,2.6689453-4.543457,2.4335938c-0.6020508-0.2353516-4.0454102-0.9501953-4.5336914-1.375c-0.4824219-0.4208984,7.5585938-8.9785156,7.2260742-9.5439453c-0.2856445-0.484375-11.1948242,2.7626953-11.3432617,2.1992188
				c-0.137207-0.5205078,12.9360352-3.1054688,12.9360352-3.6708984c0-0.90625-7.7753906-0.90625-7.7753906-1.8115234c0-0.9130859-6.1391602-0.9130859-6.1391602-1.8271484c0-0.921875,18.3608398-0.921875,18.3608398-1.84375
				c0-0.9296875-5.6674805-0.9296875-5.6674805-1.8603516c0-0.9384766-5.7490234-0.9384766-5.7490234-1.8769531c0-0.9072266-4.8198242-0.9072266-4.8198242-1.8134766c0-0.9150391,4.8603516-0.9150391,4.8603516-1.8300781
				c0-0.9238281,6.3227539-0.9238281,6.3227539-1.8466797c0-0.9326172-3.6420898-0.9326172-3.6420898-1.8642578c0-0.8994141-4.1411133-0.8994141-4.1411133-1.7988281c0-0.9082031,13.2207031-0.9082031,13.2207031-1.8164063
				c0-0.9169922-8.8076172-0.9169922-8.8076172-1.8339844c0-0.9257813,0.4624023-0.9257813,0.4624023-1.8515625c0-0.9355469-6.1333008-0.9355469-6.1333008-1.8701172c0-0.9013672,11.8027344-0.9013672,11.8027344-1.8037109
				c0-0.9111328-5.4228516-0.9111328-5.4228516-1.8222656c0-0.9199219-6.6308594-0.9199219-6.6308594-1.8398438c0-0.9296875-5.3515625-0.9296875-5.3515625-1.859375c0-0.9394531,17.5126953-0.9394531,17.5126953-1.8789063
				c0-0.90625-0.1391602-0.90625-0.1391602-1.8115234c0-0.9150391,1.597168-0.9150391,1.597168-1.8310547c0-0.9257813-7.7885742-0.9257813-7.7885742-1.8505859c0-0.9345703-3.378418-0.9345703-3.378418-1.8701172
				c0-0.9013672,0.9257813-0.9013672,0.9257813-1.8027344c0-0.9111328-6.046875-0.9111328-6.046875-1.8222656c0-0.921875-2.1640625-0.921875-2.1640625-1.8427734c0-0.9316406,15.7856445-0.9316406,15.7856445-1.8632813
				c0-0.8974609-15.1748047-0.8974609-15.1748047-1.7939453c0-0.9072266-1.7978516-0.9072266-1.7978516-1.8144531c0-0.9179688,1.4404297-0.9179688,1.4404297-1.8359375c0-0.9296875,4.128418-0.9296875,4.128418-1.8583984
				c0-0.9404297,8.890625-0.9404297,8.890625-1.8798828c0-0.9052734,6.6435547-0.9052734,6.6435547-1.8105469c0-0.9160156-14.0805664-0.9160156-14.0805664-1.8320313c0-0.9277344,6.2231445-0.9277344,6.2231445-1.8544922
				c0-0.9394531,0.546875-0.9394531,0.546875-1.8789063c0-0.9033203-5.8256836-0.9033203-5.8256836-1.8066406c0-0.9150391,7.8447266-0.9150391,7.8447266-1.8300781c0-0.9267578-12.7011719-0.9267578-12.7011719-1.8544922
				c0-0.9394531-0.7885742-0.9394531-0.7885742-1.8798828c0-0.9033203,8.7260742-0.9033203,8.7260742-1.8056641c0-0.9160156-5.8110352-0.9160156-5.8110352-1.8310547c0-0.9287109,6.3232422-0.9287109,6.3232422-1.8564453
				c0-0.8916016-2.0913086-0.8916016-2.0913086-1.7832031c0-0.9042969-5.5703125-0.9042969-5.5703125-1.8076172c0-0.9169922,17.2402344-0.9169922,17.2402344-1.8330078c0-0.9296875-10.5415039-0.9296875-10.5415039-1.8603516
				c0-0.8935547-3.0332031-0.8935547-3.0332031-1.7861328c0-0.90625,13.4331055-0.90625,13.4331055-1.8115234c0-0.9199219-8.6196289-0.9199219-8.6196289-1.8398438c0-0.9345703,5.0966797-0.9345703,5.0966797-1.8681641
				c0-0.8964844-16.3232422-0.8964844-16.3232422-1.7929688c0-0.9101563,13.2485352-0.9101563,13.2485352-1.8203125c0-0.9257813,3.1523438-0.9257813,3.1523438-1.8505859c0-0.8867188-5.1401367-0.8867188-5.1401367-1.7729492
				c0-0.9008789,1.0478516-0.9008789,1.0478516-1.8022461c0-0.9165039-1.9233398-0.9165039-1.9233398-1.8330078c0-0.9326172,4.362793-0.9326172,4.362793-1.8657227c0-0.8930664-9.8574219-0.8930664-9.8574219-1.7866211
				c0-0.9091797-1.9067383-0.9091797-1.9067383-1.8183594c0-0.9262695,7.7636719-0.9262695,7.7636719-1.8525391c0-0.8857422-5.9365234-0.8857422-5.9365234-1.7714844c0-0.902832,3.8959961-0.902832,3.8959961-1.8056641
				c0-0.9204102,9.8989258-0.9204102,9.8989258-1.8408203c0-0.9389648-7.3789063-0.9389648-7.3789063-1.8779297c0-0.8984375-3.2055664-0.8984375-3.2055664-1.7963867c0-0.9169922,6.8217773-0.9169922,6.8217773-1.8339844
				c0-0.9370117-3.7880859-0.9370117-3.7880859-1.8735352c0-0.8950195-6.7182617-0.8950195-6.7182617-1.7900391c0-0.9150391,0.2075195-0.9150391,0.2075195-1.8300781c0-0.9360352,12.0380859-0.9360352,12.0380859-1.8720703
				c0-0.894043-6.2338867-0.894043-6.2338867-1.7880859c0-0.9150391,7.8266602-0.9150391,7.8266602-1.8305664c0-0.9379883-6.1879883-0.9379883-6.1879883-1.8759766c0-0.8950195-7.222168-0.8950195-7.222168-1.7905273
				c0-0.9179688-3.347168-0.9179688-3.347168-1.8364258c0-0.8745117-1.84375-0.8745117-1.84375-1.7490234c0-0.8979492,15.2407227-0.8979492,15.2407227-1.7958984c0-0.9233398-0.5244141-0.9233398-0.5244141-1.8461914
				c0-0.8789063-15.3740234-0.8789063-15.3740234-1.7578125c0-0.9047852,16.8530273-0.9047852,16.8530273-1.8095703c0-0.9326172,3.4702148-0.9326172,3.4702148-1.8652344c0-0.8876953-13.1264648-0.8876953-13.1264648-1.7758789
				c0-0.9169922,5.71875-0.9169922,5.71875-1.8339844c0-0.871582,7.9638672-0.871582,7.9638672-1.7431641c0-0.9013672-14.1791992-0.9013672-14.1791992-1.8027344c0-0.9345703-4.3701172-0.9345703-4.3701172-1.8691406
				c0-0.8891602,5.6469727-0.8891602,5.6469727-1.7783203c0-0.9243164,11.7587891-0.9243164,11.7587891-1.8486328c0-0.878418-8.3251953-0.878418-8.3251953-1.7563477c0-0.9155273,6.5009766-0.9155273,6.5009766-1.8310547
				c0-0.8691406-4.9995117-0.8691406-4.9995117-1.7382813c0-0.9091797,5.9526367-0.9091797,5.9526367-1.8183594c0-0.8623047-15.5712891-0.8623047-15.5712891-1.7246094c0-0.90625,4.6137695-0.90625,4.6137695-1.8125
				c0-0.859375,11.3554688-0.859375,11.3554688-1.71875c0-0.9082031-14.8857422-0.9082031-14.8857422-1.8168945c0-0.862793-3.8305664-0.862793-3.8305664-1.7250977c0-0.918457-0.215332-0.918457-0.215332-1.8369141c0-0.875,18.0395508-0.875,18.0395508-1.7495117
				c0-0.8286133-18.6040039-0.8286133-18.6040039-1.6572266c0-0.894043,7.8051758-0.894043,7.8051758-1.7880859c0-0.8520508,5.5585938-0.8520508,5.5585938-1.7045898c0-0.8085938-11.746582-0.8085938-11.746582-1.6166992
				c0-0.8920898,7.8891602-0.8920898,7.8891602-1.7841797c0-0.8608398-5.503418-0.8608398-5.503418-1.7216797c0-0.8305664,1.0205078-0.8305664,1.0205078-1.6611328c0-0.8022461-4.6152344-0.8022461-4.6152344-1.6049805
				c0-0.7788086,12.8330078-0.7788086,12.8330078-1.5576172c0-0.7636719,0.0048828-0.7636719,0.0048828-1.5268555c0-0.762207,6.4414063-0.762207,6.4414063-1.5239258c0-0.6904297-19.4399414-0.6904297-19.4399414-1.3808594
				c0-0.6337891,18.2797852,1.0581055,18.4506836,0.4824219c0.1972656-0.6660156-3.4375-0.8725586-3.0507813-1.418457c0.3896484-0.550293-1.8149414-2.1176758-1.2763672-2.5c0.472168-0.3344727,1.1489258,1.9833984,1.7041016,1.8105469
				c0.5009766-0.1557617-0.2783203-1.7397461,0.2680664-1.7397461c0.9150391,0,0.9150391-6.8652344,1.8300781-6.8652344c0.9282227,0,0.9282227,1.628418,1.855957,1.628418c0.9414063,0,0.9414063-1.7192383,1.8823242-1.7192383
				c0.9038086,0,0.9038086,7.7753906,1.8081055,7.7753906c0.9169922,0,0.9169922-1.6791992,1.8339844-1.6791992c0.9306641,0,0.9306641-1.6416016,1.8613281-1.6416016c0.9448242,0,0.9448242-9.8071289,1.8896484-9.8071289
				c0.9072266,0,0.9072266,16.690918,1.8139648,16.690918c0.9213867,0,0.9213867,2.059082,1.8422852,2.059082c0.9355469,0,0.9355469-17.0996094,1.8710938-17.0996094c0.9511719,0,0.9511719,0.1630859,1.9018555,0.1630859
				c0.9125977,0,0.9125977,0.3535156,1.824707,0.3535156c0.9277344,0,0.9277344,9.8901367,1.8554688,9.8901367c0.9433594,0,0.9433594-11.1889648,1.8867188-11.1889648c0.9042969,0,0.9042969,9.1367188,1.8085938,9.1367188
				c0.9199219,0,0.9199219-6.1933594,1.840332-6.1933594c0.9360352,0,0.9360352,15.3662109,1.8725586,15.3662109c0.8969727,0,0.8969727-17.4130859,1.7939453-17.4130859c0.9130859,0,0.9130859,15.706543,1.8261719,15.706543
				c0.9301758,0,0.9301758-16.9731445,1.8603516-16.9731445c0.9482422,0,0.9482422,9.3857422,1.8964844,9.3857422c0.9082031,0,0.9082031-2.0239258,1.8164063-2.0239258c0.9257813,0,0.9257813-5.9580078,1.8520508-5.9580078
				c0.9448242,0,0.9448242-0.4624023,1.8901367-0.4624023c0.9042969,0,0.9042969,18.4360352,1.8085938,18.4360352c0.9233398,0,0.9233398-0.9882813,1.8466797-0.9882813c0.9433594,0,0.9433594-0.2514648,1.887207-0.2514648
				c0.9018555,0,0.9018555-6.7753906,1.8037109-6.7753906c0.9223633,0,0.9223633-7.421875,1.8447266-7.421875c0.9438477,0,0.9438477,9.3076172,1.8881836,9.3076172c0.9018555,0,0.9018555-12.2685547,1.8037109-12.2685547
				c0.9238281,0,0.9238281-0.5131836,1.847168-0.5131836c0.9472656,0,0.9472656,5.8149414,1.8945313,5.8149414c0.9042969,0,0.9042969-3.1728516,1.8085938-3.1728516c0.9282227,0,0.9282227-2.7275391,1.855957-2.7275391
				c0.8847656,0,0.8847656,4.3681641,1.7695313,4.3681641c0.9082031,0,0.9082031,12.0351563,1.8173828,12.0351563c0.9345703,0,0.9345703-12.534668,1.8701172-12.534668c0.890625,0,0.890625,11.6875,1.78125,11.6875
				c0.9179688,0,0.9179688,2.390625,1.8349609,2.390625c0.9472656,0,0.9472656-17.1235352,1.8945313-17.1235352c0.9023438,0,0.9023438,3.6308594,1.8046875,3.6308594c0.9326172,0,0.9326172-2.0136719,1.8662109-2.0136719
				c0.8876953,0,0.8876953,14.4589844,1.7753906,14.4589844c0.9199219,0,0.9199219-8.4052734,1.8388672-8.4052734c0.8740234,0,0.8740234,1.6669922,1.7470703,1.6669922c0.90625,0,0.90625-9.8330078,1.8134766-9.8330078
				c0.9443359,0,0.9443359,4.2929688,1.8886719,4.2929688c0.8994141,0,0.8994141-0.4057617,1.7978516-0.4057617c0.9384766,0,0.9384766,3.3178711,1.8769531,3.3178711c0.8935547,0,0.8935547-5.840332,1.7871094-5.840332
				c0.9375,0,0.9375,16.9990234,1.8740234,16.9990234c0.8916016,0,0.8916016-20.5854492,1.7841797-20.5854492c0.9404297,0,0.9404297,17.4306641,1.8808594,17.4306641c0.8964844,0,0.8964844-15.4619141,1.7919922-15.4619141
				c0.8496094,0,0.8496094,7.5976563,1.6992188,7.5976563c0.9033203,0,0.9033203,2.4467773,1.8056641,2.4467773c0.8574219,0,0.8574219-10.0908203,1.7148438-10.0908203c0.9208984,0,0.9208984,6.3603516,1.8417969,6.3603516
				c0.8789063,0,0.8789063,3.9926758,1.7587891,3.9926758c0.8359375,0,0.8359375,5.2387695,1.671875,5.2387695c0.9150391,0,0.9150391-1.4726563,1.8291016-1.4726563c0.8808594,0,0.8808594-10.9736328,1.7626953-10.9736328
				c0.8466797,0,0.8466797,8.0366211,1.6943359,8.0366211c0.8144531,0,0.8144531-3.4492188,1.6279297-3.4492188c0.9384766,0,0.9384766,10.6679688,1.8779297,10.6679688c0.7792969,0,0.7792969-8.4731445,1.5576172-8.4731445
				c0.7626953,0,0.7626953,1.0537109,1.5263672,1.0537109c0.7617188,0,0.7617188-8.8618164,1.5234375-8.8618164c0.6923828,0,0.6923828-1.7553711,1.3847656-1.7553711c0.6787109,0-1.1923828,14.9506836-0.5878906,15.1855469
				c0.6025391,0.234375,4.1474609-6.4516602,4.6367188-6.0268555c0.4824219,0.4204102-2.8613281,3.4047852-2.5283203,3.9692383c0.2861328,0.4848633-5.6816406,1.5732422-5.5332031,2.1362305c0.1376953,0.5219727,2.8125-1.4296875,2.8125-0.8623047
				c0,0.9057617,15.1689453,0.9057617,15.1689453,1.8115234c0,0.9140625-15.2646484,0.9140625-15.2646484,1.8276367c0,0.9213867,16.7832031,0.9213867,16.7832031,1.8432617c0,0.9301758-16.5595703,0.9301758-16.5595703,1.8603516
				c0,0.9384766,10.6923828,0.9384766,10.6923828,1.8774414c0,0.9067383,6.6455078,0.9067383,6.6455078,1.8129883c0,0.9150391-2.25,0.9150391-2.25,1.8295898c0,0.9233398-4.7851563,0.9233398-4.7851563,1.8466797
				c0,0.9321289-3.6904297,0.9321289-3.6904297,1.8642578c0,0.8999023-8.6503906,0.8999023-8.6503906,1.7993164c0,0.9082031,11.1308594,0.9082031,11.1308594,1.8164063c0,0.9169922,6.4453125,0.9169922,6.4453125,1.8334961
				c0,0.9257813-3.4375,0.9257813-3.4375,1.8515625c0,0.9350586-4.2890625,0.9350586-4.2890625,1.8701172c0,0.9018555,5.46875,0.9018555,5.46875,1.8041992c0,0.9111328,0.6699219,0.9111328,0.6699219,1.8217773c0,0.9204102-9.5644531,0.9204102-9.5644531,1.840332
				c0,0.9296875,2.4267578,0.9296875,2.4267578,1.859375c0,0.9394531-7.4287109,0.9394531-7.4287109,1.8789063c0,0.90625,17.1640625,0.90625,17.1640625,1.8120117c0,0.9155273-1.7392578,0.9155273-1.7392578,1.8305664
				c0,0.9248047-15.5908203,0.9248047-15.5908203,1.8500977c0,0.9355469,10.3154297,0.9355469,10.3154297,1.8710938c0,0.9008789-4.7158203,0.9008789-4.7158203,1.8022461c0,0.9111328-0.0283203,0.9111328-0.0283203,1.8222656
				c0,0.9208984,7.1035156,0.9208984,7.1035156,1.8422852c0,0.9321289-15.0048828,0.9321289-15.0048828,1.8637695c0,0.8969727,8.4042969,0.8969727,8.4042969,1.7939453c0,0.9072266,2.9570313,0.9072266,2.9570313,1.8149414
				c0,0.9179688-8.3154297,0.9179688-8.3154297,1.8359375c0,0.9287109,4,0.9287109,4,1.8574219c0,0.9404297-3.0488281,0.9404297-3.0488281,1.8808594c0,0.9047852,0.0908203,0.9047852,0.0908203,1.8095703c0,0.9160156,2.9023438,0.9160156,2.9023438,1.8320313
				c0,0.9272461,12.0302734,0.9272461,12.0302734,1.8549805c0,0.9394531-7.3535156,0.9394531-7.3535156,1.8789063c0,0.9033203,7.8369141,0.9033203,7.8369141,1.8066406c0,0.9150391-0.09375,0.9150391-0.09375,1.8300781
				c0,0.9272461-2.1376953,0.9272461-2.1376953,1.8544922c0,0.9394531-13.7539063,0.9394531-13.7539063,1.8793945c0,0.9033203,10.578125,0.9033203,10.578125,1.8066406c0,0.9155273-0.5898438,0.9155273-0.5898438,1.8310547
				c0,0.9282227,5.7871094,0.9282227,5.7871094,1.8564453c0,0.8911133-18.3535156,0.8911133-18.3535156,1.7822266c0,0.9038086,1.0537109,0.9038086,1.0537109,1.8076172c0,0.9165039,17.3837891,0.9165039,17.3837891,1.8334961
				c0,0.9306641-9.5566406,0.9306641-9.5566406,1.8608398c0,0.8925781,9.0361328,0.8925781,9.0361328,1.7851563c0,0.9057617-14.1386719,0.9057617-14.1386719,1.8120117c0,0.9199219,11.2607422,0.9199219,11.2607422,1.8398438
				c0,0.9345703,4.4140625,0.9345703,4.4140625,1.8686523c0,0.8959961-1.8544922,0.8959961-1.8544922,1.7919922c0,0.9106445-3.8486328,0.9106445-3.8486328,1.8208008c0,0.925293,1.8115234,0.925293,1.8115234,1.8505859
				c0,0.8867188-11.4521484,0.8867188-11.4521484,1.7729492c0,0.9008789,11.6933594,0.9008789,11.6933594,1.8022461c0,0.9160156-6.1582031,0.9160156-6.1582031,1.8330078c0,0.9326172-2.3701172,0.9326172-2.3701172,1.8662109
				c0,0.8925781-3.3378906,0.8925781-3.3378906,1.7861328c0,0.9091797,12.6757813,0.9091797,12.6757813,1.8183594c0,0.9267578-8.3769531,0.9267578-8.3769531,1.8525391c0,0.8857422,8.3623047,0.8857422,8.3623047,1.7714844
				c0,0.9023438-3.7832031,0.9023438-3.7832031,1.8056641c0,0.9208984-13.5039063,0.9208984-13.5039063,1.8408203c0,0.9394531-1.046875,0.9394531-1.046875,1.8779297c0,0.8984375,4.9677734,0.8984375,4.9677734,1.796875
				c0,0.9169922,12.46875,0.9169922,12.46875,1.8330078c0,0.9375-1.9335938,0.9375-1.9335938,1.8740234c0,0.8955078,5.3398438,0.8955078,5.3398438,1.7900391c0,0.9150391-15.2363281,0.9150391-15.2363281,1.8300781
				c0,0.9355469,14.3808594,0.9355469,14.3808594,1.8720703c0,0.8935547-0.6142578,0.8935547-0.6142578,1.7880859c0,0.9150391-1.7900391,0.9150391-1.7900391,1.8300781c0,0.9375-0.4658203,0.9375-0.4658203,1.8759766
				c0,0.8955078-11.0859375,0.8955078-11.0859375,1.7910156c0,0.9179688-5.3867188,0.9179688-5.3867188,1.8359375c0,0.875,12.7080078,0.875,12.7080078,1.75c0,0.8974609,4.9707031,0.8974609,4.9707031,1.7958984
				c0,0.9228516-12.9443359,0.9228516-12.9443359,1.8457031c0,0.8789063,14.4550781,0.8789063,14.4550781,1.7578125c0,0.9042969-3.1943359,0.9042969-3.1943359,1.8095703c0,0.9326172-11.2666016,0.9326172-11.2666016,1.8652344
				c0,0.8876953,10.5732422,0.8876953,10.5732422,1.7763672c0,0.9169922-6.5771484,0.9169922-6.5771484,1.8339844c0,0.8710938,2.4941406,0.8710938,2.4941406,1.7421875c0,0.9013672,0.0625,0.9013672,0.0625,1.8027344
				c0,0.9355469-6.4589844,0.9355469-6.4589844,1.8701172c0,0.8896484,7.2871094,0.8896484,7.2871094,1.7783203c0,0.9238281-5.5917969,0.9238281-5.5917969,1.8486328c0,0.8779297,3.3984375,0.8779297,3.3984375,1.7558594
				c0,0.9150391,4.3105469,0.9150391,4.3105469,1.8310547c0,0.8691406,1.5947266,0.8691406,1.5947266,1.7382813c0,0.9091797,0.5625,0.9091797,0.5625,1.8183594c0,0.8623047-8.0957031,0.8623047-8.0957031,1.7246094c0,0.90625,2.0664063,0.90625,2.0664063,1.8125
				c0,0.859375,3.3779297,0.859375,3.3779297,1.71875c0,0.9082031,3.5458984,0.9082031,3.5458984,1.8164063c0,0.8632813-16.1904297,0.8632813-16.1904297,1.7255859c0,0.9189453,1.0263672,0.9189453,1.0263672,1.8369141c0,0.875,11.1318359,0.875,11.1318359,1.75
				c0,0.828125-2.6708984,0.828125-2.6708984,1.65625c0,0.8945313-4.7910156,0.8945313-4.7910156,1.7880859c0,0.8525391-2.1865234,0.8525391-2.1865234,1.7050781c0,0.8085938-1.0722656,0.8085938-1.0722656,1.6171875
				c0,0.8916016,14.5048828,0.8916016,14.5048828,1.7841797c0,0.8613281-2.6992188,0.8613281-2.6992188,1.7216797c0,0.8300781,1.6083984,0.8300781,1.6083984,1.6601563c0,0.8027344-0.0537109,0.8027344-0.0537109,1.6054688
				c0,0.7783203-7.1054688,0.7783203-7.1054688,1.5576172c0,0.7636719-5.5292969,0.7636719-5.5292969,1.5273438c0,0.7617188,12.1884766-4.2802734,12.6933594-3.7089844c0.7919922,0.8964844-3.9667969,5.9228516-3.9667969,6.6132813z"/>
		</g>
	</g>
</svg>
