<?xml version="1.0" encoding="utf-8"?>
<!-- Generator: Adobe Illustrator 9.0, SVG Export Plug-In  -->
<!DOCTYPE svg PUBLIC "-//W3C//DTD SVG 20000303 Stylable//EN"   "http://www.w3.org/TR/2000/03/WD-SVG-20000303/DTD/svg-20000303-stylable.dtd" [
	<!ENTITY st0 "fill-rule:nonzero;clip-rule:nonzero;fill:#FB0F0C;stroke:#FB0F0C;stroke-width:0.10125;stroke-miterlimit:4;">
	<!ENTITY st1 "fill-rule:evenodd;clip-rule:evenodd;stroke-miterlimit:10;">
	<!ENTITY st2 "fill:none;stroke-width:0.6075;stroke-miterlimit:10;">
	<!ENTITY st3 "fill:none;stroke:none;">
	<!ENTITY st4 "fill:#FFFFFF;stroke:#000000;stroke-width:0.5;">
]>
<!-- This set of SVG files is a complete cards game with figures, numbers	-->
<!--    and backs of cards completely designed in SVG.				-->
<!--    									-->
<!--    Copyright (C) 2004 David Bellot						-->
<!--										-->
<!--    This library is free software; you can redistribute it and/or		-->
<!--    modify it under the terms of the GNU Lesser General Public		-->
<!--    License as published by the Free Software Foundation; either		-->
<!--    version 2 of the License, or (at your option) any later version		-->
<!--										-->
<!--    This library is distributed in the hope that it will be useful,		-->
<!--    but WITHOUT ANY WARRANTY; without even the implied warranty of		-->
<!--    MERCHANTABILITY or FITNESS FOR A PARTICULAR PURPOSE.  See the GNU	-->
<!--    Lesser General Public License for more details.				-->
<!--										-->
<!--    You should have received a copy of the GNU Lesser General Public	-->
<!--    License along with this library; if not, write to the Free Software	-->
<!--    Foundation, Inc., 59 Temple Place, Suite 330, Boston, MA 02111-1307  USA-->
<!--										-->
<!--    Contact the author David Bellot at bellot@stat.berkeley.edu or 		-->
<!--    david.bellot@free.fr or yimyom@users.sourceforge.net			-->
<svg  width="167.0859375pt" height="242.6669922pt" viewBox="0 0 167.0859375 242.6669922" xml:space="preserve">
	<g id="Layer_x0020_1" style="&st0;">
		<path style="&st4;" d="M166.8359375,235.5478516c0,3.7773438-3.0859375,6.8691406-6.8701172,6.8691406H7.1108398c-3.7749023,0-6.8608398-3.0917969-6.8608398-6.8691406V7.1201172C0.25,3.3427734,3.3359375,0.25,7.1108398,0.25h152.8549805
			c3.7841797,0,6.8701172,3.0927734,6.8701172,6.8701172v228.4277344z"/>
		<path style="&st1;" d="M14.6342773,24.2456055h4.050293v4.0498047h-4.050293v-4.0498047z"/>
		<path style="&st3;" d="M6.3769531,7.7529297h154.3320313v227.2226563H6.3769531V7.7529297z"/>
		<path style="&st1;" d="M14.6342773,32.3457031h4.050293v4.0498047h-4.050293v-4.0498047z"/>
		<path style="&st1;" d="M14.6342773,40.4453125h4.050293v4.050293h-4.050293v-4.050293z"/>
		<path style="&st3;" d="M6.3769531,7.7529297h154.3320313v227.2226563H6.3769531V7.7529297z"/>
		<path style="&st1;" d="M14.6342773,48.5454102h4.050293v4.050293h-4.050293v-4.050293z"/>
		<path style="&st1;" d="M14.6342773,56.6455078h4.050293v4.0498047h-4.050293v-4.0498047z"/>
		<path style="&st3;" d="M6.3769531,7.7529297h154.3320313v227.2226563H6.3769531V7.7529297z"/>
		<path style="&st1;" d="M14.6342773,64.7456055h4.050293v4.0498047h-4.050293v-4.0498047z"/>
		<path style="&st1;" d="M10.5844727,20.1953125h4.0498047v4.050293h-4.0498047v-4.050293z"/>
		<path style="&st3;" d="M6.3769531,7.7529297h154.3320313v227.2226563H6.3769531V7.7529297z"/>
		<path style="&st1;" d="M10.5844727,28.2954102h4.0498047v4.050293h-4.0498047v-4.050293z"/>
		<path style="&st1;" d="M6.5341797,32.3457031h4.050293v4.0498047h-4.050293v-4.0498047z"/>
		<path style="&st3;" d="M6.3769531,7.7529297h154.3320313v227.2226563H6.3769531V7.7529297z"/>
		<path style="&st1;" d="M6.5341797,24.2456055h4.050293v4.0498047h-4.050293v-4.0498047z"/>
		<path style="&st1;" d="M10.5844727,12.0957031h4.0498047v4.0498047h-4.0498047v-4.0498047z"/>
		<path style="&st3;" d="M6.3769531,7.7529297h154.3320313v227.2226563H6.3769531V7.7529297z"/>
		<path style="&st1;" d="M6.5341797,16.1455078h4.050293v4.0498047h-4.050293v-4.0498047z"/>
		<path style="&st1;" d="M6.5341797,8.0454102h4.050293v4.050293h-4.050293v-4.050293z"/>
		<path style="&st3;" d="M6.3769531,7.7529297h154.3320313v227.2226563H6.3769531V7.7529297z"/>
		<path style="&st1;" d="M18.6845703,12.0957031h4.0498047v4.0498047h-4.0498047v-4.0498047z"/>
		<path style="&st1;" d="M14.6342773,16.1455078h4.050293v4.0498047h-4.050293v-4.0498047z"/>
		<path style="&st3;" d="M6.3769531,7.7529297h154.3320313v227.2226563H6.3769531V7.7529297z"/>
		<path style="&st1;" d="M14.6342773,8.0454102h4.050293v4.050293h-4.050293v-4.050293z"/>
		<path style="&st1;" d="M10.5844727,36.3955078h4.0498047v4.0498047h-4.0498047v-4.0498047z"/>
		<path style="&st3;" d="M6.3769531,7.7529297h154.3320313v227.2226563H6.3769531V7.7529297z"/>
		<path style="&st1;" d="M10.5844727,44.4956055h4.0498047v4.0498047h-4.0498047v-4.0498047z"/>
		<path style="&st1;" d="M6.5341797,48.5454102h4.050293v4.050293h-4.050293v-4.050293z"/>
		<path style="&st3;" d="M6.3769531,7.7529297h154.3320313v227.2226563H6.3769531V7.7529297z"/>
		<path style="&st1;" d="M6.5341797,40.4453125h4.050293v4.050293h-4.050293v-4.050293z"/>
		<path style="&st1;" d="M10.5844727,52.5957031h4.0498047v4.0498047h-4.0498047v-4.0498047z"/>
		<path style="&st3;" d="M6.3769531,7.7529297h154.3320313v227.2226563H6.3769531V7.7529297z"/>
		<path style="&st1;" d="M10.5844727,60.6953125h4.0498047v4.050293h-4.0498047v-4.050293z"/>
		<path style="&st1;" d="M6.5341797,64.7456055h4.050293v4.0498047h-4.050293v-4.0498047z"/>
		<path style="&st3;" d="M6.3769531,7.7529297h154.3320313v227.2226563H6.3769531V7.7529297z"/>
		<path style="&st1;" d="M6.5341797,56.6455078h4.050293v4.0498047h-4.050293v-4.0498047z"/>
		<path style="&st1;" d="M26.7841797,12.0957031h4.050293v4.0498047h-4.050293v-4.0498047z"/>
		<path style="&st3;" d="M6.3769531,7.7529297h154.3320313v227.2226563H6.3769531V7.7529297z"/>
		<path style="&st1;" d="M22.734375,16.1455078h4.0498047v4.0498047H22.734375v-4.0498047z"/>
		<path style="&st1;" d="M22.734375,8.0454102h4.0498047v4.050293H22.734375v-4.050293z"/>
		<path style="&st3;" d="M6.3769531,7.7529297h154.3320313v227.2226563H6.3769531V7.7529297z"/>
		<path style="&st1;" d="M34.8842773,12.0957031h4.050293v4.0498047h-4.050293v-4.0498047z"/>
		<path style="&st1;" d="M30.8344727,16.1455078h4.0498047v4.0498047h-4.0498047v-4.0498047z"/>
		<path style="&st3;" d="M6.3769531,7.7529297h154.3320313v227.2226563H6.3769531V7.7529297z"/>
		<path style="&st1;" d="M30.8344727,8.0454102h4.0498047v4.050293h-4.0498047v-4.050293z"/>
		<path style="&st1;" d="M42.984375,12.0957031h4.0498047v4.0498047H42.984375v-4.0498047z"/>
		<path style="&st3;" d="M6.3769531,7.7529297h154.3320313v227.2226563H6.3769531V7.7529297z"/>
		<path style="&st1;" d="M38.9345703,16.1455078h4.0498047v4.0498047h-4.0498047v-4.0498047z"/>
		<path style="&st1;" d="M38.9345703,8.0454102h4.0498047v4.050293h-4.0498047v-4.050293z"/>
		<path style="&st3;" d="M6.3769531,7.7529297h154.3320313v227.2226563H6.3769531V7.7529297z"/>
		<path style="&st1;" d="M51.0844727,12.0957031h4.0498047v4.0498047h-4.0498047v-4.0498047z"/>
		<path style="&st1;" d="M47.0341797,16.1455078h4.050293v4.0498047h-4.050293v-4.0498047z"/>
		<path style="&st3;" d="M6.3769531,7.7529297h154.3320313v227.2226563H6.3769531V7.7529297z"/>
		<path style="&st1;" d="M47.0341797,8.0454102h4.050293v4.050293h-4.050293v-4.050293z"/>
		<path style="&st1;" d="M59.1845703,12.0957031h4.0498047v4.0498047h-4.0498047v-4.0498047z"/>
		<path style="&st3;" d="M6.3769531,7.7529297h154.3320313v227.2226563H6.3769531V7.7529297z"/>
		<path style="&st1;" d="M55.1342773,16.1455078h4.050293v4.0498047h-4.050293v-4.0498047z"/>
		<path style="&st1;" d="M55.1342773,8.0454102h4.050293v4.050293h-4.050293v-4.050293z"/>
		<path style="&st3;" d="M6.3769531,7.7529297h154.3320313v227.2226563H6.3769531V7.7529297z"/>
		<path style="&st1;" d="M67.2841797,12.0957031h4.050293v4.0498047h-4.050293v-4.0498047z"/>
		<path style="&st1;" d="M63.234375,16.1455078h4.0498047v4.0498047H63.234375v-4.0498047z"/>
		<path style="&st3;" d="M6.3769531,7.7529297h154.3320313v227.2226563H6.3769531V7.7529297z"/>
		<path style="&st1;" d="M63.234375,8.0454102h4.0498047v4.050293H63.234375v-4.050293z"/>
		<path style="&st1;" d="M75.3842773,12.0957031h4.050293v4.0498047h-4.050293v-4.0498047z"/>
		<path style="&st3;" d="M6.3769531,7.7529297h154.3320313v227.2226563H6.3769531V7.7529297z"/>
		<path style="&st1;" d="M71.3344727,16.1455078h4.0498047v4.0498047h-4.0498047v-4.0498047z"/>
		<path style="&st1;" d="M71.3344727,8.0454102h4.0498047v4.050293h-4.0498047v-4.050293z"/>
		<path style="&st3;" d="M6.3769531,7.7529297h154.3320313v227.2226563H6.3769531V7.7529297z"/>
		<path style="&st1;" d="M83.484375,12.0957031h4.0498047v4.0498047H83.484375v-4.0498047z"/>
		<path style="&st1;" d="M79.4345703,16.1455078h4.0498047v4.0498047h-4.0498047v-4.0498047z"/>
		<path style="&st3;" d="M6.3769531,7.7529297h154.3320313v227.2226563H6.3769531V7.7529297z"/>
		<path style="&st1;" d="M79.4345703,8.0454102h4.0498047v4.050293h-4.0498047v-4.050293z"/>
		<path style="&st1;" d="M91.5839844,12.0957031h4.0507813v4.0498047h-4.0507813v-4.0498047z"/>
		<path style="&st3;" d="M6.3769531,7.7529297h154.3320313v227.2226563H6.3769531V7.7529297z"/>
		<path style="&st1;" d="M87.5341797,16.1455078h4.0498047v4.0498047h-4.0498047v-4.0498047z"/>
		<path style="&st1;" d="M87.5341797,8.0454102h4.0498047v4.050293h-4.0498047v-4.050293z"/>
		<path style="&st3;" d="M6.3769531,7.7529297h154.3320313v227.2226563H6.3769531V7.7529297z"/>
		<path style="&st1;" d="M99.6845703,12.0957031h4.0498047v4.0498047h-4.0498047v-4.0498047z"/>
		<path style="&st1;" d="M95.6347656,16.1455078h4.0498047v4.0498047h-4.0498047v-4.0498047z"/>
		<path style="&st3;" d="M6.3769531,7.7529297h154.3320313v227.2226563H6.3769531V7.7529297z"/>
		<path style="&st1;" d="M95.6347656,8.0454102h4.0498047v4.050293h-4.0498047v-4.050293z"/>
		<path style="&st1;" d="M107.7841797,12.0957031h4.0498047v4.0498047h-4.0498047v-4.0498047z"/>
		<path style="&st3;" d="M6.3769531,7.7529297h154.3320313v227.2226563H6.3769531V7.7529297z"/>
		<path style="&st1;" d="M103.734375,16.1455078h4.0498047v4.0498047h-4.0498047v-4.0498047z"/>
		<path style="&st1;" d="M103.734375,8.0454102h4.0498047v4.050293h-4.0498047v-4.050293z"/>
		<path style="&st3;" d="M6.3769531,7.7529297h154.3320313v227.2226563H6.3769531V7.7529297z"/>
		<path style="&st1;" d="M115.8847656,12.0957031h4.0498047v4.0498047h-4.0498047v-4.0498047z"/>
		<path style="&st1;" d="M111.8339844,16.1455078h4.0507813v4.0498047h-4.0507813v-4.0498047z"/>
		<path style="&st3;" d="M6.3769531,7.7529297h154.3320313v227.2226563H6.3769531V7.7529297z"/>
		<path style="&st1;" d="M111.8339844,8.0454102h4.0507813v4.050293h-4.0507813v-4.050293z"/>
		<path style="&st1;" d="M123.984375,12.0957031h4.0498047v4.0498047h-4.0498047v-4.0498047z"/>
		<path style="&st3;" d="M6.3769531,7.7529297h154.3320313v227.2226563H6.3769531V7.7529297z"/>
		<path style="&st1;" d="M119.9345703,16.1455078h4.0498047v4.0498047h-4.0498047v-4.0498047z"/>
		<path style="&st1;" d="M119.9345703,8.0454102h4.0498047v4.050293h-4.0498047v-4.050293z"/>
		<path style="&st3;" d="M6.3769531,7.7529297h154.3320313v227.2226563H6.3769531V7.7529297z"/>
		<path style="&st1;" d="M132.0839844,12.0957031h4.0507813v4.0498047h-4.0507813v-4.0498047z"/>
		<path style="&st1;" d="M128.0341797,16.1455078h4.0498047v4.0498047h-4.0498047v-4.0498047z"/>
		<path style="&st3;" d="M6.3769531,7.7529297h154.3320313v227.2226563H6.3769531V7.7529297z"/>
		<path style="&st1;" d="M128.0341797,8.0454102h4.0498047v4.050293h-4.0498047v-4.050293z"/>
		<path style="&st1;" d="M140.1845703,12.0957031h4.0498047v4.0498047h-4.0498047v-4.0498047z"/>
		<path style="&st3;" d="M6.3769531,7.7529297h154.3320313v227.2226563H6.3769531V7.7529297z"/>
		<path style="&st1;" d="M136.1347656,16.1455078h4.0498047v4.0498047h-4.0498047v-4.0498047z"/>
		<path style="&st1;" d="M136.1347656,8.0454102h4.0498047v4.050293h-4.0498047v-4.050293z"/>
		<path style="&st3;" d="M6.3769531,7.7529297h154.3320313v227.2226563H6.3769531V7.7529297z"/>
		<path style="&st1;" d="M14.6342773,72.8457031h4.050293v4.0498047h-4.050293v-4.0498047z"/>
		<path style="&st1;" d="M14.6342773,80.9453125h4.050293v4.050293h-4.050293v-4.050293z"/>
		<path style="&st3;" d="M6.3769531,7.7529297h154.3320313v227.2226563H6.3769531V7.7529297z"/>
		<path style="&st1;" d="M10.5844727,68.7954102h4.0498047v4.050293h-4.0498047v-4.050293z"/>
		<path style="&st1;" d="M10.5844727,76.8955078h4.0498047v4.0498047h-4.0498047v-4.0498047z"/>
		<path style="&st3;" d="M6.3769531,7.7529297h154.3320313v227.2226563H6.3769531V7.7529297z"/>
		<path style="&st1;" d="M6.5341797,80.9453125h4.050293v4.050293h-4.050293v-4.050293z"/>
		<path style="&st1;" d="M6.5341797,72.8457031h4.050293v4.0498047h-4.050293v-4.0498047z"/>
		<path style="&st3;" d="M6.3769531,7.7529297h154.3320313v227.2226563H6.3769531V7.7529297z"/>
		<path style="&st1;" d="M14.6342773,89.0454102h4.050293v4.050293h-4.050293v-4.050293z"/>
		<path style="&st1;" d="M14.6342773,97.1455078h4.050293v4.0498047h-4.050293v-4.0498047z"/>
		<path style="&st3;" d="M6.3769531,7.7529297h154.3320313v227.2226563H6.3769531V7.7529297z"/>
		<path style="&st1;" d="M10.5844727,84.9956055h4.0498047v4.0498047h-4.0498047v-4.0498047z"/>
		<path style="&st1;" d="M10.5844727,93.0957031h4.0498047v4.0498047h-4.0498047v-4.0498047z"/>
		<path style="&st3;" d="M6.3769531,7.7529297h154.3320313v227.2226563H6.3769531V7.7529297z"/>
		<path style="&st1;" d="M6.5341797,97.1455078h4.050293v4.0498047h-4.050293v-4.0498047z"/>
		<path style="&st1;" d="M6.5341797,89.0454102h4.050293v4.050293h-4.050293v-4.050293z"/>
		<path style="&st3;" d="M6.3769531,7.7529297h154.3320313v227.2226563H6.3769531V7.7529297z"/>
		<path style="&st1;" d="M14.6342773,105.2456055h4.050293v4.0498047h-4.050293v-4.0498047z"/>
		<path style="&st1;" d="M14.6342773,113.3457031h4.050293v4.0498047h-4.050293v-4.0498047z"/>
		<path style="&st3;" d="M6.3769531,7.7529297h154.3320313v227.2226563H6.3769531V7.7529297z"/>
		<path style="&st1;" d="M10.5844727,101.1953125h4.0498047v4.050293h-4.0498047v-4.050293z"/>
		<path style="&st1;" d="M10.5844727,109.2954102h4.0498047v4.050293h-4.0498047v-4.050293z"/>
		<path style="&st3;" d="M6.3769531,7.7529297h154.3320313v227.2226563H6.3769531V7.7529297z"/>
		<path style="&st1;" d="M6.5341797,113.3457031h4.050293v4.0498047h-4.050293v-4.0498047z"/>
		<path style="&st1;" d="M6.5341797,105.2456055h4.050293v4.0498047h-4.050293v-4.0498047z"/>
		<path style="&st3;" d="M6.3769531,7.7529297h154.3320313v227.2226563H6.3769531V7.7529297z"/>
		<path style="&st1;" d="M14.6342773,121.4453125h4.050293v4.0498047h-4.050293v-4.0498047z"/>
		<path style="&st1;" d="M14.6342773,129.5458984h4.050293v4.0488281h-4.050293v-4.0488281z"/>
		<path style="&st3;" d="M6.3769531,7.7529297h154.3320313v227.2226563H6.3769531V7.7529297z"/>
		<path style="&st1;" d="M10.5844727,117.3955078h4.0498047v4.0498047h-4.0498047v-4.0498047z"/>
		<path style="&st1;" d="M10.5844727,125.4951172h4.0498047v4.0507813h-4.0498047v-4.0507813z"/>
		<path style="&st3;" d="M6.3769531,7.7529297h154.3320313v227.2226563H6.3769531V7.7529297z"/>
		<path style="&st1;" d="M6.5341797,129.5458984h4.050293v4.0488281h-4.050293v-4.0488281z"/>
		<path style="&st1;" d="M6.5341797,121.4453125h4.050293v4.0498047h-4.050293v-4.0498047z"/>
		<path style="&st3;" d="M6.3769531,7.7529297h154.3320313v227.2226563H6.3769531V7.7529297z"/>
		<path style="&st1;" d="M14.6342773,137.6455078h4.050293v4.0498047h-4.050293v-4.0498047z"/>
		<path style="&st1;" d="M14.6342773,145.7451172h4.050293v4.0507813h-4.050293v-4.0507813z"/>
		<path style="&st3;" d="M6.3769531,7.7529297h154.3320313v227.2226563H6.3769531V7.7529297z"/>
		<path style="&st1;" d="M10.5844727,133.5947266h4.0498047v4.0507813h-4.0498047v-4.0507813z"/>
		<path style="&st1;" d="M10.5844727,141.6953125h4.0498047v4.0498047h-4.0498047v-4.0498047z"/>
		<path style="&st3;" d="M6.3769531,7.7529297h154.3320313v227.2226563H6.3769531V7.7529297z"/>
		<path style="&st1;" d="M6.5341797,145.7451172h4.050293v4.0507813h-4.050293v-4.0507813z"/>
		<path style="&st1;" d="M6.5341797,137.6455078h4.050293v4.0498047h-4.050293v-4.0498047z"/>
		<path style="&st3;" d="M6.3769531,7.7529297h154.3320313v227.2226563H6.3769531V7.7529297z"/>
		<path style="&st1;" d="M14.6342773,153.8447266h4.050293v4.0507813h-4.050293v-4.0507813z"/>
		<path style="&st1;" d="M14.6342773,161.9453125h4.050293v4.0498047h-4.050293v-4.0498047z"/>
		<path style="&st3;" d="M6.3769531,7.7529297h154.3320313v227.2226563H6.3769531V7.7529297z"/>
		<path style="&st1;" d="M10.5844727,149.7958984h4.0498047v4.0488281h-4.0498047v-4.0488281z"/>
		<path style="&st1;" d="M10.5844727,157.8955078h4.0498047v4.0498047h-4.0498047v-4.0498047z"/>
		<path style="&st3;" d="M6.3769531,7.7529297h154.3320313v227.2226563H6.3769531V7.7529297z"/>
		<path style="&st1;" d="M6.5341797,161.9453125h4.050293v4.0498047h-4.050293v-4.0498047z"/>
		<path style="&st1;" d="M6.5341797,153.8447266h4.050293v4.0507813h-4.050293v-4.0507813z"/>
		<path style="&st3;" d="M6.3769531,7.7529297h154.3320313v227.2226563H6.3769531V7.7529297z"/>
		<path style="&st1;" d="M14.6342773,170.0458984h4.050293v4.0488281h-4.050293v-4.0488281z"/>
		<path style="&st1;" d="M14.6342773,178.1455078h4.050293v4.0498047h-4.050293v-4.0498047z"/>
		<path style="&st3;" d="M6.3769531,7.7529297h154.3320313v227.2226563H6.3769531V7.7529297z"/>
		<path style="&st1;" d="M10.5844727,165.9951172h4.0498047v4.0507813h-4.0498047v-4.0507813z"/>
		<path style="&st1;" d="M10.5844727,174.0947266h4.0498047v4.0507813h-4.0498047v-4.0507813z"/>
		<path style="&st3;" d="M6.3769531,7.7529297h154.3320313v227.2226563H6.3769531V7.7529297z"/>
		<path style="&st1;" d="M6.5341797,178.1455078h4.050293v4.0498047h-4.050293v-4.0498047z"/>
		<path style="&st1;" d="M6.5341797,170.0458984h4.050293v4.0488281h-4.050293v-4.0488281z"/>
		<path style="&st3;" d="M6.3769531,7.7529297h154.3320313v227.2226563H6.3769531V7.7529297z"/>
		<path style="&st1;" d="M14.6342773,186.2451172h4.050293v4.0507813h-4.050293v-4.0507813z"/>
		<path style="&st1;" d="M14.6342773,194.3447266h4.050293v4.0507813h-4.050293v-4.0507813z"/>
		<path style="&st3;" d="M6.3769531,7.7529297h154.3320313v227.2226563H6.3769531V7.7529297z"/>
		<path style="&st1;" d="M10.5844727,182.1953125h4.0498047v4.0498047h-4.0498047v-4.0498047z"/>
		<path style="&st1;" d="M10.5844727,190.2958984h4.0498047v4.0488281h-4.0498047v-4.0488281z"/>
		<path style="&st3;" d="M6.3769531,7.7529297h154.3320313v227.2226563H6.3769531V7.7529297z"/>
		<path style="&st1;" d="M6.5341797,194.3447266h4.050293v4.0507813h-4.050293v-4.0507813z"/>
		<path style="&st1;" d="M6.5341797,186.2451172h4.050293v4.0507813h-4.050293v-4.0507813z"/>
		<path style="&st3;" d="M6.3769531,7.7529297h154.3320313v227.2226563H6.3769531V7.7529297z"/>
		<path style="&st1;" d="M14.6342773,202.4453125h4.050293v4.0498047h-4.050293v-4.0498047z"/>
		<path style="&st1;" d="M14.6342773,210.5458984h4.050293v4.0488281h-4.050293v-4.0488281z"/>
		<path style="&st3;" d="M6.3769531,7.7529297h154.3320313v227.2226563H6.3769531V7.7529297z"/>
		<path style="&st1;" d="M10.5844727,198.3955078h4.0498047v4.0498047h-4.0498047v-4.0498047z"/>
		<path style="&st1;" d="M10.5844727,206.4951172h4.0498047v4.0507813h-4.0498047v-4.0507813z"/>
		<path style="&st3;" d="M6.3769531,7.7529297h154.3320313v227.2226563H6.3769531V7.7529297z"/>
		<path style="&st1;" d="M6.5341797,210.5458984h4.050293v4.0488281h-4.050293v-4.0488281z"/>
		<path style="&st1;" d="M6.5341797,202.4453125h4.050293v4.0498047h-4.050293v-4.0498047z"/>
		<path style="&st3;" d="M6.3769531,7.7529297h154.3320313v227.2226563H6.3769531V7.7529297z"/>
		<path style="&st1;" d="M10.5844727,214.5947266h4.0498047v4.0507813h-4.0498047v-4.0507813z"/>
		<path style="&st1;" d="M14.6342773,218.6455078h4.050293v4.0498047h-4.050293v-4.0498047z"/>
		<path style="&st3;" d="M6.3769531,7.7529297h154.3320313v227.2226563H6.3769531V7.7529297z"/>
		<path style="&st1;" d="M6.5341797,218.6455078h4.050293v4.0498047h-4.050293v-4.0498047z"/>
		<path style="&st1;" d="M10.5844727,222.6953125h4.0498047v4.0498047h-4.0498047v-4.0498047z"/>
		<path style="&st3;" d="M6.3769531,7.7529297h154.3320313v227.2226563H6.3769531V7.7529297z"/>
		<path style="&st1;" d="M144.234375,8.0454102h4.0498047v4.050293h-4.0498047v-4.050293z"/>
		<path style="&st1;" d="M144.234375,16.1455078h4.0498047v4.0498047h-4.0498047v-4.0498047z"/>
		<path style="&st3;" d="M6.3769531,7.7529297h154.3320313v227.2226563H6.3769531V7.7529297z"/>
		<path style="&st1;" d="M148.2841797,12.0957031h4.0498047v4.0498047h-4.0498047v-4.0498047z"/>
		<path style="&st1;" d="M152.3339844,8.0454102h4.0507813v4.050293h-4.0507813v-4.050293z"/>
		<path style="&st3;" d="M6.3769531,7.7529297h154.3320313v227.2226563H6.3769531V7.7529297z"/>
		<path style="&st1;" d="M156.3847656,12.0957031h4.0498047v4.0498047h-4.0498047v-4.0498047z"/>
		<path style="&st1;" d="M152.3339844,16.1455078h4.0507813v4.0498047h-4.0507813v-4.0498047z"/>
		<path style="&st3;" d="M6.3769531,7.7529297h154.3320313v227.2226563H6.3769531V7.7529297z"/>
		<path style="&st2;" d="M18.6845703,20.1953125h129.5996094v202.5H18.6845703v-202.5z"/>
		<path style="&st1;" d="M148.2841797,28.2954102h4.0498047v4.050293h-4.0498047v-4.050293z"/>
		<path style="&st3;" d="M6.3769531,7.7529297h154.3320313v227.2226563H6.3769531V7.7529297z"/>
		<path style="&st1;" d="M148.2841797,36.3955078h4.0498047v4.0498047h-4.0498047v-4.0498047z"/>
		<path style="&st1;" d="M156.3847656,36.3955078h4.0498047v4.0498047h-4.0498047v-4.0498047z"/>
		<path style="&st3;" d="M6.3769531,7.7529297h154.3320313v227.2226563H6.3769531V7.7529297z"/>
		<path style="&st1;" d="M156.3847656,28.2954102h4.0498047v4.050293h-4.0498047v-4.050293z"/>
		<path style="&st1;" d="M152.3339844,32.3457031h4.0507813v4.0498047h-4.0507813v-4.0498047z"/>
		<path style="&st3;" d="M6.3769531,7.7529297h154.3320313v227.2226563H6.3769531V7.7529297z"/>
		<path style="&st1;" d="M152.3339844,24.2456055h4.0507813v4.0498047h-4.0507813v-4.0498047z"/>
		<path style="&st1;" d="M156.3847656,157.8955078h4.0498047v4.0498047h-4.0498047v-4.0498047z"/>
		<path style="&st3;" d="M6.3769531,7.7529297h154.3320313v227.2226563H6.3769531V7.7529297z"/>
		<path style="&st1;" d="M152.3339844,153.8447266h4.0507813v4.0507813h-4.0507813v-4.0507813z"/>
		<path style="&st1;" d="M148.2841797,157.8955078h4.0498047v4.0498047h-4.0498047v-4.0498047z"/>
		<path style="&st3;" d="M6.3769531,7.7529297h154.3320313v227.2226563H6.3769531V7.7529297z"/>
		<path style="&st1;" d="M156.3847656,141.6953125h4.0498047v4.0498047h-4.0498047v-4.0498047z"/>
		<path style="&st1;" d="M156.3847656,149.7958984h4.0498047v4.0488281h-4.0498047v-4.0488281z"/>
		<path style="&st3;" d="M6.3769531,7.7529297h154.3320313v227.2226563H6.3769531V7.7529297z"/>
		<path style="&st1;" d="M152.3339844,137.6455078h4.0507813v4.0498047h-4.0507813v-4.0498047z"/>
		<path style="&st1;" d="M152.3339844,145.7451172h4.0507813v4.0507813h-4.0507813v-4.0507813z"/>
		<path style="&st3;" d="M6.3769531,7.7529297h154.3320313v227.2226563H6.3769531V7.7529297z"/>
		<path style="&st1;" d="M148.2841797,149.7958984h4.0498047v4.0488281h-4.0498047v-4.0488281z"/>
		<path style="&st1;" d="M148.2841797,141.6953125h4.0498047v4.0498047h-4.0498047v-4.0498047z"/>
		<path style="&st3;" d="M6.3769531,7.7529297h154.3320313v227.2226563H6.3769531V7.7529297z"/>
		<path style="&st1;" d="M156.3847656,125.4951172h4.0498047v4.0507813h-4.0498047v-4.0507813z"/>
		<path style="&st1;" d="M156.3847656,133.5947266h4.0498047v4.0507813h-4.0498047v-4.0507813z"/>
		<path style="&st3;" d="M6.3769531,7.7529297h154.3320313v227.2226563H6.3769531V7.7529297z"/>
		<path style="&st1;" d="M152.3339844,121.4453125h4.0507813v4.0498047h-4.0507813v-4.0498047z"/>
		<path style="&st1;" d="M152.3339844,129.5458984h4.0507813v4.0488281h-4.0507813v-4.0488281z"/>
		<path style="&st3;" d="M6.3769531,7.7529297h154.3320313v227.2226563H6.3769531V7.7529297z"/>
		<path style="&st1;" d="M148.2841797,133.5947266h4.0498047v4.0507813h-4.0498047v-4.0507813z"/>
		<path style="&st1;" d="M148.2841797,125.4951172h4.0498047v4.0507813h-4.0498047v-4.0507813z"/>
		<path style="&st3;" d="M6.3769531,7.7529297h154.3320313v227.2226563H6.3769531V7.7529297z"/>
		<path style="&st1;" d="M156.3847656,109.2954102h4.0498047v4.050293h-4.0498047v-4.050293z"/>
		<path style="&st1;" d="M156.3847656,117.3955078h4.0498047v4.0498047h-4.0498047v-4.0498047z"/>
		<path style="&st3;" d="M6.3769531,7.7529297h154.3320313v227.2226563H6.3769531V7.7529297z"/>
		<path style="&st1;" d="M152.3339844,105.2456055h4.0507813v4.0498047h-4.0507813v-4.0498047z"/>
		<path style="&st1;" d="M152.3339844,113.3457031h4.0507813v4.0498047h-4.0507813v-4.0498047z"/>
		<path style="&st3;" d="M6.3769531,7.7529297h154.3320313v227.2226563H6.3769531V7.7529297z"/>
		<path style="&st1;" d="M148.2841797,117.3955078h4.0498047v4.0498047h-4.0498047v-4.0498047z"/>
		<path style="&st1;" d="M148.2841797,109.2954102h4.0498047v4.050293h-4.0498047v-4.050293z"/>
		<path style="&st3;" d="M6.3769531,7.7529297h154.3320313v227.2226563H6.3769531V7.7529297z"/>
		<path style="&st1;" d="M156.3847656,93.0957031h4.0498047v4.0498047h-4.0498047v-4.0498047z"/>
		<path style="&st1;" d="M156.3847656,101.1953125h4.0498047v4.050293h-4.0498047v-4.050293z"/>
		<path style="&st3;" d="M6.3769531,7.7529297h154.3320313v227.2226563H6.3769531V7.7529297z"/>
		<path style="&st1;" d="M152.3339844,89.0454102h4.0507813v4.050293h-4.0507813v-4.050293z"/>
		<path style="&st1;" d="M152.3339844,97.1455078h4.0507813v4.0498047h-4.0507813v-4.0498047z"/>
		<path style="&st3;" d="M6.3769531,7.7529297h154.3320313v227.2226563H6.3769531V7.7529297z"/>
		<path style="&st1;" d="M148.2841797,101.1953125h4.0498047v4.050293h-4.0498047v-4.050293z"/>
		<path style="&st1;" d="M148.2841797,93.0957031h4.0498047v4.0498047h-4.0498047v-4.0498047z"/>
		<path style="&st3;" d="M6.3769531,7.7529297h154.3320313v227.2226563H6.3769531V7.7529297z"/>
		<path style="&st1;" d="M156.3847656,76.8955078h4.0498047v4.0498047h-4.0498047v-4.0498047z"/>
		<path style="&st1;" d="M156.3847656,84.9956055h4.0498047v4.0498047h-4.0498047v-4.0498047z"/>
		<path style="&st3;" d="M6.3769531,7.7529297h154.3320313v227.2226563H6.3769531V7.7529297z"/>
		<path style="&st1;" d="M152.3339844,72.8457031h4.0507813v4.0498047h-4.0507813v-4.0498047z"/>
		<path style="&st1;" d="M152.3339844,80.9453125h4.0507813v4.050293h-4.0507813v-4.050293z"/>
		<path style="&st3;" d="M6.3769531,7.7529297h154.3320313v227.2226563H6.3769531V7.7529297z"/>
		<path style="&st1;" d="M148.2841797,84.9956055h4.0498047v4.0498047h-4.0498047v-4.0498047z"/>
		<path style="&st1;" d="M148.2841797,76.8955078h4.0498047v4.0498047h-4.0498047v-4.0498047z"/>
		<path style="&st3;" d="M6.3769531,7.7529297h154.3320313v227.2226563H6.3769531V7.7529297z"/>
		<path style="&st1;" d="M156.3847656,60.6953125h4.0498047v4.050293h-4.0498047v-4.050293z"/>
		<path style="&st1;" d="M156.3847656,68.7954102h4.0498047v4.050293h-4.0498047v-4.050293z"/>
		<path style="&st3;" d="M6.3769531,7.7529297h154.3320313v227.2226563H6.3769531V7.7529297z"/>
		<path style="&st1;" d="M152.3339844,56.6455078h4.0507813v4.0498047h-4.0507813v-4.0498047z"/>
		<path style="&st1;" d="M152.3339844,64.7456055h4.0507813v4.0498047h-4.0507813v-4.0498047z"/>
		<path style="&st3;" d="M6.3769531,7.7529297h154.3320313v227.2226563H6.3769531V7.7529297z"/>
		<path style="&st1;" d="M148.2841797,68.7954102h4.0498047v4.050293h-4.0498047v-4.050293z"/>
		<path style="&st1;" d="M148.2841797,60.6953125h4.0498047v4.050293h-4.0498047v-4.050293z"/>
		<path style="&st3;" d="M6.3769531,7.7529297h154.3320313v227.2226563H6.3769531V7.7529297z"/>
		<path style="&st1;" d="M156.3847656,44.4956055h4.0498047v4.0498047h-4.0498047v-4.0498047z"/>
		<path style="&st1;" d="M156.3847656,52.5957031h4.0498047v4.0498047h-4.0498047v-4.0498047z"/>
		<path style="&st3;" d="M6.3769531,7.7529297h154.3320313v227.2226563H6.3769531V7.7529297z"/>
		<path style="&st1;" d="M152.3339844,40.4453125h4.0507813v4.050293h-4.0507813v-4.050293z"/>
		<path style="&st1;" d="M152.3339844,48.5454102h4.0507813v4.050293h-4.0507813v-4.050293z"/>
		<path style="&st3;" d="M6.3769531,7.7529297h154.3320313v227.2226563H6.3769531V7.7529297z"/>
		<path style="&st1;" d="M148.2841797,52.5957031h4.0498047v4.0498047h-4.0498047v-4.0498047z"/>
		<path style="&st1;" d="M148.2841797,44.4956055h4.0498047v4.0498047h-4.0498047v-4.0498047z"/>
		<path style="&st3;" d="M6.3769531,7.7529297h154.3320313v227.2226563H6.3769531V7.7529297z"/>
		<path style="&st1;" d="M148.2841797,20.1953125h4.0498047v4.050293h-4.0498047v-4.050293z"/>
		<path style="&st1;" d="M156.3847656,20.1953125h4.0498047v4.050293h-4.0498047v-4.050293z"/>
		<path style="&st3;" d="M6.3769531,7.7529297h154.3320313v227.2226563H6.3769531V7.7529297z"/>
		<path style="&st1;" d="M156.3847656,206.4951172h4.0498047v4.0507813h-4.0498047v-4.0507813z"/>
		<path style="&st1;" d="M156.3847656,214.5947266h4.0498047v4.0507813h-4.0498047v-4.0507813z"/>
		<path style="&st3;" d="M6.3769531,7.7529297h154.3320313v227.2226563H6.3769531V7.7529297z"/>
		<path style="&st1;" d="M152.3339844,202.4453125h4.0507813v4.0498047h-4.0507813v-4.0498047z"/>
		<path style="&st1;" d="M152.3339844,210.5458984h4.0507813v4.0488281h-4.0507813v-4.0488281z"/>
		<path style="&st3;" d="M6.3769531,7.7529297h154.3320313v227.2226563H6.3769531V7.7529297z"/>
		<path style="&st1;" d="M148.2841797,214.5947266h4.0498047v4.0507813h-4.0498047v-4.0507813z"/>
		<path style="&st1;" d="M148.2841797,206.4951172h4.0498047v4.0507813h-4.0498047v-4.0507813z"/>
		<path style="&st3;" d="M6.3769531,7.7529297h154.3320313v227.2226563H6.3769531V7.7529297z"/>
		<path style="&st1;" d="M156.3847656,190.2958984h4.0498047v4.0488281h-4.0498047v-4.0488281z"/>
		<path style="&st1;" d="M156.3847656,198.3955078h4.0498047v4.0498047h-4.0498047v-4.0498047z"/>
		<path style="&st3;" d="M6.3769531,7.7529297h154.3320313v227.2226563H6.3769531V7.7529297z"/>
		<path style="&st1;" d="M152.3339844,186.2451172h4.0507813v4.0507813h-4.0507813v-4.0507813z"/>
		<path style="&st1;" d="M152.3339844,194.3447266h4.0507813v4.0507813h-4.0507813v-4.0507813z"/>
		<path style="&st3;" d="M6.3769531,7.7529297h154.3320313v227.2226563H6.3769531V7.7529297z"/>
		<path style="&st1;" d="M148.2841797,198.3955078h4.0498047v4.0498047h-4.0498047v-4.0498047z"/>
		<path style="&st1;" d="M148.2841797,190.2958984h4.0498047v4.0488281h-4.0498047v-4.0488281z"/>
		<path style="&st3;" d="M6.3769531,7.7529297h154.3320313v227.2226563H6.3769531V7.7529297z"/>
		<path style="&st1;" d="M156.3847656,174.0947266h4.0498047v4.0507813h-4.0498047v-4.0507813z"/>
		<path style="&st1;" d="M156.3847656,182.1953125h4.0498047v4.0498047h-4.0498047v-4.0498047z"/>
		<path style="&st3;" d="M6.3769531,7.7529297h154.3320313v227.2226563H6.3769531V7.7529297z"/>
		<path style="&st1;" d="M152.3339844,170.0458984h4.0507813v4.0488281h-4.0507813v-4.0488281z"/>
		<path style="&st1;" d="M152.3339844,178.1455078h4.0507813v4.0498047h-4.0507813v-4.0498047z"/>
		<path style="&st3;" d="M6.3769531,7.7529297h154.3320313v227.2226563H6.3769531V7.7529297z"/>
		<path style="&st1;" d="M148.2841797,182.1953125h4.0498047v4.0498047h-4.0498047v-4.0498047z"/>
		<path style="&st1;" d="M148.2841797,174.0947266h4.0498047v4.0507813h-4.0498047v-4.0507813z"/>
		<path style="&st3;" d="M6.3769531,7.7529297h154.3320313v227.2226563H6.3769531V7.7529297z"/>
		<path style="&st1;" d="M156.3847656,165.9951172h4.0498047v4.0507813h-4.0498047v-4.0507813z"/>
		<path style="&st1;" d="M148.2841797,165.9951172h4.0498047v4.0507813h-4.0498047v-4.0507813z"/>
		<path style="&st3;" d="M6.3769531,7.7529297h154.3320313v227.2226563H6.3769531V7.7529297z"/>
		<path style="&st1;" d="M152.3339844,218.6455078h4.0507813v4.0498047h-4.0507813v-4.0498047z"/>
		<path style="&st1;" d="M156.3847656,222.6953125h4.0498047v4.0498047h-4.0498047v-4.0498047z"/>
		<path style="&st3;" d="M6.3769531,7.7529297h154.3320313v227.2226563H6.3769531V7.7529297z"/>
		<path style="&st1;" d="M152.3339844,226.7451172h4.0507813v4.0507813h-4.0507813v-4.0507813z"/>
		<path style="&st1;" d="M156.3847656,230.7958984h4.0498047v4.0488281h-4.0498047v-4.0488281z"/>
		<path style="&st3;" d="M6.3769531,7.7529297h154.3320313v227.2226563H6.3769531V7.7529297z"/>
		<path style="&st1;" d="M148.2841797,222.6953125h4.0498047v4.0498047h-4.0498047v-4.0498047z"/>
		<path style="&st1;" d="M152.3339844,161.9453125h4.0507813v4.0498047h-4.0507813v-4.0498047z"/>
		<path style="&st3;" d="M6.3769531,7.7529297h154.3320313v227.2226563H6.3769531V7.7529297z"/>
		<path style="&st1;" d="M140.1845703,230.7958984h4.0498047v4.0488281h-4.0498047v-4.0488281z"/>
		<path style="&st1;" d="M136.1347656,226.7451172h4.0498047v4.0507813h-4.0498047v-4.0507813z"/>
		<path style="&st3;" d="M6.3769531,7.7529297h154.3320313v227.2226563H6.3769531V7.7529297z"/>
		<path style="&st1;" d="M132.0839844,230.7958984h4.0507813v4.0488281h-4.0507813v-4.0488281z"/>
		<path style="&st1;" d="M123.984375,230.7958984h4.0498047v4.0488281h-4.0498047v-4.0488281z"/>
		<path style="&st3;" d="M6.3769531,7.7529297h154.3320313v227.2226563H6.3769531V7.7529297z"/>
		<path style="&st1;" d="M128.0341797,226.7451172h4.0498047v4.0507813h-4.0498047v-4.0507813z"/>
		<path style="&st1;" d="M119.9345703,226.7451172h4.0498047v4.0507813h-4.0498047v-4.0507813z"/>
		<path style="&st3;" d="M6.3769531,7.7529297h154.3320313v227.2226563H6.3769531V7.7529297z"/>
		<path style="&st1;" d="M115.8847656,230.7958984h4.0498047v4.0488281h-4.0498047v-4.0488281z"/>
		<path style="&st1;" d="M111.8339844,226.7451172h4.0507813v4.0507813h-4.0507813v-4.0507813z"/>
		<path style="&st3;" d="M6.3769531,7.7529297h154.3320313v227.2226563H6.3769531V7.7529297z"/>
		<path style="&st1;" d="M107.7841797,230.7958984h4.0498047v4.0488281h-4.0498047v-4.0488281z"/>
		<path style="&st1;" d="M103.734375,226.7451172h4.0498047v4.0507813h-4.0498047v-4.0507813z"/>
		<path style="&st3;" d="M6.3769531,7.7529297h154.3320313v227.2226563H6.3769531V7.7529297z"/>
		<path style="&st1;" d="M99.6845703,230.7958984h4.0498047v4.0488281h-4.0498047v-4.0488281z"/>
		<path style="&st1;" d="M95.6347656,226.7451172h4.0498047v4.0507813h-4.0498047v-4.0507813z"/>
		<path style="&st3;" d="M6.3769531,7.7529297h154.3320313v227.2226563H6.3769531V7.7529297z"/>
		<path style="&st1;" d="M87.5341797,226.7451172h4.0498047v4.0507813h-4.0498047v-4.0507813z"/>
		<path style="&st1;" d="M91.5839844,230.7958984h4.0507813v4.0488281h-4.0507813v-4.0488281z"/>
		<path style="&st3;" d="M6.3769531,7.7529297h154.3320313v227.2226563H6.3769531V7.7529297z"/>
		<path style="&st1;" d="M83.484375,230.7958984h4.0498047v4.0488281H83.484375v-4.0488281z"/>
		<path style="&st1;" d="M79.4345703,226.7451172h4.0498047v4.0507813h-4.0498047v-4.0507813z"/>
		<path style="&st3;" d="M6.3769531,7.7529297h154.3320313v227.2226563H6.3769531V7.7529297z"/>
		<path style="&st1;" d="M75.3842773,230.7958984h4.050293v4.0488281h-4.050293v-4.0488281z"/>
		<path style="&st1;" d="M71.3344727,226.7451172h4.0498047v4.0507813h-4.0498047v-4.0507813z"/>
		<path style="&st3;" d="M6.3769531,7.7529297h154.3320313v227.2226563H6.3769531V7.7529297z"/>
		<path style="&st1;" d="M67.2841797,230.7958984h4.050293v4.0488281h-4.050293v-4.0488281z"/>
		<path style="&st1;" d="M63.234375,226.7451172h4.0498047v4.0507813H63.234375v-4.0507813z"/>
		<path style="&st3;" d="M6.3769531,7.7529297h154.3320313v227.2226563H6.3769531V7.7529297z"/>
		<path style="&st1;" d="M59.1845703,230.7958984h4.0498047v4.0488281h-4.0498047v-4.0488281z"/>
		<path style="&st1;" d="M55.1342773,226.7451172h4.050293v4.0507813h-4.050293v-4.0507813z"/>
		<path style="&st3;" d="M6.3769531,7.7529297h154.3320313v227.2226563H6.3769531V7.7529297z"/>
		<path style="&st1;" d="M51.0844727,230.7958984h4.0498047v4.0488281h-4.0498047v-4.0488281z"/>
		<path style="&st1;" d="M47.0341797,226.7451172h4.050293v4.0507813h-4.050293v-4.0507813z"/>
		<path style="&st3;" d="M6.3769531,7.7529297h154.3320313v227.2226563H6.3769531V7.7529297z"/>
		<path style="&st1;" d="M42.984375,230.7958984h4.0498047v4.0488281H42.984375v-4.0488281z"/>
		<path style="&st1;" d="M38.9345703,226.7451172h4.0498047v4.0507813h-4.0498047v-4.0507813z"/>
		<path style="&st3;" d="M6.3769531,7.7529297h154.3320313v227.2226563H6.3769531V7.7529297z"/>
		<path style="&st1;" d="M34.8842773,230.7958984h4.050293v4.0488281h-4.050293v-4.0488281z"/>
		<path style="&st1;" d="M30.8344727,226.7451172h4.0498047v4.0507813h-4.0498047v-4.0507813z"/>
		<path style="&st3;" d="M6.3769531,7.7529297h154.3320313v227.2226563H6.3769531V7.7529297z"/>
		<path style="&st1;" d="M26.7841797,230.7958984h4.050293v4.0488281h-4.050293v-4.0488281z"/>
		<path style="&st1;" d="M22.734375,226.7451172h4.0498047v4.0507813H22.734375v-4.0507813z"/>
		<path style="&st3;" d="M6.3769531,7.7529297h154.3320313v227.2226563H6.3769531V7.7529297z"/>
		<path style="&st1;" d="M18.6845703,230.7958984h4.0498047v4.0488281h-4.0498047v-4.0488281z"/>
		<path style="&st1;" d="M148.2841797,230.7958984h4.0498047v4.0488281h-4.0498047v-4.0488281z"/>
		<path style="&st3;" d="M6.3769531,7.7529297h154.3320313v227.2226563H6.3769531V7.7529297z"/>
		<path style="&st1;" d="M144.234375,226.7451172h4.0498047v4.0507813h-4.0498047v-4.0507813z"/>
		<path style="&st1;" d="M140.1845703,222.6953125h4.0498047v4.0498047h-4.0498047v-4.0498047z"/>
		<path style="&st3;" d="M6.3769531,7.7529297h154.3320313v227.2226563H6.3769531V7.7529297z"/>
		<path style="&st1;" d="M132.0839844,222.6953125h4.0507813v4.0498047h-4.0507813v-4.0498047z"/>
		<path style="&st1;" d="M123.984375,222.6953125h4.0498047v4.0498047h-4.0498047v-4.0498047z"/>
		<path style="&st3;" d="M6.3769531,7.7529297h154.3320313v227.2226563H6.3769531V7.7529297z"/>
		<path style="&st1;" d="M115.8847656,222.6953125h4.0498047v4.0498047h-4.0498047v-4.0498047z"/>
		<path style="&st1;" d="M107.7841797,222.6953125h4.0498047v4.0498047h-4.0498047v-4.0498047z"/>
		<path style="&st3;" d="M6.3769531,7.7529297h154.3320313v227.2226563H6.3769531V7.7529297z"/>
		<path style="&st1;" d="M99.6845703,222.6953125h4.0498047v4.0498047h-4.0498047v-4.0498047z"/>
		<path style="&st1;" d="M91.5839844,222.6953125h4.0507813v4.0498047h-4.0507813v-4.0498047z"/>
		<path style="&st3;" d="M6.3769531,7.7529297h154.3320313v227.2226563H6.3769531V7.7529297z"/>
		<path style="&st1;" d="M83.484375,222.6953125h4.0498047v4.0498047H83.484375v-4.0498047z"/>
		<path style="&st1;" d="M75.3842773,222.6953125h4.050293v4.0498047h-4.050293v-4.0498047z"/>
		<path style="&st3;" d="M6.3769531,7.7529297h154.3320313v227.2226563H6.3769531V7.7529297z"/>
		<path style="&st1;" d="M67.2841797,222.6953125h4.050293v4.0498047h-4.050293v-4.0498047z"/>
		<path style="&st1;" d="M59.1845703,222.6953125h4.0498047v4.0498047h-4.0498047v-4.0498047z"/>
		<path style="&st3;" d="M6.3769531,7.7529297h154.3320313v227.2226563H6.3769531V7.7529297z"/>
		<path style="&st1;" d="M18.6845703,222.6953125h4.0498047v4.0498047h-4.0498047v-4.0498047z"/>
		<path style="&st1;" d="M14.6342773,226.7451172h4.050293v4.0507813h-4.050293v-4.0507813z"/>
		<path style="&st3;" d="M6.3769531,7.7529297h154.3320313v227.2226563H6.3769531V7.7529297z"/>
		<path style="&st1;" d="M26.7841797,222.6953125h4.050293v4.0498047h-4.050293v-4.0498047z"/>
		<path style="&st1;" d="M34.8842773,222.6953125h4.050293v4.0498047h-4.050293v-4.0498047z"/>
		<path style="&st3;" d="M6.3769531,7.7529297h154.3320313v227.2226563H6.3769531V7.7529297z"/>
		<path style="&st1;" d="M42.984375,222.6953125h4.0498047v4.0498047H42.984375v-4.0498047z"/>
		<path style="&st1;" d="M51.0844727,222.6953125h4.0498047v4.0498047h-4.0498047v-4.0498047z"/>
		<path style="&st3;" d="M6.3769531,7.7529297h154.3320313v227.2226563H6.3769531V7.7529297z"/>
		<path style="&st1;" d="M6.5341797,226.7451172h4.050293v4.0507813h-4.050293v-4.0507813z"/>
		<g>
			<path style="&st1;" d="M10.5844727,230.7958984h4.0498047v4.0488281h-4.0498047v-4.0488281z"/>
		</g>
	</g>
</svg>
