<?xml version="1.0" encoding="utf-8"?>
<!-- Generator: Adobe Illustrator 9.0, SVG Export Plug-In  -->
<!DOCTYPE svg PUBLIC "-//W3C//DTD SVG 20000303 Stylable//EN"   "http://www.w3.org/TR/2000/03/WD-SVG-20000303/DTD/svg-20000303-stylable.dtd" [
	<!ENTITY st0 "fill-rule:evenodd;clip-rule:evenodd;fill:#17067A;stroke:none;">
	<!ENTITY st1 "stroke-width:0.863325;stroke-linecap:butt;stroke-linejoin:miter;stroke-miterlimit:10;">
	<!ENTITY st2 "stroke-width:2.849;stroke-linecap:butt;stroke-linejoin:miter;stroke-miterlimit:10;">
	<!ENTITY st3 "stroke-width:1.640875;stroke-linecap:butt;stroke-linejoin:miter;stroke-miterlimit:10;">
	<!ENTITY st4 "fill-rule:nonzero;clip-rule:nonzero;fill:none;stroke:#17067A;stroke-width:1.3164001;stroke-linecap:round;stroke-linejoin:round;stroke-miterlimit:4;">
	<!ENTITY st5 "stroke:#000000;stroke-width:0.5;stroke-linecap:butt;stroke-linejoin:miter;">
	<!ENTITY st6 "stroke-width:2.6754;stroke-linecap:butt;stroke-linejoin:miter;stroke-miterlimit:10;">
	<!ENTITY st7 "stroke-width:2.0634;stroke-linecap:butt;stroke-miterlimit:10;">
	<!ENTITY st8 "stroke-miterlimit:10;">
	<!ENTITY st9 "fill:#FFFFFF;stroke:#000000;stroke-width:0.5;stroke-linecap:butt;stroke-linejoin:miter;">
	<!ENTITY st10 "fill-rule:evenodd;clip-rule:evenodd;fill:#FFFFFF;stroke:none;">
	<!ENTITY st11 "stroke-width:1.79685;stroke-linecap:butt;stroke-miterlimit:10;">
	<!ENTITY st12 "fill-rule:evenodd;clip-rule:evenodd;fill:#313390;stroke:none;">
]>
<!-- This set of SVG files is a complete cards game with figures, numbers	-->
<!--    and backs of cards completely designed in SVG.				-->
<!--    									-->
<!--    Copyright (C) 2004 David Bellot						-->
<!--										-->
<!--    This library is free software; you can redistribute it and/or		-->
<!--    modify it under the terms of the GNU Lesser General Public		-->
<!--    License as published by the Free Software Foundation; either		-->
<!--    version 2 of the License, or (at your option) any later version		-->
<!--										-->
<!--    This library is distributed in the hope that it will be useful,		-->
<!--    but WITHOUT ANY WARRANTY; without even the implied warranty of		-->
<!--    MERCHANTABILITY or FITNESS FOR A PARTICULAR PURPOSE.  See the GNU	-->
<!--    Lesser General Public License for more details.				-->
<!--										-->
<!--    You should have received a copy of the GNU Lesser General Public	-->
<!--    License along with this library; if not, write to the Free Software	-->
<!--    Foundation, Inc., 59 Temple Place, Suite 330, Boston, MA 02111-1307  USA-->
<!--										-->
<!--    Contact the author David Bellot at bellot@stat.berkeley.edu or 		-->
<!--    david.bellot@free.fr or yimyom@users.sourceforge.net			-->
<svg  width="167.1835938pt" height="242.8623047pt" viewBox="0 0 167.1835938 242.8623047" xml:space="preserve">
	<g id="Layer_x0020_1" style="&st4;">
		<path style="&st9;" d="M166.9335938,235.7431641c0,3.7744141-3.0859375,6.8691406-6.8701172,6.8691406H7.215332c-3.7749023,0-6.8608398-3.0947266-6.8608398-6.8691406V7.3178711c0-3.7797852,3.0859375-6.8701172,6.8608398-6.8701172h152.8481445
			c3.7841797,0,6.8701172,3.090332,6.8701172,6.8701172v228.425293z"/>
		<path style="&st10;" d="M7.6469727,1.8691406c-3.2133789,0-5.8012695,2.5161133-5.8012695,5.6430664v227.9233398c0,3.1259766,2.5878906,5.6416016,5.8012695,5.6416016h152.0737305c3.2148438,0,5.8007813-2.515625,5.8007813-5.6416016V7.512207
			c0-3.1269531-2.5859375-5.6430664-5.8007813-5.6430664H7.6469727z"/>
		<path style="&st2;" d="M7.6469727,1.8691406c-3.2133789,0-5.8012695,2.5161133-5.8012695,5.6430664v227.9233398c0,3.1259766,2.5878906,5.6416016,5.8012695,5.6416016h152.0737305c3.2148438,0,5.8007813-2.515625,5.8007813-5.6416016V7.512207
			c0-3.1269531-2.5859375-5.6430664-5.8007813-5.6430664H7.6469727z"/>
		<path style="&st10;" d="M9.2890625,7.4052734c-0.8095703,0-1.4604492,0.6337891-1.4604492,1.4204102v225.2963867c0,0.7861328,0.6508789,1.4199219,1.4604492,1.4199219h148.4199219c0.8095703,0,1.4619141-0.6337891,1.4619141-1.4199219V8.8256836
			c0-0.7866211-0.6523438-1.4204102-1.4619141-1.4204102H9.2890625z"/>
		<path style="&st6;" d="M9.2890625,7.4052734c-0.8095703,0-1.4604492,0.6337891-1.4604492,1.4204102v225.2963867c0,0.7861328,0.6508789,1.4199219,1.4604492,1.4199219h148.4199219c0.8095703,0,1.4619141-0.6337891,1.4619141-1.4199219V8.8256836
			c0-0.7866211-0.6523438-1.4204102-1.4619141-1.4204102H9.2890625z"/>
		<path style="&st12;" d="M38.6572266,37.1137695c-0.3901367,0-0.7041016,0.3046875-0.7041016,0.6850586v168.0693359c0,0.3808594,0.3139648,0.6855469,0.7041016,0.6855469h88.2011719c0.3916016,0,0.7041016-0.3046875,0.7041016-0.6855469V37.7988281
			c0-0.3803711-0.3125-0.6850586-0.7041016-0.6850586H38.6572266z"/>
		<path style="&st3;" d="M38.6572266,37.1137695c-0.3901367,0-0.7041016,0.3046875-0.7041016,0.6850586v168.0693359c0,0.3808594,0.3139648,0.6855469,0.7041016,0.6855469h88.2011719c0.3916016,0,0.7041016-0.3046875,0.7041016-0.6855469V37.7988281
			c0-0.3803711-0.3125-0.6850586-0.7041016-0.6850586H38.6572266z"/>
		<path style="&st10;" d="M52.6201172,43.0742188c-4.6196289,0-8.3398438,3.6186523-8.3398438,8.1123047v140.5742188c0,4.4941406,3.7202148,8.1123047,8.3398438,8.1123047h59.9072266c4.6201172,0,8.3398438-3.6181641,8.3398438-8.1123047V51.1865234
			c0-4.4936523-3.7197266-8.1123047-8.3398438-8.1123047H52.6201172z"/>
		<path style="&st7;" d="M52.6201172,43.0742188c-4.6196289,0-8.3398438,3.6186523-8.3398438,8.1123047v140.5742188c0,4.4941406,3.7202148,8.1123047,8.3398438,8.1123047h59.9072266c4.6201172,0,8.3398438-3.6181641,8.3398438-8.1123047V51.1865234
			c0-4.4936523-3.7197266-8.1123047-8.3398438-8.1123047H52.6201172z"/>
		<path style="&st12;" d="M53.546875,49.5366211c-1.5537109,0-2.8051758,1.2172852-2.8051758,2.7290039v138.4150391c0,1.5126953,1.2514648,2.7294922,2.8051758,2.7294922h57.6816406c1.5556641,0,2.8085938-1.2167969,2.8085938-2.7294922V52.265625
			c0-1.5117188-1.2529297-2.7290039-2.8085938-2.7290039H53.546875z"/>
		<path style="&st11;" d="M53.546875,49.5366211c-1.5537109,0-2.8051758,1.2172852-2.8051758,2.7290039v138.4150391c0,1.5126953,1.2514648,2.7294922,2.8051758,2.7294922h57.6816406c1.5556641,0,2.8085938-1.2167969,2.8085938-2.7294922V52.265625
			c0-1.5117188-1.2529297-2.7290039-2.8085938-2.7290039H53.546875z"/>
		<path style="&st0;" d="M9.4145508,9.0317383h6.6625977l-6.5986328,6.402832l-0.0639648-6.402832z"/>
		<path style="&st1;" d="M9.4145508,9.0317383h6.6625977l-6.5986328,6.402832l-0.0639648-6.402832z"/>
		<path style="&st0;" d="M157.4824219,9.1147461h-6.6621094l6.5976563,6.402832l0.0644531-6.402832z"/>
		<path style="&st1;" d="M157.4824219,9.1147461h-6.6621094l6.5976563,6.402832l0.0644531-6.402832z"/>
		<path style="&st0;" d="M157.6025391,234.1181641h-6.6630859l6.5996094-6.4013672l0.0634766,6.4013672z"/>
		<path style="&st1;" d="M157.6025391,234.1181641h-6.6630859l6.5996094-6.4013672l0.0634766,6.4013672z"/>
		<path style="&st0;" d="M9.4091797,234.0849609h6.6625977l-6.5976563-6.4023438l-0.0649414,6.4023438z"/>
		<path style="&st1;" d="M9.4091797,234.0849609h6.6625977l-6.5976563-6.4023438l-0.0649414,6.4023438z"/>
		<path style="&st12;" d="M11.9658203,130.6318359v6.1337891l22.4282227-11.4697266v-6.284668l-22.4282227,11.6206055z"/>
		<path style="&st8;" d="M11.9658203,130.6318359v6.1337891l22.4282227-11.4697266v-6.284668l-22.4282227,11.6206055z"/>
		<path style="&st12;" d="M12.0800781,142.2314453v6.1337891l22.4277344-11.4716797v-6.2832031l-22.4277344,11.6210938z"/>
		<path style="&st8;" d="M12.0800781,142.2314453v6.1337891l22.4277344-11.4716797v-6.2832031l-22.4277344,11.6210938z"/>
		<path style="&st10;" d="M11.8544922,136.7958984v-6.1337891l22.4272461,11.4707031v6.2841797l-22.4272461-11.6210938z"/>
		<path style="&st8;" d="M11.8544922,136.7958984v-6.1337891l22.4272461,11.4707031v6.2841797l-22.4272461-11.6210938z"/>
		<path style="&st12;" d="M12.1298828,118.8730469v6.1337891l22.4277344-11.472168v-6.2827148l-22.4277344,11.6210938z"/>
		<path style="&st8;" d="M12.1298828,118.8730469v6.1337891l22.4277344-11.472168v-6.2827148l-22.4277344,11.6210938z"/>
		<path style="&st10;" d="M12.0229492,125.2587891v-6.1328125l22.4287109,11.4707031v6.2841797l-22.4287109-11.6220703z"/>
		<path style="&st8;" d="M12.0229492,125.2587891v-6.1328125l22.4287109,11.4707031v6.2841797l-22.4287109-11.6220703z"/>
		<path style="&st12;" d="M12.0161133,107.2734375v6.1337891l22.4277344-11.4702148v-6.284668l-22.4277344,11.6210938z"/>
		<path style="&st8;" d="M12.0161133,107.2734375v6.1337891l22.4277344-11.4702148v-6.284668l-22.4277344,11.6210938z"/>
		<path style="&st10;" d="M11.9038086,113.4370117v-6.1333008l22.4282227,11.4716797v6.2822266l-22.4282227-11.6206055z"/>
		<path style="&st8;" d="M11.9038086,113.4370117v-6.1333008l22.4282227,11.4716797v6.2822266l-22.4282227-11.6206055z"/>
		<path style="&st10;" d="M12.0732422,101.9003906v-6.1333008l22.4277344,11.4716797v6.2827148l-22.4277344-11.6210938z"/>
		<path style="&st8;" d="M12.0732422,101.9003906v-6.1333008l22.4277344,11.4716797v6.2827148l-22.4277344-11.6210938z"/>
		<path style="&st12;" d="M12.1108398,153.9365234v6.1328125l22.4277344-11.4697266v-6.2841797l-22.4277344,11.6210938z"/>
		<path style="&st8;" d="M12.1108398,153.9365234v6.1328125l22.4277344-11.4697266v-6.2841797l-22.4277344,11.6210938z"/>
		<path style="&st10;" d="M11.8847656,148.5v-6.1328125L34.3125,153.8378906v6.2851563L11.8847656,148.5z"/>
		<path style="&st8;" d="M11.8847656,148.5v-6.1328125L34.3125,153.8378906v6.2851563L11.8847656,148.5z"/>
		<path style="&st12;" d="M11.8833008,72.1850586v6.1333008L34.3110352,66.847168v-6.2832031L11.8833008,72.1850586z"/>
		<path style="&st8;" d="M11.8833008,72.1850586v6.1333008L34.3110352,66.847168v-6.2832031L11.8833008,72.1850586z"/>
		<path style="&st12;" d="M11.9970703,83.7832031v6.1352539l22.4287109-11.4716797v-6.284668L11.9970703,83.7832031z"/>
		<path style="&st8;" d="M11.9970703,83.7832031v6.1352539l22.4287109-11.4716797v-6.284668L11.9970703,83.7832031z"/>
		<path style="&st10;" d="M11.7714844,78.3486328v-6.1337891l22.4287109,11.4702148v6.284668L11.7714844,78.3486328z"/>
		<path style="&st8;" d="M11.7714844,78.3486328v-6.1337891l22.4287109,11.4702148v6.284668L11.7714844,78.3486328z"/>
		<path style="&st12;" d="M12.0478516,60.4243164v6.1352539l22.4277344-11.472168v-6.2841797L12.0478516,60.4243164z"/>
		<path style="&st8;" d="M12.0478516,60.4243164v6.1352539l22.4277344-11.472168v-6.2841797L12.0478516,60.4243164z"/>
		<path style="&st10;" d="M11.9399414,66.8120117v-6.1333008l22.4287109,11.4702148v6.2841797L11.9399414,66.8120117z"/>
		<path style="&st8;" d="M11.9399414,66.8120117v-6.1333008l22.4287109,11.4702148v6.2841797L11.9399414,66.8120117z"/>
		<path style="&st12;" d="M11.9331055,48.8261719v6.1333008l22.4272461-11.4711914v-6.2832031L11.9331055,48.8261719z"/>
		<path style="&st8;" d="M11.9331055,48.8261719v6.1333008l22.4272461-11.4711914v-6.2832031L11.9331055,48.8261719z"/>
		<path style="&st10;" d="M11.8217773,54.9897461v-6.1333008L34.25,60.3261719v6.284668L11.8217773,54.9897461z"/>
		<path style="&st8;" d="M11.8217773,54.9897461v-6.1333008L34.25,60.3261719v6.284668L11.8217773,54.9897461z"/>
		<path style="&st10;" d="M11.9897461,43.453125v-6.1328125L34.418457,48.7900391v6.2841797L11.9897461,43.453125z"/>
		<path style="&st8;" d="M11.9897461,43.453125v-6.1328125L34.418457,48.7900391v6.2841797L11.9897461,43.453125z"/>
		<path style="&st12;" d="M12.0288086,95.4892578v6.1333008l22.4282227-11.4711914v-6.2832031L12.0288086,95.4892578z"/>
		<path style="&st8;" d="M12.0288086,95.4892578v6.1333008l22.4282227-11.4711914v-6.2832031L12.0288086,95.4892578z"/>
		<path style="&st10;" d="M11.8027344,90.0532227v-6.1337891l22.4277344,11.4716797v6.2832031L11.8027344,90.0532227z"/>
		<path style="&st8;" d="M11.8027344,90.0532227v-6.1337891l22.4277344,11.4716797v6.2832031L11.8027344,90.0532227z"/>
		<path style="&st12;" d="M11.9658203,188.9189453v6.1347656l22.4282227-11.4726563v-6.2851563l-22.4282227,11.6230469z"/>
		<path style="&st8;" d="M11.9658203,188.9189453v6.1347656l22.4282227-11.4726563v-6.2851563l-22.4282227,11.6230469z"/>
		<path style="&st12;" d="M12.0800781,200.5185547v6.1328125l22.4277344-11.4707031v-6.2832031l-22.4277344,11.6210938z"/>
		<path style="&st8;" d="M12.0800781,200.5185547v6.1328125l22.4277344-11.4707031v-6.2832031l-22.4277344,11.6210938z"/>
		<path style="&st10;" d="M11.8544922,195.0839844v-6.1357422l22.4272461,11.4716797v6.2851563l-22.4272461-11.6210938z"/>
		<path style="&st8;" d="M11.8544922,195.0839844v-6.1357422l22.4272461,11.4716797v6.2851563l-22.4272461-11.6210938z"/>
		<path style="&st12;" d="M12.1298828,177.1591797v6.1328125l22.4277344-11.4707031v-6.2832031l-22.4277344,11.6210938z"/>
		<path style="&st8;" d="M12.1298828,177.1591797v6.1328125l22.4277344-11.4707031v-6.2832031l-22.4277344,11.6210938z"/>
		<path style="&st10;" d="M12.0229492,183.5458984v-6.1347656l22.4287109,11.4726563v6.2841797l-22.4287109-11.6220703z"/>
		<path style="&st8;" d="M12.0229492,183.5458984v-6.1347656l22.4287109,11.4726563v6.2841797l-22.4287109-11.6220703z"/>
		<path style="&st12;" d="M12.0161133,165.5615234v6.1328125l22.4277344-11.4726563v-6.28125l-22.4277344,11.6210938z"/>
		<path style="&st8;" d="M12.0161133,165.5615234v6.1328125l22.4277344-11.4726563v-6.28125l-22.4277344,11.6210938z"/>
		<path style="&st10;" d="M11.9038086,171.7246094v-6.1337891l22.4282227,11.4707031v6.2832031l-22.4282227-11.6201172z"/>
		<path style="&st8;" d="M11.9038086,171.7246094v-6.1337891l22.4282227,11.4707031v6.2832031l-22.4282227-11.6201172z"/>
		<path style="&st10;" d="M12.0732422,160.1875v-6.1337891l22.4277344,11.4707031v6.2841797L12.0732422,160.1875z"/>
		<path style="&st8;" d="M12.0732422,160.1875v-6.1337891l22.4277344,11.4707031v6.2841797L12.0732422,160.1875z"/>
		<path style="&st12;" d="M131.9384766,113.3217773v-6.1362305l22.4267578,11.4780273v6.2866211l-22.4267578-11.628418z"/>
		<path style="&st8;" d="M131.9384766,113.3217773v-6.1362305l22.4267578,11.4780273v6.2866211l-22.4267578-11.628418z"/>
		<path style="&st12;" d="M132.0507813,101.7158203v-6.1367188l22.4296875,11.4785156v6.2875977l-22.4296875-11.6293945z"/>
		<path style="&st8;" d="M132.0507813,101.7158203v-6.1367188l22.4296875,11.4785156v6.2875977l-22.4296875-11.6293945z"/>
		<path style="&st10;" d="M131.8261719,107.1557617v6.1362305l22.4267578-11.4765625v-6.2880859l-22.4267578,11.628418z"/>
		<path style="&st8;" d="M131.8261719,107.1557617v6.1362305l22.4267578-11.4765625v-6.2880859l-22.4267578,11.628418z"/>
		<path style="&st12;" d="M132.0996094,125.0888672v-6.1376953l22.4306641,11.4775391v6.2890625l-22.4306641-11.6289063z"/>
		<path style="&st8;" d="M132.0996094,125.0888672v-6.1376953l22.4306641,11.4775391v6.2890625l-22.4306641-11.6289063z"/>
		<path style="&st10;" d="M131.9941406,118.6987305v6.1362305l22.4277344-11.4765625v-6.2875977l-22.4277344,11.6279297z"/>
		<path style="&st8;" d="M131.9941406,118.6987305v6.1362305l22.4277344-11.4765625v-6.2875977l-22.4277344,11.6279297z"/>
		<path style="&st12;" d="M131.9882813,136.6943359v-6.1367188l22.4277344,11.4785156v6.2871094l-22.4277344-11.6289063z"/>
		<path style="&st8;" d="M131.9882813,136.6943359v-6.1367188l22.4277344,11.4785156v6.2871094l-22.4277344-11.6289063z"/>
		<path style="&st10;" d="M131.875,130.5283203v6.1357422l22.4296875-11.4755859v-6.2885742L131.875,130.5283203z"/>
		<path style="&st8;" d="M131.875,130.5283203v6.1357422l22.4296875-11.4755859v-6.2885742L131.875,130.5283203z"/>
		<path style="&st10;" d="M132.0449219,142.0712891v6.1376953l22.4277344-11.4775391v-6.2890625l-22.4277344,11.6289063z"/>
		<path style="&st8;" d="M132.0449219,142.0712891v6.1376953l22.4277344-11.4775391v-6.2890625l-22.4277344,11.6289063z"/>
		<path style="&st12;" d="M132.0839844,90.0048828v-6.1381836l22.4277344,11.4780273v6.2875977l-22.4277344-11.6274414z"/>
		<path style="&st8;" d="M132.0839844,90.0048828v-6.1381836l22.4277344,11.4780273v6.2875977l-22.4277344-11.6274414z"/>
		<path style="&st10;" d="M131.8554688,95.4428711v6.1381836l22.4296875-11.4785156v-6.2875977l-22.4296875,11.6279297z"/>
		<path style="&st8;" d="M131.8554688,95.4428711v6.1381836l22.4296875-11.4785156v-6.2875977l-22.4296875,11.6279297z"/>
		<path style="&st12;" d="M131.8535156,171.8056641v-6.1386719l22.4296875,11.4785156v6.2871094l-22.4296875-11.6269531z"/>
		<path style="&st8;" d="M131.8535156,171.8056641v-6.1386719l22.4296875,11.4785156v6.2871094l-22.4296875-11.6269531z"/>
		<path style="&st12;" d="M131.96875,160.2001953v-6.1386719l22.4277344,11.4775391v6.2880859L131.96875,160.2001953z"/>
		<path style="&st8;" d="M131.96875,160.2001953v-6.1386719l22.4277344,11.4775391v6.2880859L131.96875,160.2001953z"/>
		<path style="&st10;" d="M131.7441406,165.6376953v6.1376953l22.4277344-11.4775391v-6.2880859l-22.4277344,11.6279297z"/>
		<path style="&st8;" d="M131.7441406,165.6376953v6.1376953l22.4277344-11.4775391v-6.2880859l-22.4277344,11.6279297z"/>
		<path style="&st12;" d="M132.0175781,183.5712891v-6.1367188l22.4287109,11.4765625v6.2890625l-22.4287109-11.6289063z"/>
		<path style="&st8;" d="M132.0175781,183.5712891v-6.1367188l22.4287109,11.4765625v6.2890625l-22.4287109-11.6289063z"/>
		<path style="&st10;" d="M131.9121094,177.1806641v6.1367188l22.4277344-11.4765625v-6.2890625l-22.4277344,11.6289063z"/>
		<path style="&st8;" d="M131.9121094,177.1806641v6.1367188l22.4277344-11.4765625v-6.2890625l-22.4277344,11.6289063z"/>
		<path style="&st12;" d="M131.9042969,195.1787109v-6.1367188l22.4287109,11.4765625v6.2871094l-22.4287109-11.6269531z"/>
		<path style="&st8;" d="M131.9042969,195.1787109v-6.1367188l22.4287109,11.4765625v6.2871094l-22.4287109-11.6269531z"/>
		<path style="&st10;" d="M131.7929688,189.0117188v6.1357422l22.4277344-11.4785156v-6.2871094l-22.4277344,11.6298828z"/>
		<path style="&st8;" d="M131.7929688,189.0117188v6.1357422l22.4277344-11.4785156v-6.2871094l-22.4277344,11.6298828z"/>
		<path style="&st10;" d="M131.9619141,200.5556641v6.1367188l22.4277344-11.4775391v-6.2880859l-22.4277344,11.6289063z"/>
		<path style="&st8;" d="M131.9619141,200.5556641v6.1367188l22.4277344-11.4775391v-6.2880859l-22.4277344,11.6289063z"/>
		<path style="&st12;" d="M132,148.4863281v-6.1357422l22.4277344,11.4765625v6.2871094L132,148.4863281z"/>
		<path style="&st8;" d="M132,148.4863281v-6.1357422l22.4277344,11.4765625v6.2871094L132,148.4863281z"/>
		<path style="&st10;" d="M131.7744141,153.9267578v6.1367188l22.4267578-11.4785156v-6.2871094l-22.4267578,11.6289063z"/>
		<path style="&st8;" d="M131.7744141,153.9267578v6.1367188l22.4267578-11.4785156v-6.2871094l-22.4267578,11.6289063z"/>
		<path style="&st12;" d="M131.9384766,55.0014648V48.862793l22.4267578,11.4785156v6.2875977l-22.4267578-11.6274414z"/>
		<path style="&st8;" d="M131.9384766,55.0014648V48.862793l22.4267578,11.4785156v6.2875977l-22.4267578-11.6274414z"/>
		<path style="&st12;" d="M132.0507813,43.3950195v-6.1381836l22.4296875,11.4780273v6.2880859l-22.4296875-11.6279297z"/>
		<path style="&st8;" d="M132.0507813,43.3950195v-6.1381836l22.4296875,11.4780273v6.2880859l-22.4296875-11.6279297z"/>
		<path style="&st10;" d="M131.8261719,48.8330078v6.1381836l22.4267578-11.4780273v-6.2880859l-22.4267578,11.6279297z"/>
		<path style="&st8;" d="M131.8261719,48.8330078v6.1381836l22.4267578-11.4780273v-6.2880859l-22.4267578,11.6279297z"/>
		<path style="&st12;" d="M132.0996094,66.7670898v-6.1362305l22.4306641,11.4780273v6.2861328l-22.4306641-11.6279297z"/>
		<path style="&st8;" d="M132.0996094,66.7670898v-6.1362305l22.4306641,11.4780273v6.2861328l-22.4306641-11.6279297z"/>
		<path style="&st10;" d="M131.9941406,60.3779297v6.1367188l22.4277344-11.4785156v-6.2875977l-22.4277344,11.6293945z"/>
		<path style="&st8;" d="M131.9941406,60.3779297v6.1367188l22.4277344-11.4785156v-6.2875977l-22.4277344,11.6293945z"/>
		<path style="&st12;" d="M131.9882813,78.3735352v-6.1367188l22.4277344,11.4765625v6.2880859l-22.4277344-11.6279297z"/>
		<path style="&st8;" d="M131.9882813,78.3735352v-6.1367188l22.4277344,11.4765625v6.2880859l-22.4277344-11.6279297z"/>
		<path style="&st10;" d="M131.875,72.206543v6.137207l22.4296875-11.4785156v-6.2880859L131.875,72.206543z"/>
		<path style="&st8;" d="M131.875,72.206543v6.137207l22.4296875-11.4785156v-6.2880859L131.875,72.206543z"/>
		<path style="&st10;" d="M132.0449219,83.75v6.137207l22.4277344-11.4770508v-6.2875977L132.0449219,83.75z"/>
		<path style="&st8;" d="M132.0449219,83.75v6.137207l22.4277344-11.4770508v-6.2875977L132.0449219,83.75z"/>
		<path style="&st12;" d="M68.5473633,11.5097656h-6.2895508l11.7646484,21.8154297h6.4458008L68.5473633,11.5097656z"/>
		<path style="&st8;" d="M68.5473633,11.5097656h-6.2895508l11.7646484,21.8154297h6.4458008L68.5473633,11.5097656z"/>
		<path style="&st12;" d="M56.6518555,11.621582h-6.2900391l11.7641602,21.8154297h6.4448242L56.6518555,11.621582z"/>
		<path style="&st8;" d="M56.6518555,11.621582h-6.2900391l11.7641602,21.8154297h6.4448242L56.6518555,11.621582z"/>
		<path style="&st10;" d="M62.2270508,11.4018555h6.2900391L56.7529297,33.2172852h-6.4443359l11.918457-21.8154297z"/>
		<path style="&st8;" d="M62.2270508,11.4018555h6.2900391L56.7529297,33.2172852h-6.4443359l11.918457-21.8154297z"/>
		<path style="&st12;" d="M80.6088867,11.6694336h-6.2910156l11.7641602,21.8154297h6.4453125l-11.918457-21.8154297z"/>
		<path style="&st8;" d="M80.6088867,11.6694336h-6.2910156l11.7641602,21.8154297h6.4453125l-11.918457-21.8154297z"/>
		<path style="&st10;" d="M74.0585938,11.5664063h6.2910156L68.5854492,33.3818359h-6.4453125l11.918457-21.8154297z"/>
		<path style="&st8;" d="M74.0585938,11.5664063h6.2910156L68.5854492,33.3818359h-6.4453125l11.918457-21.8154297z"/>
		<path style="&st12;" d="M116.4599609,11.659668h-6.2900391l11.7646484,21.8154297h6.4443359L116.4599609,11.659668z"/>
		<path style="&st8;" d="M116.4599609,11.659668h-6.2900391l11.7646484,21.8154297h6.4443359L116.4599609,11.659668z"/>
		<path style="&st12;" d="M92.5039063,11.5581055h-6.2900391l11.7646484,21.8173828h6.4462891L92.5039063,11.5581055z"/>
		<path style="&st8;" d="M92.5039063,11.5581055h-6.2900391l11.7646484,21.8173828h6.4462891L92.5039063,11.5581055z"/>
		<path style="&st10;" d="M86.1835938,11.449707h6.2890625L80.7099609,33.265625h-6.4448242l11.918457-21.815918z"/>
		<path style="&st8;" d="M86.1835938,11.449707h6.2890625L80.7099609,33.265625h-6.4448242l11.918457-21.815918z"/>
		<path style="&st12;" d="M104.5644531,11.7709961h-6.2900391l11.7646484,21.8154297h6.4433594l-11.9179688-21.8154297z"/>
		<path style="&st8;" d="M104.5644531,11.7709961h-6.2900391l11.7646484,21.8154297h6.4433594l-11.9179688-21.8154297z"/>
		<path style="&st10;" d="M98.015625,11.6147461h6.2910156l-11.765625,21.8154297h-6.4433594L98.015625,11.6147461z"/>
		<path style="&st8;" d="M98.015625,11.6147461h6.2910156l-11.765625,21.8154297h-6.4433594L98.015625,11.6147461z"/>
		<path style="&st10;" d="M110.1386719,11.5498047h6.2910156l-11.7636719,21.8173828h-6.4453125l11.9179688-21.8173828z"/>
		<path style="&st8;" d="M110.1386719,11.5498047h6.2910156l-11.7636719,21.8173828h-6.4453125l11.9179688-21.8173828z"/>
		<path style="&st12;" d="M128.4863281,11.7177734h-6.2900391l11.7646484,21.8154297h6.4433594l-11.9179688-21.8154297z"/>
		<path style="&st8;" d="M128.4863281,11.7177734h-6.2900391l11.7646484,21.8154297h6.4433594l-11.9179688-21.8154297z"/>
		<path style="&st10;" d="M121.9726563,11.7143555h6.2890625l-11.7636719,21.815918h-6.4453125l11.9199219-21.815918z"/>
		<path style="&st8;" d="M121.9726563,11.7143555h6.2890625l-11.7636719,21.815918h-6.4453125l11.9199219-21.815918z"/>
		<path style="&st12;" d="M44.6479492,11.6513672h-6.2900391l11.7646484,21.8154297h6.4433594L44.6479492,11.6513672z"/>
		<path style="&st8;" d="M44.6479492,11.6513672h-6.2900391l11.7646484,21.8154297h6.4433594L44.6479492,11.6513672z"/>
		<path style="&st12;" d="M32.8681641,11.4345703H26.578125l11.7646484,21.815918h6.4443359l-11.9189453-21.815918z"/>
		<path style="&st8;" d="M32.8681641,11.4345703H26.578125l11.7646484,21.815918h6.4443359l-11.9189453-21.815918z"/>
		<path style="&st10;" d="M50.2231445,11.4311523h6.2900391l-11.7646484,21.815918h-6.4448242l11.9194336-21.815918z"/>
		<path style="&st8;" d="M50.2231445,11.4311523h6.2900391l-11.7646484,21.815918h-6.4448242l11.9194336-21.815918z"/>
		<path style="&st12;" d="M20.9570313,11.4345703h-6.2900391l11.7641602,21.815918h6.4443359l-11.918457-21.815918z"/>
		<path style="&st8;" d="M20.9570313,11.4345703h-6.2900391l11.7641602,21.815918h6.4443359l-11.918457-21.815918z"/>
		<path style="&st10;" d="M38.3408203,11.4345703h6.2900391l-11.7646484,21.815918h-6.4433594l11.9179688-21.815918z"/>
		<path style="&st8;" d="M38.3408203,11.4345703h6.2900391l-11.7646484,21.815918h-6.4433594l11.9179688-21.815918z"/>
		<path style="&st10;" d="M26.5849609,11.4345703h6.2905273l-11.7631836,21.815918h-6.4453125l11.9179688-21.815918z"/>
		<path style="&st8;" d="M26.5849609,11.4345703h6.2905273l-11.7631836,21.815918h-6.4453125l11.9179688-21.815918z"/>
		<path style="&st12;" d="M140.3828125,11.6064453h-6.2910156l11.765625,21.8168945h6.4433594l-11.9179688-21.8168945z"/>
		<path style="&st8;" d="M140.3828125,11.6064453h-6.2910156l11.765625,21.8168945h6.4433594l-11.9179688-21.8168945z"/>
		<path style="&st10;" d="M134.0625,11.4980469h6.2890625l-11.7636719,21.8154297h-6.4472656L134.0625,11.4980469z"/>
		<path style="&st8;" d="M134.0625,11.4980469h6.2890625l-11.7636719,21.8154297h-6.4472656L134.0625,11.4980469z"/>
		<path style="&st10;" d="M145.8925781,11.6630859h6.2900391l-11.7626953,21.8154297h-6.4453125l11.9179688-21.8154297z"/>
		<path style="&st8;" d="M145.8925781,11.6630859h6.2900391l-11.7626953,21.8154297h-6.4453125l11.9179688-21.8154297z"/>
		<path style="&st12;" d="M68.8891602,209.9326172h-6.2905273l11.7636719,21.8154297h6.4453125l-11.918457-21.8154297z"/>
		<path style="&st8;" d="M68.8891602,209.9326172h-6.2905273l11.7636719,21.8154297h6.4453125l-11.918457-21.8154297z"/>
		<path style="&st12;" d="M56.9936523,210.0439453h-6.2915039l11.7646484,21.8164063h6.4453125l-11.918457-21.8164063z"/>
		<path style="&st8;" d="M56.9936523,210.0439453h-6.2915039l11.7646484,21.8164063h6.4453125l-11.918457-21.8164063z"/>
		<path style="&st10;" d="M62.5668945,209.8251953h6.2919922l-11.7641602,21.8144531h-6.4462891l11.918457-21.8144531z"/>
		<path style="&st8;" d="M62.5668945,209.8251953h6.2919922l-11.7641602,21.8144531h-6.4462891l11.918457-21.8144531z"/>
		<path style="&st12;" d="M80.9487305,210.0927734h-6.2895508l11.7636719,21.8144531h6.4443359l-11.918457-21.8144531z"/>
		<path style="&st8;" d="M80.9487305,210.0927734h-6.2895508l11.7636719,21.8144531h6.4443359l-11.918457-21.8144531z"/>
		<path style="&st10;" d="M74.3999023,209.9892578h6.2900391l-11.7641602,21.8164063H62.480957l11.9189453-21.8164063z"/>
		<path style="&st8;" d="M74.3999023,209.9892578h6.2900391l-11.7641602,21.8164063H62.480957l11.9189453-21.8164063z"/>
		<path style="&st12;" d="M116.8007813,210.0820313h-6.2910156l11.765625,21.8154297h6.4453125l-11.9199219-21.8154297z"/>
		<path style="&st8;" d="M116.8007813,210.0820313h-6.2910156l11.765625,21.8154297h6.4453125l-11.9199219-21.8154297z"/>
		<path style="&st12;" d="M92.8457031,209.9804688h-6.2910156l11.7636719,21.8164063h6.4462891l-11.9189453-21.8164063z"/>
		<path style="&st8;" d="M92.8457031,209.9804688h-6.2910156l11.7636719,21.8164063h6.4462891l-11.9189453-21.8164063z"/>
		<path style="&st10;" d="M86.5234375,209.8730469h6.2919922l-11.7646484,21.8154297H74.605957l11.9174805-21.8154297z"/>
		<path style="&st8;" d="M86.5234375,209.8730469h6.2919922l-11.7646484,21.8154297H74.605957l11.9174805-21.8154297z"/>
		<path style="&st12;" d="M104.90625,210.1943359h-6.2929688l11.765625,21.8154297h6.4453125L104.90625,210.1943359z"/>
		<path style="&st8;" d="M104.90625,210.1943359h-6.2929688l11.765625,21.8154297h6.4453125L104.90625,210.1943359z"/>
		<path style="&st10;" d="M98.3554688,210.0380859h6.2910156l-11.765625,21.8144531H86.4375l11.9179688-21.8144531z"/>
		<path style="&st8;" d="M98.3554688,210.0380859h6.2910156l-11.765625,21.8144531H86.4375l11.9179688-21.8144531z"/>
		<path style="&st10;" d="M110.4794922,209.9716797h6.2900391l-11.7617188,21.8183594h-6.4462891l11.9179688-21.8183594z"/>
		<path style="&st8;" d="M110.4794922,209.9716797h6.2900391l-11.7617188,21.8183594h-6.4462891l11.9179688-21.8183594z"/>
		<path style="&st12;" d="M128.6523438,210.2080078h-6.2910156l11.765625,21.8164063h6.4433594l-11.9179688-21.8164063z"/>
		<path style="&st8;" d="M128.6523438,210.2080078h-6.2910156l11.765625,21.8164063h6.4433594l-11.9179688-21.8164063z"/>
		<path style="&st10;" d="M122.3125,210.1376953h6.2890625l-11.7636719,21.8154297h-6.4453125L122.3125,210.1376953z"/>
		<path style="&st8;" d="M122.3125,210.1376953h6.2890625l-11.7636719,21.8154297h-6.4453125L122.3125,210.1376953z"/>
		<path style="&st12;" d="M44.9882813,210.0742188h-6.2895508l11.7636719,21.8154297h6.4443359l-11.918457-21.8154297z"/>
		<path style="&st8;" d="M44.9882813,210.0742188h-6.2895508l11.7636719,21.8154297h6.4443359l-11.918457-21.8154297z"/>
		<path style="&st12;" d="M32.9990234,210.1162109h-6.2910156l11.7646484,21.8164063h6.4443359l-11.9179688-21.8164063z"/>
		<path style="&st8;" d="M32.9990234,210.1162109h-6.2910156l11.7646484,21.8164063h6.4443359l-11.9179688-21.8164063z"/>
		<path style="&st10;" d="M50.5639648,209.8544922h6.2890625l-11.7631836,21.8154297h-6.4443359l11.918457-21.8154297z"/>
		<path style="&st8;" d="M50.5639648,209.8544922h6.2890625l-11.7631836,21.8154297h-6.4443359l11.918457-21.8154297z"/>
		<path style="&st12;" d="M140.5478516,210.0976563h-6.2900391l11.7626953,21.8173828h6.4462891l-11.9189453-21.8173828z"/>
		<path style="&st8;" d="M140.5478516,210.0976563h-6.2900391l11.7626953,21.8173828h6.4462891l-11.9189453-21.8173828z"/>
		<path style="&st10;" d="M134.2275391,209.9892578h6.2900391l-11.7636719,21.8164063h-6.4472656l11.9208984-21.8164063z"/>
		<path style="&st8;" d="M134.2275391,209.9892578h6.2900391l-11.7636719,21.8164063h-6.4472656l11.9208984-21.8164063z"/>
		<path style="&st10;" d="M146.0585938,210.1533203h6.2890625l-11.7636719,21.8164063h-6.4443359l11.9189453-21.8164063z"/>
		<path style="&st8;" d="M146.0585938,210.1533203h6.2890625l-11.7636719,21.8164063h-6.4443359l11.9189453-21.8164063z"/>
		<path style="&st10;" d="M38.5727539,209.8955078h6.2910156l-11.7646484,21.8183594h-6.4438477l11.9174805-21.8183594z"/>
		<path style="&st8;" d="M38.5727539,209.8955078h6.2910156l-11.7646484,21.8183594h-6.4438477l11.9174805-21.8183594z"/>
		<path style="&st12;" d="M20.9946289,210.1474609h-6.2910156l11.7646484,21.8154297h6.4448242l-11.918457-21.8154297z"/>
		<path style="&st8;" d="M20.9946289,210.1474609h-6.2910156l11.7646484,21.8154297h6.4448242l-11.918457-21.8154297z"/>
		<path style="&st10;" d="M26.5688477,209.9257813h6.2910156l-11.7641602,21.8173828h-6.4462891l11.9194336-21.8173828z"/>
		<path style="&st8;" d="M26.5688477,209.9257813h6.2910156l-11.7641602,21.8173828h-6.4462891l11.9194336-21.8173828z"/>
		<path style="&st5;" d="M166.8300781,235.5449219c0,3.7744141-3.0859375,6.8701172-6.8710938,6.8701172H7.1108398c-3.7749023,0-6.8608398-3.0957031-6.8608398-6.8701172V7.1196289C0.25,3.340332,3.3359375,0.25,7.1108398,0.25h152.8481445
			c3.7851563,0,6.8710938,3.090332,6.8710938,6.8696289v228.425293z"/>
	</g>
</svg>
