<?xml version="1.0" encoding="utf-8"?>
<!-- Generator: Adobe Illustrator 9.0, SVG Export Plug-In  -->
<!DOCTYPE svg PUBLIC "-//W3C//DTD SVG 20000303 Stylable//EN"   "http://www.w3.org/TR/2000/03/WD-SVG-20000303/DTD/svg-20000303-stylable.dtd" [
	<!ENTITY st0 "fill:none;stroke:#E61408;stroke-width:3.330775;stroke-miterlimit:10;">
	<!ENTITY st1 "fill:none;stroke-width:0.825;stroke-miterlimit:10;">
	<!ENTITY st2 "fill-rule:evenodd;clip-rule:evenodd;fill:#201887;stroke:none;">
	<!ENTITY st3 "fill:none;stroke:#201887;stroke-width:3.330775;stroke-miterlimit:10;">
	<!ENTITY st4 "fill:#FFFFFF;stroke-width:0.5;">
	<!ENTITY st5 "fill:none;stroke:#FBF227;stroke-width:3.330775;stroke-miterlimit:10;">
	<!ENTITY st6 "fill:none;stroke:#108D35;stroke-width:3.330775;stroke-miterlimit:10;">
	<!ENTITY st7 "fill:none;stroke-width:3.330775;stroke-miterlimit:10;">
	<!ENTITY st8 "fill:none;stroke:#E61408;stroke-width:0.825;stroke-miterlimit:10;">
	<!ENTITY st9 "fill-rule:evenodd;clip-rule:evenodd;stroke:none;">
	<!ENTITY st10 "fill-rule:nonzero;clip-rule:nonzero;stroke:#000000;stroke-miterlimit:4;">
	<!ENTITY st11 "fill-rule:evenodd;clip-rule:evenodd;fill:#E61408;stroke:none;">
	<!ENTITY st12 "fill:none;stroke:#201887;stroke-width:0.825;stroke-miterlimit:10;">
]>
<!-- This set of SVG files is a complete cards game with figures, numbers	-->
<!--    and backs of cards completely designed in SVG.				-->
<!--    									-->
<!--    Copyright (C) 2004 David Bellot						-->
<!--										-->
<!--    This library is free software; you can redistribute it and/or		-->
<!--    modify it under the terms of the GNU Lesser General Public		-->
<!--    License as published by the Free Software Foundation; either		-->
<!--    version 2 of the License, or (at your option) any later version		-->
<!--										-->
<!--    This library is distributed in the hope that it will be useful,		-->
<!--    but WITHOUT ANY WARRANTY; without even the implied warranty of		-->
<!--    MERCHANTABILITY or FITNESS FOR A PARTICULAR PURPOSE.  See the GNU	-->
<!--    Lesser General Public License for more details.				-->
<!--										-->
<!--    You should have received a copy of the GNU Lesser General Public	-->
<!--    License along with this library; if not, write to the Free Software	-->
<!--    Foundation, Inc., 59 Temple Place, Suite 330, Boston, MA 02111-1307  USA-->
<!--										-->
<!--    Contact the author David Bellot at bellot@stat.berkeley.edu or 		-->
<!--    david.bellot@free.fr or yimyom@users.sourceforge.net			-->
<svg  width="167.0864258pt" height="242.6669922pt" viewBox="0 0 167.0864258 242.6669922" xml:space="preserve">
	<g id="Layer_x0020_1" style="&st10;">
		<path style="&st4;" d="M166.8364258,235.5478516c0,3.7773438-3.0869141,6.8691406-6.8701172,6.8691406H7.1108398c-3.7749023,0-6.8608398-3.0917969-6.8608398-6.8691406V7.1201172C0.25,3.3427734,3.3359375,0.25,7.1108398,0.25h152.8554688
			c3.7832031,0,6.8701172,3.0927734,6.8701172,6.8701172v228.4277344z"/>
		<path style="&st3;" d="M57.9746094,107.9599609c0,12.2363281-9.8999023,22.1669922-22.097168,22.1669922c-12.1967773,0-22.0966797-9.9306641-22.0966797-22.1669922s9.8999023-22.1674805,22.0966797-22.1674805
			c12.1972656,0,22.097168,9.9311523,22.097168,22.1674805z"/>
		<path style="&st7;" d="M106.1557617,108.434082c0,12.2368164-9.8994141,22.1674805-22.097168,22.1674805c-12.1967773,0-22.0961914-9.9306641-22.0961914-22.1674805c0-12.2363281,9.8994141-22.1669922,22.0961914-22.1669922
			c12.1977539,0,22.097168,9.9306641,22.097168,22.1669922z"/>
		<path style="&st0;" d="M154.550293,108.434082c0,12.2368164-9.8984375,22.1674805-22.0957031,22.1674805c-12.1982422,0-22.0976563-9.9306641-22.0976563-22.1674805c0-12.2363281,9.8994141-22.1669922,22.0976563-22.1669922
			c12.1972656,0,22.0957031,9.9306641,22.0957031,22.1669922z"/>
		<path style="&st5;" d="M82.137207,131.7353516c0,12.2363281-9.8989258,22.1679688-22.0966797,22.1679688c-12.1972656,0-22.0961914-9.9316406-22.0961914-22.1679688c0-12.2358398,9.8989258-22.1665039,22.0961914-22.1665039
			c12.1977539,0,22.0966797,9.9306641,22.0966797,22.1665039z"/>
		<path style="&st6;" d="M130.8911133,131.7353516c0,12.2363281-9.8994141,22.1679688-22.0966797,22.1679688s-22.0976563-9.9316406-22.0976563-22.1679688c0-12.2358398,9.9003906-22.1665039,22.0976563-22.1665039s22.0966797,9.9306641,22.0966797,22.1665039z"/>
		<path style="&st2;" d="M56.7578125,108.105957c-0.0322266,1.449707-0.1977539,2.8999023-0.3637695,3.6523438c0.6748047,0.0444336,2.28125,1.140625,2.5229492-0.1660156c0.2416992-1.2734375,0.3706055-3.0942383,0.2993164-4.449707
			c-0.105957-1.3554688-1.7607422,0.9521484-2.4584961,0.9633789z"/>
		<path style="&st12;" d="M56.7578125,108.105957c-0.0322266,1.449707-0.1977539,2.8999023-0.3637695,3.6523438c0.6748047,0.0444336,2.28125,1.140625,2.5229492-0.1660156c0.2416992-1.2734375,0.3706055-3.0942383,0.2993164-4.449707
			c-0.105957-1.3554688-1.7607422,0.9521484-2.4584961,0.9633789z"/>
		<path style="&st9;" d="M83.7089844,129.3564453c-1.4501953-0.0332031-2.9003906-0.1992188-3.652832-0.3652344c-0.0449219,0.6748047-1.140625,2.28125,0.1660156,2.5234375c1.2729492,0.2421875,2.3266602,0.3710938,3.6821289,0.2988281
			c1.3549805-0.1054688-0.184082-1.7597656-0.1953125-2.4570313z"/>
		<path style="&st1;" d="M83.7089844,129.3564453c-1.4501953-0.0332031-2.9003906-0.1992188-3.652832-0.3652344c-0.0449219,0.6748047-1.140625,2.28125,0.1660156,2.5234375c1.2729492,0.2421875,2.3266602,0.3710938,3.6821289,0.2988281
			c1.3549805-0.1054688-0.184082-1.7597656-0.1953125-2.4570313z"/>
		<path style="&st9;" d="M104.9233398,108.2255859c-0.0332031,1.449707-0.1328125,2.9331055-0.2988281,3.6850586c0.6748047,0.0444336,2.2167969,1.4033203,2.4589844,0.097168c0.2402344-1.2739258,0.3701172-2.6230469,0.2978516-3.9780273
			c-0.1044922-1.3544922-1.7597656,0.1845703-2.4580078,0.1958008z"/>
		<path style="&st1;" d="M104.9233398,108.2255859c-0.0332031,1.449707-0.1328125,2.9331055-0.2988281,3.6850586c0.6748047,0.0444336,2.2167969,1.4033203,2.4589844,0.097168c0.2402344-1.2739258,0.3701172-2.6230469,0.2978516-3.9780273
			c-0.1044922-1.3544922-1.7597656,0.1845703-2.4580078,0.1958008z"/>
		<path style="&st11;" d="M132.4536133,129.3544922c-1.4501953-0.0332031-2.9326172-0.1347656-3.6865234-0.2998047c-0.0439453,0.6748047-1.4023438,2.2167969-0.0957031,2.4580078c1.2734375,0.2421875,2.6220703,0.3710938,3.9765625,0.2988281
			c1.3554688-0.1054688-0.1835938-1.7597656-0.1943359-2.4570313z"/>
		<path style="&st8;" d="M132.4536133,129.3544922c-1.4501953-0.0332031-2.9326172-0.1347656-3.6865234-0.2998047c-0.0439453,0.6748047-1.4023438,2.2167969-0.0957031,2.4580078c1.2734375,0.2421875,2.6220703,0.3710938,3.9765625,0.2988281
			c1.3554688-0.1054688-0.1835938-1.7597656-0.1943359-2.4570313z"/>
	</g>
</svg>
