<?xml version="1.0" encoding="utf-8"?>
<!-- Generator: Adobe Illustrator 9.0, SVG Export Plug-In  -->
<!DOCTYPE svg PUBLIC "-//W3C//DTD SVG 20000303 Stylable//EN"   "http://www.w3.org/TR/2000/03/WD-SVG-20000303/DTD/svg-20000303-stylable.dtd" [
	<!ENTITY st0 "fill-rule:nonzero;clip-rule:nonzero;fill:#190C80;stroke:#190C80;stroke-width:0.103975;stroke-miterlimit:4;">
	<!ENTITY st1 "fill-rule:evenodd;clip-rule:evenodd;stroke-miterlimit:10;">
	<!ENTITY st2 "fill:#FFFFFF;stroke:#000000;stroke-width:0.5;">
]>
<!-- This set of SVG files is a complete cards game with figures, numbers	-->
<!--    and backs of cards completely designed in SVG.				-->
<!--    									-->
<!--    Copyright (C) 2004 David Bellot						-->
<!--										-->
<!--    This library is free software; you can redistribute it and/or		-->
<!--    modify it under the terms of the GNU Lesser General Public		-->
<!--    License as published by the Free Software Foundation; either		-->
<!--    version 2 of the License, or (at your option) any later version		-->
<!--										-->
<!--    This library is distributed in the hope that it will be useful,		-->
<!--    but WITHOUT ANY WARRANTY; without even the implied warranty of		-->
<!--    MERCHANTABILITY or FITNESS FOR A PARTICULAR PURPOSE.  See the GNU	-->
<!--    Lesser General Public License for more details.				-->
<!--										-->
<!--    You should have received a copy of the GNU Lesser General Public	-->
<!--    License along with this library; if not, write to the Free Software	-->
<!--    Foundation, Inc., 59 Temple Place, Suite 330, Boston, MA 02111-1307  USA-->
<!--										-->
<!--    Contact the author David Bellot at bellot@stat.berkeley.edu or 		-->
<!--    david.bellot@free.fr or yimyom@users.sourceforge.net			-->
<svg  width="167.0800781pt" height="242.6669922pt" viewBox="0 0 167.0800781 242.6669922" xml:space="preserve">
	<g id="Layer_x0020_1" style="&st0;">
		<path style="&st2;" d="M166.8300781,235.5478516c0,3.7753906-3.0859375,6.8691406-6.8701172,6.8691406H7.1113281c-3.7749023,0-6.8613281-3.09375-6.8613281-6.8691406V7.1201172C0.25,3.3452148,3.3364258,0.25,7.1113281,0.25h152.8486328
			c3.7841797,0,6.8701172,3.0952148,6.8701172,6.8701172v228.4277344z"/>
		<path style="&st1;" d="M137.4824219,0.4995117h4.1503906l24.9072266,24.9985352v4.1660156L137.4824219,0.4995117z"/>
		<path style="&st1;" d="M155.1240234,0.4995117h4.1513672l7.2646484,7.2915039v4.1660156L155.1240234,0.4995117z"/>
		<path style="&st1;" d="M120.8769531,0.4995117h4.1513672l41.5117188,41.6640625v4.1660156L120.8769531,0.4995117z"/>
		<path style="&st1;" d="M87.640625,0.4716797h4.1503906l74.7490234,75.0229492l0.1669922,4.2080078L87.640625,0.4716797z"/>
		<path style="&st1;" d="M71.0214844,0.4580078h4.1508789l91.3676758,91.7021484l-0.0419922,4.0966797L71.0214844,0.4580078z"/>
		<path style="&st1;" d="M54.4165039,0.4580078h4.1513672l107.972168,108.3676758l0.0693359,4.0966797L54.4165039,0.4580078z"/>
		<path style="&st1;" d="M37.8120117,0.4580078h4.1513672l124.5766602,125.0332031v4.1660156L37.8120117,0.4580078z"/>
		<path style="&st1;" d="M21.2075195,0.4580078h4.1508789L166.5400391,142.15625v4.1669922L21.2075195,0.4580078z"/>
		<path style="&st1;" d="M5.612793,0.8881836l3.2514648-0.4580078l157.6757813,158.3920898v4.1669922L4.9208984,0.9580078"/>
		<path style="&st1;" d="M104.2724609,0.4995117h4.1513672l58.1162109,58.3295898v4.1660156L104.2724609,0.4995117z"/>
		<path style="&st1;" d="M0.4931641,12.9985352V8.8320313l166.046875,166.6552734v4.1669922L4.644043,17.1650391"/>
		<path style="&st1;" d="M0.4931641,29.6640625v-4.1660156l166.046875,166.6552734v4.1660156L4.644043,33.8305664"/>
		<path style="&st1;" d="M0.4931641,46.3295898v-4.1660156l166.046875,166.6557617v4.1660156L4.644043,50.4960938"/>
		<path style="&st1;" d="M0.4931641,62.9951172v-4.1660156l166.046875,166.6552734v4.1669922L4.644043,67.1616211"/>
		<path style="&st1;" d="M0.4931641,96.3266602v-4.1665039l149.4423828,149.9892578h-4.1513672L4.644043,100.4926758"/>
		<path style="&st1;" d="M0.4931641,112.9921875v-4.1665039l132.8369141,133.3237305h-4.1503906L4.644043,117.1582031"/>
		<path style="&st1;" d="M0.4931641,79.6606445v-4.1660156l163.9716797,164.5727539l-1.0390625,1.0410156h-2.0742188L4.644043,83.8271484"/>
		<path style="&st1;" d="M0.4931641,129.6572266v-4.1660156l116.2333984,116.6582031h-4.1523438L0.4931641,129.6572266z"/>
		<path style="&st1;" d="M0.4931641,146.3232422V142.15625l99.6279297,99.9931641h-4.1513672L0.4931641,146.3232422z"/>
		<path style="&st1;" d="M0.4931641,162.9892578v-4.1669922l83.0234375,83.3271484h-4.1508789L0.4931641,162.9892578z"/>
		<path style="&st1;" d="M0.4931641,179.6542969v-4.1669922l66.418457,66.6621094h-4.1508789L0.4931641,179.6542969z"/>
		<path style="&st1;" d="M0.4931641,196.3193359v-4.1660156l49.8139648,49.9960938H46.15625L0.4931641,196.3193359z"/>
		<path style="&st1;" d="M0.4931641,212.9853516v-4.1660156l33.2094727,33.3300781h-4.1513672L0.4931641,212.9853516z"/>
		<path style="&st1;" d="M0.4931641,229.6513672v-4.1669922l16.6044922,16.6650391h-4.1508789L0.4931641,229.6513672z"/>
	</g>
</svg>
