<?xml version="1.0" encoding="utf-8"?>
<!-- Generator: Adobe Illustrator 9.0, SVG Export Plug-In  -->
<!DOCTYPE svg PUBLIC "-//W3C//DTD SVG 20000303 Stylable//EN"   "http://www.w3.org/TR/2000/03/WD-SVG-20000303/DTD/svg-20000303-stylable.dtd" [
	<!ENTITY st0 "fill:#E61408;">
	<!ENTITY st1 "fill:#FBAF0C;stroke:none;">
	<!ENTITY st2 "fill:#1A99C4;stroke:none;">
	<!ENTITY st3 "fill:#FFFFFF;stroke:#000000;stroke-width:0.125;">
	<!ENTITY st4 "fill:#691284;stroke:none;">
	<!ENTITY st5 "fill:#33A02C;stroke:none;">
	<!ENTITY st6 "fill:#F7F619;stroke:none;">
	<!ENTITY st7 "fill:#FB0F0C;stroke:none;">
	<!ENTITY st8 "fill:#FFFFFF;stroke:none;">
	<!ENTITY st9 "fill:#FFFFFF;stroke-width:0.5;">
	<!ENTITY st10 "fill:none;stroke:none;">
	<!ENTITY st11 "fill:#E61408;stroke:none;">
	<!ENTITY st12 "fill-rule:nonzero;clip-rule:nonzero;stroke:#000000;stroke-miterlimit:4;">
	<!ENTITY st13 "stroke:none;">
]>
<!-- This set of SVG files is a complete cards game with figures, numbers	-->
<!--    and backs of cards completely designed in SVG.				-->
<!--    									-->
<!--    Copyright (C) 2004 David Bellot						-->
<!--										-->
<!--    This library is free software; you can redistribute it and/or		-->
<!--    modify it under the terms of the GNU Lesser General Public		-->
<!--    License as published by the Free Software Foundation; either		-->
<!--    version 2 of the License, or (at your option) any later version		-->
<!--										-->
<!--    This library is distributed in the hope that it will be useful,		-->
<!--    but WITHOUT ANY WARRANTY; without even the implied warranty of		-->
<!--    MERCHANTABILITY or FITNESS FOR A PARTICULAR PURPOSE.  See the GNU	-->
<!--    Lesser General Public License for more details.				-->
<!--										-->
<!--    You should have received a copy of the GNU Lesser General Public	-->
<!--    License along with this library; if not, write to the Free Software	-->
<!--    Foundation, Inc., 59 Temple Place, Suite 330, Boston, MA 02111-1307  USA-->
<!--										-->
<!--    Contact the author David Bellot at bellot@stat.berkeley.edu or 		-->
<!--    david.bellot@free.fr or yimyom@users.sourceforge.net			-->
<svg  width="167.0864258pt" height="242.6674805pt" viewBox="0 0 167.0864258 242.6674805" xml:space="preserve">
	<g id="Layer_x0020_1" style="&st12;">
		<path style="&st9;" d="M166.8364258,235.5463867c0,3.7773438-3.0859375,6.8710938-6.8691406,6.8710938H7.1113281c-3.7744141,0-6.8613281-3.09375-6.8613281-6.8710938V7.1191406C0.25,3.3417969,3.3369141,0.25,7.1113281,0.25h152.855957
			c3.7832031,0,6.8691406,3.0917969,6.8691406,6.8691406v228.4272461z"/>
		<g style="&st11;">
			<path d="M10.3251953,30.1328125v-2.84375h0.6875c0.0166016,0.7529297,0.0927734,1.3066406,0.2294922,1.6582031c0.1376953,0.3535156,0.34375,0.5292969,0.6191406,0.5292969c0.3466797,0,0.5888672-0.2988281,0.7265625-0.8974609
				c0.1367188-0.5986328,0.2060547-1.7216797,0.2060547-3.3681641V9.2265625h-1.1875v-1.46875h4.3125v1.46875h-1.03125v16.0810547c0,1.9560547-0.2197266,3.3837891-0.6572266,4.2861328c-0.4394531,0.9003906-1.140625,1.3515625-2.1074219,1.3515625
				c-0.296875,0-0.5947266-0.0683594-0.8925781-0.203125c-0.2978516-0.1357422-0.5996094-0.3388672-0.9052734-0.609375z"/>
			<path d="M21.1386719,26.1328125c-1.3535156,0-2.4150391-0.8300781-3.1835938-2.4892578c-0.7695313-1.6591797-1.1542969-3.9472656-1.1542969-6.8642578c0-2.9160156,0.3847656-5.2050781,1.1542969-6.8691406
				c0.7685547-1.6640625,1.8300781-2.4960938,3.1835938-2.4960938c1.3613281,0,2.4267578,0.8300781,3.1962891,2.4902344c0.7685547,1.6591797,1.1533203,3.9511719,1.1533203,6.875c0,2.9169922-0.3867188,5.2050781-1.1601563,6.8642578
				s-1.8359375,2.4892578-3.1894531,2.4892578z M21.1386719,24.6640625c0.6914063,0,1.203125-0.6484375,1.5371094-1.9433594c0.3330078-1.296875,0.5-3.2773438,0.5-5.9414063c0-2.671875-0.1669922-4.65625-0.5-5.9521484
				c-0.3339844-1.2958984-0.8457031-1.9443359-1.5371094-1.9443359c-0.6835938,0-1.1914063,0.6542969-1.5253906,1.9628906c-0.3330078,1.3076172-0.5,3.2851563-0.5,5.9335938c0,2.640625,0.1669922,4.6152344,0.5,5.9228516
				c0.3339844,1.3076172,0.8417969,1.9619141,1.5253906,1.9619141z"/>
			<path d="M26.484375,25.7890625v-1.46875h1.03125v-15.09375h-1.03125v-1.46875h4.125v1.46875h-1.03125v6.5761719l3.4121094-6.5761719h-0.8583984v-1.46875h2.9970703v1.46875h-1.0751953l-2.8886719,5.5625l3.9394531,9.53125h0.7861328v1.46875h-2.7275391
				l-3.5849609-8.7558594v7.2871094h1.03125v1.46875h-4.125z"/>
			<path d="M36.0839844,25.7890625v-1.46875h1.03125v-15.09375h-1.03125v-1.46875h7.21875v4.25h-0.75v-2.59375h-3.375v5.78125h2.09375v-2.28125h0.75v6.21875h-0.75v-2.28125h-2.09375v7.28125h3.46875v-2.59375h0.75v4.25h-7.3125z"/>
			<path d="M49.8710938,16.9960938c0.3125,0.1035156,0.578125,0.3398438,0.7988281,0.7089844c0.2197266,0.3691406,0.4101563,0.9023438,0.5703125,1.6005859l1.1669922,5.0146484h0.8339844v1.46875h-2.6494141l-1.2929688-5.4472656
				c-0.2529297-1.125-0.4667969-1.8417969-0.6416016-2.1503906c-0.1748047-0.3105469-0.4169922-0.4648438-0.7255859-0.4648438h-0.3359375v6.59375h1.03125v1.46875h-4.125v-1.46875h1.03125v-15.09375h-1.03125v-1.46875h4.5976563
				c0.9375,0,1.6601563,0.421875,2.1699219,1.2636719c0.5087891,0.8417969,0.7636719,2.0371094,0.7636719,3.5849609c0,1.2578125-0.1806641,2.2509766-0.5410156,2.9804688s-0.9003906,1.1992188-1.6210938,1.4091797z M47.5957031,16.2890625h0.7070313
				c0.5107422,0,0.9052734-0.3066406,1.1855469-0.9189453c0.2792969-0.6123047,0.4199219-1.4873047,0.4199219-2.6240234s-0.140625-2.0078125-0.4199219-2.6123047c-0.2802734-0.6044922-0.6748047-0.9072266-1.1855469-0.9072266h-0.7070313v7.0625z"/>
		</g>
		<g style="&st11;">
			<path d="M156.2231445,212.0268555v2.84375h-0.6875c-0.0175781-0.7519531-0.09375-1.3066406-0.2304688-1.6582031c-0.1367188-0.3535156-0.34375-0.5292969-0.6171875-0.5292969c-0.3476563,0-0.5898438,0.2988281-0.7285156,0.8984375
				c-0.1367188,0.5976563-0.2050781,1.7207031-0.2050781,3.3671875v15.984375h1.1875v1.46875h-4.3125v-1.46875h1.03125v-16.0800781c0-1.9570313,0.21875-3.3847656,0.6582031-4.2871094c0.4375-0.9003906,1.140625-1.3515625,2.1054688-1.3515625
				c0.2988281,0,0.5957031,0.0683594,0.8925781,0.203125c0.2988281,0.1367188,0.5996094,0.3398438,0.90625,0.609375z"/>
			<path d="M145.4086914,216.0268555c1.3535156,0,2.4160156,0.8300781,3.1835938,2.4902344c0.7695313,1.6582031,1.1542969,3.9472656,1.1542969,6.8632813s-0.3847656,5.2050781-1.1542969,6.8691406c-0.7675781,1.6640625-1.8300781,2.4960938-3.1835938,2.4960938
				c-1.3613281,0-2.4257813-0.8300781-3.1953125-2.4902344c-0.7695313-1.6582031-1.1542969-3.9511719-1.1542969-6.875c0-2.9160156,0.3867188-5.2050781,1.1601563-6.8632813c0.7734375-1.6601563,1.8359375-2.4902344,3.1894531-2.4902344z M145.4086914,217.4956055
				c-0.6914063,0-1.203125,0.6484375-1.5371094,1.9433594c-0.3320313,1.296875-0.5,3.2773438-0.5,5.9414063c0,2.671875,0.1679688,4.65625,0.5,5.953125c0.3339844,1.2949219,0.8457031,1.9433594,1.5371094,1.9433594
				c0.6835938,0,1.1914063-0.6542969,1.5253906-1.9628906c0.3339844-1.3066406,0.5-3.2851563,0.5-5.9335938c0-2.640625-0.1660156-4.6152344-0.5-5.921875c-0.3339844-1.3085938-0.8417969-1.9628906-1.5253906-1.9628906z"/>
			<path d="M140.0629883,216.3706055v1.46875h-1.03125v15.09375h1.03125v1.46875h-4.125v-1.46875h1.03125v-6.5761719l-3.4121094,6.5761719h0.859375v1.46875h-2.9980469v-1.46875h1.0761719l2.8886719-5.5625l-3.9394531-9.53125h-0.7871094v-1.46875h2.7285156
				l3.5839844,8.7558594v-7.2871094h-1.03125v-1.46875h4.125z"/>
			<path d="M130.4633789,216.3706055v1.46875h-1.03125v15.09375h1.03125v1.46875h-7.21875v-4.25h0.75v2.59375h3.375v-5.78125h-2.09375v2.28125h-0.75v-6.21875h0.75v2.28125h2.09375v-7.28125h-3.46875v2.59375h-0.75v-4.25h7.3125z"/>
			<path d="M116.6762695,225.1635742c-0.3125-0.1035156-0.578125-0.3398438-0.7988281-0.7089844c-0.21875-0.3691406-0.4101563-0.9023438-0.5703125-1.5996094l-1.1660156-5.015625h-0.8339844v-1.46875h2.6484375l1.2929688,5.4472656
				c0.2539063,1.125,0.4667969,1.8417969,0.6425781,2.1503906c0.1738281,0.3105469,0.4160156,0.4648438,0.7246094,0.4648438h0.3359375v-6.59375h-1.03125v-1.46875h4.125v1.46875h-1.03125v15.09375h1.03125v1.46875h-4.5976563
				c-0.9375,0-1.6601563-0.421875-2.1699219-1.2636719c-0.5078125-0.8417969-0.7636719-2.0371094-0.7636719-3.5839844c0-1.2578125,0.1816406-2.2519531,0.5410156-2.9804688c0.3613281-0.7304688,0.9003906-1.1992188,1.6210938-1.4101563z M118.9516602,225.8706055
				h-0.7070313c-0.5097656,0-0.9042969,0.3066406-1.1855469,0.9199219c-0.2792969,0.6113281-0.4199219,1.4863281-0.4199219,2.6230469s0.140625,2.0078125,0.4199219,2.6132813c0.28125,0.6035156,0.6757813,0.90625,1.1855469,0.90625h0.7070313v-7.0625z"/>
		</g>
		<g style="&st13;">
			<path style="&st3;" d="M116.1567383,34.2382813c0.2285156,0.1318359,0.3085938,0.4277344,0.1757813,0.65625l-5.3496094,9.2666016c-0.1328125,0.2294922-0.4277344,0.3076172-0.65625,0.1757813l-13.8476563-7.9951172
				c-0.2304688-0.1328125-0.3085938-0.4277344-0.1777344-0.65625l5.3515625-9.2666016c0.1308594-0.2294922,0.4277344-0.3076172,0.65625-0.1757813l13.8476563,7.9951172z"/>
			<g>
				<g>
					<path d="M107.6450195,35.2509766c-0.1230469,0.2109375-0.4121094,0.1923828-0.6699219,0.1201172c-0.2578125-0.0712891-0.4863281-0.1953125-0.4863281-0.1953125l-0.0644531,0.1064453c0,0,0.8886719,0.5400391,0.6464844,0.9619141l0.5742188-0.9931641z"/>
				</g>
				<path d="M106.949707,34.375c-0.4394531-0.2519531-1.1367188,0.2216797-1.5957031,0.2138672c0.2363281,0.3935547,0.1738281,1.234375,0.6132813,1.4902344c0.2050781,0.1201172,0.484375,0.0253906,0.6210938-0.2099609
					c0.1347656-0.234375,0.078125-0.5224609-0.1308594-0.6425781c0.2089844,0.1201172,0.4863281,0.0253906,0.6230469-0.2089844c0.1347656-0.2353516,0.078125-0.5234375-0.1308594-0.6425781z"/>
			</g>
			<g>
				<path d="M98.043457,36.2451172l-0.0878906-0.0507813l0.0527344-0.0908203l-0.8847656-0.5107422l0.0761719,0.1787109l-0.109375-0.0625l-0.0957031-0.21875l0.0585938-0.1015625l1.0253906,0.5917969l0.0546875-0.09375L98.2211914,35.9375l-0.1777344,0.3076172z"/>
			</g>
			<g>
				<path d="M114.5415039,34.3496094l0.0878906,0.0507813l-0.0527344,0.0908203l0.8847656,0.5107422l-0.0761719-0.1787109l0.109375,0.0625l0.0957031,0.21875l-0.0585938,0.1015625l-1.0253906-0.5917969l-0.0546875,0.09375l-0.0878906-0.0507813l0.1777344-0.3076172z
					"/>
			</g>
			<g>
				<g>
					<path d="M99.0825195,36.3349609c-0.0390625,0.0664063-0.1289063,0.0605469-0.2109375,0.0380859c-0.0820313-0.0234375-0.1542969-0.0625-0.1542969-0.0625l-0.0195313,0.0341797c0,0,0.28125,0.1699219,0.203125,0.3027344l0.1816406-0.3125z"/>
				</g>
				<path d="M98.8637695,36.0585938c-0.1386719-0.0791016-0.3574219,0.0703125-0.5019531,0.0683594c0.0742188,0.1230469,0.0546875,0.3886719,0.1914063,0.46875c0.0664063,0.0371094,0.1542969,0.0078125,0.1972656-0.0664063
					c0.0410156-0.0742188,0.0234375-0.1640625-0.0410156-0.2021484c0.0644531,0.0380859,0.1523438,0.0087891,0.1953125-0.0654297s0.0234375-0.1650391-0.0410156-0.203125z"/>
			</g>
			<g>
				<g>
					<path d="M113.5180664,34.2441406c0.0390625-0.0664063,0.1289063-0.0605469,0.2109375-0.0380859s0.1523438,0.0615234,0.1523438,0.0615234l0.0214844-0.0332031c0,0-0.28125-0.1699219-0.203125-0.3027344l-0.1816406,0.3125z"/>
				</g>
				<path d="M113.7368164,34.5195313c0.1386719,0.0800781,0.3574219-0.0693359,0.5019531-0.0673828c-0.0742188-0.1240234-0.0546875-0.3886719-0.1914063-0.46875c-0.0664063-0.0380859-0.1542969-0.0087891-0.1972656,0.0654297
					c-0.0410156,0.0742188-0.0234375,0.1650391,0.0410156,0.203125c-0.0644531-0.0380859-0.1523438-0.0087891-0.1953125,0.0654297s-0.0234375,0.1650391,0.0410156,0.2021484z"/>
			</g>
			<path style="&st3;" d="M126.2856445,28.3837891c0.1328125,0.2294922,0.0527344,0.5244141-0.1757813,0.6572266l-9.2675781,5.3496094c-0.2285156,0.1318359-0.5234375,0.0527344-0.65625-0.1767578l-7.9941406-13.8476563
				c-0.1328125-0.2285156-0.0527344-0.5244141,0.1757813-0.65625l9.265625-5.3505859c0.2304688-0.1318359,0.5253906-0.0527344,0.65625,0.1767578l7.9960938,13.8476563z"/>
			<g>
				<path d="M117.3950195,23.484375c0.1328125,0.2285156,0.0488281,0.5234375-0.1875,0.6601563s-0.5351563,0.0615234-0.6660156-0.1679688c-0.1328125-0.2285156-0.0488281-0.5244141,0.1875-0.6601563c0.2363281-0.1367188,0.5332031-0.0615234,0.6660156,0.1679688z"/>
				<path d="M118.3969727,23.9501953c0.1328125,0.2285156,0.0488281,0.5244141-0.1875,0.6611328c-0.2363281,0.1357422-0.5332031,0.0605469-0.6660156-0.1679688s-0.0488281-0.5244141,0.1875-0.6611328c0.2363281-0.1357422,0.5351563-0.0615234,0.6660156,0.1679688z"
					/>
				<path d="M117.3051758,24.5839844c0.0488281,0.0839844,0.0683594,0.1777344,0.0625,0.2675781c-0.0117188,0.1572266-0.1015625,0.3076172-0.25,0.3945313c-0.2363281,0.1357422-0.5351563,0.0605469-0.6660156-0.1679688
					c-0.1328125-0.2285156-0.0488281-0.5253906,0.1875-0.6611328s0.5351563-0.0615234,0.6660156,0.1669922z"/>
				<g>
					<path d="M118.387207,25.0322266c-0.2109375,0.1220703-0.4199219,0.0146484-0.578125-0.1240234c-0.15625-0.1376953-0.2617188-0.3066406-0.2617188-0.3066406l-0.1074219,0.0625c0,0,0.375,0.6972656-0.046875,0.9414063l0.9941406-0.5732422z"/>
				</g>
				<g>
					<path d="M116.8520508,24.2021484c0.3789063,0.1005859,0.5878906,0.4619141,0.5878906,0.4619141l0.1074219-0.0625c0,0-0.2128906-0.3671875-0.1132813-0.734375"/>
				</g>
				<g>
					<path d="M117.3461914,24.9453125c0.1015625-0.3789063,0.4609375-0.5869141,0.4609375-0.5869141L117.746582,24.25c0,0-0.3671875,0.2128906-0.7363281,0.1142578"/>
				</g>
				<g>
					<path d="M117.8286133,24.6689453c-0.3789063-0.1015625-0.7382813,0.1064453-0.7382813,0.1064453l-0.0644531-0.1074219c0,0,0.3691406-0.2119141,0.4667969-0.5800781"/>
				</g>
			</g>
			<g>
				<path d="M109.5942383,21.0683594l-0.0507813-0.0878906l0.0917969-0.0527344l-0.5117188-0.8847656l-0.0234375,0.1933594l-0.0625-0.109375l0.0273438-0.2363281l0.1015625-0.0595703l0.5917969,1.0253906l0.09375-0.0537109l0.0507813,0.0878906l-0.3085938,0.1777344
					z"/>
			</g>
			<g>
				<path d="M124.8305664,27.6757813l0.0507813,0.0878906l-0.0898438,0.0527344l0.5097656,0.8847656l0.0234375-0.1933594l0.0644531,0.109375l-0.0273438,0.2363281l-0.1015625,0.0595703l-0.5917969-1.0253906l-0.09375,0.0537109l-0.0507813-0.0878906
					l0.3066406-0.1777344z"/>
			</g>
			<g>
				<path d="M110.1176758,21.1972656c0.0390625,0.0693359,0.0136719,0.1582031-0.0566406,0.1992188s-0.1601563,0.0175781-0.1992188-0.0507813c-0.0410156-0.0683594-0.015625-0.1572266,0.0546875-0.1982422
					c0.0722656-0.0410156,0.1621094-0.0185547,0.2011719,0.0498047z"/>
				<path d="M110.418457,21.3378906c0.0390625,0.0683594,0.015625,0.1572266-0.0566406,0.1982422c-0.0703125,0.0410156-0.1601563,0.0185547-0.1992188-0.0498047c-0.0410156-0.0693359-0.015625-0.1582031,0.0566406-0.1992188
					c0.0703125-0.0410156,0.1601563-0.0175781,0.1992188,0.0507813z"/>
				<path d="M110.090332,21.5283203c0.015625,0.0253906,0.0214844,0.0537109,0.0195313,0.0800781c-0.0039063,0.0478516-0.03125,0.0927734-0.0761719,0.1181641c-0.0703125,0.0410156-0.1601563,0.0185547-0.1992188-0.0498047
					c-0.0410156-0.0693359-0.015625-0.1572266,0.0566406-0.1982422c0.0703125-0.0410156,0.1601563-0.0195313,0.1992188,0.0498047z"/>
				<g>
					<path d="M110.4165039,21.6630859c-0.0644531,0.0361328-0.1269531,0.0039063-0.1738281-0.0371094c-0.0488281-0.0419922-0.0800781-0.0927734-0.0800781-0.0927734l-0.03125,0.0185547c0,0,0.1132813,0.2099609-0.0136719,0.2832031l0.2988281-0.171875z"/>
				</g>
				<g>
					<path d="M109.9555664,21.4130859c0.1132813,0.0302734,0.1757813,0.1386719,0.1757813,0.1386719l0.03125-0.0185547c0,0-0.0625-0.1103516-0.0332031-0.2207031"/>
				</g>
				<g>
					<path d="M110.1020508,21.6367188c0.03125-0.1132813,0.1386719-0.1757813,0.1386719-0.1757813l-0.0175781-0.0332031c0,0-0.1113281,0.0644531-0.2207031,0.0341797"/>
				</g>
				<g>
					<path d="M110.2485352,21.5537109c-0.1152344-0.0302734-0.2226563,0.0322266-0.2226563,0.0322266l-0.0195313-0.0322266c0,0,0.1113281-0.0634766,0.140625-0.1748047"/>
				</g>
			</g>
			<g>
				<path d="M124.293457,27.53125c-0.0390625-0.0683594-0.015625-0.1582031,0.0566406-0.1992188c0.0703125-0.0400391,0.1601563-0.0175781,0.1992188,0.0507813c0.0410156,0.0683594,0.015625,0.1582031-0.0566406,0.1992188
					c-0.0703125,0.0410156-0.1601563,0.0175781-0.1992188-0.0507813z"/>
				<path d="M123.9926758,27.390625c-0.0410156-0.0683594-0.015625-0.1572266,0.0566406-0.1982422c0.0703125-0.0410156,0.1601563-0.0185547,0.1992188,0.0507813c0.0390625,0.0683594,0.0136719,0.1572266-0.0566406,0.1982422
					s-0.1601563,0.0185547-0.1992188-0.0507813z"/>
				<path d="M124.3208008,27.2001953c-0.015625-0.0244141-0.0214844-0.0527344-0.0195313-0.0800781c0.0039063-0.046875,0.03125-0.0927734,0.0761719-0.1181641c0.0703125-0.0410156,0.1601563-0.0185547,0.1992188,0.0507813
					c0.0390625,0.0683594,0.0136719,0.1572266-0.0566406,0.1982422s-0.1601563,0.0185547-0.1992188-0.0507813z"/>
				<g>
					<path d="M123.9946289,27.0664063c0.0644531-0.0371094,0.1269531-0.0048828,0.1738281,0.0371094c0.046875,0.0410156,0.078125,0.0917969,0.078125,0.0917969l0.0332031-0.0185547c0,0-0.1132813-0.2099609,0.0136719-0.2832031l-0.2988281,0.1728516z"/>
				</g>
				<g>
					<path d="M124.4555664,27.3154297c-0.1132813-0.0302734-0.1757813-0.1386719-0.1757813-0.1386719l-0.0332031,0.0185547c0,0,0.0644531,0.1103516,0.0351563,0.2207031"/>
				</g>
				<g>
					<path d="M124.3071289,27.0917969c-0.0292969,0.1142578-0.1386719,0.1767578-0.1386719,0.1767578l0.0195313,0.0322266c0,0,0.109375-0.0634766,0.2207031-0.0341797"/>
				</g>
				<g>
					<path d="M124.1625977,27.1748047c0.1132813,0.0302734,0.2226563-0.0322266,0.2226563-0.0322266l0.0195313,0.0332031c0,0-0.1113281,0.0634766-0.140625,0.1738281"/>
				</g>
			</g>
			<path style="&st3;" d="M136.4614258,34.1962891c-0.1308594,0.2294922-0.4277344,0.3085938-0.65625,0.1767578l-9.2675781-5.3505859c-0.2285156-0.1318359-0.3066406-0.4277344-0.1738281-0.6572266l7.9941406-13.8466797
				c0.1328125-0.2294922,0.4277344-0.3085938,0.65625-0.1767578l9.265625,5.3496094c0.2304688,0.1328125,0.3085938,0.4277344,0.1777344,0.6572266l-7.9960938,13.8476563z"/>
			<path style="&st0;" d="M135.5200195,24.4267578l-0.9453125-0.5458984c0,0,0.1308594,0.1152344,0.7734375-0.0429688s0.7363281-0.3886719,0.7363281-0.3886719 M134.574707,23.8808594c0,0,0.2246094,0.0888672,0.3613281,0.7382813
				c0.1386719,0.6494141,0.0195313,0.7851563,0.0195313,0.7851563l0.5644531-0.9775391 M134.9555664,25.4042969c0,0,0.09375-0.2304688,0.7382813-0.3886719c0.6425781-0.1582031,0.7734375-0.0429688,0.7734375-0.0429688l-0.9472656-0.5458984 M136.4672852,24.9726563
				c0,0-0.2246094-0.0888672-0.3632813-0.7382813c-0.1367188-0.6494141-0.0195313-0.7851563-0.0195313-0.7851563l-0.5644531,0.9775391"/>
			<g>
				<path style="&st0;" d="M134.4438477,16.09375l0.0507813-0.0878906l0.0898438,0.0527344l0.5117188-0.8847656L134.9165039,15.25l0.0625-0.109375l0.21875-0.0947266l0.1015625,0.0585938l-0.5917969,1.0253906l0.09375,0.0537109l-0.0507813,0.0878906
					l-0.3066406-0.1777344z"/>
			</g>
			<g>
				<path style="&st0;" d="M136.340332,32.59375l-0.0507813,0.0878906l-0.0917969-0.0527344l-0.5097656,0.8847656l0.1777344-0.0761719l-0.0625,0.109375l-0.21875,0.0947266l-0.1015625-0.0585938l0.5917969-1.0253906l-0.09375-0.0537109l0.0507813-0.0878906
					l0.3085938,0.1777344z"/>
			</g>
			<path style="&st0;" d="M134.3852539,16.7109375l-0.3066406-0.1757813c0,0,0.0429688,0.0371094,0.25-0.0136719c0.2089844-0.0517578,0.2382813-0.1269531,0.2382813-0.1269531 M134.0786133,16.5351563c0,0,0.0722656,0.0283203,0.1171875,0.2382813
				s0.0058594,0.2539063,0.0058594,0.2539063l0.1835938-0.3164063 M134.2016602,17.0273438c0,0,0.03125-0.0751953,0.2382813-0.1259766c0.2089844-0.0517578,0.25-0.0136719,0.25-0.0136719l-0.3046875-0.1767578 M134.6899414,16.8876953
				c0,0-0.0722656-0.0283203-0.1171875-0.2392578c-0.0429688-0.2089844-0.0058594-0.2539063-0.0058594-0.2539063l-0.1816406,0.3164063"/>
			<path style="&st0;" d="M136.4418945,31.96875l0.3046875,0.1767578c0,0-0.0410156-0.0371094-0.25,0.0146484c-0.2070313,0.0507813-0.2382813,0.125-0.2382813,0.125 M136.746582,32.1455078c0,0-0.0722656-0.0283203-0.1171875-0.2382813
				s-0.0058594-0.2539063-0.0058594-0.2539063l-0.1816406,0.3154297 M136.6235352,31.6533203c0,0-0.03125,0.0751953-0.2382813,0.1259766s-0.25,0.0136719-0.25,0.0136719l0.3066406,0.1757813 M136.1352539,31.7929688c0,0,0.0722656,0.0283203,0.1171875,0.2382813
				s0.0058594,0.2539063,0.0058594,0.2539063l0.1835938-0.3164063"/>
			<path style="&st3;" d="M142.3442383,44.3056641c-0.2304688,0.1318359-0.5253906,0.0537109-0.6582031-0.1767578l-5.3496094-9.265625c-0.1328125-0.2285156-0.0527344-0.5244141,0.1757813-0.65625l13.8476563-7.9951172
				c0.2304688-0.1318359,0.5253906-0.0537109,0.6582031,0.1748047l5.3496094,9.2666016c0.1328125,0.2294922,0.0527344,0.5244141-0.1757813,0.6572266l-13.8476563,7.9951172z"/>
			<g>
				<path style="&st0;" d="M146.3461914,34.1523438c-0.5800781,0.3359375-0.5839844,1.3085938-0.9199219,1.7871094c0.5820313-0.0498047,1.4238281,0.4384766,2.0058594,0.1074219c0.2753906-0.1572266,0.3769531-0.4980469,0.2265625-0.7597656
					c-0.1503906-0.2607422-0.4941406-0.3457031-0.7695313-0.1875c0.2753906-0.1582031,0.375-0.4970703,0.2246094-0.7587891c-0.1484375-0.2617188-0.4941406-0.3457031-0.7675781-0.1884766z"/>
			</g>
			<g>
				<path style="&st0;" d="M149.6469727,27.6230469l0.0878906-0.0507813l0.0527344,0.0908203l0.8847656-0.5107422l-0.1933594-0.0234375l0.109375-0.0634766l0.2363281,0.0273438l0.0585938,0.1015625l-1.0253906,0.5917969l0.0546875,0.09375l-0.0878906,0.0507813
					l-0.1777344-0.3076172z"/>
			</g>
			<g>
				<path style="&st0;" d="M143.0395508,42.859375l-0.0878906,0.0507813l-0.0527344-0.0908203l-0.8847656,0.5107422l0.1933594,0.0234375l-0.109375,0.0634766l-0.2363281-0.0273438l-0.0605469-0.1015625l1.0253906-0.5917969l-0.0527344-0.09375l0.0878906-0.0507813
					l0.1777344,0.3076172z"/>
			</g>
			<g>
				<path style="&st0;" d="M149.2700195,27.7519531c-0.1738281,0.1005859-0.1738281,0.3925781-0.2753906,0.5361328c0.1738281-0.0146484,0.4277344,0.1318359,0.6015625,0.0322266c0.0820313-0.046875,0.1132813-0.1494141,0.0683594-0.2275391
					c-0.0449219-0.0791016-0.1484375-0.1044922-0.2304688-0.0566406c0.0820313-0.0478516,0.1113281-0.1494141,0.0664063-0.2275391s-0.1484375-0.1035156-0.2304688-0.0566406z"/>
			</g>
			<g>
				<path style="&st0;" d="M143.418457,42.71875c0.1757813-0.0996094,0.1757813-0.3925781,0.2773438-0.5351563c-0.1757813,0.0146484-0.4277344-0.1318359-0.6035156-0.0322266c-0.0820313,0.046875-0.1113281,0.1494141-0.0664063,0.2275391
					s0.1484375,0.1035156,0.2304688,0.0566406c-0.0820313,0.046875-0.1132813,0.1484375-0.0683594,0.2275391c0.0449219,0.078125,0.1484375,0.1035156,0.2304688,0.0556641z"/>
			</g>
		</g>
		<g style="&st13;">
			<path style="&st3;" d="M50.9912109,208.2807617c-0.2294922-0.1328125-0.3085938-0.4277344-0.1767578-0.65625l5.3505859-9.2675781c0.1318359-0.2285156,0.4277344-0.3066406,0.65625-0.1757813l13.8476563,7.9960938
				c0.2294922,0.1328125,0.3085938,0.4277344,0.1767578,0.65625l-5.3505859,9.265625c-0.1318359,0.2304688-0.4277344,0.3085938-0.65625,0.1757813l-13.8476563-7.9941406z"/>
			<g>
				<g>
					<path d="M59.5029297,207.2670898c0.1220703-0.2109375,0.4111328-0.1914063,0.6689453-0.1191406c0.2587891,0.0703125,0.4873047,0.1953125,0.4873047,0.1953125l0.0634766-0.1074219c0,0-0.8886719-0.5390625-0.6455078-0.9609375l-0.5742188,0.9921875z"/>
				</g>
				<path d="M60.1972656,208.144043c0.4394531,0.2519531,1.1376953-0.2226563,1.5966797-0.2148438c-0.2363281-0.3925781-0.1748047-1.234375-0.6132813-1.4902344c-0.2060547-0.1191406-0.4853516-0.0253906-0.6210938,0.2109375
					c-0.1357422,0.234375-0.078125,0.5214844,0.1298828,0.6425781c-0.2080078-0.1210938-0.4863281-0.0253906-0.6220703,0.2089844s-0.0771484,0.5234375,0.1298828,0.6425781z"/>
			</g>
			<g>
				<path d="M69.1044922,206.2729492l0.0878906,0.0507813l-0.0527344,0.0917969l0.8847656,0.5097656l-0.0761719-0.1777344l0.109375,0.0625l0.0947266,0.21875l-0.0585938,0.1015625l-1.0253906-0.5917969l-0.0537109,0.09375l-0.0878906-0.0507813l0.1777344-0.3085938z
					"/>
			</g>
			<g>
				<path d="M52.6054688,208.1694336l-0.0878906-0.0507813l0.0527344-0.0898438l-0.8847656-0.5117188l0.0761719,0.1796875l-0.109375-0.0625l-0.0947266-0.21875l0.0585938-0.1015625l1.0253906,0.5917969l0.0537109-0.09375l0.0878906,0.0507813l-0.1777344,0.3066406z"
					/>
			</g>
			<g>
				<g>
					<path d="M68.0654297,206.1831055c0.0380859-0.0664063,0.1289063-0.0605469,0.2099609-0.0371094c0.0820313,0.0234375,0.1542969,0.0625,0.1542969,0.0625l0.0195313-0.0351563c0,0-0.2792969-0.1699219-0.203125-0.3027344l-0.1806641,0.3125z"/>
				</g>
				<path d="M68.2832031,206.4604492c0.1386719,0.078125,0.359375-0.0703125,0.5029297-0.0683594c-0.0742188-0.1230469-0.0546875-0.3886719-0.1923828-0.46875c-0.0654297-0.0371094-0.1533203-0.0078125-0.1953125,0.0664063
					c-0.0429688,0.0742188-0.0253906,0.1640625,0.0400391,0.2011719c-0.0654297-0.0371094-0.1523438-0.0078125-0.1953125,0.0664063s-0.0244141,0.1640625,0.0400391,0.203125z"/>
			</g>
			<g>
				<g>
					<path d="M53.6289063,208.2749023c-0.0380859,0.0664063-0.1289063,0.0605469-0.2109375,0.0371094c-0.0810547-0.0214844-0.1523438-0.0605469-0.1523438-0.0605469l-0.0205078,0.0332031c0,0,0.2802734,0.1699219,0.203125,0.3027344l0.1806641-0.3125z"/>
				</g>
				<path d="M53.4101563,207.9995117c-0.1386719-0.0800781-0.3574219,0.0683594-0.5019531,0.0664063c0.0742188,0.125,0.0546875,0.3886719,0.1923828,0.46875c0.0654297,0.0390625,0.1533203,0.0097656,0.1962891-0.0644531
					c0.0419922-0.0742188,0.0244141-0.1660156-0.0410156-0.203125c0.0654297,0.0371094,0.1523438,0.0078125,0.1953125-0.0664063s0.0244141-0.1640625-0.0410156-0.2011719z"/>
			</g>
			<path style="&st3;" d="M40.8623047,214.1342773c-0.1328125-0.2285156-0.0537109-0.5234375,0.1757813-0.65625l9.2666016-5.3496094c0.2285156-0.1328125,0.5234375-0.0527344,0.65625,0.1757813l7.9951172,13.8476563
				c0.1318359,0.2285156,0.0527344,0.5253906-0.1757813,0.65625l-9.2666016,5.3515625c-0.2294922,0.1308594-0.5244141,0.0527344-0.65625-0.1777344l-7.9951172-13.8476563z"/>
			<g>
				<path d="M49.7519531,219.034668c-0.1318359-0.2285156-0.0478516-0.5234375,0.1884766-0.6601563c0.2353516-0.1367188,0.5341797-0.0625,0.6660156,0.1679688c0.1318359,0.2285156,0.0478516,0.5234375-0.1875,0.6601563
					c-0.2363281,0.1367188-0.5341797,0.0605469-0.6669922-0.1679688z"/>
				<path d="M48.75,218.5678711c-0.1318359-0.2285156-0.0478516-0.5234375,0.1875-0.6601563c0.2363281-0.1367188,0.5351563-0.0605469,0.6669922,0.1679688s0.0478516,0.5234375-0.1884766,0.6601563c-0.2353516,0.1367188-0.5341797,0.0625-0.6660156-0.1679688z"/>
				<path d="M49.8417969,217.9350586c-0.0488281-0.0839844-0.0673828-0.1777344-0.0615234-0.2675781c0.0117188-0.1582031,0.1005859-0.3085938,0.25-0.3945313c0.2353516-0.1367188,0.5341797-0.0605469,0.6660156,0.1679688s0.0478516,0.5253906-0.1884766,0.6601563
					c-0.2353516,0.1367188-0.5341797,0.0625-0.6660156-0.1660156z"/>
				<g>
					<path d="M48.7597656,217.4858398c0.2109375-0.1210938,0.4208984-0.0136719,0.578125,0.125c0.1572266,0.1367188,0.2617188,0.3066406,0.2617188,0.3066406l0.1083984-0.0625c0,0-0.3759766-0.6972656,0.0458984-0.9414063l-0.9941406,0.5722656z"/>
				</g>
				<g>
					<path d="M50.2949219,218.315918c-0.3789063-0.0996094-0.5869141-0.4609375-0.5869141-0.4609375l-0.1083984,0.0625c0,0,0.2128906,0.3671875,0.1142578,0.734375"/>
				</g>
				<g>
					<path d="M49.8017578,217.5737305c-0.1015625,0.3789063-0.4619141,0.5859375-0.4619141,0.5859375l0.0615234,0.109375c0,0,0.3671875-0.2128906,0.7353516-0.1152344"/>
				</g>
				<g>
					<path d="M49.3193359,217.8491211c0.3779297,0.1015625,0.7382813-0.1054688,0.7382813-0.1054688l0.0634766,0.1074219c0,0-0.3681641,0.2109375-0.4667969,0.5800781"/>
				</g>
			</g>
			<g>
				<path d="M57.5527344,221.4506836l0.0507813,0.0878906l-0.0908203,0.0527344l0.5107422,0.8847656l0.0234375-0.1933594l0.0634766,0.109375l-0.0273438,0.2363281l-0.1015625,0.0585938l-0.5917969-1.0253906l-0.09375,0.0546875l-0.0507813-0.0878906
					l0.3076172-0.1777344z"/>
			</g>
			<g>
				<path d="M42.3164063,214.8432617l-0.0507813-0.0878906l0.0908203-0.0527344l-0.5107422-0.8847656l-0.0234375,0.1933594l-0.0634766-0.109375l0.0273438-0.2363281l0.1015625-0.0585938l0.5917969,1.0253906l0.09375-0.0546875l0.0507813,0.0878906
					l-0.3076172,0.1777344z"/>
			</g>
			<g>
				<path d="M57.0292969,221.3217773c-0.0390625-0.0703125-0.0136719-0.1582031,0.0566406-0.1992188c0.0712891-0.0410156,0.1611328-0.0175781,0.2011719,0.0507813c0.0390625,0.0683594,0.0136719,0.15625-0.0566406,0.1972656
					c-0.0712891,0.0410156-0.1611328,0.0195313-0.2011719-0.0488281z"/>
				<path d="M56.7285156,221.1811523c-0.0390625-0.0683594-0.0146484-0.1582031,0.0566406-0.1992188c0.0703125-0.0410156,0.1601563-0.0175781,0.2001953,0.0507813S57,221.190918,56.9287109,221.2319336s-0.1601563,0.0175781-0.2001953-0.0507813z"/>
				<path d="M57.0566406,220.9897461c-0.0146484-0.0253906-0.0205078-0.0527344-0.0185547-0.0800781c0.0039063-0.046875,0.0302734-0.0917969,0.0751953-0.1171875c0.0703125-0.0410156,0.1601563-0.0195313,0.2001953,0.0488281
					c0.0400391,0.0703125,0.0146484,0.1582031-0.0566406,0.1992188s-0.1601563,0.0195313-0.2001953-0.0507813z"/>
				<g>
					<path d="M56.7314453,220.8549805c0.0634766-0.0351563,0.1269531-0.0039063,0.1738281,0.0371094c0.0478516,0.0429688,0.0791016,0.09375,0.0791016,0.09375l0.0322266-0.0195313c0,0-0.1132813-0.2089844,0.0136719-0.2832031l-0.2988281,0.171875z"/>
				</g>
				<g>
					<path d="M57.1923828,221.1049805c-0.1132813-0.0292969-0.1757813-0.1386719-0.1757813-0.1386719l-0.0322266,0.0195313c0,0,0.0634766,0.109375,0.0341797,0.2207031"/>
				</g>
				<g>
					<path d="M57.0449219,220.8823242c-0.03125,0.1132813-0.1386719,0.1757813-0.1386719,0.1757813l0.0175781,0.0332031c0,0,0.1113281-0.0644531,0.2216797-0.0351563"/>
				</g>
				<g>
					<path d="M56.8994141,220.9643555c0.1142578,0.03125,0.2216797-0.03125,0.2216797-0.03125l0.0195313,0.03125c0,0-0.1103516,0.0644531-0.140625,0.1757813"/>
				</g>
			</g>
			<g>
				<path d="M42.8544922,214.987793c0.0390625,0.0683594,0.0146484,0.1582031-0.0566406,0.1992188c-0.0712891,0.0390625-0.1611328,0.0175781-0.2001953-0.0507813c-0.0400391-0.0683594-0.0146484-0.1582031,0.0566406-0.1992188
					c0.0703125-0.0410156,0.1601563-0.0175781,0.2001953,0.0507813z"/>
				<path d="M43.1552734,215.128418c0.0400391,0.0683594,0.0146484,0.15625-0.0566406,0.1972656c-0.0703125,0.0410156-0.1601563,0.0195313-0.2001953-0.0507813c-0.0390625-0.0683594-0.0136719-0.15625,0.0566406-0.1972656
					c0.0712891-0.0410156,0.1601563-0.0195313,0.2001953,0.0507813z"/>
				<path d="M42.8271484,215.3178711c0.0146484,0.0253906,0.0205078,0.0527344,0.0185547,0.0800781c-0.0039063,0.046875-0.0302734,0.09375-0.0751953,0.1191406c-0.0703125,0.0410156-0.1601563,0.0175781-0.2001953-0.0507813
					c-0.0390625-0.0683594-0.0136719-0.1582031,0.0566406-0.1992188c0.0712891-0.0410156,0.1601563-0.0175781,0.2001953,0.0507813z"/>
				<g>
					<path d="M43.1523438,215.4526367c-0.0634766,0.0371094-0.1269531,0.0039063-0.1738281-0.0371094s-0.078125-0.0917969-0.078125-0.0917969l-0.0332031,0.0175781c0,0,0.1132813,0.2109375-0.0136719,0.2832031l0.2988281-0.171875z"/>
				</g>
				<g>
					<path d="M42.6914063,215.2026367c0.1132813,0.03125,0.1757813,0.1386719,0.1757813,0.1386719l0.0332031-0.0175781c0,0-0.0644531-0.1113281-0.0351563-0.2207031"/>
				</g>
				<g>
					<path d="M42.8398438,215.4272461c0.0302734-0.1152344,0.1386719-0.1777344,0.1386719-0.1777344l-0.0185547-0.03125c0,0-0.1103516,0.0625-0.2216797,0.0332031"/>
				</g>
				<g>
					<path d="M42.984375,215.3432617c-0.1132813-0.0292969-0.2216797,0.0332031-0.2216797,0.0332031l-0.0195313-0.0332031c0,0,0.1103516-0.0644531,0.140625-0.1738281"/>
				</g>
			</g>
			<path style="&st3;" d="M30.6855469,208.3217773c0.1318359-0.2285156,0.4277344-0.3085938,0.6572266-0.1757813l9.2666016,5.3496094c0.2285156,0.1328125,0.3066406,0.4277344,0.1748047,0.6582031l-7.9951172,13.8457031
				c-0.1318359,0.2304688-0.4267578,0.3085938-0.65625,0.1777344l-9.265625-5.3496094c-0.2294922-0.1328125-0.3085938-0.4277344-0.1767578-0.6582031l7.9951172-13.8476563z"/>
			<path style="&st0;" d="M31.6269531,218.0913086l0.9453125,0.546875c0,0-0.1298828-0.1152344-0.7734375,0.0429688c-0.6425781,0.1582031-0.7363281,0.3886719-0.7363281,0.3886719 M32.5722656,218.6381836c0,0-0.2246094-0.0898438-0.3613281-0.7382813
				c-0.1376953-0.6503906-0.0195313-0.7851563-0.0195313-0.7851563l-0.5644531,0.9765625 M32.1914063,217.1147461c0,0-0.09375,0.2304688-0.7373047,0.3886719s-0.7734375,0.0429688-0.7734375,0.0429688l0.9462891,0.5449219 M30.6806641,217.5463867
				c0,0,0.2246094,0.0878906,0.3623047,0.7382813c0.1367188,0.6484375,0.0195313,0.7851563,0.0195313,0.7851563l0.5644531-0.9785156"/>
			<g>
				<path style="&st0;" d="M32.703125,226.425293l-0.0507813,0.0878906l-0.0908203-0.0527344l-0.5107422,0.8847656l0.1787109-0.0761719l-0.0625,0.109375l-0.21875,0.0957031l-0.1015625-0.0585938l0.5917969-1.0253906l-0.09375-0.0546875l0.0507813-0.0878906
					l0.3076172,0.1777344z"/>
			</g>
			<g>
				<path style="&st0;" d="M30.8076172,209.925293l0.0507813-0.0878906l0.0908203,0.0527344l0.5107422-0.8847656L31.28125,209.081543l0.0625-0.109375l0.21875-0.09375l0.1015625,0.0585938l-0.5917969,1.0253906l0.09375,0.0527344l-0.0507813,0.0878906
					l-0.3076172-0.1777344z"/>
			</g>
			<path style="&st0;" d="M32.7626953,225.8081055l0.3056641,0.1757813c0,0-0.0419922-0.0371094-0.25,0.0136719s-0.2382813,0.1269531-0.2382813,0.1269531 M33.0683594,225.9838867c0,0-0.0722656-0.0292969-0.1171875-0.2382813
				c-0.0439453-0.2109375-0.0058594-0.2539063-0.0058594-0.2539063l-0.1826172,0.3164063 M32.9453125,225.4916992c0,0-0.0302734,0.0742188-0.2382813,0.125c-0.2080078,0.0527344-0.25,0.0136719-0.25,0.0136719l0.3056641,0.1777344 M32.4570313,225.6303711
				c0,0,0.0722656,0.0292969,0.1171875,0.2402344c0.0439453,0.2089844,0.0058594,0.2539063,0.0058594,0.2539063l0.1826172-0.3164063"/>
			<path style="&st0;" d="M30.7060547,210.550293l-0.3056641-0.1777344c0,0,0.0419922,0.0371094,0.25-0.0136719s0.2382813-0.125,0.2382813-0.125 M30.4003906,210.3725586c0,0,0.0722656,0.0292969,0.1171875,0.2382813
				c0.0449219,0.2109375,0.0058594,0.2539063,0.0058594,0.2539063l0.1826172-0.3144531 M30.5234375,210.8647461c0,0,0.03125-0.0742188,0.2382813-0.125c0.2080078-0.0507813,0.25-0.0136719,0.25-0.0136719l-0.3056641-0.1757813 M31.0117188,210.7260742
				c0,0-0.0722656-0.0292969-0.1171875-0.2382813c-0.0439453-0.2109375-0.0058594-0.2539063-0.0058594-0.2539063l-0.1826172,0.3164063"/>
			<path style="&st3;" d="M24.8037109,198.2124023c0.2294922-0.1308594,0.5244141-0.0527344,0.6572266,0.1777344l5.3496094,9.265625c0.1328125,0.2285156,0.0527344,0.5234375-0.1757813,0.65625l-13.8476563,7.9941406
				c-0.2294922,0.1328125-0.5244141,0.0546875-0.6572266-0.1738281l-5.3496094-9.2675781c-0.1318359-0.2285156-0.0527344-0.5234375,0.1757813-0.65625l13.8476563-7.9960938z"/>
			<g>
				<path style="&st0;" d="M20.8007813,208.3666992c0.5810547-0.3359375,0.5839844-1.3085938,0.9199219-1.7871094c-0.5820313,0.0488281-1.4238281-0.4394531-2.0058594-0.1074219c-0.2753906,0.15625-0.3759766,0.4980469-0.2255859,0.7597656
					c0.1503906,0.2597656,0.4941406,0.3457031,0.7685547,0.1875c-0.2744141,0.1582031-0.375,0.4960938-0.2246094,0.7578125c0.1494141,0.2617188,0.4941406,0.3457031,0.7675781,0.1894531z"/>
			</g>
			<g>
				<path style="&st0;" d="M17.5019531,214.8959961l-0.0878906,0.0507813l-0.0527344-0.0898438l-0.8847656,0.5097656l0.1933594,0.0234375l-0.109375,0.0644531l-0.2363281-0.0273438l-0.0595703-0.1015625l1.0253906-0.5917969l-0.0537109-0.09375l0.0878906-0.0507813
					l0.1777344,0.3066406z"/>
			</g>
			<g>
				<path style="&st0;" d="M24.1083984,199.659668l0.0878906-0.0507813l0.0527344,0.0898438l0.8847656-0.5097656l-0.1933594-0.0234375l0.109375-0.0644531l0.2363281,0.0273438l0.0595703,0.1015625l-1.0253906,0.5917969l0.0537109,0.09375l-0.0878906,0.0507813
					l-0.1777344-0.3066406z"/>
			</g>
			<g>
				<path style="&st0;" d="M17.8769531,214.7670898c0.1738281-0.1015625,0.1748047-0.3925781,0.2763672-0.5371094c-0.1748047,0.015625-0.4277344-0.1308594-0.6025391-0.03125c-0.0820313,0.046875-0.1123047,0.1484375-0.0673828,0.2265625
					c0.0449219,0.0800781,0.1484375,0.1054688,0.2304688,0.0566406c-0.0820313,0.0488281-0.1123047,0.1503906-0.0673828,0.2285156s0.1484375,0.1035156,0.2304688,0.0566406z"/>
			</g>
			<g>
				<path style="&st0;" d="M23.7285156,199.800293c-0.1738281,0.0996094-0.1748047,0.3925781-0.2763672,0.5351563c0.1748047-0.015625,0.4267578,0.1308594,0.6025391,0.03125c0.0820313-0.046875,0.1123047-0.1484375,0.0673828-0.2265625
					s-0.1484375-0.1035156-0.2304688-0.0566406c0.0820313-0.046875,0.1123047-0.1484375,0.0673828-0.2285156c-0.0449219-0.078125-0.1484375-0.1035156-0.2304688-0.0546875z"/>
			</g>
		</g>
		<g>
			<path style="&st4;" d="M148.9262695,153.4897461c0,33.8007813-128.434082,33.8007813-128.434082,0c0-33.8022461,28.7509766-61.2026367,64.2172852-61.2026367c35.4667969,0,64.2167969,27.4003906,64.2167969,61.2026367z"/>
		</g>
		<g>
			<path style="&st2;" d="M142.0219727,154.0737305c0,29.9375-113.7543945,29.9375-113.7543945,0s25.4648438-54.206543,56.8774414-54.206543c31.4121094,0,56.8769531,24.269043,56.8769531,54.206543z"/>
		</g>
		<g>
			<path style="&st5;" d="M135.0004883,154.0756836c0,26.2285156-99.659668,26.2285156-99.659668,0s22.3095703-47.4916992,49.8295898-47.4916992c27.5214844,0,49.8300781,21.2631836,49.8300781,47.4916992z"/>
		</g>
		<g>
			<path style="&st6;" d="M127.5844727,154.9311523c0,22.2949219-84.7114258,22.2949219-84.7114258,0c0-22.2929688,18.9628906-40.3666992,42.355957-40.3666992c23.3925781,0,42.3554688,18.0737305,42.3554688,40.3666992z"/>
		</g>
		<g>
			<path style="&st1;" d="M119.1137695,154.9311523c0,17.8359375-67.7700195,17.8359375-67.7700195,0c0-17.8339844,15.1708984-32.2929688,33.8852539-32.2929688c18.7128906,0,33.8847656,14.4589844,33.8847656,32.2929688z"/>
		</g>
		<g>
			<path style="&st7;" d="M110.965332,154.6147461c0,13.6914063-52.0229492,13.6914063-52.0229492,0s11.6464844-24.7910156,26.0131836-24.7910156c14.3652344,0,26.0097656,11.0996094,26.0097656,24.7910156z"/>
		</g>
		<g>
			<path style="&st8;" d="M101.6313477,151.925293c0,8.8320313-33.5571289,8.8320313-33.5571289,0c0-8.8300781,7.5117188-15.9902344,16.777832-15.9902344c9.2675781,0,16.7792969,7.1601563,16.7792969,15.9902344z"/>
		</g>
		<path style="&st8;" d="M151.699707,180.2495117H18.4628906v-31.2382813H151.699707v31.2382813z"/>
		<g>
			<path style="&st6;" d="M19.5253906,128.3999023l-2.5869141-0.140625l-1.5810547,2.0527344l-0.6669922-2.5039063L12.25,126.9389648l2.1757813-1.4082031l0.0732422-2.5898438l2.0107422,1.6347656l2.4853516-0.7304688L18.0625,126.2612305l1.4628906,2.1386719z"/>
			<g>
				<path style="&st10;" d="M19.5253906,128.3999023l-2.5869141-0.140625l-1.5810547,2.0527344l-0.6669922-2.5039063L12.25,126.9389648l2.1757813-1.4082031l0.0732422-2.5898438l2.0107422,1.6347656l2.4853516-0.7304688L18.0625,126.2612305l1.4628906,2.1386719z"/>
				<path style="&st13;" d="M19.5253906,128.324707c-0.6108398-0.0332031-1.2216797-0.0664063-1.8325195-0.0996094c-0.7729492-0.0419922-0.7431641-0.0556641-1.215332,0.5576172c-0.1333008,0.1728516-1.1655273,1.2783203-1.1279297,1.4208984
					c-0.1928711-0.7246094-0.3857422-1.4482422-0.5786133-2.171875c-0.1171875-0.4404297-0.3457031-0.3935547-0.7919922-0.5517578c-0.4150391-0.1484375-0.8300781-0.2958984-1.2451172-0.4433594c-0.3510742-0.125-0.4599609-0.0380859-0.3632813-0.1005859
					c0.4746094-0.3076172,2.0493164-0.9208984,2.0664063-1.5283203c0.0200195-0.7138672,0.0405273-1.4277344,0.0605469-2.140625c0.0097656-0.3359375-0.0009766-0.2529297,0.2387695-0.0585938c0.3276367,0.2666016,0.6547852,0.5322266,0.9819336,0.7988281
					c0.3789063,0.3076172,0.6074219,0.6972656,1.0849609,0.5566406c0.71875-0.2109375,1.4370117-0.421875,2.1557617-0.6328125c0.034668-0.1552734,0.0288086-0.1640625-0.0175781-0.0244141c-0.0444336,0.1152344-0.0888672,0.2304688-0.1333008,0.3447266
					c-0.1586914,0.4111328-0.3168945,0.8222656-0.4755859,1.2333984c-0.0883789,0.2285156-0.2773438,0.5224609-0.2773438,0.7763672c0,0.6054688,1.1201172,1.7021484,1.4682617,2.2109375c-0.0092773-0.0136719,0.0263672-0.1123047,0.0039063-0.1445313
					c-0.4804688-0.7021484-0.9609375-1.4052734-1.4414063-2.1074219c-0.0668945-0.0976563,0.7470703-1.8769531,0.9111328-2.3027344c0.0058594-0.015625,0.003418-0.1484375-0.0019531-0.1474609c-0.8286133,0.2441406-1.6567383,0.4873047-2.4853516,0.7304688
					c-0.2724609,0.0800781-1.7319336-1.4082031-2.0107422-1.6347656c-0.0009766-0.0009766-0.0073242,0.0527344-0.0073242,0.0556641c-0.0239258,0.8505859-0.0478516,1.7011719-0.0722656,2.5517578c-0.0073242,0.2587891-1.8745117,1.2001953-2.1694336,1.390625
					c-0.0141602,0.0097656-0.0146484,0.1455078,0,0.1503906c0.8017578,0.2851563,1.6030273,0.5703125,2.4047852,0.8564453c0.3208008,0.1142578,0.6000977,2.1357422,0.7006836,2.5136719c0.0004883,0.0009766,0.0014648,0.0019531,0.0019531,0.0029297
					c0.5268555-0.6845703,1.0541992-1.3691406,1.5810547-2.0527344c0.1733398-0.2246094,2.2285156,0.1210938,2.5869141,0.140625c0.0087891,0,0.0136719-0.1494141,0-0.1503906z"/>
			</g>
		</g>
		<g>
			<path style="&st6;" d="M41.2910156,90.3027344l-1.0634766-1.8359375l-2.1152344-0.1640625l1.4169922-1.578125l-0.4970703-2.0625l1.9394531,0.859375l1.8076172-1.109375l-0.21875,2.1103516l1.6152344,1.3759766l-2.0751953,0.4443359l-0.8095703,1.9599609z"/>
			<g>
				<path style="&st10;" d="M41.2910156,90.3027344l-1.0634766-1.8359375l-2.1152344-0.1640625l1.4169922-1.578125l-0.4970703-2.0625l1.9394531,0.859375l1.8076172-1.109375l-0.21875,2.1103516l1.6152344,1.3759766l-2.0751953,0.4443359l-0.8095703,1.9599609z"/>
				<path style="&st13;" d="M41.2929688,90.2304688c-0.3847656-0.6640625-0.6694336-1.8081055-1.4848633-1.8710938c-0.4399414-0.0341797-1.4428711-0.2631836-1.675293-0.0043945c0.409668-0.456543,0.8193359-0.9125977,1.2290039-1.3691406
					c0.3227539-0.359375,0.0888672-0.668457-0.0263672-1.1455078c-0.0805664-0.3354492-0.1616211-0.6713867-0.2426758-1.0068359c-0.0771484-0.3212891-0.0629883-0.0976563,0.168457,0.0048828c0.5605469,0.2485352,1.121582,0.4970703,1.6821289,0.7456055
					c0.1674805,0.0742188,0.9672852-0.5639648,1.1245117-0.6601563c0.2285156-0.1401367,0.456543-0.2802734,0.6850586-0.4204102c0.0205078-0.1425781,0.0234375-0.1513672,0.0087891-0.0273438c-0.0170898,0.1660156-0.0341797,0.3320313-0.0512695,0.4980469
					c-0.0375977,0.3598633-0.3955078,1.4140625-0.0605469,1.699707c0.4790039,0.4077148,0.9575195,0.8154297,1.4365234,1.2231445c0.0766602,0.0932617,0.0966797,0.0708008,0.059082-0.0668945c-0.1269531,0.0268555-0.2539063,0.0541992-0.3813477,0.081543
					c-0.3525391,0.0756836-0.7055664,0.1508789-1.0585938,0.2265625c-0.5307617,0.1137695-0.5693359,0.0415039-0.7675781,0.5209961c-0.2163086,0.5234375-0.4326172,1.0473633-0.6489258,1.5712891c-0.0166016,0.0395508,0.0126953,0.1235352,0.0039063,0.1445313
					c0.2661133-0.6435547,0.5317383-1.2875977,0.7978516-1.9311523c0.105957-0.2563477,1.7734375-0.4038086,2.0849609-0.4702148c0.0136719-0.003418,0.0131836-0.1386719,0-0.1503906c-0.5307617-0.4516602-1.0610352-0.9038086-1.5917969-1.355957
					c-0.0917969-0.078125,0.1577148-1.5878906,0.2006836-2.0019531c0.0009766-0.012207-0.0053711-0.128418-0.0053711-0.128418c-0.6025391,0.3701172-1.2050781,0.7397461-1.8076172,1.109375c-0.1987305,0.1220703-1.6704102-0.7397461-1.9394531-0.859375
					c-0.003418-0.0014648-0.0058594,0.1318359-0.0019531,0.1474609c0.1630859,0.6777344,0.3266602,1.3549805,0.4897461,2.0327148c-0.0073242-0.0317383-1.1704102,1.1962891-1.4077148,1.4604492c-0.0117188,0.0131836-0.0126953,0.1494141,0,0.1503906
					c0.6948242,0.0537109,1.3896484,0.1074219,2.0844727,0.1616211c0.2788086,0.0214844,0.9316406,1.5581055,1.0922852,1.8354492c-0.0097656-0.0166016,0.0244141-0.109375,0.0039063-0.1445313z"/>
			</g>
		</g>
		<g>
			<path style="&st6;" d="M135.4946289,128.4956055l-2.8984375-0.7714844l-2.2792969,1.9511719l-0.1621094-2.9960938l-2.5585938-1.5664063l2.7988281-1.078125l0.6992188-2.918457l1.890625,2.3286133l2.9902344-0.2382813l-1.6308594,2.5195313l1.1503906,2.7695313z"
				/>
			<g>
				<path style="&st10;" d="M135.4946289,128.4956055l-2.8984375-0.7714844l-2.2792969,1.9511719l-0.1621094-2.9960938l-2.5585938-1.5664063l2.7988281-1.078125l0.6992188-2.918457l1.890625,2.3286133l2.9902344-0.2382813l-1.6308594,2.5195313l1.1503906,2.7695313z
					"/>
				<path style="&st13;" d="M135.4946289,128.4204102c-1.0351563-0.2753906-2.4873047-1.1230469-3.3505859-0.3847656c-0.5976563,0.5126953-1.1962891,1.0244141-1.7939453,1.5361328c0.1298828-0.1113281-0.1386719-2.0097656-0.15625-2.3369141
					c-0.0634766-1.1660156-1.3486328-1.4326172-2.2958984-2.0117188c-0.2978516-0.1826172-0.3066406-0.0332031-0.1464844-0.0947266c0.4150391-0.1601563,0.8291016-0.3203125,1.2441406-0.4794922c0.359375-0.1386719,1.3398438-0.2851563,1.4404297-0.7041016
					c0.1923828-0.8037109,0.3847656-1.6074219,0.578125-2.4116211c0.1660156-0.6938477,0.9648438,0.7475586,1.2265625,1.0698242c0.3564453,0.4394531,0.5224609,0.9345703,1.0976563,0.8886719c0.8642578-0.0693359,1.7285156-0.1376953,2.5927734-0.2070313
					c-0.0527344,0.0048828-1.5947266,1.9345703-1.5947266,2.4414063c0,0.8466797,0.8291016,2.0546875,1.15625,2.8417969c-0.0087891-0.0214844,0.0205078-0.1054688,0.0039063-0.1445313c-0.3779297-0.9101563-0.7558594-1.8193359-1.1337891-2.7294922
					c-0.0566406-0.1357422,1.3583984-2.0205078,1.6142578-2.4150391c0.0087891-0.0136719,0.0068359-0.1484375-0.0019531-0.1474609c-0.9970703,0.0800781-1.9931641,0.1591797-2.9902344,0.2382813c-0.328125,0.0263672-1.6289063-2.0058594-1.890625-2.3286133
					c-0.0009766,0.0009766-0.0009766,0.0019531-0.0019531,0.0029297c-0.2294922,0.9584961-0.4589844,1.9174805-0.6894531,2.8754883c-0.0917969,0.3837891-2.3847656,0.9560547-2.8066406,1.1181641c-0.0146484,0.0058594-0.0146484,0.1416016,0,0.1503906
					c0.8408203,0.5146484,1.6806641,1.0292969,2.5214844,1.5429688c0.3242188,0.1992188,0.1679688,2.5322266,0.1923828,2.9824219c0,0,0.0048828,0.0380859,0.0068359,0.0371094c0.7597656-0.6503906,1.5195313-1.3007813,2.2792969-1.9511719
					c0.25-0.2138672,2.4970703,0.6640625,2.8984375,0.7714844c-0.0009766-0.0009766,0.0224609-0.1445313,0-0.1503906z"/>
			</g>
		</g>
		<g>
			<path style="&st6;" d="M114.0883789,95.0371094l-1.75-3.5429688l-3.9101563-0.5683594l2.8300781-2.7578125l-0.6679688-3.8945313l3.4980469,1.8388672l3.4960938-1.8388672l-0.6679688,3.8945313l2.8300781,2.7578125l-3.9101563,0.5683594l-1.7480469,3.5429688z"/>
			<g>
				<path style="&st10;" d="M114.0883789,95.0371094l-1.75-3.5429688l-3.9101563-0.5683594l2.8300781-2.7578125l-0.6679688-3.8945313l3.4980469,1.8388672l3.4960938-1.8388672l-0.6679688,3.8945313l2.8300781,2.7578125l-3.9101563,0.5683594l-1.7480469,3.5429688z"
					/>
				<path style="&st13;" d="M114.090332,94.9648438c-0.6328125-1.28125-1.0195313-3.4394531-2.5273438-3.6582031c-0.5830078-0.0849609-2.7412109-0.6894531-3.09375-0.3461914c0.8183594-0.7973633,1.6367188-1.5947266,2.4550781-2.3916016
					c0.6826172-0.6655273,0.1621094-1.4921875,0.0039063-2.4130859c-0.0996094-0.5771484-0.1982422-1.1542969-0.296875-1.7314453c-0.0410156-0.2358398,0.3886719,0.1499023,0.6523438,0.2885742c0.9345703,0.4916992,1.8701172,0.9829102,2.8046875,1.4746094
					c0.2626953,0.1381836,2.1845703-1.1494141,2.4765625-1.3027344c0.2089844-0.1103516,0.9599609-0.3535156,1.0058594-0.6191406c-0.0839844,0.4916992-0.1689453,0.9838867-0.2529297,1.4760742c-0.1054688,0.6137695-0.7890625,2.1230469-0.2441406,2.6538086
					c0.8388672,0.8178711,1.6767578,1.6352539,2.515625,2.4526367c0.1708984,0.1660156-0.2304688,0.059082-0.6181641,0.1152344c-0.6650391,0.0966797-1.3300781,0.1933594-1.9951172,0.2900391c-1,0.1455078-1.0605469,0.0048828-1.4882813,0.8706055
					c-0.4667969,0.9472656-0.9345703,1.894043-1.4013672,2.8408203c-0.0185547,0.0375977,0.0136719,0.1254883,0.0039063,0.1445313c0.5742188-1.1635742,1.1484375-2.3276367,1.7226563-3.4912109c0.2294922-0.4658203,3.34375-0.5317383,3.9335938-0.6171875
					c0.0136719-0.0019531,0.0126953-0.1376953,0-0.1503906c-0.9296875-0.9057617-1.859375-1.8115234-2.7890625-2.7172852c-0.2792969-0.2724609,0.5234375-3.1713867,0.6308594-3.7949219c0.0019531-0.0141602-0.0029297-0.140625-0.0039063-0.1401367
					c-1.1650391,0.6132813-2.3310547,1.2260742-3.4960938,1.8388672c-0.3837891,0.2021484-3.0136719-1.5839844-3.4980469-1.8388672c-0.0009766-0.0004883-0.0058594,0.1259766-0.0039063,0.1401367c0.2197266,1.2792969,0.4384766,2.5581055,0.6582031,3.8374023
					c0.0478516,0.2802734-2.421875,2.2905273-2.8164063,2.6748047c-0.0126953,0.0126953-0.0136719,0.1484375,0,0.1503906c1.2841797,0.1865234,2.5683594,0.3730469,3.8535156,0.5600586c0.5166016,0.0751953,1.5400391,3.012207,1.8046875,3.5483398
					c-0.0097656-0.019043,0.0224609-0.1069336,0.0039063-0.1445313z"/>
			</g>
		</g>
		<g>
			<path style="&st6;" d="M79.875,112.6748047l-3.0908203-0.2060547l-1.921875,2.4306641l-0.7597656-3.0029297l-2.9052734-1.0771484l2.6220703-1.6513672l0.1259766-3.0957031l2.3798828,1.9833984l2.9833984-0.8359375l-1.1503906,2.8759766L79.875,112.6748047z"/>
			<g>
				<path style="&st10;" d="M79.875,112.6748047l-3.0908203-0.2060547l-1.921875,2.4306641l-0.7597656-3.0029297l-2.9052734-1.0771484l2.6220703-1.6513672l0.1259766-3.0957031l2.3798828,1.9833984l2.9833984-0.8359375l-1.1503906,2.8759766L79.875,112.6748047z"/>
				<path style="&st13;" d="M79.875,112.5996094c-0.7299805-0.0483398-1.4599609-0.097168-2.1899414-0.1459961c-0.9233398-0.0615234-0.887207-0.0771484-1.4609375,0.6489258c-0.1621094,0.2041016-1.4135742,1.5117188-1.3710938,1.6806641
					c-0.2192383-0.8681641-0.4389648-1.7363281-0.6586914-2.6044922c-0.1333008-0.5273438-0.4077148-0.4746094-0.9389648-0.6713867c-0.4941406-0.1831055-0.9882813-0.3662109-1.4819336-0.5493164c-0.3681641-0.1367188-0.5737305-0.0654297-0.4311523-0.1552734
					c0.5639648-0.3549805,2.4624023-1.0737305,2.4912109-1.7861328c0.034668-0.8530273,0.0693359-1.7060547,0.1040039-2.559082c0.0161133-0.3964844,0.0043945-0.3129883,0.2885742-0.0761719c0.3876953,0.3227539,0.7749023,0.6459961,1.1625977,0.96875
					c0.4482422,0.3735352,0.715332,0.8422852,1.2885742,0.6816406c0.862793-0.2412109,1.7250977-0.4833984,2.5878906-0.7246094c-0.0581055,0.0161133-1.1142578,2.2319336-1.1142578,2.7885742c0,0.71875,1.3149414,2.0395508,1.722168,2.6513672
					c-0.0097656-0.0141602,0.0258789-0.1113281,0.0039063-0.1445313c-0.5639648-0.847168-1.1279297-1.6943359-1.6918945-2.5415039c-0.1118164-0.1679688,0.9360352-2.2954102,1.1254883-2.769043c0.0063477-0.0151367,0.0039063-0.1489258-0.0019531-0.1474609
					c-0.9946289,0.2788086-1.9887695,0.5576172-2.9833984,0.8359375c-0.3271484,0.0917969-2.0498047-1.7080078-2.3798828-1.9833984c-0.0009766-0.0004883-0.0073242,0.0527344-0.0073242,0.0551758c-0.0415039,1.0170898-0.0825195,2.0336914-0.1240234,3.0507813
					c-0.0131836,0.3271484-2.2573242,1.4150391-2.6166992,1.6411133c-0.0141602,0.0092773-0.0146484,0.1450195,0,0.1503906c0.9541016,0.3535156,1.9086914,0.7075195,2.862793,1.0610352c0.3823242,0.1420898,0.6855469,2.5629883,0.800293,3.0161133
					c0.0004883,0.0009766,0.0014648,0.0019531,0.0019531,0.0029297c0.640625-0.8105469,1.28125-1.6206055,1.921875-2.4306641c0.2104492-0.2666016,2.6625977,0.1772461,3.0908203,0.2060547c0.0083008,0.0004883,0.0141602-0.1494141,0-0.1503906z"/>
			</g>
		</g>
		<g>
			<path style="&st6;" d="M44.3876953,128.3999023l-2.7080078-1.0234375l-2.3789063,1.6503906l0.1367188-2.8925781l-2.3046875-1.7519531l2.7929688-0.7636719l0.953125-2.7338867l1.5898438,2.4194336l2.8945313,0.0625l-1.8105469,2.2597656l0.8349609,2.7734375z"/>
			<g>
				<path style="&st10;" d="M44.3876953,128.3999023l-2.7080078-1.0234375l-2.3789063,1.6503906l0.1367188-2.8925781l-2.3046875-1.7519531l2.7929688-0.7636719l0.953125-2.7338867l1.5898438,2.4194336l2.8945313,0.0625l-1.8105469,2.2597656l0.8349609,2.7734375z"/>
				<path style="&st13;" d="M44.3876953,128.324707c-0.6396484-0.2412109-1.2788086-0.4833984-1.918457-0.7246094c-0.809082-0.3056641-0.7724609-0.3105469-1.4829102,0.1826172c-0.4047852,0.2802734-0.8095703,0.5615234-1.2138672,0.8417969
					c-0.1816406,0.1259766-0.465332,0.4462891-0.4575195,0.2802734c0.0405273-0.8574219,0.0810547-1.7148438,0.121582-2.5722656c0.0322266-0.6826172-1.1586914-1.1552734-1.6318359-1.5146484c-0.2788086-0.2119141-0.5224609-0.4013672-0.6313477-0.3720703
					c0.3530273-0.0957031,0.7060547-0.1923828,1.0585938-0.2890625c0.246582-0.0673828,1.625-0.2626953,1.7099609-0.5058594c0.25-0.7167969,0.5-1.4345703,0.75-2.1518555c0.3320313-0.9516602,0.6064453,0.0991211,0.9799805,0.6679688
					c0.203125,0.309082,0.5439453,1.206543,0.9570313,1.215332c0.8579102,0.0185547,1.7163086,0.0371094,2.5742188,0.0556641c0.222168,0.0048828,0.0683594-0.03125-0.1987305,0.3017578c-0.3081055,0.3847656-0.6157227,0.7685547-0.9238281,1.1533203
					c-0.128418,0.1601563-0.5288086,0.4873047-0.5351563,0.7138672c-0.0244141,0.8808594,0.5854492,2.0195313,0.840332,2.8652344c-0.0073242-0.0244141,0.0166016-0.1025391,0.0039063-0.1445313c-0.2744141-0.9111328-0.5483398-1.8222656-0.8227539-2.7333984
					c-0.0307617-0.1025391,1.515625-1.8027344,1.7963867-2.1523438c0.0112305-0.0136719,0.0117188-0.1503906,0-0.1503906c-0.9506836-0.0205078-1.9013672-0.0410156-2.8525391-0.0615234c-0.3823242-0.0078125-1.3891602-2.0512695-1.6298828-2.4174805
					c-0.0014648-0.003418-0.0024414-0.003418-0.0039063,0c-0.3129883,0.8979492-0.6259766,1.7963867-0.9394531,2.6938477c-0.125,0.3583984-2.3842773,0.6855469-2.8046875,0.8007813c-0.0141602,0.0039063-0.0136719,0.1396484,0,0.1503906
					c0.7568359,0.5751953,1.5141602,1.1503906,2.2709961,1.7265625c0.2246094,0.1699219-0.0864258,2.3154297-0.109375,2.8046875c-0.0004883,0.0097656,0.0068359,0.1132813,0.0063477,0.1132813c0.7929688-0.5507813,1.5859375-1.1005859,2.3789063-1.6503906
					c0.2612305-0.1816406,2.3325195,0.8808594,2.7080078,1.0234375c-0.0058594-0.0019531,0.0253906-0.140625,0-0.1503906z"/>
			</g>
		</g>
		<g>
			<path style="&st6;" d="M145.7504883,108.4248047l-1.0039063-1.078125l-1.4570313,0.2158203l0.7148438-1.2880859l-0.65625-1.3193359l1.4453125,0.2822266l1.0527344-1.0322266l0.1777344,1.4628906l1.3066406,0.6816406l-1.3359375,0.6220703l-0.2441406,1.453125z"/>
			<g>
				<path style="&st10;" d="M145.7504883,108.4248047l-1.0039063-1.078125l-1.4570313,0.2158203l0.7148438-1.2880859l-0.65625-1.3193359l1.4453125,0.2822266l1.0527344-1.0322266l0.1777344,1.4628906l1.3066406,0.6816406l-1.3359375,0.6220703l-0.2441406,1.453125z"
					/>
				<path style="&st13;" d="M145.7504883,108.3496094c-0.3583984-0.3847656-0.7412109-1.1166992-1.2929688-1.0351563c-0.3818359,0.0566406-0.7646484,0.1132813-1.1464844,0.1699219c-0.0292969,0.1459961-0.0224609,0.1723633,0.0205078,0.0791016
					c0.0556641-0.1015625,0.1123047-0.2026367,0.1679688-0.3041992c0.1220703-0.2192383,0.2431641-0.4379883,0.3652344-0.6572266c0.2050781-0.3691406,0.1464844-0.390625-0.0498047-0.784668c-0.0908203-0.1831055-0.1826172-0.3666992-0.2734375-0.5498047
					c-0.0380859-0.0766602-0.0761719-0.152832-0.1142578-0.2290039c-0.125-0.2529297-0.0244141,0.0019531-0.0576172-0.0043945c0.4169922,0.081543,0.8349609,0.1630859,1.2529297,0.2446289c0.2783203,0.0546875,0.3867188-0.1782227,0.5849609-0.3725586
					c0.1503906-0.1469727,0.6162109-0.7910156,0.6542969-0.4755859c0.0488281,0.4033203,0.0976563,0.8061523,0.1464844,1.2094727c0.0234375,0.1904297,0.234375,0.2167969,0.3964844,0.3017578c0.1816406,0.0947266,0.3632813,0.1894531,0.5449219,0.2841797
					c0.0751953,0.0390625,0.1513672,0.0786133,0.2265625,0.1181641c0.2441406,0.1269531,0,0.0019531,0.1347656-0.0605469c-0.3857422,0.1796875-0.7724609,0.3598633-1.1582031,0.5395508c-0.3984375,0.1850586-0.3388672,1.1337891-0.40625,1.5366211
					c-0.0048828,0.0297852,0.0058594,0.1425781,0.0078125,0.1298828c0.0800781-0.4775391,0.1601563-0.9545898,0.2402344-1.4321289c0.0302734-0.1782227,1.1416016-0.5424805,1.3359375-0.6328125c0.0146484-0.0068359,0.0146484-0.1425781,0-0.1503906
					c-0.4296875-0.2236328-0.8583984-0.4477539-1.2871094-0.6713867c-0.1640625-0.0854492-0.1650391-1.2314453-0.1923828-1.4511719c0.0009766,0.0024414-0.0029297-0.0239258-0.0048828-0.0219727c-0.3505859,0.3442383-0.7021484,0.6884766-1.0527344,1.0322266
					c-0.1152344,0.1132813-1.2451172-0.2426758-1.4453125-0.2822266c-0.0068359-0.0009766-0.0097656,0.1328125-0.0019531,0.1474609c0.2158203,0.4335938,0.4306641,0.8666992,0.6464844,1.300293c-0.0527344-0.105957,0.0136719-0.1318359-0.0742188,0.0263672
					c-0.0917969,0.1640625-0.1826172,0.328125-0.2734375,0.4921875c-0.1191406,0.2148438-0.2382813,0.4291992-0.3574219,0.644043c-0.0078125,0.0146484-0.0058594,0.1484375,0.0019531,0.1474609c0.4853516-0.0722656,0.9716797-0.144043,1.4570313-0.2158203
					c0.1601563-0.0239258,0.8652344,0.9282227,1.0039063,1.078125c-0.0185547-0.0200195,0.0292969-0.1191406,0-0.1503906z"/>
			</g>
		</g>
		<g>
			<path style="&st6;" d="M78.4277344,92.078125l-1.5693359-1.5859375l-2.1962891,0.3935547l1.0234375-1.9824219l-1.0527344-1.9677734l2.2011719,0.3613281l1.5449219-1.609375l0.3378906,2.2050781l2.0087891,0.9726563l-1.9931641,1.0019531l-0.3046875,2.2109375z"/>
			<g>
				<path style="&st10;" d="M78.4277344,92.078125l-1.5693359-1.5859375l-2.1962891,0.3935547l1.0234375-1.9824219l-1.0527344-1.9677734l2.2011719,0.3613281l1.5449219-1.609375l0.3378906,2.2050781l2.0087891,0.9726563l-1.9931641,1.0019531l-0.3046875,2.2109375z"
					/>
				<path style="&st13;" d="M78.4277344,92.0029297c-0.5605469-0.5664063-1.1733398-1.6567383-2.0048828-1.5078125c-0.5761719,0.1035156-1.1523438,0.206543-1.7285156,0.3100586c-0.0332031,0.1499023-0.0239258,0.1640625,0.0263672,0.0429688
					c0.0805664-0.1557617,0.1611328-0.3120117,0.2416992-0.4682617c0.1743164-0.3369141,0.3481445-0.6743164,0.5224609-1.0112305c0.2875977-0.5571289,0.2109375-0.5219727-0.1044922-1.1113281c-0.1459961-0.2734375-0.2924805-0.546875-0.4384766-0.8203125
					c-0.0610352-0.1137695-0.1220703-0.2275391-0.1826172-0.3413086c-0.1552734-0.2905273-0.0820313-0.078125-0.0942383-0.0800781c0.6362305,0.1044922,1.2724609,0.2089844,1.9091797,0.3134766c0.4228516,0.0693359,0.5766602-0.2875977,0.8676758-0.5908203
					c0.1357422-0.1411133,0.9272461-1.0258789,0.9521484-0.8637695c0.0927734,0.6074219,0.1860352,1.2148438,0.2792969,1.8222656c0.0610352,0.3989258,0.2441406,0.3681641,0.6289063,0.5541992c0.2792969,0.1352539,0.5585938,0.2705078,0.8378906,0.4057617
					c0.3110352,0.1503906,0.4194336,0.2167969,0.5566406,0.1479492c-0.5766602,0.2900391-1.152832,0.5795898-1.7290039,0.8691406c-0.5922852,0.2978516-0.4594727,1.7270508-0.5439453,2.3393555c-0.0039063,0.0297852,0.0058594,0.1420898,0.0078125,0.1298828
					c0.1000977-0.7265625,0.2001953-1.4526367,0.300293-2.1787109c0.0380859-0.2788086,1.699707-0.8764648,1.9936523-1.0239258c0.0146484-0.0073242,0.0146484-0.1430664,0-0.1503906c-0.659668-0.3193359-1.3198242-0.6386719-1.9794922-0.9584961
					c-0.2607422-0.1259766-0.3125-1.8774414-0.3632813-2.2089844c0-0.0039063-0.0014648-0.0073242-0.0039063-0.0102539c-0.5151367,0.5366211-1.0297852,1.0732422-1.5449219,1.609375c-0.1694336,0.1767578-1.8959961-0.3110352-2.2011719-0.3613281
					c-0.0073242-0.0009766-0.0097656,0.1328125-0.0019531,0.1474609c0.3457031,0.6464844,0.6914063,1.2929688,1.0375977,1.9389648c0.0166016,0.03125-0.824707,1.5107422-1.0083008,1.8666992c-0.0078125,0.0146484-0.0053711,0.1484375,0.0019531,0.1474609
					c0.7319336-0.1313477,1.4643555-0.2626953,2.1962891-0.3935547c0.2407227-0.043457,1.3515625,1.3657227,1.5693359,1.5859375c-0.0180664-0.0185547,0.0292969-0.1206055,0-0.1503906z"/>
			</g>
		</g>
	</g>
</svg>
